<svg width="55" height="46" viewBox="0 0 55 46" fill="none" xmlns="http://www.w3.org/2000/svg">
<path d="M35.714 3.33574C31.408 6.56526 28.1602 12.4983 24.6893 16.6241C18.1872 24.3529 11.0525 31.5806 4.65201 39.3861C1.79533 42.8698 0.175117 45.224 5.61615 43.4103C17.5589 39.4294 28.9926 34.5482 39.9059 28.2356C42.6085 26.6723 58.1955 21.8011 50.1341 18.4266C38.7924 13.6789 25.0628 13.4183 12.9101 12.5579C9.68839 12.3298 5.43133 11.7187 2.22071 12.4322C0.320232 12.8545 11.301 19.6017 11.904 19.9357C22.6078 25.8639 31.395 34.1571 41.8341 40.5598C48.1965 44.462 45.8448 33.0456 45.3973 29.2417C44.2993 19.9094 39.5307 11.1453 37.9776 1.82666" stroke="#FFDE67" stroke-width="3.5" stroke-linecap="round"/>
</svg>
