<svg width="980" height="2564" viewBox="0 0 980 2564" fill="none" xmlns="http://www.w3.org/2000/svg">
<g filter="url(#filter0_d_556_461)">
<rect opacity="0.5" x="1" y="55.5605" width="971.023" height="2500.44" rx="20" fill="#EFF5FF"/>
<g opacity="0.3">
<g clip-path="url(#clip0_556_461)">
<path d="M-29.7296 3915L-29.6657 33M10.5628 3915L10.6267 33M50.8553 3915L50.9192 33M91.1477 3915L91.2116 33M131.44 3915L131.504 33M171.733 3915L171.796 33M212.025 3915L212.089 33M252.318 3915L252.381 33M292.61 3915L292.674 33M332.903 3915L332.966 33M373.195 3915L373.259 33M413.488 3915L413.551 33M453.78 3915L453.844 33M494.073 3915L494.136 33M534.365 3915L534.429 33M574.658 3915L574.721 33M614.95 3915L615.014 33M655.243 3915L655.306 33M695.535 3915L695.599 33M735.828 3915L735.891 33M776.12 3915L776.184 33M816.413 3915L816.476 33M856.705 3915L856.769 33M896.998 3915L897.061 33M937.29 3915L937.354 33M977.583 3915L977.646 33M1017.88 3915L1017.94 33M1058.17 3915L1058.23 33M1098.46 3915L1098.52 33M1138.75 3915L1138.82 33M1179.05 3915L1179.11 33M1219.34 3915L1219.4 33M1259.63 3915L1259.69 33M1299.92 3915L1299.99 33M1340.22 3915L1340.28 33M-72 146.954L1368 147.126M-72 255.576L1368 255.748M-72 364.197L1368 364.369M-72 472.819L1368 472.991M-72 581.441L1368 581.613M-72 690.062L1368 690.234M-72 798.684L1368 798.856M-72 907.306L1368 907.478M-72 1015.93L1368 1016.1M-72 1124.55L1368 1124.72M-72 1233.17L1368 1233.34M-72 1341.79L1368 1341.97M-72 1450.42L1368 1450.59M-72 1559.04L1368 1559.21M-72 1667.66L1368 1667.83M-72 1776.28L1368 1776.45M-72 1884.9L1368 1885.08M-72 1993.52L1368 1993.7M-72 2102.15L1368 2102.32M-72 2210.77L1368 2210.94M-72 2319.39L1368 2319.56M-72 2428.01L1368 2428.18M-72 2536.63L1368 2536.81M-72 2645.26L1368 2645.43M-72 2753.88L1368 2754.05M-72 2862.5L1368 2862.67M-72 2971.12L1368 2971.29M-72 3079.74L1368 3079.92M-72 3188.37L1368 3188.54M-72 3296.99L1368 3297.16M-72 3405.61L1368 3405.78M-72 3514.23L1368 3514.4M-72 3622.85L1368 3623.03M-72 3731.47L1368 3731.65M-72 3840.1L1368 3840.27" stroke="#4395E6"/>
</g>
<rect x="1.52344" y="56.0605" width="970" height="2499.31" rx="19.5" stroke="#4395E6"/>
</g>
<ellipse cx="67.6072" cy="107.254" rx="6.89917" ry="16.7152" fill="#276BC6"/>
<rect x="63.3418" y="0.5" width="9" height="108.025" rx="4.5" fill="#EFF5FF" stroke="#276BC6"/>
<ellipse cx="151.405" cy="107.254" rx="6.89917" ry="16.7152" fill="#276BC6"/>
<rect x="147.14" y="0.5" width="9" height="108.025" rx="4.5" fill="#EFF5FF" stroke="#276BC6"/>
<ellipse cx="235.204" cy="107.254" rx="6.89917" ry="16.7152" fill="#276BC6"/>
<rect x="230.938" y="0.5" width="9" height="108.025" rx="4.5" fill="#EFF5FF" stroke="#276BC6"/>
<ellipse cx="319.002" cy="107.254" rx="6.89917" ry="16.7152" fill="#276BC6"/>
<rect x="314.736" y="0.5" width="9" height="108.025" rx="4.5" fill="#EFF5FF" stroke="#276BC6"/>
<ellipse cx="402.801" cy="107.254" rx="6.89917" ry="16.7152" fill="#276BC6"/>
<rect x="398.535" y="0.5" width="9" height="108.025" rx="4.5" fill="#EFF5FF" stroke="#276BC6"/>
<ellipse cx="486.598" cy="107.254" rx="6.89917" ry="16.7152" fill="#276BC6"/>
<rect x="482.333" y="0.5" width="9" height="108.025" rx="4.5" fill="#EFF5FF" stroke="#276BC6"/>
<ellipse cx="570.397" cy="107.254" rx="6.89917" ry="16.7152" fill="#276BC6"/>
<rect x="566.132" y="0.5" width="9" height="108.025" rx="4.5" fill="#EFF5FF" stroke="#276BC6"/>
<ellipse cx="654.195" cy="107.254" rx="6.89917" ry="16.7152" fill="#276BC6"/>
<rect x="649.93" y="0.5" width="9" height="108.025" rx="4.5" fill="#EFF5FF" stroke="#276BC6"/>
<ellipse cx="737.994" cy="107.254" rx="6.89917" ry="16.7152" fill="#276BC6"/>
<rect x="733.729" y="0.5" width="9" height="108.025" rx="4.5" fill="#EFF5FF" stroke="#276BC6"/>
<ellipse cx="821.792" cy="107.254" rx="6.89917" ry="16.7152" fill="#276BC6"/>
<rect x="817.526" y="0.5" width="9" height="108.025" rx="4.5" fill="#EFF5FF" stroke="#276BC6"/>
<ellipse cx="905.591" cy="107.254" rx="6.89917" ry="16.7152" fill="#276BC6"/>
<rect x="901.325" y="0.5" width="9" height="108.025" rx="4.5" fill="#EFF5FF" stroke="#276BC6"/>
</g>
<defs>
<filter id="filter0_d_556_461" x="0" y="0" width="979.023" height="2564" filterUnits="userSpaceOnUse" color-interpolation-filters="sRGB">
<feFlood flood-opacity="0" result="BackgroundImageFix"/>
<feColorMatrix in="SourceAlpha" type="matrix" values="0 0 0 0 0 0 0 0 0 0 0 0 0 0 0 0 0 0 127 0" result="hardAlpha"/>
<feOffset dx="3" dy="4"/>
<feGaussianBlur stdDeviation="2"/>
<feComposite in2="hardAlpha" operator="out"/>
<feColorMatrix type="matrix" values="0 0 0 0 0.151771 0 0 0 0 0.420893 0 0 0 0 0.775 0 0 0 0.25 0"/>
<feBlend mode="normal" in2="BackgroundImageFix" result="effect1_dropShadow_556_461"/>
<feBlend mode="normal" in="SourceGraphic" in2="effect1_dropShadow_556_461" result="shape"/>
</filter>
<clipPath id="clip0_556_461">
<rect x="1.02344" y="55.5605" width="971" height="2500.31" rx="20" fill="white"/>
</clipPath>
</defs>
</svg>
