<svg width="1308" height="3072" viewBox="0 0 1308 3072" fill="none" xmlns="http://www.w3.org/2000/svg">
<g clip-path="url(#clip0_812_132)">
<g filter="url(#filter0_d_812_132)">
<path opacity="0.5" d="M1280.1 79H27.8995C13.0433 79 1 97.7777 1 120.941V3026.06C1 3049.22 13.0433 3068 27.8995 3068H1280.1C1294.96 3068 1307 3049.22 1307 3026.06V120.941C1307 97.7777 1294.96 79 1280.1 79Z" fill="#EFF5FF"/>
<path d="M-38.4848 2383L-38.3828 83M25.8713 2383L25.9734 83M90.2273 2383L90.3294 83M154.584 2383L154.686 83M218.939 2383L219.042 83M283.295 2383L283.397 83M347.652 2383L347.754 83M412.007 2383L412.109 83M476.364 2383L476.466 83M540.719 2383L540.822 83M605.076 2383L605.179 83M669.433 2383L669.534 83M733.789 2383L733.891 83M798.144 2383L798.246 83M862.501 2383L862.603 83M926.856 2383L926.959 83M991.213 2383L991.316 83M1055.57 2383L1055.67 83M1119.93 2383L1120.03 83M1184.28 2383L1184.38 83M1248.64 2383L1248.74 83M1312.99 2383L1313.1 83M1377.35 2383L1377.45 83M1441.71 2383L1441.81 83M1506.06 2383L1506.16 83M1570.42 2383L1570.52 83M1634.78 2383L1634.88 83M1699.13 2383L1699.23 83M1763.48 2383L1763.6 83M1827.84 2383L1827.95 83M1892.2 2383L1892.3 83M1956.56 2383L1956.65 83M2020.91 2383L2021.02 83M2085.26 2383L2085.37 83M2149.63 2383L2149.73 83M-106 150.515L2194 150.617M-106 214.871L2194 214.973M-106 279.227L2194 279.33M-106 343.583L2194 343.685M-106 407.939L2194 408.04M-106 472.294L2194 472.397M-106 536.65L2194 536.752M-106 601.006L2194 601.109M-106 665.362L2194 665.464M-106 729.718L2194 729.82M-106 794.073L2194 794.176M-106 858.43L2194 858.532M-106 922.785L2194 922.888M-106 987.142L2194 987.244M-106 1051.5L2194 1051.6M-106 1115.85L2194 1115.96M-106 1180.21L2194 1180.31M-106 1244.57L2194 1244.67M-106 1308.92L2194 1309.02M-106 1373.28L2194 1373.38M-106 1437.63L2194 1437.74M-106 1501.99L2194 1502.09M-106 1566.34L2194 1566.45M-106 1630.7L2194 1630.8M-106 1695.06L2194 1695.16M-106 1759.41L2194 1759.51M-106 1823.77L2194 1823.88M-106 1888.12L2194 1888.23M-106 1952.49L2194 1952.58M-106 2016.84L2194 2016.93M-106 2081.19L2194 2081.3M-106 2145.54L2194 2145.65M-106 2209.91L2194 2210.01M-106 2274.26L2194 2274.36M-106 2338.61L2194 2338.73" stroke="#4395E6" stroke-opacity="0.4"/>
<path d="M-38.4848 4683L-38.3828 2383M25.8713 4683L25.9734 2383M90.2273 4683L90.3294 2383M154.584 4683L154.686 2383M218.939 4683L219.042 2383M283.295 4683L283.397 2383M347.652 4683L347.754 2383M412.007 4683L412.109 2383M476.364 4683L476.466 2383M540.719 4683L540.822 2383M605.076 4683L605.179 2383M669.433 4683L669.534 2383M733.789 4683L733.891 2383M798.144 4683L798.246 2383M862.501 4683L862.603 2383M926.856 4683L926.959 2383M991.213 4683L991.316 2383M1055.57 4683L1055.67 2383M1119.93 4683L1120.03 2383M1184.28 4683L1184.38 2383M1248.64 4683L1248.74 2383M1312.99 4683L1313.1 2383M1377.35 4683L1377.45 2383M1441.71 4683L1441.81 2383M1506.06 4683L1506.16 2383M1570.42 4683L1570.52 2383M1634.78 4683L1634.88 2383M1699.13 4683L1699.23 2383M1763.48 4683L1763.6 2383M1827.84 4683L1827.95 2383M1892.2 4683L1892.3 2383M1956.56 4683L1956.65 2383M2020.91 4683L2021.02 2383M2085.26 4683L2085.37 2383M2149.63 4683L2149.73 2383M-106 2450.52L2194 2450.62M-106 2514.87L2194 2514.97M-106 2579.23L2194 2579.33M-106 2643.58L2194 2643.68M-106 2707.94L2194 2708.04M-106 2772.29L2194 2772.4M-106 2836.65L2194 2836.75M-106 2901.01L2194 2901.11M-106 2965.36L2194 2965.46M-106 3029.72L2194 3029.82M-106 3094.07L2194 3094.18M-106 3158.43L2194 3158.53M-106 3222.79L2194 3222.89M-106 3287.14L2194 3287.24M-106 3351.5L2194 3351.6M-106 3415.85L2194 3415.96M-106 3480.21L2194 3480.31M-106 3544.57L2194 3544.67M-106 3608.92L2194 3609.02M-106 3673.28L2194 3673.38M-106 3737.63L2194 3737.74M-106 3801.99L2194 3802.09M-106 3866.34L2194 3866.45M-106 3930.7L2194 3930.8M-106 3995.06L2194 3995.16M-106 4059.41L2194 4059.51M-106 4123.77L2194 4123.88M-106 4188.12L2194 4188.23M-106 4252.49L2194 4252.58M-106 4316.84L2194 4316.93M-106 4381.19L2194 4381.3M-106 4445.54L2194 4445.65M-106 4509.91L2194 4510.01M-106 4574.26L2194 4574.36M-106 4638.61L2194 4638.73" stroke="#4395E6" stroke-opacity="0.4"/>
<g opacity="0.3">
<path d="M1280.68 80.5879H27.8746C13.3825 80.5879 1.63428 98.895 1.63428 121.478V3026.27C1.63428 3048.85 13.3825 3067.16 27.8746 3067.16H1280.68C1295.17 3067.16 1306.92 3048.85 1306.92 3026.27V121.478C1306.92 98.895 1295.17 80.5879 1280.68 80.5879Z" stroke="#4395E6"/>
</g>
<path d="M1 2396H1304" stroke="#4395E6" stroke-opacity="0.4"/>
</g>
<path d="M39.1246 119.747C44.7163 119.747 49.2492 115.202 49.2492 109.596C49.2492 103.991 44.7163 99.4463 39.1246 99.4463C33.5329 99.4463 29 103.991 29 109.596C29 115.202 33.5329 119.747 39.1246 119.747Z" fill="#276BC6"/>
<path d="M46.0728 49.7938C46.0728 47.1462 43.1162 45 39.469 45C35.8219 45 32.8652 47.1462 32.8652 49.7938V105.346C32.8652 107.993 35.8219 110.14 39.469 110.14C43.1162 110.14 46.0728 107.993 46.0728 105.346V49.7938Z" fill="#EFF5FF" stroke="#276BC6"/>
<path d="M162.099 119.747C167.69 119.747 172.223 115.202 172.223 109.596C172.223 103.991 167.69 99.4463 162.099 99.4463C156.507 99.4463 151.974 103.991 151.974 109.596C151.974 115.202 156.507 119.747 162.099 119.747Z" fill="#276BC6"/>
<path d="M169.047 49.7938C169.047 47.1462 166.091 45 162.444 45C158.796 45 155.84 47.1462 155.84 49.7938V105.346C155.84 107.993 158.796 110.14 162.444 110.14C166.091 110.14 169.047 107.993 169.047 105.346V49.7938Z" fill="#EFF5FF" stroke="#276BC6"/>
<path d="M285.075 119.747C290.666 119.747 295.199 115.202 295.199 109.596C295.199 103.991 290.666 99.4463 285.075 99.4463C279.483 99.4463 274.95 103.991 274.95 109.596C274.95 115.202 279.483 119.747 285.075 119.747Z" fill="#276BC6"/>
<path d="M292.022 49.7938C292.022 47.1462 289.065 45 285.418 45C281.771 45 278.814 47.1462 278.814 49.7938V105.346C278.814 107.993 281.771 110.14 285.418 110.14C289.065 110.14 292.022 107.993 292.022 105.346V49.7938Z" fill="#EFF5FF" stroke="#276BC6"/>
<path d="M408.049 119.747C413.641 119.747 418.174 115.202 418.174 109.596C418.174 103.991 413.641 99.4463 408.049 99.4463C402.458 99.4463 397.925 103.991 397.925 109.596C397.925 115.202 402.458 119.747 408.049 119.747Z" fill="#276BC6"/>
<path d="M414.997 49.7938C414.997 47.1462 412.04 45 408.393 45C404.746 45 401.789 47.1462 401.789 49.7938V105.346C401.789 107.993 404.746 110.14 408.393 110.14C412.04 110.14 414.997 107.993 414.997 105.346V49.7938Z" fill="#EFF5FF" stroke="#276BC6"/>
<path d="M531.025 119.747C536.617 119.747 541.15 115.202 541.15 109.596C541.15 103.991 536.617 99.4463 531.025 99.4463C525.434 99.4463 520.901 103.991 520.901 109.596C520.901 115.202 525.434 119.747 531.025 119.747Z" fill="#276BC6"/>
<path d="M537.973 49.7938C537.973 47.1462 535.016 45 531.369 45C527.722 45 524.765 47.1462 524.765 49.7938V105.346C524.765 107.993 527.722 110.14 531.369 110.14C535.016 110.14 537.973 107.993 537.973 105.346V49.7938Z" fill="#EFF5FF" stroke="#276BC6"/>
<path d="M653.999 119.747C659.59 119.747 664.123 115.202 664.123 109.596C664.123 103.991 659.59 99.4463 653.999 99.4463C648.407 99.4463 643.874 103.991 643.874 109.596C643.874 115.202 648.407 119.747 653.999 119.747Z" fill="#276BC6"/>
<path d="M660.947 49.7938C660.947 47.1462 657.99 45 654.343 45C650.696 45 647.739 47.1462 647.739 49.7938V105.346C647.739 107.993 650.696 110.14 654.343 110.14C657.99 110.14 660.947 107.993 660.947 105.346V49.7938Z" fill="#EFF5FF" stroke="#276BC6"/>
<path d="M776.974 119.747C782.566 119.747 787.099 115.202 787.099 109.596C787.099 103.991 782.566 99.4463 776.974 99.4463C771.383 99.4463 766.85 103.991 766.85 109.596C766.85 115.202 771.383 119.747 776.974 119.747Z" fill="#276BC6"/>
<path d="M783.923 49.7938C783.923 47.1462 780.966 45 777.319 45C773.672 45 770.715 47.1462 770.715 49.7938V105.346C770.715 107.993 773.672 110.14 777.319 110.14C780.966 110.14 783.923 107.993 783.923 105.346V49.7938Z" fill="#EFF5FF" stroke="#276BC6"/>
<path d="M899.949 119.747C905.54 119.747 910.073 115.202 910.073 109.596C910.073 103.991 905.54 99.4463 899.949 99.4463C894.357 99.4463 889.824 103.991 889.824 109.596C889.824 115.202 894.357 119.747 899.949 119.747Z" fill="#276BC6"/>
<path d="M906.898 49.7938C906.898 47.1462 903.941 45 900.294 45C896.647 45 893.69 47.1462 893.69 49.7938V105.346C893.69 107.993 896.647 110.14 900.294 110.14C903.941 110.14 906.898 107.993 906.898 105.346V49.7938Z" fill="#EFF5FF" stroke="#276BC6"/>
<path d="M1022.93 119.747C1028.52 119.747 1033.05 115.202 1033.05 109.596C1033.05 103.991 1028.52 99.4463 1022.93 99.4463C1017.33 99.4463 1012.8 103.991 1012.8 109.596C1012.8 115.202 1017.33 119.747 1022.93 119.747Z" fill="#276BC6"/>
<path d="M1029.87 49.7938C1029.87 47.1462 1026.92 45 1023.27 45C1019.62 45 1016.67 47.1462 1016.67 49.7938V105.346C1016.67 107.993 1019.62 110.14 1023.27 110.14C1026.92 110.14 1029.87 107.993 1029.87 105.346V49.7938Z" fill="#EFF5FF" stroke="#276BC6"/>
<path d="M1145.9 119.747C1151.49 119.747 1156.02 115.202 1156.02 109.596C1156.02 103.991 1151.49 99.4463 1145.9 99.4463C1140.31 99.4463 1135.78 103.991 1135.78 109.596C1135.78 115.202 1140.31 119.747 1145.9 119.747Z" fill="#276BC6"/>
<path d="M1152.85 49.7938C1152.85 47.1462 1149.89 45 1146.24 45C1142.6 45 1139.64 47.1462 1139.64 49.7938V105.346C1139.64 107.993 1142.6 110.14 1146.24 110.14C1149.89 110.14 1152.85 107.993 1152.85 105.346V49.7938Z" fill="#EFF5FF" stroke="#276BC6"/>
<path d="M1268.88 119.747C1274.47 119.747 1279 115.202 1279 109.596C1279 103.991 1274.47 99.4463 1268.88 99.4463C1263.28 99.4463 1258.75 103.991 1258.75 109.596C1258.75 115.202 1263.28 119.747 1268.88 119.747Z" fill="#276BC6"/>
<path d="M1275.82 49.7938C1275.82 47.1462 1272.87 45 1269.22 45C1265.57 45 1262.62 47.1462 1262.62 49.7938V105.346C1262.62 107.993 1265.57 110.14 1269.22 110.14C1272.87 110.14 1275.82 107.993 1275.82 105.346V49.7938Z" fill="#EFF5FF" stroke="#276BC6"/>
</g>
<defs>
<filter id="filter0_d_812_132" x="-107" y="79" width="2308" height="4612" filterUnits="userSpaceOnUse" color-interpolation-filters="sRGB">
<feFlood flood-opacity="0" result="BackgroundImageFix"/>
<feColorMatrix in="SourceAlpha" type="matrix" values="0 0 0 0 0 0 0 0 0 0 0 0 0 0 0 0 0 0 127 0" result="hardAlpha"/>
<feOffset dx="3" dy="4"/>
<feGaussianBlur stdDeviation="2"/>
<feComposite in2="hardAlpha" operator="out"/>
<feColorMatrix type="matrix" values="0 0 0 0 0.151771 0 0 0 0 0.420893 0 0 0 0 0.775 0 0 0 0.25 0"/>
<feBlend mode="normal" in2="BackgroundImageFix" result="effect1_dropShadow_812_132"/>
<feBlend mode="normal" in="SourceGraphic" in2="effect1_dropShadow_812_132" result="shape"/>
</filter>
<clipPath id="clip0_812_132">
<rect width="1308" height="3072" fill="white"/>
</clipPath>
</defs>
</svg>
