<svg width="978" height="2878" viewBox="0 0 978 2878" fill="none" xmlns="http://www.w3.org/2000/svg">
<g filter="url(#filter0_d_833_1265)">
<g clip-path="url(#clip0_833_1265)">
<path opacity="0.5" d="M20.9694 27.1475H950.566C955.852 27.1475 960.707 30.4889 964.266 36.0369C967.82 41.5794 970.035 49.2665 970.035 57.7833V2214.46C970.035 2222.97 967.82 2230.66 964.266 2236.2C960.707 2241.75 955.852 2245.09 950.566 2245.09H20.9694C15.6833 2245.09 10.828 2241.75 7.26976 2236.2C3.71501 2230.66 1.5 2222.97 1.5 2214.46V57.7833C1.5 49.2665 3.71501 41.5794 7.26976 36.0369C10.828 30.4889 15.6833 27.1475 20.9694 27.1475Z" fill="#EFF5FF" stroke="#4395E6"/>
<g opacity="0.3">
<mask id="mask0_833_1265" style="mask-type:luminance" maskUnits="userSpaceOnUse" x="0" y="26" width="974" height="1428">
<path d="M952.281 26.5H21.2812C9.95941 26.5 0.78125 35.6782 0.78125 47V1432.26C0.78125 1443.58 9.95941 1452.76 21.2812 1452.76H952.281C963.603 1452.76 972.781 1443.58 972.781 1432.26V47C972.781 35.6782 963.603 26.5 952.281 26.5Z" fill="white" stroke="white"/>
</mask>
<g mask="url(#mask0_833_1265)">
<path d="M-29.4699 1464.67L-29.406 24.666M10.8226 1464.67L10.8865 24.666M51.115 1464.67L51.1789 24.666M91.4075 1464.67L91.4714 24.666M131.7 1464.67L131.764 24.666M171.992 1464.67L172.056 24.666M212.285 1464.67L212.349 24.666M252.577 1464.67L252.641 24.666M292.87 1464.67L292.934 24.666M333.162 1464.67L333.226 24.666M373.455 1464.67L373.519 24.666M413.748 1464.67L413.811 24.666M454.04 1464.67L454.104 24.666M494.332 1464.67L494.396 24.666M534.625 1464.67L534.689 24.666M574.917 1464.67L574.981 24.666M615.21 1464.67L615.274 24.666M655.502 1464.67L655.566 24.666M695.795 1464.67L695.859 24.666M736.088 1464.67L736.151 24.666M776.38 1464.67L776.444 24.666M816.673 1464.67L816.736 24.666M856.965 1464.67L857.029 24.666M897.258 1464.67L897.321 24.666M937.55 1464.67L937.614 24.666M977.843 1464.67L977.906 24.666M1018.14 1464.67L1018.2 24.666M1058.43 1464.67L1058.49 24.666M1098.72 1464.67L1098.79 24.666M1139.01 1464.67L1139.08 24.666M1179.31 1464.67L1179.37 24.666M1219.6 1464.67L1219.66 24.666M1259.89 1464.67L1259.96 24.666M1300.18 1464.67L1300.25 24.666M1340.48 1464.67L1340.54 24.666M-71.7402 66.9364L1368.26 67.0002M-71.7402 107.229L1368.26 107.293M-71.7402 147.522L1368.26 147.586M-71.7402 187.814L1368.26 187.878M-71.7402 228.107L1368.26 228.17M-71.7402 268.399L1368.26 268.463M-71.7402 308.691L1368.26 308.755M-71.7402 348.984L1368.26 349.048M-71.7402 389.276L1368.26 389.34M-71.7402 429.569L1368.26 429.633M-71.7402 469.861L1368.26 469.925M-71.7402 510.154L1368.26 510.218M-71.7402 550.446L1368.26 550.51M-71.7402 590.739L1368.26 590.803M-71.7402 631.031L1368.26 631.095M-71.7402 671.324L1368.26 671.388M-71.7402 711.616L1368.26 711.68M-71.7402 751.909L1368.26 751.973M-71.7402 792.201L1368.26 792.265M-71.7402 832.494L1368.26 832.558M-71.7402 872.786L1368.26 872.85M-71.7402 913.079L1368.26 913.143M-71.7402 953.371L1368.26 953.435M-71.7402 993.664L1368.26 993.728M-71.7402 1033.96L1368.26 1034.02M-71.7402 1074.25L1368.26 1074.31M-71.7402 1114.54L1368.26 1114.61M-71.7402 1154.83L1368.26 1154.9M-71.7402 1195.13L1368.26 1195.19M-71.7402 1235.42L1368.26 1235.48M-71.7402 1275.71L1368.26 1275.78M-71.7402 1316L1368.26 1316.07M-71.7402 1356.3L1368.26 1356.36M-71.7402 1396.59L1368.26 1396.65M-71.7402 1436.88L1368.26 1436.95" stroke="#4395E6"/>
</g>
</g>
<g opacity="0.3">
<mask id="mask1_833_1265" style="mask-type:luminance" maskUnits="userSpaceOnUse" x="1" y="1452" width="972" height="1426">
<path d="M952.281 1452.26H21.2812C10.2356 1452.26 1.28125 1461.21 1.28125 1472.26V2857.52C1.28125 2868.57 10.2356 2877.52 21.2812 2877.52H952.281C963.327 2877.52 972.281 2868.57 972.281 2857.52V1472.26C972.281 1461.21 963.327 1452.26 952.281 1452.26Z" fill="white"/>
</mask>
<g mask="url(#mask1_833_1265)">
<path d="M-29.4699 2870.31L-29.406 1430.3M10.8226 2870.31L10.8865 1430.3M51.115 2870.31L51.1789 1430.3M91.4075 2870.31L91.4714 1430.3M131.7 2870.31L131.764 1430.3M171.992 2870.31L172.056 1430.3M212.285 2870.31L212.349 1430.3M252.577 2870.31L252.641 1430.3M292.87 2870.31L292.934 1430.3M333.162 2870.31L333.226 1430.3M373.455 2870.31L373.519 1430.3M413.748 2870.31L413.811 1430.3M454.04 2870.31L454.104 1430.3M494.332 2870.31L494.396 1430.3M534.625 2870.31L534.689 1430.3M574.917 2870.31L574.981 1430.3M615.21 2870.31L615.274 1430.3M655.502 2870.31L655.566 1430.3M695.795 2870.31L695.859 1430.3M736.088 2870.31L736.151 1430.3M776.38 2870.31L776.444 1430.3M816.673 2870.31L816.736 1430.3M856.965 2870.31L857.029 1430.3M897.258 2870.31L897.321 1430.3M937.55 2870.31L937.614 1430.3M977.843 2870.31L977.906 1430.3M1018.14 2870.31L1018.2 1430.3M1058.43 2870.31L1058.49 1430.3M1098.72 2870.31L1098.79 1430.3M1139.01 2870.31L1139.08 1430.3M1179.31 2870.31L1179.37 1430.3M1219.6 2870.31L1219.66 1430.3M1259.89 2870.31L1259.96 1430.3M1300.18 2870.31L1300.25 1430.3M1340.48 2870.31L1340.54 1430.3M-71.7402 1472.57L1368.26 1472.64M-71.7402 1512.87L1368.26 1512.93M-71.7402 1553.16L1368.26 1553.22M-71.7402 1593.45L1368.26 1593.51M-71.7402 1633.74L1368.26 1633.81M-71.7402 1674.04L1368.26 1674.1M-71.7402 1714.33L1368.26 1714.39M-71.7402 1754.62L1368.26 1754.68M-71.7402 1794.91L1368.26 1794.98M-71.7402 1835.21L1368.26 1835.27M-71.7402 1875.5L1368.26 1875.56M-71.7402 1915.79L1368.26 1915.85M-71.7402 1956.08L1368.26 1956.15M-71.7402 1996.38L1368.26 1996.44M-71.7402 2036.67L1368.26 2036.73M-71.7402 2076.96L1368.26 2077.02M-71.7402 2117.25L1368.26 2117.32M-71.7402 2157.55L1368.26 2157.61M-71.7402 2197.84L1368.26 2197.9M-71.7402 2238.13L1368.26 2238.19M-71.7402 2278.42L1368.26 2278.49M-71.7402 2318.72L1368.26 2318.78M-71.7402 2359.01L1368.26 2359.07M-71.7402 2399.3L1368.26 2399.36M-71.7402 2439.6L1368.26 2439.66M-71.7402 2479.89L1368.26 2479.95M-71.7402 2520.18L1368.26 2520.25M-71.7402 2560.47L1368.26 2560.54M-71.7402 2600.77L1368.26 2600.83M-71.7402 2641.06L1368.26 2641.12M-71.7402 2681.35L1368.26 2681.42M-71.7402 2721.64L1368.26 2721.71M-71.7402 2761.94L1368.26 2762M-71.7402 2802.23L1368.26 2802.29M-71.7402 2842.52L1368.26 2842.59" stroke="#4395E6"/>
</g>
</g>
</g>
</g>
<path d="M35.6771 55.7746C39.7747 55.7746 43.0964 52.4444 43.0964 48.3365C43.0964 44.2286 39.7747 40.8984 35.6771 40.8984C31.5796 40.8984 28.2578 44.2286 28.2578 48.3365C28.2578 52.4444 31.5796 55.7746 35.6771 55.7746Z" fill="#276BC6"/>
<path d="M40.7689 4.51287C40.7689 2.57277 38.6022 1 35.9296 1C33.2569 1 31.0903 2.57277 31.0903 4.51287V45.2214C31.0903 47.1616 33.2569 48.7343 35.9296 48.7343C38.6022 48.7343 40.7689 47.1616 40.7689 45.2214V4.51287Z" fill="#EFF5FF" stroke="#276BC6"/>
<path d="M125.792 55.7746C129.89 55.7746 133.212 52.4444 133.212 48.3365C133.212 44.2286 129.89 40.8984 125.792 40.8984C121.695 40.8984 118.373 44.2286 118.373 48.3365C118.373 52.4444 121.695 55.7746 125.792 55.7746Z" fill="#276BC6"/>
<path d="M130.885 4.51287C130.885 2.57277 128.718 1 126.045 1C123.373 1 121.206 2.57277 121.206 4.51287V45.2214C121.206 47.1616 123.373 48.7343 126.045 48.7343C128.718 48.7343 130.885 47.1616 130.885 45.2214V4.51287Z" fill="#EFF5FF" stroke="#276BC6"/>
<path d="M215.91 55.7746C220.007 55.7746 223.329 52.4444 223.329 48.3365C223.329 44.2286 220.007 40.8984 215.91 40.8984C211.812 40.8984 208.49 44.2286 208.49 48.3365C208.49 52.4444 211.812 55.7746 215.91 55.7746Z" fill="#276BC6"/>
<path d="M221 4.51287C221 2.57277 218.834 1 216.161 1C213.488 1 211.322 2.57277 211.322 4.51287V45.2214C211.322 47.1616 213.488 48.7343 216.161 48.7343C218.834 48.7343 221 47.1616 221 45.2214V4.51287Z" fill="#EFF5FF" stroke="#276BC6"/>
<path d="M306.025 55.7746C310.123 55.7746 313.445 52.4444 313.445 48.3365C313.445 44.2286 310.123 40.8984 306.025 40.8984C301.928 40.8984 298.606 44.2286 298.606 48.3365C298.606 52.4444 301.928 55.7746 306.025 55.7746Z" fill="#276BC6"/>
<path d="M311.116 4.51287C311.116 2.57277 308.949 1 306.277 1C303.604 1 301.438 2.57277 301.438 4.51287V45.2214C301.438 47.1616 303.604 48.7343 306.277 48.7343C308.949 48.7343 311.116 47.1616 311.116 45.2214V4.51287Z" fill="#EFF5FF" stroke="#276BC6"/>
<path d="M396.142 55.7746C400.24 55.7746 403.562 52.4444 403.562 48.3365C403.562 44.2286 400.24 40.8984 396.142 40.8984C392.045 40.8984 388.723 44.2286 388.723 48.3365C388.723 52.4444 392.045 55.7746 396.142 55.7746Z" fill="#276BC6"/>
<path d="M401.233 4.51287C401.233 2.57277 399.067 1 396.394 1C393.721 1 391.555 2.57277 391.555 4.51287V45.2214C391.555 47.1616 393.721 48.7343 396.394 48.7343C399.067 48.7343 401.233 47.1616 401.233 45.2214V4.51287Z" fill="#EFF5FF" stroke="#276BC6"/>
<path d="M486.257 55.7746C490.355 55.7746 493.677 52.4444 493.677 48.3365C493.677 44.2286 490.355 40.8984 486.257 40.8984C482.16 40.8984 478.838 44.2286 478.838 48.3365C478.838 52.4444 482.16 55.7746 486.257 55.7746Z" fill="#276BC6"/>
<path d="M491.348 4.51287C491.348 2.57277 489.182 1 486.509 1C483.837 1 481.67 2.57277 481.67 4.51287V45.2214C481.67 47.1616 483.837 48.7343 486.509 48.7343C489.182 48.7343 491.348 47.1616 491.348 45.2214V4.51287Z" fill="#EFF5FF" stroke="#276BC6"/>
<path d="M576.373 55.7746C580.471 55.7746 583.793 52.4444 583.793 48.3365C583.793 44.2286 580.471 40.8984 576.373 40.8984C572.276 40.8984 568.954 44.2286 568.954 48.3365C568.954 52.4444 572.276 55.7746 576.373 55.7746Z" fill="#276BC6"/>
<path d="M581.466 4.51287C581.466 2.57277 579.299 1 576.626 1C573.954 1 571.787 2.57277 571.787 4.51287V45.2214C571.787 47.1616 573.954 48.7343 576.626 48.7343C579.299 48.7343 581.466 47.1616 581.466 45.2214V4.51287Z" fill="#EFF5FF" stroke="#276BC6"/>
<path d="M666.49 55.7746C670.587 55.7746 673.909 52.4444 673.909 48.3365C673.909 44.2286 670.587 40.8984 666.49 40.8984C662.392 40.8984 659.07 44.2286 659.07 48.3365C659.07 52.4444 662.392 55.7746 666.49 55.7746Z" fill="#276BC6"/>
<path d="M671.581 4.51287C671.581 2.57277 669.415 1 666.742 1C664.069 1 661.903 2.57277 661.903 4.51287V45.2214C661.903 47.1616 664.069 48.7343 666.742 48.7343C669.415 48.7343 671.581 47.1616 671.581 45.2214V4.51287Z" fill="#EFF5FF" stroke="#276BC6"/>
<path d="M756.607 55.7746C760.704 55.7746 764.026 52.4444 764.026 48.3365C764.026 44.2286 760.704 40.8984 756.607 40.8984C752.509 40.8984 749.187 44.2286 749.187 48.3365C749.187 52.4444 752.509 55.7746 756.607 55.7746Z" fill="#276BC6"/>
<path d="M761.698 4.51287C761.698 2.57277 759.532 1 756.859 1C754.186 1 752.02 2.57277 752.02 4.51287V45.2214C752.02 47.1616 754.186 48.7343 756.859 48.7343C759.532 48.7343 761.698 47.1616 761.698 45.2214V4.51287Z" fill="#EFF5FF" stroke="#276BC6"/>
<path d="M846.722 55.7746C850.82 55.7746 854.142 52.4444 854.142 48.3365C854.142 44.2286 850.82 40.8984 846.722 40.8984C842.625 40.8984 839.303 44.2286 839.303 48.3365C839.303 52.4444 842.625 55.7746 846.722 55.7746Z" fill="#276BC6"/>
<path d="M851.813 4.51287C851.813 2.57277 849.646 1 846.974 1C844.301 1 842.134 2.57277 842.134 4.51287V45.2214C842.134 47.1616 844.301 48.7343 846.974 48.7343C849.646 48.7343 851.813 47.1616 851.813 45.2214V4.51287Z" fill="#EFF5FF" stroke="#276BC6"/>
<path d="M936.839 55.7746C940.936 55.7746 944.258 52.4444 944.258 48.3365C944.258 44.2286 940.936 40.8984 936.839 40.8984C932.741 40.8984 929.419 44.2286 929.419 48.3365C929.419 52.4444 932.741 55.7746 936.839 55.7746Z" fill="#276BC6"/>
<path d="M941.93 4.51287C941.93 2.57277 939.763 1 937.09 1C934.418 1 932.251 2.57277 932.251 4.51287V45.2214C932.251 47.1616 934.418 48.7343 937.09 48.7343C939.763 48.7343 941.93 47.1616 941.93 45.2214V4.51287Z" fill="#EFF5FF" stroke="#276BC6"/>
<defs>
<filter id="filter0_d_833_1265" x="0" y="26.6475" width="977.535" height="2226.94" filterUnits="userSpaceOnUse" color-interpolation-filters="sRGB">
<feFlood flood-opacity="0" result="BackgroundImageFix"/>
<feColorMatrix in="SourceAlpha" type="matrix" values="0 0 0 0 0 0 0 0 0 0 0 0 0 0 0 0 0 0 127 0" result="hardAlpha"/>
<feOffset dx="3" dy="4"/>
<feGaussianBlur stdDeviation="2"/>
<feComposite in2="hardAlpha" operator="out"/>
<feColorMatrix type="matrix" values="0 0 0 0 0.151771 0 0 0 0 0.420893 0 0 0 0 0.775 0 0 0 0.25 0"/>
<feBlend mode="normal" in2="BackgroundImageFix" result="effect1_dropShadow_833_1265"/>
<feBlend mode="normal" in="SourceGraphic" in2="effect1_dropShadow_833_1265" result="shape"/>
</filter>
<clipPath id="clip0_833_1265">
<rect width="969.535" height="2218.94" fill="white" transform="translate(1 26.6475)"/>
</clipPath>
</defs>
</svg>
