<svg width="980" height="2308" viewBox="0 0 980 2308" fill="none" xmlns="http://www.w3.org/2000/svg">
<g filter="url(#filter0_d_556_461)">
<rect opacity="0.5" x="1" y="49.9951" width="971.023" height="2250" rx="20" fill="#EFF5FF"/>
<g opacity="0.3">
<g clip-path="url(#clip0_556_461)">
<path d="M-29.7296 3916.46L-29.6657 34.4561M10.5628 3916.46L10.6267 34.4561M50.8553 3916.46L50.9192 34.4561M91.1477 3916.46L91.2116 34.4561M131.44 3916.46L131.504 34.4561M171.733 3916.46L171.796 34.4561M212.025 3916.46L212.089 34.4561M252.318 3916.46L252.381 34.4561M292.61 3916.46L292.674 34.4561M332.903 3916.46L332.966 34.4561M373.195 3916.46L373.259 34.4561M413.488 3916.46L413.551 34.4561M453.78 3916.46L453.844 34.4561M494.073 3916.46L494.136 34.4561M534.365 3916.46L534.429 34.4561M574.658 3916.46L574.721 34.4561M614.95 3916.46L615.014 34.4561M655.243 3916.46L655.306 34.4561M695.535 3916.46L695.599 34.4561M735.828 3916.46L735.891 34.4561M776.12 3916.46L776.184 34.4561M816.413 3916.46L816.476 34.4561M856.705 3916.46L856.769 34.4561M896.998 3916.46L897.061 34.4561M937.29 3916.46L937.354 34.4561M977.583 3916.46L977.646 34.4561M1017.88 3916.46L1017.94 34.4561M1058.17 3916.46L1058.23 34.4561M1098.46 3916.46L1098.52 34.4561M1138.75 3916.46L1138.82 34.4561M1179.05 3916.46L1179.11 34.4561M1219.34 3916.46L1219.4 34.4561M1259.63 3916.46L1259.69 34.4561M1299.92 3916.46L1299.99 34.4561M1340.22 3916.46L1340.28 34.4561M-72 148.41L1368 148.582M-72 257.032L1368 257.204M-72 365.653L1368 365.826M-72 474.275L1368 474.447M-72 582.897L1368 583.069M-72 691.518L1368 691.69M-72 800.14L1368 800.312M-72 908.762L1368 908.934M-72 1017.38L1368 1017.56M-72 1126.01L1368 1126.18M-72 1234.63L1368 1234.8M-72 1343.25L1368 1343.42M-72 1451.87L1368 1452.04M-72 1560.49L1368 1560.67M-72 1669.12L1368 1669.29M-72 1777.74L1368 1777.91M-72 1886.36L1368 1886.53M-72 1994.98L1368 1995.15M-72 2103.6L1368 2103.77M-72 2212.22L1368 2212.4M-72 2320.85L1368 2321.02M-72 2429.47L1368 2429.64M-72 2538.09L1368 2538.26M-72 2646.71L1368 2646.88M-72 2755.33L1368 2755.51M-72 2863.96L1368 2864.13M-72 2972.58L1368 2972.75M-72 3081.2L1368 3081.37M-72 3189.82L1368 3189.99M-72 3298.44L1368 3298.62M-72 3407.07L1368 3407.24M-72 3515.69L1368 3515.86M-72 3624.31L1368 3624.48M-72 3732.93L1368 3733.1M-72 3841.55L1368 3841.72" stroke="#4395E6"/>
</g>
<rect x="1.52344" y="50.4951" width="970" height="2248.89" rx="19.5" stroke="#4395E6"/>
</g>
<ellipse cx="67.6072" cy="96.5117" rx="6.89917" ry="15.041" fill="#276BC6"/>
<rect x="63.3418" y="0.5" width="9" height="97.1056" rx="4.5" fill="#EFF5FF" stroke="#276BC6"/>
<ellipse cx="151.405" cy="96.5117" rx="6.89917" ry="15.041" fill="#276BC6"/>
<rect x="147.14" y="0.5" width="9" height="97.1056" rx="4.5" fill="#EFF5FF" stroke="#276BC6"/>
<ellipse cx="235.204" cy="96.5117" rx="6.89917" ry="15.041" fill="#276BC6"/>
<rect x="230.938" y="0.5" width="9" height="97.1056" rx="4.5" fill="#EFF5FF" stroke="#276BC6"/>
<ellipse cx="319.002" cy="96.5117" rx="6.89917" ry="15.041" fill="#276BC6"/>
<rect x="314.736" y="0.5" width="9" height="97.1056" rx="4.5" fill="#EFF5FF" stroke="#276BC6"/>
<ellipse cx="402.801" cy="96.5117" rx="6.89917" ry="15.041" fill="#276BC6"/>
<rect x="398.535" y="0.5" width="9" height="97.1056" rx="4.5" fill="#EFF5FF" stroke="#276BC6"/>
<ellipse cx="486.598" cy="96.5117" rx="6.89917" ry="15.041" fill="#276BC6"/>
<rect x="482.333" y="0.5" width="9" height="97.1056" rx="4.5" fill="#EFF5FF" stroke="#276BC6"/>
<ellipse cx="570.397" cy="96.5117" rx="6.89917" ry="15.041" fill="#276BC6"/>
<rect x="566.132" y="0.5" width="9" height="97.1056" rx="4.5" fill="#EFF5FF" stroke="#276BC6"/>
<ellipse cx="654.195" cy="96.5117" rx="6.89917" ry="15.041" fill="#276BC6"/>
<rect x="649.93" y="0.5" width="9" height="97.1056" rx="4.5" fill="#EFF5FF" stroke="#276BC6"/>
<ellipse cx="737.994" cy="96.5117" rx="6.89917" ry="15.041" fill="#276BC6"/>
<rect x="733.729" y="0.5" width="9" height="97.1056" rx="4.5" fill="#EFF5FF" stroke="#276BC6"/>
<ellipse cx="821.792" cy="96.5117" rx="6.89917" ry="15.041" fill="#276BC6"/>
<rect x="817.526" y="0.5" width="9" height="97.1056" rx="4.5" fill="#EFF5FF" stroke="#276BC6"/>
<ellipse cx="905.591" cy="96.5117" rx="6.89917" ry="15.041" fill="#276BC6"/>
<rect x="901.325" y="0.5" width="9" height="97.1056" rx="4.5" fill="#EFF5FF" stroke="#276BC6"/>
</g>
<defs>
<filter id="filter0_d_556_461" x="0" y="0" width="979.023" height="2308" filterUnits="userSpaceOnUse" color-interpolation-filters="sRGB">
<feFlood flood-opacity="0" result="BackgroundImageFix"/>
<feColorMatrix in="SourceAlpha" type="matrix" values="0 0 0 0 0 0 0 0 0 0 0 0 0 0 0 0 0 0 127 0" result="hardAlpha"/>
<feOffset dx="3" dy="4"/>
<feGaussianBlur stdDeviation="2"/>
<feComposite in2="hardAlpha" operator="out"/>
<feColorMatrix type="matrix" values="0 0 0 0 0.151771 0 0 0 0 0.420893 0 0 0 0 0.775 0 0 0 0.25 0"/>
<feBlend mode="normal" in2="BackgroundImageFix" result="effect1_dropShadow_556_461"/>
<feBlend mode="normal" in="SourceGraphic" in2="effect1_dropShadow_556_461" result="shape"/>
</filter>
<clipPath id="clip0_556_461">
<rect x="1.02344" y="49.9951" width="971" height="2249.89" rx="20" fill="white"/>
</clipPath>
</defs>
</svg>
