<svg width="980" height="1461" viewBox="0 0 980 1461" fill="none" xmlns="http://www.w3.org/2000/svg">
<g filter="url(#filter0_d_825_211)">
<path opacity="0.5" d="M952.023 27H21C9.9543 27 1 35.9543 1 47V1432.33C1 1443.38 9.9543 1452.33 21 1452.33H952.023C963.069 1452.33 972.023 1443.38 972.023 1432.33V47C972.023 35.9543 963.069 27 952.023 27Z" fill="#EFF5FF"/>
<g opacity="0.3">
<mask id="mask0_825_211" style="mask-type:luminance" maskUnits="userSpaceOnUse" x="1" y="27" width="972" height="1426">
<path d="M952.023 27H21.0234C9.97774 27 1.02344 35.9543 1.02344 47V1432.26C1.02344 1443.31 9.97774 1452.26 21.0234 1452.26H952.023C963.069 1452.26 972.023 1443.31 972.023 1432.26V47C972.023 35.9543 963.069 27 952.023 27Z" fill="white"/>
</mask>
<g mask="url(#mask0_825_211)">
<path d="M-29.7277 1464.67L-29.6638 24.666M10.5648 1464.67L10.6287 24.666M50.8572 1464.67L50.9211 24.666M91.1497 1464.67L91.2136 24.666M131.442 1464.67L131.506 24.666M171.734 1464.67L171.798 24.666M212.027 1464.67L212.091 24.666M252.319 1464.67L252.383 24.666M292.612 1464.67L292.676 24.666M332.904 1464.67L332.968 24.666M373.197 1464.67L373.261 24.666M413.49 1464.67L413.553 24.666M453.782 1464.67L453.846 24.666M494.074 1464.67L494.138 24.666M534.367 1464.67L534.431 24.666M574.659 1464.67L574.723 24.666M614.952 1464.67L615.016 24.666M655.244 1464.67L655.308 24.666M695.537 1464.67L695.601 24.666M735.83 1464.67L735.893 24.666M776.122 1464.67L776.186 24.666M816.415 1464.67L816.478 24.666M856.707 1464.67L856.771 24.666M897 1464.67L897.063 24.666M937.292 1464.67L937.356 24.666M977.585 1464.67L977.648 24.666M1017.88 1464.67L1017.94 24.666M1058.17 1464.67L1058.23 24.666M1098.46 1464.67L1098.53 24.666M1138.75 1464.67L1138.82 24.666M1179.05 1464.67L1179.11 24.666M1219.34 1464.67L1219.4 24.666M1259.63 1464.67L1259.7 24.666M1299.92 1464.67L1299.99 24.666M1340.22 1464.67L1340.28 24.666M-71.998 66.9364L1368 67.0002M-71.998 107.229L1368 107.293M-71.998 147.522L1368 147.586M-71.998 187.814L1368 187.878M-71.998 228.107L1368 228.17M-71.998 268.399L1368 268.463M-71.998 308.691L1368 308.755M-71.998 348.984L1368 349.048M-71.998 389.276L1368 389.34M-71.998 429.569L1368 429.633M-71.998 469.861L1368 469.925M-71.998 510.154L1368 510.218M-71.998 550.446L1368 550.51M-71.998 590.739L1368 590.803M-71.998 631.031L1368 631.095M-71.998 671.324L1368 671.388M-71.998 711.616L1368 711.68M-71.998 751.909L1368 751.973M-71.998 792.201L1368 792.265M-71.998 832.494L1368 832.558M-71.998 872.786L1368 872.85M-71.998 913.079L1368 913.143M-71.998 953.371L1368 953.435M-71.998 993.664L1368 993.728M-71.998 1033.96L1368 1034.02M-71.998 1074.25L1368 1074.31M-71.998 1114.54L1368 1114.61M-71.998 1154.83L1368 1154.9M-71.998 1195.13L1368 1195.19M-71.998 1235.42L1368 1235.48M-71.998 1275.71L1368 1275.78M-71.998 1316L1368 1316.07M-71.998 1356.3L1368 1356.36M-71.998 1396.59L1368 1396.65M-71.998 1436.88L1368 1436.95" stroke="#4395E6"/>
</g>
<path d="M952.023 27.5H21.0234C10.2539 27.5 1.52344 36.2304 1.52344 47V1432.26C1.52344 1443.03 10.2539 1451.76 21.0234 1451.76H952.023C962.793 1451.76 971.523 1443.03 971.523 1432.26V47C971.523 36.2304 962.793 27.5 952.023 27.5Z" stroke="#4395E6"/>
</g>
</g>
<path d="M36.4193 55.7746C40.5169 55.7746 43.8386 52.4444 43.8386 48.3365C43.8386 44.2286 40.5169 40.8984 36.4193 40.8984C32.3217 40.8984 29 44.2286 29 48.3365C29 52.4444 32.3217 55.7746 36.4193 55.7746Z" fill="#276BC6"/>
<path d="M41.511 4.51287C41.511 2.57277 39.3444 1 36.6718 1C33.9991 1 31.8325 2.57277 31.8325 4.51287V45.2214C31.8325 47.1616 33.9991 48.7343 36.6718 48.7343C39.3444 48.7343 41.511 47.1616 41.511 45.2214V4.51287Z" fill="#EFF5FF" stroke="#276BC6"/>
<path d="M126.535 55.7746C130.632 55.7746 133.954 52.4444 133.954 48.3365C133.954 44.2286 130.632 40.8984 126.535 40.8984C122.437 40.8984 119.115 44.2286 119.115 48.3365C119.115 52.4444 122.437 55.7746 126.535 55.7746Z" fill="#276BC6"/>
<path d="M131.627 4.51287C131.627 2.57277 129.46 1 126.788 1C124.115 1 121.948 2.57277 121.948 4.51287V45.2214C121.948 47.1616 124.115 48.7343 126.788 48.7343C129.46 48.7343 131.627 47.1616 131.627 45.2214V4.51287Z" fill="#EFF5FF" stroke="#276BC6"/>
<path d="M216.652 55.7746C220.749 55.7746 224.071 52.4444 224.071 48.3365C224.071 44.2286 220.749 40.8984 216.652 40.8984C212.554 40.8984 209.232 44.2286 209.232 48.3365C209.232 52.4444 212.554 55.7746 216.652 55.7746Z" fill="#276BC6"/>
<path d="M221.742 4.51287C221.742 2.57277 219.576 1 216.903 1C214.231 1 212.064 2.57277 212.064 4.51287V45.2214C212.064 47.1616 214.231 48.7343 216.903 48.7343C219.576 48.7343 221.742 47.1616 221.742 45.2214V4.51287Z" fill="#EFF5FF" stroke="#276BC6"/>
<path d="M306.767 55.7746C310.865 55.7746 314.187 52.4444 314.187 48.3365C314.187 44.2286 310.865 40.8984 306.767 40.8984C302.67 40.8984 299.348 44.2286 299.348 48.3365C299.348 52.4444 302.67 55.7746 306.767 55.7746Z" fill="#276BC6"/>
<path d="M311.858 4.51287C311.858 2.57277 309.692 1 307.019 1C304.346 1 302.18 2.57277 302.18 4.51287V45.2214C302.18 47.1616 304.346 48.7343 307.019 48.7343C309.692 48.7343 311.858 47.1616 311.858 45.2214V4.51287Z" fill="#EFF5FF" stroke="#276BC6"/>
<path d="M396.885 55.7746C400.982 55.7746 404.304 52.4444 404.304 48.3365C404.304 44.2286 400.982 40.8984 396.885 40.8984C392.787 40.8984 389.465 44.2286 389.465 48.3365C389.465 52.4444 392.787 55.7746 396.885 55.7746Z" fill="#276BC6"/>
<path d="M401.975 4.51287C401.975 2.57277 399.809 1 397.136 1C394.463 1 392.297 2.57277 392.297 4.51287V45.2214C392.297 47.1616 394.463 48.7343 397.136 48.7343C399.809 48.7343 401.975 47.1616 401.975 45.2214V4.51287Z" fill="#EFF5FF" stroke="#276BC6"/>
<path d="M486.999 55.7746C491.097 55.7746 494.419 52.4444 494.419 48.3365C494.419 44.2286 491.097 40.8984 486.999 40.8984C482.902 40.8984 479.58 44.2286 479.58 48.3365C479.58 52.4444 482.902 55.7746 486.999 55.7746Z" fill="#276BC6"/>
<path d="M492.091 4.51287C492.091 2.57277 489.924 1 487.251 1C484.579 1 482.412 2.57277 482.412 4.51287V45.2214C482.412 47.1616 484.579 48.7343 487.251 48.7343C489.924 48.7343 492.091 47.1616 492.091 45.2214V4.51287Z" fill="#EFF5FF" stroke="#276BC6"/>
<path d="M577.116 55.7746C581.213 55.7746 584.535 52.4444 584.535 48.3365C584.535 44.2286 581.213 40.8984 577.116 40.8984C573.018 40.8984 569.696 44.2286 569.696 48.3365C569.696 52.4444 573.018 55.7746 577.116 55.7746Z" fill="#276BC6"/>
<path d="M582.208 4.51287C582.208 2.57277 580.041 1 577.369 1C574.696 1 572.529 2.57277 572.529 4.51287V45.2214C572.529 47.1616 574.696 48.7343 577.369 48.7343C580.041 48.7343 582.208 47.1616 582.208 45.2214V4.51287Z" fill="#EFF5FF" stroke="#276BC6"/>
<path d="M667.232 55.7746C671.329 55.7746 674.651 52.4444 674.651 48.3365C674.651 44.2286 671.329 40.8984 667.232 40.8984C663.134 40.8984 659.812 44.2286 659.812 48.3365C659.812 52.4444 663.134 55.7746 667.232 55.7746Z" fill="#276BC6"/>
<path d="M672.324 4.51287C672.324 2.57277 670.157 1 667.484 1C664.812 1 662.645 2.57277 662.645 4.51287V45.2214C662.645 47.1616 664.812 48.7343 667.484 48.7343C670.157 48.7343 672.324 47.1616 672.324 45.2214V4.51287Z" fill="#EFF5FF" stroke="#276BC6"/>
<path d="M757.349 55.7746C761.447 55.7746 764.768 52.4444 764.768 48.3365C764.768 44.2286 761.447 40.8984 757.349 40.8984C753.251 40.8984 749.93 44.2286 749.93 48.3365C749.93 52.4444 753.251 55.7746 757.349 55.7746Z" fill="#276BC6"/>
<path d="M762.44 4.51287C762.44 2.57277 760.274 1 757.601 1C754.928 1 752.762 2.57277 752.762 4.51287V45.2214C752.762 47.1616 754.928 48.7343 757.601 48.7343C760.274 48.7343 762.44 47.1616 762.44 45.2214V4.51287Z" fill="#EFF5FF" stroke="#276BC6"/>
<path d="M847.464 55.7746C851.562 55.7746 854.884 52.4444 854.884 48.3365C854.884 44.2286 851.562 40.8984 847.464 40.8984C843.367 40.8984 840.045 44.2286 840.045 48.3365C840.045 52.4444 843.367 55.7746 847.464 55.7746Z" fill="#276BC6"/>
<path d="M852.555 4.51287C852.555 2.57277 850.388 1 847.716 1C845.043 1 842.876 2.57277 842.876 4.51287V45.2214C842.876 47.1616 845.043 48.7343 847.716 48.7343C850.388 48.7343 852.555 47.1616 852.555 45.2214V4.51287Z" fill="#EFF5FF" stroke="#276BC6"/>
<path d="M937.58 55.7746C941.678 55.7746 945 52.4444 945 48.3365C945 44.2286 941.678 40.8984 937.58 40.8984C933.483 40.8984 930.161 44.2286 930.161 48.3365C930.161 52.4444 933.483 55.7746 937.58 55.7746Z" fill="#276BC6"/>
<path d="M942.672 4.51287C942.672 2.57277 940.505 1 937.832 1C935.16 1 932.993 2.57277 932.993 4.51287V45.2214C932.993 47.1616 935.16 48.7343 937.832 48.7343C940.505 48.7343 942.672 47.1616 942.672 45.2214V4.51287Z" fill="#EFF5FF" stroke="#276BC6"/>
<defs>
<filter id="filter0_d_825_211" x="0" y="27" width="979.023" height="1433.33" filterUnits="userSpaceOnUse" color-interpolation-filters="sRGB">
<feFlood flood-opacity="0" result="BackgroundImageFix"/>
<feColorMatrix in="SourceAlpha" type="matrix" values="0 0 0 0 0 0 0 0 0 0 0 0 0 0 0 0 0 0 127 0" result="hardAlpha"/>
<feOffset dx="3" dy="4"/>
<feGaussianBlur stdDeviation="2"/>
<feComposite in2="hardAlpha" operator="out"/>
<feColorMatrix type="matrix" values="0 0 0 0 0.151771 0 0 0 0 0.420893 0 0 0 0 0.775 0 0 0 0.25 0"/>
<feBlend mode="normal" in2="BackgroundImageFix" result="effect1_dropShadow_825_211"/>
<feBlend mode="normal" in="SourceGraphic" in2="effect1_dropShadow_825_211" result="shape"/>
</filter>
</defs>
</svg>
