<svg width="980" height="1465" viewBox="0 0 980 1465" fill="none" xmlns="http://www.w3.org/2000/svg">
<g filter="url(#filter0_d_556_134)">
<rect opacity="0.5" x="1" y="31.6709" width="971.023" height="1425.33" rx="20" fill="#EFF5FF"/>
<g opacity="0.3">
<g clip-path="url(#clip0_556_134)">
<path d="M-29.7277 1469.34L-29.6638 29.3374M10.5648 1469.34L10.6287 29.3374M50.8572 1469.34L50.9211 29.3374M91.1497 1469.34L91.2136 29.3374M131.442 1469.34L131.506 29.3374M171.734 1469.34L171.798 29.3374M212.027 1469.34L212.091 29.3374M252.319 1469.34L252.383 29.3374M292.612 1469.34L292.676 29.3374M332.904 1469.34L332.968 29.3374M373.197 1469.34L373.261 29.3374M413.49 1469.34L413.553 29.3374M453.782 1469.34L453.846 29.3374M494.074 1469.34L494.138 29.3374M534.367 1469.34L534.431 29.3374M574.659 1469.34L574.723 29.3374M614.952 1469.34L615.016 29.3374M655.244 1469.34L655.308 29.3374M695.537 1469.34L695.601 29.3374M735.83 1469.34L735.893 29.3374M776.122 1469.34L776.186 29.3374M816.415 1469.34L816.478 29.3374M856.707 1469.34L856.771 29.3374M897 1469.34L897.063 29.3374M937.292 1469.34L937.356 29.3374M977.585 1469.34L977.648 29.3374M1017.88 1469.34L1017.94 29.3374M1058.17 1469.34L1058.23 29.3374M1098.46 1469.34L1098.53 29.3374M1138.75 1469.34L1138.82 29.3374M1179.05 1469.34L1179.11 29.3374M1219.34 1469.34L1219.4 29.3374M1259.63 1469.34L1259.7 29.3374M1299.92 1469.34L1299.99 29.3374M1340.22 1469.34L1340.28 29.3374M-71.998 71.6078L1368 71.6716M-71.998 111.9L1368 111.964M-71.998 152.193L1368 152.257M-71.998 192.485L1368 192.549M-71.998 232.778L1368 232.841M-71.998 273.07L1368 273.134M-71.998 313.362L1368 313.426M-71.998 353.655L1368 353.719M-71.998 393.947L1368 394.011M-71.998 434.24L1368 434.304M-71.998 474.532L1368 474.596M-71.998 514.825L1368 514.889M-71.998 555.117L1368 555.181M-71.998 595.41L1368 595.474M-71.998 635.702L1368 635.766M-71.998 675.995L1368 676.059M-71.998 716.287L1368 716.351M-71.998 756.58L1368 756.644M-71.998 796.872L1368 796.936M-71.998 837.165L1368 837.229M-71.998 877.457L1368 877.521M-71.998 917.75L1368 917.814M-71.998 958.042L1368 958.106M-71.998 998.335L1368 998.399M-71.998 1038.63L1368 1038.69M-71.998 1078.92L1368 1078.98M-71.998 1119.21L1368 1119.28M-71.998 1159.5L1368 1159.57M-71.998 1199.8L1368 1199.86M-71.998 1240.09L1368 1240.15M-71.998 1280.38L1368 1280.45M-71.998 1320.67L1368 1320.74M-71.998 1360.97L1368 1361.03M-71.998 1401.26L1368 1401.32M-71.998 1441.55L1368 1441.62" stroke="#4395E6"/>
</g>
<rect x="1.52344" y="32.1709" width="970" height="1424.26" rx="19.5" stroke="#4395E6"/>
</g>
<ellipse cx="67.6072" cy="61.1376" rx="6.89917" ry="9.52818" fill="#276BC6"/>
<rect x="63.3418" y="0.5" width="9" height="61.1478" rx="4.5" fill="#EFF5FF" stroke="#276BC6"/>
<ellipse cx="151.405" cy="61.1376" rx="6.89917" ry="9.52818" fill="#276BC6"/>
<rect x="147.14" y="0.5" width="9" height="61.1478" rx="4.5" fill="#EFF5FF" stroke="#276BC6"/>
<ellipse cx="235.204" cy="61.1376" rx="6.89917" ry="9.52818" fill="#276BC6"/>
<rect x="230.938" y="0.5" width="9" height="61.1478" rx="4.5" fill="#EFF5FF" stroke="#276BC6"/>
<ellipse cx="319.002" cy="61.1376" rx="6.89917" ry="9.52818" fill="#276BC6"/>
<rect x="314.736" y="0.5" width="9" height="61.1478" rx="4.5" fill="#EFF5FF" stroke="#276BC6"/>
<ellipse cx="402.801" cy="61.1376" rx="6.89917" ry="9.52818" fill="#276BC6"/>
<rect x="398.535" y="0.5" width="9" height="61.1478" rx="4.5" fill="#EFF5FF" stroke="#276BC6"/>
<ellipse cx="486.598" cy="61.1376" rx="6.89917" ry="9.52818" fill="#276BC6"/>
<rect x="482.333" y="0.5" width="9" height="61.1478" rx="4.5" fill="#EFF5FF" stroke="#276BC6"/>
<ellipse cx="570.397" cy="61.1376" rx="6.89917" ry="9.52818" fill="#276BC6"/>
<rect x="566.132" y="0.5" width="9" height="61.1478" rx="4.5" fill="#EFF5FF" stroke="#276BC6"/>
<ellipse cx="654.195" cy="61.1376" rx="6.89917" ry="9.52818" fill="#276BC6"/>
<rect x="649.93" y="0.5" width="9" height="61.1478" rx="4.5" fill="#EFF5FF" stroke="#276BC6"/>
<ellipse cx="737.994" cy="61.1376" rx="6.89917" ry="9.52818" fill="#276BC6"/>
<rect x="733.729" y="0.5" width="9" height="61.1478" rx="4.5" fill="#EFF5FF" stroke="#276BC6"/>
<ellipse cx="821.792" cy="61.1376" rx="6.89917" ry="9.52818" fill="#276BC6"/>
<rect x="817.526" y="0.5" width="9" height="61.1478" rx="4.5" fill="#EFF5FF" stroke="#276BC6"/>
<ellipse cx="905.591" cy="61.1376" rx="6.89917" ry="9.52818" fill="#276BC6"/>
<rect x="901.325" y="0.5" width="9" height="61.1478" rx="4.5" fill="#EFF5FF" stroke="#276BC6"/>
</g>
<defs>
<filter id="filter0_d_556_134" x="0" y="0" width="979.023" height="1465" filterUnits="userSpaceOnUse" color-interpolation-filters="sRGB">
<feFlood flood-opacity="0" result="BackgroundImageFix"/>
<feColorMatrix in="SourceAlpha" type="matrix" values="0 0 0 0 0 0 0 0 0 0 0 0 0 0 0 0 0 0 127 0" result="hardAlpha"/>
<feOffset dx="3" dy="4"/>
<feGaussianBlur stdDeviation="2"/>
<feComposite in2="hardAlpha" operator="out"/>
<feColorMatrix type="matrix" values="0 0 0 0 0.151771 0 0 0 0 0.420893 0 0 0 0 0.775 0 0 0 0.25 0"/>
<feBlend mode="normal" in2="BackgroundImageFix" result="effect1_dropShadow_556_134"/>
<feBlend mode="normal" in="SourceGraphic" in2="effect1_dropShadow_556_134" result="shape"/>
</filter>
<clipPath id="clip0_556_134">
<rect x="1.02344" y="31.6709" width="971" height="1425.26" rx="20" fill="white"/>
</clipPath>
</defs>
</svg>
