<svg width="1920" height="1919" viewBox="0 0 1920 1919" fill="none" xmlns="http://www.w3.org/2000/svg">
<path opacity="0.3" d="M56.3605 1918.99L56.4457 0M110.084 1918.99L110.169 0M163.807 1918.99L163.892 0M217.53 1918.99L217.615 0M271.254 1918.99L271.339 0M324.977 1918.99L325.062 0M378.7 1918.99L378.785 0M432.423 1918.99L432.509 0M486.147 1918.99L486.232 0M539.87 1918.99L539.955 0M593.593 1918.99L593.679 0M647.317 1918.99L647.402 0M701.04 1918.99L701.125 0M754.763 1918.99L754.849 0M808.487 1918.99L808.572 0M862.21 1918.99L862.295 0M915.933 1918.99L916.019 0M969.657 1918.99L969.742 0M1023.38 1918.99L1023.47 0M1077.1 1918.99L1077.19 0M1130.83 1918.99L1130.91 0M1184.55 1918.99L1184.64 0M1238.27 1918.99L1238.36 0M1292 1918.99L1292.08 0M1345.72 1918.99L1345.81 0M1399.44 1918.99L1399.53 0M1453.17 1918.99L1453.25 0M1506.89 1918.99L1506.98 0M1560.61 1918.99L1560.7 0M1614.34 1918.99L1614.42 0M1668.06 1918.99L1668.15 0M1721.78 1918.99L1721.87 0M1775.51 1918.99L1775.59 0M1829.23 1918.99L1829.32 0M1882.95 1918.99L1883.04 0M0 56.331L1920 56.4161M0 110.026L1920 110.111M0 163.721L1920 163.806M0 217.416L1920 217.501M0 271.111L1920 271.197M0 324.806L1920 324.892M0 378.502L1920 378.587M0 432.197L1920 432.282M0 485.892L1920 485.977M0 539.587L1920 539.672M0 593.282L1920 593.368M0 646.978L1920 647.063M0 700.673L1920 700.758M0 754.368L1920 754.453M0 808.063L1920 808.149M0 861.759L1920 861.844M0 915.454L1920 915.539M0 969.149L1920 969.234M0 1022.84L1920 1022.93M0 1076.54L1920 1076.62M0 1130.23L1920 1130.32M0 1183.93L1920 1184.01M0 1237.63L1920 1237.71M0 1291.32L1920 1291.41M0 1345.02L1920 1345.1M0 1398.71L1920 1398.8M0 1452.41L1920 1452.49M0 1506.1L1920 1506.19M0 1559.8L1920 1559.88M0 1613.49L1920 1613.58M0 1667.19L1920 1667.27M0 1720.88L1920 1720.97M0 1774.58L1920 1774.66M0 1828.27L1920 1828.36M0 1881.97L1920 1882.05" stroke="#4395E6"/>
</svg>
