<svg width="60" height="60" viewBox="0 0 60 60" fill="none" xmlns="http://www.w3.org/2000/svg">
<path d="M35.9626 17.0629C34.2659 15.3662 32.3827 14.907 29.9832 14.907C27.5837 14.907 25.2824 15.8602 23.5857 17.5569C21.889 19.2536 20.9358 21.5549 20.9358 23.9544C20.9358 34.5097 16.4121 37.5255 16.4121 37.5255H43.5543C43.5543 37.5255 39.0306 34.5097 39.0306 23.9544C39.0306 22.7481 38.8389 22.38 38.5755 21.2792" stroke="#1C276D" stroke-width="1.87396" stroke-linecap="round" stroke-linejoin="round"/>
<path d="M32.5923 43.5571C32.3272 44.0141 31.9467 44.3935 31.4889 44.6572C31.0311 44.9209 30.512 45.0597 29.9837 45.0597C29.4553 45.0597 28.9363 44.9209 28.4784 44.6572C28.0206 44.3935 27.6401 44.0141 27.375 43.5571" stroke="#1C276D" stroke-width="1.87396" stroke-linecap="round" stroke-linejoin="round"/>
</svg>
