<svg width="61" height="61" viewBox="0 0 61 61" fill="none" xmlns="http://www.w3.org/2000/svg">
<path d="M39.4261 24.1814C39.4261 21.7819 38.4729 19.4807 36.7762 17.784C35.0795 16.0872 32.7782 15.134 30.3787 15.134C27.9792 15.134 25.678 16.0872 23.9812 17.784C22.2845 19.4807 21.3313 21.7819 21.3313 24.1814C21.3313 34.7367 16.8076 37.7525 16.8076 37.7525H43.9498C43.9498 37.7525 39.4261 34.7367 39.4261 24.1814Z" stroke="#1C276D" stroke-width="1.87396" stroke-linecap="round" stroke-linejoin="round"/>
<path d="M32.9878 43.7842C32.7227 44.2412 32.3422 44.6205 31.8844 44.8842C31.4266 45.1479 30.9075 45.2867 30.3792 45.2867C29.8508 45.2867 29.3318 45.1479 28.8739 44.8842C28.4161 44.6205 28.0356 44.2412 27.7705 43.7842" stroke="#1C276D" stroke-width="1.87396" stroke-linecap="round" stroke-linejoin="round"/>
</svg>
