<svg width="68" height="68" viewBox="0 0 68 68" fill="none" xmlns="http://www.w3.org/2000/svg">
<path fill-rule="evenodd" clip-rule="evenodd" d="M29.8192 15.037C32.3272 24.7582 40.3425 31.426 49.272 31.2665C41.0434 34.1677 35.4343 42.8288 35.4556 52.5616C32.9995 43.7229 25.9603 37.5065 17.8925 36.8332C25.4363 33.1986 30.3174 24.5232 29.8192 15.037Z" fill="#4395E6"/>
<ellipse cx="28.6736" cy="32.7543" rx="2.02751" ry="0.833611" transform="rotate(-98.2899 28.6736 32.7543)" fill="#1C276D"/>
<ellipse cx="36.0981" cy="31.6733" rx="2.02751" ry="0.833611" transform="rotate(-98.2899 36.0981 31.6733)" fill="#1C276D"/>
<path fill-rule="evenodd" clip-rule="evenodd" d="M42.9473 10.8933C44.4407 14.936 48.1534 17.4356 51.9601 16.9797C48.5715 18.5761 46.552 22.5191 46.9839 26.6752C45.5513 23.0067 42.275 20.6572 38.8 20.7198C41.8639 18.84 43.5719 14.923 42.9473 10.8933Z" fill="#4395E6"/>
</svg>
