<svg width="207" height="181" viewBox="0 0 207 181" fill="none" xmlns="http://www.w3.org/2000/svg">
<g filter="url(#filter0_d_357_114)">
<rect y="9.92432" width="199" height="163" rx="10" fill="#FFFEF6"/>
</g>
<path fill-rule="evenodd" clip-rule="evenodd" d="M166.144 10.9243L189 10.9243C193.971 10.9243 198 14.9538 198 19.9243V162.924C198 167.895 193.971 171.924 189 171.924H10C5.02944 171.924 1 167.895 1 162.924V19.9243C1 14.9538 5.02944 10.9243 10 10.9243L32.8431 10.9243V10.9606H32.8666V14.6175C30.8723 15.9924 29.5652 18.2926 29.5652 20.8981C29.5652 25.1083 32.9782 28.5213 37.1884 28.5213C41.3986 28.5213 44.8116 25.1083 44.8116 20.8981C44.8116 18.2924 43.5044 15.9921 41.5099 14.6172V10.9606H41.5411V10.9243L64.0051 10.9243V10.9606H64.0224V14.6175C62.0281 15.9924 60.7209 18.2926 60.7209 20.8981C60.7209 25.1083 64.134 28.5213 68.3442 28.5213C72.5544 28.5213 75.9674 25.1083 75.9674 20.8981C75.9674 18.2924 74.6601 15.9921 72.6657 14.6172V10.9606H72.6964V10.9243H95.1543V10.9606H95.1781V14.6175C93.1838 15.9924 91.8767 18.2926 91.8767 20.8981C91.8767 25.1083 95.2897 28.5213 99.4999 28.5213C103.71 28.5213 107.123 25.1083 107.123 20.8981C107.123 18.2924 105.816 15.9921 103.821 14.6172V10.9606H103.846V10.9243H126.304V10.9606H126.334V14.6175C124.34 15.9924 123.032 18.2926 123.032 20.8981C123.032 25.1083 126.446 28.5213 130.656 28.5213C134.866 28.5213 138.279 25.1083 138.279 20.8981C138.279 18.2924 136.972 15.9921 134.977 14.6172V10.9606H134.995V10.9243H157.453V10.9606H157.49V14.6175C155.495 15.9924 154.188 18.2926 154.188 20.8981C154.188 25.1083 157.601 28.5213 161.811 28.5213C166.022 28.5213 169.435 25.1083 169.435 20.8981C169.435 18.2924 168.127 15.9921 166.133 14.6172V10.9606H166.144V10.9243ZM166.133 10.9243H166.144V9.92432H189C194.523 9.92432 199 14.4015 199 19.9243V162.924C199 168.447 194.523 172.924 189 172.924H10C4.47715 172.924 0 168.447 0 162.924V19.9243C0 14.4015 4.47715 9.92432 10 9.92432H32.8431V10.9243H32.8666V10.9606H33.8666V14.6175V15.1427L33.4342 15.4408C31.6991 16.637 30.5652 18.6353 30.5652 20.8981C30.5652 24.556 33.5305 27.5213 37.1884 27.5213C40.8463 27.5213 43.8116 24.556 43.8116 20.8981C43.8116 18.6351 42.6776 16.6368 40.9423 15.4406L40.5099 15.1425V14.6172V10.9606H41.5099V10.9243H41.5411V9.92432H64.0051V10.9243H64.0224V10.9606H65.0224V14.6175V15.1427L64.59 15.4408C62.8548 16.637 61.7209 18.6353 61.7209 20.8981C61.7209 24.556 64.6863 27.5213 68.3442 27.5213C72.0021 27.5213 74.9674 24.556 74.9674 20.8981C74.9674 18.6351 73.8334 16.6368 72.0981 15.4406L71.6657 15.1425V14.6172V10.9606H72.6657V10.9243H72.6964V9.92432H95.1543V10.9243H95.1781V10.9606H96.1781V14.6175V15.1427L95.7457 15.4408C94.0106 16.637 92.8767 18.6353 92.8767 20.8981C92.8767 24.556 95.842 27.5213 99.4999 27.5213C103.158 27.5213 106.123 24.556 106.123 20.8981C106.123 18.6351 104.989 16.6368 103.254 15.4406L102.821 15.1425V14.6172V10.9606H103.821V10.9243H103.846V9.92432H126.304V10.9243H126.334V10.9606H127.334V14.6175V15.1427L126.901 15.4408C125.166 16.637 124.032 18.6353 124.032 20.8981C124.032 24.556 126.998 27.5213 130.656 27.5213C134.314 27.5213 137.279 24.556 137.279 20.8981C137.279 18.6351 136.145 16.6368 134.41 15.4406L133.977 15.1425V14.6172V10.9606H134.977V10.9243H134.995V9.92432H157.453V10.9243H157.49V10.9606H158.489V10.9243H158.49V14.6175V15.1427L158.057 15.4408C156.322 16.637 155.188 18.6353 155.188 20.8981C155.188 24.556 158.154 27.5213 161.811 27.5213C165.469 27.5213 168.435 24.556 168.435 20.8981C168.435 18.6351 167.301 16.6368 165.565 15.4406L165.133 15.1425V14.6172V10.9606H166.133V10.9243ZM165.108 9.92432V10.9606H165.133V10.9243H166.133V9.92434H165.133L165.108 9.92432ZM158.489 9.92432H165.108L158.49 9.92434L158.489 9.92432ZM158.489 9.92432V10.9243H157.49V9.92434L158.489 9.92432ZM134.977 10.9243V9.92434H133.977L133.959 9.92432V10.9606H133.977V10.9243H134.977ZM127.334 10.9606V10.9243H126.334V9.92434H127.334L127.34 9.92432V10.9606H127.334ZM103.821 10.9243H102.821V10.9606H102.809V9.92432L102.821 9.92434H103.821V10.9243ZM96.1781 10.9606V10.9243H95.1781V9.92434H96.1781L96.1906 9.92432V10.9606H96.1781ZM72.6657 10.9243H71.6657V10.9606H71.6602V9.92432L71.6657 9.92434H72.6657V10.9243ZM65.0224 10.9606V10.9243H64.0224V9.92434H65.0224L65.0414 9.92432V10.9606H65.0224ZM40.5049 10.9243V9.92432L40.5099 9.92434H41.5099V10.9243H40.5049ZM40.5049 10.9243V10.9606H40.5099V10.9243L40.5049 10.9243ZM33.8794 9.92432V10.9243V10.9606H33.8666V10.9243H32.8666V9.92434H33.8666L33.8794 9.92432ZM33.8794 9.92432H39.6463L37.289 9.92434L33.8794 9.92432Z" fill="#276BC6"/>
<rect x="106.904" y="131.424" width="72.3529" height="25" rx="12.5" fill="#4395E6" stroke="#4395E6"/>
<mask id="path-4-inside-1_357_114" fill="white">
<path d="M121.367 147.078C119.639 147.078 118.319 145.818 118.319 143.67C118.319 141.486 119.783 140.238 121.451 140.238C122.303 140.238 122.903 140.586 123.359 141.006L122.807 141.726C122.423 141.378 122.015 141.15 121.511 141.15C120.311 141.15 119.447 142.158 119.447 143.67C119.447 145.158 120.275 146.166 121.475 146.166C122.063 146.166 122.603 145.878 123.011 145.518L123.479 146.25C122.903 146.766 122.147 147.078 121.367 147.078ZM127.144 147.078C125.536 147.078 124.12 145.818 124.12 143.67C124.12 141.486 125.536 140.238 127.144 140.238C128.74 140.238 130.156 141.486 130.156 143.67C130.156 145.818 128.74 147.078 127.144 147.078ZM127.144 146.166C128.272 146.166 129.028 145.158 129.028 143.67C129.028 142.158 128.272 141.15 127.144 141.15C126.004 141.15 125.248 142.158 125.248 143.67C125.248 145.158 126.004 146.166 127.144 146.166ZM131.889 146.91V140.394H132.777L132.885 141.342H132.921C133.533 140.73 134.205 140.238 135.105 140.238C136.473 140.238 137.097 141.126 137.097 142.782V146.91H135.993V142.926C135.993 141.702 135.621 141.186 134.757 141.186C134.097 141.186 133.629 141.534 132.981 142.182V146.91H131.889ZM141.253 147.078C139.861 147.078 139.405 146.202 139.405 144.906V141.282H138.433V140.466L139.453 140.394L139.573 138.558H140.497V140.394H142.261V141.282H140.497V144.93C140.497 145.722 140.749 146.19 141.505 146.19C141.733 146.19 142.033 146.094 142.237 146.01L142.453 146.826C142.093 146.958 141.661 147.078 141.253 147.078ZM143.737 146.91V140.394H144.829V146.91H143.737ZM144.289 139.05C143.857 139.05 143.557 138.774 143.557 138.318C143.557 137.898 143.857 137.622 144.289 137.622C144.709 137.622 145.021 137.898 145.021 138.318C145.021 138.774 144.709 139.05 144.289 139.05ZM147.042 146.91V140.394H147.93L148.038 141.342H148.074C148.686 140.73 149.358 140.238 150.258 140.238C151.626 140.238 152.25 141.126 152.25 142.782V146.91H151.146V142.926C151.146 141.702 150.774 141.186 149.91 141.186C149.25 141.186 148.782 141.534 148.134 142.182V146.91H147.042ZM156.262 147.078C154.894 147.078 154.27 146.19 154.27 144.522V140.394H155.362V144.39C155.362 145.602 155.734 146.118 156.598 146.118C157.258 146.118 157.738 145.794 158.35 145.026V140.394H159.442V146.91H158.542L158.446 145.89H158.422C157.81 146.598 157.162 147.078 156.262 147.078ZM164.283 147.078C162.543 147.078 161.163 145.806 161.163 143.67C161.163 141.546 162.591 140.238 164.091 140.238C165.747 140.238 166.683 141.426 166.683 143.298C166.683 143.526 166.671 143.754 166.635 143.922H162.243C162.327 145.302 163.167 146.202 164.415 146.202C165.039 146.202 165.555 145.998 166.035 145.674L166.431 146.406C165.855 146.778 165.171 147.078 164.283 147.078ZM162.231 143.13H165.723C165.723 141.822 165.135 141.114 164.103 141.114C163.191 141.114 162.375 141.846 162.231 143.13Z"/>
</mask>
<path d="M121.367 147.078C119.639 147.078 118.319 145.818 118.319 143.67C118.319 141.486 119.783 140.238 121.451 140.238C122.303 140.238 122.903 140.586 123.359 141.006L122.807 141.726C122.423 141.378 122.015 141.15 121.511 141.15C120.311 141.15 119.447 142.158 119.447 143.67C119.447 145.158 120.275 146.166 121.475 146.166C122.063 146.166 122.603 145.878 123.011 145.518L123.479 146.25C122.903 146.766 122.147 147.078 121.367 147.078ZM127.144 147.078C125.536 147.078 124.12 145.818 124.12 143.67C124.12 141.486 125.536 140.238 127.144 140.238C128.74 140.238 130.156 141.486 130.156 143.67C130.156 145.818 128.74 147.078 127.144 147.078ZM127.144 146.166C128.272 146.166 129.028 145.158 129.028 143.67C129.028 142.158 128.272 141.15 127.144 141.15C126.004 141.15 125.248 142.158 125.248 143.67C125.248 145.158 126.004 146.166 127.144 146.166ZM131.889 146.91V140.394H132.777L132.885 141.342H132.921C133.533 140.73 134.205 140.238 135.105 140.238C136.473 140.238 137.097 141.126 137.097 142.782V146.91H135.993V142.926C135.993 141.702 135.621 141.186 134.757 141.186C134.097 141.186 133.629 141.534 132.981 142.182V146.91H131.889ZM141.253 147.078C139.861 147.078 139.405 146.202 139.405 144.906V141.282H138.433V140.466L139.453 140.394L139.573 138.558H140.497V140.394H142.261V141.282H140.497V144.93C140.497 145.722 140.749 146.19 141.505 146.19C141.733 146.19 142.033 146.094 142.237 146.01L142.453 146.826C142.093 146.958 141.661 147.078 141.253 147.078ZM143.737 146.91V140.394H144.829V146.91H143.737ZM144.289 139.05C143.857 139.05 143.557 138.774 143.557 138.318C143.557 137.898 143.857 137.622 144.289 137.622C144.709 137.622 145.021 137.898 145.021 138.318C145.021 138.774 144.709 139.05 144.289 139.05ZM147.042 146.91V140.394H147.93L148.038 141.342H148.074C148.686 140.73 149.358 140.238 150.258 140.238C151.626 140.238 152.25 141.126 152.25 142.782V146.91H151.146V142.926C151.146 141.702 150.774 141.186 149.91 141.186C149.25 141.186 148.782 141.534 148.134 142.182V146.91H147.042ZM156.262 147.078C154.894 147.078 154.27 146.19 154.27 144.522V140.394H155.362V144.39C155.362 145.602 155.734 146.118 156.598 146.118C157.258 146.118 157.738 145.794 158.35 145.026V140.394H159.442V146.91H158.542L158.446 145.89H158.422C157.81 146.598 157.162 147.078 156.262 147.078ZM164.283 147.078C162.543 147.078 161.163 145.806 161.163 143.67C161.163 141.546 162.591 140.238 164.091 140.238C165.747 140.238 166.683 141.426 166.683 143.298C166.683 143.526 166.671 143.754 166.635 143.922H162.243C162.327 145.302 163.167 146.202 164.415 146.202C165.039 146.202 165.555 145.998 166.035 145.674L166.431 146.406C165.855 146.778 165.171 147.078 164.283 147.078ZM162.231 143.13H165.723C165.723 141.822 165.135 141.114 164.103 141.114C163.191 141.114 162.375 141.846 162.231 143.13Z" fill="#EFF5FF"/>
<path d="M123.359 141.006L125.74 142.831L127.407 140.656L125.391 138.799L123.359 141.006ZM122.807 141.726L120.792 143.949L123.206 146.136L125.188 143.551L122.807 141.726ZM123.011 145.518L125.539 143.902L123.652 140.951L121.026 143.268L123.011 145.518ZM123.479 146.25L125.481 148.484L127.38 146.782L126.007 144.634L123.479 146.25ZM121.367 144.078C121.301 144.078 121.287 144.066 121.308 144.075C121.332 144.085 121.362 144.104 121.386 144.129C121.408 144.154 121.397 144.153 121.376 144.095C121.354 144.035 121.319 143.9 121.319 143.67H115.319C115.319 145.363 115.849 146.994 117.004 148.229C118.168 149.472 119.749 150.078 121.367 150.078V144.078ZM121.319 143.67C121.319 143.461 121.353 143.342 121.373 143.29C121.393 143.239 121.407 143.229 121.4 143.237C121.377 143.26 121.373 143.238 121.451 143.238V137.238C119.861 137.238 118.291 137.839 117.119 139.033C115.933 140.241 115.319 141.883 115.319 143.67H121.319ZM121.451 143.238C121.458 143.238 121.445 143.238 121.417 143.232C121.389 143.226 121.36 143.217 121.334 143.205C121.281 143.181 121.277 143.166 121.327 143.212L125.391 138.799C124.537 138.012 123.244 137.238 121.451 137.238V143.238ZM120.978 139.18L120.426 139.9L125.188 143.551L125.74 142.831L120.978 139.18ZM124.822 139.503C124.138 138.884 123.042 138.15 121.511 138.15V144.15C121.287 144.15 121.08 144.094 120.924 144.02C120.79 143.957 120.743 143.904 120.792 143.949L124.822 139.503ZM121.511 138.15C120.006 138.15 118.649 138.808 117.721 139.927C116.824 141.007 116.447 142.358 116.447 143.67H122.447C122.447 143.47 122.502 143.56 122.338 143.759C122.254 143.859 122.13 143.965 121.965 144.043C121.799 144.121 121.638 144.15 121.511 144.15V138.15ZM116.447 143.67C116.447 144.95 116.804 146.289 117.686 147.371C118.606 148.5 119.963 149.166 121.475 149.166V143.166C121.603 143.166 121.77 143.194 121.946 143.278C122.12 143.361 122.25 143.474 122.336 143.58C122.504 143.786 122.447 143.878 122.447 143.67H116.447ZM121.475 149.166C123.038 149.166 124.255 148.421 124.996 147.767L121.026 143.268C121.01 143.282 121.022 143.267 121.077 143.242C121.137 143.215 121.275 143.166 121.475 143.166V149.166ZM120.483 147.134L120.951 147.866L126.007 144.634L125.539 143.902L120.483 147.134ZM121.477 144.015C121.449 144.04 121.418 144.059 121.391 144.069C121.366 144.08 121.357 144.078 121.367 144.078V150.078C122.941 150.078 124.397 149.455 125.481 148.484L121.477 144.015ZM127.144 144.078C127.135 144.078 127.143 144.076 127.161 144.084C127.18 144.092 127.195 144.103 127.203 144.112C127.211 144.121 127.195 144.109 127.175 144.053C127.153 143.997 127.12 143.875 127.12 143.67H121.12C121.12 147.331 123.739 150.078 127.144 150.078V144.078ZM127.12 143.67C127.12 143.449 127.155 143.319 127.178 143.259C127.2 143.199 127.216 143.188 127.205 143.199C127.195 143.21 127.178 143.223 127.157 143.232C127.138 143.24 127.131 143.238 127.144 143.238V137.238C123.732 137.238 121.12 139.98 121.12 143.67H127.12ZM127.144 143.238C127.15 143.238 127.14 143.239 127.119 143.23C127.097 143.22 127.079 143.207 127.069 143.197C127.059 143.186 127.075 143.197 127.098 143.258C127.12 143.319 127.156 143.449 127.156 143.67H133.156C133.156 139.987 130.551 137.238 127.144 137.238V143.238ZM127.156 143.67C127.156 143.875 127.122 143.997 127.101 144.054C127.08 144.111 127.064 144.123 127.072 144.115C127.079 144.107 127.095 144.095 127.115 144.086C127.135 144.078 127.146 144.078 127.144 144.078V150.078C130.544 150.078 133.156 147.323 133.156 143.67H127.156ZM127.144 149.166C128.701 149.166 130.039 148.43 130.905 147.281C131.721 146.198 132.028 144.889 132.028 143.67H126.028C126.028 143.938 125.957 143.877 126.113 143.67C126.197 143.559 126.338 143.422 126.545 143.316C126.755 143.208 126.968 143.166 127.144 143.166V149.166ZM132.028 143.67C132.028 142.447 131.725 141.134 130.911 140.045C130.045 138.888 128.703 138.15 127.144 138.15V144.15C126.968 144.15 126.753 144.107 126.541 143.998C126.332 143.891 126.191 143.752 126.107 143.64C125.952 143.433 126.028 143.38 126.028 143.67H132.028ZM127.144 138.15C125.59 138.15 124.243 138.879 123.37 140.04C122.55 141.131 122.248 142.448 122.248 143.67H128.248C128.248 143.38 128.323 143.436 128.166 143.645C128.081 143.759 127.939 143.896 127.732 144.002C127.521 144.11 127.312 144.15 127.144 144.15V138.15ZM122.248 143.67C122.248 144.889 122.555 146.201 123.376 147.286C124.249 148.439 125.592 149.166 127.144 149.166V143.166C127.312 143.166 127.52 143.206 127.728 143.312C127.933 143.416 128.075 143.552 128.16 143.665C128.319 143.874 128.248 143.938 128.248 143.67H122.248ZM131.889 146.91H128.889V149.91H131.889V146.91ZM131.889 140.394V137.394H128.889V140.394H131.889ZM132.777 140.394L135.758 140.054L135.455 137.394H132.777V140.394ZM132.885 141.342L129.904 141.681L130.208 144.342H132.885V141.342ZM132.921 141.342V144.342H134.164L135.042 143.463L132.921 141.342ZM137.097 146.91V149.91H140.097V146.91H137.097ZM135.993 146.91H132.993V149.91H135.993V146.91ZM132.981 142.182L130.86 140.06L129.981 140.939V142.182H132.981ZM132.981 146.91V149.91H135.981V146.91H132.981ZM134.889 146.91V140.394H128.889V146.91H134.889ZM131.889 143.394H132.777V137.394H131.889V143.394ZM129.796 140.733L129.904 141.681L135.866 141.002L135.758 140.054L129.796 140.733ZM132.885 144.342H132.921V138.342H132.885V144.342ZM135.042 143.463C135.146 143.36 135.224 143.29 135.283 143.242C135.341 143.194 135.369 143.179 135.369 143.179C135.366 143.18 135.334 143.198 135.278 143.213C135.22 143.23 135.159 143.238 135.105 143.238V137.238C132.976 137.238 131.567 138.453 130.8 139.22L135.042 143.463ZM135.105 143.238C135.127 143.238 134.999 143.241 134.797 143.153C134.576 143.057 134.373 142.898 134.228 142.707C134.096 142.533 134.066 142.408 134.07 142.42C134.074 142.437 134.097 142.546 134.097 142.782H140.097C140.097 141.664 139.902 140.253 139 139.07C137.979 137.73 136.493 137.238 135.105 137.238V143.238ZM134.097 142.782V146.91H140.097V142.782H134.097ZM137.097 143.91H135.993V149.91H137.097V143.91ZM138.993 146.91V142.926H132.993V146.91H138.993ZM138.993 142.926C138.993 142.14 138.9 140.919 138.142 139.855C137.212 138.55 135.832 138.186 134.757 138.186V144.186C134.686 144.186 134.442 144.176 134.126 144.04C133.778 143.889 133.472 143.641 133.256 143.338C133.061 143.064 133.004 142.837 132.991 142.78C132.979 142.725 132.993 142.758 132.993 142.926H138.993ZM134.757 138.186C132.78 138.186 131.543 139.378 130.86 140.06L135.102 144.303C135.236 144.169 135.324 144.088 135.384 144.037C135.443 143.987 135.447 143.99 135.406 144.014C135.359 144.043 135.265 144.092 135.131 144.131C134.994 144.17 134.864 144.186 134.757 144.186V138.186ZM129.981 142.182V146.91H135.981V142.182H129.981ZM132.981 143.91H131.889V149.91H132.981V143.91ZM139.405 141.282H142.405V138.282H139.405V141.282ZM138.433 141.282H135.433V144.282H138.433V141.282ZM138.433 140.466L138.222 137.473L135.433 137.67V140.466H138.433ZM139.453 140.394L139.665 143.386L142.276 143.202L142.447 140.589L139.453 140.394ZM139.573 138.558V135.558H136.763L136.58 138.362L139.573 138.558ZM140.497 138.558H143.497V135.558H140.497V138.558ZM140.497 140.394H137.497V143.394H140.497V140.394ZM142.261 140.394H145.261V137.394H142.261V140.394ZM142.261 141.282V144.282H145.261V141.282H142.261ZM140.497 141.282V138.282H137.497V141.282H140.497ZM142.237 146.01L145.137 145.242L144.261 141.932L141.095 143.236L142.237 146.01ZM142.453 146.826L143.486 149.642L146.053 148.701L145.353 146.058L142.453 146.826ZM141.253 144.078C141.213 144.078 141.344 144.071 141.561 144.164C141.799 144.266 142.029 144.442 142.201 144.669C142.357 144.876 142.404 145.045 142.413 145.081C142.421 145.112 142.405 145.065 142.405 144.906H136.405C136.405 145.807 136.545 147.137 137.414 148.287C138.412 149.607 139.883 150.078 141.253 150.078V144.078ZM142.405 144.906V141.282H136.405V144.906H142.405ZM139.405 138.282H138.433V144.282H139.405V138.282ZM141.433 141.282V140.466H135.433V141.282H141.433ZM138.645 143.458L139.665 143.386L139.242 137.401L138.222 137.473L138.645 143.458ZM142.447 140.589L142.567 138.753L136.58 138.362L136.46 140.198L142.447 140.589ZM139.573 141.558H140.497V135.558H139.573V141.558ZM137.497 138.558V140.394H143.497V138.558H137.497ZM140.497 143.394H142.261V137.394H140.497V143.394ZM139.261 140.394V141.282H145.261V140.394H139.261ZM142.261 138.282H140.497V144.282H142.261V138.282ZM137.497 141.282V144.93H143.497V141.282H137.497ZM137.497 144.93C137.497 145.527 137.569 146.63 138.294 147.624C139.17 148.825 140.463 149.19 141.505 149.19V143.19C141.617 143.19 141.886 143.206 142.221 143.351C142.582 143.508 142.905 143.765 143.142 144.089C143.552 144.651 143.497 145.124 143.497 144.93H137.497ZM141.505 149.19C142.349 149.19 143.104 148.897 143.38 148.784L141.095 143.236C141.096 143.235 141.094 143.236 141.091 143.237C141.088 143.238 141.092 143.236 141.105 143.233C141.117 143.23 141.151 143.221 141.205 143.212C141.256 143.204 141.361 143.19 141.505 143.19V149.19ZM139.337 146.777L139.553 147.593L145.353 146.058L145.137 145.242L139.337 146.777ZM141.421 144.009C141.324 144.044 141.252 144.065 141.205 144.076C141.183 144.081 141.175 144.082 141.18 144.081C141.184 144.081 141.21 144.078 141.253 144.078V150.078C142.183 150.078 143.005 149.819 143.486 149.642L141.421 144.009ZM143.737 146.91H140.737V149.91H143.737V146.91ZM143.737 140.394V137.394H140.737V140.394H143.737ZM144.829 140.394H147.829V137.394H144.829V140.394ZM144.829 146.91V149.91H147.829V146.91H144.829ZM146.737 146.91V140.394H140.737V146.91H146.737ZM143.737 143.394H144.829V137.394H143.737V143.394ZM141.829 140.394V146.91H147.829V140.394H141.829ZM144.829 143.91H143.737V149.91H144.829V143.91ZM144.289 136.05C144.716 136.05 145.333 136.196 145.857 136.709C146.393 137.232 146.557 137.867 146.557 138.318H140.557C140.557 139.224 140.871 140.226 141.665 141.001C142.447 141.765 143.43 142.05 144.289 142.05V136.05ZM146.557 138.318C146.557 138.854 146.347 139.498 145.818 139.996C145.306 140.478 144.714 140.622 144.289 140.622V134.622C143.432 134.622 142.473 134.904 141.704 135.628C140.917 136.37 140.557 137.361 140.557 138.318H146.557ZM144.289 140.622C143.841 140.622 143.263 140.468 142.768 140.008C142.253 139.528 142.021 138.89 142.021 138.318H148.021C148.021 137.326 147.633 136.339 146.857 135.616C146.101 134.913 145.156 134.622 144.289 134.622V140.622ZM142.021 138.318C142.021 137.833 142.204 137.203 142.729 136.696C143.236 136.206 143.839 136.05 144.289 136.05V142.05C145.159 142.05 146.127 141.755 146.896 141.013C147.681 140.255 148.021 139.258 148.021 138.318H142.021ZM147.042 146.91H144.042V149.91H147.042V146.91ZM147.042 140.394V137.394H144.042V140.394H147.042ZM147.93 140.394L150.91 140.054L150.607 137.394H147.93V140.394ZM148.038 141.342L145.057 141.681L145.36 144.342H148.038V141.342ZM148.074 141.342V144.342H149.316L150.195 143.463L148.074 141.342ZM152.25 146.91V149.91H155.25V146.91H152.25ZM151.146 146.91H148.146V149.91H151.146V146.91ZM148.134 142.182L146.012 140.06L145.134 140.939V142.182H148.134ZM148.134 146.91V149.91H151.134V146.91H148.134ZM150.042 146.91V140.394H144.042V146.91H150.042ZM147.042 143.394H147.93V137.394H147.042V143.394ZM144.949 140.733L145.057 141.681L151.018 141.002L150.91 140.054L144.949 140.733ZM148.038 144.342H148.074V138.342H148.038V144.342ZM150.195 143.463C150.298 143.36 150.376 143.29 150.435 143.242C150.494 143.194 150.521 143.179 150.521 143.179C150.518 143.18 150.487 143.198 150.431 143.213C150.372 143.23 150.311 143.238 150.258 143.238V137.238C148.128 137.238 146.719 138.453 145.952 139.22L150.195 143.463ZM150.258 143.238C150.279 143.238 150.152 143.241 149.949 143.153C149.728 143.057 149.526 142.898 149.381 142.707C149.248 142.533 149.219 142.408 149.222 142.42C149.226 142.437 149.25 142.546 149.25 142.782H155.25C155.25 141.664 155.054 140.253 154.152 139.07C153.131 137.73 151.646 137.238 150.258 137.238V143.238ZM149.25 142.782V146.91H155.25V142.782H149.25ZM152.25 143.91H151.146V149.91H152.25V143.91ZM154.146 146.91V142.926H148.146V146.91H154.146ZM154.146 142.926C154.146 142.14 154.052 140.919 153.294 139.855C152.364 138.55 150.984 138.186 149.91 138.186V144.186C149.838 144.186 149.595 144.176 149.278 144.04C148.93 143.889 148.624 143.641 148.409 143.338C148.213 143.064 148.156 142.837 148.144 142.78C148.131 142.725 148.146 142.758 148.146 142.926H154.146ZM149.91 138.186C147.933 138.186 146.695 139.378 146.012 140.06L150.255 144.303C150.389 144.169 150.477 144.088 150.537 144.037C150.596 143.987 150.599 143.99 150.558 144.014C150.511 144.043 150.417 144.092 150.283 144.131C150.146 144.17 150.016 144.186 149.91 144.186V138.186ZM145.134 142.182V146.91H151.134V142.182H145.134ZM148.134 143.91H147.042V149.91H148.134V143.91ZM154.27 140.394V137.394H151.27V140.394H154.27ZM155.362 140.394H158.362V137.394H155.362V140.394ZM158.35 145.026L160.696 146.895L161.35 146.075V145.026H158.35ZM158.35 140.394V137.394H155.35V140.394H158.35ZM159.442 140.394H162.442V137.394H159.442V140.394ZM159.442 146.91V149.91H162.442V146.91H159.442ZM158.542 146.91L155.555 147.191L155.811 149.91H158.542V146.91ZM158.446 145.89L161.433 145.609L161.177 142.89H158.446V145.89ZM158.422 145.89V142.89H157.049L156.152 143.928L158.422 145.89ZM156.262 144.078C156.24 144.078 156.368 144.074 156.572 144.163C156.794 144.259 156.997 144.42 157.142 144.611C157.274 144.784 157.302 144.909 157.298 144.893C157.293 144.874 157.27 144.762 157.27 144.522H151.27C151.27 145.641 151.463 147.054 152.364 148.24C153.385 149.585 154.873 150.078 156.262 150.078V144.078ZM157.27 144.522V140.394H151.27V144.522H157.27ZM154.27 143.394H155.362V137.394H154.27V143.394ZM152.362 140.394V144.39H158.362V140.394H152.362ZM152.362 144.39C152.362 145.174 152.456 146.394 153.217 147.456C154.148 148.754 155.524 149.118 156.598 149.118V143.118C156.669 143.118 156.911 143.127 157.226 143.263C157.573 143.412 157.878 143.658 158.094 143.961C158.291 144.235 158.349 144.463 158.363 144.523C158.376 144.582 158.362 144.553 158.362 144.39H152.362ZM156.598 149.118C158.624 149.118 159.875 147.926 160.696 146.895L156.004 143.156C155.902 143.283 155.841 143.348 155.812 143.376C155.785 143.403 155.81 143.374 155.885 143.326C155.966 143.275 156.085 143.215 156.235 143.172C156.384 143.129 156.512 143.118 156.598 143.118V149.118ZM161.35 145.026V140.394H155.35V145.026H161.35ZM158.35 143.394H159.442V137.394H158.35V143.394ZM156.442 140.394V146.91H162.442V140.394H156.442ZM159.442 143.91H158.542V149.91H159.442V143.91ZM161.529 146.629L161.433 145.609L155.459 146.171L155.555 147.191L161.529 146.629ZM158.446 142.89H158.422V148.89H158.446V142.89ZM156.152 143.928C156.059 144.036 155.992 144.103 155.947 144.143C155.904 144.181 155.895 144.184 155.918 144.17C155.944 144.154 155.997 144.128 156.071 144.106C156.147 144.085 156.215 144.078 156.262 144.078V150.078C158.448 150.078 159.853 148.822 160.691 147.852L156.152 143.928ZM166.635 143.922V146.922H169.06L169.568 144.55L166.635 143.922ZM162.243 143.922V140.922H159.055L159.248 144.104L162.243 143.922ZM166.035 145.674L168.673 144.246L167.099 141.336L164.356 143.187L166.035 145.674ZM166.431 146.406L168.058 148.926L170.39 147.42L169.069 144.978L166.431 146.406ZM162.231 143.13L159.249 142.795L158.876 146.13H162.231V143.13ZM165.723 143.13V146.13H168.723V143.13H165.723ZM164.283 144.078C164.215 144.078 164.189 144.066 164.195 144.068C164.202 144.071 164.218 144.08 164.233 144.095C164.247 144.111 164.236 144.106 164.216 144.055C164.196 144.001 164.163 143.88 164.163 143.67H158.163C158.163 145.398 158.733 147.033 159.908 148.254C161.081 149.474 162.664 150.078 164.283 150.078V144.078ZM164.163 143.67C164.163 143.477 164.195 143.354 164.22 143.287C164.245 143.219 164.27 143.191 164.273 143.187C164.281 143.178 164.226 143.238 164.091 143.238V137.238C160.7 137.238 158.163 140.132 158.163 143.67H164.163ZM164.091 143.238C164.144 143.238 164.095 143.246 163.989 143.2C163.877 143.151 163.774 143.071 163.7 142.982C163.632 142.9 163.626 142.856 163.64 142.901C163.654 142.949 163.683 143.075 163.683 143.298H169.683C169.683 141.899 169.335 140.376 168.316 139.149C167.235 137.847 165.695 137.238 164.091 137.238V143.238ZM163.683 143.298C163.683 143.329 163.682 143.355 163.682 143.377C163.681 143.4 163.68 143.414 163.68 143.421C163.679 143.425 163.679 143.425 163.68 143.423C163.68 143.421 163.68 143.415 163.682 143.406C163.683 143.397 163.685 143.383 163.688 143.365C163.691 143.347 163.695 143.323 163.701 143.293L169.568 144.55C169.673 144.06 169.683 143.572 169.683 143.298H163.683ZM166.635 140.922H162.243V146.922H166.635V140.922ZM159.248 144.104C159.324 145.35 159.761 146.635 160.714 147.642C161.696 148.679 163.026 149.202 164.415 149.202V143.202C164.467 143.202 164.574 143.212 164.71 143.268C164.847 143.325 164.972 143.412 165.07 143.516C165.271 143.728 165.245 143.873 165.237 143.739L159.248 144.104ZM164.415 149.202C165.769 149.202 166.859 148.737 167.713 148.16L164.356 143.187C164.287 143.234 164.274 143.232 164.306 143.221C164.322 143.216 164.342 143.21 164.365 143.206C164.389 143.202 164.406 143.202 164.415 143.202V149.202ZM163.396 147.101L163.792 147.833L169.069 144.978L168.673 144.246L163.396 147.101ZM164.803 143.886C164.66 143.978 164.566 144.021 164.5 144.044C164.442 144.063 164.378 144.078 164.283 144.078V150.078C165.918 150.078 167.163 149.504 168.058 148.926L164.803 143.886ZM162.231 146.13H165.723V140.13H162.231V146.13ZM168.723 143.13C168.723 142.08 168.493 140.807 167.63 139.742C166.689 138.58 165.359 138.114 164.103 138.114V144.114C164.018 144.114 163.832 144.099 163.598 143.997C163.353 143.891 163.134 143.724 162.969 143.52C162.658 143.137 162.723 142.871 162.723 143.13H168.723ZM164.103 138.114C161.318 138.114 159.522 140.363 159.249 142.795L165.212 143.464C165.221 143.382 165.223 143.533 165.023 143.738C164.815 143.951 164.482 144.114 164.103 144.114V138.114Z" fill="#EFF5FF" mask="url(#path-4-inside-1_357_114)"/>
<g opacity="0.6">
<line x1="25.7266" y1="73.9243" x2="173.273" y2="73.9243" stroke="#276BC6" stroke-width="2"/>
<line x1="25.7266" y1="115.924" x2="173.273" y2="115.924" stroke="#276BC6" stroke-width="2"/>
</g>
<path d="M48.0332 60.9243V59.5563H50.9672V49.7103H48.6272V48.6663C49.7972 48.4503 50.6432 48.1443 51.3632 47.7123H52.6232V59.5563H55.2692V60.9243H48.0332ZM58.0176 60.9243V59.5563H60.9516V49.7103H58.6116V48.6663C59.7816 48.4503 60.6276 48.1443 61.3476 47.7123H62.6076V59.5563H65.2536V60.9243H58.0176ZM71.17 61.1583C69.1 61.1583 67.804 60.2943 66.94 59.3583L67.768 58.2783C68.542 59.0883 69.55 59.7903 71.044 59.7903C72.61 59.7903 73.726 58.8543 73.726 57.3243C73.726 55.7583 72.664 54.6963 69.622 54.6963V53.4363C72.34 53.4363 73.276 52.3383 73.276 50.9163C73.276 49.6563 72.412 48.8283 71.044 48.8283C69.982 48.8283 69.046 49.3503 68.308 50.1063L67.426 49.0623C68.416 48.1443 69.586 47.4783 71.116 47.4783C73.33 47.4783 74.95 48.7023 74.95 50.7903C74.95 52.3923 73.996 53.4543 72.61 53.9763V54.0483C74.158 54.4083 75.4 55.5963 75.4 57.3963C75.4 59.7543 73.51 61.1583 71.17 61.1583ZM81.6043 56.8923H85.6363V53.3283H81.6043V56.8923ZM93.5023 56.8923V58.1883H86.9863V62.3103H85.6363V58.1883H77.3203V56.8923H80.2723V52.0683H85.6363V49.3323H81.2623C80.4523 50.7183 79.4983 51.9423 78.5263 52.8783C78.2743 52.6623 77.7163 52.2123 77.3743 52.0323C79.0663 50.5563 80.5783 48.2343 81.4243 45.8223L82.7743 46.1463C82.5223 46.7763 82.2343 47.4243 81.9463 48.0363H92.6743V49.3323H86.9863V52.0683H92.2603V53.3283H86.9863V56.8923H93.5023ZM98.0383 48.9003V52.5003C98.0383 55.3623 97.8223 59.4843 96.3103 62.3103C96.0583 62.0943 95.4463 61.8063 95.1223 61.6983C96.5803 58.9983 96.7243 55.1823 96.7243 52.5003V47.6583H103.654C103.456 47.1543 103.186 46.5603 102.934 46.0923L104.248 45.7683C104.59 46.3443 104.95 47.0823 105.166 47.6583H111.412V48.9003H98.0383ZM107.002 52.0323H102.646V53.9223H107.002V52.0323ZM108.316 55.0023H101.368V52.0323H98.4883V50.9163H101.368V49.3683H102.646V50.9163H107.002V49.3683H108.316V50.9163H111.214V52.0323H108.316V55.0023ZM107.974 57.2523H101.764C102.484 58.1523 103.528 58.8903 104.806 59.4843C106.084 58.9263 107.2 58.1883 107.974 57.2523ZM109.144 56.0823L109.972 56.5503C109.144 58.0803 107.83 59.2143 106.246 60.0783C107.83 60.6183 109.666 60.9783 111.646 61.1583C111.376 61.4283 111.052 61.9683 110.89 62.3103C108.64 62.0583 106.534 61.5363 104.752 60.7623C102.844 61.5003 100.666 61.9503 98.4523 62.2023C98.3443 61.8963 98.0923 61.3743 97.8763 61.0863C99.7843 60.9063 101.674 60.5823 103.348 60.0423C102.16 59.3583 101.188 58.5303 100.45 57.5043L101.08 57.2523H98.7223V56.1543H108.892L109.144 56.0823ZM126.208 49.3683L125.56 50.0703C125.164 49.6743 124.336 49.1163 123.634 48.8103L124.264 48.1443C124.966 48.4683 125.794 48.9543 126.208 49.3683ZM121.402 56.6403L121.456 57.5763C119.584 57.9363 117.676 58.3143 116.2 58.5843L116.02 57.5763C117.388 57.3603 119.386 57.0003 121.402 56.6403ZM119.836 55.0563V53.2563H117.766V55.0563H119.836ZM116.83 52.4103H120.808V55.9023H116.83V52.4103ZM124.822 52.1043L125.92 52.3383C125.47 54.0303 124.786 55.5063 123.922 56.7483C124.3 57.7023 124.786 58.3143 125.38 58.4043C125.632 58.4763 125.812 57.7023 125.938 56.5503C126.154 56.7663 126.55 57.0363 126.802 57.1443C126.568 59.1063 125.956 59.8263 125.02 59.4663C124.246 59.3043 123.634 58.6743 123.148 57.7203C122.446 58.5303 121.654 59.2143 120.772 59.7903C120.61 59.5743 120.214 59.1423 119.98 58.9443C121.042 58.3323 121.942 57.5403 122.698 56.6043C122.212 55.1643 121.906 53.3103 121.708 51.2763H116.2V50.2683H121.618C121.564 49.6383 121.51 49.0083 121.474 48.3603H122.626C122.662 49.0083 122.698 49.6383 122.734 50.2683H126.658V51.2763H122.824C122.968 52.8243 123.184 54.2643 123.49 55.4163C124.066 54.4443 124.516 53.3283 124.822 52.1043ZM115.21 60.3123H127.558V47.9103H115.21V60.3123ZM113.932 46.6863H128.872V62.3463H127.558V61.5183H115.21V62.3463H113.932V46.6863ZM140.05 55.1463H145.216V50.3763H140.05V55.1463ZM133.516 55.1463H138.664V50.3763H133.516V55.1463ZM140.05 49.0623H146.584V57.4863H145.216V56.4603H140.05V62.2923H138.664V56.4603H133.516V57.5763H132.202V49.0623H138.664V45.8583H140.05V49.0623ZM60.2552 90.3683L59.6072 91.0703C59.2112 90.6743 58.3832 90.1163 57.6812 89.8103L58.3112 89.1443C59.0132 89.4683 59.8412 89.9543 60.2552 90.3683ZM55.4492 97.6403L55.5032 98.5763C53.6312 98.9363 51.7232 99.3143 50.2472 99.5843L50.0672 98.5763C51.4352 98.3603 53.4332 98.0003 55.4492 97.6403ZM53.8832 96.0563V94.2563H51.8132V96.0563H53.8832ZM50.8772 93.4103H54.8552V96.9023H50.8772V93.4103ZM58.8692 93.1043L59.9672 93.3383C59.5172 95.0303 58.8332 96.5063 57.9692 97.7483C58.3472 98.7023 58.8332 99.3143 59.4272 99.4043C59.6792 99.4763 59.8592 98.7023 59.9852 97.5503C60.2012 97.7663 60.5972 98.0363 60.8492 98.1443C60.6152 100.106 60.0032 100.826 59.0672 100.466C58.2932 100.304 57.6812 99.6743 57.1952 98.7203C56.4932 99.5303 55.7012 100.214 54.8192 100.79C54.6572 100.574 54.2612 100.142 54.0272 99.9443C55.0892 99.3323 55.9892 98.5403 56.7452 97.6043C56.2592 96.1643 55.9532 94.3103 55.7552 92.2763H50.2472V91.2683H55.6652C55.6112 90.6383 55.5572 90.0083 55.5212 89.3603H56.6732C56.7092 90.0083 56.7452 90.6383 56.7812 91.2683H60.7052V92.2763H56.8712C57.0152 93.8243 57.2312 95.2643 57.5372 96.4163C58.1132 95.4443 58.5632 94.3283 58.8692 93.1043ZM49.2572 101.312H61.6052V88.9103H49.2572V101.312ZM47.9792 87.6863H62.9192V103.346H61.6052V102.518H49.2572V103.346H47.9792V87.6863ZM74.8532 89.5223L73.3952 89.9903C73.1792 89.2523 72.6032 88.0463 72.0632 87.1643L73.4492 86.7683C73.9892 87.6143 74.6012 88.7663 74.8532 89.5223ZM77.2112 91.3403H69.5792C70.5152 93.6263 71.8112 95.6783 73.5032 97.3703C75.1052 95.7503 76.3112 93.7703 77.2112 91.3403ZM81.5492 91.3403H78.7232C77.6972 94.1843 76.3112 96.4523 74.5112 98.3063C76.4912 99.9803 78.9212 101.258 81.7832 101.96C81.4592 102.266 81.0812 102.824 80.8652 103.202C77.9312 102.374 75.4832 101.06 73.4852 99.2603C71.4692 101.024 68.9852 102.32 65.9972 103.274C65.8352 102.95 65.4392 102.338 65.1692 102.032C68.1392 101.186 70.5512 99.9623 72.5132 98.3063C70.6592 96.3983 69.2372 94.0583 68.1932 91.3403H65.4212V90.0263H81.5492V91.3403ZM94.0232 91.4483C94.3652 93.5183 94.8872 95.4623 95.6072 97.1363C96.3632 95.5523 96.8312 93.6623 97.1732 91.4483H94.0232ZM87.5972 89.9003V91.6823H88.1372C88.6052 91.1243 89.0192 90.5123 89.4152 89.9003H87.5972ZM99.6752 91.4483H98.5412C98.1092 94.3283 97.4432 96.6863 96.3452 98.6123C97.2272 100.142 98.3792 101.384 99.8192 102.14C99.4952 102.41 99.0812 102.896 98.8832 103.274C97.5152 102.464 96.4172 101.312 95.5352 99.8723C94.4732 101.294 93.1052 102.446 91.3412 103.364C91.1972 103.04 90.8012 102.446 90.5312 102.158C92.4032 101.276 93.7892 100.088 94.8152 98.5403C94.1132 97.0823 93.5912 95.3903 93.1772 93.5543C92.8352 94.3463 92.4032 95.0483 91.9712 95.6783C91.7732 95.4623 91.3412 95.0663 90.9992 94.8323C90.2612 95.6963 89.2352 96.5603 88.2812 97.2083V97.9283C89.4332 97.7843 90.6212 97.6223 91.8092 97.4603L91.8272 98.6303C90.6392 98.7923 89.4512 98.9543 88.2812 99.1343V101.888C88.2812 102.572 88.1372 102.896 87.6332 103.094C87.1472 103.292 86.3732 103.292 85.2392 103.292C85.1672 102.932 84.9872 102.482 84.8072 102.122C85.7072 102.158 86.4632 102.14 86.6972 102.14C86.9492 102.122 87.0032 102.068 87.0032 101.87V99.2963C85.6712 99.4763 84.4472 99.6563 83.4212 99.7823L83.2592 98.5583C84.2852 98.4323 85.5812 98.2703 87.0032 98.1083V96.8663C87.6872 96.4703 88.4612 95.8403 89.0552 95.2643H86.2472C85.5452 95.8043 84.8252 96.3083 84.0692 96.7403C83.8712 96.4883 83.3852 95.9663 83.1152 95.7143C84.5732 94.9763 85.9052 94.0043 87.0392 92.8703H83.2412V91.6823H86.3552V89.9003H83.9972V88.7483H86.3552V86.8583H87.5972V88.7483H89.4512V89.8463C89.9372 89.0363 90.3692 88.1903 90.7292 87.2903L91.9712 87.6503C91.3592 89.1263 90.6032 90.4583 89.7212 91.6823H91.8992V92.8703H88.7672C88.3532 93.3203 87.9392 93.7703 87.4892 94.1843H90.1172L90.3692 94.1123L90.9992 94.5803C92.3672 92.7083 93.2852 89.8463 93.8072 86.8583L95.1392 87.0743C94.9412 88.1543 94.7072 89.1983 94.4192 90.1883H99.6752V91.4483ZM115.443 94.0043V101.744C115.443 102.554 115.227 102.896 114.615 103.076C114.021 103.256 112.959 103.238 111.393 103.238C111.339 102.878 111.177 102.428 111.015 102.086C112.131 102.122 113.337 102.122 113.607 102.104C113.931 102.104 114.039 101.996 114.039 101.744V99.4403C111.195 100.016 108.243 100.628 106.029 101.024L105.597 99.8183C107.631 99.5123 110.907 98.9903 114.039 98.4323V95.1383H105.111V97.2443C105.111 99.1343 104.805 101.69 103.041 103.436C102.843 103.184 102.285 102.734 101.979 102.608C103.599 101.042 103.815 98.8823 103.815 97.2083V94.0043H115.443ZM105.687 96.7403L106.119 95.8763C108.315 96.1823 111.159 96.8843 112.689 97.5143L112.275 98.5043C110.781 97.8563 107.937 97.0823 105.687 96.7403ZM105.363 91.9883L113.013 91.6463C112.419 91.1783 111.807 90.6923 111.213 90.2963L111.969 89.8103H107.865C107.037 90.6023 106.191 91.3223 105.363 91.9883ZM117.315 88.6043V89.8103H112.563C114.021 90.8183 115.695 92.2223 116.559 93.1763L115.425 93.9503C115.101 93.5723 114.669 93.1223 114.183 92.6543C104.967 93.1223 104.049 93.1403 103.437 93.3563C103.365 93.0863 103.185 92.4563 103.041 92.0963C103.455 92.0243 103.923 91.6823 104.553 91.1603C104.859 90.9443 105.435 90.4403 106.119 89.8103H101.601V88.6043H107.325C107.901 87.9923 108.495 87.3083 109.017 86.6423L110.349 87.2003C109.935 87.6683 109.503 88.1543 109.071 88.6043H117.315ZM131.247 98.3243H123.795V99.5483H131.247V98.3243ZM123.795 101.726H131.247V100.502H123.795V101.726ZM122.481 103.274V97.3703H132.597V103.22H131.247V102.68H123.795V103.274H122.481ZM130.023 95.5343L129.123 95.2103C129.447 94.6163 129.915 93.6623 130.113 93.0503L131.247 93.4103C130.851 94.1843 130.401 94.9943 130.023 95.5343ZM123.669 93.4283L124.623 93.1223C125.091 93.7523 125.541 94.5803 125.703 95.1563L124.677 95.5343C124.533 94.9583 124.119 94.0943 123.669 93.4283ZM122.589 92.9243V95.6063H126.837V92.9243H122.589ZM132.255 95.6063V92.9243H127.971V95.6063H132.255ZM121.437 96.5243V91.9883H133.461V96.5243H121.437ZM125.199 90.1343H129.897C129.033 89.5943 128.223 88.9823 127.539 88.3343C126.855 89.0003 126.063 89.6123 125.199 90.1343ZM127.341 86.8043L128.511 87.2363C128.421 87.3443 128.349 87.4703 128.259 87.5783C129.951 89.2163 133.065 90.6743 135.873 91.3223C135.585 91.5743 135.225 92.0423 135.027 92.3663C133.569 91.9523 132.021 91.3403 130.617 90.5483V91.1063H124.371V90.6023C123.003 91.3763 121.473 91.9883 119.961 92.4563C119.817 92.2043 119.439 91.6823 119.205 91.4303C122.463 90.5663 125.649 88.9823 127.341 86.8043ZM153.297 93.3203H147.213C146.349 93.9503 145.449 94.5803 144.531 95.1383H151.605V96.2183H144.009C143.739 96.8123 143.487 97.4423 143.217 98.0003H150.759C150.759 98.0003 150.723 98.4143 150.669 98.5943C150.291 101.06 149.913 102.194 149.337 102.68C148.923 103.04 148.509 103.13 147.789 103.166C147.177 103.184 145.935 103.166 144.621 103.094C144.585 102.698 144.423 102.194 144.171 101.834C145.503 101.96 146.925 101.996 147.429 101.996C147.861 101.996 148.095 101.978 148.311 101.834C148.671 101.564 148.977 100.754 149.229 99.1163H141.273C141.723 98.3423 142.209 97.2443 142.641 96.2363C141.075 97.0823 139.473 97.8203 137.853 98.4683C137.745 98.1623 137.439 97.5503 137.241 97.2623C139.995 96.2903 142.713 94.9403 145.161 93.3203H137.781V92.1683H143.955V90.1163H139.365V89.0003H143.955V86.8763H145.269V89.0003H149.157V90.1163H145.269V92.1683H146.781C148.563 90.8363 150.147 89.3423 151.443 87.7043L152.487 88.3163C151.371 89.6843 150.093 90.9983 148.653 92.1683H153.297V93.3203Z" fill="#1C276D"/>
<path d="M75.418 19.8481L79.482 10.1185L75.418 -0.000119828L123.582 -0.000119828L120.534 10.1185L123.582 19.8481L75.418 19.8481Z" fill="#FFDE67"/>
<defs>
<filter id="filter0_d_357_114" x="0" y="9.92432" width="207" height="171" filterUnits="userSpaceOnUse" color-interpolation-filters="sRGB">
<feFlood flood-opacity="0" result="BackgroundImageFix"/>
<feColorMatrix in="SourceAlpha" type="matrix" values="0 0 0 0 0 0 0 0 0 0 0 0 0 0 0 0 0 0 127 0" result="hardAlpha"/>
<feOffset dx="4" dy="4"/>
<feGaussianBlur stdDeviation="2"/>
<feComposite in2="hardAlpha" operator="out"/>
<feColorMatrix type="matrix" values="0 0 0 0 0.151771 0 0 0 0 0.420893 0 0 0 0 0.775 0 0 0 0.25 0"/>
<feBlend mode="normal" in2="BackgroundImageFix" result="effect1_dropShadow_357_114"/>
<feBlend mode="normal" in="SourceGraphic" in2="effect1_dropShadow_357_114" result="shape"/>
</filter>
</defs>
</svg>
