<svg width="87" height="84" viewBox="0 0 87 84" fill="none" xmlns="http://www.w3.org/2000/svg">
<path fill-rule="evenodd" clip-rule="evenodd" d="M38.2247 5.84858C18.0731 9.13608 4.00766 27.7861 6.78629 47.5804C9.57209 67.4258 28.2342 80.9062 48.4692 77.6898C68.7042 74.4735 82.8496 55.7782 80.0638 35.9329C80.0602 35.9071 80.0565 35.8814 80.0529 35.8557L43.258 41.7043L38.2247 5.84858Z" fill="#FFDE67"/>
<ellipse cx="3.05867" cy="3.01229" rx="3.05867" ry="3.01229" transform="matrix(0.999398 0.0180925 -0.04289 0.999532 16.5439 28.2297)" fill="#1C276D"/>
<ellipse cx="3.05867" cy="3.01229" rx="3.05867" ry="3.01229" transform="matrix(0.999398 0.0180925 -0.04289 0.999532 26.7334 28.414)" fill="#1C276D"/>
<path d="M19.9365 39.2916C21.1517 41.0079 24.5554 43.3396 28.4494 38.9365" stroke="#1C276D"/>
<path d="M16.8701 41.2529C18.0618 41.3589 20.3393 40.7755 19.9161 37.5941" stroke="#1C276D"/>
<path d="M28.9365 37.1445C28.3384 38.1816 27.9284 40.4584 31.0732 41.2694" stroke="#1C276D"/>
<path d="M78.3742 42.4191C78.3742 62.2383 62.3075 78.3049 42.4883 78.3049C22.6692 78.3049 6.60254 62.2383 6.60254 42.4191C6.60254 22.5999 22.6692 6.53332 42.4883 6.53332C62.3075 6.53332 78.3742 22.5999 78.3742 42.4191Z" stroke="#4395E6" stroke-width="4"/>
</svg>
