<svg width="87" height="84" viewBox="0 0 87 84" fill="none" xmlns="http://www.w3.org/2000/svg">
<path fill-rule="evenodd" clip-rule="evenodd" d="M38.2246 5.84858C18.073 9.13608 4.00754 27.7861 6.78617 47.5804C9.57198 67.4258 28.234 80.9062 48.4691 77.6898C68.7041 74.4735 82.8495 55.7782 80.0637 35.9329C80.0601 35.9071 80.0564 35.8814 80.0528 35.8557L43.2579 41.7043L38.2246 5.84858Z" fill="#FFDE67"/>
<ellipse cx="3.05867" cy="3.01229" rx="3.05867" ry="3.01229" transform="matrix(0.999398 0.0180925 -0.04289 0.999532 16.5441 28.2295)" fill="#1C276D"/>
<ellipse cx="3.05867" cy="3.01229" rx="3.05867" ry="3.01229" transform="matrix(0.999398 0.0180925 -0.04289 0.999532 26.7332 28.4136)" fill="#1C276D"/>
<path d="M19.9366 39.2915C21.1518 41.0078 24.5555 43.3395 28.4495 38.9364" stroke="#1C276D"/>
<path d="M16.8704 41.2529C18.0621 41.3589 20.3396 40.7755 19.9164 37.5941" stroke="#1C276D"/>
<path d="M28.9364 37.1445C28.3383 38.1816 27.9283 40.4584 31.0731 41.2694" stroke="#1C276D"/>
<path d="M78.374 42.419C78.374 62.2382 62.3073 78.3048 42.4882 78.3048C22.669 78.3048 6.60236 62.2382 6.60236 42.419C6.60236 22.5998 22.669 6.5332 42.4882 6.5332C62.3073 6.5332 78.374 22.5998 78.374 42.419Z" stroke="#4395E6" stroke-width="4"/>
</svg>
