<svg width="103" height="650" viewBox="0 0 103 650" fill="none" xmlns="http://www.w3.org/2000/svg">
<rect width="103" height="650" rx="20" fill="#EFF5FF"/>
<path d="M21.449 40.8041V41.8681H24.179V40.8041H21.449ZM21.449 39.0121V40.0621H24.179V39.0121H21.449ZM20.511 38.2561H25.159V42.6521H20.511V38.2561ZM19.671 43.6881H25.985V44.5001H19.671V43.6881ZM25.901 38.3541H32.285V39.1381H25.901V38.3541ZM22.471 43.9401H23.367V49.2741L22.471 48.7141V43.9401ZM22.947 46.0121H25.747V46.8101H22.947V46.0121ZM28.673 38.5501L29.667 38.7461C29.401 39.4601 29.121 40.2581 28.869 40.7761L28.085 40.5941C28.309 40.0201 28.547 39.1521 28.673 38.5501ZM27.399 42.7921V43.8421H30.745V42.7921H27.399ZM27.399 44.5701V45.6481H30.745V44.5701H27.399ZM27.399 41.0001V42.0361H30.745V41.0001H27.399ZM26.447 40.2301H31.725V46.4181H26.447V40.2301ZM27.609 46.6701L28.505 46.9361C27.889 47.7201 26.867 48.5181 25.999 48.9941C25.845 48.8401 25.495 48.5041 25.299 48.3501C26.167 47.9441 27.077 47.3141 27.609 46.6701ZM20.651 45.2701H21.533C21.449 47.2861 21.169 49.3861 20.175 50.5761C20.035 50.3661 19.727 50.0581 19.503 49.9041C20.357 48.8821 20.581 46.9921 20.651 45.2701ZM21.309 46.6421C22.303 49.0501 24.487 49.3581 27.637 49.3581C28.267 49.3581 31.739 49.3581 32.565 49.3301C32.411 49.5541 32.243 49.9601 32.187 50.2401H27.637C24.067 50.2401 21.813 49.7781 20.651 46.8801L21.309 46.6421ZM29.569 47.0481L30.283 46.6421C31.095 47.1321 32.019 47.9161 32.481 48.4481L31.711 48.9381C31.263 48.3781 30.325 47.5661 29.569 47.0481ZM37.171 39.0681V41.1681H39.579V39.0681H37.171ZM36.373 38.2701H40.419V41.9661H36.373V38.2701ZM35.701 43.0721H40.755V43.9961H35.701V43.0721ZM37.017 43.4641H37.927C37.759 44.4021 37.507 45.5501 37.311 46.2781H36.387C36.611 45.5081 36.863 44.3601 37.017 43.4641ZM37.115 45.4241H39.649V46.2781H36.891L37.115 45.4241ZM39.285 45.4241H40.209C40.209 45.4241 40.195 45.7041 40.181 45.8441C39.971 48.5741 39.789 49.6241 39.411 50.0161C39.187 50.2681 38.977 50.3521 38.599 50.3801C38.319 50.4081 37.759 50.4081 37.199 50.3661C37.185 50.1001 37.101 49.7221 36.947 49.4841C37.493 49.5261 38.011 49.5401 38.221 49.5401C38.431 49.5401 38.557 49.5121 38.655 49.4001C38.921 49.1341 39.103 48.1541 39.285 45.5781V45.4241ZM44.605 38.6201H47.965V39.4881H44.605V38.6201ZM41.847 40.4401H47.979V41.2941H41.847V40.4401ZM41.371 40.4401H42.295V44.0101C42.295 45.9561 42.113 48.7001 40.867 50.5621C40.713 50.3801 40.321 50.1001 40.097 49.9881C41.245 48.2381 41.371 45.8021 41.371 44.0101V40.4401ZM42.589 42.6941L46.803 42.2741L46.887 43.0161L42.687 43.4501L42.589 42.6941ZM47.699 40.4401H47.839L48.007 40.3981L48.651 40.5661C48.483 41.3921 48.245 42.3721 48.063 42.9881L47.265 42.7921C47.419 42.2181 47.601 41.3081 47.699 40.5661V40.4401ZM43.415 45.7601H44.311C44.227 48.0141 43.863 49.5961 42.337 50.5341C42.225 50.3101 41.959 49.9881 41.749 49.8341C43.065 49.0641 43.331 47.7061 43.415 45.7601ZM45.501 45.7601H46.397V49.0081C46.397 49.1061 46.411 49.2041 46.509 49.2321C46.565 49.2881 46.677 49.3021 46.803 49.3021C46.915 49.3021 47.125 49.3021 47.279 49.3021C47.419 49.3021 47.587 49.2881 47.657 49.2321C47.727 49.1901 47.811 49.0781 47.839 48.9381C47.867 48.7141 47.895 48.1681 47.881 47.5241C48.063 47.6921 48.399 47.8881 48.665 47.9581C48.651 48.6161 48.595 49.3161 48.525 49.5681C48.441 49.8201 48.301 49.9881 48.105 50.1001C47.923 50.1841 47.615 50.2401 47.363 50.2401C47.181 50.2401 46.747 50.2401 46.607 50.2401C46.299 50.2401 45.977 50.1841 45.781 50.0161C45.557 49.8341 45.501 49.6241 45.501 48.9941V45.7601ZM44.129 37.6541H45.137V40.8881H44.129V37.6541ZM44.073 41.3781H44.983V43.7581C44.983 44.1081 45.025 44.2341 45.319 44.2341C45.543 44.2341 46.579 44.2341 46.817 44.2341C47.069 44.2341 47.489 44.2201 47.671 44.1641C47.699 44.4301 47.727 44.7241 47.769 44.9481C47.573 45.0181 47.209 45.0321 46.859 45.0321C46.579 45.0321 45.389 45.0321 45.165 45.0321C44.269 45.0321 44.073 44.6401 44.073 43.7301V41.3781ZM52.011 46.8801H64.415V47.7341H52.011V46.8801ZM55.581 38.9421H64.303V39.7121H55.581V38.9421ZM60.397 46.1241H61.419V49.3581C61.419 49.9041 61.307 50.1701 60.845 50.3241C60.411 50.4781 59.697 50.4781 58.535 50.4781C58.493 50.1981 58.325 49.8341 58.185 49.5681C59.081 49.5961 59.879 49.5821 60.117 49.5681C60.327 49.5681 60.397 49.5121 60.397 49.3301V46.1241ZM54.615 48.3081L55.343 47.7341C56.057 48.2241 56.897 48.9661 57.289 49.4841L56.505 50.1281C56.141 49.6101 55.329 48.8261 54.615 48.3081ZM57.275 37.8781L58.129 37.6261C58.437 37.9901 58.759 38.5221 58.899 38.8861L58.003 39.1801C57.877 38.8161 57.569 38.2841 57.275 37.8781ZM57.415 42.1761V42.8201H62.273V42.1761H57.415ZM57.415 43.3801V44.0381H62.273V43.3801H57.415ZM57.415 40.9861V41.6161H62.273V40.9861H57.415ZM56.519 40.4121H63.211V44.6121H56.519V40.4121ZM59.403 39.2081L60.453 39.3201C60.215 39.8521 59.963 40.3561 59.739 40.7201L58.899 40.5801C59.081 40.1741 59.305 39.5861 59.403 39.2081ZM61.713 37.6681L62.693 37.8781C62.371 38.4241 61.993 38.9561 61.699 39.3201L60.859 39.1101C61.153 38.7041 61.517 38.0741 61.713 37.6681ZM52.921 37.9061L53.789 37.6821C54.153 38.1021 54.531 38.6761 54.727 39.0541L53.831 39.3341C53.635 38.9421 53.243 38.3401 52.921 37.9061ZM52.193 39.5721H54.993V40.4261H52.193V39.5721ZM54.783 43.5761C55.441 44.9901 56.757 45.1721 59.263 45.1721C60.929 45.1721 63.169 45.1161 64.723 44.9761C64.569 45.1861 64.457 45.6201 64.401 45.9001C62.987 45.9701 60.971 46.0121 59.277 46.0121C56.323 46.0121 54.993 45.7181 54.181 43.8841L54.783 43.5761ZM54.825 41.8681H55.147L55.315 41.8401L55.707 42.1061C55.133 44.0661 53.929 45.5081 52.585 46.3061C52.487 46.0961 52.207 45.7181 52.025 45.5641C53.271 44.8781 54.363 43.6041 54.825 42.0361V41.8681ZM52.473 42.9321V42.1201L52.977 41.8681H55.077V42.7221H53.285C52.949 42.7221 52.571 42.8201 52.473 42.9321ZM52.473 42.9181C52.403 42.6941 52.207 42.2461 52.109 42.0501C52.277 41.9941 52.501 41.9101 52.767 41.6861C53.145 41.3501 54.335 40.1601 54.741 39.6421V39.6001L55.063 39.4741L55.693 39.8241C55.077 40.5101 53.943 41.6581 53.187 42.3161C53.187 42.3161 52.473 42.6661 52.473 42.9181ZM71.037 45.5781V46.2501H77.589V45.5781H71.037ZM71.037 46.8661V47.5521H77.589V46.8661H71.037ZM71.037 44.3041V44.9621H77.589V44.3041H71.037ZM70.043 43.6601H78.625V48.1821H70.043V43.6601ZM75.167 47.8041H76.203V49.1761C76.203 49.4841 76.315 49.5261 76.959 49.5261C77.253 49.5261 78.765 49.5261 79.185 49.5261C79.703 49.5261 79.801 49.3861 79.843 48.2381C80.067 48.3781 80.459 48.5181 80.739 48.5741C80.627 50.0161 80.319 50.3661 79.283 50.3661C78.989 50.3661 77.141 50.3661 76.875 50.3661C75.517 50.3661 75.167 50.1281 75.167 49.1761V47.8041ZM72.185 47.8461H73.221C72.815 49.5121 71.667 50.1981 68.391 50.5341C68.321 50.3101 68.083 49.9181 67.915 49.7221C70.897 49.4981 71.849 49.0361 72.185 47.8461ZM75.699 39.7541H79.871V40.4261H75.699V39.7541ZM75.573 38.4801H80.571V39.2081H75.573V38.4801ZM70.967 38.4241H71.821V39.7401H70.967V38.4241ZM70.967 41.2381H71.821V42.5821H70.967V41.2381ZM69.133 39.5021H73.781V41.5881H69.133V40.9441H72.871V40.1601H69.133V39.5021ZM78.667 41.5601V42.5821H79.563V41.5601H78.667ZM77.155 41.5601V42.5821H78.051V41.5601H77.155ZM75.685 41.5601V42.5821H76.539V41.5601H75.685ZM74.929 40.9721H80.347V43.1701H74.929V40.9721ZM75.643 37.6681L76.581 37.8081C76.217 38.8021 75.643 39.8101 74.677 40.6361C74.509 40.4261 74.187 40.1461 73.963 40.0341C74.831 39.3481 75.363 38.4521 75.643 37.6681ZM74.173 38.1301V38.8161H69.497V42.4001H74.285V43.0721H68.573V38.1301H74.173Z" fill="#1C276D"/>
<rect x="17.1611" y="85.9424" width="22.042" height="22.042" rx="11.021" fill="#FFDE67"/>
<path d="M24.317 101.942V100.878H26.599V93.2344H24.765V92.4084C25.689 92.2544 26.347 92.0164 26.893 91.6804H27.873V100.878H29.945V101.942H24.317ZM34.8826 102.138C34.3786 102.138 33.9726 101.732 33.9726 101.158C33.9726 100.57 34.3786 100.178 34.8826 100.178C35.4006 100.178 35.8206 100.57 35.8206 101.158C35.8206 101.732 35.4006 102.138 34.8826 102.138ZM23.701 126.942V126.2C26.921 123.386 28.391 121.328 28.391 119.578C28.391 118.402 27.789 117.534 26.515 117.534C25.675 117.534 24.947 118.052 24.373 118.724L23.631 118.01C24.471 117.1 25.367 116.498 26.669 116.498C28.503 116.498 29.651 117.688 29.651 119.522C29.651 121.58 28.041 123.666 25.619 125.948C26.165 125.892 26.781 125.85 27.299 125.85H30.141V126.942H23.701ZM34.8826 127.138C34.3786 127.138 33.9726 126.732 33.9726 126.158C33.9726 125.57 34.3786 125.178 34.8826 125.178C35.4006 125.178 35.8206 125.57 35.8206 126.158C35.8206 126.732 35.4006 127.138 34.8826 127.138ZM26.767 152.138C25.157 152.138 24.163 151.466 23.491 150.724L24.135 149.884C24.737 150.514 25.507 151.074 26.683 151.074C27.901 151.074 28.769 150.332 28.769 149.156C28.769 147.924 27.943 147.112 25.577 147.112V146.118C27.691 146.118 28.405 145.278 28.405 144.158C28.405 143.178 27.747 142.534 26.683 142.534C25.857 142.534 25.129 142.954 24.555 143.542L23.869 142.716C24.639 142.016 25.549 141.498 26.725 141.498C28.447 141.498 29.707 142.436 29.707 144.074C29.707 145.32 28.979 146.146 27.887 146.538V146.594C29.091 146.888 30.071 147.798 30.071 149.212C30.071 151.032 28.601 152.138 26.767 152.138ZM34.8826 152.138C34.3786 152.138 33.9726 151.732 33.9726 151.158C33.9726 150.57 34.3786 150.178 34.8826 150.178C35.4006 150.178 35.8206 150.57 35.8206 151.158C35.8206 151.732 35.4006 152.138 34.8826 152.138ZM27.831 176.942V169.956C27.831 169.438 27.873 168.612 27.915 168.08H27.845C27.593 168.584 27.313 169.102 27.033 169.606L24.695 173.106H30.407V174.114H23.351V173.274L27.621 166.68H29.035V176.942H27.831ZM34.8826 177.138C34.3786 177.138 33.9726 176.732 33.9726 176.158C33.9726 175.57 34.3786 175.178 34.8826 175.178C35.4006 175.178 35.8206 175.57 35.8206 176.158C35.8206 176.732 35.4006 177.138 34.8826 177.138ZM26.739 202.138C25.143 202.138 24.163 201.466 23.463 200.766L24.107 199.926C24.681 200.528 25.437 201.074 26.613 201.074C27.831 201.074 28.797 200.136 28.797 198.652C28.797 197.182 27.957 196.3 26.683 196.3C25.997 196.3 25.563 196.524 24.975 196.916L24.289 196.482L24.611 191.68H29.609V192.772H25.731L25.465 195.74C25.927 195.488 26.389 195.334 27.005 195.334C28.713 195.334 30.099 196.342 30.099 198.61C30.099 200.85 28.461 202.138 26.739 202.138ZM34.8826 202.138C34.3786 202.138 33.9726 201.732 33.9726 201.158C33.9726 200.57 34.3786 200.178 34.8826 200.178C35.4006 200.178 35.8206 200.57 35.8206 201.158C35.8206 201.732 35.4006 202.138 34.8826 202.138ZM27.299 227.138C25.325 227.138 23.855 225.444 23.855 222.056C23.855 218.038 25.661 216.498 27.649 216.498C28.713 216.498 29.497 216.946 30.057 217.548L29.343 218.332C28.951 217.856 28.321 217.562 27.705 217.562C26.263 217.562 25.059 218.696 25.059 222.056C25.059 224.688 25.857 226.13 27.299 226.13C28.279 226.13 29.035 225.192 29.035 223.806C29.035 222.406 28.419 221.524 27.187 221.524C26.529 221.524 25.703 221.916 25.017 222.938L24.975 221.916C25.605 221.09 26.557 220.586 27.383 220.586C29.119 220.586 30.239 221.65 30.239 223.806C30.239 225.794 28.881 227.138 27.299 227.138ZM34.8826 227.138C34.3786 227.138 33.9726 226.732 33.9726 226.158C33.9726 225.57 34.3786 225.178 34.8826 225.178C35.4006 225.178 35.8206 225.57 35.8206 226.158C35.8206 226.732 35.4006 227.138 34.8826 227.138ZM25.843 251.942C26.025 248.064 26.725 245.572 28.741 242.772H23.771V241.68H30.183V242.45C27.775 245.544 27.341 247.938 27.173 251.942H25.843ZM34.8826 252.138C34.3786 252.138 33.9726 251.732 33.9726 251.158C33.9726 250.57 34.3786 250.178 34.8826 250.178C35.4006 250.178 35.8206 250.57 35.8206 251.158C35.8206 251.732 35.4006 252.138 34.8826 252.138ZM26.991 277.138C25.101 277.138 23.715 275.99 23.715 274.408C23.715 273.022 24.667 272.07 25.605 271.566V271.51C24.849 270.992 24.205 270.208 24.205 269.13C24.205 267.576 25.423 266.54 27.033 266.54C28.783 266.54 29.847 267.66 29.847 269.228C29.847 270.32 29.091 271.23 28.475 271.706V271.776C29.371 272.294 30.211 273.078 30.211 274.478C30.211 275.976 28.909 277.138 26.991 277.138ZM27.691 271.384C28.391 270.768 28.755 270.068 28.755 269.298C28.755 268.29 28.111 267.478 27.005 267.478C26.067 267.478 25.381 268.15 25.381 269.13C25.381 270.362 26.487 270.908 27.691 271.384ZM27.019 276.172C28.195 276.172 28.979 275.458 28.979 274.436C28.979 273.064 27.719 272.546 26.277 271.958C25.437 272.49 24.863 273.302 24.863 274.282C24.863 275.374 25.787 276.172 27.019 276.172ZM34.8826 277.138C34.3786 277.138 33.9726 276.732 33.9726 276.158C33.9726 275.57 34.3786 275.178 34.8826 275.178C35.4006 275.178 35.8206 275.57 35.8206 276.158C35.8206 276.732 35.4006 277.138 34.8826 277.138ZM26.361 302.138C25.241 302.138 24.457 301.69 23.883 301.088L24.597 300.276C25.031 300.78 25.661 301.074 26.319 301.074C27.691 301.074 28.881 299.884 28.881 296.37C28.881 293.85 28.083 292.492 26.641 292.492C25.661 292.492 24.905 293.416 24.905 294.83C24.905 296.202 25.521 297.112 26.739 297.112C27.425 297.112 28.223 296.706 28.895 295.684L28.965 296.706C28.321 297.518 27.411 298.05 26.529 298.05C24.807 298.05 23.701 296.958 23.701 294.83C23.701 292.842 25.045 291.498 26.641 291.498C28.615 291.498 30.085 293.108 30.085 296.37C30.085 300.542 28.293 302.138 26.361 302.138ZM34.8826 302.138C34.3786 302.138 33.9726 301.732 33.9726 301.158C33.9726 300.57 34.3786 300.178 34.8826 300.178C35.4006 300.178 35.8206 300.57 35.8206 301.158C35.8206 301.732 35.4006 302.138 34.8826 302.138ZM24.317 326.942V325.878H26.599V318.234H24.765V317.408C25.689 317.254 26.347 317.016 26.893 316.68H27.873V325.878H29.945V326.942H24.317ZM36.8426 327.138C34.8826 327.138 33.6366 325.36 33.6366 321.776C33.6366 318.22 34.8826 316.498 36.8426 316.498C38.7746 316.498 40.0206 318.22 40.0206 321.776C40.0206 325.36 38.7746 327.138 36.8426 327.138ZM36.8426 326.102C38.0046 326.102 38.7886 324.8 38.7886 321.776C38.7886 318.794 38.0046 317.52 36.8426 317.52C35.6666 317.52 34.8686 318.794 34.8686 321.776C34.8686 324.8 35.6666 326.102 36.8426 326.102ZM44.7482 327.138C44.2442 327.138 43.8382 326.732 43.8382 326.158C43.8382 325.57 44.2442 325.178 44.7482 325.178C45.2662 325.178 45.6862 325.57 45.6862 326.158C45.6862 326.732 45.2662 327.138 44.7482 327.138ZM24.317 351.942V350.878H26.599V343.234H24.765V342.408C25.689 342.254 26.347 342.016 26.893 341.68H27.873V350.878H29.945V351.942H24.317ZM34.1826 351.942V350.878H36.4646V343.234H34.6306V342.408C35.5546 342.254 36.2126 342.016 36.7586 341.68H37.7386V350.878H39.8106V351.942H34.1826ZM44.7482 352.138C44.2442 352.138 43.8382 351.732 43.8382 351.158C43.8382 350.57 44.2442 350.178 44.7482 350.178C45.2662 350.178 45.6862 350.57 45.6862 351.158C45.6862 351.732 45.2662 352.138 44.7482 352.138ZM24.317 376.942V375.878H26.599V368.234H24.765V367.408C25.689 367.254 26.347 367.016 26.893 366.68H27.873V375.878H29.945V376.942H24.317ZM33.5666 376.942V376.2C36.7866 373.386 38.2566 371.328 38.2566 369.578C38.2566 368.402 37.6546 367.534 36.3806 367.534C35.5406 367.534 34.8126 368.052 34.2386 368.724L33.4966 368.01C34.3366 367.1 35.2326 366.498 36.5346 366.498C38.3686 366.498 39.5166 367.688 39.5166 369.522C39.5166 371.58 37.9066 373.666 35.4846 375.948C36.0306 375.892 36.6466 375.85 37.1646 375.85H40.0066V376.942H33.5666ZM44.7482 377.138C44.2442 377.138 43.8382 376.732 43.8382 376.158C43.8382 375.57 44.2442 375.178 44.7482 375.178C45.2662 375.178 45.6862 375.57 45.6862 376.158C45.6862 376.732 45.2662 377.138 44.7482 377.138ZM24.317 401.942V400.878H26.599V393.234H24.765V392.408C25.689 392.254 26.347 392.016 26.893 391.68H27.873V400.878H29.945V401.942H24.317ZM36.6326 402.138C35.0226 402.138 34.0286 401.466 33.3566 400.724L34.0006 399.884C34.6026 400.514 35.3726 401.074 36.5486 401.074C37.7666 401.074 38.6346 400.332 38.6346 399.156C38.6346 397.924 37.8086 397.112 35.4426 397.112V396.118C37.5566 396.118 38.2706 395.278 38.2706 394.158C38.2706 393.178 37.6126 392.534 36.5486 392.534C35.7226 392.534 34.9946 392.954 34.4206 393.542L33.7346 392.716C34.5046 392.016 35.4146 391.498 36.5906 391.498C38.3126 391.498 39.5726 392.436 39.5726 394.074C39.5726 395.32 38.8446 396.146 37.7526 396.538V396.594C38.9566 396.888 39.9366 397.798 39.9366 399.212C39.9366 401.032 38.4666 402.138 36.6326 402.138ZM44.7482 402.138C44.2442 402.138 43.8382 401.732 43.8382 401.158C43.8382 400.57 44.2442 400.178 44.7482 400.178C45.2662 400.178 45.6862 400.57 45.6862 401.158C45.6862 401.732 45.2662 402.138 44.7482 402.138ZM24.317 426.942V425.878H26.599V418.234H24.765V417.408C25.689 417.254 26.347 417.016 26.893 416.68H27.873V425.878H29.945V426.942H24.317ZM37.6966 426.942V419.956C37.6966 419.438 37.7386 418.612 37.7806 418.08H37.7106C37.4586 418.584 37.1786 419.102 36.8986 419.606L34.5606 423.106H40.2726V424.114H33.2166V423.274L37.4866 416.68H38.9006V426.942H37.6966ZM44.7482 427.138C44.2442 427.138 43.8382 426.732 43.8382 426.158C43.8382 425.57 44.2442 425.178 44.7482 425.178C45.2662 425.178 45.6862 425.57 45.6862 426.158C45.6862 426.732 45.2662 427.138 44.7482 427.138ZM24.317 451.942V450.878H26.599V443.234H24.765V442.408C25.689 442.254 26.347 442.016 26.893 441.68H27.873V450.878H29.945V451.942H24.317ZM36.6046 452.138C35.0086 452.138 34.0286 451.466 33.3286 450.766L33.9726 449.926C34.5466 450.528 35.3026 451.074 36.4786 451.074C37.6966 451.074 38.6626 450.136 38.6626 448.652C38.6626 447.182 37.8226 446.3 36.5486 446.3C35.8626 446.3 35.4286 446.524 34.8406 446.916L34.1546 446.482L34.4766 441.68H39.4746V442.772H35.5966L35.3306 445.74C35.7926 445.488 36.2546 445.334 36.8706 445.334C38.5786 445.334 39.9646 446.342 39.9646 448.61C39.9646 450.85 38.3266 452.138 36.6046 452.138ZM44.7482 452.138C44.2442 452.138 43.8382 451.732 43.8382 451.158C43.8382 450.57 44.2442 450.178 44.7482 450.178C45.2662 450.178 45.6862 450.57 45.6862 451.158C45.6862 451.732 45.2662 452.138 44.7482 452.138ZM24.317 476.942V475.878H26.599V468.234H24.765V467.408C25.689 467.254 26.347 467.016 26.893 466.68H27.873V475.878H29.945V476.942H24.317ZM37.1646 477.138C35.1906 477.138 33.7206 475.444 33.7206 472.056C33.7206 468.038 35.5266 466.498 37.5146 466.498C38.5786 466.498 39.3626 466.946 39.9226 467.548L39.2086 468.332C38.8166 467.856 38.1866 467.562 37.5706 467.562C36.1286 467.562 34.9246 468.696 34.9246 472.056C34.9246 474.688 35.7226 476.13 37.1646 476.13C38.1446 476.13 38.9006 475.192 38.9006 473.806C38.9006 472.406 38.2846 471.524 37.0526 471.524C36.3946 471.524 35.5686 471.916 34.8826 472.938L34.8406 471.916C35.4706 471.09 36.4226 470.586 37.2486 470.586C38.9846 470.586 40.1046 471.65 40.1046 473.806C40.1046 475.794 38.7466 477.138 37.1646 477.138ZM44.7482 477.138C44.2442 477.138 43.8382 476.732 43.8382 476.158C43.8382 475.57 44.2442 475.178 44.7482 475.178C45.2662 475.178 45.6862 475.57 45.6862 476.158C45.6862 476.732 45.2662 477.138 44.7482 477.138ZM24.317 501.942V500.878H26.599V493.234H24.765V492.408C25.689 492.254 26.347 492.016 26.893 491.68H27.873V500.878H29.945V501.942H24.317ZM35.7086 501.942C35.8906 498.064 36.5906 495.572 38.6066 492.772H33.6366V491.68H40.0486V492.45C37.6406 495.544 37.2066 497.938 37.0386 501.942H35.7086ZM44.7482 502.138C44.2442 502.138 43.8382 501.732 43.8382 501.158C43.8382 500.57 44.2442 500.178 44.7482 500.178C45.2662 500.178 45.6862 500.57 45.6862 501.158C45.6862 501.732 45.2662 502.138 44.7482 502.138ZM24.317 526.942V525.878H26.599V518.234H24.765V517.408C25.689 517.254 26.347 517.016 26.893 516.68H27.873V525.878H29.945V526.942H24.317ZM36.8566 527.138C34.9666 527.138 33.5806 525.99 33.5806 524.408C33.5806 523.022 34.5326 522.07 35.4706 521.566V521.51C34.7146 520.992 34.0706 520.208 34.0706 519.13C34.0706 517.576 35.2886 516.54 36.8986 516.54C38.6486 516.54 39.7126 517.66 39.7126 519.228C39.7126 520.32 38.9566 521.23 38.3406 521.706V521.776C39.2366 522.294 40.0766 523.078 40.0766 524.478C40.0766 525.976 38.7746 527.138 36.8566 527.138ZM37.5566 521.384C38.2566 520.768 38.6206 520.068 38.6206 519.298C38.6206 518.29 37.9766 517.478 36.8706 517.478C35.9326 517.478 35.2466 518.15 35.2466 519.13C35.2466 520.362 36.3526 520.908 37.5566 521.384ZM36.8846 526.172C38.0606 526.172 38.8446 525.458 38.8446 524.436C38.8446 523.064 37.5846 522.546 36.1426 521.958C35.3026 522.49 34.7286 523.302 34.7286 524.282C34.7286 525.374 35.6526 526.172 36.8846 526.172ZM44.7482 527.138C44.2442 527.138 43.8382 526.732 43.8382 526.158C43.8382 525.57 44.2442 525.178 44.7482 525.178C45.2662 525.178 45.6862 525.57 45.6862 526.158C45.6862 526.732 45.2662 527.138 44.7482 527.138ZM24.317 551.942V550.878H26.599V543.234H24.765V542.408C25.689 542.254 26.347 542.016 26.893 541.68H27.873V550.878H29.945V551.942H24.317ZM36.2266 552.138C35.1066 552.138 34.3226 551.69 33.7486 551.088L34.4626 550.276C34.8966 550.78 35.5266 551.074 36.1846 551.074C37.5566 551.074 38.7466 549.884 38.7466 546.37C38.7466 543.85 37.9486 542.492 36.5066 542.492C35.5266 542.492 34.7706 543.416 34.7706 544.83C34.7706 546.202 35.3866 547.112 36.6046 547.112C37.2906 547.112 38.0886 546.706 38.7606 545.684L38.8306 546.706C38.1866 547.518 37.2766 548.05 36.3946 548.05C34.6726 548.05 33.5666 546.958 33.5666 544.83C33.5666 542.842 34.9106 541.498 36.5066 541.498C38.4806 541.498 39.9506 543.108 39.9506 546.37C39.9506 550.542 38.1586 552.138 36.2266 552.138ZM44.7482 552.138C44.2442 552.138 43.8382 551.732 43.8382 551.158C43.8382 550.57 44.2442 550.178 44.7482 550.178C45.2662 550.178 45.6862 550.57 45.6862 551.158C45.6862 551.732 45.2662 552.138 44.7482 552.138ZM23.701 576.942V576.2C26.921 573.386 28.391 571.328 28.391 569.578C28.391 568.402 27.789 567.534 26.515 567.534C25.675 567.534 24.947 568.052 24.373 568.724L23.631 568.01C24.471 567.1 25.367 566.498 26.669 566.498C28.503 566.498 29.651 567.688 29.651 569.522C29.651 571.58 28.041 573.666 25.619 575.948C26.165 575.892 26.781 575.85 27.299 575.85H30.141V576.942H23.701ZM36.8426 577.138C34.8826 577.138 33.6366 575.36 33.6366 571.776C33.6366 568.22 34.8826 566.498 36.8426 566.498C38.7746 566.498 40.0206 568.22 40.0206 571.776C40.0206 575.36 38.7746 577.138 36.8426 577.138ZM36.8426 576.102C38.0046 576.102 38.7886 574.8 38.7886 571.776C38.7886 568.794 38.0046 567.52 36.8426 567.52C35.6666 567.52 34.8686 568.794 34.8686 571.776C34.8686 574.8 35.6666 576.102 36.8426 576.102ZM44.7482 577.138C44.2442 577.138 43.8382 576.732 43.8382 576.158C43.8382 575.57 44.2442 575.178 44.7482 575.178C45.2662 575.178 45.6862 575.57 45.6862 576.158C45.6862 576.732 45.2662 577.138 44.7482 577.138Z" fill="#1C276D"/>
<path d="M61.6072 101.942V101.2C64.8272 98.3864 66.2972 96.3284 66.2972 94.5784C66.2972 93.4024 65.6952 92.5344 64.4212 92.5344C63.5812 92.5344 62.8532 93.0524 62.2792 93.7244L61.5372 93.0104C62.3772 92.1004 63.2732 91.4984 64.5752 91.4984C66.4092 91.4984 67.5572 92.6884 67.5572 94.5224C67.5572 96.5804 65.9472 98.6664 63.5252 100.948C64.0712 100.892 64.6872 100.85 65.2052 100.85H68.0472V101.942H61.6072ZM72.0888 101.942V100.878H74.3708V93.2344H72.5368V92.4084C73.4608 92.2544 74.1188 92.0164 74.6648 91.6804H75.6448V100.878H77.7168V101.942H72.0888ZM82.6545 102.138C82.1505 102.138 81.7445 101.732 81.7445 101.158C81.7445 100.57 82.1505 100.178 82.6545 100.178C83.1725 100.178 83.5925 100.57 83.5925 101.158C83.5925 101.732 83.1725 102.138 82.6545 102.138ZM61.6072 126.942V126.2C64.8272 123.386 66.2972 121.328 66.2972 119.578C66.2972 118.402 65.6952 117.534 64.4212 117.534C63.5812 117.534 62.8532 118.052 62.2792 118.724L61.5372 118.01C62.3772 117.1 63.2732 116.498 64.5752 116.498C66.4092 116.498 67.5572 117.688 67.5572 119.522C67.5572 121.58 65.9472 123.666 63.5252 125.948C64.0712 125.892 64.6872 125.85 65.2052 125.85H68.0472V126.942H61.6072ZM71.4728 126.942V126.2C74.6928 123.386 76.1628 121.328 76.1628 119.578C76.1628 118.402 75.5608 117.534 74.2868 117.534C73.4468 117.534 72.7188 118.052 72.1448 118.724L71.4028 118.01C72.2428 117.1 73.1388 116.498 74.4408 116.498C76.2748 116.498 77.4228 117.688 77.4228 119.522C77.4228 121.58 75.8128 123.666 73.3908 125.948C73.9368 125.892 74.5528 125.85 75.0708 125.85H77.9128V126.942H71.4728ZM82.6545 127.138C82.1505 127.138 81.7445 126.732 81.7445 126.158C81.7445 125.57 82.1505 125.178 82.6545 125.178C83.1725 125.178 83.5925 125.57 83.5925 126.158C83.5925 126.732 83.1725 127.138 82.6545 127.138ZM61.6072 151.942V151.2C64.8272 148.386 66.2972 146.328 66.2972 144.578C66.2972 143.402 65.6952 142.534 64.4212 142.534C63.5812 142.534 62.8532 143.052 62.2792 143.724L61.5372 143.01C62.3772 142.1 63.2732 141.498 64.5752 141.498C66.4092 141.498 67.5572 142.688 67.5572 144.522C67.5572 146.58 65.9472 148.666 63.5252 150.948C64.0712 150.892 64.6872 150.85 65.2052 150.85H68.0472V151.942H61.6072ZM74.5388 152.138C72.9288 152.138 71.9348 151.466 71.2628 150.724L71.9068 149.884C72.5088 150.514 73.2788 151.074 74.4548 151.074C75.6728 151.074 76.5408 150.332 76.5408 149.156C76.5408 147.924 75.7148 147.112 73.3488 147.112V146.118C75.4628 146.118 76.1768 145.278 76.1768 144.158C76.1768 143.178 75.5188 142.534 74.4548 142.534C73.6288 142.534 72.9008 142.954 72.3268 143.542L71.6408 142.716C72.4108 142.016 73.3208 141.498 74.4968 141.498C76.2188 141.498 77.4788 142.436 77.4788 144.074C77.4788 145.32 76.7508 146.146 75.6588 146.538V146.594C76.8628 146.888 77.8428 147.798 77.8428 149.212C77.8428 151.032 76.3728 152.138 74.5388 152.138ZM82.6545 152.138C82.1505 152.138 81.7445 151.732 81.7445 151.158C81.7445 150.57 82.1505 150.178 82.6545 150.178C83.1725 150.178 83.5925 150.57 83.5925 151.158C83.5925 151.732 83.1725 152.138 82.6545 152.138ZM61.6072 176.942V176.2C64.8272 173.386 66.2972 171.328 66.2972 169.578C66.2972 168.402 65.6952 167.534 64.4212 167.534C63.5812 167.534 62.8532 168.052 62.2792 168.724L61.5372 168.01C62.3772 167.1 63.2732 166.498 64.5752 166.498C66.4092 166.498 67.5572 167.688 67.5572 169.522C67.5572 171.58 65.9472 173.666 63.5252 175.948C64.0712 175.892 64.6872 175.85 65.2052 175.85H68.0472V176.942H61.6072ZM75.6028 176.942V169.956C75.6028 169.438 75.6448 168.612 75.6868 168.08H75.6168C75.3648 168.584 75.0848 169.102 74.8048 169.606L72.4668 173.106H78.1788V174.114H71.1228V173.274L75.3928 166.68H76.8068V176.942H75.6028ZM61.6072 201.942V201.2C64.8272 198.386 66.2972 196.328 66.2972 194.578C66.2972 193.402 65.6952 192.534 64.4212 192.534C63.5812 192.534 62.8532 193.052 62.2792 193.724L61.5372 193.01C62.3772 192.1 63.2732 191.498 64.5752 191.498C66.4092 191.498 67.5572 192.688 67.5572 194.522C67.5572 196.58 65.9472 198.666 63.5252 200.948C64.0712 200.892 64.6872 200.85 65.2052 200.85H68.0472V201.942H61.6072ZM74.5108 202.138C72.9148 202.138 71.9348 201.466 71.2348 200.766L71.8788 199.926C72.4528 200.528 73.2088 201.074 74.3848 201.074C75.6028 201.074 76.5688 200.136 76.5688 198.652C76.5688 197.182 75.7288 196.3 74.4548 196.3C73.7688 196.3 73.3348 196.524 72.7468 196.916L72.0608 196.482L72.3828 191.68H77.3808V192.772H73.5028L73.2368 195.74C73.6988 195.488 74.1608 195.334 74.7768 195.334C76.4848 195.334 77.8708 196.342 77.8708 198.61C77.8708 200.85 76.2328 202.138 74.5108 202.138ZM82.6545 202.138C82.1505 202.138 81.7445 201.732 81.7445 201.158C81.7445 200.57 82.1505 200.178 82.6545 200.178C83.1725 200.178 83.5925 200.57 83.5925 201.158C83.5925 201.732 83.1725 202.138 82.6545 202.138ZM61.6072 226.942V226.2C64.8272 223.386 66.2972 221.328 66.2972 219.578C66.2972 218.402 65.6952 217.534 64.4212 217.534C63.5812 217.534 62.8532 218.052 62.2792 218.724L61.5372 218.01C62.3772 217.1 63.2732 216.498 64.5752 216.498C66.4092 216.498 67.5572 217.688 67.5572 219.522C67.5572 221.58 65.9472 223.666 63.5252 225.948C64.0712 225.892 64.6872 225.85 65.2052 225.85H68.0472V226.942H61.6072ZM75.0708 227.138C73.0968 227.138 71.6268 225.444 71.6268 222.056C71.6268 218.038 73.4328 216.498 75.4208 216.498C76.4848 216.498 77.2688 216.946 77.8288 217.548L77.1148 218.332C76.7228 217.856 76.0928 217.562 75.4768 217.562C74.0348 217.562 72.8308 218.696 72.8308 222.056C72.8308 224.688 73.6288 226.13 75.0708 226.13C76.0508 226.13 76.8068 225.192 76.8068 223.806C76.8068 222.406 76.1908 221.524 74.9588 221.524C74.3008 221.524 73.4748 221.916 72.7888 222.938L72.7468 221.916C73.3768 221.09 74.3288 220.586 75.1548 220.586C76.8908 220.586 78.0108 221.65 78.0108 223.806C78.0108 225.794 76.6528 227.138 75.0708 227.138ZM82.6545 227.138C82.1505 227.138 81.7445 226.732 81.7445 226.158C81.7445 225.57 82.1505 225.178 82.6545 225.178C83.1725 225.178 83.5925 225.57 83.5925 226.158C83.5925 226.732 83.1725 227.138 82.6545 227.138ZM61.6072 251.942V251.2C64.8272 248.386 66.2972 246.328 66.2972 244.578C66.2972 243.402 65.6952 242.534 64.4212 242.534C63.5812 242.534 62.8532 243.052 62.2792 243.724L61.5372 243.01C62.3772 242.1 63.2732 241.498 64.5752 241.498C66.4092 241.498 67.5572 242.688 67.5572 244.522C67.5572 246.58 65.9472 248.666 63.5252 250.948C64.0712 250.892 64.6872 250.85 65.2052 250.85H68.0472V251.942H61.6072ZM73.6148 251.942C73.7968 248.064 74.4968 245.572 76.5128 242.772H71.5428V241.68H77.9548V242.45C75.5468 245.544 75.1128 247.938 74.9448 251.942H73.6148ZM82.6545 252.138C82.1505 252.138 81.7445 251.732 81.7445 251.158C81.7445 250.57 82.1505 250.178 82.6545 250.178C83.1725 250.178 83.5925 250.57 83.5925 251.158C83.5925 251.732 83.1725 252.138 82.6545 252.138ZM61.6072 276.942V276.2C64.8272 273.386 66.2972 271.328 66.2972 269.578C66.2972 268.402 65.6952 267.534 64.4212 267.534C63.5812 267.534 62.8532 268.052 62.2792 268.724L61.5372 268.01C62.3772 267.1 63.2732 266.498 64.5752 266.498C66.4092 266.498 67.5572 267.688 67.5572 269.522C67.5572 271.58 65.9472 273.666 63.5252 275.948C64.0712 275.892 64.6872 275.85 65.2052 275.85H68.0472V276.942H61.6072ZM74.7628 277.138C72.8728 277.138 71.4868 275.99 71.4868 274.408C71.4868 273.022 72.4388 272.07 73.3768 271.566V271.51C72.6208 270.992 71.9768 270.208 71.9768 269.13C71.9768 267.576 73.1948 266.54 74.8048 266.54C76.5548 266.54 77.6188 267.66 77.6188 269.228C77.6188 270.32 76.8628 271.23 76.2468 271.706V271.776C77.1428 272.294 77.9828 273.078 77.9828 274.478C77.9828 275.976 76.6808 277.138 74.7628 277.138ZM75.4628 271.384C76.1628 270.768 76.5268 270.068 76.5268 269.298C76.5268 268.29 75.8828 267.478 74.7768 267.478C73.8388 267.478 73.1528 268.15 73.1528 269.13C73.1528 270.362 74.2588 270.908 75.4628 271.384ZM74.7908 276.172C75.9668 276.172 76.7508 275.458 76.7508 274.436C76.7508 273.064 75.4908 272.546 74.0488 271.958C73.2088 272.49 72.6348 273.302 72.6348 274.282C72.6348 275.374 73.5588 276.172 74.7908 276.172ZM82.6545 277.138C82.1505 277.138 81.7445 276.732 81.7445 276.158C81.7445 275.57 82.1505 275.178 82.6545 275.178C83.1725 275.178 83.5925 275.57 83.5925 276.158C83.5925 276.732 83.1725 277.138 82.6545 277.138ZM61.6072 301.942V301.2C64.8272 298.386 66.2972 296.328 66.2972 294.578C66.2972 293.402 65.6952 292.534 64.4212 292.534C63.5812 292.534 62.8532 293.052 62.2792 293.724L61.5372 293.01C62.3772 292.1 63.2732 291.498 64.5752 291.498C66.4092 291.498 67.5572 292.688 67.5572 294.522C67.5572 296.58 65.9472 298.666 63.5252 300.948C64.0712 300.892 64.6872 300.85 65.2052 300.85H68.0472V301.942H61.6072ZM74.1328 302.138C73.0128 302.138 72.2288 301.69 71.6548 301.088L72.3688 300.276C72.8028 300.78 73.4328 301.074 74.0908 301.074C75.4628 301.074 76.6528 299.884 76.6528 296.37C76.6528 293.85 75.8548 292.492 74.4128 292.492C73.4328 292.492 72.6768 293.416 72.6768 294.83C72.6768 296.202 73.2928 297.112 74.5108 297.112C75.1968 297.112 75.9948 296.706 76.6668 295.684L76.7368 296.706C76.0928 297.518 75.1828 298.05 74.3008 298.05C72.5788 298.05 71.4728 296.958 71.4728 294.83C71.4728 292.842 72.8168 291.498 74.4128 291.498C76.3868 291.498 77.8568 293.108 77.8568 296.37C77.8568 300.542 76.0648 302.138 74.1328 302.138ZM82.6545 302.138C82.1505 302.138 81.7445 301.732 81.7445 301.158C81.7445 300.57 82.1505 300.178 82.6545 300.178C83.1725 300.178 83.5925 300.57 83.5925 301.158C83.5925 301.732 83.1725 302.138 82.6545 302.138ZM64.6732 327.138C63.0632 327.138 62.0692 326.466 61.3972 325.724L62.0412 324.884C62.6432 325.514 63.4132 326.074 64.5892 326.074C65.8072 326.074 66.6752 325.332 66.6752 324.156C66.6752 322.924 65.8492 322.112 63.4832 322.112V321.118C65.5972 321.118 66.3112 320.278 66.3112 319.158C66.3112 318.178 65.6532 317.534 64.5892 317.534C63.7632 317.534 63.0352 317.954 62.4612 318.542L61.7752 317.716C62.5452 317.016 63.4552 316.498 64.6312 316.498C66.3532 316.498 67.6132 317.436 67.6132 319.074C67.6132 320.32 66.8852 321.146 65.7932 321.538V321.594C66.9972 321.888 67.9772 322.798 67.9772 324.212C67.9772 326.032 66.5072 327.138 64.6732 327.138ZM74.7488 327.138C72.7888 327.138 71.5428 325.36 71.5428 321.776C71.5428 318.22 72.7888 316.498 74.7488 316.498C76.6808 316.498 77.9268 318.22 77.9268 321.776C77.9268 325.36 76.6808 327.138 74.7488 327.138ZM74.7488 326.102C75.9108 326.102 76.6948 324.8 76.6948 321.776C76.6948 318.794 75.9108 317.52 74.7488 317.52C73.5728 317.52 72.7748 318.794 72.7748 321.776C72.7748 324.8 73.5728 326.102 74.7488 326.102ZM82.6545 327.138C82.1505 327.138 81.7445 326.732 81.7445 326.158C81.7445 325.57 82.1505 325.178 82.6545 325.178C83.1725 325.178 83.5925 325.57 83.5925 326.158C83.5925 326.732 83.1725 327.138 82.6545 327.138ZM64.6732 352.138C63.0632 352.138 62.0692 351.466 61.3972 350.724L62.0412 349.884C62.6432 350.514 63.4132 351.074 64.5892 351.074C65.8072 351.074 66.6752 350.332 66.6752 349.156C66.6752 347.924 65.8492 347.112 63.4832 347.112V346.118C65.5972 346.118 66.3112 345.278 66.3112 344.158C66.3112 343.178 65.6532 342.534 64.5892 342.534C63.7632 342.534 63.0352 342.954 62.4612 343.542L61.7752 342.716C62.5452 342.016 63.4552 341.498 64.6312 341.498C66.3532 341.498 67.6132 342.436 67.6132 344.074C67.6132 345.32 66.8852 346.146 65.7932 346.538V346.594C66.9972 346.888 67.9772 347.798 67.9772 349.212C67.9772 351.032 66.5072 352.138 64.6732 352.138ZM72.0888 351.942V350.878H74.3708V343.234H72.5368V342.408C73.4608 342.254 74.1188 342.016 74.6648 341.68H75.6448V350.878H77.7168V351.942H72.0888ZM82.6545 352.138C82.1505 352.138 81.7445 351.732 81.7445 351.158C81.7445 350.57 82.1505 350.178 82.6545 350.178C83.1725 350.178 83.5925 350.57 83.5925 351.158C83.5925 351.732 83.1725 352.138 82.6545 352.138ZM64.6732 377.138C63.0632 377.138 62.0692 376.466 61.3972 375.724L62.0412 374.884C62.6432 375.514 63.4132 376.074 64.5892 376.074C65.8072 376.074 66.6752 375.332 66.6752 374.156C66.6752 372.924 65.8492 372.112 63.4832 372.112V371.118C65.5972 371.118 66.3112 370.278 66.3112 369.158C66.3112 368.178 65.6532 367.534 64.5892 367.534C63.7632 367.534 63.0352 367.954 62.4612 368.542L61.7752 367.716C62.5452 367.016 63.4552 366.498 64.6312 366.498C66.3532 366.498 67.6132 367.436 67.6132 369.074C67.6132 370.32 66.8852 371.146 65.7932 371.538V371.594C66.9972 371.888 67.9772 372.798 67.9772 374.212C67.9772 376.032 66.5072 377.138 64.6732 377.138ZM71.4728 376.942V376.2C74.6928 373.386 76.1628 371.328 76.1628 369.578C76.1628 368.402 75.5608 367.534 74.2868 367.534C73.4468 367.534 72.7188 368.052 72.1448 368.724L71.4028 368.01C72.2428 367.1 73.1388 366.498 74.4408 366.498C76.2748 366.498 77.4228 367.688 77.4228 369.522C77.4228 371.58 75.8128 373.666 73.3908 375.948C73.9368 375.892 74.5528 375.85 75.0708 375.85H77.9128V376.942H71.4728ZM82.6545 377.138C82.1505 377.138 81.7445 376.732 81.7445 376.158C81.7445 375.57 82.1505 375.178 82.6545 375.178C83.1725 375.178 83.5925 375.57 83.5925 376.158C83.5925 376.732 83.1725 377.138 82.6545 377.138ZM64.6732 402.138C63.0632 402.138 62.0692 401.466 61.3972 400.724L62.0412 399.884C62.6432 400.514 63.4132 401.074 64.5892 401.074C65.8072 401.074 66.6752 400.332 66.6752 399.156C66.6752 397.924 65.8492 397.112 63.4832 397.112V396.118C65.5972 396.118 66.3112 395.278 66.3112 394.158C66.3112 393.178 65.6532 392.534 64.5892 392.534C63.7632 392.534 63.0352 392.954 62.4612 393.542L61.7752 392.716C62.5452 392.016 63.4552 391.498 64.6312 391.498C66.3532 391.498 67.6132 392.436 67.6132 394.074C67.6132 395.32 66.8852 396.146 65.7932 396.538V396.594C66.9972 396.888 67.9772 397.798 67.9772 399.212C67.9772 401.032 66.5072 402.138 64.6732 402.138ZM74.5388 402.138C72.9288 402.138 71.9348 401.466 71.2628 400.724L71.9068 399.884C72.5088 400.514 73.2788 401.074 74.4548 401.074C75.6728 401.074 76.5408 400.332 76.5408 399.156C76.5408 397.924 75.7148 397.112 73.3488 397.112V396.118C75.4628 396.118 76.1768 395.278 76.1768 394.158C76.1768 393.178 75.5188 392.534 74.4548 392.534C73.6288 392.534 72.9008 392.954 72.3268 393.542L71.6408 392.716C72.4108 392.016 73.3208 391.498 74.4968 391.498C76.2188 391.498 77.4788 392.436 77.4788 394.074C77.4788 395.32 76.7508 396.146 75.6588 396.538V396.594C76.8628 396.888 77.8428 397.798 77.8428 399.212C77.8428 401.032 76.3728 402.138 74.5388 402.138ZM82.6545 402.138C82.1505 402.138 81.7445 401.732 81.7445 401.158C81.7445 400.57 82.1505 400.178 82.6545 400.178C83.1725 400.178 83.5925 400.57 83.5925 401.158C83.5925 401.732 83.1725 402.138 82.6545 402.138ZM64.6732 427.138C63.0632 427.138 62.0692 426.466 61.3972 425.724L62.0412 424.884C62.6432 425.514 63.4132 426.074 64.5892 426.074C65.8072 426.074 66.6752 425.332 66.6752 424.156C66.6752 422.924 65.8492 422.112 63.4832 422.112V421.118C65.5972 421.118 66.3112 420.278 66.3112 419.158C66.3112 418.178 65.6532 417.534 64.5892 417.534C63.7632 417.534 63.0352 417.954 62.4612 418.542L61.7752 417.716C62.5452 417.016 63.4552 416.498 64.6312 416.498C66.3532 416.498 67.6132 417.436 67.6132 419.074C67.6132 420.32 66.8852 421.146 65.7932 421.538V421.594C66.9972 421.888 67.9772 422.798 67.9772 424.212C67.9772 426.032 66.5072 427.138 64.6732 427.138ZM75.6028 426.942V419.956C75.6028 419.438 75.6448 418.612 75.6868 418.08H75.6168C75.3648 418.584 75.0848 419.102 74.8048 419.606L72.4668 423.106H78.1788V424.114H71.1228V423.274L75.3928 416.68H76.8068V426.942H75.6028ZM82.6545 427.138C82.1505 427.138 81.7445 426.732 81.7445 426.158C81.7445 425.57 82.1505 425.178 82.6545 425.178C83.1725 425.178 83.5925 425.57 83.5925 426.158C83.5925 426.732 83.1725 427.138 82.6545 427.138ZM64.6732 452.138C63.0632 452.138 62.0692 451.466 61.3972 450.724L62.0412 449.884C62.6432 450.514 63.4132 451.074 64.5892 451.074C65.8072 451.074 66.6752 450.332 66.6752 449.156C66.6752 447.924 65.8492 447.112 63.4832 447.112V446.118C65.5972 446.118 66.3112 445.278 66.3112 444.158C66.3112 443.178 65.6532 442.534 64.5892 442.534C63.7632 442.534 63.0352 442.954 62.4612 443.542L61.7752 442.716C62.5452 442.016 63.4552 441.498 64.6312 441.498C66.3532 441.498 67.6132 442.436 67.6132 444.074C67.6132 445.32 66.8852 446.146 65.7932 446.538V446.594C66.9972 446.888 67.9772 447.798 67.9772 449.212C67.9772 451.032 66.5072 452.138 64.6732 452.138ZM74.5108 452.138C72.9148 452.138 71.9348 451.466 71.2348 450.766L71.8788 449.926C72.4528 450.528 73.2088 451.074 74.3848 451.074C75.6028 451.074 76.5688 450.136 76.5688 448.652C76.5688 447.182 75.7288 446.3 74.4548 446.3C73.7688 446.3 73.3348 446.524 72.7468 446.916L72.0608 446.482L72.3828 441.68H77.3808V442.772H73.5028L73.2368 445.74C73.6988 445.488 74.1608 445.334 74.7768 445.334C76.4848 445.334 77.8708 446.342 77.8708 448.61C77.8708 450.85 76.2328 452.138 74.5108 452.138ZM82.6545 452.138C82.1505 452.138 81.7445 451.732 81.7445 451.158C81.7445 450.57 82.1505 450.178 82.6545 450.178C83.1725 450.178 83.5925 450.57 83.5925 451.158C83.5925 451.732 83.1725 452.138 82.6545 452.138ZM64.6732 477.138C63.0632 477.138 62.0692 476.466 61.3972 475.724L62.0412 474.884C62.6432 475.514 63.4132 476.074 64.5892 476.074C65.8072 476.074 66.6752 475.332 66.6752 474.156C66.6752 472.924 65.8492 472.112 63.4832 472.112V471.118C65.5972 471.118 66.3112 470.278 66.3112 469.158C66.3112 468.178 65.6532 467.534 64.5892 467.534C63.7632 467.534 63.0352 467.954 62.4612 468.542L61.7752 467.716C62.5452 467.016 63.4552 466.498 64.6312 466.498C66.3532 466.498 67.6132 467.436 67.6132 469.074C67.6132 470.32 66.8852 471.146 65.7932 471.538V471.594C66.9972 471.888 67.9772 472.798 67.9772 474.212C67.9772 476.032 66.5072 477.138 64.6732 477.138ZM75.0708 477.138C73.0968 477.138 71.6268 475.444 71.6268 472.056C71.6268 468.038 73.4328 466.498 75.4208 466.498C76.4848 466.498 77.2688 466.946 77.8288 467.548L77.1148 468.332C76.7228 467.856 76.0928 467.562 75.4768 467.562C74.0348 467.562 72.8308 468.696 72.8308 472.056C72.8308 474.688 73.6288 476.13 75.0708 476.13C76.0508 476.13 76.8068 475.192 76.8068 473.806C76.8068 472.406 76.1908 471.524 74.9588 471.524C74.3008 471.524 73.4748 471.916 72.7888 472.938L72.7468 471.916C73.3768 471.09 74.3288 470.586 75.1548 470.586C76.8908 470.586 78.0108 471.65 78.0108 473.806C78.0108 475.794 76.6528 477.138 75.0708 477.138ZM82.6545 477.138C82.1505 477.138 81.7445 476.732 81.7445 476.158C81.7445 475.57 82.1505 475.178 82.6545 475.178C83.1725 475.178 83.5925 475.57 83.5925 476.158C83.5925 476.732 83.1725 477.138 82.6545 477.138ZM64.6732 502.138C63.0632 502.138 62.0692 501.466 61.3972 500.724L62.0412 499.884C62.6432 500.514 63.4132 501.074 64.5892 501.074C65.8072 501.074 66.6752 500.332 66.6752 499.156C66.6752 497.924 65.8492 497.112 63.4832 497.112V496.118C65.5972 496.118 66.3112 495.278 66.3112 494.158C66.3112 493.178 65.6532 492.534 64.5892 492.534C63.7632 492.534 63.0352 492.954 62.4612 493.542L61.7752 492.716C62.5452 492.016 63.4552 491.498 64.6312 491.498C66.3532 491.498 67.6132 492.436 67.6132 494.074C67.6132 495.32 66.8852 496.146 65.7932 496.538V496.594C66.9972 496.888 67.9772 497.798 67.9772 499.212C67.9772 501.032 66.5072 502.138 64.6732 502.138ZM73.6148 501.942C73.7968 498.064 74.4968 495.572 76.5128 492.772H71.5428V491.68H77.9548V492.45C75.5468 495.544 75.1128 497.938 74.9448 501.942H73.6148ZM82.6545 502.138C82.1505 502.138 81.7445 501.732 81.7445 501.158C81.7445 500.57 82.1505 500.178 82.6545 500.178C83.1725 500.178 83.5925 500.57 83.5925 501.158C83.5925 501.732 83.1725 502.138 82.6545 502.138ZM64.6732 527.138C63.0632 527.138 62.0692 526.466 61.3972 525.724L62.0412 524.884C62.6432 525.514 63.4132 526.074 64.5892 526.074C65.8072 526.074 66.6752 525.332 66.6752 524.156C66.6752 522.924 65.8492 522.112 63.4832 522.112V521.118C65.5972 521.118 66.3112 520.278 66.3112 519.158C66.3112 518.178 65.6532 517.534 64.5892 517.534C63.7632 517.534 63.0352 517.954 62.4612 518.542L61.7752 517.716C62.5452 517.016 63.4552 516.498 64.6312 516.498C66.3532 516.498 67.6132 517.436 67.6132 519.074C67.6132 520.32 66.8852 521.146 65.7932 521.538V521.594C66.9972 521.888 67.9772 522.798 67.9772 524.212C67.9772 526.032 66.5072 527.138 64.6732 527.138ZM74.7628 527.138C72.8728 527.138 71.4868 525.99 71.4868 524.408C71.4868 523.022 72.4388 522.07 73.3768 521.566V521.51C72.6208 520.992 71.9768 520.208 71.9768 519.13C71.9768 517.576 73.1948 516.54 74.8048 516.54C76.5548 516.54 77.6188 517.66 77.6188 519.228C77.6188 520.32 76.8628 521.23 76.2468 521.706V521.776C77.1428 522.294 77.9828 523.078 77.9828 524.478C77.9828 525.976 76.6808 527.138 74.7628 527.138ZM75.4628 521.384C76.1628 520.768 76.5268 520.068 76.5268 519.298C76.5268 518.29 75.8828 517.478 74.7768 517.478C73.8388 517.478 73.1528 518.15 73.1528 519.13C73.1528 520.362 74.2588 520.908 75.4628 521.384ZM74.7908 526.172C75.9668 526.172 76.7508 525.458 76.7508 524.436C76.7508 523.064 75.4908 522.546 74.0488 521.958C73.2088 522.49 72.6348 523.302 72.6348 524.282C72.6348 525.374 73.5588 526.172 74.7908 526.172ZM82.6545 527.138C82.1505 527.138 81.7445 526.732 81.7445 526.158C81.7445 525.57 82.1505 525.178 82.6545 525.178C83.1725 525.178 83.5925 525.57 83.5925 526.158C83.5925 526.732 83.1725 527.138 82.6545 527.138ZM64.6732 552.138C63.0632 552.138 62.0692 551.466 61.3972 550.724L62.0412 549.884C62.6432 550.514 63.4132 551.074 64.5892 551.074C65.8072 551.074 66.6752 550.332 66.6752 549.156C66.6752 547.924 65.8492 547.112 63.4832 547.112V546.118C65.5972 546.118 66.3112 545.278 66.3112 544.158C66.3112 543.178 65.6532 542.534 64.5892 542.534C63.7632 542.534 63.0352 542.954 62.4612 543.542L61.7752 542.716C62.5452 542.016 63.4552 541.498 64.6312 541.498C66.3532 541.498 67.6132 542.436 67.6132 544.074C67.6132 545.32 66.8852 546.146 65.7932 546.538V546.594C66.9972 546.888 67.9772 547.798 67.9772 549.212C67.9772 551.032 66.5072 552.138 64.6732 552.138ZM74.1328 552.138C73.0128 552.138 72.2288 551.69 71.6548 551.088L72.3688 550.276C72.8028 550.78 73.4328 551.074 74.0908 551.074C75.4628 551.074 76.6528 549.884 76.6528 546.37C76.6528 543.85 75.8548 542.492 74.4128 542.492C73.4328 542.492 72.6768 543.416 72.6768 544.83C72.6768 546.202 73.2928 547.112 74.5108 547.112C75.1968 547.112 75.9948 546.706 76.6668 545.684L76.7368 546.706C76.0928 547.518 75.1828 548.05 74.3008 548.05C72.5788 548.05 71.4728 546.958 71.4728 544.83C71.4728 542.842 72.8168 541.498 74.4128 541.498C76.3868 541.498 77.8568 543.108 77.8568 546.37C77.8568 550.542 76.0648 552.138 74.1328 552.138ZM82.6545 552.138C82.1505 552.138 81.7445 551.732 81.7445 551.158C81.7445 550.57 82.1505 550.178 82.6545 550.178C83.1725 550.178 83.5925 550.57 83.5925 551.158C83.5925 551.732 83.1725 552.138 82.6545 552.138ZM65.7372 576.942V569.956C65.7372 569.438 65.7792 568.612 65.8212 568.08H65.7512C65.4992 568.584 65.2192 569.102 64.9392 569.606L62.6012 573.106H68.3132V574.114H61.2572V573.274L65.5272 566.68H66.9412V576.942H65.7372ZM74.7488 577.138C72.7888 577.138 71.5428 575.36 71.5428 571.776C71.5428 568.22 72.7888 566.498 74.7488 566.498C76.6808 566.498 77.9268 568.22 77.9268 571.776C77.9268 575.36 76.6808 577.138 74.7488 577.138ZM74.7488 576.102C75.9108 576.102 76.6948 574.8 76.6948 571.776C76.6948 568.794 75.9108 567.52 74.7488 567.52C73.5728 567.52 72.7748 568.794 72.7748 571.776C72.7748 574.8 73.5728 576.102 74.7488 576.102ZM82.6545 577.138C82.1505 577.138 81.7445 576.732 81.7445 576.158C81.7445 575.57 82.1505 575.178 82.6545 575.178C83.1725 575.178 83.5925 575.57 83.5925 576.158C83.5925 576.732 83.1725 577.138 82.6545 577.138Z" fill="#1C276D"/>
</svg>
