<svg width="97" height="649" viewBox="0 0 97 649" fill="none" xmlns="http://www.w3.org/2000/svg">
<path d="M15.449 39.8046V40.8686H18.179V39.8046H15.449ZM15.449 38.0126V39.0626H18.179V38.0126H15.449ZM14.511 37.2566H19.159V41.6526H14.511V37.2566ZM13.671 42.6886H19.985V43.5006H13.671V42.6886ZM19.901 37.3546H26.285V38.1386H19.901V37.3546ZM16.471 42.9406H17.367V48.2746L16.471 47.7146V42.9406ZM16.947 45.0126H19.747V45.8106H16.947V45.0126ZM22.673 37.5506L23.667 37.7466C23.401 38.4606 23.121 39.2586 22.869 39.7766L22.085 39.5946C22.309 39.0206 22.547 38.1526 22.673 37.5506ZM21.399 41.7926V42.8426H24.745V41.7926H21.399ZM21.399 43.5706V44.6486H24.745V43.5706H21.399ZM21.399 40.0006V41.0366H24.745V40.0006H21.399ZM20.447 39.2306H25.725V45.4186H20.447V39.2306ZM21.609 45.6706L22.505 45.9366C21.889 46.7206 20.867 47.5186 19.999 47.9946C19.845 47.8406 19.495 47.5046 19.299 47.3506C20.167 46.9446 21.077 46.3146 21.609 45.6706ZM14.651 44.2706H15.533C15.449 46.2866 15.169 48.3866 14.175 49.5766C14.035 49.3666 13.727 49.0586 13.503 48.9046C14.357 47.8826 14.581 45.9926 14.651 44.2706ZM15.309 45.6426C16.303 48.0506 18.487 48.3586 21.637 48.3586C22.267 48.3586 25.739 48.3586 26.565 48.3306C26.411 48.5546 26.243 48.9606 26.187 49.2406H21.637C18.067 49.2406 15.813 48.7786 14.651 45.8806L15.309 45.6426ZM23.569 46.0486L24.283 45.6426C25.095 46.1326 26.019 46.9166 26.481 47.4486L25.711 47.9386C25.263 47.3786 24.325 46.5666 23.569 46.0486ZM31.171 38.0686V40.1686H33.579V38.0686H31.171ZM30.373 37.2705H34.419V40.9666H30.373V37.2705ZM29.701 42.0726H34.755V42.9966H29.701V42.0726ZM31.017 42.4646H31.927C31.759 43.4026 31.507 44.5506 31.311 45.2786H30.387C30.611 44.5086 30.863 43.3606 31.017 42.4646ZM31.115 44.4246H33.649V45.2786H30.891L31.115 44.4246ZM33.285 44.4246H34.209C34.209 44.4246 34.195 44.7046 34.181 44.8446C33.971 47.5746 33.789 48.6246 33.411 49.0166C33.187 49.2686 32.977 49.3526 32.599 49.3806C32.319 49.4086 31.759 49.4086 31.199 49.3666C31.185 49.1006 31.101 48.7226 30.947 48.4846C31.493 48.5266 32.011 48.5406 32.221 48.5406C32.431 48.5406 32.557 48.5126 32.655 48.4006C32.921 48.1346 33.103 47.1546 33.285 44.5786V44.4246ZM38.605 37.6206H41.965V38.4886H38.605V37.6206ZM35.847 39.4406H41.979V40.2946H35.847V39.4406ZM35.371 39.4406H36.295V43.0106C36.295 44.9566 36.113 47.7006 34.867 49.5626C34.713 49.3806 34.321 49.1006 34.097 48.9886C35.245 47.2386 35.371 44.8026 35.371 43.0106V39.4406ZM36.589 41.6946L40.803 41.2746L40.887 42.0166L36.687 42.4506L36.589 41.6946ZM41.699 39.4406H41.839L42.007 39.3986L42.651 39.5666C42.483 40.3926 42.245 41.3726 42.063 41.9886L41.265 41.7926C41.419 41.2186 41.601 40.3086 41.699 39.5666V39.4406ZM37.415 44.7606H38.311C38.227 47.0146 37.863 48.5966 36.337 49.5346C36.225 49.3106 35.959 48.9886 35.749 48.8346C37.065 48.0646 37.331 46.7066 37.415 44.7606ZM39.501 44.7606H40.397V48.0086C40.397 48.1066 40.411 48.2046 40.509 48.2326C40.565 48.2886 40.677 48.3026 40.803 48.3026C40.915 48.3026 41.125 48.3026 41.279 48.3026C41.419 48.3026 41.587 48.2886 41.657 48.2326C41.727 48.1906 41.811 48.0786 41.839 47.9386C41.867 47.7146 41.895 47.1686 41.881 46.5246C42.063 46.6926 42.399 46.8886 42.665 46.9586C42.651 47.6166 42.595 48.3166 42.525 48.5686C42.441 48.8206 42.301 48.9886 42.105 49.1006C41.923 49.1846 41.615 49.2406 41.363 49.2406C41.181 49.2406 40.747 49.2406 40.607 49.2406C40.299 49.2406 39.977 49.1846 39.781 49.0166C39.557 48.8346 39.501 48.6246 39.501 47.9946V44.7606ZM38.129 36.6546H39.137V39.8886H38.129V36.6546ZM38.073 40.3786H38.983V42.7586C38.983 43.1086 39.025 43.2346 39.319 43.2346C39.543 43.2346 40.579 43.2346 40.817 43.2346C41.069 43.2346 41.489 43.2206 41.671 43.1646C41.699 43.4306 41.727 43.7246 41.769 43.9486C41.573 44.0186 41.209 44.0326 40.859 44.0326C40.579 44.0326 39.389 44.0326 39.165 44.0326C38.269 44.0326 38.073 43.6406 38.073 42.7306V40.3786ZM46.011 45.8806H58.415V46.7346H46.011V45.8806ZM49.581 37.9426H58.303V38.7126H49.581V37.9426ZM54.397 45.1246H55.419V48.3586C55.419 48.9046 55.307 49.1706 54.845 49.3246C54.411 49.4786 53.697 49.4786 52.535 49.4786C52.493 49.1986 52.325 48.8346 52.185 48.5686C53.081 48.5966 53.879 48.5826 54.117 48.5686C54.327 48.5686 54.397 48.5126 54.397 48.3306V45.1246ZM48.615 47.3086L49.343 46.7346C50.057 47.2246 50.897 47.9666 51.289 48.4846L50.505 49.1286C50.141 48.6106 49.329 47.8266 48.615 47.3086ZM51.275 36.8785L52.129 36.6265C52.437 36.9906 52.759 37.5225 52.899 37.8866L52.003 38.1806C51.877 37.8166 51.569 37.2846 51.275 36.8785ZM51.415 41.1766V41.8206H56.273V41.1766H51.415ZM51.415 42.3806V43.0386H56.273V42.3806H51.415ZM51.415 39.9865V40.6166H56.273V39.9865H51.415ZM50.519 39.4126H57.211V43.6126H50.519V39.4126ZM53.403 38.2086L54.453 38.3206C54.215 38.8526 53.963 39.3566 53.739 39.7206L52.899 39.5806C53.081 39.1746 53.305 38.5866 53.403 38.2086ZM55.713 36.6686L56.693 36.8785C56.371 37.4246 55.993 37.9566 55.699 38.3206L54.859 38.1105C55.153 37.7046 55.517 37.0745 55.713 36.6686ZM46.921 36.9066L47.789 36.6825C48.153 37.1026 48.531 37.6766 48.727 38.0546L47.831 38.3346C47.635 37.9426 47.243 37.3406 46.921 36.9066ZM46.193 38.5726H48.993V39.4266H46.193V38.5726ZM48.783 42.5766C49.441 43.9906 50.757 44.1726 53.263 44.1726C54.929 44.1726 57.169 44.1166 58.723 43.9766C58.569 44.1866 58.457 44.6206 58.401 44.9006C56.987 44.9706 54.971 45.0126 53.277 45.0126C50.323 45.0126 48.993 44.7186 48.181 42.8846L48.783 42.5766ZM48.825 40.8686H49.147L49.315 40.8406L49.707 41.1066C49.133 43.0666 47.929 44.5086 46.585 45.3066C46.487 45.0966 46.207 44.7186 46.025 44.5646C47.271 43.8786 48.363 42.6046 48.825 41.0366V40.8686ZM46.473 41.9326V41.1206L46.977 40.8686H49.077V41.7226H47.285C46.949 41.7226 46.571 41.8206 46.473 41.9326ZM46.473 41.9186C46.403 41.6946 46.207 41.2466 46.109 41.0506C46.277 40.9946 46.501 40.9106 46.767 40.6866C47.145 40.3506 48.335 39.1606 48.741 38.6426V38.6006L49.063 38.4746L49.693 38.8245C49.077 39.5106 47.943 40.6586 47.187 41.3166C47.187 41.3166 46.473 41.6666 46.473 41.9186ZM65.037 44.5786V45.2506H71.589V44.5786H65.037ZM65.037 45.8666V46.5526H71.589V45.8666H65.037ZM65.037 43.3046V43.9626H71.589V43.3046H65.037ZM64.043 42.6606H72.625V47.1826H64.043V42.6606ZM69.167 46.8046H70.203V48.1766C70.203 48.4846 70.315 48.5266 70.959 48.5266C71.253 48.5266 72.765 48.5266 73.185 48.5266C73.703 48.5266 73.801 48.3866 73.843 47.2386C74.067 47.3786 74.459 47.5186 74.739 47.5746C74.627 49.0166 74.319 49.3666 73.283 49.3666C72.989 49.3666 71.141 49.3666 70.875 49.3666C69.517 49.3666 69.167 49.1286 69.167 48.1766V46.8046ZM66.185 46.8466H67.221C66.815 48.5126 65.667 49.1986 62.391 49.5346C62.321 49.3106 62.083 48.9186 61.915 48.7226C64.897 48.4986 65.849 48.0366 66.185 46.8466ZM69.699 38.7545H73.871V39.4266H69.699V38.7545ZM69.573 37.4806H74.571V38.2086H69.573V37.4806ZM64.967 37.4246H65.821V38.7406H64.967V37.4246ZM64.967 40.2386H65.821V41.5826H64.967V40.2386ZM63.133 38.5026H67.781V40.5886H63.133V39.9446H66.871V39.1606H63.133V38.5026ZM72.667 40.5606V41.5826H73.563V40.5606H72.667ZM71.155 40.5606V41.5826H72.051V40.5606H71.155ZM69.685 40.5606V41.5826H70.539V40.5606H69.685ZM68.929 39.9726H74.347V42.1706H68.929V39.9726ZM69.643 36.6686L70.581 36.8086C70.217 37.8026 69.643 38.8106 68.677 39.6366C68.509 39.4266 68.187 39.1465 67.963 39.0346C68.831 38.3486 69.363 37.4526 69.643 36.6686ZM68.173 37.1306V37.8166H63.497V41.4006H68.285V42.0726H62.573V37.1306H68.173Z" fill="#1C276D"/>
<rect x="11.1611" y="84.9424" width="22.042" height="22.042" rx="11.021" fill="#FFDE67"/>
<path d="M18.317 100.942V99.8784H20.599V92.2344H18.765V91.4084C19.689 91.2544 20.347 91.0164 20.893 90.6804H21.873V99.8784H23.945V100.942H18.317ZM28.8826 101.138C28.3786 101.138 27.9726 100.732 27.9726 100.158C27.9726 99.5704 28.3786 99.1784 28.8826 99.1784C29.4006 99.1784 29.8206 99.5704 29.8206 100.158C29.8206 100.732 29.4006 101.138 28.8826 101.138ZM17.701 125.942V125.2C20.921 122.386 22.391 120.328 22.391 118.578C22.391 117.402 21.789 116.534 20.515 116.534C19.675 116.534 18.947 117.052 18.373 117.724L17.631 117.01C18.471 116.1 19.367 115.498 20.669 115.498C22.503 115.498 23.651 116.688 23.651 118.522C23.651 120.58 22.041 122.666 19.619 124.948C20.165 124.892 20.781 124.85 21.299 124.85H24.141V125.942H17.701ZM28.8826 126.138C28.3786 126.138 27.9726 125.732 27.9726 125.158C27.9726 124.57 28.3786 124.178 28.8826 124.178C29.4006 124.178 29.8206 124.57 29.8206 125.158C29.8206 125.732 29.4006 126.138 28.8826 126.138ZM20.767 151.138C19.157 151.138 18.163 150.466 17.491 149.724L18.135 148.884C18.737 149.514 19.507 150.074 20.683 150.074C21.901 150.074 22.769 149.332 22.769 148.156C22.769 146.924 21.943 146.112 19.577 146.112V145.118C21.691 145.118 22.405 144.278 22.405 143.158C22.405 142.178 21.747 141.534 20.683 141.534C19.857 141.534 19.129 141.954 18.555 142.542L17.869 141.716C18.639 141.016 19.549 140.498 20.725 140.498C22.447 140.498 23.707 141.436 23.707 143.074C23.707 144.32 22.979 145.146 21.887 145.538V145.594C23.091 145.888 24.071 146.798 24.071 148.212C24.071 150.032 22.601 151.138 20.767 151.138ZM28.8826 151.138C28.3786 151.138 27.9726 150.732 27.9726 150.158C27.9726 149.57 28.3786 149.178 28.8826 149.178C29.4006 149.178 29.8206 149.57 29.8206 150.158C29.8206 150.732 29.4006 151.138 28.8826 151.138ZM21.831 175.942V168.956C21.831 168.438 21.873 167.612 21.915 167.08H21.845C21.593 167.584 21.313 168.102 21.033 168.606L18.695 172.106H24.407V173.114H17.351V172.274L21.621 165.68H23.035V175.942H21.831ZM28.8826 176.138C28.3786 176.138 27.9726 175.732 27.9726 175.158C27.9726 174.57 28.3786 174.178 28.8826 174.178C29.4006 174.178 29.8206 174.57 29.8206 175.158C29.8206 175.732 29.4006 176.138 28.8826 176.138ZM20.739 201.138C19.143 201.138 18.163 200.466 17.463 199.766L18.107 198.926C18.681 199.528 19.437 200.074 20.613 200.074C21.831 200.074 22.797 199.136 22.797 197.652C22.797 196.182 21.957 195.3 20.683 195.3C19.997 195.3 19.563 195.524 18.975 195.916L18.289 195.482L18.611 190.68H23.609V191.772H19.731L19.465 194.74C19.927 194.488 20.389 194.334 21.005 194.334C22.713 194.334 24.099 195.342 24.099 197.61C24.099 199.85 22.461 201.138 20.739 201.138ZM28.8826 201.138C28.3786 201.138 27.9726 200.732 27.9726 200.158C27.9726 199.57 28.3786 199.178 28.8826 199.178C29.4006 199.178 29.8206 199.57 29.8206 200.158C29.8206 200.732 29.4006 201.138 28.8826 201.138ZM21.299 226.138C19.325 226.138 17.855 224.444 17.855 221.056C17.855 217.038 19.661 215.498 21.649 215.498C22.713 215.498 23.497 215.946 24.057 216.548L23.343 217.332C22.951 216.856 22.321 216.562 21.705 216.562C20.263 216.562 19.059 217.696 19.059 221.056C19.059 223.688 19.857 225.13 21.299 225.13C22.279 225.13 23.035 224.192 23.035 222.806C23.035 221.406 22.419 220.524 21.187 220.524C20.529 220.524 19.703 220.916 19.017 221.938L18.975 220.916C19.605 220.09 20.557 219.586 21.383 219.586C23.119 219.586 24.239 220.65 24.239 222.806C24.239 224.794 22.881 226.138 21.299 226.138ZM28.8826 226.138C28.3786 226.138 27.9726 225.732 27.9726 225.158C27.9726 224.57 28.3786 224.178 28.8826 224.178C29.4006 224.178 29.8206 224.57 29.8206 225.158C29.8206 225.732 29.4006 226.138 28.8826 226.138ZM19.843 250.942C20.025 247.064 20.725 244.572 22.741 241.772H17.771V240.68H24.183V241.45C21.775 244.544 21.341 246.938 21.173 250.942H19.843ZM28.8826 251.138C28.3786 251.138 27.9726 250.732 27.9726 250.158C27.9726 249.57 28.3786 249.178 28.8826 249.178C29.4006 249.178 29.8206 249.57 29.8206 250.158C29.8206 250.732 29.4006 251.138 28.8826 251.138ZM20.991 276.138C19.101 276.138 17.715 274.99 17.715 273.408C17.715 272.022 18.667 271.07 19.605 270.566V270.51C18.849 269.992 18.205 269.208 18.205 268.13C18.205 266.576 19.423 265.54 21.033 265.54C22.783 265.54 23.847 266.66 23.847 268.228C23.847 269.32 23.091 270.23 22.475 270.706V270.776C23.371 271.294 24.211 272.078 24.211 273.478C24.211 274.976 22.909 276.138 20.991 276.138ZM21.691 270.384C22.391 269.768 22.755 269.068 22.755 268.298C22.755 267.29 22.111 266.478 21.005 266.478C20.067 266.478 19.381 267.15 19.381 268.13C19.381 269.362 20.487 269.908 21.691 270.384ZM21.019 275.172C22.195 275.172 22.979 274.458 22.979 273.436C22.979 272.064 21.719 271.546 20.277 270.958C19.437 271.49 18.863 272.302 18.863 273.282C18.863 274.374 19.787 275.172 21.019 275.172ZM28.8826 276.138C28.3786 276.138 27.9726 275.732 27.9726 275.158C27.9726 274.57 28.3786 274.178 28.8826 274.178C29.4006 274.178 29.8206 274.57 29.8206 275.158C29.8206 275.732 29.4006 276.138 28.8826 276.138ZM20.361 301.138C19.241 301.138 18.457 300.69 17.883 300.088L18.597 299.276C19.031 299.78 19.661 300.074 20.319 300.074C21.691 300.074 22.881 298.884 22.881 295.37C22.881 292.85 22.083 291.492 20.641 291.492C19.661 291.492 18.905 292.416 18.905 293.83C18.905 295.202 19.521 296.112 20.739 296.112C21.425 296.112 22.223 295.706 22.895 294.684L22.965 295.706C22.321 296.518 21.411 297.05 20.529 297.05C18.807 297.05 17.701 295.958 17.701 293.83C17.701 291.842 19.045 290.498 20.641 290.498C22.615 290.498 24.085 292.108 24.085 295.37C24.085 299.542 22.293 301.138 20.361 301.138ZM28.8826 301.138C28.3786 301.138 27.9726 300.732 27.9726 300.158C27.9726 299.57 28.3786 299.178 28.8826 299.178C29.4006 299.178 29.8206 299.57 29.8206 300.158C29.8206 300.732 29.4006 301.138 28.8826 301.138ZM18.317 325.942V324.878H20.599V317.234H18.765V316.408C19.689 316.254 20.347 316.016 20.893 315.68H21.873V324.878H23.945V325.942H18.317ZM30.8426 326.138C28.8826 326.138 27.6366 324.36 27.6366 320.776C27.6366 317.22 28.8826 315.498 30.8426 315.498C32.7746 315.498 34.0206 317.22 34.0206 320.776C34.0206 324.36 32.7746 326.138 30.8426 326.138ZM30.8426 325.102C32.0046 325.102 32.7886 323.8 32.7886 320.776C32.7886 317.794 32.0046 316.52 30.8426 316.52C29.6666 316.52 28.8686 317.794 28.8686 320.776C28.8686 323.8 29.6666 325.102 30.8426 325.102ZM38.7482 326.138C38.2442 326.138 37.8382 325.732 37.8382 325.158C37.8382 324.57 38.2442 324.178 38.7482 324.178C39.2662 324.178 39.6862 324.57 39.6862 325.158C39.6862 325.732 39.2662 326.138 38.7482 326.138ZM18.317 350.942V349.878H20.599V342.234H18.765V341.408C19.689 341.254 20.347 341.016 20.893 340.68H21.873V349.878H23.945V350.942H18.317ZM28.1826 350.942V349.878H30.4646V342.234H28.6306V341.408C29.5546 341.254 30.2126 341.016 30.7586 340.68H31.7386V349.878H33.8106V350.942H28.1826ZM38.7482 351.138C38.2442 351.138 37.8382 350.732 37.8382 350.158C37.8382 349.57 38.2442 349.178 38.7482 349.178C39.2662 349.178 39.6862 349.57 39.6862 350.158C39.6862 350.732 39.2662 351.138 38.7482 351.138ZM18.317 375.942V374.878H20.599V367.234H18.765V366.408C19.689 366.254 20.347 366.016 20.893 365.68H21.873V374.878H23.945V375.942H18.317ZM27.5666 375.942V375.2C30.7866 372.386 32.2566 370.328 32.2566 368.578C32.2566 367.402 31.6546 366.534 30.3806 366.534C29.5406 366.534 28.8126 367.052 28.2386 367.724L27.4966 367.01C28.3366 366.1 29.2326 365.498 30.5346 365.498C32.3686 365.498 33.5166 366.688 33.5166 368.522C33.5166 370.58 31.9066 372.666 29.4846 374.948C30.0306 374.892 30.6466 374.85 31.1646 374.85H34.0066V375.942H27.5666ZM38.7482 376.138C38.2442 376.138 37.8382 375.732 37.8382 375.158C37.8382 374.57 38.2442 374.178 38.7482 374.178C39.2662 374.178 39.6862 374.57 39.6862 375.158C39.6862 375.732 39.2662 376.138 38.7482 376.138ZM18.317 400.942V399.878H20.599V392.234H18.765V391.408C19.689 391.254 20.347 391.016 20.893 390.68H21.873V399.878H23.945V400.942H18.317ZM30.6326 401.138C29.0226 401.138 28.0286 400.466 27.3566 399.724L28.0006 398.884C28.6026 399.514 29.3726 400.074 30.5486 400.074C31.7666 400.074 32.6346 399.332 32.6346 398.156C32.6346 396.924 31.8086 396.112 29.4426 396.112V395.118C31.5566 395.118 32.2706 394.278 32.2706 393.158C32.2706 392.178 31.6126 391.534 30.5486 391.534C29.7226 391.534 28.9946 391.954 28.4206 392.542L27.7346 391.716C28.5046 391.016 29.4146 390.498 30.5906 390.498C32.3126 390.498 33.5726 391.436 33.5726 393.074C33.5726 394.32 32.8446 395.146 31.7526 395.538V395.594C32.9566 395.888 33.9366 396.798 33.9366 398.212C33.9366 400.032 32.4666 401.138 30.6326 401.138ZM38.7482 401.138C38.2442 401.138 37.8382 400.732 37.8382 400.158C37.8382 399.57 38.2442 399.178 38.7482 399.178C39.2662 399.178 39.6862 399.57 39.6862 400.158C39.6862 400.732 39.2662 401.138 38.7482 401.138ZM18.317 425.942V424.878H20.599V417.234H18.765V416.408C19.689 416.254 20.347 416.016 20.893 415.68H21.873V424.878H23.945V425.942H18.317ZM31.6966 425.942V418.956C31.6966 418.438 31.7386 417.612 31.7806 417.08H31.7106C31.4586 417.584 31.1786 418.102 30.8986 418.606L28.5606 422.106H34.2726V423.114H27.2166V422.274L31.4866 415.68H32.9006V425.942H31.6966ZM38.7482 426.138C38.2442 426.138 37.8382 425.732 37.8382 425.158C37.8382 424.57 38.2442 424.178 38.7482 424.178C39.2662 424.178 39.6862 424.57 39.6862 425.158C39.6862 425.732 39.2662 426.138 38.7482 426.138ZM18.317 450.942V449.878H20.599V442.234H18.765V441.408C19.689 441.254 20.347 441.016 20.893 440.68H21.873V449.878H23.945V450.942H18.317ZM30.6046 451.138C29.0086 451.138 28.0286 450.466 27.3286 449.766L27.9726 448.926C28.5466 449.528 29.3026 450.074 30.4786 450.074C31.6966 450.074 32.6626 449.136 32.6626 447.652C32.6626 446.182 31.8226 445.3 30.5486 445.3C29.8626 445.3 29.4286 445.524 28.8406 445.916L28.1546 445.482L28.4766 440.68H33.4746V441.772H29.5966L29.3306 444.74C29.7926 444.488 30.2546 444.334 30.8706 444.334C32.5786 444.334 33.9646 445.342 33.9646 447.61C33.9646 449.85 32.3266 451.138 30.6046 451.138ZM38.7482 451.138C38.2442 451.138 37.8382 450.732 37.8382 450.158C37.8382 449.57 38.2442 449.178 38.7482 449.178C39.2662 449.178 39.6862 449.57 39.6862 450.158C39.6862 450.732 39.2662 451.138 38.7482 451.138ZM18.317 475.942V474.878H20.599V467.234H18.765V466.408C19.689 466.254 20.347 466.016 20.893 465.68H21.873V474.878H23.945V475.942H18.317ZM31.1646 476.138C29.1906 476.138 27.7206 474.444 27.7206 471.056C27.7206 467.038 29.5266 465.498 31.5146 465.498C32.5786 465.498 33.3626 465.946 33.9226 466.548L33.2086 467.332C32.8166 466.856 32.1866 466.562 31.5706 466.562C30.1286 466.562 28.9246 467.696 28.9246 471.056C28.9246 473.688 29.7226 475.13 31.1646 475.13C32.1446 475.13 32.9006 474.192 32.9006 472.806C32.9006 471.406 32.2846 470.524 31.0526 470.524C30.3946 470.524 29.5686 470.916 28.8826 471.938L28.8406 470.916C29.4706 470.09 30.4226 469.586 31.2486 469.586C32.9846 469.586 34.1046 470.65 34.1046 472.806C34.1046 474.794 32.7466 476.138 31.1646 476.138ZM38.7482 476.138C38.2442 476.138 37.8382 475.732 37.8382 475.158C37.8382 474.57 38.2442 474.178 38.7482 474.178C39.2662 474.178 39.6862 474.57 39.6862 475.158C39.6862 475.732 39.2662 476.138 38.7482 476.138ZM18.317 500.942V499.878H20.599V492.234H18.765V491.408C19.689 491.254 20.347 491.016 20.893 490.68H21.873V499.878H23.945V500.942H18.317ZM29.7086 500.942C29.8906 497.064 30.5906 494.572 32.6066 491.772H27.6366V490.68H34.0486V491.45C31.6406 494.544 31.2066 496.938 31.0386 500.942H29.7086ZM38.7482 501.138C38.2442 501.138 37.8382 500.732 37.8382 500.158C37.8382 499.57 38.2442 499.178 38.7482 499.178C39.2662 499.178 39.6862 499.57 39.6862 500.158C39.6862 500.732 39.2662 501.138 38.7482 501.138ZM18.317 525.942V524.878H20.599V517.234H18.765V516.408C19.689 516.254 20.347 516.016 20.893 515.68H21.873V524.878H23.945V525.942H18.317ZM30.8566 526.138C28.9666 526.138 27.5806 524.99 27.5806 523.408C27.5806 522.022 28.5326 521.07 29.4706 520.566V520.51C28.7146 519.992 28.0706 519.208 28.0706 518.13C28.0706 516.576 29.2886 515.54 30.8986 515.54C32.6486 515.54 33.7126 516.66 33.7126 518.228C33.7126 519.32 32.9566 520.23 32.3406 520.706V520.776C33.2366 521.294 34.0766 522.078 34.0766 523.478C34.0766 524.976 32.7746 526.138 30.8566 526.138ZM31.5566 520.384C32.2566 519.768 32.6206 519.068 32.6206 518.298C32.6206 517.29 31.9766 516.478 30.8706 516.478C29.9326 516.478 29.2466 517.15 29.2466 518.13C29.2466 519.362 30.3526 519.908 31.5566 520.384ZM30.8846 525.172C32.0606 525.172 32.8446 524.458 32.8446 523.436C32.8446 522.064 31.5846 521.546 30.1426 520.958C29.3026 521.49 28.7286 522.302 28.7286 523.282C28.7286 524.374 29.6526 525.172 30.8846 525.172ZM38.7482 526.138C38.2442 526.138 37.8382 525.732 37.8382 525.158C37.8382 524.57 38.2442 524.178 38.7482 524.178C39.2662 524.178 39.6862 524.57 39.6862 525.158C39.6862 525.732 39.2662 526.138 38.7482 526.138ZM18.317 550.942V549.878H20.599V542.234H18.765V541.408C19.689 541.254 20.347 541.016 20.893 540.68H21.873V549.878H23.945V550.942H18.317ZM30.2266 551.138C29.1066 551.138 28.3226 550.69 27.7486 550.088L28.4626 549.276C28.8966 549.78 29.5266 550.074 30.1846 550.074C31.5566 550.074 32.7466 548.884 32.7466 545.37C32.7466 542.85 31.9486 541.492 30.5066 541.492C29.5266 541.492 28.7706 542.416 28.7706 543.83C28.7706 545.202 29.3866 546.112 30.6046 546.112C31.2906 546.112 32.0886 545.706 32.7606 544.684L32.8306 545.706C32.1866 546.518 31.2766 547.05 30.3946 547.05C28.6726 547.05 27.5666 545.958 27.5666 543.83C27.5666 541.842 28.9106 540.498 30.5066 540.498C32.4806 540.498 33.9506 542.108 33.9506 545.37C33.9506 549.542 32.1586 551.138 30.2266 551.138ZM38.7482 551.138C38.2442 551.138 37.8382 550.732 37.8382 550.158C37.8382 549.57 38.2442 549.178 38.7482 549.178C39.2662 549.178 39.6862 549.57 39.6862 550.158C39.6862 550.732 39.2662 551.138 38.7482 551.138ZM17.701 575.942V575.2C20.921 572.386 22.391 570.328 22.391 568.578C22.391 567.402 21.789 566.534 20.515 566.534C19.675 566.534 18.947 567.052 18.373 567.724L17.631 567.01C18.471 566.1 19.367 565.498 20.669 565.498C22.503 565.498 23.651 566.688 23.651 568.522C23.651 570.58 22.041 572.666 19.619 574.948C20.165 574.892 20.781 574.85 21.299 574.85H24.141V575.942H17.701ZM30.8426 576.138C28.8826 576.138 27.6366 574.36 27.6366 570.776C27.6366 567.22 28.8826 565.498 30.8426 565.498C32.7746 565.498 34.0206 567.22 34.0206 570.776C34.0206 574.36 32.7746 576.138 30.8426 576.138ZM30.8426 575.102C32.0046 575.102 32.7886 573.8 32.7886 570.776C32.7886 567.794 32.0046 566.52 30.8426 566.52C29.6666 566.52 28.8686 567.794 28.8686 570.776C28.8686 573.8 29.6666 575.102 30.8426 575.102ZM38.7482 576.138C38.2442 576.138 37.8382 575.732 37.8382 575.158C37.8382 574.57 38.2442 574.178 38.7482 574.178C39.2662 574.178 39.6862 574.57 39.6862 575.158C39.6862 575.732 39.2662 576.138 38.7482 576.138Z" fill="#1C276D"/>
<path d="M55.6072 100.942V100.2C58.8272 97.3864 60.2972 95.3284 60.2972 93.5784C60.2972 92.4024 59.6952 91.5344 58.4212 91.5344C57.5812 91.5344 56.8532 92.0524 56.2792 92.7244L55.5372 92.0104C56.3772 91.1004 57.2732 90.4984 58.5752 90.4984C60.4092 90.4984 61.5572 91.6884 61.5572 93.5224C61.5572 95.5804 59.9472 97.6664 57.5252 99.9484C58.0712 99.8924 58.6872 99.8504 59.2052 99.8504H62.0472V100.942H55.6072ZM66.0888 100.942V99.8784H68.3708V92.2344H66.5368V91.4084C67.4608 91.2544 68.1188 91.0164 68.6648 90.6804H69.6448V99.8784H71.7168V100.942H66.0888ZM76.6545 101.138C76.1505 101.138 75.7445 100.732 75.7445 100.158C75.7445 99.5704 76.1505 99.1784 76.6545 99.1784C77.1725 99.1784 77.5925 99.5704 77.5925 100.158C77.5925 100.732 77.1725 101.138 76.6545 101.138ZM55.6072 125.942V125.2C58.8272 122.386 60.2972 120.328 60.2972 118.578C60.2972 117.402 59.6952 116.534 58.4212 116.534C57.5812 116.534 56.8532 117.052 56.2792 117.724L55.5372 117.01C56.3772 116.1 57.2732 115.498 58.5752 115.498C60.4092 115.498 61.5572 116.688 61.5572 118.522C61.5572 120.58 59.9472 122.666 57.5252 124.948C58.0712 124.892 58.6872 124.85 59.2052 124.85H62.0472V125.942H55.6072ZM65.4728 125.942V125.2C68.6928 122.386 70.1628 120.328 70.1628 118.578C70.1628 117.402 69.5608 116.534 68.2868 116.534C67.4468 116.534 66.7188 117.052 66.1448 117.724L65.4028 117.01C66.2428 116.1 67.1388 115.498 68.4408 115.498C70.2748 115.498 71.4228 116.688 71.4228 118.522C71.4228 120.58 69.8128 122.666 67.3908 124.948C67.9368 124.892 68.5528 124.85 69.0708 124.85H71.9128V125.942H65.4728ZM76.6545 126.138C76.1505 126.138 75.7445 125.732 75.7445 125.158C75.7445 124.57 76.1505 124.178 76.6545 124.178C77.1725 124.178 77.5925 124.57 77.5925 125.158C77.5925 125.732 77.1725 126.138 76.6545 126.138ZM55.6072 150.942V150.2C58.8272 147.386 60.2972 145.328 60.2972 143.578C60.2972 142.402 59.6952 141.534 58.4212 141.534C57.5812 141.534 56.8532 142.052 56.2792 142.724L55.5372 142.01C56.3772 141.1 57.2732 140.498 58.5752 140.498C60.4092 140.498 61.5572 141.688 61.5572 143.522C61.5572 145.58 59.9472 147.666 57.5252 149.948C58.0712 149.892 58.6872 149.85 59.2052 149.85H62.0472V150.942H55.6072ZM68.5388 151.138C66.9288 151.138 65.9348 150.466 65.2628 149.724L65.9068 148.884C66.5088 149.514 67.2788 150.074 68.4548 150.074C69.6728 150.074 70.5408 149.332 70.5408 148.156C70.5408 146.924 69.7148 146.112 67.3488 146.112V145.118C69.4628 145.118 70.1768 144.278 70.1768 143.158C70.1768 142.178 69.5188 141.534 68.4548 141.534C67.6288 141.534 66.9008 141.954 66.3268 142.542L65.6408 141.716C66.4108 141.016 67.3208 140.498 68.4968 140.498C70.2188 140.498 71.4788 141.436 71.4788 143.074C71.4788 144.32 70.7508 145.146 69.6588 145.538V145.594C70.8628 145.888 71.8428 146.798 71.8428 148.212C71.8428 150.032 70.3728 151.138 68.5388 151.138ZM76.6545 151.138C76.1505 151.138 75.7445 150.732 75.7445 150.158C75.7445 149.57 76.1505 149.178 76.6545 149.178C77.1725 149.178 77.5925 149.57 77.5925 150.158C77.5925 150.732 77.1725 151.138 76.6545 151.138ZM55.6072 175.942V175.2C58.8272 172.386 60.2972 170.328 60.2972 168.578C60.2972 167.402 59.6952 166.534 58.4212 166.534C57.5812 166.534 56.8532 167.052 56.2792 167.724L55.5372 167.01C56.3772 166.1 57.2732 165.498 58.5752 165.498C60.4092 165.498 61.5572 166.688 61.5572 168.522C61.5572 170.58 59.9472 172.666 57.5252 174.948C58.0712 174.892 58.6872 174.85 59.2052 174.85H62.0472V175.942H55.6072ZM69.6028 175.942V168.956C69.6028 168.438 69.6448 167.612 69.6868 167.08H69.6168C69.3648 167.584 69.0848 168.102 68.8048 168.606L66.4668 172.106H72.1788V173.114H65.1228V172.274L69.3928 165.68H70.8068V175.942H69.6028ZM55.6072 200.942V200.2C58.8272 197.386 60.2972 195.328 60.2972 193.578C60.2972 192.402 59.6952 191.534 58.4212 191.534C57.5812 191.534 56.8532 192.052 56.2792 192.724L55.5372 192.01C56.3772 191.1 57.2732 190.498 58.5752 190.498C60.4092 190.498 61.5572 191.688 61.5572 193.522C61.5572 195.58 59.9472 197.666 57.5252 199.948C58.0712 199.892 58.6872 199.85 59.2052 199.85H62.0472V200.942H55.6072ZM68.5108 201.138C66.9148 201.138 65.9348 200.466 65.2348 199.766L65.8788 198.926C66.4528 199.528 67.2088 200.074 68.3848 200.074C69.6028 200.074 70.5688 199.136 70.5688 197.652C70.5688 196.182 69.7288 195.3 68.4548 195.3C67.7688 195.3 67.3348 195.524 66.7468 195.916L66.0608 195.482L66.3828 190.68H71.3808V191.772H67.5028L67.2368 194.74C67.6988 194.488 68.1608 194.334 68.7768 194.334C70.4848 194.334 71.8708 195.342 71.8708 197.61C71.8708 199.85 70.2328 201.138 68.5108 201.138ZM76.6545 201.138C76.1505 201.138 75.7445 200.732 75.7445 200.158C75.7445 199.57 76.1505 199.178 76.6545 199.178C77.1725 199.178 77.5925 199.57 77.5925 200.158C77.5925 200.732 77.1725 201.138 76.6545 201.138ZM55.6072 225.942V225.2C58.8272 222.386 60.2972 220.328 60.2972 218.578C60.2972 217.402 59.6952 216.534 58.4212 216.534C57.5812 216.534 56.8532 217.052 56.2792 217.724L55.5372 217.01C56.3772 216.1 57.2732 215.498 58.5752 215.498C60.4092 215.498 61.5572 216.688 61.5572 218.522C61.5572 220.58 59.9472 222.666 57.5252 224.948C58.0712 224.892 58.6872 224.85 59.2052 224.85H62.0472V225.942H55.6072ZM69.0708 226.138C67.0968 226.138 65.6268 224.444 65.6268 221.056C65.6268 217.038 67.4328 215.498 69.4208 215.498C70.4848 215.498 71.2688 215.946 71.8288 216.548L71.1148 217.332C70.7228 216.856 70.0928 216.562 69.4768 216.562C68.0348 216.562 66.8308 217.696 66.8308 221.056C66.8308 223.688 67.6288 225.13 69.0708 225.13C70.0508 225.13 70.8068 224.192 70.8068 222.806C70.8068 221.406 70.1908 220.524 68.9588 220.524C68.3008 220.524 67.4748 220.916 66.7888 221.938L66.7468 220.916C67.3768 220.09 68.3288 219.586 69.1548 219.586C70.8908 219.586 72.0108 220.65 72.0108 222.806C72.0108 224.794 70.6528 226.138 69.0708 226.138ZM76.6545 226.138C76.1505 226.138 75.7445 225.732 75.7445 225.158C75.7445 224.57 76.1505 224.178 76.6545 224.178C77.1725 224.178 77.5925 224.57 77.5925 225.158C77.5925 225.732 77.1725 226.138 76.6545 226.138ZM55.6072 250.942V250.2C58.8272 247.386 60.2972 245.328 60.2972 243.578C60.2972 242.402 59.6952 241.534 58.4212 241.534C57.5812 241.534 56.8532 242.052 56.2792 242.724L55.5372 242.01C56.3772 241.1 57.2732 240.498 58.5752 240.498C60.4092 240.498 61.5572 241.688 61.5572 243.522C61.5572 245.58 59.9472 247.666 57.5252 249.948C58.0712 249.892 58.6872 249.85 59.2052 249.85H62.0472V250.942H55.6072ZM67.6148 250.942C67.7968 247.064 68.4968 244.572 70.5128 241.772H65.5428V240.68H71.9548V241.45C69.5468 244.544 69.1128 246.938 68.9448 250.942H67.6148ZM76.6545 251.138C76.1505 251.138 75.7445 250.732 75.7445 250.158C75.7445 249.57 76.1505 249.178 76.6545 249.178C77.1725 249.178 77.5925 249.57 77.5925 250.158C77.5925 250.732 77.1725 251.138 76.6545 251.138ZM55.6072 275.942V275.2C58.8272 272.386 60.2972 270.328 60.2972 268.578C60.2972 267.402 59.6952 266.534 58.4212 266.534C57.5812 266.534 56.8532 267.052 56.2792 267.724L55.5372 267.01C56.3772 266.1 57.2732 265.498 58.5752 265.498C60.4092 265.498 61.5572 266.688 61.5572 268.522C61.5572 270.58 59.9472 272.666 57.5252 274.948C58.0712 274.892 58.6872 274.85 59.2052 274.85H62.0472V275.942H55.6072ZM68.7628 276.138C66.8728 276.138 65.4868 274.99 65.4868 273.408C65.4868 272.022 66.4388 271.07 67.3768 270.566V270.51C66.6208 269.992 65.9768 269.208 65.9768 268.13C65.9768 266.576 67.1948 265.54 68.8048 265.54C70.5548 265.54 71.6188 266.66 71.6188 268.228C71.6188 269.32 70.8628 270.23 70.2468 270.706V270.776C71.1428 271.294 71.9828 272.078 71.9828 273.478C71.9828 274.976 70.6808 276.138 68.7628 276.138ZM69.4628 270.384C70.1628 269.768 70.5268 269.068 70.5268 268.298C70.5268 267.29 69.8828 266.478 68.7768 266.478C67.8388 266.478 67.1528 267.15 67.1528 268.13C67.1528 269.362 68.2588 269.908 69.4628 270.384ZM68.7908 275.172C69.9668 275.172 70.7508 274.458 70.7508 273.436C70.7508 272.064 69.4908 271.546 68.0488 270.958C67.2088 271.49 66.6348 272.302 66.6348 273.282C66.6348 274.374 67.5588 275.172 68.7908 275.172ZM76.6545 276.138C76.1505 276.138 75.7445 275.732 75.7445 275.158C75.7445 274.57 76.1505 274.178 76.6545 274.178C77.1725 274.178 77.5925 274.57 77.5925 275.158C77.5925 275.732 77.1725 276.138 76.6545 276.138ZM55.6072 300.942V300.2C58.8272 297.386 60.2972 295.328 60.2972 293.578C60.2972 292.402 59.6952 291.534 58.4212 291.534C57.5812 291.534 56.8532 292.052 56.2792 292.724L55.5372 292.01C56.3772 291.1 57.2732 290.498 58.5752 290.498C60.4092 290.498 61.5572 291.688 61.5572 293.522C61.5572 295.58 59.9472 297.666 57.5252 299.948C58.0712 299.892 58.6872 299.85 59.2052 299.85H62.0472V300.942H55.6072ZM68.1328 301.138C67.0128 301.138 66.2288 300.69 65.6548 300.088L66.3688 299.276C66.8028 299.78 67.4328 300.074 68.0908 300.074C69.4628 300.074 70.6528 298.884 70.6528 295.37C70.6528 292.85 69.8548 291.492 68.4128 291.492C67.4328 291.492 66.6768 292.416 66.6768 293.83C66.6768 295.202 67.2928 296.112 68.5108 296.112C69.1968 296.112 69.9948 295.706 70.6668 294.684L70.7368 295.706C70.0928 296.518 69.1828 297.05 68.3008 297.05C66.5788 297.05 65.4728 295.958 65.4728 293.83C65.4728 291.842 66.8168 290.498 68.4128 290.498C70.3868 290.498 71.8568 292.108 71.8568 295.37C71.8568 299.542 70.0648 301.138 68.1328 301.138ZM76.6545 301.138C76.1505 301.138 75.7445 300.732 75.7445 300.158C75.7445 299.57 76.1505 299.178 76.6545 299.178C77.1725 299.178 77.5925 299.57 77.5925 300.158C77.5925 300.732 77.1725 301.138 76.6545 301.138ZM58.6732 326.138C57.0632 326.138 56.0692 325.466 55.3972 324.724L56.0412 323.884C56.6432 324.514 57.4132 325.074 58.5892 325.074C59.8072 325.074 60.6752 324.332 60.6752 323.156C60.6752 321.924 59.8492 321.112 57.4832 321.112V320.118C59.5972 320.118 60.3112 319.278 60.3112 318.158C60.3112 317.178 59.6532 316.534 58.5892 316.534C57.7632 316.534 57.0352 316.954 56.4612 317.542L55.7752 316.716C56.5452 316.016 57.4552 315.498 58.6312 315.498C60.3532 315.498 61.6132 316.436 61.6132 318.074C61.6132 319.32 60.8852 320.146 59.7932 320.538V320.594C60.9972 320.888 61.9772 321.798 61.9772 323.212C61.9772 325.032 60.5072 326.138 58.6732 326.138ZM68.7488 326.138C66.7888 326.138 65.5428 324.36 65.5428 320.776C65.5428 317.22 66.7888 315.498 68.7488 315.498C70.6808 315.498 71.9268 317.22 71.9268 320.776C71.9268 324.36 70.6808 326.138 68.7488 326.138ZM68.7488 325.102C69.9108 325.102 70.6948 323.8 70.6948 320.776C70.6948 317.794 69.9108 316.52 68.7488 316.52C67.5728 316.52 66.7748 317.794 66.7748 320.776C66.7748 323.8 67.5728 325.102 68.7488 325.102ZM76.6545 326.138C76.1505 326.138 75.7445 325.732 75.7445 325.158C75.7445 324.57 76.1505 324.178 76.6545 324.178C77.1725 324.178 77.5925 324.57 77.5925 325.158C77.5925 325.732 77.1725 326.138 76.6545 326.138ZM58.6732 351.138C57.0632 351.138 56.0692 350.466 55.3972 349.724L56.0412 348.884C56.6432 349.514 57.4132 350.074 58.5892 350.074C59.8072 350.074 60.6752 349.332 60.6752 348.156C60.6752 346.924 59.8492 346.112 57.4832 346.112V345.118C59.5972 345.118 60.3112 344.278 60.3112 343.158C60.3112 342.178 59.6532 341.534 58.5892 341.534C57.7632 341.534 57.0352 341.954 56.4612 342.542L55.7752 341.716C56.5452 341.016 57.4552 340.498 58.6312 340.498C60.3532 340.498 61.6132 341.436 61.6132 343.074C61.6132 344.32 60.8852 345.146 59.7932 345.538V345.594C60.9972 345.888 61.9772 346.798 61.9772 348.212C61.9772 350.032 60.5072 351.138 58.6732 351.138ZM66.0888 350.942V349.878H68.3708V342.234H66.5368V341.408C67.4608 341.254 68.1188 341.016 68.6648 340.68H69.6448V349.878H71.7168V350.942H66.0888ZM76.6545 351.138C76.1505 351.138 75.7445 350.732 75.7445 350.158C75.7445 349.57 76.1505 349.178 76.6545 349.178C77.1725 349.178 77.5925 349.57 77.5925 350.158C77.5925 350.732 77.1725 351.138 76.6545 351.138ZM58.6732 376.138C57.0632 376.138 56.0692 375.466 55.3972 374.724L56.0412 373.884C56.6432 374.514 57.4132 375.074 58.5892 375.074C59.8072 375.074 60.6752 374.332 60.6752 373.156C60.6752 371.924 59.8492 371.112 57.4832 371.112V370.118C59.5972 370.118 60.3112 369.278 60.3112 368.158C60.3112 367.178 59.6532 366.534 58.5892 366.534C57.7632 366.534 57.0352 366.954 56.4612 367.542L55.7752 366.716C56.5452 366.016 57.4552 365.498 58.6312 365.498C60.3532 365.498 61.6132 366.436 61.6132 368.074C61.6132 369.32 60.8852 370.146 59.7932 370.538V370.594C60.9972 370.888 61.9772 371.798 61.9772 373.212C61.9772 375.032 60.5072 376.138 58.6732 376.138ZM65.4728 375.942V375.2C68.6928 372.386 70.1628 370.328 70.1628 368.578C70.1628 367.402 69.5608 366.534 68.2868 366.534C67.4468 366.534 66.7188 367.052 66.1448 367.724L65.4028 367.01C66.2428 366.1 67.1388 365.498 68.4408 365.498C70.2748 365.498 71.4228 366.688 71.4228 368.522C71.4228 370.58 69.8128 372.666 67.3908 374.948C67.9368 374.892 68.5528 374.85 69.0708 374.85H71.9128V375.942H65.4728ZM76.6545 376.138C76.1505 376.138 75.7445 375.732 75.7445 375.158C75.7445 374.57 76.1505 374.178 76.6545 374.178C77.1725 374.178 77.5925 374.57 77.5925 375.158C77.5925 375.732 77.1725 376.138 76.6545 376.138ZM58.6732 401.138C57.0632 401.138 56.0692 400.466 55.3972 399.724L56.0412 398.884C56.6432 399.514 57.4132 400.074 58.5892 400.074C59.8072 400.074 60.6752 399.332 60.6752 398.156C60.6752 396.924 59.8492 396.112 57.4832 396.112V395.118C59.5972 395.118 60.3112 394.278 60.3112 393.158C60.3112 392.178 59.6532 391.534 58.5892 391.534C57.7632 391.534 57.0352 391.954 56.4612 392.542L55.7752 391.716C56.5452 391.016 57.4552 390.498 58.6312 390.498C60.3532 390.498 61.6132 391.436 61.6132 393.074C61.6132 394.32 60.8852 395.146 59.7932 395.538V395.594C60.9972 395.888 61.9772 396.798 61.9772 398.212C61.9772 400.032 60.5072 401.138 58.6732 401.138ZM68.5388 401.138C66.9288 401.138 65.9348 400.466 65.2628 399.724L65.9068 398.884C66.5088 399.514 67.2788 400.074 68.4548 400.074C69.6728 400.074 70.5408 399.332 70.5408 398.156C70.5408 396.924 69.7148 396.112 67.3488 396.112V395.118C69.4628 395.118 70.1768 394.278 70.1768 393.158C70.1768 392.178 69.5188 391.534 68.4548 391.534C67.6288 391.534 66.9008 391.954 66.3268 392.542L65.6408 391.716C66.4108 391.016 67.3208 390.498 68.4968 390.498C70.2188 390.498 71.4788 391.436 71.4788 393.074C71.4788 394.32 70.7508 395.146 69.6588 395.538V395.594C70.8628 395.888 71.8428 396.798 71.8428 398.212C71.8428 400.032 70.3728 401.138 68.5388 401.138ZM76.6545 401.138C76.1505 401.138 75.7445 400.732 75.7445 400.158C75.7445 399.57 76.1505 399.178 76.6545 399.178C77.1725 399.178 77.5925 399.57 77.5925 400.158C77.5925 400.732 77.1725 401.138 76.6545 401.138ZM58.6732 426.138C57.0632 426.138 56.0692 425.466 55.3972 424.724L56.0412 423.884C56.6432 424.514 57.4132 425.074 58.5892 425.074C59.8072 425.074 60.6752 424.332 60.6752 423.156C60.6752 421.924 59.8492 421.112 57.4832 421.112V420.118C59.5972 420.118 60.3112 419.278 60.3112 418.158C60.3112 417.178 59.6532 416.534 58.5892 416.534C57.7632 416.534 57.0352 416.954 56.4612 417.542L55.7752 416.716C56.5452 416.016 57.4552 415.498 58.6312 415.498C60.3532 415.498 61.6132 416.436 61.6132 418.074C61.6132 419.32 60.8852 420.146 59.7932 420.538V420.594C60.9972 420.888 61.9772 421.798 61.9772 423.212C61.9772 425.032 60.5072 426.138 58.6732 426.138ZM69.6028 425.942V418.956C69.6028 418.438 69.6448 417.612 69.6868 417.08H69.6168C69.3648 417.584 69.0848 418.102 68.8048 418.606L66.4668 422.106H72.1788V423.114H65.1228V422.274L69.3928 415.68H70.8068V425.942H69.6028ZM76.6545 426.138C76.1505 426.138 75.7445 425.732 75.7445 425.158C75.7445 424.57 76.1505 424.178 76.6545 424.178C77.1725 424.178 77.5925 424.57 77.5925 425.158C77.5925 425.732 77.1725 426.138 76.6545 426.138ZM58.6732 451.138C57.0632 451.138 56.0692 450.466 55.3972 449.724L56.0412 448.884C56.6432 449.514 57.4132 450.074 58.5892 450.074C59.8072 450.074 60.6752 449.332 60.6752 448.156C60.6752 446.924 59.8492 446.112 57.4832 446.112V445.118C59.5972 445.118 60.3112 444.278 60.3112 443.158C60.3112 442.178 59.6532 441.534 58.5892 441.534C57.7632 441.534 57.0352 441.954 56.4612 442.542L55.7752 441.716C56.5452 441.016 57.4552 440.498 58.6312 440.498C60.3532 440.498 61.6132 441.436 61.6132 443.074C61.6132 444.32 60.8852 445.146 59.7932 445.538V445.594C60.9972 445.888 61.9772 446.798 61.9772 448.212C61.9772 450.032 60.5072 451.138 58.6732 451.138ZM68.5108 451.138C66.9148 451.138 65.9348 450.466 65.2348 449.766L65.8788 448.926C66.4528 449.528 67.2088 450.074 68.3848 450.074C69.6028 450.074 70.5688 449.136 70.5688 447.652C70.5688 446.182 69.7288 445.3 68.4548 445.3C67.7688 445.3 67.3348 445.524 66.7468 445.916L66.0608 445.482L66.3828 440.68H71.3808V441.772H67.5028L67.2368 444.74C67.6988 444.488 68.1608 444.334 68.7768 444.334C70.4848 444.334 71.8708 445.342 71.8708 447.61C71.8708 449.85 70.2328 451.138 68.5108 451.138ZM76.6545 451.138C76.1505 451.138 75.7445 450.732 75.7445 450.158C75.7445 449.57 76.1505 449.178 76.6545 449.178C77.1725 449.178 77.5925 449.57 77.5925 450.158C77.5925 450.732 77.1725 451.138 76.6545 451.138ZM58.6732 476.138C57.0632 476.138 56.0692 475.466 55.3972 474.724L56.0412 473.884C56.6432 474.514 57.4132 475.074 58.5892 475.074C59.8072 475.074 60.6752 474.332 60.6752 473.156C60.6752 471.924 59.8492 471.112 57.4832 471.112V470.118C59.5972 470.118 60.3112 469.278 60.3112 468.158C60.3112 467.178 59.6532 466.534 58.5892 466.534C57.7632 466.534 57.0352 466.954 56.4612 467.542L55.7752 466.716C56.5452 466.016 57.4552 465.498 58.6312 465.498C60.3532 465.498 61.6132 466.436 61.6132 468.074C61.6132 469.32 60.8852 470.146 59.7932 470.538V470.594C60.9972 470.888 61.9772 471.798 61.9772 473.212C61.9772 475.032 60.5072 476.138 58.6732 476.138ZM69.0708 476.138C67.0968 476.138 65.6268 474.444 65.6268 471.056C65.6268 467.038 67.4328 465.498 69.4208 465.498C70.4848 465.498 71.2688 465.946 71.8288 466.548L71.1148 467.332C70.7228 466.856 70.0928 466.562 69.4768 466.562C68.0348 466.562 66.8308 467.696 66.8308 471.056C66.8308 473.688 67.6288 475.13 69.0708 475.13C70.0508 475.13 70.8068 474.192 70.8068 472.806C70.8068 471.406 70.1908 470.524 68.9588 470.524C68.3008 470.524 67.4748 470.916 66.7888 471.938L66.7468 470.916C67.3768 470.09 68.3288 469.586 69.1548 469.586C70.8908 469.586 72.0108 470.65 72.0108 472.806C72.0108 474.794 70.6528 476.138 69.0708 476.138ZM76.6545 476.138C76.1505 476.138 75.7445 475.732 75.7445 475.158C75.7445 474.57 76.1505 474.178 76.6545 474.178C77.1725 474.178 77.5925 474.57 77.5925 475.158C77.5925 475.732 77.1725 476.138 76.6545 476.138ZM58.6732 501.138C57.0632 501.138 56.0692 500.466 55.3972 499.724L56.0412 498.884C56.6432 499.514 57.4132 500.074 58.5892 500.074C59.8072 500.074 60.6752 499.332 60.6752 498.156C60.6752 496.924 59.8492 496.112 57.4832 496.112V495.118C59.5972 495.118 60.3112 494.278 60.3112 493.158C60.3112 492.178 59.6532 491.534 58.5892 491.534C57.7632 491.534 57.0352 491.954 56.4612 492.542L55.7752 491.716C56.5452 491.016 57.4552 490.498 58.6312 490.498C60.3532 490.498 61.6132 491.436 61.6132 493.074C61.6132 494.32 60.8852 495.146 59.7932 495.538V495.594C60.9972 495.888 61.9772 496.798 61.9772 498.212C61.9772 500.032 60.5072 501.138 58.6732 501.138ZM67.6148 500.942C67.7968 497.064 68.4968 494.572 70.5128 491.772H65.5428V490.68H71.9548V491.45C69.5468 494.544 69.1128 496.938 68.9448 500.942H67.6148ZM76.6545 501.138C76.1505 501.138 75.7445 500.732 75.7445 500.158C75.7445 499.57 76.1505 499.178 76.6545 499.178C77.1725 499.178 77.5925 499.57 77.5925 500.158C77.5925 500.732 77.1725 501.138 76.6545 501.138ZM58.6732 526.138C57.0632 526.138 56.0692 525.466 55.3972 524.724L56.0412 523.884C56.6432 524.514 57.4132 525.074 58.5892 525.074C59.8072 525.074 60.6752 524.332 60.6752 523.156C60.6752 521.924 59.8492 521.112 57.4832 521.112V520.118C59.5972 520.118 60.3112 519.278 60.3112 518.158C60.3112 517.178 59.6532 516.534 58.5892 516.534C57.7632 516.534 57.0352 516.954 56.4612 517.542L55.7752 516.716C56.5452 516.016 57.4552 515.498 58.6312 515.498C60.3532 515.498 61.6132 516.436 61.6132 518.074C61.6132 519.32 60.8852 520.146 59.7932 520.538V520.594C60.9972 520.888 61.9772 521.798 61.9772 523.212C61.9772 525.032 60.5072 526.138 58.6732 526.138ZM68.7628 526.138C66.8728 526.138 65.4868 524.99 65.4868 523.408C65.4868 522.022 66.4388 521.07 67.3768 520.566V520.51C66.6208 519.992 65.9768 519.208 65.9768 518.13C65.9768 516.576 67.1948 515.54 68.8048 515.54C70.5548 515.54 71.6188 516.66 71.6188 518.228C71.6188 519.32 70.8628 520.23 70.2468 520.706V520.776C71.1428 521.294 71.9828 522.078 71.9828 523.478C71.9828 524.976 70.6808 526.138 68.7628 526.138ZM69.4628 520.384C70.1628 519.768 70.5268 519.068 70.5268 518.298C70.5268 517.29 69.8828 516.478 68.7768 516.478C67.8388 516.478 67.1528 517.15 67.1528 518.13C67.1528 519.362 68.2588 519.908 69.4628 520.384ZM68.7908 525.172C69.9668 525.172 70.7508 524.458 70.7508 523.436C70.7508 522.064 69.4908 521.546 68.0488 520.958C67.2088 521.49 66.6348 522.302 66.6348 523.282C66.6348 524.374 67.5588 525.172 68.7908 525.172ZM76.6545 526.138C76.1505 526.138 75.7445 525.732 75.7445 525.158C75.7445 524.57 76.1505 524.178 76.6545 524.178C77.1725 524.178 77.5925 524.57 77.5925 525.158C77.5925 525.732 77.1725 526.138 76.6545 526.138ZM58.6732 551.138C57.0632 551.138 56.0692 550.466 55.3972 549.724L56.0412 548.884C56.6432 549.514 57.4132 550.074 58.5892 550.074C59.8072 550.074 60.6752 549.332 60.6752 548.156C60.6752 546.924 59.8492 546.112 57.4832 546.112V545.118C59.5972 545.118 60.3112 544.278 60.3112 543.158C60.3112 542.178 59.6532 541.534 58.5892 541.534C57.7632 541.534 57.0352 541.954 56.4612 542.542L55.7752 541.716C56.5452 541.016 57.4552 540.498 58.6312 540.498C60.3532 540.498 61.6132 541.436 61.6132 543.074C61.6132 544.32 60.8852 545.146 59.7932 545.538V545.594C60.9972 545.888 61.9772 546.798 61.9772 548.212C61.9772 550.032 60.5072 551.138 58.6732 551.138ZM68.1328 551.138C67.0128 551.138 66.2288 550.69 65.6548 550.088L66.3688 549.276C66.8028 549.78 67.4328 550.074 68.0908 550.074C69.4628 550.074 70.6528 548.884 70.6528 545.37C70.6528 542.85 69.8548 541.492 68.4128 541.492C67.4328 541.492 66.6768 542.416 66.6768 543.83C66.6768 545.202 67.2928 546.112 68.5108 546.112C69.1968 546.112 69.9948 545.706 70.6668 544.684L70.7368 545.706C70.0928 546.518 69.1828 547.05 68.3008 547.05C66.5788 547.05 65.4728 545.958 65.4728 543.83C65.4728 541.842 66.8168 540.498 68.4128 540.498C70.3868 540.498 71.8568 542.108 71.8568 545.37C71.8568 549.542 70.0648 551.138 68.1328 551.138ZM76.6545 551.138C76.1505 551.138 75.7445 550.732 75.7445 550.158C75.7445 549.57 76.1505 549.178 76.6545 549.178C77.1725 549.178 77.5925 549.57 77.5925 550.158C77.5925 550.732 77.1725 551.138 76.6545 551.138ZM59.7372 575.942V568.956C59.7372 568.438 59.7792 567.612 59.8212 567.08H59.7512C59.4992 567.584 59.2192 568.102 58.9392 568.606L56.6012 572.106H62.3132V573.114H55.2572V572.274L59.5272 565.68H60.9412V575.942H59.7372ZM68.7488 576.138C66.7888 576.138 65.5428 574.36 65.5428 570.776C65.5428 567.22 66.7888 565.498 68.7488 565.498C70.6808 565.498 71.9268 567.22 71.9268 570.776C71.9268 574.36 70.6808 576.138 68.7488 576.138ZM68.7488 575.102C69.9108 575.102 70.6948 573.8 70.6948 570.776C70.6948 567.794 69.9108 566.52 68.7488 566.52C67.5728 566.52 66.7748 567.794 66.7748 570.776C66.7748 573.8 67.5728 575.102 68.7488 575.102ZM76.6545 576.138C76.1505 576.138 75.7445 575.732 75.7445 575.158C75.7445 574.57 76.1505 574.178 76.6545 574.178C77.1725 574.178 77.5925 574.57 77.5925 575.158C77.5925 575.732 77.1725 576.138 76.6545 576.138Z" fill="#1C276D"/>
</svg>
