<svg width="164" height="184" viewBox="0 0 164 184" fill="none" xmlns="http://www.w3.org/2000/svg">
<path fill-rule="evenodd" clip-rule="evenodd" d="M68.917 9.70694C37.8008 14.7833 16.0821 43.581 20.3727 74.1456C24.6743 104.789 53.4906 125.604 84.7358 120.638C115.981 115.672 137.823 86.804 133.521 56.1605C133.516 56.1208 133.51 56.0812 133.505 56.0416L76.689 65.0725L68.917 9.70694Z" fill="#FFDE67"/>
<ellipse cx="4.72293" cy="4.65131" rx="4.72293" ry="4.65131" transform="matrix(0.999398 0.0180925 -0.04289 0.999532 35.4404 44.2661)" fill="#1C276D"/>
<ellipse cx="4.72293" cy="4.65131" rx="4.72293" ry="4.65131" transform="matrix(0.999398 0.0180925 -0.04289 0.999532 51.1738 44.5508)" fill="#1C276D"/>
<path d="M40.6787 61.3467C42.555 63.9968 47.8108 67.5973 53.8236 60.7984" stroke="#1C276D"/>
<path d="M35.9443 64.375C37.7844 64.5387 41.3011 63.6378 40.6477 58.7253" stroke="#1C276D"/>
<path d="M54.5752 58.0317C53.6517 59.633 53.0186 63.1487 57.8745 64.4011" stroke="#1C276D"/>
<path d="M132 66.1758C132 97.3799 106.704 122.676 75.5 122.676C44.2959 122.676 19 97.3799 19 66.1758C19 34.9717 44.2959 9.67578 75.5 9.67578C106.704 9.67578 132 34.9717 132 66.1758Z" stroke="#4395E6" stroke-width="4"/>
<rect y="155.676" width="69" height="28" rx="14" fill="#4395E6"/>
<path d="M17.954 174.454H34.064V175.588H17.954V174.454ZM21.302 171.286H29.816V172.312H21.302V171.286ZM25.496 173.662H26.828V177.676C26.828 178.378 26.666 178.702 26.09 178.9C25.532 179.08 24.614 179.08 23.174 179.08C23.102 178.738 22.904 178.27 22.724 177.928C23.822 177.964 24.848 177.964 25.136 177.964C25.424 177.946 25.496 177.892 25.496 177.64V173.662ZM29.474 171.286H29.798L30.086 171.214L30.896 171.898C29.618 172.87 27.782 173.806 26.162 174.382C26.018 174.166 25.694 173.824 25.496 173.662C26.936 173.158 28.628 172.258 29.474 171.52V171.286ZM18.332 169.018H33.704V172.312H32.372V170.062H19.628V172.312H18.332V169.018ZM31.418 163.24H32.696C32.588 165.31 32.408 167.992 32.228 169.594H30.932C31.148 167.956 31.328 165.256 31.418 163.24ZM28.502 163.24H31.958V164.176H28.502V163.24ZM22.922 162.718L23.534 163.546C22.49 163.96 20.996 164.23 19.934 164.392L19.43 163.6C20.474 163.438 22.022 162.988 22.922 162.718ZM20.15 165.166H23.426V166.084H20.15V165.166ZM20.24 167.074H23.516V168.01H20.24V167.074ZM28.592 165.166H31.814V166.084H28.592V165.166ZM28.484 167.074H31.67V168.01H28.484V167.074ZM26.864 162.736L27.818 162.988C26.99 164.104 25.658 165.148 24.434 165.814C24.272 165.634 23.894 165.292 23.66 165.148C24.902 164.554 26.144 163.672 26.864 162.736ZM24.002 163.546L24.668 162.952C25.856 163.474 27.314 164.338 28.052 164.986L27.35 165.652C26.648 164.986 25.208 164.104 24.002 163.546ZM26.9 165.76L27.854 166.048C26.99 167.218 25.586 168.316 24.29 169C24.146 168.82 23.768 168.442 23.552 168.28C24.83 167.686 26.162 166.768 26.9 165.76ZM23.948 166.57L24.632 165.976C25.856 166.552 27.368 167.488 28.106 168.19L27.386 168.874C26.684 168.154 25.19 167.182 23.948 166.57ZM19.43 163.6L20.726 163.96L21.086 169.54H19.808L19.43 163.6ZM37.412 163.276H50.57V164.266H37.412V163.276ZM36.044 170.296H44.468V171.178H36.044V170.296ZM45.962 170.062H50.678V171.124H45.962V170.062ZM45.962 172.528H50.678V173.482H45.962V172.528ZM45.62 174.94H50.678V175.912H45.62V174.94ZM35.936 176.668H44.234V177.586H35.936V176.668ZM43.28 163.69H44.594V169.612H43.28V163.69ZM39.59 172.186H40.76V179.116H39.59V172.186ZM36.368 165.166H51.65V168.046H50.372V166.03H37.592V168.046H36.368V165.166ZM37.718 174.166V175.192H42.686V174.166H37.718ZM36.692 173.392H43.766V175.948H36.692V173.392ZM37.718 169.558H38.798V171.97H41.66V169.558H42.794V172.726H37.718V169.558ZM45.242 170.062H46.43V173.428C46.43 175.21 46.196 177.568 44.81 179.152C44.576 178.972 44.036 178.648 43.748 178.54C45.08 177.046 45.242 175.012 45.242 173.41V170.062ZM50.012 170.062H51.254V177.676C51.254 178.324 51.128 178.648 50.66 178.846C50.192 179.026 49.436 179.044 48.23 179.044C48.176 178.738 48.014 178.27 47.87 177.946C48.716 177.964 49.472 177.964 49.706 177.946C49.94 177.946 50.012 177.874 50.012 177.658V170.062ZM38.078 168.316C39.212 168.172 40.778 167.956 42.38 167.704L42.434 168.532C41.012 168.82 39.662 169.09 38.456 169.324L38.078 168.316ZM38.618 166.84L38.978 166.12C40.13 166.246 41.66 166.534 42.47 166.84L42.128 167.65C41.3 167.362 39.788 167.002 38.618 166.84ZM49.022 165.994L49.58 166.75C48.554 167.128 47.096 167.416 46.052 167.578L45.602 166.912C46.628 166.732 48.14 166.282 49.022 165.994ZM45.44 168.406L45.746 167.632C47.132 167.794 48.968 168.172 49.958 168.514L49.67 169.378C48.68 169.036 46.862 168.604 45.44 168.406Z" fill="#EFF5FF"/>
<path d="M92 169.676C92 161.944 98.268 155.676 106 155.676H150C157.732 155.676 164 161.944 164 169.676C164 177.408 157.732 183.676 150 183.676H106C98.268 183.676 92 177.408 92 169.676Z" fill="#4395E6"/>
<path d="M105.6 175.676V163.948H107.376L109.632 170.236C109.92 171.036 110.192 171.852 110.48 172.684H110.544C110.832 171.852 111.088 171.036 111.36 170.236L113.584 163.948H115.376V175.676H114V169.196C114 168.172 114.112 166.764 114.192 165.724H114.112L113.184 168.396L110.96 174.508H109.968L107.744 168.396L106.816 165.724H106.752C106.832 166.764 106.944 168.172 106.944 169.196V175.676H105.6ZM120.456 175.9C119 175.9 117.912 174.988 117.912 173.42C117.912 171.532 119.544 170.588 123.24 170.172C123.24 169.052 122.888 167.98 121.464 167.98C120.44 167.98 119.528 168.46 118.856 168.924L118.28 167.9C119.08 167.388 120.296 166.78 121.688 166.78C123.816 166.78 124.712 168.188 124.712 170.348V175.676H123.512L123.384 174.652H123.32C122.504 175.34 121.528 175.9 120.456 175.9ZM120.856 174.716C121.704 174.716 122.408 174.316 123.24 173.564V171.148C120.312 171.484 119.336 172.204 119.336 173.324C119.336 174.316 120.008 174.716 120.856 174.716ZM127.472 175.676V166.988H128.656L128.8 168.572H128.848C129.44 167.468 130.336 166.78 131.312 166.78C131.696 166.78 131.952 166.828 132.24 166.956L131.968 168.236C131.664 168.14 131.472 168.092 131.12 168.092C130.4 168.092 129.504 168.62 128.928 170.108V175.676H127.472ZM136.395 175.9C134.539 175.9 133.931 174.732 133.931 173.004V168.172H132.635V167.084L133.995 166.988L134.155 164.54H135.387V166.988H137.739V168.172H135.387V173.036C135.387 174.092 135.723 174.716 136.731 174.716C137.035 174.716 137.435 174.588 137.707 174.476L137.995 175.564C137.515 175.74 136.939 175.9 136.395 175.9ZM139.706 175.676V166.988H141.162V175.676H139.706ZM140.442 165.196C139.866 165.196 139.466 164.828 139.466 164.22C139.466 163.66 139.866 163.292 140.442 163.292C141.002 163.292 141.418 163.66 141.418 164.22C141.418 164.828 141.002 165.196 140.442 165.196ZM144.113 175.676V166.988H145.297L145.441 168.252H145.489C146.305 167.436 147.201 166.78 148.401 166.78C150.225 166.78 151.057 167.964 151.057 170.172V175.676H149.585V170.364C149.585 168.732 149.089 168.044 147.937 168.044C147.057 168.044 146.433 168.508 145.569 169.372V175.676H144.113Z" fill="#EFF5FF"/>
</svg>
