<svg width="207" height="181" viewBox="0 0 207 181" fill="none" xmlns="http://www.w3.org/2000/svg">
<g filter="url(#filter0_d_390_70)">
<rect y="9.92334" width="199" height="163" rx="10" fill="#FFFEF6"/>
</g>
<path fill-rule="evenodd" clip-rule="evenodd" d="M166.144 10.9234L189 10.9233C193.971 10.9233 198 14.9528 198 19.9233V162.923C198 167.894 193.971 171.923 189 171.923H10C5.02944 171.923 1 167.894 1 162.923V19.9233C1 14.9528 5.02944 10.9233 10 10.9233L32.8431 10.9234V10.9596H32.8666V14.6165C30.8723 15.9914 29.5652 18.2916 29.5652 20.8971C29.5652 25.1073 32.9782 28.5203 37.1884 28.5203C41.3986 28.5203 44.8116 25.1073 44.8116 20.8971C44.8116 18.2915 43.5044 15.9911 41.5099 14.6163V10.9596H41.5411V10.9233L64.0051 10.9234V10.9596H64.0224V14.6165C62.0281 15.9914 60.7209 18.2916 60.7209 20.8971C60.7209 25.1073 64.134 28.5203 68.3442 28.5203C72.5544 28.5203 75.9674 25.1073 75.9674 20.8971C75.9674 18.2915 74.6601 15.9911 72.6657 14.6163V10.9596H72.6964V10.9234H95.1543V10.9596H95.1781V14.6165C93.1838 15.9914 91.8767 18.2916 91.8767 20.8971C91.8767 25.1073 95.2897 28.5203 99.4999 28.5203C103.71 28.5203 107.123 25.1073 107.123 20.8971C107.123 18.2915 105.816 15.9911 103.821 14.6163V10.9596H103.846V10.9234H126.304V10.9596H126.334V14.6165C124.34 15.9914 123.032 18.2916 123.032 20.8971C123.032 25.1073 126.446 28.5203 130.656 28.5203C134.866 28.5203 138.279 25.1073 138.279 20.8971C138.279 18.2915 136.972 15.9911 134.977 14.6163V10.9596H134.995V10.9234H157.453V10.9596H157.49V14.6165C155.495 15.9914 154.188 18.2916 154.188 20.8971C154.188 25.1073 157.601 28.5203 161.811 28.5203C166.022 28.5203 169.435 25.1073 169.435 20.8971C169.435 18.2915 168.127 15.9911 166.133 14.6163V10.9596H166.144V10.9234ZM166.133 10.9234H166.144V9.92334H189C194.523 9.92334 199 14.4005 199 19.9233V162.923C199 168.446 194.523 172.923 189 172.923H10C4.47715 172.923 0 168.446 0 162.923V19.9233C0 14.4005 4.47715 9.92334 10 9.92334H32.8431V10.9234H32.8666V10.9596H33.8666V14.6165V15.1417L33.4342 15.4398C31.6991 16.636 30.5652 18.6343 30.5652 20.8971C30.5652 24.555 33.5305 27.5203 37.1884 27.5203C40.8463 27.5203 43.8116 24.555 43.8116 20.8971C43.8116 18.6341 42.6776 16.6358 40.9423 15.4396L40.5099 15.1415V14.6163V10.9596H41.5099V10.9233H41.5411V9.92334H64.0051V10.9234H64.0224V10.9596H65.0224V14.6165V15.1417L64.59 15.4398C62.8548 16.636 61.7209 18.6343 61.7209 20.8971C61.7209 24.555 64.6863 27.5203 68.3442 27.5203C72.0021 27.5203 74.9674 24.555 74.9674 20.8971C74.9674 18.6341 73.8334 16.6358 72.0981 15.4396L71.6657 15.1415V14.6163V10.9596H72.6657V10.9234H72.6964V9.92334H95.1543V10.9234H95.1781V10.9596H96.1781V14.6165V15.1417L95.7457 15.4398C94.0106 16.636 92.8767 18.6343 92.8767 20.8971C92.8767 24.555 95.842 27.5203 99.4999 27.5203C103.158 27.5203 106.123 24.555 106.123 20.8971C106.123 18.6341 104.989 16.6358 103.254 15.4396L102.821 15.1415V14.6163V10.9596H103.821V10.9234H103.846V9.92334H126.304V10.9234H126.334V10.9596H127.334V14.6165V15.1417L126.901 15.4398C125.166 16.636 124.032 18.6343 124.032 20.8971C124.032 24.555 126.998 27.5203 130.656 27.5203C134.314 27.5203 137.279 24.555 137.279 20.8971C137.279 18.6341 136.145 16.6358 134.41 15.4396L133.977 15.1415V14.6163V10.9596H134.977V10.9234H134.995V9.92334H157.453V10.9234H157.49V10.9596H158.489V10.9234H158.49V14.6165V15.1417L158.057 15.4398C156.322 16.636 155.188 18.6343 155.188 20.8971C155.188 24.555 158.154 27.5203 161.811 27.5203C165.469 27.5203 168.435 24.555 168.435 20.8971C168.435 18.6342 167.301 16.6358 165.565 15.4396L165.133 15.1415V14.6163V10.9596H166.133V10.9234ZM165.108 9.92334V10.9596H165.133V10.9234H166.133V9.92337H165.133L165.108 9.92334ZM158.489 9.92334H165.108L158.49 9.92337L158.489 9.92334ZM158.489 9.92334V10.9234H157.49V9.92337L158.489 9.92334ZM134.977 10.9234V9.92337H133.977L133.959 9.92334V10.9596H133.977V10.9234H134.977ZM127.334 10.9596V10.9234H126.334V9.92337H127.334L127.34 9.92334V10.9596H127.334ZM103.821 10.9234H102.821V10.9596H102.809V9.92334L102.821 9.92337H103.821V10.9234ZM96.1781 10.9596V10.9234H95.1781V9.92337H96.1781L96.1906 9.92334V10.9596H96.1781ZM72.6657 10.9234H71.6657V10.9596H71.6602V9.92334L71.6657 9.92337H72.6657V10.9234ZM65.0224 10.9596V10.9234H64.0224V9.92337H65.0224L65.0414 9.92334V10.9596H65.0224ZM40.5049 10.9233V9.92334L40.5099 9.92337H41.5099V10.9233H40.5049ZM40.5049 10.9233V10.9596H40.5099V10.9234L40.5049 10.9233ZM33.8794 9.92334V10.9234V10.9596H33.8666V10.9234H32.8666V9.92337H33.8666L33.8794 9.92334ZM33.8794 9.92334H39.6463L37.289 9.92337L33.8794 9.92334Z" fill="#276BC6"/>
<rect x="106.904" y="131.423" width="72.3529" height="25" rx="12.5" fill="#4395E6" stroke="#4395E6"/>
<mask id="path-4-inside-1_390_70" fill="white">
<path d="M121.367 147.076C119.639 147.076 118.319 145.816 118.319 143.668C118.319 141.484 119.783 140.236 121.451 140.236C122.303 140.236 122.903 140.584 123.359 141.004L122.807 141.724C122.423 141.376 122.015 141.148 121.511 141.148C120.311 141.148 119.447 142.156 119.447 143.668C119.447 145.156 120.275 146.164 121.475 146.164C122.063 146.164 122.603 145.876 123.011 145.516L123.479 146.248C122.903 146.764 122.147 147.076 121.367 147.076ZM127.144 147.076C125.536 147.076 124.12 145.816 124.12 143.668C124.12 141.484 125.536 140.236 127.144 140.236C128.74 140.236 130.156 141.484 130.156 143.668C130.156 145.816 128.74 147.076 127.144 147.076ZM127.144 146.164C128.272 146.164 129.028 145.156 129.028 143.668C129.028 142.156 128.272 141.148 127.144 141.148C126.004 141.148 125.248 142.156 125.248 143.668C125.248 145.156 126.004 146.164 127.144 146.164ZM131.889 146.908V140.392H132.777L132.885 141.34H132.921C133.533 140.728 134.205 140.236 135.105 140.236C136.473 140.236 137.097 141.124 137.097 142.78V146.908H135.993V142.924C135.993 141.7 135.621 141.184 134.757 141.184C134.097 141.184 133.629 141.532 132.981 142.18V146.908H131.889ZM141.253 147.076C139.861 147.076 139.405 146.2 139.405 144.904V141.28H138.433V140.464L139.453 140.392L139.573 138.556H140.497V140.392H142.261V141.28H140.497V144.928C140.497 145.72 140.749 146.188 141.505 146.188C141.733 146.188 142.033 146.092 142.237 146.008L142.453 146.824C142.093 146.956 141.661 147.076 141.253 147.076ZM143.737 146.908V140.392H144.829V146.908H143.737ZM144.289 139.048C143.857 139.048 143.557 138.772 143.557 138.316C143.557 137.896 143.857 137.62 144.289 137.62C144.709 137.62 145.021 137.896 145.021 138.316C145.021 138.772 144.709 139.048 144.289 139.048ZM147.042 146.908V140.392H147.93L148.038 141.34H148.074C148.686 140.728 149.358 140.236 150.258 140.236C151.626 140.236 152.25 141.124 152.25 142.78V146.908H151.146V142.924C151.146 141.7 150.774 141.184 149.91 141.184C149.25 141.184 148.782 141.532 148.134 142.18V146.908H147.042ZM156.262 147.076C154.894 147.076 154.27 146.188 154.27 144.52V140.392H155.362V144.388C155.362 145.6 155.734 146.116 156.598 146.116C157.258 146.116 157.738 145.792 158.35 145.024V140.392H159.442V146.908H158.542L158.446 145.888H158.422C157.81 146.596 157.162 147.076 156.262 147.076ZM164.283 147.076C162.543 147.076 161.163 145.804 161.163 143.668C161.163 141.544 162.591 140.236 164.091 140.236C165.747 140.236 166.683 141.424 166.683 143.296C166.683 143.524 166.671 143.752 166.635 143.92H162.243C162.327 145.3 163.167 146.2 164.415 146.2C165.039 146.2 165.555 145.996 166.035 145.672L166.431 146.404C165.855 146.776 165.171 147.076 164.283 147.076ZM162.231 143.128H165.723C165.723 141.82 165.135 141.112 164.103 141.112C163.191 141.112 162.375 141.844 162.231 143.128Z"/>
</mask>
<path d="M121.367 147.076C119.639 147.076 118.319 145.816 118.319 143.668C118.319 141.484 119.783 140.236 121.451 140.236C122.303 140.236 122.903 140.584 123.359 141.004L122.807 141.724C122.423 141.376 122.015 141.148 121.511 141.148C120.311 141.148 119.447 142.156 119.447 143.668C119.447 145.156 120.275 146.164 121.475 146.164C122.063 146.164 122.603 145.876 123.011 145.516L123.479 146.248C122.903 146.764 122.147 147.076 121.367 147.076ZM127.144 147.076C125.536 147.076 124.12 145.816 124.12 143.668C124.12 141.484 125.536 140.236 127.144 140.236C128.74 140.236 130.156 141.484 130.156 143.668C130.156 145.816 128.74 147.076 127.144 147.076ZM127.144 146.164C128.272 146.164 129.028 145.156 129.028 143.668C129.028 142.156 128.272 141.148 127.144 141.148C126.004 141.148 125.248 142.156 125.248 143.668C125.248 145.156 126.004 146.164 127.144 146.164ZM131.889 146.908V140.392H132.777L132.885 141.34H132.921C133.533 140.728 134.205 140.236 135.105 140.236C136.473 140.236 137.097 141.124 137.097 142.78V146.908H135.993V142.924C135.993 141.7 135.621 141.184 134.757 141.184C134.097 141.184 133.629 141.532 132.981 142.18V146.908H131.889ZM141.253 147.076C139.861 147.076 139.405 146.2 139.405 144.904V141.28H138.433V140.464L139.453 140.392L139.573 138.556H140.497V140.392H142.261V141.28H140.497V144.928C140.497 145.72 140.749 146.188 141.505 146.188C141.733 146.188 142.033 146.092 142.237 146.008L142.453 146.824C142.093 146.956 141.661 147.076 141.253 147.076ZM143.737 146.908V140.392H144.829V146.908H143.737ZM144.289 139.048C143.857 139.048 143.557 138.772 143.557 138.316C143.557 137.896 143.857 137.62 144.289 137.62C144.709 137.62 145.021 137.896 145.021 138.316C145.021 138.772 144.709 139.048 144.289 139.048ZM147.042 146.908V140.392H147.93L148.038 141.34H148.074C148.686 140.728 149.358 140.236 150.258 140.236C151.626 140.236 152.25 141.124 152.25 142.78V146.908H151.146V142.924C151.146 141.7 150.774 141.184 149.91 141.184C149.25 141.184 148.782 141.532 148.134 142.18V146.908H147.042ZM156.262 147.076C154.894 147.076 154.27 146.188 154.27 144.52V140.392H155.362V144.388C155.362 145.6 155.734 146.116 156.598 146.116C157.258 146.116 157.738 145.792 158.35 145.024V140.392H159.442V146.908H158.542L158.446 145.888H158.422C157.81 146.596 157.162 147.076 156.262 147.076ZM164.283 147.076C162.543 147.076 161.163 145.804 161.163 143.668C161.163 141.544 162.591 140.236 164.091 140.236C165.747 140.236 166.683 141.424 166.683 143.296C166.683 143.524 166.671 143.752 166.635 143.92H162.243C162.327 145.3 163.167 146.2 164.415 146.2C165.039 146.2 165.555 145.996 166.035 145.672L166.431 146.404C165.855 146.776 165.171 147.076 164.283 147.076ZM162.231 143.128H165.723C165.723 141.82 165.135 141.112 164.103 141.112C163.191 141.112 162.375 141.844 162.231 143.128Z" fill="#EFF5FF"/>
<path d="M123.359 141.004L125.74 142.829L127.407 140.654L125.391 138.798L123.359 141.004ZM122.807 141.724L120.792 143.947L123.206 146.134L125.188 143.549L122.807 141.724ZM123.011 145.516L125.539 143.9L123.652 140.95L121.026 143.267L123.011 145.516ZM123.479 146.248L125.481 148.483L127.38 146.781L126.007 144.632L123.479 146.248ZM121.367 144.076C121.301 144.076 121.287 144.065 121.308 144.074C121.332 144.083 121.362 144.103 121.386 144.128C121.408 144.152 121.397 144.152 121.376 144.094C121.354 144.033 121.319 143.898 121.319 143.668H115.319C115.319 145.362 115.849 146.993 117.004 148.227C118.168 149.471 119.749 150.076 121.367 150.076V144.076ZM121.319 143.668C121.319 143.459 121.353 143.341 121.373 143.289C121.393 143.238 121.407 143.228 121.4 143.235C121.377 143.259 121.373 143.236 121.451 143.236V137.236C119.861 137.236 118.291 137.838 117.119 139.031C115.933 140.239 115.319 141.881 115.319 143.668H121.319ZM121.451 143.236C121.458 143.236 121.445 143.237 121.417 143.231C121.389 143.225 121.36 143.215 121.334 143.204C121.281 143.18 121.277 143.165 121.327 143.211L125.391 138.798C124.537 138.011 123.244 137.236 121.451 137.236V143.236ZM120.978 139.179L120.426 139.899L125.188 143.549L125.74 142.829L120.978 139.179ZM124.822 139.501C124.138 138.882 123.042 138.148 121.511 138.148V144.148C121.287 144.148 121.08 144.092 120.924 144.019C120.79 143.955 120.743 143.902 120.792 143.947L124.822 139.501ZM121.511 138.148C120.006 138.148 118.649 138.807 117.721 139.925C116.824 141.006 116.447 142.356 116.447 143.668H122.447C122.447 143.468 122.502 143.559 122.338 143.757C122.254 143.858 122.13 143.963 121.965 144.041C121.799 144.12 121.638 144.148 121.511 144.148V138.148ZM116.447 143.668C116.447 144.948 116.804 146.288 117.686 147.37C118.606 148.498 119.963 149.164 121.475 149.164V143.164C121.603 143.164 121.77 143.193 121.946 143.277C122.12 143.36 122.25 143.473 122.336 143.579C122.504 143.785 122.447 143.876 122.447 143.668H116.447ZM121.475 149.164C123.038 149.164 124.255 148.419 124.996 147.766L121.026 143.267C121.01 143.281 121.022 143.265 121.077 143.24C121.137 143.213 121.275 143.164 121.475 143.164V149.164ZM120.483 147.132L120.951 147.864L126.007 144.632L125.539 143.9L120.483 147.132ZM121.477 144.014C121.449 144.039 121.418 144.057 121.391 144.068C121.366 144.078 121.357 144.076 121.367 144.076V150.076C122.941 150.076 124.397 149.454 125.481 148.483L121.477 144.014ZM127.144 144.076C127.135 144.076 127.143 144.075 127.161 144.082C127.18 144.09 127.195 144.102 127.203 144.11C127.211 144.119 127.195 144.107 127.175 144.052C127.153 143.995 127.12 143.874 127.12 143.668H121.12C121.12 147.33 123.739 150.076 127.144 150.076V144.076ZM127.12 143.668C127.12 143.448 127.155 143.318 127.178 143.257C127.2 143.198 127.216 143.187 127.205 143.198C127.195 143.209 127.178 143.222 127.157 143.23C127.138 143.238 127.131 143.236 127.144 143.236V137.236C123.732 137.236 121.12 139.978 121.12 143.668H127.12ZM127.144 143.236C127.15 143.236 127.14 143.237 127.119 143.228C127.097 143.219 127.079 143.205 127.069 143.195C127.059 143.184 127.075 143.196 127.098 143.256C127.12 143.317 127.156 143.448 127.156 143.668H133.156C133.156 139.986 130.551 137.236 127.144 137.236V143.236ZM127.156 143.668C127.156 143.874 127.122 143.996 127.101 144.053C127.08 144.109 127.064 144.122 127.072 144.113C127.079 144.105 127.095 144.093 127.115 144.084C127.135 144.076 127.146 144.076 127.144 144.076V150.076C130.544 150.076 133.156 147.322 133.156 143.668H127.156ZM127.144 149.164C128.701 149.164 130.039 148.428 130.905 147.279C131.721 146.197 132.028 144.888 132.028 143.668H126.028C126.028 143.936 125.957 143.876 126.113 143.669C126.197 143.557 126.338 143.42 126.545 143.314C126.755 143.206 126.968 143.164 127.144 143.164V149.164ZM132.028 143.668C132.028 142.446 131.725 141.132 130.911 140.044C130.045 138.886 128.703 138.148 127.144 138.148V144.148C126.968 144.148 126.753 144.106 126.541 143.997C126.332 143.889 126.191 143.751 126.107 143.639C125.952 143.432 126.028 143.378 126.028 143.668H132.028ZM127.144 138.148C125.59 138.148 124.243 138.877 123.37 140.039C122.55 141.13 122.248 142.446 122.248 143.668H128.248C128.248 143.378 128.323 143.435 128.166 143.644C128.081 143.757 127.939 143.895 127.732 144.001C127.521 144.108 127.312 144.148 127.144 144.148V138.148ZM122.248 143.668C122.248 144.888 122.555 146.199 123.376 147.285C124.249 148.437 125.592 149.164 127.144 149.164V143.164C127.312 143.164 127.52 143.204 127.728 143.31C127.933 143.415 128.075 143.551 128.16 143.664C128.319 143.873 128.248 143.937 128.248 143.668H122.248ZM131.889 146.908H128.889V149.908H131.889V146.908ZM131.889 140.392V137.392H128.889V140.392H131.889ZM132.777 140.392L135.758 140.053L135.455 137.392H132.777V140.392ZM132.885 141.34L129.904 141.68L130.208 144.34H132.885V141.34ZM132.921 141.34V144.34H134.164L135.042 143.462L132.921 141.34ZM137.097 146.908V149.908H140.097V146.908H137.097ZM135.993 146.908H132.993V149.908H135.993V146.908ZM132.981 142.18L130.86 140.059L129.981 140.938V142.18H132.981ZM132.981 146.908V149.908H135.981V146.908H132.981ZM134.889 146.908V140.392H128.889V146.908H134.889ZM131.889 143.392H132.777V137.392H131.889V143.392ZM129.796 140.732L129.904 141.68L135.866 141.001L135.758 140.053L129.796 140.732ZM132.885 144.34H132.921V138.34H132.885V144.34ZM135.042 143.462C135.146 143.358 135.224 143.288 135.283 143.24C135.341 143.193 135.369 143.177 135.369 143.178C135.366 143.179 135.334 143.196 135.278 143.212C135.22 143.228 135.159 143.236 135.105 143.236V137.236C132.976 137.236 131.567 138.452 130.8 139.219L135.042 143.462ZM135.105 143.236C135.127 143.236 134.999 143.24 134.797 143.152C134.576 143.056 134.373 142.896 134.228 142.706C134.096 142.532 134.066 142.406 134.07 142.419C134.074 142.436 134.097 142.545 134.097 142.78H140.097C140.097 141.663 139.902 140.252 139 139.069C137.979 137.728 136.493 137.236 135.105 137.236V143.236ZM134.097 142.78V146.908H140.097V142.78H134.097ZM137.097 143.908H135.993V149.908H137.097V143.908ZM138.993 146.908V142.924H132.993V146.908H138.993ZM138.993 142.924C138.993 142.138 138.9 140.917 138.142 139.854C137.212 138.549 135.832 138.184 134.757 138.184V144.184C134.686 144.184 134.442 144.175 134.126 144.038C133.778 143.888 133.472 143.639 133.256 143.336C133.061 143.062 133.004 142.836 132.991 142.779C132.979 142.724 132.993 142.757 132.993 142.924H138.993ZM134.757 138.184C132.78 138.184 131.543 139.376 130.86 140.059L135.102 144.302C135.236 144.168 135.324 144.086 135.384 144.035C135.443 143.985 135.447 143.988 135.406 144.013C135.359 144.041 135.265 144.09 135.131 144.129C134.994 144.169 134.864 144.184 134.757 144.184V138.184ZM129.981 142.18V146.908H135.981V142.18H129.981ZM132.981 143.908H131.889V149.908H132.981V143.908ZM139.405 141.28H142.405V138.28H139.405V141.28ZM138.433 141.28H135.433V144.28H138.433V141.28ZM138.433 140.464L138.222 137.472L135.433 137.669V140.464H138.433ZM139.453 140.392L139.665 143.385L142.276 143.2L142.447 140.588L139.453 140.392ZM139.573 138.556V135.556H136.763L136.58 138.361L139.573 138.556ZM140.497 138.556H143.497V135.556H140.497V138.556ZM140.497 140.392H137.497V143.392H140.497V140.392ZM142.261 140.392H145.261V137.392H142.261V140.392ZM142.261 141.28V144.28H145.261V141.28H142.261ZM140.497 141.28V138.28H137.497V141.28H140.497ZM142.237 146.008L145.137 145.241L144.261 141.93L141.095 143.234L142.237 146.008ZM142.453 146.824L143.486 149.641L146.053 148.7L145.353 146.057L142.453 146.824ZM141.253 144.076C141.213 144.076 141.344 144.069 141.561 144.162C141.799 144.265 142.029 144.441 142.201 144.667C142.357 144.875 142.404 145.043 142.413 145.079C142.421 145.111 142.405 145.064 142.405 144.904H136.405C136.405 145.805 136.545 147.135 137.414 148.285C138.412 149.606 139.883 150.076 141.253 150.076V144.076ZM142.405 144.904V141.28H136.405V144.904H142.405ZM139.405 138.28H138.433V144.28H139.405V138.28ZM141.433 141.28V140.464H135.433V141.28H141.433ZM138.645 143.457L139.665 143.385L139.242 137.4L138.222 137.472L138.645 143.457ZM142.447 140.588L142.567 138.752L136.58 138.361L136.46 140.197L142.447 140.588ZM139.573 141.556H140.497V135.556H139.573V141.556ZM137.497 138.556V140.392H143.497V138.556H137.497ZM140.497 143.392H142.261V137.392H140.497V143.392ZM139.261 140.392V141.28H145.261V140.392H139.261ZM142.261 138.28H140.497V144.28H142.261V138.28ZM137.497 141.28V144.928H143.497V141.28H137.497ZM137.497 144.928C137.497 145.526 137.569 146.629 138.294 147.623C139.17 148.824 140.463 149.188 141.505 149.188V143.188C141.617 143.188 141.886 143.205 142.221 143.35C142.582 143.506 142.905 143.763 143.142 144.088C143.552 144.65 143.497 145.122 143.497 144.928H137.497ZM141.505 149.188C142.349 149.188 143.104 148.896 143.38 148.782L141.095 143.234C141.096 143.234 141.094 143.235 141.091 143.236C141.088 143.237 141.092 143.235 141.105 143.232C141.117 143.229 141.151 143.22 141.205 143.211C141.256 143.203 141.361 143.188 141.505 143.188V149.188ZM139.337 146.776L139.553 147.592L145.353 146.057L145.137 145.241L139.337 146.776ZM141.421 144.008C141.324 144.043 141.252 144.064 141.205 144.075C141.183 144.08 141.175 144.081 141.18 144.08C141.184 144.079 141.21 144.076 141.253 144.076V150.076C142.183 150.076 143.005 149.817 143.486 149.641L141.421 144.008ZM143.737 146.908H140.737V149.908H143.737V146.908ZM143.737 140.392V137.392H140.737V140.392H143.737ZM144.829 140.392H147.829V137.392H144.829V140.392ZM144.829 146.908V149.908H147.829V146.908H144.829ZM146.737 146.908V140.392H140.737V146.908H146.737ZM143.737 143.392H144.829V137.392H143.737V143.392ZM141.829 140.392V146.908H147.829V140.392H141.829ZM144.829 143.908H143.737V149.908H144.829V143.908ZM144.289 136.048C144.716 136.048 145.333 136.195 145.857 136.707C146.393 137.23 146.557 137.866 146.557 138.316H140.557C140.557 139.222 140.871 140.224 141.665 140.999C142.447 141.764 143.43 142.048 144.289 142.048V136.048ZM146.557 138.316C146.557 138.853 146.347 139.496 145.818 139.995C145.306 140.476 144.714 140.62 144.289 140.62V134.62C143.432 134.62 142.473 134.902 141.704 135.627C140.917 136.368 140.557 137.36 140.557 138.316H146.557ZM144.289 140.62C143.841 140.62 143.263 140.467 142.768 140.006C142.253 139.527 142.021 138.888 142.021 138.316H148.021C148.021 137.324 147.633 136.338 146.857 135.615C146.101 134.912 145.156 134.62 144.289 134.62V140.62ZM142.021 138.316C142.021 137.832 142.204 137.201 142.729 136.695C143.236 136.205 143.839 136.048 144.289 136.048V142.048C145.159 142.048 146.127 141.754 146.896 141.011C147.681 140.253 148.021 139.257 148.021 138.316H142.021ZM147.042 146.908H144.042V149.908H147.042V146.908ZM147.042 140.392V137.392H144.042V140.392H147.042ZM147.93 140.392L150.91 140.053L150.607 137.392H147.93V140.392ZM148.038 141.34L145.057 141.68L145.36 144.34H148.038V141.34ZM148.074 141.34V144.34H149.316L150.195 143.462L148.074 141.34ZM152.25 146.908V149.908H155.25V146.908H152.25ZM151.146 146.908H148.146V149.908H151.146V146.908ZM148.134 142.18L146.012 140.059L145.134 140.938V142.18H148.134ZM148.134 146.908V149.908H151.134V146.908H148.134ZM150.042 146.908V140.392H144.042V146.908H150.042ZM147.042 143.392H147.93V137.392H147.042V143.392ZM144.949 140.732L145.057 141.68L151.018 141.001L150.91 140.053L144.949 140.732ZM148.038 144.34H148.074V138.34H148.038V144.34ZM150.195 143.462C150.298 143.358 150.376 143.288 150.435 143.24C150.494 143.193 150.521 143.177 150.521 143.178C150.518 143.179 150.487 143.196 150.431 143.212C150.372 143.228 150.311 143.236 150.258 143.236V137.236C148.128 137.236 146.719 138.452 145.952 139.219L150.195 143.462ZM150.258 143.236C150.279 143.236 150.152 143.24 149.949 143.152C149.728 143.056 149.526 142.896 149.381 142.706C149.248 142.532 149.219 142.406 149.222 142.419C149.226 142.436 149.25 142.545 149.25 142.78H155.25C155.25 141.663 155.054 140.252 154.152 139.069C153.131 137.728 151.646 137.236 150.258 137.236V143.236ZM149.25 142.78V146.908H155.25V142.78H149.25ZM152.25 143.908H151.146V149.908H152.25V143.908ZM154.146 146.908V142.924H148.146V146.908H154.146ZM154.146 142.924C154.146 142.138 154.052 140.917 153.294 139.854C152.364 138.549 150.984 138.184 149.91 138.184V144.184C149.838 144.184 149.595 144.175 149.278 144.038C148.93 143.888 148.624 143.639 148.409 143.336C148.213 143.062 148.156 142.836 148.144 142.779C148.131 142.724 148.146 142.757 148.146 142.924H154.146ZM149.91 138.184C147.933 138.184 146.695 139.376 146.012 140.059L150.255 144.302C150.389 144.168 150.477 144.086 150.537 144.035C150.596 143.985 150.599 143.988 150.558 144.013C150.511 144.041 150.417 144.09 150.283 144.129C150.146 144.169 150.016 144.184 149.91 144.184V138.184ZM145.134 142.18V146.908H151.134V142.18H145.134ZM148.134 143.908H147.042V149.908H148.134V143.908ZM154.27 140.392V137.392H151.27V140.392H154.27ZM155.362 140.392H158.362V137.392H155.362V140.392ZM158.35 145.024L160.696 146.894L161.35 146.073V145.024H158.35ZM158.35 140.392V137.392H155.35V140.392H158.35ZM159.442 140.392H162.442V137.392H159.442V140.392ZM159.442 146.908V149.908H162.442V146.908H159.442ZM158.542 146.908L155.555 147.189L155.811 149.908H158.542V146.908ZM158.446 145.888L161.433 145.607L161.177 142.888H158.446V145.888ZM158.422 145.888V142.888H157.049L156.152 143.926L158.422 145.888ZM156.262 144.076C156.24 144.076 156.368 144.072 156.572 144.161C156.794 144.258 156.997 144.418 157.142 144.609C157.274 144.783 157.302 144.908 157.298 144.892C157.293 144.873 157.27 144.76 157.27 144.52H151.27C151.27 145.64 151.463 147.053 152.364 148.238C153.385 149.583 154.873 150.076 156.262 150.076V144.076ZM157.27 144.52V140.392H151.27V144.52H157.27ZM154.27 143.392H155.362V137.392H154.27V143.392ZM152.362 140.392V144.388H158.362V140.392H152.362ZM152.362 144.388C152.362 145.173 152.456 146.392 153.217 147.454C154.148 148.753 155.524 149.116 156.598 149.116V143.116C156.669 143.116 156.911 143.126 157.226 143.261C157.573 143.41 157.878 143.657 158.094 143.959C158.291 144.234 158.349 144.462 158.363 144.522C158.376 144.58 158.362 144.551 158.362 144.388H152.362ZM156.598 149.116C158.624 149.116 159.875 147.924 160.696 146.894L156.004 143.155C155.902 143.282 155.841 143.347 155.812 143.375C155.785 143.401 155.81 143.372 155.885 143.325C155.966 143.273 156.085 143.213 156.235 143.17C156.384 143.128 156.512 143.116 156.598 143.116V149.116ZM161.35 145.024V140.392H155.35V145.024H161.35ZM158.35 143.392H159.442V137.392H158.35V143.392ZM156.442 140.392V146.908H162.442V140.392H156.442ZM159.442 143.908H158.542V149.908H159.442V143.908ZM161.529 146.627L161.433 145.607L155.459 146.169L155.555 147.189L161.529 146.627ZM158.446 142.888H158.422V148.888H158.446V142.888ZM156.152 143.926C156.059 144.035 155.992 144.101 155.947 144.141C155.904 144.18 155.895 144.182 155.918 144.168C155.944 144.153 155.997 144.126 156.071 144.105C156.147 144.083 156.215 144.076 156.262 144.076V150.076C158.448 150.076 159.853 148.82 160.691 147.85L156.152 143.926ZM166.635 143.92V146.92H169.06L169.568 144.549L166.635 143.92ZM162.243 143.92V140.92H159.055L159.248 144.102L162.243 143.92ZM166.035 145.672L168.673 144.245L167.099 141.334L164.356 143.186L166.035 145.672ZM166.431 146.404L168.058 148.924L170.39 147.418L169.069 144.977L166.431 146.404ZM162.231 143.128L159.249 142.794L158.876 146.128H162.231V143.128ZM165.723 143.128V146.128H168.723V143.128H165.723ZM164.283 144.076C164.215 144.076 164.189 144.064 164.195 144.066C164.202 144.069 164.218 144.079 164.233 144.094C164.247 144.109 164.236 144.105 164.216 144.053C164.196 144 164.163 143.878 164.163 143.668H158.163C158.163 145.397 158.733 147.031 159.908 148.253C161.081 149.472 162.664 150.076 164.283 150.076V144.076ZM164.163 143.668C164.163 143.476 164.195 143.353 164.22 143.285C164.245 143.217 164.27 143.19 164.273 143.186C164.281 143.177 164.226 143.236 164.091 143.236V137.236C160.7 137.236 158.163 140.131 158.163 143.668H164.163ZM164.091 143.236C164.144 143.236 164.095 143.245 163.989 143.198C163.877 143.149 163.774 143.07 163.7 142.981C163.632 142.899 163.626 142.854 163.64 142.899C163.654 142.947 163.683 143.073 163.683 143.296H169.683C169.683 141.897 169.335 140.375 168.316 139.147C167.235 137.846 165.695 137.236 164.091 137.236V143.236ZM163.683 143.296C163.683 143.327 163.682 143.354 163.682 143.376C163.681 143.398 163.68 143.413 163.68 143.42C163.679 143.423 163.679 143.424 163.68 143.422C163.68 143.42 163.68 143.414 163.682 143.405C163.683 143.396 163.685 143.382 163.688 143.364C163.691 143.346 163.695 143.321 163.701 143.292L169.568 144.549C169.673 144.059 169.683 143.57 169.683 143.296H163.683ZM166.635 140.92H162.243V146.92H166.635V140.92ZM159.248 144.102C159.324 145.349 159.761 146.634 160.714 147.641C161.696 148.678 163.026 149.2 164.415 149.2V143.2C164.467 143.2 164.574 143.211 164.71 143.267C164.847 143.324 164.972 143.411 165.07 143.515C165.271 143.726 165.245 143.872 165.237 143.738L159.248 144.102ZM164.415 149.2C165.769 149.2 166.859 148.735 167.713 148.159L164.356 143.186C164.287 143.232 164.274 143.231 164.306 143.22C164.322 143.214 164.342 143.209 164.365 143.205C164.389 143.201 164.406 143.2 164.415 143.2V149.2ZM163.396 147.1L163.792 147.832L169.069 144.977L168.673 144.245L163.396 147.1ZM164.803 143.884C164.66 143.976 164.566 144.02 164.5 144.042C164.442 144.062 164.378 144.076 164.283 144.076V150.076C165.918 150.076 167.163 149.503 168.058 148.924L164.803 143.884ZM162.231 146.128H165.723V140.128H162.231V146.128ZM168.723 143.128C168.723 142.079 168.493 140.805 167.63 139.741C166.689 138.579 165.359 138.112 164.103 138.112V144.112C164.018 144.112 163.832 144.097 163.598 143.996C163.353 143.89 163.134 143.722 162.969 143.519C162.658 143.135 162.723 142.87 162.723 143.128H168.723ZM164.103 138.112C161.318 138.112 159.522 140.362 159.249 142.794L165.212 143.463C165.221 143.381 165.223 143.532 165.023 143.736C164.815 143.949 164.482 144.112 164.103 144.112V138.112Z" fill="#EFF5FF" mask="url(#path-4-inside-1_390_70)"/>
<g opacity="0.6">
<line x1="25.7266" y1="73.9233" x2="173.273" y2="73.9233" stroke="#276BC6" stroke-width="2"/>
<line x1="25.7266" y1="115.923" x2="173.273" y2="115.923" stroke="#276BC6" stroke-width="2"/>
</g>
<path d="M75.418 19.8481L79.482 10.1185L75.418 -0.000120163L123.582 -0.000120163L120.534 10.1185L123.582 19.8481L75.418 19.8481Z" fill="#FFDE67"/>
<path d="M58.5423 49.3673L57.8943 50.0693C57.4983 49.6733 56.6703 49.1153 55.9683 48.8093L56.5983 48.1433C57.3003 48.4673 58.1283 48.9533 58.5423 49.3673ZM53.7363 56.6393L53.7903 57.5753C51.9183 57.9353 50.0103 58.3133 48.5343 58.5833L48.3543 57.5753C49.7223 57.3593 51.7203 56.9993 53.7363 56.6393ZM52.1703 55.0553V53.2553H50.1003V55.0553H52.1703ZM49.1643 52.4093H53.1423V55.9013H49.1643V52.4093ZM57.1563 52.1033L58.2543 52.3373C57.8043 54.0293 57.1203 55.5053 56.2563 56.7473C56.6343 57.7013 57.1203 58.3133 57.7143 58.4033C57.9663 58.4753 58.1463 57.7013 58.2723 56.5493C58.4883 56.7653 58.8843 57.0353 59.1363 57.1433C58.9023 59.1053 58.2903 59.8253 57.3543 59.4653C56.5803 59.3033 55.9683 58.6733 55.4823 57.7193C54.7803 58.5293 53.9883 59.2133 53.1063 59.7893C52.9443 59.5733 52.5483 59.1413 52.3143 58.9433C53.3763 58.3313 54.2763 57.5393 55.0323 56.6033C54.5463 55.1633 54.2403 53.3093 54.0423 51.2753H48.5343V50.2673H53.9523C53.8983 49.6373 53.8443 49.0073 53.8083 48.3593H54.9603C54.9963 49.0073 55.0323 49.6373 55.0683 50.2673H58.9923V51.2753H55.1583C55.3023 52.8233 55.5183 54.2633 55.8243 55.4153C56.4003 54.4433 56.8503 53.3273 57.1563 52.1033ZM47.5443 60.3113H59.8923V47.9093H47.5443V60.3113ZM46.2663 46.6853H61.2063V62.3453H59.8923V61.5173H47.5443V62.3453H46.2663V46.6853ZM72.3843 55.1453H77.5503V50.3753H72.3843V55.1453ZM65.8503 55.1453H70.9983V50.3753H65.8503V55.1453ZM72.3843 49.0613H78.9183V57.4853H77.5503V56.4593H72.3843V62.2913H70.9983V56.4593H65.8503V57.5753H64.5363V49.0613H70.9983V45.8573H72.3843V49.0613ZM85.5897 56.5133V55.2533H90.1977V56.5133H85.5897ZM103.829 60.0053H108.275C108.887 60.0053 109.733 59.9513 110.147 59.8433C110.201 60.2393 110.273 60.8153 110.345 61.1393C109.967 61.2293 109.139 61.2653 108.257 61.2653H103.901C101.813 61.2653 101.039 60.4913 101.039 58.3313V53.5253L96.1973 54.2993L95.9993 52.9853L101.039 52.1753V46.2713H102.443V51.9413L111.551 50.4833L111.749 51.8153L102.443 53.3093V58.4213C102.443 59.5733 102.803 60.0053 103.829 60.0053ZM118.229 56.8913H122.261V53.3273H118.229V56.8913ZM130.127 56.8913V58.1873H123.611V62.3093H122.261V58.1873H113.945V56.8913H116.897V52.0673H122.261V49.3313H117.887C117.077 50.7173 116.123 51.9413 115.151 52.8773C114.899 52.6613 114.341 52.2113 113.999 52.0313C115.691 50.5553 117.203 48.2333 118.049 45.8213L119.399 46.1453C119.147 46.7753 118.859 47.4233 118.571 48.0353H129.299V49.3313H123.611V52.0673H128.885V53.3273H123.611V56.8913H130.127ZM138.929 56.2073L137.885 56.6213C137.831 56.3153 137.741 55.9733 137.615 55.5773C133.457 56.2253 132.899 56.3693 132.539 56.5673C132.467 56.2973 132.269 55.6673 132.125 55.3073C132.503 55.2353 132.917 54.7853 133.457 54.1373C133.745 53.8133 134.321 53.0753 134.969 52.1033C133.061 52.3373 132.683 52.4273 132.431 52.5353C132.359 52.2833 132.143 51.6353 131.999 51.3113C132.305 51.2393 132.629 50.8613 133.007 50.3213C133.385 49.7993 134.627 47.7473 135.365 45.8033L136.625 46.3253C135.833 48.0173 134.843 49.7273 133.853 51.0953L135.743 50.9153C136.229 50.1413 136.697 49.3133 137.111 48.5033L138.263 49.1873C137.075 51.2573 135.671 53.3273 134.213 54.9833L137.309 54.5333C137.093 53.9753 136.859 53.3993 136.643 52.8953L137.597 52.5533C138.191 53.7413 138.749 55.2713 138.929 56.2073ZM132.863 57.3593L133.943 57.5573C133.763 59.0873 133.403 60.7793 133.025 61.8953C132.809 61.7693 132.269 61.5893 131.999 61.4993C132.413 60.4013 132.683 58.7993 132.863 57.3593ZM134.789 57.4853L135.761 57.2873C135.977 58.4213 136.193 59.8793 136.247 60.8693L135.221 61.1033C135.167 60.1313 134.987 58.6373 134.789 57.4853ZM136.733 57.1433L137.687 56.8553C138.047 57.7913 138.443 58.9793 138.605 59.7533L137.597 60.0953C137.471 59.3033 137.075 58.0793 136.733 57.1433ZM146.219 53.0393H142.619C143.033 54.6413 143.609 56.1353 144.383 57.4133C145.175 56.1533 145.805 54.6773 146.219 53.0393ZM144.815 47.9813H141.827C141.791 49.3313 141.755 50.6273 141.683 51.8333H144.149C144.383 50.6273 144.635 49.1333 144.815 47.9813ZM146.903 51.7613L147.731 52.0673C147.245 54.6953 146.345 56.8553 145.175 58.5833C146.039 59.6813 147.083 60.5453 148.343 61.1033C148.037 61.3553 147.623 61.8593 147.425 62.2193C146.219 61.6073 145.211 60.7253 144.365 59.6453C143.429 60.7613 142.349 61.6613 141.179 62.3093C140.999 61.9853 140.639 61.5173 140.333 61.3013C141.521 60.6713 142.637 59.7353 143.591 58.5293C142.709 57.0533 142.043 55.3253 141.557 53.4173C141.215 57.0173 140.513 59.9153 138.893 62.1833C138.677 61.9673 138.047 61.5173 137.723 61.3553C140.081 58.4213 140.459 53.8133 140.513 47.9813H138.749V46.7213H145.103L145.319 46.6493L146.237 46.7933C146.039 48.2693 145.733 50.2313 145.409 51.8333H146.669L146.903 51.7613Z" fill="#1C276D"/>
<path d="M49.097 102.031L49.061 102.067C50.717 101.167 51.941 99.9973 52.787 98.4493C52.211 97.0453 51.797 95.4433 51.455 93.6973C51.149 94.4533 50.825 95.1193 50.465 95.6953C50.303 95.5153 49.925 95.1913 49.655 94.9573V96.6313H45.587C45.407 97.0093 45.209 97.3873 45.011 97.7833H47.279V97.6573V97.0633H48.377V97.6753V97.7833H50.177V98.7553H48.269C48.125 99.4933 47.747 100.267 46.919 100.987C47.747 101.347 48.521 101.725 49.097 102.031ZM47.135 98.7553H44.453C44.219 99.1333 44.003 99.4933 43.787 99.8353C44.435 100.033 45.119 100.267 45.785 100.537C46.577 99.9613 46.955 99.3313 47.135 98.7553ZM42.851 94.5793V95.7673H45.083V94.5793H42.851ZM48.467 94.5793H46.145V95.7673H48.467V94.5793ZM54.695 91.6093H52.229L52.139 91.8253C52.427 93.7513 52.841 95.5333 53.453 97.0993C54.065 95.5513 54.461 93.7513 54.695 91.6093ZM43.175 92.0053H45.083V90.8533H43.175V92.0053ZM45.083 88.9633H43.175V89.9533H45.083V88.9633ZM48.197 88.9633H46.145V89.9533H48.197V88.9633ZM46.145 92.0053H48.197V90.8533H46.145V92.0053ZM57.251 91.6093H55.883C55.559 94.3813 54.983 96.6493 54.065 98.5033C54.875 100.123 55.973 101.419 57.395 102.193C57.125 102.427 56.729 102.877 56.531 103.219C55.217 102.409 54.191 101.185 53.381 99.6913C52.391 101.203 51.059 102.391 49.277 103.327C49.169 103.093 48.881 102.697 48.665 102.427L48.233 102.823C47.639 102.481 46.829 102.067 45.929 101.707C44.903 102.301 43.427 102.841 41.339 103.291C41.249 103.021 40.979 102.625 40.763 102.391C42.473 102.049 43.751 101.635 44.687 101.185C43.841 100.861 42.959 100.555 42.131 100.339C42.473 99.9073 42.851 99.3313 43.229 98.7553H40.907V97.7833H43.787C44.003 97.3873 44.183 97.0093 44.363 96.6313H41.699V93.7333H45.083V92.9413H42.131V90.9073H40.889V89.8993H42.131V88.0273H45.083V86.8573H46.145V88.0273H49.295V89.8993H50.321V90.9073H49.295V92.9413H46.145V93.7333H49.655V94.6873C50.843 92.7253 51.689 89.7913 52.193 86.8573L53.363 87.0913C53.147 88.1893 52.877 89.3233 52.589 90.4033H57.251V91.6093ZM69.149 92.4733L68.429 93.1213C68.123 92.7973 67.655 92.4553 67.133 92.0773C66.539 92.5453 65.927 92.9233 65.333 93.2473C65.207 93.0673 64.829 92.7253 64.595 92.5453C65.189 92.2753 65.765 91.9333 66.305 91.5553C65.873 91.2853 65.423 91.0513 65.009 90.8533L65.675 90.2593C66.125 90.4573 66.593 90.7273 67.061 90.9793C67.385 90.6913 67.709 90.3673 67.961 90.0253L68.897 90.3313C68.591 90.7273 68.249 91.1053 67.853 91.4833C68.357 91.8073 68.825 92.1493 69.149 92.4733ZM69.095 89.2513L68.393 89.9173C68.105 89.6473 67.637 89.3053 67.151 88.9993C66.593 89.4133 66.035 89.7913 65.477 90.0793C65.333 89.9173 64.955 89.5933 64.721 89.4313C65.279 89.1793 65.819 88.8553 66.323 88.5133C65.909 88.2613 65.459 88.0453 65.063 87.8653L65.711 87.2713C66.143 87.4513 66.593 87.6853 67.061 87.9373C67.385 87.6493 67.673 87.3433 67.907 87.0553L68.843 87.3073C68.555 87.6853 68.231 88.0453 67.853 88.4053C68.339 88.7113 68.771 88.9993 69.095 89.2513ZM60.725 94.2913V96.5233H59.447V93.2653H60.887L60.527 87.9193C61.571 87.7393 63.119 87.3073 64.001 87.0373L64.595 87.8653C63.821 88.1533 62.759 88.3873 61.823 88.5673L61.895 89.4493H64.505V90.3673H61.949L62.021 91.3393H64.577V92.2573H62.075L62.147 93.2653H72.011C72.047 92.9413 72.083 92.6173 72.119 92.2573H69.509V91.3393H72.191L72.281 90.3673H69.617V89.4493H72.335L72.389 88.4773H69.527V87.5593H73.685C73.595 89.3413 73.433 91.6633 73.289 93.2653H74.693V96.5233H73.379V94.2913H60.725ZM75.053 98.6653V99.7993H67.853V101.869C67.853 102.571 67.709 102.877 67.151 103.075C66.575 103.273 65.675 103.255 64.253 103.255C64.181 102.913 63.965 102.463 63.785 102.121C64.901 102.157 65.909 102.157 66.179 102.157C66.485 102.139 66.557 102.085 66.557 101.833V99.7993H59.051V98.6653H66.557V97.8913C67.511 97.5493 68.555 97.0453 69.419 96.5233H62.381V95.5153H70.841L71.111 95.4433L71.921 96.1093C70.805 96.9553 69.275 97.7653 67.853 98.3413V98.6653H75.053ZM80.8964 97.5133V96.2533H85.5044V97.5133H80.8964ZM99.388 102.031L99.352 102.067C101.008 101.167 102.232 99.9973 103.078 98.4493C102.502 97.0453 102.088 95.4433 101.746 93.6973C101.44 94.4533 101.116 95.1193 100.756 95.6953C100.594 95.5153 100.216 95.1913 99.946 94.9573V96.6313H95.878C95.698 97.0093 95.5 97.3873 95.302 97.7833H97.57V97.6573V97.0633H98.668V97.6753V97.7833H100.468V98.7553H98.56C98.416 99.4933 98.038 100.267 97.21 100.987C98.038 101.347 98.812 101.725 99.388 102.031ZM97.426 98.7553H94.744C94.51 99.1333 94.294 99.4933 94.078 99.8353C94.726 100.033 95.41 100.267 96.076 100.537C96.868 99.9613 97.246 99.3313 97.426 98.7553ZM93.142 94.5793V95.7673H95.374V94.5793H93.142ZM98.758 94.5793H96.436V95.7673H98.758V94.5793ZM104.986 91.6093H102.52L102.43 91.8253C102.718 93.7513 103.132 95.5333 103.744 97.0993C104.356 95.5513 104.752 93.7513 104.986 91.6093ZM93.466 92.0053H95.374V90.8533H93.466V92.0053ZM95.374 88.9633H93.466V89.9533H95.374V88.9633ZM98.488 88.9633H96.436V89.9533H98.488V88.9633ZM96.436 92.0053H98.488V90.8533H96.436V92.0053ZM107.542 91.6093H106.174C105.85 94.3813 105.274 96.6493 104.356 98.5033C105.166 100.123 106.264 101.419 107.686 102.193C107.416 102.427 107.02 102.877 106.822 103.219C105.508 102.409 104.482 101.185 103.672 99.6913C102.682 101.203 101.35 102.391 99.568 103.327C99.46 103.093 99.172 102.697 98.956 102.427L98.524 102.823C97.93 102.481 97.12 102.067 96.22 101.707C95.194 102.301 93.718 102.841 91.63 103.291C91.54 103.021 91.27 102.625 91.054 102.391C92.764 102.049 94.042 101.635 94.978 101.185C94.132 100.861 93.25 100.555 92.422 100.339C92.764 99.9073 93.142 99.3313 93.52 98.7553H91.198V97.7833H94.078C94.294 97.3873 94.474 97.0093 94.654 96.6313H91.99V93.7333H95.374V92.9413H92.422V90.9073H91.18V89.8993H92.422V88.0273H95.374V86.8573H96.436V88.0273H99.586V89.8993H100.612V90.9073H99.586V92.9413H96.436V93.7333H99.946V94.6873C101.134 92.7253 101.98 89.7913 102.484 86.8573L103.654 87.0913C103.438 88.1893 103.168 89.3233 102.88 90.4033H107.542V91.6093ZM118.252 96.4693V92.7973H115.39V86.9833H116.56V88.6573H119.53V89.7913H116.56V91.7173H118.918V91.7353H119.404V96.4693C119.404 97.0273 119.296 97.2613 118.9 97.4413C118.504 97.6033 117.874 97.6033 117.01 97.6033C116.956 97.3153 116.812 96.9553 116.668 96.6853C117.298 96.7213 117.838 96.7213 118.018 96.7033C118.216 96.7033 118.252 96.6313 118.252 96.4693ZM115.966 93.5713L117.01 93.7513C116.83 95.0113 116.452 96.2533 115.912 97.1173C115.714 96.9553 115.246 96.6673 114.976 96.5413C115.534 95.7493 115.804 94.6693 115.966 93.5713ZM114.472 99.3673L115.624 100.177C114.148 101.293 112.006 102.499 110.26 103.255C110.08 102.985 109.72 102.535 109.468 102.247C111.178 101.545 113.338 100.357 114.472 99.3673ZM119.062 100.231L119.8 99.3133C121.708 100.213 123.76 101.329 125.038 102.193L124.156 103.201C122.932 102.337 120.934 101.149 119.062 100.231ZM123.724 97.8373H125.452V99.0793H109.234V97.8373H111.052L110.71 88.3513C111.826 87.9553 113.176 87.4153 114.04 86.9653L114.688 88.0633C113.86 88.4053 112.87 88.7473 111.952 89.0353L112.024 91.1413H114.436V92.2933H112.06L112.132 94.4893H114.508V95.6413H112.186L112.258 97.8373H122.464C122.5 97.2073 122.554 96.4693 122.59 95.6953H120.25V94.5613H122.626C122.662 93.8413 122.68 93.1033 122.716 92.3473H120.34V91.1953H122.734C122.752 90.4213 122.77 89.6653 122.77 88.9453H120.178V87.7753H123.994C123.976 90.9433 123.886 95.1913 123.724 97.8373ZM135.388 102.031L135.352 102.067C137.008 101.167 138.232 99.9973 139.078 98.4493C138.502 97.0453 138.088 95.4433 137.746 93.6973C137.44 94.4533 137.116 95.1193 136.756 95.6953C136.594 95.5153 136.216 95.1913 135.946 94.9573V96.6313H131.878C131.698 97.0093 131.5 97.3873 131.302 97.7833H133.57V97.6573V97.0633H134.668V97.6753V97.7833H136.468V98.7553H134.56C134.416 99.4933 134.038 100.267 133.21 100.987C134.038 101.347 134.812 101.725 135.388 102.031ZM133.426 98.7553H130.744C130.51 99.1333 130.294 99.4933 130.078 99.8353C130.726 100.033 131.41 100.267 132.076 100.537C132.868 99.9613 133.246 99.3313 133.426 98.7553ZM129.142 94.5793V95.7673H131.374V94.5793H129.142ZM134.758 94.5793H132.436V95.7673H134.758V94.5793ZM140.986 91.6093H138.52L138.43 91.8253C138.718 93.7513 139.132 95.5333 139.744 97.0993C140.356 95.5513 140.752 93.7513 140.986 91.6093ZM129.466 92.0053H131.374V90.8533H129.466V92.0053ZM131.374 88.9633H129.466V89.9533H131.374V88.9633ZM134.488 88.9633H132.436V89.9533H134.488V88.9633ZM132.436 92.0053H134.488V90.8533H132.436V92.0053ZM143.542 91.6093H142.174C141.85 94.3813 141.274 96.6493 140.356 98.5033C141.166 100.123 142.264 101.419 143.686 102.193C143.416 102.427 143.02 102.877 142.822 103.219C141.508 102.409 140.482 101.185 139.672 99.6913C138.682 101.203 137.35 102.391 135.568 103.327C135.46 103.093 135.172 102.697 134.956 102.427L134.524 102.823C133.93 102.481 133.12 102.067 132.22 101.707C131.194 102.301 129.718 102.841 127.63 103.291C127.54 103.021 127.27 102.625 127.054 102.391C128.764 102.049 130.042 101.635 130.978 101.185C130.132 100.861 129.25 100.555 128.422 100.339C128.764 99.9073 129.142 99.3313 129.52 98.7553H127.198V97.7833H130.078C130.294 97.3873 130.474 97.0093 130.654 96.6313H127.99V93.7333H131.374V92.9413H128.422V90.9073H127.18V89.8993H128.422V88.0273H131.374V86.8573H132.436V88.0273H135.586V89.8993H136.612V90.9073H135.586V92.9413H132.436V93.7333H135.946V94.6873C137.134 92.7253 137.98 89.7913 138.484 86.8573L139.654 87.0913C139.438 88.1893 139.168 89.3233 138.88 90.4033H143.542V91.6093ZM151.318 97.4593L150.22 97.7833C150.184 97.4773 150.112 97.1173 150.04 96.7573C146.458 97.2793 145.9 97.4053 145.576 97.5853C145.504 97.2973 145.288 96.6673 145.144 96.3073C145.522 96.2173 145.918 95.7853 146.458 95.1193C146.728 94.8133 147.304 94.0753 147.934 93.1213C146.098 93.3553 145.72 93.4273 145.468 93.5353C145.396 93.2833 145.18 92.6533 145.036 92.3293C145.342 92.2573 145.648 91.8793 145.99 91.3393C146.386 90.8173 147.592 88.7653 148.294 86.8393L149.536 87.3433C148.762 89.0353 147.79 90.7813 146.818 92.1133L148.69 91.9333C149.176 91.1773 149.626 90.3493 150.022 89.5393L151.21 90.2233C150.058 92.2933 148.636 94.3633 147.196 96.0373L149.788 95.6953C149.626 95.0833 149.446 94.4533 149.248 93.9133L150.274 93.6433C150.706 94.8853 151.174 96.5053 151.318 97.4593ZM145.9 98.3593L146.98 98.5393C146.782 100.123 146.458 101.833 146.062 102.967C145.828 102.841 145.324 102.661 145.036 102.571C145.468 101.455 145.738 99.8353 145.9 98.3593ZM147.646 98.5033L148.654 98.3233C148.852 99.5473 149.05 101.113 149.104 102.157L148.042 102.337C148.024 101.311 147.844 99.7093 147.646 98.5033ZM149.32 98.1613L150.256 97.8913C150.616 98.7913 150.994 99.9973 151.156 100.771L150.166 101.095C150.022 100.303 149.644 99.0793 149.32 98.1613ZM154.9 96.5053L155.674 96.7933C155.026 99.5113 153.46 101.437 151.642 102.463C151.462 102.175 151.12 101.725 150.868 101.509C152.236 100.825 153.514 99.4213 154.162 97.6753H151.84V96.5593H154.684L154.9 96.5053ZM153.748 92.4013V94.0033H159.346V92.4013H153.748ZM153.748 89.8273V91.3933H159.346V89.8273H153.748ZM160.21 95.6953L161.218 96.5053C160.408 97.2433 159.49 98.0713 158.698 98.6653C159.472 99.8893 160.48 100.879 161.632 101.473C161.344 101.707 160.966 102.193 160.75 102.535C159.328 101.653 158.194 100.195 157.348 98.4493V101.833C157.348 102.517 157.204 102.877 156.718 103.093C156.25 103.309 155.494 103.327 154.342 103.327C154.27 102.949 154.126 102.445 153.946 102.085C154.792 102.121 155.548 102.121 155.764 102.103C155.998 102.085 156.07 102.031 156.07 101.815V95.0653H152.488V88.7653H155.242C155.494 88.1533 155.728 87.4153 155.854 86.8573L157.348 87.1633C157.096 87.7033 156.826 88.2793 156.592 88.7653H160.642V95.0653H157.348V95.7133C157.564 96.4333 157.834 97.1173 158.194 97.7833C158.896 97.1353 159.724 96.3073 160.21 95.6953Z" fill="#1C276D"/>
<defs>
<filter id="filter0_d_390_70" x="0" y="9.92334" width="207" height="171" filterUnits="userSpaceOnUse" color-interpolation-filters="sRGB">
<feFlood flood-opacity="0" result="BackgroundImageFix"/>
<feColorMatrix in="SourceAlpha" type="matrix" values="0 0 0 0 0 0 0 0 0 0 0 0 0 0 0 0 0 0 127 0" result="hardAlpha"/>
<feOffset dx="4" dy="4"/>
<feGaussianBlur stdDeviation="2"/>
<feComposite in2="hardAlpha" operator="out"/>
<feColorMatrix type="matrix" values="0 0 0 0 0.151771 0 0 0 0 0.420893 0 0 0 0 0.775 0 0 0 0.25 0"/>
<feBlend mode="normal" in2="BackgroundImageFix" result="effect1_dropShadow_390_70"/>
<feBlend mode="normal" in="SourceGraphic" in2="effect1_dropShadow_390_70" result="shape"/>
</filter>
</defs>
</svg>
