<svg width="207" height="213" viewBox="0 0 207 213" fill="none" xmlns="http://www.w3.org/2000/svg">
<rect x="0.5" y="183.424" width="198" height="29" rx="14.5" stroke="#1C276D"/>
<path d="M178.044 207.924V199.924M178.044 199.924L180.514 199.43C182.165 199.099 183.876 199.257 185.439 199.882C187.133 200.559 188.996 200.685 190.766 200.243L190.98 200.19C191.284 200.114 191.554 199.939 191.746 199.692C191.939 199.445 192.044 199.141 192.044 198.828V191.461C192.044 191.279 192.002 191.099 191.922 190.935C191.842 190.771 191.726 190.628 191.583 190.516C191.439 190.403 191.272 190.325 191.094 190.288C190.915 190.25 190.731 190.253 190.554 190.297C188.923 190.704 187.204 190.588 185.643 189.963L185.439 189.882C183.876 189.257 182.165 189.1 180.515 189.43L178.044 189.924M178.044 199.924V196.924M178.044 189.924V187.924M178.044 189.924V192.924" stroke="#1C276D" stroke-width="2" stroke-linecap="round"/>
<g filter="url(#filter0_d_503_498)">
<rect y="9.92383" width="199" height="163" rx="10" fill="#FFFEF6"/>
</g>
<path fill-rule="evenodd" clip-rule="evenodd" d="M166.144 10.9239L189 10.9238C193.971 10.9238 198 14.9533 198 19.9238V162.924C198 167.894 193.971 171.924 189 171.924H10C5.02944 171.924 1 167.894 1 162.924V19.9238C1 14.9533 5.02944 10.9238 10 10.9238L32.8431 10.9239V10.9601H32.8666V14.617C30.8723 15.9919 29.5652 18.2921 29.5652 20.8976C29.5652 25.1078 32.9782 28.5208 37.1884 28.5208C41.3986 28.5208 44.8116 25.1078 44.8116 20.8976C44.8116 18.292 43.5044 15.9916 41.5099 14.6167V10.9601H41.5411V10.9238L64.0051 10.9239V10.9601H64.0224V14.617C62.0281 15.9919 60.7209 18.2921 60.7209 20.8976C60.7209 25.1078 64.134 28.5208 68.3442 28.5208C72.5544 28.5208 75.9674 25.1078 75.9674 20.8976C75.9674 18.292 74.6601 15.9916 72.6657 14.6167V10.9601H72.6964V10.9239H95.1543V10.9601H95.1781V14.617C93.1838 15.9919 91.8767 18.2921 91.8767 20.8976C91.8767 25.1078 95.2897 28.5208 99.4999 28.5208C103.71 28.5208 107.123 25.1078 107.123 20.8976C107.123 18.292 105.816 15.9916 103.821 14.6167V10.9601H103.846V10.9239H126.304V10.9601H126.334V14.617C124.34 15.9919 123.032 18.2921 123.032 20.8976C123.032 25.1078 126.446 28.5208 130.656 28.5208C134.866 28.5208 138.279 25.1078 138.279 20.8976C138.279 18.292 136.972 15.9916 134.977 14.6167V10.9601H134.995V10.9239H157.453V10.9601H157.49V14.617C155.495 15.9919 154.188 18.2921 154.188 20.8976C154.188 25.1078 157.601 28.5208 161.811 28.5208C166.022 28.5208 169.435 25.1078 169.435 20.8976C169.435 18.292 168.127 15.9916 166.133 14.6167V10.9601H166.144V10.9239ZM166.133 10.9239H166.144V9.92383H189C194.523 9.92383 199 14.401 199 19.9238V162.924C199 168.447 194.523 172.924 189 172.924H10C4.47715 172.924 0 168.447 0 162.924V19.9238C0 14.401 4.47715 9.92383 10 9.92383H32.8431V10.9239H32.8666V10.9601H33.8666V14.617V15.1422L33.4342 15.4403C31.6991 16.6365 30.5652 18.6348 30.5652 20.8976C30.5652 24.5555 33.5305 27.5208 37.1884 27.5208C40.8463 27.5208 43.8116 24.5555 43.8116 20.8976C43.8116 18.6346 42.6776 16.6363 40.9423 15.4401L40.5099 15.142V14.6167V10.9601H41.5099V10.9238H41.5411V9.92383H64.0051V10.9239H64.0224V10.9601H65.0224V14.617V15.1422L64.59 15.4403C62.8548 16.6365 61.7209 18.6348 61.7209 20.8976C61.7209 24.5555 64.6863 27.5208 68.3442 27.5208C72.0021 27.5208 74.9674 24.5555 74.9674 20.8976C74.9674 18.6346 73.8334 16.6363 72.0981 15.4401L71.6657 15.142V14.6167V10.9601H72.6657V10.9239H72.6964V9.92383H95.1543V10.9239H95.1781V10.9601H96.1781V14.617V15.1422L95.7457 15.4403C94.0106 16.6365 92.8767 18.6348 92.8767 20.8976C92.8767 24.5555 95.842 27.5208 99.4999 27.5208C103.158 27.5208 106.123 24.5555 106.123 20.8976C106.123 18.6346 104.989 16.6363 103.254 15.4401L102.821 15.142V14.6167V10.9601H103.821V10.9239H103.846V9.92383H126.304V10.9239H126.334V10.9601H127.334V14.617V15.1422L126.901 15.4403C125.166 16.6365 124.032 18.6348 124.032 20.8976C124.032 24.5555 126.998 27.5208 130.656 27.5208C134.314 27.5208 137.279 24.5555 137.279 20.8976C137.279 18.6346 136.145 16.6363 134.41 15.4401L133.977 15.142V14.6167V10.9601H134.977V10.9239H134.995V9.92383H157.453V10.9239H157.49V10.9601H158.489V10.9239H158.49V14.617V15.1422L158.057 15.4403C156.322 16.6365 155.188 18.6348 155.188 20.8976C155.188 24.5555 158.154 27.5208 161.811 27.5208C165.469 27.5208 168.435 24.5555 168.435 20.8976C168.435 18.6346 167.301 16.6363 165.565 15.4401L165.133 15.142V14.6167V10.9601H166.133V10.9239ZM165.108 9.92383V10.9601H165.133V10.9239H166.133V9.92386H165.133L165.108 9.92383ZM158.489 9.92383H165.108L158.49 9.92386L158.489 9.92383ZM158.489 9.92383V10.9239H157.49V9.92386L158.489 9.92383ZM134.977 10.9239V9.92386H133.977L133.959 9.92383V10.9601H133.977V10.9239H134.977ZM127.334 10.9601V10.9239H126.334V9.92386H127.334L127.34 9.92383V10.9601H127.334ZM103.821 10.9239H102.821V10.9601H102.809V9.92383L102.821 9.92386H103.821V10.9239ZM96.1781 10.9601V10.9239H95.1781V9.92386H96.1781L96.1906 9.92383V10.9601H96.1781ZM72.6657 10.9239H71.6657V10.9601H71.6602V9.92383L71.6657 9.92386H72.6657V10.9239ZM65.0224 10.9601V10.9239H64.0224V9.92386H65.0224L65.0414 9.92383V10.9601H65.0224ZM40.5049 10.9238V9.92383L40.5099 9.92385H41.5099V10.9238H40.5049ZM40.5049 10.9238V10.9601H40.5099V10.9238L40.5049 10.9238ZM33.8794 9.92383V10.9239V10.9601H33.8666V10.9239H32.8666V9.92385H33.8666L33.8794 9.92383ZM33.8794 9.92383H39.6463L37.289 9.92385L33.8794 9.92383Z" fill="#276BC6"/>
<rect x="106.904" y="131.424" width="72.3529" height="25" rx="12.5" fill="#4395E6" stroke="#4395E6"/>
<mask id="path-6-inside-1_503_498" fill="white">
<path d="M121.367 147.077C119.639 147.077 118.319 145.817 118.319 143.669C118.319 141.485 119.783 140.237 121.451 140.237C122.303 140.237 122.903 140.585 123.359 141.005L122.807 141.725C122.423 141.377 122.015 141.149 121.511 141.149C120.311 141.149 119.447 142.157 119.447 143.669C119.447 145.157 120.275 146.165 121.475 146.165C122.063 146.165 122.603 145.877 123.011 145.517L123.479 146.249C122.903 146.765 122.147 147.077 121.367 147.077ZM127.144 147.077C125.536 147.077 124.12 145.817 124.12 143.669C124.12 141.485 125.536 140.237 127.144 140.237C128.74 140.237 130.156 141.485 130.156 143.669C130.156 145.817 128.74 147.077 127.144 147.077ZM127.144 146.165C128.272 146.165 129.028 145.157 129.028 143.669C129.028 142.157 128.272 141.149 127.144 141.149C126.004 141.149 125.248 142.157 125.248 143.669C125.248 145.157 126.004 146.165 127.144 146.165ZM131.889 146.909V140.393H132.777L132.885 141.341H132.921C133.533 140.729 134.205 140.237 135.105 140.237C136.473 140.237 137.097 141.125 137.097 142.781V146.909H135.993V142.925C135.993 141.701 135.621 141.185 134.757 141.185C134.097 141.185 133.629 141.533 132.981 142.181V146.909H131.889ZM141.253 147.077C139.861 147.077 139.405 146.201 139.405 144.905V141.281H138.433V140.465L139.453 140.393L139.573 138.557H140.497V140.393H142.261V141.281H140.497V144.929C140.497 145.721 140.749 146.189 141.505 146.189C141.733 146.189 142.033 146.093 142.237 146.009L142.453 146.825C142.093 146.957 141.661 147.077 141.253 147.077ZM143.737 146.909V140.393H144.829V146.909H143.737ZM144.289 139.049C143.857 139.049 143.557 138.773 143.557 138.317C143.557 137.897 143.857 137.621 144.289 137.621C144.709 137.621 145.021 137.897 145.021 138.317C145.021 138.773 144.709 139.049 144.289 139.049ZM147.042 146.909V140.393H147.93L148.038 141.341H148.074C148.686 140.729 149.358 140.237 150.258 140.237C151.626 140.237 152.25 141.125 152.25 142.781V146.909H151.146V142.925C151.146 141.701 150.774 141.185 149.91 141.185C149.25 141.185 148.782 141.533 148.134 142.181V146.909H147.042ZM156.262 147.077C154.894 147.077 154.27 146.189 154.27 144.521V140.393H155.362V144.389C155.362 145.601 155.734 146.117 156.598 146.117C157.258 146.117 157.738 145.793 158.35 145.025V140.393H159.442V146.909H158.542L158.446 145.889H158.422C157.81 146.597 157.162 147.077 156.262 147.077ZM164.283 147.077C162.543 147.077 161.163 145.805 161.163 143.669C161.163 141.545 162.591 140.237 164.091 140.237C165.747 140.237 166.683 141.425 166.683 143.297C166.683 143.525 166.671 143.753 166.635 143.921H162.243C162.327 145.301 163.167 146.201 164.415 146.201C165.039 146.201 165.555 145.997 166.035 145.673L166.431 146.405C165.855 146.777 165.171 147.077 164.283 147.077ZM162.231 143.129H165.723C165.723 141.821 165.135 141.113 164.103 141.113C163.191 141.113 162.375 141.845 162.231 143.129Z"/>
</mask>
<path d="M121.367 147.077C119.639 147.077 118.319 145.817 118.319 143.669C118.319 141.485 119.783 140.237 121.451 140.237C122.303 140.237 122.903 140.585 123.359 141.005L122.807 141.725C122.423 141.377 122.015 141.149 121.511 141.149C120.311 141.149 119.447 142.157 119.447 143.669C119.447 145.157 120.275 146.165 121.475 146.165C122.063 146.165 122.603 145.877 123.011 145.517L123.479 146.249C122.903 146.765 122.147 147.077 121.367 147.077ZM127.144 147.077C125.536 147.077 124.12 145.817 124.12 143.669C124.12 141.485 125.536 140.237 127.144 140.237C128.74 140.237 130.156 141.485 130.156 143.669C130.156 145.817 128.74 147.077 127.144 147.077ZM127.144 146.165C128.272 146.165 129.028 145.157 129.028 143.669C129.028 142.157 128.272 141.149 127.144 141.149C126.004 141.149 125.248 142.157 125.248 143.669C125.248 145.157 126.004 146.165 127.144 146.165ZM131.889 146.909V140.393H132.777L132.885 141.341H132.921C133.533 140.729 134.205 140.237 135.105 140.237C136.473 140.237 137.097 141.125 137.097 142.781V146.909H135.993V142.925C135.993 141.701 135.621 141.185 134.757 141.185C134.097 141.185 133.629 141.533 132.981 142.181V146.909H131.889ZM141.253 147.077C139.861 147.077 139.405 146.201 139.405 144.905V141.281H138.433V140.465L139.453 140.393L139.573 138.557H140.497V140.393H142.261V141.281H140.497V144.929C140.497 145.721 140.749 146.189 141.505 146.189C141.733 146.189 142.033 146.093 142.237 146.009L142.453 146.825C142.093 146.957 141.661 147.077 141.253 147.077ZM143.737 146.909V140.393H144.829V146.909H143.737ZM144.289 139.049C143.857 139.049 143.557 138.773 143.557 138.317C143.557 137.897 143.857 137.621 144.289 137.621C144.709 137.621 145.021 137.897 145.021 138.317C145.021 138.773 144.709 139.049 144.289 139.049ZM147.042 146.909V140.393H147.93L148.038 141.341H148.074C148.686 140.729 149.358 140.237 150.258 140.237C151.626 140.237 152.25 141.125 152.25 142.781V146.909H151.146V142.925C151.146 141.701 150.774 141.185 149.91 141.185C149.25 141.185 148.782 141.533 148.134 142.181V146.909H147.042ZM156.262 147.077C154.894 147.077 154.27 146.189 154.27 144.521V140.393H155.362V144.389C155.362 145.601 155.734 146.117 156.598 146.117C157.258 146.117 157.738 145.793 158.35 145.025V140.393H159.442V146.909H158.542L158.446 145.889H158.422C157.81 146.597 157.162 147.077 156.262 147.077ZM164.283 147.077C162.543 147.077 161.163 145.805 161.163 143.669C161.163 141.545 162.591 140.237 164.091 140.237C165.747 140.237 166.683 141.425 166.683 143.297C166.683 143.525 166.671 143.753 166.635 143.921H162.243C162.327 145.301 163.167 146.201 164.415 146.201C165.039 146.201 165.555 145.997 166.035 145.673L166.431 146.405C165.855 146.777 165.171 147.077 164.283 147.077ZM162.231 143.129H165.723C165.723 141.821 165.135 141.113 164.103 141.113C163.191 141.113 162.375 141.845 162.231 143.129Z" fill="#EFF5FF"/>
<path d="M123.359 141.005L125.74 142.83L127.407 140.655L125.391 138.799L123.359 141.005ZM122.807 141.725L120.792 143.948L123.206 146.135L125.188 143.55L122.807 141.725ZM123.011 145.517L125.539 143.901L123.652 140.951L121.026 143.268L123.011 145.517ZM123.479 146.249L125.481 148.484L127.38 146.782L126.007 144.633L123.479 146.249ZM121.367 144.077C121.301 144.077 121.287 144.066 121.308 144.075C121.332 144.084 121.362 144.104 121.386 144.129C121.408 144.153 121.397 144.153 121.376 144.095C121.354 144.034 121.319 143.899 121.319 143.669H115.319C115.319 145.363 115.849 146.994 117.004 148.228C118.168 149.472 119.749 150.077 121.367 150.077V144.077ZM121.319 143.669C121.319 143.46 121.353 143.342 121.373 143.29C121.393 143.239 121.407 143.229 121.4 143.236C121.377 143.26 121.373 143.237 121.451 143.237V137.237C119.861 137.237 118.291 137.839 117.119 139.032C115.933 140.24 115.319 141.882 115.319 143.669H121.319ZM121.451 143.237C121.458 143.237 121.445 143.238 121.417 143.232C121.389 143.226 121.36 143.216 121.334 143.205C121.281 143.181 121.277 143.166 121.327 143.212L125.391 138.799C124.537 138.012 123.244 137.237 121.451 137.237V143.237ZM120.978 139.18L120.426 139.9L125.188 143.55L125.74 142.83L120.978 139.18ZM124.822 139.502C124.138 138.883 123.042 138.149 121.511 138.149V144.149C121.287 144.149 121.08 144.093 120.924 144.02C120.79 143.956 120.743 143.903 120.792 143.948L124.822 139.502ZM121.511 138.149C120.006 138.149 118.649 138.808 117.721 139.926C116.824 141.007 116.447 142.357 116.447 143.669H122.447C122.447 143.469 122.502 143.56 122.338 143.758C122.254 143.859 122.13 143.964 121.965 144.042C121.799 144.121 121.638 144.149 121.511 144.149V138.149ZM116.447 143.669C116.447 144.949 116.804 146.289 117.686 147.371C118.606 148.499 119.963 149.165 121.475 149.165V143.165C121.603 143.165 121.77 143.194 121.946 143.278C122.12 143.361 122.25 143.474 122.336 143.58C122.504 143.786 122.447 143.877 122.447 143.669H116.447ZM121.475 149.165C123.038 149.165 124.255 148.42 124.996 147.767L121.026 143.268C121.01 143.282 121.022 143.266 121.077 143.241C121.137 143.214 121.275 143.165 121.475 143.165V149.165ZM120.483 147.133L120.951 147.865L126.007 144.633L125.539 143.901L120.483 147.133ZM121.477 144.015C121.449 144.04 121.418 144.058 121.391 144.069C121.366 144.079 121.357 144.077 121.367 144.077V150.077C122.941 150.077 124.397 149.455 125.481 148.484L121.477 144.015ZM127.144 144.077C127.135 144.077 127.143 144.076 127.161 144.083C127.18 144.091 127.195 144.103 127.203 144.111C127.211 144.12 127.195 144.108 127.175 144.053C127.153 143.996 127.12 143.875 127.12 143.669H121.12C121.12 147.331 123.739 150.077 127.144 150.077V144.077ZM127.12 143.669C127.12 143.449 127.155 143.319 127.178 143.258C127.2 143.199 127.216 143.188 127.205 143.199C127.195 143.21 127.178 143.223 127.157 143.231C127.138 143.239 127.131 143.237 127.144 143.237V137.237C123.732 137.237 121.12 139.979 121.12 143.669H127.12ZM127.144 143.237C127.15 143.237 127.14 143.238 127.119 143.229C127.097 143.22 127.079 143.206 127.069 143.196C127.059 143.185 127.075 143.197 127.098 143.257C127.12 143.318 127.156 143.449 127.156 143.669H133.156C133.156 139.987 130.551 137.237 127.144 137.237V143.237ZM127.156 143.669C127.156 143.875 127.122 143.997 127.101 144.054C127.08 144.11 127.064 144.123 127.072 144.114C127.079 144.106 127.095 144.094 127.115 144.085C127.135 144.077 127.146 144.077 127.144 144.077V150.077C130.544 150.077 133.156 147.323 133.156 143.669H127.156ZM127.144 149.165C128.701 149.165 130.039 148.429 130.905 147.28C131.721 146.198 132.028 144.889 132.028 143.669H126.028C126.028 143.937 125.957 143.877 126.113 143.67C126.197 143.558 126.338 143.421 126.545 143.315C126.755 143.207 126.968 143.165 127.144 143.165V149.165ZM132.028 143.669C132.028 142.447 131.725 141.133 130.911 140.045C130.045 138.887 128.703 138.149 127.144 138.149V144.149C126.968 144.149 126.753 144.107 126.541 143.998C126.332 143.89 126.191 143.752 126.107 143.64C125.952 143.433 126.028 143.379 126.028 143.669H132.028ZM127.144 138.149C125.59 138.149 124.243 138.878 123.37 140.04C122.55 141.131 122.248 142.447 122.248 143.669H128.248C128.248 143.379 128.323 143.436 128.166 143.645C128.081 143.758 127.939 143.896 127.732 144.002C127.521 144.109 127.312 144.149 127.144 144.149V138.149ZM122.248 143.669C122.248 144.889 122.555 146.2 123.376 147.286C124.249 148.438 125.592 149.165 127.144 149.165V143.165C127.312 143.165 127.52 143.205 127.728 143.311C127.933 143.416 128.075 143.552 128.16 143.665C128.319 143.874 128.248 143.938 128.248 143.669H122.248ZM131.889 146.909H128.889V149.909H131.889V146.909ZM131.889 140.393V137.393H128.889V140.393H131.889ZM132.777 140.393L135.758 140.054L135.455 137.393H132.777V140.393ZM132.885 141.341L129.904 141.681L130.208 144.341H132.885V141.341ZM132.921 141.341V144.341H134.164L135.042 143.462L132.921 141.341ZM137.097 146.909V149.909H140.097V146.909H137.097ZM135.993 146.909H132.993V149.909H135.993V146.909ZM132.981 142.181L130.86 140.06L129.981 140.939V142.181H132.981ZM132.981 146.909V149.909H135.981V146.909H132.981ZM134.889 146.909V140.393H128.889V146.909H134.889ZM131.889 143.393H132.777V137.393H131.889V143.393ZM129.796 140.733L129.904 141.681L135.866 141.002L135.758 140.054L129.796 140.733ZM132.885 144.341H132.921V138.341H132.885V144.341ZM135.042 143.462C135.146 143.359 135.224 143.289 135.283 143.241C135.341 143.194 135.369 143.178 135.369 143.179C135.366 143.18 135.334 143.197 135.278 143.213C135.22 143.229 135.159 143.237 135.105 143.237V137.237C132.976 137.237 131.567 138.453 130.8 139.22L135.042 143.462ZM135.105 143.237C135.127 143.237 134.999 143.241 134.797 143.153C134.576 143.057 134.373 142.897 134.228 142.707C134.096 142.533 134.066 142.407 134.07 142.42C134.074 142.437 134.097 142.546 134.097 142.781H140.097C140.097 141.664 139.902 140.253 139 139.07C137.979 137.729 136.493 137.237 135.105 137.237V143.237ZM134.097 142.781V146.909H140.097V142.781H134.097ZM137.097 143.909H135.993V149.909H137.097V143.909ZM138.993 146.909V142.925H132.993V146.909H138.993ZM138.993 142.925C138.993 142.139 138.9 140.918 138.142 139.855C137.212 138.55 135.832 138.185 134.757 138.185V144.185C134.686 144.185 134.442 144.176 134.126 144.039C133.778 143.889 133.472 143.64 133.256 143.337C133.061 143.063 133.004 142.837 132.991 142.78C132.979 142.725 132.993 142.758 132.993 142.925H138.993ZM134.757 138.185C132.78 138.185 131.543 139.377 130.86 140.06L135.102 144.303C135.236 144.169 135.324 144.087 135.384 144.036C135.443 143.986 135.447 143.989 135.406 144.014C135.359 144.042 135.265 144.091 135.131 144.13C134.994 144.17 134.864 144.185 134.757 144.185V138.185ZM129.981 142.181V146.909H135.981V142.181H129.981ZM132.981 143.909H131.889V149.909H132.981V143.909ZM139.405 141.281H142.405V138.281H139.405V141.281ZM138.433 141.281H135.433V144.281H138.433V141.281ZM138.433 140.465L138.222 137.473L135.433 137.669V140.465H138.433ZM139.453 140.393L139.665 143.386L142.276 143.201L142.447 140.589L139.453 140.393ZM139.573 138.557V135.557H136.763L136.58 138.362L139.573 138.557ZM140.497 138.557H143.497V135.557H140.497V138.557ZM140.497 140.393H137.497V143.393H140.497V140.393ZM142.261 140.393H145.261V137.393H142.261V140.393ZM142.261 141.281V144.281H145.261V141.281H142.261ZM140.497 141.281V138.281H137.497V141.281H140.497ZM142.237 146.009L145.137 145.242L144.261 141.931L141.095 143.235L142.237 146.009ZM142.453 146.825L143.486 149.642L146.053 148.701L145.353 146.058L142.453 146.825ZM141.253 144.077C141.213 144.077 141.344 144.07 141.561 144.163C141.799 144.266 142.029 144.442 142.201 144.668C142.357 144.876 142.404 145.044 142.413 145.08C142.421 145.112 142.405 145.065 142.405 144.905H136.405C136.405 145.806 136.545 147.136 137.414 148.286C138.412 149.607 139.883 150.077 141.253 150.077V144.077ZM142.405 144.905V141.281H136.405V144.905H142.405ZM139.405 138.281H138.433V144.281H139.405V138.281ZM141.433 141.281V140.465H135.433V141.281H141.433ZM138.645 143.458L139.665 143.386L139.242 137.401L138.222 137.473L138.645 143.458ZM142.447 140.589L142.567 138.753L136.58 138.362L136.46 140.198L142.447 140.589ZM139.573 141.557H140.497V135.557H139.573V141.557ZM137.497 138.557V140.393H143.497V138.557H137.497ZM140.497 143.393H142.261V137.393H140.497V143.393ZM139.261 140.393V141.281H145.261V140.393H139.261ZM142.261 138.281H140.497V144.281H142.261V138.281ZM137.497 141.281V144.929H143.497V141.281H137.497ZM137.497 144.929C137.497 145.527 137.569 146.63 138.294 147.624C139.17 148.825 140.463 149.189 141.505 149.189V143.189C141.617 143.189 141.886 143.206 142.221 143.351C142.582 143.507 142.905 143.764 143.142 144.089C143.552 144.651 143.497 145.123 143.497 144.929H137.497ZM141.505 149.189C142.349 149.189 143.104 148.897 143.38 148.783L141.095 143.235C141.096 143.235 141.094 143.236 141.091 143.237C141.088 143.238 141.092 143.236 141.105 143.233C141.117 143.23 141.151 143.221 141.205 143.212C141.256 143.204 141.361 143.189 141.505 143.189V149.189ZM139.337 146.777L139.553 147.593L145.353 146.058L145.137 145.242L139.337 146.777ZM141.421 144.009C141.324 144.044 141.252 144.065 141.205 144.076C141.183 144.081 141.175 144.082 141.18 144.081C141.184 144.08 141.21 144.077 141.253 144.077V150.077C142.183 150.077 143.005 149.818 143.486 149.642L141.421 144.009ZM143.737 146.909H140.737V149.909H143.737V146.909ZM143.737 140.393V137.393H140.737V140.393H143.737ZM144.829 140.393H147.829V137.393H144.829V140.393ZM144.829 146.909V149.909H147.829V146.909H144.829ZM146.737 146.909V140.393H140.737V146.909H146.737ZM143.737 143.393H144.829V137.393H143.737V143.393ZM141.829 140.393V146.909H147.829V140.393H141.829ZM144.829 143.909H143.737V149.909H144.829V143.909ZM144.289 136.049C144.716 136.049 145.333 136.196 145.857 136.708C146.393 137.231 146.557 137.867 146.557 138.317H140.557C140.557 139.223 140.871 140.225 141.665 141C142.447 141.765 143.43 142.049 144.289 142.049V136.049ZM146.557 138.317C146.557 138.854 146.347 139.497 145.818 139.996C145.306 140.477 144.714 140.621 144.289 140.621V134.621C143.432 134.621 142.473 134.903 141.704 135.628C140.917 136.369 140.557 137.361 140.557 138.317H146.557ZM144.289 140.621C143.841 140.621 143.263 140.468 142.768 140.007C142.253 139.528 142.021 138.889 142.021 138.317H148.021C148.021 137.325 147.633 136.339 146.857 135.616C146.101 134.913 145.156 134.621 144.289 134.621V140.621ZM142.021 138.317C142.021 137.833 142.204 137.202 142.729 136.696C143.236 136.206 143.839 136.049 144.289 136.049V142.049C145.159 142.049 146.127 141.755 146.896 141.012C147.681 140.254 148.021 139.258 148.021 138.317H142.021ZM147.042 146.909H144.042V149.909H147.042V146.909ZM147.042 140.393V137.393H144.042V140.393H147.042ZM147.93 140.393L150.91 140.054L150.607 137.393H147.93V140.393ZM148.038 141.341L145.057 141.681L145.36 144.341H148.038V141.341ZM148.074 141.341V144.341H149.316L150.195 143.462L148.074 141.341ZM152.25 146.909V149.909H155.25V146.909H152.25ZM151.146 146.909H148.146V149.909H151.146V146.909ZM148.134 142.181L146.012 140.06L145.134 140.939V142.181H148.134ZM148.134 146.909V149.909H151.134V146.909H148.134ZM150.042 146.909V140.393H144.042V146.909H150.042ZM147.042 143.393H147.93V137.393H147.042V143.393ZM144.949 140.733L145.057 141.681L151.018 141.002L150.91 140.054L144.949 140.733ZM148.038 144.341H148.074V138.341H148.038V144.341ZM150.195 143.462C150.298 143.359 150.376 143.289 150.435 143.241C150.494 143.194 150.521 143.178 150.521 143.179C150.518 143.18 150.487 143.197 150.431 143.213C150.372 143.229 150.311 143.237 150.258 143.237V137.237C148.128 137.237 146.719 138.453 145.952 139.22L150.195 143.462ZM150.258 143.237C150.279 143.237 150.152 143.241 149.949 143.153C149.728 143.057 149.526 142.897 149.381 142.707C149.248 142.533 149.219 142.407 149.222 142.42C149.226 142.437 149.25 142.546 149.25 142.781H155.25C155.25 141.664 155.054 140.253 154.152 139.07C153.131 137.729 151.646 137.237 150.258 137.237V143.237ZM149.25 142.781V146.909H155.25V142.781H149.25ZM152.25 143.909H151.146V149.909H152.25V143.909ZM154.146 146.909V142.925H148.146V146.909H154.146ZM154.146 142.925C154.146 142.139 154.052 140.918 153.294 139.855C152.364 138.55 150.984 138.185 149.91 138.185V144.185C149.838 144.185 149.595 144.176 149.278 144.039C148.93 143.889 148.624 143.64 148.409 143.337C148.213 143.063 148.156 142.837 148.144 142.78C148.131 142.725 148.146 142.758 148.146 142.925H154.146ZM149.91 138.185C147.933 138.185 146.695 139.377 146.012 140.06L150.255 144.303C150.389 144.169 150.477 144.087 150.537 144.036C150.596 143.986 150.599 143.989 150.558 144.014C150.511 144.042 150.417 144.091 150.283 144.13C150.146 144.17 150.016 144.185 149.91 144.185V138.185ZM145.134 142.181V146.909H151.134V142.181H145.134ZM148.134 143.909H147.042V149.909H148.134V143.909ZM154.27 140.393V137.393H151.27V140.393H154.27ZM155.362 140.393H158.362V137.393H155.362V140.393ZM158.35 145.025L160.696 146.895L161.35 146.074V145.025H158.35ZM158.35 140.393V137.393H155.35V140.393H158.35ZM159.442 140.393H162.442V137.393H159.442V140.393ZM159.442 146.909V149.909H162.442V146.909H159.442ZM158.542 146.909L155.555 147.19L155.811 149.909H158.542V146.909ZM158.446 145.889L161.433 145.608L161.177 142.889H158.446V145.889ZM158.422 145.889V142.889H157.049L156.152 143.927L158.422 145.889ZM156.262 144.077C156.24 144.077 156.368 144.073 156.572 144.162C156.794 144.259 156.997 144.419 157.142 144.61C157.274 144.784 157.302 144.909 157.298 144.893C157.293 144.874 157.27 144.761 157.27 144.521H151.27C151.27 145.641 151.463 147.054 152.364 148.239C153.385 149.584 154.873 150.077 156.262 150.077V144.077ZM157.27 144.521V140.393H151.27V144.521H157.27ZM154.27 143.393H155.362V137.393H154.27V143.393ZM152.362 140.393V144.389H158.362V140.393H152.362ZM152.362 144.389C152.362 145.174 152.456 146.393 153.217 147.455C154.148 148.754 155.524 149.117 156.598 149.117V143.117C156.669 143.117 156.911 143.126 157.226 143.262C157.573 143.411 157.878 143.658 158.094 143.96C158.291 144.235 158.349 144.463 158.363 144.523C158.376 144.581 158.362 144.552 158.362 144.389H152.362ZM156.598 149.117C158.624 149.117 159.875 147.925 160.696 146.895L156.004 143.156C155.902 143.283 155.841 143.348 155.812 143.376C155.785 143.402 155.81 143.373 155.885 143.326C155.966 143.274 156.085 143.214 156.235 143.171C156.384 143.129 156.512 143.117 156.598 143.117V149.117ZM161.35 145.025V140.393H155.35V145.025H161.35ZM158.35 143.393H159.442V137.393H158.35V143.393ZM156.442 140.393V146.909H162.442V140.393H156.442ZM159.442 143.909H158.542V149.909H159.442V143.909ZM161.529 146.628L161.433 145.608L155.459 146.17L155.555 147.19L161.529 146.628ZM158.446 142.889H158.422V148.889H158.446V142.889ZM156.152 143.927C156.059 144.036 155.992 144.102 155.947 144.142C155.904 144.181 155.895 144.183 155.918 144.169C155.944 144.154 155.997 144.127 156.071 144.106C156.147 144.084 156.215 144.077 156.262 144.077V150.077C158.448 150.077 159.853 148.821 160.691 147.851L156.152 143.927ZM166.635 143.921V146.921H169.06L169.568 144.55L166.635 143.921ZM162.243 143.921V140.921H159.055L159.248 144.103L162.243 143.921ZM166.035 145.673L168.673 144.246L167.099 141.335L164.356 143.187L166.035 145.673ZM166.431 146.405L168.058 148.925L170.39 147.419L169.069 144.978L166.431 146.405ZM162.231 143.129L159.249 142.795L158.876 146.129H162.231V143.129ZM165.723 143.129V146.129H168.723V143.129H165.723ZM164.283 144.077C164.215 144.077 164.189 144.065 164.195 144.067C164.202 144.07 164.218 144.08 164.233 144.095C164.247 144.11 164.236 144.106 164.216 144.054C164.196 144.001 164.163 143.879 164.163 143.669H158.163C158.163 145.398 158.733 147.032 159.908 148.254C161.081 149.473 162.664 150.077 164.283 150.077V144.077ZM164.163 143.669C164.163 143.477 164.195 143.354 164.22 143.286C164.245 143.218 164.27 143.191 164.273 143.187C164.281 143.178 164.226 143.237 164.091 143.237V137.237C160.7 137.237 158.163 140.132 158.163 143.669H164.163ZM164.091 143.237C164.144 143.237 164.095 143.246 163.989 143.199C163.877 143.15 163.774 143.071 163.7 142.982C163.632 142.9 163.626 142.855 163.64 142.9C163.654 142.948 163.683 143.074 163.683 143.297H169.683C169.683 141.898 169.335 140.376 168.316 139.148C167.235 137.847 165.695 137.237 164.091 137.237V143.237ZM163.683 143.297C163.683 143.328 163.682 143.355 163.682 143.377C163.681 143.399 163.68 143.414 163.68 143.421C163.679 143.424 163.679 143.425 163.68 143.423C163.68 143.421 163.68 143.415 163.682 143.406C163.683 143.397 163.685 143.383 163.688 143.365C163.691 143.347 163.695 143.322 163.701 143.293L169.568 144.55C169.673 144.06 169.683 143.571 169.683 143.297H163.683ZM166.635 140.921H162.243V146.921H166.635V140.921ZM159.248 144.103C159.324 145.35 159.761 146.635 160.714 147.642C161.696 148.679 163.026 149.201 164.415 149.201V143.201C164.467 143.201 164.574 143.212 164.71 143.268C164.847 143.325 164.972 143.412 165.07 143.516C165.271 143.727 165.245 143.873 165.237 143.739L159.248 144.103ZM164.415 149.201C165.769 149.201 166.859 148.736 167.713 148.16L164.356 143.187C164.287 143.233 164.274 143.232 164.306 143.221C164.322 143.215 164.342 143.21 164.365 143.206C164.389 143.202 164.406 143.201 164.415 143.201V149.201ZM163.396 147.101L163.792 147.833L169.069 144.978L168.673 144.246L163.396 147.101ZM164.803 143.885C164.66 143.977 164.566 144.021 164.5 144.043C164.442 144.063 164.378 144.077 164.283 144.077V150.077C165.918 150.077 167.163 149.504 168.058 148.925L164.803 143.885ZM162.231 146.129H165.723V140.129H162.231V146.129ZM168.723 143.129C168.723 142.08 168.493 140.806 167.63 139.742C166.689 138.58 165.359 138.113 164.103 138.113V144.113C164.018 144.113 163.832 144.098 163.598 143.997C163.353 143.891 163.134 143.723 162.969 143.52C162.658 143.136 162.723 142.871 162.723 143.129H168.723ZM164.103 138.113C161.318 138.113 159.522 140.363 159.249 142.795L165.212 143.464C165.221 143.382 165.223 143.533 165.023 143.737C164.815 143.95 164.482 144.113 164.103 144.113V138.113Z" fill="#EFF5FF" mask="url(#path-6-inside-1_503_498)"/>
<g opacity="0.6">
<line x1="25.7266" y1="73.9238" x2="173.273" y2="73.9238" stroke="#276BC6" stroke-width="2"/>
<line x1="25.7266" y1="115.924" x2="173.273" y2="115.924" stroke="#276BC6" stroke-width="2"/>
</g>
<path d="M75.418 19.8486L79.482 10.119L75.418 0.000368453L123.582 0.000368453L120.534 10.119L123.582 19.8486L75.418 19.8486Z" fill="#FFDE67"/>
<path d="M58.5423 49.3678L57.8943 50.0698C57.4983 49.6738 56.6703 49.1158 55.9683 48.8098L56.5983 48.1438C57.3003 48.4678 58.1283 48.9538 58.5423 49.3678ZM53.7363 56.6398L53.7903 57.5758C51.9183 57.9358 50.0103 58.3138 48.5343 58.5838L48.3543 57.5758C49.7223 57.3598 51.7203 56.9998 53.7363 56.6398ZM52.1703 55.0558V53.2558H50.1003V55.0558H52.1703ZM49.1643 52.4098H53.1423V55.9018H49.1643V52.4098ZM57.1563 52.1038L58.2543 52.3378C57.8043 54.0298 57.1203 55.5058 56.2563 56.7478C56.6343 57.7018 57.1203 58.3138 57.7143 58.4038C57.9663 58.4758 58.1463 57.7018 58.2723 56.5498C58.4883 56.7658 58.8843 57.0358 59.1363 57.1438C58.9023 59.1058 58.2903 59.8258 57.3543 59.4658C56.5803 59.3038 55.9683 58.6738 55.4823 57.7198C54.7803 58.5298 53.9883 59.2138 53.1063 59.7898C52.9443 59.5738 52.5483 59.1418 52.3143 58.9438C53.3763 58.3318 54.2763 57.5398 55.0323 56.6038C54.5463 55.1638 54.2403 53.3098 54.0423 51.2758H48.5343V50.2678H53.9523C53.8983 49.6378 53.8443 49.0078 53.8083 48.3598H54.9603C54.9963 49.0078 55.0323 49.6378 55.0683 50.2678H58.9923V51.2758H55.1583C55.3023 52.8238 55.5183 54.2638 55.8243 55.4158C56.4003 54.4438 56.8503 53.3278 57.1563 52.1038ZM47.5443 60.3118H59.8923V47.9098H47.5443V60.3118ZM46.2663 46.6858H61.2063V62.3458H59.8923V61.5178H47.5443V62.3458H46.2663V46.6858ZM72.3843 55.1458H77.5503V50.3758H72.3843V55.1458ZM65.8503 55.1458H70.9983V50.3758H65.8503V55.1458ZM72.3843 49.0618H78.9183V57.4858H77.5503V56.4598H72.3843V62.2918H70.9983V56.4598H65.8503V57.5758H64.5363V49.0618H70.9983V45.8578H72.3843V49.0618ZM85.5897 56.5138V55.2538H90.1977V56.5138H85.5897ZM103.829 60.0058H108.275C108.887 60.0058 109.733 59.9518 110.147 59.8438C110.201 60.2398 110.273 60.8158 110.345 61.1398C109.967 61.2298 109.139 61.2658 108.257 61.2658H103.901C101.813 61.2658 101.039 60.4918 101.039 58.3318V53.5258L96.1973 54.2998L95.9993 52.9858L101.039 52.1758V46.2718H102.443V51.9418L111.551 50.4838L111.749 51.8158L102.443 53.3098V58.4218C102.443 59.5738 102.803 60.0058 103.829 60.0058ZM118.229 56.8918H122.261V53.3278H118.229V56.8918ZM130.127 56.8918V58.1878H123.611V62.3098H122.261V58.1878H113.945V56.8918H116.897V52.0678H122.261V49.3318H117.887C117.077 50.7178 116.123 51.9418 115.151 52.8778C114.899 52.6618 114.341 52.2118 113.999 52.0318C115.691 50.5558 117.203 48.2338 118.049 45.8218L119.399 46.1458C119.147 46.7758 118.859 47.4238 118.571 48.0358H129.299V49.3318H123.611V52.0678H128.885V53.3278H123.611V56.8918H130.127ZM138.929 56.2078L137.885 56.6218C137.831 56.3158 137.741 55.9738 137.615 55.5778C133.457 56.2258 132.899 56.3698 132.539 56.5678C132.467 56.2978 132.269 55.6678 132.125 55.3078C132.503 55.2358 132.917 54.7858 133.457 54.1378C133.745 53.8138 134.321 53.0758 134.969 52.1038C133.061 52.3378 132.683 52.4278 132.431 52.5358C132.359 52.2838 132.143 51.6358 131.999 51.3118C132.305 51.2398 132.629 50.8618 133.007 50.3218C133.385 49.7998 134.627 47.7478 135.365 45.8038L136.625 46.3258C135.833 48.0178 134.843 49.7278 133.853 51.0958L135.743 50.9158C136.229 50.1418 136.697 49.3138 137.111 48.5038L138.263 49.1878C137.075 51.2578 135.671 53.3278 134.213 54.9838L137.309 54.5338C137.093 53.9758 136.859 53.3998 136.643 52.8958L137.597 52.5538C138.191 53.7418 138.749 55.2718 138.929 56.2078ZM132.863 57.3598L133.943 57.5578C133.763 59.0878 133.403 60.7798 133.025 61.8958C132.809 61.7698 132.269 61.5898 131.999 61.4998C132.413 60.4018 132.683 58.7998 132.863 57.3598ZM134.789 57.4858L135.761 57.2878C135.977 58.4218 136.193 59.8798 136.247 60.8698L135.221 61.1038C135.167 60.1318 134.987 58.6378 134.789 57.4858ZM136.733 57.1438L137.687 56.8558C138.047 57.7918 138.443 58.9798 138.605 59.7538L137.597 60.0958C137.471 59.3038 137.075 58.0798 136.733 57.1438ZM146.219 53.0398H142.619C143.033 54.6418 143.609 56.1358 144.383 57.4138C145.175 56.1538 145.805 54.6778 146.219 53.0398ZM144.815 47.9818H141.827C141.791 49.3318 141.755 50.6278 141.683 51.8338H144.149C144.383 50.6278 144.635 49.1338 144.815 47.9818ZM146.903 51.7618L147.731 52.0678C147.245 54.6958 146.345 56.8558 145.175 58.5838C146.039 59.6818 147.083 60.5458 148.343 61.1038C148.037 61.3558 147.623 61.8598 147.425 62.2198C146.219 61.6078 145.211 60.7258 144.365 59.6458C143.429 60.7618 142.349 61.6618 141.179 62.3098C140.999 61.9858 140.639 61.5178 140.333 61.3018C141.521 60.6718 142.637 59.7358 143.591 58.5298C142.709 57.0538 142.043 55.3258 141.557 53.4178C141.215 57.0178 140.513 59.9158 138.893 62.1838C138.677 61.9678 138.047 61.5178 137.723 61.3558C140.081 58.4218 140.459 53.8138 140.513 47.9818H138.749V46.7218H145.103L145.319 46.6498L146.237 46.7938C146.039 48.2698 145.733 50.2318 145.409 51.8338H146.669L146.903 51.7618Z" fill="#1C276D"/>
<path d="M49.097 102.032L49.061 102.068C50.717 101.168 51.941 99.9978 52.787 98.4498C52.211 97.0458 51.797 95.4438 51.455 93.6978C51.149 94.4538 50.825 95.1198 50.465 95.6958C50.303 95.5158 49.925 95.1918 49.655 94.9578V96.6318H45.587C45.407 97.0098 45.209 97.3878 45.011 97.7838H47.279V97.6578V97.0638H48.377V97.6758V97.7838H50.177V98.7558H48.269C48.125 99.4938 47.747 100.268 46.919 100.988C47.747 101.348 48.521 101.726 49.097 102.032ZM47.135 98.7558H44.453C44.219 99.1338 44.003 99.4938 43.787 99.8358C44.435 100.034 45.119 100.268 45.785 100.538C46.577 99.9618 46.955 99.3318 47.135 98.7558ZM42.851 94.5798V95.7678H45.083V94.5798H42.851ZM48.467 94.5798H46.145V95.7678H48.467V94.5798ZM54.695 91.6098H52.229L52.139 91.8258C52.427 93.7518 52.841 95.5338 53.453 97.0998C54.065 95.5518 54.461 93.7518 54.695 91.6098ZM43.175 92.0058H45.083V90.8538H43.175V92.0058ZM45.083 88.9638H43.175V89.9538H45.083V88.9638ZM48.197 88.9638H46.145V89.9538H48.197V88.9638ZM46.145 92.0058H48.197V90.8538H46.145V92.0058ZM57.251 91.6098H55.883C55.559 94.3818 54.983 96.6498 54.065 98.5038C54.875 100.124 55.973 101.42 57.395 102.194C57.125 102.428 56.729 102.878 56.531 103.22C55.217 102.41 54.191 101.186 53.381 99.6918C52.391 101.204 51.059 102.392 49.277 103.328C49.169 103.094 48.881 102.698 48.665 102.428L48.233 102.824C47.639 102.482 46.829 102.068 45.929 101.708C44.903 102.302 43.427 102.842 41.339 103.292C41.249 103.022 40.979 102.626 40.763 102.392C42.473 102.05 43.751 101.636 44.687 101.186C43.841 100.862 42.959 100.556 42.131 100.34C42.473 99.9078 42.851 99.3318 43.229 98.7558H40.907V97.7838H43.787C44.003 97.3878 44.183 97.0098 44.363 96.6318H41.699V93.7338H45.083V92.9418H42.131V90.9078H40.889V89.8998H42.131V88.0278H45.083V86.8578H46.145V88.0278H49.295V89.8998H50.321V90.9078H49.295V92.9418H46.145V93.7338H49.655V94.6878C50.843 92.7258 51.689 89.7918 52.193 86.8578L53.363 87.0918C53.147 88.1898 52.877 89.3238 52.589 90.4038H57.251V91.6098ZM69.149 92.4738L68.429 93.1218C68.123 92.7978 67.655 92.4558 67.133 92.0778C66.539 92.5458 65.927 92.9238 65.333 93.2478C65.207 93.0678 64.829 92.7258 64.595 92.5458C65.189 92.2758 65.765 91.9338 66.305 91.5558C65.873 91.2858 65.423 91.0518 65.009 90.8538L65.675 90.2598C66.125 90.4578 66.593 90.7278 67.061 90.9798C67.385 90.6918 67.709 90.3678 67.961 90.0258L68.897 90.3318C68.591 90.7278 68.249 91.1058 67.853 91.4838C68.357 91.8078 68.825 92.1498 69.149 92.4738ZM69.095 89.2518L68.393 89.9178C68.105 89.6478 67.637 89.3058 67.151 88.9998C66.593 89.4138 66.035 89.7918 65.477 90.0798C65.333 89.9178 64.955 89.5938 64.721 89.4318C65.279 89.1798 65.819 88.8558 66.323 88.5138C65.909 88.2618 65.459 88.0458 65.063 87.8658L65.711 87.2718C66.143 87.4518 66.593 87.6858 67.061 87.9378C67.385 87.6498 67.673 87.3438 67.907 87.0558L68.843 87.3078C68.555 87.6858 68.231 88.0458 67.853 88.4058C68.339 88.7118 68.771 88.9998 69.095 89.2518ZM60.725 94.2918V96.5238H59.447V93.2658H60.887L60.527 87.9198C61.571 87.7398 63.119 87.3078 64.001 87.0378L64.595 87.8658C63.821 88.1538 62.759 88.3878 61.823 88.5678L61.895 89.4498H64.505V90.3678H61.949L62.021 91.3398H64.577V92.2578H62.075L62.147 93.2658H72.011C72.047 92.9418 72.083 92.6178 72.119 92.2578H69.509V91.3398H72.191L72.281 90.3678H69.617V89.4498H72.335L72.389 88.4778H69.527V87.5598H73.685C73.595 89.3418 73.433 91.6638 73.289 93.2658H74.693V96.5238H73.379V94.2918H60.725ZM75.053 98.6658V99.7998H67.853V101.87C67.853 102.572 67.709 102.878 67.151 103.076C66.575 103.274 65.675 103.256 64.253 103.256C64.181 102.914 63.965 102.464 63.785 102.122C64.901 102.158 65.909 102.158 66.179 102.158C66.485 102.14 66.557 102.086 66.557 101.834V99.7998H59.051V98.6658H66.557V97.8918C67.511 97.5498 68.555 97.0458 69.419 96.5238H62.381V95.5158H70.841L71.111 95.4438L71.921 96.1098C70.805 96.9558 69.275 97.7658 67.853 98.3418V98.6658H75.053ZM80.8964 97.5138V96.2538H85.5044V97.5138H80.8964ZM99.388 102.032L99.352 102.068C101.008 101.168 102.232 99.9978 103.078 98.4498C102.502 97.0458 102.088 95.4438 101.746 93.6978C101.44 94.4538 101.116 95.1198 100.756 95.6958C100.594 95.5158 100.216 95.1918 99.946 94.9578V96.6318H95.878C95.698 97.0098 95.5 97.3878 95.302 97.7838H97.57V97.6578V97.0638H98.668V97.6758V97.7838H100.468V98.7558H98.56C98.416 99.4938 98.038 100.268 97.21 100.988C98.038 101.348 98.812 101.726 99.388 102.032ZM97.426 98.7558H94.744C94.51 99.1338 94.294 99.4938 94.078 99.8358C94.726 100.034 95.41 100.268 96.076 100.538C96.868 99.9618 97.246 99.3318 97.426 98.7558ZM93.142 94.5798V95.7678H95.374V94.5798H93.142ZM98.758 94.5798H96.436V95.7678H98.758V94.5798ZM104.986 91.6098H102.52L102.43 91.8258C102.718 93.7518 103.132 95.5338 103.744 97.0998C104.356 95.5518 104.752 93.7518 104.986 91.6098ZM93.466 92.0058H95.374V90.8538H93.466V92.0058ZM95.374 88.9638H93.466V89.9538H95.374V88.9638ZM98.488 88.9638H96.436V89.9538H98.488V88.9638ZM96.436 92.0058H98.488V90.8538H96.436V92.0058ZM107.542 91.6098H106.174C105.85 94.3818 105.274 96.6498 104.356 98.5038C105.166 100.124 106.264 101.42 107.686 102.194C107.416 102.428 107.02 102.878 106.822 103.22C105.508 102.41 104.482 101.186 103.672 99.6918C102.682 101.204 101.35 102.392 99.568 103.328C99.46 103.094 99.172 102.698 98.956 102.428L98.524 102.824C97.93 102.482 97.12 102.068 96.22 101.708C95.194 102.302 93.718 102.842 91.63 103.292C91.54 103.022 91.27 102.626 91.054 102.392C92.764 102.05 94.042 101.636 94.978 101.186C94.132 100.862 93.25 100.556 92.422 100.34C92.764 99.9078 93.142 99.3318 93.52 98.7558H91.198V97.7838H94.078C94.294 97.3878 94.474 97.0098 94.654 96.6318H91.99V93.7338H95.374V92.9418H92.422V90.9078H91.18V89.8998H92.422V88.0278H95.374V86.8578H96.436V88.0278H99.586V89.8998H100.612V90.9078H99.586V92.9418H96.436V93.7338H99.946V94.6878C101.134 92.7258 101.98 89.7918 102.484 86.8578L103.654 87.0918C103.438 88.1898 103.168 89.3238 102.88 90.4038H107.542V91.6098ZM118.252 96.4698V92.7978H115.39V86.9838H116.56V88.6578H119.53V89.7918H116.56V91.7178H118.918V91.7358H119.404V96.4698C119.404 97.0278 119.296 97.2618 118.9 97.4418C118.504 97.6038 117.874 97.6038 117.01 97.6038C116.956 97.3158 116.812 96.9558 116.668 96.6858C117.298 96.7218 117.838 96.7218 118.018 96.7038C118.216 96.7038 118.252 96.6318 118.252 96.4698ZM115.966 93.5718L117.01 93.7518C116.83 95.0118 116.452 96.2538 115.912 97.1178C115.714 96.9558 115.246 96.6678 114.976 96.5418C115.534 95.7498 115.804 94.6698 115.966 93.5718ZM114.472 99.3678L115.624 100.178C114.148 101.294 112.006 102.5 110.26 103.256C110.08 102.986 109.72 102.536 109.468 102.248C111.178 101.546 113.338 100.358 114.472 99.3678ZM119.062 100.232L119.8 99.3138C121.708 100.214 123.76 101.33 125.038 102.194L124.156 103.202C122.932 102.338 120.934 101.15 119.062 100.232ZM123.724 97.8378H125.452V99.0798H109.234V97.8378H111.052L110.71 88.3518C111.826 87.9558 113.176 87.4158 114.04 86.9658L114.688 88.0638C113.86 88.4058 112.87 88.7478 111.952 89.0358L112.024 91.1418H114.436V92.2938H112.06L112.132 94.4898H114.508V95.6418H112.186L112.258 97.8378H122.464C122.5 97.2078 122.554 96.4698 122.59 95.6958H120.25V94.5618H122.626C122.662 93.8418 122.68 93.1038 122.716 92.3478H120.34V91.1958H122.734C122.752 90.4218 122.77 89.6658 122.77 88.9458H120.178V87.7758H123.994C123.976 90.9438 123.886 95.1918 123.724 97.8378ZM135.388 102.032L135.352 102.068C137.008 101.168 138.232 99.9978 139.078 98.4498C138.502 97.0458 138.088 95.4438 137.746 93.6978C137.44 94.4538 137.116 95.1198 136.756 95.6958C136.594 95.5158 136.216 95.1918 135.946 94.9578V96.6318H131.878C131.698 97.0098 131.5 97.3878 131.302 97.7838H133.57V97.6578V97.0638H134.668V97.6758V97.7838H136.468V98.7558H134.56C134.416 99.4938 134.038 100.268 133.21 100.988C134.038 101.348 134.812 101.726 135.388 102.032ZM133.426 98.7558H130.744C130.51 99.1338 130.294 99.4938 130.078 99.8358C130.726 100.034 131.41 100.268 132.076 100.538C132.868 99.9618 133.246 99.3318 133.426 98.7558ZM129.142 94.5798V95.7678H131.374V94.5798H129.142ZM134.758 94.5798H132.436V95.7678H134.758V94.5798ZM140.986 91.6098H138.52L138.43 91.8258C138.718 93.7518 139.132 95.5338 139.744 97.0998C140.356 95.5518 140.752 93.7518 140.986 91.6098ZM129.466 92.0058H131.374V90.8538H129.466V92.0058ZM131.374 88.9638H129.466V89.9538H131.374V88.9638ZM134.488 88.9638H132.436V89.9538H134.488V88.9638ZM132.436 92.0058H134.488V90.8538H132.436V92.0058ZM143.542 91.6098H142.174C141.85 94.3818 141.274 96.6498 140.356 98.5038C141.166 100.124 142.264 101.42 143.686 102.194C143.416 102.428 143.02 102.878 142.822 103.22C141.508 102.41 140.482 101.186 139.672 99.6918C138.682 101.204 137.35 102.392 135.568 103.328C135.46 103.094 135.172 102.698 134.956 102.428L134.524 102.824C133.93 102.482 133.12 102.068 132.22 101.708C131.194 102.302 129.718 102.842 127.63 103.292C127.54 103.022 127.27 102.626 127.054 102.392C128.764 102.05 130.042 101.636 130.978 101.186C130.132 100.862 129.25 100.556 128.422 100.34C128.764 99.9078 129.142 99.3318 129.52 98.7558H127.198V97.7838H130.078C130.294 97.3878 130.474 97.0098 130.654 96.6318H127.99V93.7338H131.374V92.9418H128.422V90.9078H127.18V89.8998H128.422V88.0278H131.374V86.8578H132.436V88.0278H135.586V89.8998H136.612V90.9078H135.586V92.9418H132.436V93.7338H135.946V94.6878C137.134 92.7258 137.98 89.7918 138.484 86.8578L139.654 87.0918C139.438 88.1898 139.168 89.3238 138.88 90.4038H143.542V91.6098ZM151.318 97.4598L150.22 97.7838C150.184 97.4778 150.112 97.1178 150.04 96.7578C146.458 97.2798 145.9 97.4058 145.576 97.5858C145.504 97.2978 145.288 96.6678 145.144 96.3078C145.522 96.2178 145.918 95.7858 146.458 95.1198C146.728 94.8138 147.304 94.0758 147.934 93.1218C146.098 93.3558 145.72 93.4278 145.468 93.5358C145.396 93.2838 145.18 92.6538 145.036 92.3298C145.342 92.2578 145.648 91.8798 145.99 91.3398C146.386 90.8178 147.592 88.7658 148.294 86.8398L149.536 87.3438C148.762 89.0358 147.79 90.7818 146.818 92.1138L148.69 91.9338C149.176 91.1778 149.626 90.3498 150.022 89.5398L151.21 90.2238C150.058 92.2938 148.636 94.3638 147.196 96.0378L149.788 95.6958C149.626 95.0838 149.446 94.4538 149.248 93.9138L150.274 93.6438C150.706 94.8858 151.174 96.5058 151.318 97.4598ZM145.9 98.3598L146.98 98.5398C146.782 100.124 146.458 101.834 146.062 102.968C145.828 102.842 145.324 102.662 145.036 102.572C145.468 101.456 145.738 99.8358 145.9 98.3598ZM147.646 98.5038L148.654 98.3238C148.852 99.5478 149.05 101.114 149.104 102.158L148.042 102.338C148.024 101.312 147.844 99.7098 147.646 98.5038ZM149.32 98.1618L150.256 97.8918C150.616 98.7918 150.994 99.9978 151.156 100.772L150.166 101.096C150.022 100.304 149.644 99.0798 149.32 98.1618ZM154.9 96.5058L155.674 96.7938C155.026 99.5118 153.46 101.438 151.642 102.464C151.462 102.176 151.12 101.726 150.868 101.51C152.236 100.826 153.514 99.4218 154.162 97.6758H151.84V96.5598H154.684L154.9 96.5058ZM153.748 92.4018V94.0038H159.346V92.4018H153.748ZM153.748 89.8278V91.3938H159.346V89.8278H153.748ZM160.21 95.6958L161.218 96.5058C160.408 97.2438 159.49 98.0718 158.698 98.6658C159.472 99.8898 160.48 100.88 161.632 101.474C161.344 101.708 160.966 102.194 160.75 102.536C159.328 101.654 158.194 100.196 157.348 98.4498V101.834C157.348 102.518 157.204 102.878 156.718 103.094C156.25 103.31 155.494 103.328 154.342 103.328C154.27 102.95 154.126 102.446 153.946 102.086C154.792 102.122 155.548 102.122 155.764 102.104C155.998 102.086 156.07 102.032 156.07 101.816V95.0658H152.488V88.7658H155.242C155.494 88.1538 155.728 87.4158 155.854 86.8578L157.348 87.1638C157.096 87.7038 156.826 88.2798 156.592 88.7658H160.642V95.0658H157.348V95.7138C157.564 96.4338 157.834 97.1178 158.194 97.7838C158.896 97.1358 159.724 96.3078 160.21 95.6958Z" fill="#1C276D"/>
<defs>
<filter id="filter0_d_503_498" x="0" y="9.92383" width="207" height="171" filterUnits="userSpaceOnUse" color-interpolation-filters="sRGB">
<feFlood flood-opacity="0" result="BackgroundImageFix"/>
<feColorMatrix in="SourceAlpha" type="matrix" values="0 0 0 0 0 0 0 0 0 0 0 0 0 0 0 0 0 0 127 0" result="hardAlpha"/>
<feOffset dx="4" dy="4"/>
<feGaussianBlur stdDeviation="2"/>
<feComposite in2="hardAlpha" operator="out"/>
<feColorMatrix type="matrix" values="0 0 0 0 0.151771 0 0 0 0 0.420893 0 0 0 0 0.775 0 0 0 0.25 0"/>
<feBlend mode="normal" in2="BackgroundImageFix" result="effect1_dropShadow_503_498"/>
<feBlend mode="normal" in="SourceGraphic" in2="effect1_dropShadow_503_498" result="shape"/>
</filter>
</defs>
</svg>
