<svg width="207" height="213" viewBox="0 0 207 213" fill="none" xmlns="http://www.w3.org/2000/svg">
<g filter="url(#filter0_d_503_783)">
<rect y="9.92383" width="199" height="163" rx="10" fill="#FFFEF6"/>
</g>
<path fill-rule="evenodd" clip-rule="evenodd" d="M166.144 10.9238H189C193.971 10.9238 198 14.9533 198 19.9238V162.924C198 167.894 193.971 171.924 189 171.924H10C5.02944 171.924 1 167.894 1 162.924V19.9238C1 14.9533 5.02944 10.9238 10 10.9238L32.8428 10.9239V10.9601H32.8672V14.6167C30.8727 15.9916 29.5654 18.2919 29.5654 20.8976C29.5654 25.1078 32.9785 28.5208 37.1887 28.5208C41.3989 28.5208 44.8119 25.1078 44.8119 20.8976C44.8119 18.2921 43.5048 15.9919 41.5105 14.617V10.9601H41.5411V10.9238L64.0048 10.9239V10.9601H64.0226V14.6166C62.028 15.9915 60.7207 18.2919 60.7207 20.8976C60.7207 25.1078 64.1337 28.5208 68.3439 28.5208C72.5541 28.5208 75.9672 25.1078 75.9672 20.8976C75.9672 18.2922 74.6601 15.992 72.6659 14.6171V10.9601H72.6964V10.9239L95.1543 10.9238V10.9601H95.1787V14.6167C93.1842 15.9916 91.877 18.2919 91.877 20.8976C91.877 25.1078 95.29 28.5208 99.5002 28.5208C103.71 28.5208 107.123 25.1078 107.123 20.8976C107.123 18.2921 105.816 15.9919 103.822 14.617V10.9601H103.845V10.9238L126.303 10.9239V10.9601H126.334V14.6173C124.34 15.9923 123.033 18.2923 123.033 20.8976C123.033 25.1078 126.446 28.5208 130.656 28.5208C134.867 28.5208 138.28 25.1078 138.28 20.8976C138.28 18.2917 136.972 15.9913 134.977 14.6164V10.9601H134.994V10.9239L157.452 10.9238V10.9601H157.49V14.6167C155.496 15.9916 154.188 18.2919 154.188 20.8976C154.188 25.1078 157.602 28.5208 161.812 28.5208C166.022 28.5208 169.435 25.1078 169.435 20.8976C169.435 18.2921 168.128 15.9919 166.134 14.617V10.9601H166.144V10.9238ZM166.134 10.9238H166.144V9.92383H189C194.523 9.92383 199 14.401 199 19.9238V162.924C199 168.447 194.523 172.924 189 172.924H10C4.47715 172.924 0 168.447 0 162.924V19.9238C0 14.401 4.47715 9.92383 10 9.92383H32.8428V10.9239H32.8672V10.9601H33.8672V14.6167V15.142L33.4347 15.4401C31.6994 16.6363 30.5654 18.6346 30.5654 20.8976C30.5654 24.5555 33.5308 27.5208 37.1887 27.5208C40.8466 27.5208 43.8119 24.5555 43.8119 20.8976C43.8119 18.6348 42.678 16.6365 40.9429 15.4403L40.5105 15.1422V14.617V10.9601H41.5105V10.9238H41.5411V9.92383H64.0048V10.9239H64.0226V10.9601H65.0226V14.6166V15.1419L64.5901 15.44C62.8548 16.6362 61.7207 18.6346 61.7207 20.8976C61.7207 24.5555 64.686 27.5208 68.3439 27.5208C72.0018 27.5208 74.9672 24.5555 74.9672 20.8976C74.9672 18.6348 73.8333 16.6366 72.0983 15.4404L71.6659 15.1423V14.6171V10.9601H72.6659V10.9239H72.6964V9.92383H95.1543V10.9238H95.1787V10.9239V10.9601H96.1787V14.6167V15.142L95.7463 15.4401C94.011 16.6363 92.877 18.6346 92.877 20.8976C92.877 24.5555 95.8423 27.5208 99.5002 27.5208C103.158 27.5208 106.123 24.5555 106.123 20.8976C106.123 18.6348 104.99 16.6365 103.254 15.4403L102.822 15.1422V14.617V10.9601H103.822V10.9239V10.9238H103.845V9.92383H126.303V10.9239H126.334V10.9601H127.334V14.6173V15.1425L126.902 15.4406C125.167 16.6369 124.033 18.6349 124.033 20.8976C124.033 24.5555 126.999 27.5208 130.656 27.5208C134.314 27.5208 137.28 24.5555 137.28 20.8976C137.28 18.6345 136.145 16.636 134.41 15.4398L133.977 15.1417V14.6164V10.9601H134.977V10.9239H134.994V9.92383H157.452V10.9238H157.49V10.9239V10.9601H158.488V10.9238H165.108V10.9239H158.49V14.6167V15.142L158.058 15.4401C156.322 16.6363 155.188 18.6346 155.188 20.8976C155.188 24.5555 158.154 27.5208 161.812 27.5208C165.47 27.5208 168.435 24.5555 168.435 20.8976C168.435 18.6348 167.301 16.6365 165.566 15.4403L165.134 15.1422V14.617V10.9601H166.134V10.9239V10.9238ZM165.108 9.92383V10.9238H166.134V9.92386H165.134L165.108 9.92383ZM158.488 9.92383H165.108L158.49 9.92386L158.488 9.92383ZM158.488 9.92383V10.9238H157.49V9.92386L158.488 9.92383ZM165.134 10.9601H165.108V10.9239H165.134V10.9601ZM134.977 10.9239V9.92386H133.977L133.958 9.92383V10.9601H133.977V10.9239H134.977ZM127.334 10.9601V10.9239H126.334V9.92386H127.334L127.339 9.92383V10.9601H127.334ZM102.809 10.9238H103.822V9.92386H102.822L102.809 9.92383V10.9238ZM102.809 10.9239V10.9238H96.1906V9.92383L96.1787 9.92386H95.1787V10.9238H96.1906V10.9239H96.1787V10.9601H96.1906V10.9239H102.809ZM102.809 10.9239H102.822V10.9601H102.809V10.9239ZM72.6659 10.9239H71.6659V10.9601H71.6602V9.92383L71.6659 9.92386H72.6659V10.9239ZM65.0226 10.9601V10.9239H64.0226V9.92386H65.0226L65.041 9.92383V10.9601H65.0226ZM40.5049 10.9238V9.92383L40.5105 9.92385H41.5105V10.9238H40.5049ZM40.5049 10.9238V10.9601H40.5105V10.9238L40.5049 10.9238ZM33.879 9.92383V10.9239V10.9601H33.8672V10.9239H32.8672V9.92385H33.8672L33.879 9.92383ZM33.879 9.92383H39.6469L37.2896 9.92385L33.879 9.92383Z" fill="#276BC6"/>
<rect x="106.904" y="131.424" width="72.3529" height="25" rx="12.5" fill="#4395E6" stroke="#4395E6"/>
<mask id="path-4-inside-1_503_783" fill="white">
<path d="M121.367 147.077C119.639 147.077 118.319 145.817 118.319 143.669C118.319 141.485 119.783 140.237 121.451 140.237C122.303 140.237 122.903 140.585 123.359 141.005L122.807 141.725C122.423 141.377 122.015 141.149 121.511 141.149C120.311 141.149 119.447 142.157 119.447 143.669C119.447 145.157 120.275 146.165 121.475 146.165C122.063 146.165 122.603 145.877 123.011 145.517L123.479 146.249C122.903 146.765 122.147 147.077 121.367 147.077ZM127.144 147.077C125.536 147.077 124.12 145.817 124.12 143.669C124.12 141.485 125.536 140.237 127.144 140.237C128.74 140.237 130.156 141.485 130.156 143.669C130.156 145.817 128.74 147.077 127.144 147.077ZM127.144 146.165C128.272 146.165 129.028 145.157 129.028 143.669C129.028 142.157 128.272 141.149 127.144 141.149C126.004 141.149 125.248 142.157 125.248 143.669C125.248 145.157 126.004 146.165 127.144 146.165ZM131.889 146.909V140.393H132.777L132.885 141.341H132.921C133.533 140.729 134.205 140.237 135.105 140.237C136.473 140.237 137.097 141.125 137.097 142.781V146.909H135.993V142.925C135.993 141.701 135.621 141.185 134.757 141.185C134.097 141.185 133.629 141.533 132.981 142.181V146.909H131.889ZM141.253 147.077C139.861 147.077 139.405 146.201 139.405 144.905V141.281H138.433V140.465L139.453 140.393L139.573 138.557H140.497V140.393H142.261V141.281H140.497V144.929C140.497 145.721 140.749 146.189 141.505 146.189C141.733 146.189 142.033 146.093 142.237 146.009L142.453 146.825C142.093 146.957 141.661 147.077 141.253 147.077ZM143.737 146.909V140.393H144.829V146.909H143.737ZM144.289 139.049C143.857 139.049 143.557 138.773 143.557 138.317C143.557 137.897 143.857 137.621 144.289 137.621C144.709 137.621 145.021 137.897 145.021 138.317C145.021 138.773 144.709 139.049 144.289 139.049ZM147.042 146.909V140.393H147.93L148.038 141.341H148.074C148.686 140.729 149.358 140.237 150.258 140.237C151.626 140.237 152.25 141.125 152.25 142.781V146.909H151.146V142.925C151.146 141.701 150.774 141.185 149.91 141.185C149.25 141.185 148.782 141.533 148.134 142.181V146.909H147.042ZM156.262 147.077C154.894 147.077 154.27 146.189 154.27 144.521V140.393H155.362V144.389C155.362 145.601 155.734 146.117 156.598 146.117C157.258 146.117 157.738 145.793 158.35 145.025V140.393H159.442V146.909H158.542L158.446 145.889H158.422C157.81 146.597 157.162 147.077 156.262 147.077ZM164.283 147.077C162.543 147.077 161.163 145.805 161.163 143.669C161.163 141.545 162.591 140.237 164.091 140.237C165.747 140.237 166.683 141.425 166.683 143.297C166.683 143.525 166.671 143.753 166.635 143.921H162.243C162.327 145.301 163.167 146.201 164.415 146.201C165.039 146.201 165.555 145.997 166.035 145.673L166.431 146.405C165.855 146.777 165.171 147.077 164.283 147.077ZM162.231 143.129H165.723C165.723 141.821 165.135 141.113 164.103 141.113C163.191 141.113 162.375 141.845 162.231 143.129Z"/>
</mask>
<path d="M121.367 147.077C119.639 147.077 118.319 145.817 118.319 143.669C118.319 141.485 119.783 140.237 121.451 140.237C122.303 140.237 122.903 140.585 123.359 141.005L122.807 141.725C122.423 141.377 122.015 141.149 121.511 141.149C120.311 141.149 119.447 142.157 119.447 143.669C119.447 145.157 120.275 146.165 121.475 146.165C122.063 146.165 122.603 145.877 123.011 145.517L123.479 146.249C122.903 146.765 122.147 147.077 121.367 147.077ZM127.144 147.077C125.536 147.077 124.12 145.817 124.12 143.669C124.12 141.485 125.536 140.237 127.144 140.237C128.74 140.237 130.156 141.485 130.156 143.669C130.156 145.817 128.74 147.077 127.144 147.077ZM127.144 146.165C128.272 146.165 129.028 145.157 129.028 143.669C129.028 142.157 128.272 141.149 127.144 141.149C126.004 141.149 125.248 142.157 125.248 143.669C125.248 145.157 126.004 146.165 127.144 146.165ZM131.889 146.909V140.393H132.777L132.885 141.341H132.921C133.533 140.729 134.205 140.237 135.105 140.237C136.473 140.237 137.097 141.125 137.097 142.781V146.909H135.993V142.925C135.993 141.701 135.621 141.185 134.757 141.185C134.097 141.185 133.629 141.533 132.981 142.181V146.909H131.889ZM141.253 147.077C139.861 147.077 139.405 146.201 139.405 144.905V141.281H138.433V140.465L139.453 140.393L139.573 138.557H140.497V140.393H142.261V141.281H140.497V144.929C140.497 145.721 140.749 146.189 141.505 146.189C141.733 146.189 142.033 146.093 142.237 146.009L142.453 146.825C142.093 146.957 141.661 147.077 141.253 147.077ZM143.737 146.909V140.393H144.829V146.909H143.737ZM144.289 139.049C143.857 139.049 143.557 138.773 143.557 138.317C143.557 137.897 143.857 137.621 144.289 137.621C144.709 137.621 145.021 137.897 145.021 138.317C145.021 138.773 144.709 139.049 144.289 139.049ZM147.042 146.909V140.393H147.93L148.038 141.341H148.074C148.686 140.729 149.358 140.237 150.258 140.237C151.626 140.237 152.25 141.125 152.25 142.781V146.909H151.146V142.925C151.146 141.701 150.774 141.185 149.91 141.185C149.25 141.185 148.782 141.533 148.134 142.181V146.909H147.042ZM156.262 147.077C154.894 147.077 154.27 146.189 154.27 144.521V140.393H155.362V144.389C155.362 145.601 155.734 146.117 156.598 146.117C157.258 146.117 157.738 145.793 158.35 145.025V140.393H159.442V146.909H158.542L158.446 145.889H158.422C157.81 146.597 157.162 147.077 156.262 147.077ZM164.283 147.077C162.543 147.077 161.163 145.805 161.163 143.669C161.163 141.545 162.591 140.237 164.091 140.237C165.747 140.237 166.683 141.425 166.683 143.297C166.683 143.525 166.671 143.753 166.635 143.921H162.243C162.327 145.301 163.167 146.201 164.415 146.201C165.039 146.201 165.555 145.997 166.035 145.673L166.431 146.405C165.855 146.777 165.171 147.077 164.283 147.077ZM162.231 143.129H165.723C165.723 141.821 165.135 141.113 164.103 141.113C163.191 141.113 162.375 141.845 162.231 143.129Z" fill="#EFF5FF"/>
<path d="M123.359 141.005L125.74 142.83L127.407 140.655L125.391 138.799L123.359 141.005ZM122.807 141.725L120.792 143.948L123.206 146.135L125.188 143.55L122.807 141.725ZM123.011 145.517L125.539 143.901L123.652 140.951L121.026 143.268L123.011 145.517ZM123.479 146.249L125.481 148.484L127.38 146.782L126.007 144.633L123.479 146.249ZM121.367 144.077C121.301 144.077 121.287 144.066 121.308 144.075C121.332 144.084 121.362 144.104 121.386 144.129C121.408 144.153 121.397 144.153 121.376 144.095C121.354 144.034 121.319 143.899 121.319 143.669H115.319C115.319 145.363 115.849 146.994 117.004 148.228C118.168 149.472 119.749 150.077 121.367 150.077V144.077ZM121.319 143.669C121.319 143.46 121.353 143.342 121.373 143.29C121.393 143.239 121.407 143.229 121.4 143.236C121.377 143.26 121.373 143.237 121.451 143.237V137.237C119.861 137.237 118.291 137.839 117.119 139.032C115.933 140.24 115.319 141.882 115.319 143.669H121.319ZM121.451 143.237C121.458 143.237 121.445 143.238 121.417 143.232C121.389 143.226 121.36 143.216 121.334 143.205C121.281 143.181 121.277 143.166 121.327 143.212L125.391 138.799C124.537 138.012 123.244 137.237 121.451 137.237V143.237ZM120.978 139.18L120.426 139.9L125.188 143.55L125.74 142.83L120.978 139.18ZM124.822 139.502C124.138 138.883 123.042 138.149 121.511 138.149V144.149C121.287 144.149 121.08 144.093 120.924 144.02C120.79 143.956 120.743 143.903 120.792 143.948L124.822 139.502ZM121.511 138.149C120.006 138.149 118.649 138.808 117.721 139.926C116.824 141.007 116.447 142.357 116.447 143.669H122.447C122.447 143.469 122.502 143.56 122.338 143.758C122.254 143.859 122.13 143.964 121.965 144.042C121.799 144.121 121.638 144.149 121.511 144.149V138.149ZM116.447 143.669C116.447 144.949 116.804 146.289 117.686 147.371C118.606 148.499 119.963 149.165 121.475 149.165V143.165C121.603 143.165 121.77 143.194 121.946 143.278C122.12 143.361 122.25 143.474 122.336 143.58C122.504 143.786 122.447 143.877 122.447 143.669H116.447ZM121.475 149.165C123.038 149.165 124.255 148.42 124.996 147.767L121.026 143.268C121.01 143.282 121.022 143.266 121.077 143.241C121.137 143.214 121.275 143.165 121.475 143.165V149.165ZM120.483 147.133L120.951 147.865L126.007 144.633L125.539 143.901L120.483 147.133ZM121.477 144.015C121.449 144.04 121.418 144.058 121.391 144.069C121.366 144.079 121.357 144.077 121.367 144.077V150.077C122.941 150.077 124.397 149.455 125.481 148.484L121.477 144.015ZM127.144 144.077C127.135 144.077 127.143 144.076 127.161 144.083C127.18 144.091 127.195 144.103 127.203 144.111C127.211 144.12 127.195 144.108 127.175 144.053C127.153 143.996 127.12 143.875 127.12 143.669H121.12C121.12 147.331 123.739 150.077 127.144 150.077V144.077ZM127.12 143.669C127.12 143.449 127.155 143.319 127.178 143.258C127.2 143.199 127.216 143.188 127.205 143.199C127.195 143.21 127.178 143.223 127.157 143.231C127.138 143.239 127.131 143.237 127.144 143.237V137.237C123.732 137.237 121.12 139.979 121.12 143.669H127.12ZM127.144 143.237C127.15 143.237 127.14 143.238 127.119 143.229C127.097 143.22 127.079 143.206 127.069 143.196C127.059 143.185 127.075 143.197 127.098 143.257C127.12 143.318 127.156 143.449 127.156 143.669H133.156C133.156 139.987 130.551 137.237 127.144 137.237V143.237ZM127.156 143.669C127.156 143.875 127.122 143.997 127.101 144.054C127.08 144.11 127.064 144.123 127.072 144.114C127.079 144.106 127.095 144.094 127.115 144.085C127.135 144.077 127.146 144.077 127.144 144.077V150.077C130.544 150.077 133.156 147.323 133.156 143.669H127.156ZM127.144 149.165C128.701 149.165 130.039 148.429 130.905 147.28C131.721 146.198 132.028 144.889 132.028 143.669H126.028C126.028 143.937 125.957 143.877 126.113 143.67C126.197 143.558 126.338 143.421 126.545 143.315C126.755 143.207 126.968 143.165 127.144 143.165V149.165ZM132.028 143.669C132.028 142.447 131.725 141.133 130.911 140.045C130.045 138.887 128.703 138.149 127.144 138.149V144.149C126.968 144.149 126.753 144.107 126.541 143.998C126.332 143.89 126.191 143.752 126.107 143.64C125.952 143.433 126.028 143.379 126.028 143.669H132.028ZM127.144 138.149C125.59 138.149 124.243 138.878 123.37 140.04C122.55 141.131 122.248 142.447 122.248 143.669H128.248C128.248 143.379 128.323 143.436 128.166 143.645C128.081 143.758 127.939 143.896 127.732 144.002C127.521 144.109 127.312 144.149 127.144 144.149V138.149ZM122.248 143.669C122.248 144.889 122.555 146.2 123.376 147.286C124.249 148.438 125.592 149.165 127.144 149.165V143.165C127.312 143.165 127.52 143.205 127.728 143.311C127.933 143.416 128.075 143.552 128.16 143.665C128.319 143.874 128.248 143.938 128.248 143.669H122.248ZM131.889 146.909H128.889V149.909H131.889V146.909ZM131.889 140.393V137.393H128.889V140.393H131.889ZM132.777 140.393L135.758 140.054L135.455 137.393H132.777V140.393ZM132.885 141.341L129.904 141.681L130.208 144.341H132.885V141.341ZM132.921 141.341V144.341H134.164L135.042 143.462L132.921 141.341ZM137.097 146.909V149.909H140.097V146.909H137.097ZM135.993 146.909H132.993V149.909H135.993V146.909ZM132.981 142.181L130.86 140.06L129.981 140.939V142.181H132.981ZM132.981 146.909V149.909H135.981V146.909H132.981ZM134.889 146.909V140.393H128.889V146.909H134.889ZM131.889 143.393H132.777V137.393H131.889V143.393ZM129.796 140.733L129.904 141.681L135.866 141.002L135.758 140.054L129.796 140.733ZM132.885 144.341H132.921V138.341H132.885V144.341ZM135.042 143.462C135.146 143.359 135.224 143.289 135.283 143.241C135.341 143.194 135.369 143.178 135.369 143.179C135.366 143.18 135.334 143.197 135.278 143.213C135.22 143.229 135.159 143.237 135.105 143.237V137.237C132.976 137.237 131.567 138.453 130.8 139.22L135.042 143.462ZM135.105 143.237C135.127 143.237 134.999 143.241 134.797 143.153C134.576 143.057 134.373 142.897 134.228 142.707C134.096 142.533 134.066 142.407 134.07 142.42C134.074 142.437 134.097 142.546 134.097 142.781H140.097C140.097 141.664 139.902 140.253 139 139.07C137.979 137.729 136.493 137.237 135.105 137.237V143.237ZM134.097 142.781V146.909H140.097V142.781H134.097ZM137.097 143.909H135.993V149.909H137.097V143.909ZM138.993 146.909V142.925H132.993V146.909H138.993ZM138.993 142.925C138.993 142.139 138.9 140.918 138.142 139.855C137.212 138.55 135.832 138.185 134.757 138.185V144.185C134.686 144.185 134.442 144.176 134.126 144.039C133.778 143.889 133.472 143.64 133.256 143.337C133.061 143.063 133.004 142.837 132.991 142.78C132.979 142.725 132.993 142.758 132.993 142.925H138.993ZM134.757 138.185C132.78 138.185 131.543 139.377 130.86 140.06L135.102 144.303C135.236 144.169 135.324 144.087 135.384 144.036C135.443 143.986 135.447 143.989 135.406 144.014C135.359 144.042 135.265 144.091 135.131 144.13C134.994 144.17 134.864 144.185 134.757 144.185V138.185ZM129.981 142.181V146.909H135.981V142.181H129.981ZM132.981 143.909H131.889V149.909H132.981V143.909ZM139.405 141.281H142.405V138.281H139.405V141.281ZM138.433 141.281H135.433V144.281H138.433V141.281ZM138.433 140.465L138.222 137.473L135.433 137.669V140.465H138.433ZM139.453 140.393L139.665 143.386L142.276 143.201L142.447 140.589L139.453 140.393ZM139.573 138.557V135.557H136.763L136.58 138.362L139.573 138.557ZM140.497 138.557H143.497V135.557H140.497V138.557ZM140.497 140.393H137.497V143.393H140.497V140.393ZM142.261 140.393H145.261V137.393H142.261V140.393ZM142.261 141.281V144.281H145.261V141.281H142.261ZM140.497 141.281V138.281H137.497V141.281H140.497ZM142.237 146.009L145.137 145.242L144.261 141.931L141.095 143.235L142.237 146.009ZM142.453 146.825L143.486 149.642L146.053 148.701L145.353 146.058L142.453 146.825ZM141.253 144.077C141.213 144.077 141.344 144.07 141.561 144.163C141.799 144.266 142.029 144.442 142.201 144.668C142.357 144.876 142.404 145.044 142.413 145.08C142.421 145.112 142.405 145.065 142.405 144.905H136.405C136.405 145.806 136.545 147.136 137.414 148.286C138.412 149.607 139.883 150.077 141.253 150.077V144.077ZM142.405 144.905V141.281H136.405V144.905H142.405ZM139.405 138.281H138.433V144.281H139.405V138.281ZM141.433 141.281V140.465H135.433V141.281H141.433ZM138.645 143.458L139.665 143.386L139.242 137.401L138.222 137.473L138.645 143.458ZM142.447 140.589L142.567 138.753L136.58 138.362L136.46 140.198L142.447 140.589ZM139.573 141.557H140.497V135.557H139.573V141.557ZM137.497 138.557V140.393H143.497V138.557H137.497ZM140.497 143.393H142.261V137.393H140.497V143.393ZM139.261 140.393V141.281H145.261V140.393H139.261ZM142.261 138.281H140.497V144.281H142.261V138.281ZM137.497 141.281V144.929H143.497V141.281H137.497ZM137.497 144.929C137.497 145.527 137.569 146.63 138.294 147.624C139.17 148.825 140.463 149.189 141.505 149.189V143.189C141.617 143.189 141.886 143.206 142.221 143.351C142.582 143.507 142.905 143.764 143.142 144.089C143.552 144.651 143.497 145.123 143.497 144.929H137.497ZM141.505 149.189C142.349 149.189 143.104 148.897 143.38 148.783L141.095 143.235C141.096 143.235 141.094 143.236 141.091 143.237C141.088 143.238 141.092 143.236 141.105 143.233C141.117 143.23 141.151 143.221 141.205 143.212C141.256 143.204 141.361 143.189 141.505 143.189V149.189ZM139.337 146.777L139.553 147.593L145.353 146.058L145.137 145.242L139.337 146.777ZM141.421 144.009C141.324 144.044 141.252 144.065 141.205 144.076C141.183 144.081 141.175 144.082 141.18 144.081C141.184 144.08 141.21 144.077 141.253 144.077V150.077C142.183 150.077 143.005 149.818 143.486 149.642L141.421 144.009ZM143.737 146.909H140.737V149.909H143.737V146.909ZM143.737 140.393V137.393H140.737V140.393H143.737ZM144.829 140.393H147.829V137.393H144.829V140.393ZM144.829 146.909V149.909H147.829V146.909H144.829ZM146.737 146.909V140.393H140.737V146.909H146.737ZM143.737 143.393H144.829V137.393H143.737V143.393ZM141.829 140.393V146.909H147.829V140.393H141.829ZM144.829 143.909H143.737V149.909H144.829V143.909ZM144.289 136.049C144.716 136.049 145.333 136.196 145.857 136.708C146.393 137.231 146.557 137.867 146.557 138.317H140.557C140.557 139.223 140.871 140.225 141.665 141C142.447 141.765 143.43 142.049 144.289 142.049V136.049ZM146.557 138.317C146.557 138.854 146.347 139.497 145.818 139.996C145.306 140.477 144.714 140.621 144.289 140.621V134.621C143.432 134.621 142.473 134.903 141.704 135.628C140.917 136.369 140.557 137.361 140.557 138.317H146.557ZM144.289 140.621C143.841 140.621 143.263 140.468 142.768 140.007C142.253 139.528 142.021 138.889 142.021 138.317H148.021C148.021 137.325 147.633 136.339 146.857 135.616C146.101 134.913 145.156 134.621 144.289 134.621V140.621ZM142.021 138.317C142.021 137.833 142.204 137.202 142.729 136.696C143.236 136.206 143.839 136.049 144.289 136.049V142.049C145.159 142.049 146.127 141.755 146.896 141.012C147.681 140.254 148.021 139.258 148.021 138.317H142.021ZM147.042 146.909H144.042V149.909H147.042V146.909ZM147.042 140.393V137.393H144.042V140.393H147.042ZM147.93 140.393L150.91 140.054L150.607 137.393H147.93V140.393ZM148.038 141.341L145.057 141.681L145.36 144.341H148.038V141.341ZM148.074 141.341V144.341H149.316L150.195 143.462L148.074 141.341ZM152.25 146.909V149.909H155.25V146.909H152.25ZM151.146 146.909H148.146V149.909H151.146V146.909ZM148.134 142.181L146.012 140.06L145.134 140.939V142.181H148.134ZM148.134 146.909V149.909H151.134V146.909H148.134ZM150.042 146.909V140.393H144.042V146.909H150.042ZM147.042 143.393H147.93V137.393H147.042V143.393ZM144.949 140.733L145.057 141.681L151.018 141.002L150.91 140.054L144.949 140.733ZM148.038 144.341H148.074V138.341H148.038V144.341ZM150.195 143.462C150.298 143.359 150.376 143.289 150.435 143.241C150.494 143.194 150.521 143.178 150.521 143.179C150.518 143.18 150.487 143.197 150.431 143.213C150.372 143.229 150.311 143.237 150.258 143.237V137.237C148.128 137.237 146.719 138.453 145.952 139.22L150.195 143.462ZM150.258 143.237C150.279 143.237 150.152 143.241 149.949 143.153C149.728 143.057 149.526 142.897 149.381 142.707C149.248 142.533 149.219 142.407 149.222 142.42C149.226 142.437 149.25 142.546 149.25 142.781H155.25C155.25 141.664 155.054 140.253 154.152 139.07C153.131 137.729 151.646 137.237 150.258 137.237V143.237ZM149.25 142.781V146.909H155.25V142.781H149.25ZM152.25 143.909H151.146V149.909H152.25V143.909ZM154.146 146.909V142.925H148.146V146.909H154.146ZM154.146 142.925C154.146 142.139 154.052 140.918 153.294 139.855C152.364 138.55 150.984 138.185 149.91 138.185V144.185C149.838 144.185 149.595 144.176 149.278 144.039C148.93 143.889 148.624 143.64 148.409 143.337C148.213 143.063 148.156 142.837 148.144 142.78C148.131 142.725 148.146 142.758 148.146 142.925H154.146ZM149.91 138.185C147.933 138.185 146.695 139.377 146.012 140.06L150.255 144.303C150.389 144.169 150.477 144.087 150.537 144.036C150.596 143.986 150.599 143.989 150.558 144.014C150.511 144.042 150.417 144.091 150.283 144.13C150.146 144.17 150.016 144.185 149.91 144.185V138.185ZM145.134 142.181V146.909H151.134V142.181H145.134ZM148.134 143.909H147.042V149.909H148.134V143.909ZM154.27 140.393V137.393H151.27V140.393H154.27ZM155.362 140.393H158.362V137.393H155.362V140.393ZM158.35 145.025L160.696 146.895L161.35 146.074V145.025H158.35ZM158.35 140.393V137.393H155.35V140.393H158.35ZM159.442 140.393H162.442V137.393H159.442V140.393ZM159.442 146.909V149.909H162.442V146.909H159.442ZM158.542 146.909L155.555 147.19L155.811 149.909H158.542V146.909ZM158.446 145.889L161.433 145.608L161.177 142.889H158.446V145.889ZM158.422 145.889V142.889H157.049L156.152 143.927L158.422 145.889ZM156.262 144.077C156.24 144.077 156.368 144.073 156.572 144.162C156.794 144.259 156.997 144.419 157.142 144.61C157.274 144.784 157.302 144.909 157.298 144.893C157.293 144.874 157.27 144.761 157.27 144.521H151.27C151.27 145.641 151.463 147.054 152.364 148.239C153.385 149.584 154.873 150.077 156.262 150.077V144.077ZM157.27 144.521V140.393H151.27V144.521H157.27ZM154.27 143.393H155.362V137.393H154.27V143.393ZM152.362 140.393V144.389H158.362V140.393H152.362ZM152.362 144.389C152.362 145.174 152.456 146.393 153.217 147.455C154.148 148.754 155.524 149.117 156.598 149.117V143.117C156.669 143.117 156.911 143.126 157.226 143.262C157.573 143.411 157.878 143.658 158.094 143.96C158.291 144.235 158.349 144.463 158.363 144.523C158.376 144.581 158.362 144.552 158.362 144.389H152.362ZM156.598 149.117C158.624 149.117 159.875 147.925 160.696 146.895L156.004 143.156C155.902 143.283 155.841 143.348 155.812 143.376C155.785 143.402 155.81 143.373 155.885 143.326C155.966 143.274 156.085 143.214 156.235 143.171C156.384 143.129 156.512 143.117 156.598 143.117V149.117ZM161.35 145.025V140.393H155.35V145.025H161.35ZM158.35 143.393H159.442V137.393H158.35V143.393ZM156.442 140.393V146.909H162.442V140.393H156.442ZM159.442 143.909H158.542V149.909H159.442V143.909ZM161.529 146.628L161.433 145.608L155.459 146.17L155.555 147.19L161.529 146.628ZM158.446 142.889H158.422V148.889H158.446V142.889ZM156.152 143.927C156.059 144.036 155.992 144.102 155.947 144.142C155.904 144.181 155.895 144.183 155.918 144.169C155.944 144.154 155.997 144.127 156.071 144.106C156.147 144.084 156.215 144.077 156.262 144.077V150.077C158.448 150.077 159.853 148.821 160.691 147.851L156.152 143.927ZM166.635 143.921V146.921H169.06L169.568 144.55L166.635 143.921ZM162.243 143.921V140.921H159.055L159.248 144.103L162.243 143.921ZM166.035 145.673L168.673 144.246L167.099 141.335L164.356 143.187L166.035 145.673ZM166.431 146.405L168.058 148.925L170.39 147.419L169.069 144.978L166.431 146.405ZM162.231 143.129L159.249 142.795L158.876 146.129H162.231V143.129ZM165.723 143.129V146.129H168.723V143.129H165.723ZM164.283 144.077C164.215 144.077 164.189 144.065 164.195 144.067C164.202 144.07 164.218 144.08 164.233 144.095C164.247 144.11 164.236 144.106 164.216 144.054C164.196 144.001 164.163 143.879 164.163 143.669H158.163C158.163 145.398 158.733 147.032 159.908 148.254C161.081 149.473 162.664 150.077 164.283 150.077V144.077ZM164.163 143.669C164.163 143.477 164.195 143.354 164.22 143.286C164.245 143.218 164.27 143.191 164.273 143.187C164.281 143.178 164.226 143.237 164.091 143.237V137.237C160.7 137.237 158.163 140.132 158.163 143.669H164.163ZM164.091 143.237C164.144 143.237 164.095 143.246 163.989 143.199C163.877 143.15 163.774 143.071 163.7 142.982C163.632 142.9 163.626 142.855 163.64 142.9C163.654 142.948 163.683 143.074 163.683 143.297H169.683C169.683 141.898 169.335 140.376 168.316 139.148C167.235 137.847 165.695 137.237 164.091 137.237V143.237ZM163.683 143.297C163.683 143.328 163.682 143.355 163.682 143.377C163.681 143.399 163.68 143.414 163.68 143.421C163.679 143.424 163.679 143.425 163.68 143.423C163.68 143.421 163.68 143.415 163.682 143.406C163.683 143.397 163.685 143.383 163.688 143.365C163.691 143.347 163.695 143.322 163.701 143.293L169.568 144.55C169.673 144.06 169.683 143.571 169.683 143.297H163.683ZM166.635 140.921H162.243V146.921H166.635V140.921ZM159.248 144.103C159.324 145.35 159.761 146.635 160.714 147.642C161.696 148.679 163.026 149.201 164.415 149.201V143.201C164.467 143.201 164.574 143.212 164.71 143.268C164.847 143.325 164.972 143.412 165.07 143.516C165.271 143.727 165.245 143.873 165.237 143.739L159.248 144.103ZM164.415 149.201C165.769 149.201 166.859 148.736 167.713 148.16L164.356 143.187C164.287 143.233 164.274 143.232 164.306 143.221C164.322 143.215 164.342 143.21 164.365 143.206C164.389 143.202 164.406 143.201 164.415 143.201V149.201ZM163.396 147.101L163.792 147.833L169.069 144.978L168.673 144.246L163.396 147.101ZM164.803 143.885C164.66 143.977 164.566 144.021 164.5 144.043C164.442 144.063 164.378 144.077 164.283 144.077V150.077C165.918 150.077 167.163 149.504 168.058 148.925L164.803 143.885ZM162.231 146.129H165.723V140.129H162.231V146.129ZM168.723 143.129C168.723 142.08 168.493 140.806 167.63 139.742C166.689 138.58 165.359 138.113 164.103 138.113V144.113C164.018 144.113 163.832 144.098 163.598 143.997C163.353 143.891 163.134 143.723 162.969 143.52C162.658 143.136 162.723 142.871 162.723 143.129H168.723ZM164.103 138.113C161.318 138.113 159.522 140.363 159.249 142.795L165.212 143.464C165.221 143.382 165.223 143.533 165.023 143.737C164.815 143.95 164.482 144.113 164.103 144.113V138.113Z" fill="#EFF5FF" mask="url(#path-4-inside-1_503_783)"/>
<g opacity="0.6">
<line x1="25.7266" y1="73.9238" x2="173.273" y2="73.9238" stroke="#276BC6" stroke-width="2"/>
<line x1="25.7266" y1="115.924" x2="173.273" y2="115.924" stroke="#276BC6" stroke-width="2"/>
</g>
<path d="M50.1932 50.2498H60.7412V51.2758H50.1932V50.2498ZM57.6992 48.7738L58.3292 48.1258C59.0312 48.4318 59.8592 48.9358 60.2912 49.3498L59.6432 50.0698C59.2112 49.6378 58.3832 49.1158 57.6992 48.7738ZM58.8872 52.1038L59.9852 52.3198C59.0852 55.7218 57.2852 58.2418 54.8012 59.8438C54.6392 59.6278 54.2432 59.1778 54.0092 58.9798C56.4572 57.5578 58.1132 55.2178 58.8872 52.1038ZM50.0132 57.6118C51.3992 57.3778 53.4152 57.0358 55.4492 56.6578L55.4852 57.6118C53.6132 57.9718 51.6872 58.3678 50.1932 58.6378L50.0132 57.6118ZM51.7952 53.2558V55.0738H53.8472V53.2558H51.7952ZM50.8232 52.4098H54.8372V55.9018H50.8232V52.4098ZM55.5212 48.3238H56.6732C56.9072 53.4178 57.6992 58.1698 59.4452 58.4398C59.6972 58.4938 59.8772 57.7378 60.0032 56.5678C60.2192 56.7838 60.6332 57.0718 60.8852 57.1798C60.6512 59.1598 60.0212 59.8798 59.0672 59.5378C56.5832 58.9978 55.8452 53.8858 55.5212 48.3238ZM47.9252 46.6498H62.9732V62.4358H61.6232V47.8738H49.2032V62.4358H47.9252V46.6498ZM48.7172 60.3658H62.3792V61.5898H48.7172V60.3658ZM66.1772 49.0258H80.6852V57.5038H79.2812V50.3578H67.5272V57.5938H66.1772V49.0258ZM66.8972 55.1458H80.0912V56.4598H66.8972V55.1458ZM72.6932 45.8038H74.0972V62.3458H72.6932V45.8038ZM83.2772 56.5318V55.2718H87.8852V56.5318H83.2772ZM89.5715 52.9858L105.249 50.4658L105.465 51.8338L89.7875 54.3358L89.5715 52.9858ZM94.6475 46.1998H96.0875V58.4578C96.0875 59.6098 96.4295 60.0418 97.4915 60.0418C98.2115 60.0418 101.217 60.0418 101.955 60.0418C102.567 60.0418 103.431 59.9878 103.845 59.8978C103.899 60.2758 103.971 60.8878 104.043 61.2118C103.683 61.3018 102.837 61.3378 101.955 61.3378C101.217 61.3378 98.0495 61.3378 97.5635 61.3378C95.4575 61.3378 94.6475 60.5458 94.6475 58.3678V46.1998ZM111.675 45.7498L113.025 46.0918C112.035 48.7558 110.433 51.2578 108.759 52.8778C108.489 52.6438 107.931 52.1938 107.589 52.0138C109.299 50.5198 110.793 48.1798 111.675 45.7498ZM111.387 47.9818H122.997V49.2958H110.739L111.387 47.9818ZM110.505 52.0678H122.601V53.3278H111.855V57.5938H110.505V52.0678ZM107.535 56.9098H123.843V58.2238H107.535V56.9098ZM115.905 48.6658H117.291V62.3818H115.905V48.6658ZM130.269 52.8958L131.259 52.5538C131.817 53.7418 132.411 55.2898 132.591 56.2258L131.529 56.6578C131.349 55.6858 130.809 54.1018 130.269 52.8958ZM128.415 57.5218L129.405 57.3238C129.621 58.4758 129.837 59.9518 129.891 60.9238L128.829 61.1758C128.793 60.1858 128.613 58.6738 128.415 57.5218ZM126.453 57.3958L127.551 57.5938C127.353 59.1418 127.029 60.8518 126.633 61.9678C126.399 61.8418 125.877 61.6618 125.589 61.5718C126.003 60.4738 126.273 58.8538 126.453 57.3958ZM126.039 52.5538C125.967 52.2658 125.751 51.6358 125.589 51.2758C125.913 51.2038 126.219 50.8438 126.597 50.2858C126.975 49.7638 128.235 47.7118 128.973 45.7498L130.251 46.2898C129.315 48.2878 128.091 50.3758 126.885 51.8158V51.8518C126.885 51.8518 126.039 52.2658 126.039 52.5538ZM126.039 52.5358L126.003 51.5458L126.633 51.1498L129.783 50.8798C129.729 51.2218 129.675 51.7078 129.675 51.9778C126.831 52.3018 126.309 52.4098 126.039 52.5358ZM126.147 56.6038C126.075 56.3338 125.877 55.6858 125.715 55.3438C126.111 55.2538 126.507 54.8038 127.065 54.1378C127.659 53.4718 129.567 50.9158 130.737 48.4678L131.907 49.1698C130.503 51.6358 128.757 54.1198 127.011 55.8838V55.9198C127.011 55.9198 126.147 56.3338 126.147 56.6038ZM126.147 56.6038L126.093 55.5778L126.741 55.1458L131.601 54.4618C131.565 54.7858 131.547 55.2718 131.565 55.5418C127.101 56.2618 126.507 56.4058 126.147 56.6038ZM130.377 57.1798L131.331 56.8738C131.691 57.8098 132.087 59.0338 132.267 59.8078L131.241 60.1498C131.097 59.3578 130.719 58.1158 130.377 57.1798ZM132.393 46.6678H138.981V47.9458H132.393V46.6678ZM138.657 46.6678H138.801L139.017 46.6138L139.935 46.7398C139.719 48.3778 139.359 50.5918 139.017 52.2838L137.757 52.1578C138.117 50.4478 138.495 48.0538 138.657 46.8298V46.6678ZM134.715 51.8158H140.493V53.0398H134.481L134.715 51.8158ZM140.115 51.8158H140.367L140.601 51.7618L141.465 52.0678C140.511 57.2158 137.973 60.6178 134.859 62.3818C134.679 62.0578 134.301 61.5898 133.995 61.3558C136.857 59.8798 139.287 56.5138 140.115 52.0858V51.8158ZM134.175 47.1538L135.507 47.1718C135.399 53.8858 135.039 58.7998 132.555 62.2558C132.339 62.0398 131.691 61.5898 131.385 61.4098C133.833 58.3498 134.157 53.3998 134.175 47.1538ZM136.191 52.5898C137.073 56.4598 138.963 59.8078 142.059 61.1578C141.753 61.4098 141.339 61.9318 141.123 62.2738C137.937 60.6718 136.065 57.1438 135.075 52.8238L136.191 52.5898ZM47.3852 91.1418H52.7852V92.4198H47.3852V91.1418ZM49.5452 87.0198H50.8232V98.7018H49.5452V87.0198ZM47.0432 99.0078C48.4832 98.4678 50.6792 97.5498 52.8032 96.6498L53.0912 97.8558C51.1832 98.7378 49.1672 99.6558 47.5832 100.358L47.0432 99.0078ZM57.8792 86.8038H59.1572V99.3498H57.8792V86.8038ZM52.2092 94.2378L61.9112 90.1518L62.4152 91.3038L52.7312 95.4258L52.2092 94.2378ZM54.1532 88.4958H55.4492V100.538C55.4492 101.528 55.6652 101.744 56.8712 101.744C57.4652 101.744 60.4892 101.744 61.2092 101.744C62.2712 101.744 62.4512 101.258 62.5772 99.1878C62.9012 99.4038 63.4232 99.6198 63.8012 99.6918C63.5852 102.176 63.1532 102.968 61.2632 102.968C60.7772 102.968 57.2852 102.968 56.8352 102.968C54.7652 102.968 54.1532 102.482 54.1532 100.52V88.4958ZM61.5512 90.5838H61.3532L61.9112 90.1518L62.9372 90.4758L62.8652 90.7098C62.7032 93.2658 62.3972 96.5958 61.9292 98.6478L60.8132 98.3238C61.1732 96.3978 61.4432 93.0858 61.5512 90.5838ZM72.9992 92.2218V94.5438H79.6952V92.2218H72.9992ZM72.9992 88.8198V91.1058H79.6952V88.8198H72.9992ZM71.7752 87.6498H80.9912V95.7138H71.7752V87.6498ZM71.5412 97.8198H81.2432V99.0618H71.5412V97.8198ZM70.1552 101.546H81.8372V102.77H70.1552V101.546ZM65.2592 88.0278H70.8752V89.3058H65.2592V88.0278ZM65.4572 93.2298H70.6232V94.5078H65.4572V93.2298ZM65.0792 100.124C66.5372 99.7278 68.6972 99.0258 70.7852 98.3238L71.0192 99.6198C69.0572 100.286 67.0052 100.97 65.4032 101.51L65.0792 100.124ZM67.5092 88.5318H68.8052V99.6918L67.5092 99.9438V88.5318ZM75.7532 88.2078H76.9412V95.1378H77.0312V102.104H75.6632V95.1378H75.7532V88.2078ZM83.2772 97.5318V96.2718H87.8852V97.5318H83.2772ZM98.4275 94.4178C99.6155 98.1978 102.171 100.988 106.077 102.104C105.753 102.392 105.357 102.95 105.159 103.328C101.109 101.978 98.5535 98.9898 97.1855 94.7418L98.4275 94.4178ZM90.5075 88.2078H104.781V89.5758H90.5075V88.2078ZM89.8775 93.7338H105.555V95.1198H89.8775V93.7338ZM96.8615 88.6758H98.2655V91.7178C98.2655 95.4438 97.5455 100.34 90.3095 103.346C90.1295 103.004 89.7155 102.482 89.4275 102.212C96.2495 99.4398 96.8615 94.9938 96.8615 91.6998V88.6758ZM111.045 88.4778H123.285V89.5578H111.045V88.4778ZM111.117 90.6918H121.899V91.7358H111.117V90.6918ZM109.263 92.9058H119.991V93.9858H109.263V92.9058ZM108.111 97.5498H118.983V98.6298H108.111V97.5498ZM111.459 86.8038L112.791 87.1818C111.765 89.5218 110.127 91.6998 108.399 93.1038C108.201 92.8338 107.715 92.2938 107.427 92.0598C109.101 90.7998 110.595 88.8558 111.459 86.8038ZM119.613 92.9058H120.963C120.945 98.5218 121.089 102.032 122.547 102.032C122.907 102.032 122.997 100.97 123.033 99.4038C123.303 99.7098 123.699 100.034 123.969 100.214C123.861 102.572 123.573 103.364 122.457 103.364C119.793 103.364 119.649 99.4038 119.613 92.9058ZM109.335 95.0118L110.343 94.5798C110.973 95.2638 111.585 96.1998 111.801 96.8478L110.721 97.3158C110.505 96.6678 109.929 95.7138 109.335 95.0118ZM112.953 94.3818H114.231V103.346H112.953V94.3818ZM116.877 94.5978L118.065 95.0298C117.417 95.8938 116.679 96.8298 116.103 97.4418L115.203 97.0638C115.779 96.3978 116.481 95.3178 116.877 94.5978ZM111.441 99.1878L112.449 99.5838C111.603 101.024 110.073 102.518 108.687 103.292C108.507 102.986 108.111 102.554 107.823 102.302C109.155 101.69 110.649 100.412 111.441 99.1878ZM114.987 99.9438L115.779 99.2058C116.967 100.07 118.443 101.294 119.163 102.122L118.335 102.95C117.615 102.122 116.157 100.826 114.987 99.9438ZM129.045 88.4778H141.285V89.5578H129.045V88.4778ZM129.117 90.6918H139.899V91.7358H129.117V90.6918ZM127.263 92.9058H137.991V93.9858H127.263V92.9058ZM126.111 97.5498H136.983V98.6298H126.111V97.5498ZM129.459 86.8038L130.791 87.1818C129.765 89.5218 128.127 91.6998 126.399 93.1038C126.201 92.8338 125.715 92.2938 125.427 92.0598C127.101 90.7998 128.595 88.8558 129.459 86.8038ZM137.613 92.9058H138.963C138.945 98.5218 139.089 102.032 140.547 102.032C140.907 102.032 140.997 100.97 141.033 99.4038C141.303 99.7098 141.699 100.034 141.969 100.214C141.861 102.572 141.573 103.364 140.457 103.364C137.793 103.364 137.649 99.4038 137.613 92.9058ZM127.335 95.0118L128.343 94.5798C128.973 95.2638 129.585 96.1998 129.801 96.8478L128.721 97.3158C128.505 96.6678 127.929 95.7138 127.335 95.0118ZM130.953 94.3818H132.231V103.346H130.953V94.3818ZM134.877 94.5978L136.065 95.0298C135.417 95.8938 134.679 96.8298 134.103 97.4418L133.203 97.0638C133.779 96.3978 134.481 95.3178 134.877 94.5978ZM129.441 99.1878L130.449 99.5838C129.603 101.024 128.073 102.518 126.687 103.292C126.507 102.986 126.111 102.554 125.823 102.302C127.155 101.69 128.649 100.412 129.441 99.1878ZM132.987 99.9438L133.779 99.2058C134.967 100.07 136.443 101.294 137.163 102.122L136.335 102.95C135.615 102.122 134.157 100.826 132.987 99.9438ZM152.085 92.2758L153.309 92.5458C152.769 94.3098 151.869 96.0018 150.897 97.0998C150.663 96.9018 150.123 96.5778 149.835 96.4158C150.807 95.3718 151.617 93.8418 152.085 92.2758ZM151.743 93.9858H159.285V95.1378H151.743V93.9858ZM149.979 97.4958H159.897V98.6658H149.979V97.4958ZM149.943 90.9978H159.879V92.1498H149.943V90.9978ZM154.191 94.5078H155.541V97.1358C155.541 99.1698 154.875 101.708 150.249 103.418C150.051 103.112 149.673 102.662 149.367 102.41C153.813 100.97 154.191 98.7558 154.191 97.1178V94.5078ZM148.035 90.7638H149.223V99.8718H148.035V90.7638ZM146.829 86.9118L148.071 87.2538C147.153 90.3678 145.659 93.5538 144.003 95.6418C143.877 95.3358 143.517 94.6158 143.265 94.2738C144.741 92.4558 146.037 89.6838 146.829 86.9118ZM145.281 91.7358L146.541 90.4938L146.577 90.5298V103.4H145.281V91.7358ZM150.951 87.6858H157.305V88.8378H150.951V87.6858ZM156.927 87.6858H157.089L157.305 87.6138L158.241 87.7398C158.097 88.9998 157.863 90.4938 157.629 91.6458L156.369 91.5198C156.585 90.3318 156.819 88.7298 156.927 87.8478V87.6858ZM155.433 99.6738L156.369 98.9718C157.611 100.07 159.285 101.564 160.149 102.482L159.141 103.292C158.331 102.374 156.693 100.808 155.433 99.6738Z" fill="#1C276D"/>
<path d="M75.418 19.8486L79.482 10.119L75.418 0.000368453L123.582 0.000368453L120.534 10.119L123.582 19.8486L75.418 19.8486Z" fill="#FFDE67"/>
<rect y="183" width="161" height="30" rx="15" fill="#4395E6"/>
<rect x="0.5" y="183.424" width="198" height="29" rx="14.5" stroke="#1C276D"/>
<path d="M178.044 207.924V199.924M178.044 199.924L180.514 199.43C182.165 199.099 183.876 199.257 185.439 199.882C187.133 200.559 188.996 200.685 190.766 200.243L190.98 200.19C191.284 200.114 191.554 199.939 191.746 199.692C191.939 199.445 192.044 199.141 192.044 198.828V191.461C192.044 191.279 192.002 191.099 191.922 190.935C191.842 190.771 191.726 190.628 191.583 190.516C191.439 190.403 191.272 190.325 191.094 190.288C190.915 190.25 190.731 190.253 190.554 190.297C188.923 190.704 187.204 190.588 185.643 189.963L185.439 189.882C183.876 189.257 182.165 189.1 180.515 189.43L178.044 189.924M178.044 199.924V196.924M178.044 189.924V187.924M178.044 189.924V192.924" stroke="#1C276D" stroke-width="2" stroke-linecap="round"/>
<defs>
<filter id="filter0_d_503_783" x="0" y="9.92383" width="207" height="171" filterUnits="userSpaceOnUse" color-interpolation-filters="sRGB">
<feFlood flood-opacity="0" result="BackgroundImageFix"/>
<feColorMatrix in="SourceAlpha" type="matrix" values="0 0 0 0 0 0 0 0 0 0 0 0 0 0 0 0 0 0 127 0" result="hardAlpha"/>
<feOffset dx="4" dy="4"/>
<feGaussianBlur stdDeviation="2"/>
<feComposite in2="hardAlpha" operator="out"/>
<feColorMatrix type="matrix" values="0 0 0 0 0.151771 0 0 0 0 0.420893 0 0 0 0 0.775 0 0 0 0.25 0"/>
<feBlend mode="normal" in2="BackgroundImageFix" result="effect1_dropShadow_503_783"/>
<feBlend mode="normal" in="SourceGraphic" in2="effect1_dropShadow_503_783" result="shape"/>
</filter>
</defs>
</svg>
