<svg width="28" height="28" viewBox="0 0 28 28" fill="none" xmlns="http://www.w3.org/2000/svg">
<path d="M20.8553 9.2006C20.8841 9.39019 20.9273 9.54859 20.9993 9.69619C21.1769 10.0694 21.5033 10.3418 22.1549 10.8865L22.7489 11.3821C25.0421 13.2997 26.1893 14.2585 25.9745 15.3924C25.7585 16.5276 24.3257 17.0868 21.4565 18.2051L20.7149 18.4943C19.8989 18.8123 19.4909 18.9719 19.1862 19.2707C18.8802 19.5695 18.7122 19.9739 18.3738 20.7839L18.0654 21.5206C16.875 24.3706 16.2798 25.7961 15.1446 25.9809C14.0094 26.1669 13.0866 24.9897 11.2398 22.6354L10.7622 22.027C10.2366 21.3574 9.97504 21.0239 9.60785 20.8343C9.24065 20.6459 8.80985 20.6231 7.94946 20.5787L7.16467 20.5391C4.1359 20.3831 2.62151 20.3051 2.13432 19.2851C1.64832 18.2651 2.51111 16.9788 4.2379 14.4048L4.68549 13.7389C5.17509 13.0069 5.42109 12.6421 5.50028 12.2269C5.57828 11.8105 5.48109 11.3917 5.28789 10.5554L5.11149 9.79338C4.4287 6.84747 4.0879 5.37271 4.92309 4.55674C5.75708 3.74076 7.21507 4.12235 10.1286 4.88673L10.8822 5.08352C11.7102 5.30071 12.1242 5.40871 12.5406 5.34151C12.9558 5.27311 13.3266 5.03672 14.067 4.56394L14.7426 4.13195C17.3502 2.4676 18.6546 1.63602 19.6565 2.15201C20.2781 2.4712 20.5289 3.18038 20.6465 4.39954" stroke="#48B2FF" stroke-width="2.5" stroke-linecap="round"/>
<path d="M23.035 21.7642C22.9526 21.6758 22.8532 21.6049 22.7428 21.5557C22.6324 21.5065 22.5133 21.4801 22.3924 21.4779C22.2716 21.4758 22.1516 21.498 22.0395 21.5433C21.9274 21.5885 21.8256 21.6559 21.7402 21.7414C21.6547 21.8268 21.5873 21.9286 21.5421 22.0407C21.4968 22.1528 21.4746 22.2728 21.4767 22.3936C21.4788 22.5145 21.5053 22.6336 21.5545 22.744C21.6037 22.8544 21.6746 22.9538 21.763 23.0362L23.035 21.7642ZM24.163 25.4361C24.2454 25.5245 24.3447 25.5955 24.4551 25.6446C24.5655 25.6938 24.6847 25.7203 24.8056 25.7224C24.9264 25.7245 25.0464 25.7023 25.1585 25.6571C25.2706 25.6118 25.3724 25.5444 25.4578 25.459C25.5433 25.3735 25.6107 25.2717 25.6559 25.1596C25.7012 25.0476 25.7234 24.9275 25.7213 24.8067C25.7191 24.6859 25.6927 24.5667 25.6435 24.4563C25.5943 24.3459 25.5234 24.2465 25.435 24.1642L24.163 25.4361ZM21.763 23.0362L24.163 25.4361L25.435 24.1642L23.035 21.7642L21.763 23.0362Z" fill="#48B2FF"/>
</svg>
