<svg width="207" height="213" viewBox="0 0 207 213" fill="none" xmlns="http://www.w3.org/2000/svg">
<rect y="183" width="169" height="30" rx="15" fill="#4395E6"/>
<rect x="0.5" y="183.424" width="198" height="29" rx="14.5" stroke="#1C276D"/>
<path d="M178.044 207.924V199.924M178.044 199.924L180.514 199.43C182.165 199.099 183.876 199.257 185.439 199.882C187.133 200.559 188.996 200.685 190.766 200.243L190.98 200.19C191.284 200.114 191.554 199.939 191.746 199.692C191.939 199.445 192.044 199.141 192.044 198.828V191.461C192.044 191.279 192.002 191.099 191.922 190.935C191.842 190.771 191.726 190.628 191.583 190.516C191.439 190.403 191.272 190.325 191.094 190.288C190.915 190.25 190.731 190.253 190.554 190.297C188.923 190.704 187.204 190.588 185.643 189.963L185.439 189.882C183.876 189.257 182.165 189.1 180.515 189.43L178.044 189.924M178.044 199.924V196.924M178.044 189.924V187.924M178.044 189.924V192.924" stroke="#1C276D" stroke-width="2" stroke-linecap="round"/>
<g filter="url(#filter0_d_503_775)">
<rect y="9.92383" width="199" height="163" rx="10" fill="#FFFEF6"/>
</g>
<g filter="url(#filter1_d_503_775)">
<path d="M10 10.4238H189C194.247 10.4238 198.5 14.6771 198.5 19.9238V162.924C198.5 168.171 194.247 172.424 189 172.424H10C4.75329 172.424 0.5 168.171 0.5 162.924V19.9238C0.5 14.6771 4.75329 10.4238 10 10.4238Z" stroke="#276BC6" shape-rendering="crispEdges"/>
</g>
<mask id="path-6-inside-1_503_775" fill="white">
<path fill-rule="evenodd" clip-rule="evenodd" d="M37.2892 9.92385H32.8668V14.617C30.8726 15.9919 29.5654 18.2921 29.5654 20.8976C29.5654 25.1078 32.9785 28.5208 37.1887 28.5208C41.3989 28.5208 44.8119 25.1078 44.8119 20.8976C44.8119 18.292 43.5046 15.9916 41.5101 14.6167V9.92385L39.6465 9.92383L37.2892 9.92385ZM68.3444 28.5208C72.5546 28.5208 75.9677 25.1078 75.9677 20.8976C75.9677 18.292 74.6604 15.9916 72.6659 14.6167V9.92386H64.0226V14.617C62.0283 15.9919 60.7212 18.2921 60.7212 20.8976C60.7212 25.1078 64.1342 28.5208 68.3444 28.5208ZM107.123 20.8976C107.123 25.1078 103.71 28.5208 99.5002 28.5208C95.29 28.5208 91.877 25.1078 91.877 20.8976C91.877 18.2921 93.1841 15.9919 95.1784 14.617V9.92386H103.822V14.6167C105.816 15.9916 107.123 18.292 107.123 20.8976ZM130.656 28.5208C134.866 28.5208 138.279 25.1078 138.279 20.8976C138.279 18.292 136.972 15.9916 134.977 14.6167V9.92386H126.334V14.617C124.34 15.9919 123.033 18.2921 123.033 20.8976C123.033 25.1078 126.446 28.5208 130.656 28.5208ZM169.435 20.8976C169.435 25.1078 166.022 28.5208 161.812 28.5208C157.602 28.5208 154.188 25.1078 154.188 20.8976C154.188 18.2921 155.496 15.9919 157.49 14.617V9.92386H166.133V14.6167C168.128 15.9916 169.435 18.292 169.435 20.8976Z"/>
</mask>
<path d="M32.8668 9.92385V8.92385H31.8668V9.92385H32.8668ZM37.2892 9.92385L37.2892 10.9239L37.2892 10.9239L37.2892 9.92385ZM32.8668 14.617L33.4344 15.4403L33.8668 15.1422V14.617H32.8668ZM41.5101 14.6167H40.5101V15.142L40.9426 15.4401L41.5101 14.6167ZM41.5101 9.92385H42.5101V8.92387L41.5102 8.92385L41.5101 9.92385ZM39.6465 9.92383L39.6466 8.92383L39.6465 8.92383L39.6465 9.92383ZM72.6659 14.6167H71.6659V15.142L72.0983 15.4401L72.6659 14.6167ZM72.6659 9.92386H73.6659V8.92386H72.6659V9.92386ZM64.0226 9.92386V8.92386H63.0226V9.92386H64.0226ZM64.0226 14.617L64.5902 15.4403L65.0226 15.1422V14.617H64.0226ZM95.1784 14.617L95.746 15.4403L96.1784 15.1422V14.617H95.1784ZM95.1784 9.92386V8.92386H94.1784V9.92386H95.1784ZM103.822 9.92386H104.822V8.92386H103.822V9.92386ZM103.822 14.6167H102.822V15.142L103.254 15.4401L103.822 14.6167ZM134.977 14.6167H133.977V15.142L134.41 15.4401L134.977 14.6167ZM134.977 9.92386H135.977V8.92386H134.977V9.92386ZM126.334 9.92386V8.92386H125.334V9.92386H126.334ZM126.334 14.617L126.902 15.4403L127.334 15.1422V14.617H126.334ZM157.49 14.617L158.057 15.4403L158.49 15.1422V14.617H157.49ZM157.49 9.92386V8.92386H156.49V9.92386H157.49ZM166.133 9.92386H167.133V8.92386H166.133V9.92386ZM166.133 14.6167H165.133V15.142L165.566 15.4401L166.133 14.6167ZM32.8668 10.9239H37.2892V8.92385H32.8668V10.9239ZM33.8668 14.617V9.92385H31.8668V14.617H33.8668ZM30.5654 20.8976C30.5654 18.6348 31.6993 16.6365 33.4344 15.4403L32.2992 13.7937C30.0458 15.3473 28.5654 17.9494 28.5654 20.8976H30.5654ZM37.1887 27.5208C33.5308 27.5208 30.5654 24.5555 30.5654 20.8976H28.5654C28.5654 25.6601 32.4262 29.5208 37.1887 29.5208V27.5208ZM43.8119 20.8976C43.8119 24.5555 40.8466 27.5208 37.1887 27.5208V29.5208C41.9511 29.5208 45.8119 25.6601 45.8119 20.8976H43.8119ZM40.9426 15.4401C42.6779 16.6363 43.8119 18.6346 43.8119 20.8976H45.8119C45.8119 17.9493 44.3313 15.347 42.0777 13.7934L40.9426 15.4401ZM40.5101 9.92385V14.6167H42.5101V9.92385H40.5101ZM39.6465 10.9238L41.5101 10.9239L41.5102 8.92385L39.6466 8.92383L39.6465 10.9238ZM37.2892 10.9239L39.6466 10.9238L39.6465 8.92383L37.2892 8.92385L37.2892 10.9239ZM74.9677 20.8976C74.9677 24.5555 72.0023 27.5208 68.3444 27.5208V29.5208C73.1069 29.5208 76.9677 25.6601 76.9677 20.8976H74.9677ZM72.0983 15.4401C73.8336 16.6363 74.9677 18.6346 74.9677 20.8976H76.9677C76.9677 17.9493 75.4871 15.347 73.2335 13.7934L72.0983 15.4401ZM71.6659 9.92386V14.6167H73.6659V9.92386H71.6659ZM64.0226 10.9239H72.6659V8.92386H64.0226V10.9239ZM65.0226 14.617V9.92386H63.0226V14.617H65.0226ZM61.7212 20.8976C61.7212 18.6348 62.8551 16.6365 64.5902 15.4403L63.455 13.7937C61.2016 15.3473 59.7212 17.9494 59.7212 20.8976H61.7212ZM68.3444 27.5208C64.6865 27.5208 61.7212 24.5555 61.7212 20.8976H59.7212C59.7212 25.6601 63.5819 29.5208 68.3444 29.5208V27.5208ZM99.5002 29.5208C104.263 29.5208 108.123 25.6601 108.123 20.8976H106.123C106.123 24.5555 103.158 27.5208 99.5002 27.5208V29.5208ZM90.877 20.8976C90.877 25.6601 94.7377 29.5208 99.5002 29.5208V27.5208C95.8423 27.5208 92.877 24.5555 92.877 20.8976H90.877ZM94.6108 13.7937C92.3573 15.3473 90.877 17.9494 90.877 20.8976H92.877C92.877 18.6348 94.0108 16.6365 95.746 15.4403L94.6108 13.7937ZM94.1784 9.92386V14.617H96.1784V9.92386H94.1784ZM103.822 8.92386H95.1784V10.9239H103.822V8.92386ZM104.822 14.6167V9.92386H102.822V14.6167H104.822ZM108.123 20.8976C108.123 17.9493 106.643 15.347 104.389 13.7934L103.254 15.4401C104.989 16.6363 106.123 18.6346 106.123 20.8976H108.123ZM137.279 20.8976C137.279 24.5555 134.314 27.5208 130.656 27.5208V29.5208C135.418 29.5208 139.279 25.6601 139.279 20.8976H137.279ZM134.41 15.4401C136.145 16.6363 137.279 18.6346 137.279 20.8976H139.279C139.279 17.9493 137.799 15.347 135.545 13.7934L134.41 15.4401ZM133.977 9.92386V14.6167H135.977V9.92386H133.977ZM126.334 10.9239H134.977V8.92386H126.334V10.9239ZM127.334 14.617V9.92386H125.334V14.617H127.334ZM124.033 20.8976C124.033 18.6348 125.167 16.6365 126.902 15.4403L125.767 13.7937C123.513 15.3473 122.033 17.9494 122.033 20.8976H124.033ZM130.656 27.5208C126.998 27.5208 124.033 24.5555 124.033 20.8976H122.033C122.033 25.6601 125.893 29.5208 130.656 29.5208V27.5208ZM161.812 29.5208C166.574 29.5208 170.435 25.6601 170.435 20.8976H168.435C168.435 24.5555 165.47 27.5208 161.812 27.5208V29.5208ZM153.188 20.8976C153.188 25.6601 157.049 29.5208 161.812 29.5208V27.5208C158.154 27.5208 155.188 24.5555 155.188 20.8976H153.188ZM156.922 13.7937C154.669 15.3473 153.188 17.9494 153.188 20.8976H155.188C155.188 18.6348 156.322 16.6365 158.057 15.4403L156.922 13.7937ZM158.49 14.617V9.92386H156.49V14.617H158.49ZM157.49 10.9239H166.133V8.92386H157.49V10.9239ZM165.133 9.92386V14.6167H167.133V9.92386H165.133ZM170.435 20.8976C170.435 17.9493 168.954 15.347 166.701 13.7934L165.566 15.4401C167.301 16.6363 168.435 18.6346 168.435 20.8976H170.435Z" fill="#276BC6" mask="url(#path-6-inside-1_503_775)"/>
<rect x="32.8428" y="9.92383" width="1.03625" height="1.03625" fill="#276BC6"/>
<rect x="40.5049" y="9.92383" width="1.03625" height="1.03625" fill="#276BC6"/>
<rect x="64.0049" y="9.92383" width="1.03625" height="1.03625" fill="#276BC6"/>
<rect x="71.6602" y="9.92383" width="1.03625" height="1.03625" fill="#276BC6"/>
<rect x="95.1543" y="9.92383" width="1.03625" height="1.03625" fill="#276BC6"/>
<rect x="102.809" y="9.92383" width="1.03625" height="1.03625" fill="#276BC6"/>
<rect x="126.303" y="9.92383" width="1.03625" height="1.03625" fill="#276BC6"/>
<rect x="157.452" y="9.92383" width="1.03625" height="1.03625" fill="#276BC6"/>
<rect x="133.958" y="9.92383" width="1.03625" height="1.03625" fill="#276BC6"/>
<rect x="165.107" y="9.92383" width="1.03625" height="1.03625" fill="#276BC6"/>
<rect x="106.904" y="131.424" width="72.3529" height="25" rx="12.5" fill="#4395E6" stroke="#4395E6"/>
<mask id="path-19-inside-2_503_775" fill="white">
<path d="M121.367 147.077C119.639 147.077 118.319 145.817 118.319 143.669C118.319 141.485 119.783 140.237 121.451 140.237C122.303 140.237 122.903 140.585 123.359 141.005L122.807 141.725C122.423 141.377 122.015 141.149 121.511 141.149C120.311 141.149 119.447 142.157 119.447 143.669C119.447 145.157 120.275 146.165 121.475 146.165C122.063 146.165 122.603 145.877 123.011 145.517L123.479 146.249C122.903 146.765 122.147 147.077 121.367 147.077ZM127.144 147.077C125.536 147.077 124.12 145.817 124.12 143.669C124.12 141.485 125.536 140.237 127.144 140.237C128.74 140.237 130.156 141.485 130.156 143.669C130.156 145.817 128.74 147.077 127.144 147.077ZM127.144 146.165C128.272 146.165 129.028 145.157 129.028 143.669C129.028 142.157 128.272 141.149 127.144 141.149C126.004 141.149 125.248 142.157 125.248 143.669C125.248 145.157 126.004 146.165 127.144 146.165ZM131.889 146.909V140.393H132.777L132.885 141.341H132.921C133.533 140.729 134.205 140.237 135.105 140.237C136.473 140.237 137.097 141.125 137.097 142.781V146.909H135.993V142.925C135.993 141.701 135.621 141.185 134.757 141.185C134.097 141.185 133.629 141.533 132.981 142.181V146.909H131.889ZM141.253 147.077C139.861 147.077 139.405 146.201 139.405 144.905V141.281H138.433V140.465L139.453 140.393L139.573 138.557H140.497V140.393H142.261V141.281H140.497V144.929C140.497 145.721 140.749 146.189 141.505 146.189C141.733 146.189 142.033 146.093 142.237 146.009L142.453 146.825C142.093 146.957 141.661 147.077 141.253 147.077ZM143.737 146.909V140.393H144.829V146.909H143.737ZM144.289 139.049C143.857 139.049 143.557 138.773 143.557 138.317C143.557 137.897 143.857 137.621 144.289 137.621C144.709 137.621 145.021 137.897 145.021 138.317C145.021 138.773 144.709 139.049 144.289 139.049ZM147.042 146.909V140.393H147.93L148.038 141.341H148.074C148.686 140.729 149.358 140.237 150.258 140.237C151.626 140.237 152.25 141.125 152.25 142.781V146.909H151.146V142.925C151.146 141.701 150.774 141.185 149.91 141.185C149.25 141.185 148.782 141.533 148.134 142.181V146.909H147.042ZM156.262 147.077C154.894 147.077 154.27 146.189 154.27 144.521V140.393H155.362V144.389C155.362 145.601 155.734 146.117 156.598 146.117C157.258 146.117 157.738 145.793 158.35 145.025V140.393H159.442V146.909H158.542L158.446 145.889H158.422C157.81 146.597 157.162 147.077 156.262 147.077ZM164.283 147.077C162.543 147.077 161.163 145.805 161.163 143.669C161.163 141.545 162.591 140.237 164.091 140.237C165.747 140.237 166.683 141.425 166.683 143.297C166.683 143.525 166.671 143.753 166.635 143.921H162.243C162.327 145.301 163.167 146.201 164.415 146.201C165.039 146.201 165.555 145.997 166.035 145.673L166.431 146.405C165.855 146.777 165.171 147.077 164.283 147.077ZM162.231 143.129H165.723C165.723 141.821 165.135 141.113 164.103 141.113C163.191 141.113 162.375 141.845 162.231 143.129Z"/>
</mask>
<path d="M121.367 147.077C119.639 147.077 118.319 145.817 118.319 143.669C118.319 141.485 119.783 140.237 121.451 140.237C122.303 140.237 122.903 140.585 123.359 141.005L122.807 141.725C122.423 141.377 122.015 141.149 121.511 141.149C120.311 141.149 119.447 142.157 119.447 143.669C119.447 145.157 120.275 146.165 121.475 146.165C122.063 146.165 122.603 145.877 123.011 145.517L123.479 146.249C122.903 146.765 122.147 147.077 121.367 147.077ZM127.144 147.077C125.536 147.077 124.12 145.817 124.12 143.669C124.12 141.485 125.536 140.237 127.144 140.237C128.74 140.237 130.156 141.485 130.156 143.669C130.156 145.817 128.74 147.077 127.144 147.077ZM127.144 146.165C128.272 146.165 129.028 145.157 129.028 143.669C129.028 142.157 128.272 141.149 127.144 141.149C126.004 141.149 125.248 142.157 125.248 143.669C125.248 145.157 126.004 146.165 127.144 146.165ZM131.889 146.909V140.393H132.777L132.885 141.341H132.921C133.533 140.729 134.205 140.237 135.105 140.237C136.473 140.237 137.097 141.125 137.097 142.781V146.909H135.993V142.925C135.993 141.701 135.621 141.185 134.757 141.185C134.097 141.185 133.629 141.533 132.981 142.181V146.909H131.889ZM141.253 147.077C139.861 147.077 139.405 146.201 139.405 144.905V141.281H138.433V140.465L139.453 140.393L139.573 138.557H140.497V140.393H142.261V141.281H140.497V144.929C140.497 145.721 140.749 146.189 141.505 146.189C141.733 146.189 142.033 146.093 142.237 146.009L142.453 146.825C142.093 146.957 141.661 147.077 141.253 147.077ZM143.737 146.909V140.393H144.829V146.909H143.737ZM144.289 139.049C143.857 139.049 143.557 138.773 143.557 138.317C143.557 137.897 143.857 137.621 144.289 137.621C144.709 137.621 145.021 137.897 145.021 138.317C145.021 138.773 144.709 139.049 144.289 139.049ZM147.042 146.909V140.393H147.93L148.038 141.341H148.074C148.686 140.729 149.358 140.237 150.258 140.237C151.626 140.237 152.25 141.125 152.25 142.781V146.909H151.146V142.925C151.146 141.701 150.774 141.185 149.91 141.185C149.25 141.185 148.782 141.533 148.134 142.181V146.909H147.042ZM156.262 147.077C154.894 147.077 154.27 146.189 154.27 144.521V140.393H155.362V144.389C155.362 145.601 155.734 146.117 156.598 146.117C157.258 146.117 157.738 145.793 158.35 145.025V140.393H159.442V146.909H158.542L158.446 145.889H158.422C157.81 146.597 157.162 147.077 156.262 147.077ZM164.283 147.077C162.543 147.077 161.163 145.805 161.163 143.669C161.163 141.545 162.591 140.237 164.091 140.237C165.747 140.237 166.683 141.425 166.683 143.297C166.683 143.525 166.671 143.753 166.635 143.921H162.243C162.327 145.301 163.167 146.201 164.415 146.201C165.039 146.201 165.555 145.997 166.035 145.673L166.431 146.405C165.855 146.777 165.171 147.077 164.283 147.077ZM162.231 143.129H165.723C165.723 141.821 165.135 141.113 164.103 141.113C163.191 141.113 162.375 141.845 162.231 143.129Z" fill="#EFF5FF"/>
<path d="M123.359 141.005L125.74 142.83L127.407 140.655L125.391 138.799L123.359 141.005ZM122.807 141.725L120.792 143.948L123.206 146.135L125.188 143.55L122.807 141.725ZM123.011 145.517L125.539 143.901L123.652 140.951L121.026 143.268L123.011 145.517ZM123.479 146.249L125.481 148.484L127.38 146.782L126.007 144.633L123.479 146.249ZM121.367 144.077C121.301 144.077 121.287 144.066 121.308 144.075C121.332 144.084 121.362 144.104 121.386 144.129C121.408 144.153 121.397 144.153 121.376 144.095C121.354 144.034 121.319 143.899 121.319 143.669H115.319C115.319 145.363 115.849 146.994 117.004 148.228C118.168 149.472 119.749 150.077 121.367 150.077V144.077ZM121.319 143.669C121.319 143.46 121.353 143.342 121.373 143.29C121.393 143.239 121.407 143.229 121.4 143.236C121.377 143.26 121.373 143.237 121.451 143.237V137.237C119.861 137.237 118.291 137.839 117.119 139.032C115.933 140.24 115.319 141.882 115.319 143.669H121.319ZM121.451 143.237C121.458 143.237 121.445 143.238 121.417 143.232C121.389 143.226 121.36 143.216 121.334 143.205C121.281 143.181 121.277 143.166 121.327 143.212L125.391 138.799C124.537 138.012 123.244 137.237 121.451 137.237V143.237ZM120.978 139.18L120.426 139.9L125.188 143.55L125.74 142.83L120.978 139.18ZM124.822 139.502C124.138 138.883 123.042 138.149 121.511 138.149V144.149C121.287 144.149 121.08 144.093 120.924 144.02C120.79 143.956 120.743 143.903 120.792 143.948L124.822 139.502ZM121.511 138.149C120.006 138.149 118.649 138.808 117.721 139.926C116.824 141.007 116.447 142.357 116.447 143.669H122.447C122.447 143.469 122.502 143.56 122.338 143.758C122.254 143.859 122.13 143.964 121.965 144.042C121.799 144.121 121.638 144.149 121.511 144.149V138.149ZM116.447 143.669C116.447 144.949 116.804 146.289 117.686 147.371C118.606 148.499 119.963 149.165 121.475 149.165V143.165C121.603 143.165 121.77 143.194 121.946 143.278C122.12 143.361 122.25 143.474 122.336 143.58C122.504 143.786 122.447 143.877 122.447 143.669H116.447ZM121.475 149.165C123.038 149.165 124.255 148.42 124.996 147.767L121.026 143.268C121.01 143.282 121.022 143.266 121.077 143.241C121.137 143.214 121.275 143.165 121.475 143.165V149.165ZM120.483 147.133L120.951 147.865L126.007 144.633L125.539 143.901L120.483 147.133ZM121.477 144.015C121.449 144.04 121.418 144.058 121.391 144.069C121.366 144.079 121.357 144.077 121.367 144.077V150.077C122.941 150.077 124.397 149.455 125.481 148.484L121.477 144.015ZM127.144 144.077C127.135 144.077 127.143 144.076 127.161 144.083C127.18 144.091 127.195 144.103 127.203 144.111C127.211 144.12 127.195 144.108 127.175 144.053C127.153 143.996 127.12 143.875 127.12 143.669H121.12C121.12 147.331 123.739 150.077 127.144 150.077V144.077ZM127.12 143.669C127.12 143.449 127.155 143.319 127.178 143.258C127.2 143.199 127.216 143.188 127.205 143.199C127.195 143.21 127.178 143.223 127.157 143.231C127.138 143.239 127.131 143.237 127.144 143.237V137.237C123.732 137.237 121.12 139.979 121.12 143.669H127.12ZM127.144 143.237C127.15 143.237 127.14 143.238 127.119 143.229C127.097 143.22 127.079 143.206 127.069 143.196C127.059 143.185 127.075 143.197 127.098 143.257C127.12 143.318 127.156 143.449 127.156 143.669H133.156C133.156 139.987 130.551 137.237 127.144 137.237V143.237ZM127.156 143.669C127.156 143.875 127.122 143.997 127.101 144.054C127.08 144.11 127.064 144.123 127.072 144.114C127.079 144.106 127.095 144.094 127.115 144.085C127.135 144.077 127.146 144.077 127.144 144.077V150.077C130.544 150.077 133.156 147.323 133.156 143.669H127.156ZM127.144 149.165C128.701 149.165 130.039 148.429 130.905 147.28C131.721 146.198 132.028 144.889 132.028 143.669H126.028C126.028 143.937 125.957 143.877 126.113 143.67C126.197 143.558 126.338 143.421 126.545 143.315C126.755 143.207 126.968 143.165 127.144 143.165V149.165ZM132.028 143.669C132.028 142.447 131.725 141.133 130.911 140.045C130.045 138.887 128.703 138.149 127.144 138.149V144.149C126.968 144.149 126.753 144.107 126.541 143.998C126.332 143.89 126.191 143.752 126.107 143.64C125.952 143.433 126.028 143.379 126.028 143.669H132.028ZM127.144 138.149C125.59 138.149 124.243 138.878 123.37 140.04C122.55 141.131 122.248 142.447 122.248 143.669H128.248C128.248 143.379 128.323 143.436 128.166 143.645C128.081 143.758 127.939 143.896 127.732 144.002C127.521 144.109 127.312 144.149 127.144 144.149V138.149ZM122.248 143.669C122.248 144.889 122.555 146.2 123.376 147.286C124.249 148.438 125.592 149.165 127.144 149.165V143.165C127.312 143.165 127.52 143.205 127.728 143.311C127.933 143.416 128.075 143.552 128.16 143.665C128.319 143.874 128.248 143.938 128.248 143.669H122.248ZM131.889 146.909H128.889V149.909H131.889V146.909ZM131.889 140.393V137.393H128.889V140.393H131.889ZM132.777 140.393L135.758 140.054L135.455 137.393H132.777V140.393ZM132.885 141.341L129.904 141.681L130.208 144.341H132.885V141.341ZM132.921 141.341V144.341H134.164L135.042 143.462L132.921 141.341ZM137.097 146.909V149.909H140.097V146.909H137.097ZM135.993 146.909H132.993V149.909H135.993V146.909ZM132.981 142.181L130.86 140.06L129.981 140.939V142.181H132.981ZM132.981 146.909V149.909H135.981V146.909H132.981ZM134.889 146.909V140.393H128.889V146.909H134.889ZM131.889 143.393H132.777V137.393H131.889V143.393ZM129.796 140.733L129.904 141.681L135.866 141.002L135.758 140.054L129.796 140.733ZM132.885 144.341H132.921V138.341H132.885V144.341ZM135.042 143.462C135.146 143.359 135.224 143.289 135.283 143.241C135.341 143.194 135.369 143.178 135.369 143.179C135.366 143.18 135.334 143.197 135.278 143.213C135.22 143.229 135.159 143.237 135.105 143.237V137.237C132.976 137.237 131.567 138.453 130.8 139.22L135.042 143.462ZM135.105 143.237C135.127 143.237 134.999 143.241 134.797 143.153C134.576 143.057 134.373 142.897 134.228 142.707C134.096 142.533 134.066 142.407 134.07 142.42C134.074 142.437 134.097 142.546 134.097 142.781H140.097C140.097 141.664 139.902 140.253 139 139.07C137.979 137.729 136.493 137.237 135.105 137.237V143.237ZM134.097 142.781V146.909H140.097V142.781H134.097ZM137.097 143.909H135.993V149.909H137.097V143.909ZM138.993 146.909V142.925H132.993V146.909H138.993ZM138.993 142.925C138.993 142.139 138.9 140.918 138.142 139.855C137.212 138.55 135.832 138.185 134.757 138.185V144.185C134.686 144.185 134.442 144.176 134.126 144.039C133.778 143.889 133.472 143.64 133.256 143.337C133.061 143.063 133.004 142.837 132.991 142.78C132.979 142.725 132.993 142.758 132.993 142.925H138.993ZM134.757 138.185C132.78 138.185 131.543 139.377 130.86 140.06L135.102 144.303C135.236 144.169 135.324 144.087 135.384 144.036C135.443 143.986 135.447 143.989 135.406 144.014C135.359 144.042 135.265 144.091 135.131 144.13C134.994 144.17 134.864 144.185 134.757 144.185V138.185ZM129.981 142.181V146.909H135.981V142.181H129.981ZM132.981 143.909H131.889V149.909H132.981V143.909ZM139.405 141.281H142.405V138.281H139.405V141.281ZM138.433 141.281H135.433V144.281H138.433V141.281ZM138.433 140.465L138.222 137.473L135.433 137.669V140.465H138.433ZM139.453 140.393L139.665 143.386L142.276 143.201L142.447 140.589L139.453 140.393ZM139.573 138.557V135.557H136.763L136.58 138.362L139.573 138.557ZM140.497 138.557H143.497V135.557H140.497V138.557ZM140.497 140.393H137.497V143.393H140.497V140.393ZM142.261 140.393H145.261V137.393H142.261V140.393ZM142.261 141.281V144.281H145.261V141.281H142.261ZM140.497 141.281V138.281H137.497V141.281H140.497ZM142.237 146.009L145.137 145.242L144.261 141.931L141.095 143.235L142.237 146.009ZM142.453 146.825L143.486 149.642L146.053 148.701L145.353 146.058L142.453 146.825ZM141.253 144.077C141.213 144.077 141.344 144.07 141.561 144.163C141.799 144.266 142.029 144.442 142.201 144.668C142.357 144.876 142.404 145.044 142.413 145.08C142.421 145.112 142.405 145.065 142.405 144.905H136.405C136.405 145.806 136.545 147.136 137.414 148.286C138.412 149.607 139.883 150.077 141.253 150.077V144.077ZM142.405 144.905V141.281H136.405V144.905H142.405ZM139.405 138.281H138.433V144.281H139.405V138.281ZM141.433 141.281V140.465H135.433V141.281H141.433ZM138.645 143.458L139.665 143.386L139.242 137.401L138.222 137.473L138.645 143.458ZM142.447 140.589L142.567 138.753L136.58 138.362L136.46 140.198L142.447 140.589ZM139.573 141.557H140.497V135.557H139.573V141.557ZM137.497 138.557V140.393H143.497V138.557H137.497ZM140.497 143.393H142.261V137.393H140.497V143.393ZM139.261 140.393V141.281H145.261V140.393H139.261ZM142.261 138.281H140.497V144.281H142.261V138.281ZM137.497 141.281V144.929H143.497V141.281H137.497ZM137.497 144.929C137.497 145.527 137.569 146.63 138.294 147.624C139.17 148.825 140.463 149.189 141.505 149.189V143.189C141.617 143.189 141.886 143.206 142.221 143.351C142.582 143.507 142.905 143.764 143.142 144.089C143.552 144.651 143.497 145.123 143.497 144.929H137.497ZM141.505 149.189C142.349 149.189 143.104 148.897 143.38 148.783L141.095 143.235C141.096 143.235 141.094 143.236 141.091 143.237C141.088 143.238 141.092 143.236 141.105 143.233C141.117 143.23 141.151 143.221 141.205 143.212C141.256 143.204 141.361 143.189 141.505 143.189V149.189ZM139.337 146.777L139.553 147.593L145.353 146.058L145.137 145.242L139.337 146.777ZM141.421 144.009C141.324 144.044 141.252 144.065 141.205 144.076C141.183 144.081 141.175 144.082 141.18 144.081C141.184 144.08 141.21 144.077 141.253 144.077V150.077C142.183 150.077 143.005 149.818 143.486 149.642L141.421 144.009ZM143.737 146.909H140.737V149.909H143.737V146.909ZM143.737 140.393V137.393H140.737V140.393H143.737ZM144.829 140.393H147.829V137.393H144.829V140.393ZM144.829 146.909V149.909H147.829V146.909H144.829ZM146.737 146.909V140.393H140.737V146.909H146.737ZM143.737 143.393H144.829V137.393H143.737V143.393ZM141.829 140.393V146.909H147.829V140.393H141.829ZM144.829 143.909H143.737V149.909H144.829V143.909ZM144.289 136.049C144.716 136.049 145.333 136.196 145.857 136.708C146.393 137.231 146.557 137.867 146.557 138.317H140.557C140.557 139.223 140.871 140.225 141.665 141C142.447 141.765 143.43 142.049 144.289 142.049V136.049ZM146.557 138.317C146.557 138.854 146.347 139.497 145.818 139.996C145.306 140.477 144.714 140.621 144.289 140.621V134.621C143.432 134.621 142.473 134.903 141.704 135.628C140.917 136.369 140.557 137.361 140.557 138.317H146.557ZM144.289 140.621C143.841 140.621 143.263 140.468 142.768 140.007C142.253 139.528 142.021 138.889 142.021 138.317H148.021C148.021 137.325 147.633 136.339 146.857 135.616C146.101 134.913 145.156 134.621 144.289 134.621V140.621ZM142.021 138.317C142.021 137.833 142.204 137.202 142.729 136.696C143.236 136.206 143.839 136.049 144.289 136.049V142.049C145.159 142.049 146.127 141.755 146.896 141.012C147.681 140.254 148.021 139.258 148.021 138.317H142.021ZM147.042 146.909H144.042V149.909H147.042V146.909ZM147.042 140.393V137.393H144.042V140.393H147.042ZM147.93 140.393L150.91 140.054L150.607 137.393H147.93V140.393ZM148.038 141.341L145.057 141.681L145.36 144.341H148.038V141.341ZM148.074 141.341V144.341H149.316L150.195 143.462L148.074 141.341ZM152.25 146.909V149.909H155.25V146.909H152.25ZM151.146 146.909H148.146V149.909H151.146V146.909ZM148.134 142.181L146.012 140.06L145.134 140.939V142.181H148.134ZM148.134 146.909V149.909H151.134V146.909H148.134ZM150.042 146.909V140.393H144.042V146.909H150.042ZM147.042 143.393H147.93V137.393H147.042V143.393ZM144.949 140.733L145.057 141.681L151.018 141.002L150.91 140.054L144.949 140.733ZM148.038 144.341H148.074V138.341H148.038V144.341ZM150.195 143.462C150.298 143.359 150.376 143.289 150.435 143.241C150.494 143.194 150.521 143.178 150.521 143.179C150.518 143.18 150.487 143.197 150.431 143.213C150.372 143.229 150.311 143.237 150.258 143.237V137.237C148.128 137.237 146.719 138.453 145.952 139.22L150.195 143.462ZM150.258 143.237C150.279 143.237 150.152 143.241 149.949 143.153C149.728 143.057 149.526 142.897 149.381 142.707C149.248 142.533 149.219 142.407 149.222 142.42C149.226 142.437 149.25 142.546 149.25 142.781H155.25C155.25 141.664 155.054 140.253 154.152 139.07C153.131 137.729 151.646 137.237 150.258 137.237V143.237ZM149.25 142.781V146.909H155.25V142.781H149.25ZM152.25 143.909H151.146V149.909H152.25V143.909ZM154.146 146.909V142.925H148.146V146.909H154.146ZM154.146 142.925C154.146 142.139 154.052 140.918 153.294 139.855C152.364 138.55 150.984 138.185 149.91 138.185V144.185C149.838 144.185 149.595 144.176 149.278 144.039C148.93 143.889 148.624 143.64 148.409 143.337C148.213 143.063 148.156 142.837 148.144 142.78C148.131 142.725 148.146 142.758 148.146 142.925H154.146ZM149.91 138.185C147.933 138.185 146.695 139.377 146.012 140.06L150.255 144.303C150.389 144.169 150.477 144.087 150.537 144.036C150.596 143.986 150.599 143.989 150.558 144.014C150.511 144.042 150.417 144.091 150.283 144.13C150.146 144.17 150.016 144.185 149.91 144.185V138.185ZM145.134 142.181V146.909H151.134V142.181H145.134ZM148.134 143.909H147.042V149.909H148.134V143.909ZM154.27 140.393V137.393H151.27V140.393H154.27ZM155.362 140.393H158.362V137.393H155.362V140.393ZM158.35 145.025L160.696 146.895L161.35 146.074V145.025H158.35ZM158.35 140.393V137.393H155.35V140.393H158.35ZM159.442 140.393H162.442V137.393H159.442V140.393ZM159.442 146.909V149.909H162.442V146.909H159.442ZM158.542 146.909L155.555 147.19L155.811 149.909H158.542V146.909ZM158.446 145.889L161.433 145.608L161.177 142.889H158.446V145.889ZM158.422 145.889V142.889H157.049L156.152 143.927L158.422 145.889ZM156.262 144.077C156.24 144.077 156.368 144.073 156.572 144.162C156.794 144.259 156.997 144.419 157.142 144.61C157.274 144.784 157.302 144.909 157.298 144.893C157.293 144.874 157.27 144.761 157.27 144.521H151.27C151.27 145.641 151.463 147.054 152.364 148.239C153.385 149.584 154.873 150.077 156.262 150.077V144.077ZM157.27 144.521V140.393H151.27V144.521H157.27ZM154.27 143.393H155.362V137.393H154.27V143.393ZM152.362 140.393V144.389H158.362V140.393H152.362ZM152.362 144.389C152.362 145.174 152.456 146.393 153.217 147.455C154.148 148.754 155.524 149.117 156.598 149.117V143.117C156.669 143.117 156.911 143.126 157.226 143.262C157.573 143.411 157.878 143.658 158.094 143.96C158.291 144.235 158.349 144.463 158.363 144.523C158.376 144.581 158.362 144.552 158.362 144.389H152.362ZM156.598 149.117C158.624 149.117 159.875 147.925 160.696 146.895L156.004 143.156C155.902 143.283 155.841 143.348 155.812 143.376C155.785 143.402 155.81 143.373 155.885 143.326C155.966 143.274 156.085 143.214 156.235 143.171C156.384 143.129 156.512 143.117 156.598 143.117V149.117ZM161.35 145.025V140.393H155.35V145.025H161.35ZM158.35 143.393H159.442V137.393H158.35V143.393ZM156.442 140.393V146.909H162.442V140.393H156.442ZM159.442 143.909H158.542V149.909H159.442V143.909ZM161.529 146.628L161.433 145.608L155.459 146.17L155.555 147.19L161.529 146.628ZM158.446 142.889H158.422V148.889H158.446V142.889ZM156.152 143.927C156.059 144.036 155.992 144.102 155.947 144.142C155.904 144.181 155.895 144.183 155.918 144.169C155.944 144.154 155.997 144.127 156.071 144.106C156.147 144.084 156.215 144.077 156.262 144.077V150.077C158.448 150.077 159.853 148.821 160.691 147.851L156.152 143.927ZM166.635 143.921V146.921H169.06L169.568 144.55L166.635 143.921ZM162.243 143.921V140.921H159.055L159.248 144.103L162.243 143.921ZM166.035 145.673L168.673 144.246L167.099 141.335L164.356 143.187L166.035 145.673ZM166.431 146.405L168.058 148.925L170.39 147.419L169.069 144.978L166.431 146.405ZM162.231 143.129L159.249 142.795L158.876 146.129H162.231V143.129ZM165.723 143.129V146.129H168.723V143.129H165.723ZM164.283 144.077C164.215 144.077 164.189 144.065 164.195 144.067C164.202 144.07 164.218 144.08 164.233 144.095C164.247 144.11 164.236 144.106 164.216 144.054C164.196 144.001 164.163 143.879 164.163 143.669H158.163C158.163 145.398 158.733 147.032 159.908 148.254C161.081 149.473 162.664 150.077 164.283 150.077V144.077ZM164.163 143.669C164.163 143.477 164.195 143.354 164.22 143.286C164.245 143.218 164.27 143.191 164.273 143.187C164.281 143.178 164.226 143.237 164.091 143.237V137.237C160.7 137.237 158.163 140.132 158.163 143.669H164.163ZM164.091 143.237C164.144 143.237 164.095 143.246 163.989 143.199C163.877 143.15 163.774 143.071 163.7 142.982C163.632 142.9 163.626 142.855 163.64 142.9C163.654 142.948 163.683 143.074 163.683 143.297H169.683C169.683 141.898 169.335 140.376 168.316 139.148C167.235 137.847 165.695 137.237 164.091 137.237V143.237ZM163.683 143.297C163.683 143.328 163.682 143.355 163.682 143.377C163.681 143.399 163.68 143.414 163.68 143.421C163.679 143.424 163.679 143.425 163.68 143.423C163.68 143.421 163.68 143.415 163.682 143.406C163.683 143.397 163.685 143.383 163.688 143.365C163.691 143.347 163.695 143.322 163.701 143.293L169.568 144.55C169.673 144.06 169.683 143.571 169.683 143.297H163.683ZM166.635 140.921H162.243V146.921H166.635V140.921ZM159.248 144.103C159.324 145.35 159.761 146.635 160.714 147.642C161.696 148.679 163.026 149.201 164.415 149.201V143.201C164.467 143.201 164.574 143.212 164.71 143.268C164.847 143.325 164.972 143.412 165.07 143.516C165.271 143.727 165.245 143.873 165.237 143.739L159.248 144.103ZM164.415 149.201C165.769 149.201 166.859 148.736 167.713 148.16L164.356 143.187C164.287 143.233 164.274 143.232 164.306 143.221C164.322 143.215 164.342 143.21 164.365 143.206C164.389 143.202 164.406 143.201 164.415 143.201V149.201ZM163.396 147.101L163.792 147.833L169.069 144.978L168.673 144.246L163.396 147.101ZM164.803 143.885C164.66 143.977 164.566 144.021 164.5 144.043C164.442 144.063 164.378 144.077 164.283 144.077V150.077C165.918 150.077 167.163 149.504 168.058 148.925L164.803 143.885ZM162.231 146.129H165.723V140.129H162.231V146.129ZM168.723 143.129C168.723 142.08 168.493 140.806 167.63 139.742C166.689 138.58 165.359 138.113 164.103 138.113V144.113C164.018 144.113 163.832 144.098 163.598 143.997C163.353 143.891 163.134 143.723 162.969 143.52C162.658 143.136 162.723 142.871 162.723 143.129H168.723ZM164.103 138.113C161.318 138.113 159.522 140.363 159.249 142.795L165.212 143.464C165.221 143.382 165.223 143.533 165.023 143.737C164.815 143.95 164.482 144.113 164.103 144.113V138.113Z" fill="#EFF5FF" mask="url(#path-19-inside-2_503_775)"/>
<g opacity="0.6">
<line x1="25.7266" y1="73.9238" x2="173.273" y2="73.9238" stroke="#276BC6" stroke-width="2"/>
<line x1="25.7266" y1="115.924" x2="173.273" y2="115.924" stroke="#276BC6" stroke-width="2"/>
</g>
<path d="M48.0332 60.9238V59.5558H50.9672V49.7098H48.6272V48.6658C49.7972 48.4498 50.6432 48.1438 51.3632 47.7118H52.6232V59.5558H55.2692V60.9238H48.0332ZM58.0176 60.9238V59.5558H60.9516V49.7098H58.6116V48.6658C59.7816 48.4498 60.6276 48.1438 61.3476 47.7118H62.6076V59.5558H65.2536V60.9238H58.0176ZM71.17 61.1578C69.1 61.1578 67.804 60.2938 66.94 59.3578L67.768 58.2778C68.542 59.0878 69.55 59.7898 71.044 59.7898C72.61 59.7898 73.726 58.8538 73.726 57.3238C73.726 55.7578 72.664 54.6958 69.622 54.6958V53.4358C72.34 53.4358 73.276 52.3378 73.276 50.9158C73.276 49.6558 72.412 48.8278 71.044 48.8278C69.982 48.8278 69.046 49.3498 68.308 50.1058L67.426 49.0618C68.416 48.1438 69.586 47.4778 71.116 47.4778C73.33 47.4778 74.95 48.7018 74.95 50.7898C74.95 52.3918 73.996 53.4538 72.61 53.9758V54.0478C74.158 54.4078 75.4 55.5958 75.4 57.3958C75.4 59.7538 73.51 61.1578 71.17 61.1578ZM81.6043 56.8918H85.6363V53.3278H81.6043V56.8918ZM93.5023 56.8918V58.1878H86.9863V62.3098H85.6363V58.1878H77.3203V56.8918H80.2723V52.0678H85.6363V49.3318H81.2623C80.4523 50.7178 79.4983 51.9418 78.5263 52.8778C78.2743 52.6618 77.7163 52.2118 77.3743 52.0318C79.0663 50.5558 80.5783 48.2338 81.4243 45.8218L82.7743 46.1458C82.5223 46.7758 82.2343 47.4238 81.9463 48.0358H92.6743V49.3318H86.9863V52.0678H92.2603V53.3278H86.9863V56.8918H93.5023ZM98.0383 48.8998V52.4998C98.0383 55.3618 97.8223 59.4838 96.3103 62.3098C96.0583 62.0938 95.4463 61.8058 95.1223 61.6978C96.5803 58.9978 96.7243 55.1818 96.7243 52.4998V47.6578H103.654C103.456 47.1538 103.186 46.5598 102.934 46.0918L104.248 45.7678C104.59 46.3438 104.95 47.0818 105.166 47.6578H111.412V48.8998H98.0383ZM107.002 52.0318H102.646V53.9218H107.002V52.0318ZM108.316 55.0018H101.368V52.0318H98.4883V50.9158H101.368V49.3678H102.646V50.9158H107.002V49.3678H108.316V50.9158H111.214V52.0318H108.316V55.0018ZM107.974 57.2518H101.764C102.484 58.1518 103.528 58.8898 104.806 59.4838C106.084 58.9258 107.2 58.1878 107.974 57.2518ZM109.144 56.0818L109.972 56.5498C109.144 58.0798 107.83 59.2138 106.246 60.0778C107.83 60.6178 109.666 60.9778 111.646 61.1578C111.376 61.4278 111.052 61.9678 110.89 62.3098C108.64 62.0578 106.534 61.5358 104.752 60.7618C102.844 61.4998 100.666 61.9498 98.4523 62.2018C98.3443 61.8958 98.0923 61.3738 97.8763 61.0858C99.7843 60.9058 101.674 60.5818 103.348 60.0418C102.16 59.3578 101.188 58.5298 100.45 57.5038L101.08 57.2518H98.7223V56.1538H108.892L109.144 56.0818ZM126.208 49.3678L125.56 50.0698C125.164 49.6738 124.336 49.1158 123.634 48.8098L124.264 48.1438C124.966 48.4678 125.794 48.9538 126.208 49.3678ZM121.402 56.6398L121.456 57.5758C119.584 57.9358 117.676 58.3138 116.2 58.5838L116.02 57.5758C117.388 57.3598 119.386 56.9998 121.402 56.6398ZM119.836 55.0558V53.2558H117.766V55.0558H119.836ZM116.83 52.4098H120.808V55.9018H116.83V52.4098ZM124.822 52.1038L125.92 52.3378C125.47 54.0298 124.786 55.5058 123.922 56.7478C124.3 57.7018 124.786 58.3138 125.38 58.4038C125.632 58.4758 125.812 57.7018 125.938 56.5498C126.154 56.7658 126.55 57.0358 126.802 57.1438C126.568 59.1058 125.956 59.8258 125.02 59.4658C124.246 59.3038 123.634 58.6738 123.148 57.7198C122.446 58.5298 121.654 59.2138 120.772 59.7898C120.61 59.5738 120.214 59.1418 119.98 58.9438C121.042 58.3318 121.942 57.5398 122.698 56.6038C122.212 55.1638 121.906 53.3098 121.708 51.2758H116.2V50.2678H121.618C121.564 49.6378 121.51 49.0078 121.474 48.3598H122.626C122.662 49.0078 122.698 49.6378 122.734 50.2678H126.658V51.2758H122.824C122.968 52.8238 123.184 54.2638 123.49 55.4158C124.066 54.4438 124.516 53.3278 124.822 52.1038ZM115.21 60.3118H127.558V47.9098H115.21V60.3118ZM113.932 46.6858H128.872V62.3458H127.558V61.5178H115.21V62.3458H113.932V46.6858ZM140.05 55.1458H145.216V50.3758H140.05V55.1458ZM133.516 55.1458H138.664V50.3758H133.516V55.1458ZM140.05 49.0618H146.584V57.4858H145.216V56.4598H140.05V62.2918H138.664V56.4598H133.516V57.5758H132.202V49.0618H138.664V45.8578H140.05V49.0618ZM60.2552 90.3678L59.6072 91.0698C59.2112 90.6738 58.3832 90.1158 57.6812 89.8098L58.3112 89.1438C59.0132 89.4678 59.8412 89.9538 60.2552 90.3678ZM55.4492 97.6398L55.5032 98.5758C53.6312 98.9358 51.7232 99.3138 50.2472 99.5838L50.0672 98.5758C51.4352 98.3598 53.4332 97.9998 55.4492 97.6398ZM53.8832 96.0558V94.2558H51.8132V96.0558H53.8832ZM50.8772 93.4098H54.8552V96.9018H50.8772V93.4098ZM58.8692 93.1038L59.9672 93.3378C59.5172 95.0298 58.8332 96.5058 57.9692 97.7478C58.3472 98.7018 58.8332 99.3138 59.4272 99.4038C59.6792 99.4758 59.8592 98.7018 59.9852 97.5498C60.2012 97.7658 60.5972 98.0358 60.8492 98.1438C60.6152 100.106 60.0032 100.826 59.0672 100.466C58.2932 100.304 57.6812 99.6738 57.1952 98.7198C56.4932 99.5298 55.7012 100.214 54.8192 100.79C54.6572 100.574 54.2612 100.142 54.0272 99.9438C55.0892 99.3318 55.9892 98.5398 56.7452 97.6038C56.2592 96.1638 55.9532 94.3098 55.7552 92.2758H50.2472V91.2678H55.6652C55.6112 90.6378 55.5572 90.0078 55.5212 89.3598H56.6732C56.7092 90.0078 56.7452 90.6378 56.7812 91.2678H60.7052V92.2758H56.8712C57.0152 93.8238 57.2312 95.2638 57.5372 96.4158C58.1132 95.4438 58.5632 94.3278 58.8692 93.1038ZM49.2572 101.312H61.6052V88.9098H49.2572V101.312ZM47.9792 87.6858H62.9192V103.346H61.6052V102.518H49.2572V103.346H47.9792V87.6858ZM74.8532 89.5218L73.3952 89.9898C73.1792 89.2518 72.6032 88.0458 72.0632 87.1638L73.4492 86.7678C73.9892 87.6138 74.6012 88.7658 74.8532 89.5218ZM77.2112 91.3398H69.5792C70.5152 93.6258 71.8112 95.6778 73.5032 97.3698C75.1052 95.7498 76.3112 93.7698 77.2112 91.3398ZM81.5492 91.3398H78.7232C77.6972 94.1838 76.3112 96.4518 74.5112 98.3058C76.4912 99.9798 78.9212 101.258 81.7832 101.96C81.4592 102.266 81.0812 102.824 80.8652 103.202C77.9312 102.374 75.4832 101.06 73.4852 99.2598C71.4692 101.024 68.9852 102.32 65.9972 103.274C65.8352 102.95 65.4392 102.338 65.1692 102.032C68.1392 101.186 70.5512 99.9618 72.5132 98.3058C70.6592 96.3978 69.2372 94.0578 68.1932 91.3398H65.4212V90.0258H81.5492V91.3398ZM94.0232 91.4478C94.3652 93.5178 94.8872 95.4618 95.6072 97.1358C96.3632 95.5518 96.8312 93.6618 97.1732 91.4478H94.0232ZM87.5972 89.8998V91.6818H88.1372C88.6052 91.1238 89.0192 90.5118 89.4152 89.8998H87.5972ZM99.6752 91.4478H98.5412C98.1092 94.3278 97.4432 96.6858 96.3452 98.6118C97.2272 100.142 98.3792 101.384 99.8192 102.14C99.4952 102.41 99.0812 102.896 98.8832 103.274C97.5152 102.464 96.4172 101.312 95.5352 99.8718C94.4732 101.294 93.1052 102.446 91.3412 103.364C91.1972 103.04 90.8012 102.446 90.5312 102.158C92.4032 101.276 93.7892 100.088 94.8152 98.5398C94.1132 97.0818 93.5912 95.3898 93.1772 93.5538C92.8352 94.3458 92.4032 95.0478 91.9712 95.6778C91.7732 95.4618 91.3412 95.0658 90.9992 94.8318C90.2612 95.6958 89.2352 96.5598 88.2812 97.2078V97.9278C89.4332 97.7838 90.6212 97.6218 91.8092 97.4598L91.8272 98.6298C90.6392 98.7918 89.4512 98.9538 88.2812 99.1338V101.888C88.2812 102.572 88.1372 102.896 87.6332 103.094C87.1472 103.292 86.3732 103.292 85.2392 103.292C85.1672 102.932 84.9872 102.482 84.8072 102.122C85.7072 102.158 86.4632 102.14 86.6972 102.14C86.9492 102.122 87.0032 102.068 87.0032 101.87V99.2958C85.6712 99.4758 84.4472 99.6558 83.4212 99.7818L83.2592 98.5578C84.2852 98.4318 85.5812 98.2698 87.0032 98.1078V96.8658C87.6872 96.4698 88.4612 95.8398 89.0552 95.2638H86.2472C85.5452 95.8038 84.8252 96.3078 84.0692 96.7398C83.8712 96.4878 83.3852 95.9658 83.1152 95.7138C84.5732 94.9758 85.9052 94.0038 87.0392 92.8698H83.2412V91.6818H86.3552V89.8998H83.9972V88.7478H86.3552V86.8578H87.5972V88.7478H89.4512V89.8458C89.9372 89.0358 90.3692 88.1898 90.7292 87.2898L91.9712 87.6498C91.3592 89.1258 90.6032 90.4578 89.7212 91.6818H91.8992V92.8698H88.7672C88.3532 93.3198 87.9392 93.7698 87.4892 94.1838H90.1172L90.3692 94.1118L90.9992 94.5798C92.3672 92.7078 93.2852 89.8458 93.8072 86.8578L95.1392 87.0738C94.9412 88.1538 94.7072 89.1978 94.4192 90.1878H99.6752V91.4478ZM115.443 94.0038V101.744C115.443 102.554 115.227 102.896 114.615 103.076C114.021 103.256 112.959 103.238 111.393 103.238C111.339 102.878 111.177 102.428 111.015 102.086C112.131 102.122 113.337 102.122 113.607 102.104C113.931 102.104 114.039 101.996 114.039 101.744V99.4398C111.195 100.016 108.243 100.628 106.029 101.024L105.597 99.8178C107.631 99.5118 110.907 98.9898 114.039 98.4318V95.1378H105.111V97.2438C105.111 99.1338 104.805 101.69 103.041 103.436C102.843 103.184 102.285 102.734 101.979 102.608C103.599 101.042 103.815 98.8818 103.815 97.2078V94.0038H115.443ZM105.687 96.7398L106.119 95.8758C108.315 96.1818 111.159 96.8838 112.689 97.5138L112.275 98.5038C110.781 97.8558 107.937 97.0818 105.687 96.7398ZM105.363 91.9878L113.013 91.6458C112.419 91.1778 111.807 90.6918 111.213 90.2958L111.969 89.8098H107.865C107.037 90.6018 106.191 91.3218 105.363 91.9878ZM117.315 88.6038V89.8098H112.563C114.021 90.8178 115.695 92.2218 116.559 93.1758L115.425 93.9498C115.101 93.5718 114.669 93.1218 114.183 92.6538C104.967 93.1218 104.049 93.1398 103.437 93.3558C103.365 93.0858 103.185 92.4558 103.041 92.0958C103.455 92.0238 103.923 91.6818 104.553 91.1598C104.859 90.9438 105.435 90.4398 106.119 89.8098H101.601V88.6038H107.325C107.901 87.9918 108.495 87.3078 109.017 86.6418L110.349 87.1998C109.935 87.6678 109.503 88.1538 109.071 88.6038H117.315ZM131.247 98.3238H123.795V99.5478H131.247V98.3238ZM123.795 101.726H131.247V100.502H123.795V101.726ZM122.481 103.274V97.3698H132.597V103.22H131.247V102.68H123.795V103.274H122.481ZM130.023 95.5338L129.123 95.2098C129.447 94.6158 129.915 93.6618 130.113 93.0498L131.247 93.4098C130.851 94.1838 130.401 94.9938 130.023 95.5338ZM123.669 93.4278L124.623 93.1218C125.091 93.7518 125.541 94.5798 125.703 95.1558L124.677 95.5338C124.533 94.9578 124.119 94.0938 123.669 93.4278ZM122.589 92.9238V95.6058H126.837V92.9238H122.589ZM132.255 95.6058V92.9238H127.971V95.6058H132.255ZM121.437 96.5238V91.9878H133.461V96.5238H121.437ZM125.199 90.1338H129.897C129.033 89.5938 128.223 88.9818 127.539 88.3338C126.855 88.9998 126.063 89.6118 125.199 90.1338ZM127.341 86.8038L128.511 87.2358C128.421 87.3438 128.349 87.4698 128.259 87.5778C129.951 89.2158 133.065 90.6738 135.873 91.3218C135.585 91.5738 135.225 92.0418 135.027 92.3658C133.569 91.9518 132.021 91.3398 130.617 90.5478V91.1058H124.371V90.6018C123.003 91.3758 121.473 91.9878 119.961 92.4558C119.817 92.2038 119.439 91.6818 119.205 91.4298C122.463 90.5658 125.649 88.9818 127.341 86.8038ZM153.297 93.3198H147.213C146.349 93.9498 145.449 94.5798 144.531 95.1378H151.605V96.2178H144.009C143.739 96.8118 143.487 97.4418 143.217 97.9998H150.759C150.759 97.9998 150.723 98.4138 150.669 98.5938C150.291 101.06 149.913 102.194 149.337 102.68C148.923 103.04 148.509 103.13 147.789 103.166C147.177 103.184 145.935 103.166 144.621 103.094C144.585 102.698 144.423 102.194 144.171 101.834C145.503 101.96 146.925 101.996 147.429 101.996C147.861 101.996 148.095 101.978 148.311 101.834C148.671 101.564 148.977 100.754 149.229 99.1158H141.273C141.723 98.3418 142.209 97.2438 142.641 96.2358C141.075 97.0818 139.473 97.8198 137.853 98.4678C137.745 98.1618 137.439 97.5498 137.241 97.2618C139.995 96.2898 142.713 94.9398 145.161 93.3198H137.781V92.1678H143.955V90.1158H139.365V88.9998H143.955V86.8758H145.269V88.9998H149.157V90.1158H145.269V92.1678H146.781C148.563 90.8358 150.147 89.3418 151.443 87.7038L152.487 88.3158C151.371 89.6838 150.093 90.9978 148.653 92.1678H153.297V93.3198Z" fill="#1C276D"/>
<path d="M75.418 19.8486L79.482 10.119L75.418 0.000368453L123.582 0.000368453L120.534 10.119L123.582 19.8486L75.418 19.8486Z" fill="#FFDE67"/>
<defs>
<filter id="filter0_d_503_775" x="0" y="9.92383" width="207" height="171" filterUnits="userSpaceOnUse" color-interpolation-filters="sRGB">
<feFlood flood-opacity="0" result="BackgroundImageFix"/>
<feColorMatrix in="SourceAlpha" type="matrix" values="0 0 0 0 0 0 0 0 0 0 0 0 0 0 0 0 0 0 127 0" result="hardAlpha"/>
<feOffset dx="4" dy="4"/>
<feGaussianBlur stdDeviation="2"/>
<feComposite in2="hardAlpha" operator="out"/>
<feColorMatrix type="matrix" values="0 0 0 0 0.151771 0 0 0 0 0.420893 0 0 0 0 0.775 0 0 0 0.25 0"/>
<feBlend mode="normal" in2="BackgroundImageFix" result="effect1_dropShadow_503_775"/>
<feBlend mode="normal" in="SourceGraphic" in2="effect1_dropShadow_503_775" result="shape"/>
</filter>
<filter id="filter1_d_503_775" x="0" y="9.92383" width="207" height="171" filterUnits="userSpaceOnUse" color-interpolation-filters="sRGB">
<feFlood flood-opacity="0" result="BackgroundImageFix"/>
<feColorMatrix in="SourceAlpha" type="matrix" values="0 0 0 0 0 0 0 0 0 0 0 0 0 0 0 0 0 0 127 0" result="hardAlpha"/>
<feOffset dx="4" dy="4"/>
<feGaussianBlur stdDeviation="2"/>
<feComposite in2="hardAlpha" operator="out"/>
<feColorMatrix type="matrix" values="0 0 0 0 0.151771 0 0 0 0 0.420893 0 0 0 0 0.775 0 0 0 0.25 0"/>
<feBlend mode="normal" in2="BackgroundImageFix" result="effect1_dropShadow_503_775"/>
<feBlend mode="normal" in="SourceGraphic" in2="effect1_dropShadow_503_775" result="shape"/>
</filter>
</defs>
</svg>
