<svg width="207" height="213" viewBox="0 0 207 213" fill="none" xmlns="http://www.w3.org/2000/svg">
<g filter="url(#filter0_d_420_186)">
<rect y="9.92383" width="199" height="163" rx="10" fill="#FFFEF6"/>
</g>
<path fill-rule="evenodd" clip-rule="evenodd" d="M166.144 10.9238H189C193.971 10.9238 198 14.9533 198 19.9238V162.924C198 167.894 193.971 171.924 189 171.924H10C5.02944 171.924 1 167.894 1 162.924V19.9238C1 14.9533 5.02944 10.9238 10 10.9238L32.8428 10.9239V10.9601H32.8672V14.6167C30.8727 15.9916 29.5654 18.2919 29.5654 20.8976C29.5654 25.1078 32.9785 28.5208 37.1887 28.5208C41.3989 28.5208 44.8119 25.1078 44.8119 20.8976C44.8119 18.2921 43.5048 15.9919 41.5105 14.617V10.9601H41.5411V10.9238L64.0048 10.9239V10.9601H64.0226V14.6166C62.028 15.9915 60.7207 18.2919 60.7207 20.8976C60.7207 25.1078 64.1337 28.5208 68.3439 28.5208C72.5541 28.5208 75.9672 25.1078 75.9672 20.8976C75.9672 18.2922 74.6601 15.992 72.6659 14.6171V10.9601H72.6964V10.9239L95.1543 10.9238V10.9601H95.1787V14.6167C93.1842 15.9916 91.877 18.2919 91.877 20.8976C91.877 25.1078 95.29 28.5208 99.5002 28.5208C103.71 28.5208 107.123 25.1078 107.123 20.8976C107.123 18.2921 105.816 15.9919 103.822 14.617V10.9601H103.845V10.9238L126.303 10.9239V10.9601H126.334V14.6173C124.34 15.9923 123.033 18.2923 123.033 20.8976C123.033 25.1078 126.446 28.5208 130.656 28.5208C134.867 28.5208 138.28 25.1078 138.28 20.8976C138.28 18.2917 136.972 15.9913 134.977 14.6164V10.9601H134.994V10.9239L157.452 10.9238V10.9601H157.49V14.6167C155.496 15.9916 154.188 18.2919 154.188 20.8976C154.188 25.1078 157.602 28.5208 161.812 28.5208C166.022 28.5208 169.435 25.1078 169.435 20.8976C169.435 18.2921 168.128 15.9919 166.134 14.617V10.9601H166.144V10.9238ZM166.134 10.9238H166.144V9.92383H189C194.523 9.92383 199 14.401 199 19.9238V162.924C199 168.447 194.523 172.924 189 172.924H10C4.47715 172.924 0 168.447 0 162.924V19.9238C0 14.401 4.47715 9.92383 10 9.92383H32.8428V10.9239H32.8672V10.9601H33.8672V14.6167V15.142L33.4347 15.4401C31.6994 16.6363 30.5654 18.6346 30.5654 20.8976C30.5654 24.5555 33.5308 27.5208 37.1887 27.5208C40.8466 27.5208 43.8119 24.5555 43.8119 20.8976C43.8119 18.6348 42.678 16.6365 40.9429 15.4403L40.5105 15.1422V14.617V10.9601H41.5105V10.9238H41.5411V9.92383H64.0048V10.9239H64.0226V10.9601H65.0226V14.6166V15.1419L64.5901 15.44C62.8548 16.6362 61.7207 18.6346 61.7207 20.8976C61.7207 24.5555 64.686 27.5208 68.3439 27.5208C72.0018 27.5208 74.9672 24.5555 74.9672 20.8976C74.9672 18.6348 73.8333 16.6366 72.0983 15.4404L71.6659 15.1423V14.6171V10.9601H72.6659V10.9239H72.6964V9.92383H95.1543V10.9238H95.1787V10.9239V10.9601H96.1787V14.6167V15.142L95.7463 15.4401C94.011 16.6363 92.877 18.6346 92.877 20.8976C92.877 24.5555 95.8423 27.5208 99.5002 27.5208C103.158 27.5208 106.123 24.5555 106.123 20.8976C106.123 18.6348 104.99 16.6365 103.254 15.4403L102.822 15.1422V14.617V10.9601H103.822V10.9239V10.9238H103.845V9.92383H126.303V10.9239H126.334V10.9601H127.334V14.6173V15.1425L126.902 15.4406C125.167 16.6369 124.033 18.6349 124.033 20.8976C124.033 24.5555 126.999 27.5208 130.656 27.5208C134.314 27.5208 137.28 24.5555 137.28 20.8976C137.28 18.6345 136.145 16.636 134.41 15.4398L133.977 15.1417V14.6164V10.9601H134.977V10.9239H134.994V9.92383H157.452V10.9238H157.49V10.9239V10.9601H158.488V10.9238H165.108V10.9239H158.49V14.6167V15.142L158.058 15.4401C156.322 16.6363 155.188 18.6346 155.188 20.8976C155.188 24.5555 158.154 27.5208 161.812 27.5208C165.47 27.5208 168.435 24.5555 168.435 20.8976C168.435 18.6348 167.301 16.6365 165.566 15.4403L165.134 15.1422V14.617V10.9601H166.134V10.9239V10.9238ZM165.108 9.92383V10.9238H166.134V9.92386H165.134L165.108 9.92383ZM158.488 9.92383H165.108L158.49 9.92386L158.488 9.92383ZM158.488 9.92383V10.9238H157.49V9.92386L158.488 9.92383ZM165.134 10.9601H165.108V10.9239H165.134V10.9601ZM134.977 10.9239V9.92386H133.977L133.958 9.92383V10.9601H133.977V10.9239H134.977ZM127.334 10.9601V10.9239H126.334V9.92386H127.334L127.339 9.92383V10.9601H127.334ZM102.809 10.9238H103.822V9.92386H102.822L102.809 9.92383V10.9238ZM102.809 10.9239V10.9238H96.1906V9.92383L96.1787 9.92386H95.1787V10.9238H96.1906V10.9239H96.1787V10.9601H96.1906V10.9239H102.809ZM102.809 10.9239H102.822V10.9601H102.809V10.9239ZM72.6659 10.9239H71.6659V10.9601H71.6602V9.92383L71.6659 9.92386H72.6659V10.9239ZM65.0226 10.9601V10.9239H64.0226V9.92386H65.0226L65.041 9.92383V10.9601H65.0226ZM40.5049 10.9238V9.92383L40.5105 9.92385H41.5105V10.9238H40.5049ZM40.5049 10.9238V10.9601H40.5105V10.9238L40.5049 10.9238ZM33.879 9.92383V10.9239V10.9601H33.8672V10.9239H32.8672V9.92385H33.8672L33.879 9.92383ZM33.879 9.92383H39.6469L37.2896 9.92385L33.879 9.92383Z" fill="#276BC6"/>
<rect x="106.904" y="131.424" width="72.3529" height="25" rx="12.5" fill="#4395E6" stroke="#4395E6"/>
<mask id="path-4-inside-1_420_186" fill="white">
<path d="M121.367 147.077C119.639 147.077 118.319 145.817 118.319 143.669C118.319 141.485 119.783 140.237 121.451 140.237C122.303 140.237 122.903 140.585 123.359 141.005L122.807 141.725C122.423 141.377 122.015 141.149 121.511 141.149C120.311 141.149 119.447 142.157 119.447 143.669C119.447 145.157 120.275 146.165 121.475 146.165C122.063 146.165 122.603 145.877 123.011 145.517L123.479 146.249C122.903 146.765 122.147 147.077 121.367 147.077ZM127.144 147.077C125.536 147.077 124.12 145.817 124.12 143.669C124.12 141.485 125.536 140.237 127.144 140.237C128.74 140.237 130.156 141.485 130.156 143.669C130.156 145.817 128.74 147.077 127.144 147.077ZM127.144 146.165C128.272 146.165 129.028 145.157 129.028 143.669C129.028 142.157 128.272 141.149 127.144 141.149C126.004 141.149 125.248 142.157 125.248 143.669C125.248 145.157 126.004 146.165 127.144 146.165ZM131.889 146.909V140.393H132.777L132.885 141.341H132.921C133.533 140.729 134.205 140.237 135.105 140.237C136.473 140.237 137.097 141.125 137.097 142.781V146.909H135.993V142.925C135.993 141.701 135.621 141.185 134.757 141.185C134.097 141.185 133.629 141.533 132.981 142.181V146.909H131.889ZM141.253 147.077C139.861 147.077 139.405 146.201 139.405 144.905V141.281H138.433V140.465L139.453 140.393L139.573 138.557H140.497V140.393H142.261V141.281H140.497V144.929C140.497 145.721 140.749 146.189 141.505 146.189C141.733 146.189 142.033 146.093 142.237 146.009L142.453 146.825C142.093 146.957 141.661 147.077 141.253 147.077ZM143.737 146.909V140.393H144.829V146.909H143.737ZM144.289 139.049C143.857 139.049 143.557 138.773 143.557 138.317C143.557 137.897 143.857 137.621 144.289 137.621C144.709 137.621 145.021 137.897 145.021 138.317C145.021 138.773 144.709 139.049 144.289 139.049ZM147.042 146.909V140.393H147.93L148.038 141.341H148.074C148.686 140.729 149.358 140.237 150.258 140.237C151.626 140.237 152.25 141.125 152.25 142.781V146.909H151.146V142.925C151.146 141.701 150.774 141.185 149.91 141.185C149.25 141.185 148.782 141.533 148.134 142.181V146.909H147.042ZM156.262 147.077C154.894 147.077 154.27 146.189 154.27 144.521V140.393H155.362V144.389C155.362 145.601 155.734 146.117 156.598 146.117C157.258 146.117 157.738 145.793 158.35 145.025V140.393H159.442V146.909H158.542L158.446 145.889H158.422C157.81 146.597 157.162 147.077 156.262 147.077ZM164.283 147.077C162.543 147.077 161.163 145.805 161.163 143.669C161.163 141.545 162.591 140.237 164.091 140.237C165.747 140.237 166.683 141.425 166.683 143.297C166.683 143.525 166.671 143.753 166.635 143.921H162.243C162.327 145.301 163.167 146.201 164.415 146.201C165.039 146.201 165.555 145.997 166.035 145.673L166.431 146.405C165.855 146.777 165.171 147.077 164.283 147.077ZM162.231 143.129H165.723C165.723 141.821 165.135 141.113 164.103 141.113C163.191 141.113 162.375 141.845 162.231 143.129Z"/>
</mask>
<path d="M121.367 147.077C119.639 147.077 118.319 145.817 118.319 143.669C118.319 141.485 119.783 140.237 121.451 140.237C122.303 140.237 122.903 140.585 123.359 141.005L122.807 141.725C122.423 141.377 122.015 141.149 121.511 141.149C120.311 141.149 119.447 142.157 119.447 143.669C119.447 145.157 120.275 146.165 121.475 146.165C122.063 146.165 122.603 145.877 123.011 145.517L123.479 146.249C122.903 146.765 122.147 147.077 121.367 147.077ZM127.144 147.077C125.536 147.077 124.12 145.817 124.12 143.669C124.12 141.485 125.536 140.237 127.144 140.237C128.74 140.237 130.156 141.485 130.156 143.669C130.156 145.817 128.74 147.077 127.144 147.077ZM127.144 146.165C128.272 146.165 129.028 145.157 129.028 143.669C129.028 142.157 128.272 141.149 127.144 141.149C126.004 141.149 125.248 142.157 125.248 143.669C125.248 145.157 126.004 146.165 127.144 146.165ZM131.889 146.909V140.393H132.777L132.885 141.341H132.921C133.533 140.729 134.205 140.237 135.105 140.237C136.473 140.237 137.097 141.125 137.097 142.781V146.909H135.993V142.925C135.993 141.701 135.621 141.185 134.757 141.185C134.097 141.185 133.629 141.533 132.981 142.181V146.909H131.889ZM141.253 147.077C139.861 147.077 139.405 146.201 139.405 144.905V141.281H138.433V140.465L139.453 140.393L139.573 138.557H140.497V140.393H142.261V141.281H140.497V144.929C140.497 145.721 140.749 146.189 141.505 146.189C141.733 146.189 142.033 146.093 142.237 146.009L142.453 146.825C142.093 146.957 141.661 147.077 141.253 147.077ZM143.737 146.909V140.393H144.829V146.909H143.737ZM144.289 139.049C143.857 139.049 143.557 138.773 143.557 138.317C143.557 137.897 143.857 137.621 144.289 137.621C144.709 137.621 145.021 137.897 145.021 138.317C145.021 138.773 144.709 139.049 144.289 139.049ZM147.042 146.909V140.393H147.93L148.038 141.341H148.074C148.686 140.729 149.358 140.237 150.258 140.237C151.626 140.237 152.25 141.125 152.25 142.781V146.909H151.146V142.925C151.146 141.701 150.774 141.185 149.91 141.185C149.25 141.185 148.782 141.533 148.134 142.181V146.909H147.042ZM156.262 147.077C154.894 147.077 154.27 146.189 154.27 144.521V140.393H155.362V144.389C155.362 145.601 155.734 146.117 156.598 146.117C157.258 146.117 157.738 145.793 158.35 145.025V140.393H159.442V146.909H158.542L158.446 145.889H158.422C157.81 146.597 157.162 147.077 156.262 147.077ZM164.283 147.077C162.543 147.077 161.163 145.805 161.163 143.669C161.163 141.545 162.591 140.237 164.091 140.237C165.747 140.237 166.683 141.425 166.683 143.297C166.683 143.525 166.671 143.753 166.635 143.921H162.243C162.327 145.301 163.167 146.201 164.415 146.201C165.039 146.201 165.555 145.997 166.035 145.673L166.431 146.405C165.855 146.777 165.171 147.077 164.283 147.077ZM162.231 143.129H165.723C165.723 141.821 165.135 141.113 164.103 141.113C163.191 141.113 162.375 141.845 162.231 143.129Z" fill="#EFF5FF"/>
<path d="M123.359 141.005L125.74 142.83L127.407 140.655L125.391 138.799L123.359 141.005ZM122.807 141.725L120.792 143.948L123.206 146.135L125.188 143.55L122.807 141.725ZM123.011 145.517L125.539 143.901L123.652 140.951L121.026 143.268L123.011 145.517ZM123.479 146.249L125.481 148.484L127.38 146.782L126.007 144.633L123.479 146.249ZM121.367 144.077C121.301 144.077 121.287 144.066 121.308 144.075C121.332 144.084 121.362 144.104 121.386 144.129C121.408 144.153 121.397 144.153 121.376 144.095C121.354 144.034 121.319 143.899 121.319 143.669H115.319C115.319 145.363 115.849 146.994 117.004 148.228C118.168 149.472 119.749 150.077 121.367 150.077V144.077ZM121.319 143.669C121.319 143.46 121.353 143.342 121.373 143.29C121.393 143.239 121.407 143.229 121.4 143.236C121.377 143.26 121.373 143.237 121.451 143.237V137.237C119.861 137.237 118.291 137.839 117.119 139.032C115.933 140.24 115.319 141.882 115.319 143.669H121.319ZM121.451 143.237C121.458 143.237 121.445 143.238 121.417 143.232C121.389 143.226 121.36 143.216 121.334 143.205C121.281 143.181 121.277 143.166 121.327 143.212L125.391 138.799C124.537 138.012 123.244 137.237 121.451 137.237V143.237ZM120.978 139.18L120.426 139.9L125.188 143.55L125.74 142.83L120.978 139.18ZM124.822 139.502C124.138 138.883 123.042 138.149 121.511 138.149V144.149C121.287 144.149 121.08 144.093 120.924 144.02C120.79 143.956 120.743 143.903 120.792 143.948L124.822 139.502ZM121.511 138.149C120.006 138.149 118.649 138.808 117.721 139.926C116.824 141.007 116.447 142.357 116.447 143.669H122.447C122.447 143.469 122.502 143.56 122.338 143.758C122.254 143.859 122.13 143.964 121.965 144.042C121.799 144.121 121.638 144.149 121.511 144.149V138.149ZM116.447 143.669C116.447 144.949 116.804 146.289 117.686 147.371C118.606 148.499 119.963 149.165 121.475 149.165V143.165C121.603 143.165 121.77 143.194 121.946 143.278C122.12 143.361 122.25 143.474 122.336 143.58C122.504 143.786 122.447 143.877 122.447 143.669H116.447ZM121.475 149.165C123.038 149.165 124.255 148.42 124.996 147.767L121.026 143.268C121.01 143.282 121.022 143.266 121.077 143.241C121.137 143.214 121.275 143.165 121.475 143.165V149.165ZM120.483 147.133L120.951 147.865L126.007 144.633L125.539 143.901L120.483 147.133ZM121.477 144.015C121.449 144.04 121.418 144.058 121.391 144.069C121.366 144.079 121.357 144.077 121.367 144.077V150.077C122.941 150.077 124.397 149.455 125.481 148.484L121.477 144.015ZM127.144 144.077C127.135 144.077 127.143 144.076 127.161 144.083C127.18 144.091 127.195 144.103 127.203 144.111C127.211 144.12 127.195 144.108 127.175 144.053C127.153 143.996 127.12 143.875 127.12 143.669H121.12C121.12 147.331 123.739 150.077 127.144 150.077V144.077ZM127.12 143.669C127.12 143.449 127.155 143.319 127.178 143.258C127.2 143.199 127.216 143.188 127.205 143.199C127.195 143.21 127.178 143.223 127.157 143.231C127.138 143.239 127.131 143.237 127.144 143.237V137.237C123.732 137.237 121.12 139.979 121.12 143.669H127.12ZM127.144 143.237C127.15 143.237 127.14 143.238 127.119 143.229C127.097 143.22 127.079 143.206 127.069 143.196C127.059 143.185 127.075 143.197 127.098 143.257C127.12 143.318 127.156 143.449 127.156 143.669H133.156C133.156 139.987 130.551 137.237 127.144 137.237V143.237ZM127.156 143.669C127.156 143.875 127.122 143.997 127.101 144.054C127.08 144.11 127.064 144.123 127.072 144.114C127.079 144.106 127.095 144.094 127.115 144.085C127.135 144.077 127.146 144.077 127.144 144.077V150.077C130.544 150.077 133.156 147.323 133.156 143.669H127.156ZM127.144 149.165C128.701 149.165 130.039 148.429 130.905 147.28C131.721 146.198 132.028 144.889 132.028 143.669H126.028C126.028 143.937 125.957 143.877 126.113 143.67C126.197 143.558 126.338 143.421 126.545 143.315C126.755 143.207 126.968 143.165 127.144 143.165V149.165ZM132.028 143.669C132.028 142.447 131.725 141.133 130.911 140.045C130.045 138.887 128.703 138.149 127.144 138.149V144.149C126.968 144.149 126.753 144.107 126.541 143.998C126.332 143.89 126.191 143.752 126.107 143.64C125.952 143.433 126.028 143.379 126.028 143.669H132.028ZM127.144 138.149C125.59 138.149 124.243 138.878 123.37 140.04C122.55 141.131 122.248 142.447 122.248 143.669H128.248C128.248 143.379 128.323 143.436 128.166 143.645C128.081 143.758 127.939 143.896 127.732 144.002C127.521 144.109 127.312 144.149 127.144 144.149V138.149ZM122.248 143.669C122.248 144.889 122.555 146.2 123.376 147.286C124.249 148.438 125.592 149.165 127.144 149.165V143.165C127.312 143.165 127.52 143.205 127.728 143.311C127.933 143.416 128.075 143.552 128.16 143.665C128.319 143.874 128.248 143.938 128.248 143.669H122.248ZM131.889 146.909H128.889V149.909H131.889V146.909ZM131.889 140.393V137.393H128.889V140.393H131.889ZM132.777 140.393L135.758 140.054L135.455 137.393H132.777V140.393ZM132.885 141.341L129.904 141.681L130.208 144.341H132.885V141.341ZM132.921 141.341V144.341H134.164L135.042 143.462L132.921 141.341ZM137.097 146.909V149.909H140.097V146.909H137.097ZM135.993 146.909H132.993V149.909H135.993V146.909ZM132.981 142.181L130.86 140.06L129.981 140.939V142.181H132.981ZM132.981 146.909V149.909H135.981V146.909H132.981ZM134.889 146.909V140.393H128.889V146.909H134.889ZM131.889 143.393H132.777V137.393H131.889V143.393ZM129.796 140.733L129.904 141.681L135.866 141.002L135.758 140.054L129.796 140.733ZM132.885 144.341H132.921V138.341H132.885V144.341ZM135.042 143.462C135.146 143.359 135.224 143.289 135.283 143.241C135.341 143.194 135.369 143.178 135.369 143.179C135.366 143.18 135.334 143.197 135.278 143.213C135.22 143.229 135.159 143.237 135.105 143.237V137.237C132.976 137.237 131.567 138.453 130.8 139.22L135.042 143.462ZM135.105 143.237C135.127 143.237 134.999 143.241 134.797 143.153C134.576 143.057 134.373 142.897 134.228 142.707C134.096 142.533 134.066 142.407 134.07 142.42C134.074 142.437 134.097 142.546 134.097 142.781H140.097C140.097 141.664 139.902 140.253 139 139.07C137.979 137.729 136.493 137.237 135.105 137.237V143.237ZM134.097 142.781V146.909H140.097V142.781H134.097ZM137.097 143.909H135.993V149.909H137.097V143.909ZM138.993 146.909V142.925H132.993V146.909H138.993ZM138.993 142.925C138.993 142.139 138.9 140.918 138.142 139.855C137.212 138.55 135.832 138.185 134.757 138.185V144.185C134.686 144.185 134.442 144.176 134.126 144.039C133.778 143.889 133.472 143.64 133.256 143.337C133.061 143.063 133.004 142.837 132.991 142.78C132.979 142.725 132.993 142.758 132.993 142.925H138.993ZM134.757 138.185C132.78 138.185 131.543 139.377 130.86 140.06L135.102 144.303C135.236 144.169 135.324 144.087 135.384 144.036C135.443 143.986 135.447 143.989 135.406 144.014C135.359 144.042 135.265 144.091 135.131 144.13C134.994 144.17 134.864 144.185 134.757 144.185V138.185ZM129.981 142.181V146.909H135.981V142.181H129.981ZM132.981 143.909H131.889V149.909H132.981V143.909ZM139.405 141.281H142.405V138.281H139.405V141.281ZM138.433 141.281H135.433V144.281H138.433V141.281ZM138.433 140.465L138.222 137.473L135.433 137.669V140.465H138.433ZM139.453 140.393L139.665 143.386L142.276 143.201L142.447 140.589L139.453 140.393ZM139.573 138.557V135.557H136.763L136.58 138.362L139.573 138.557ZM140.497 138.557H143.497V135.557H140.497V138.557ZM140.497 140.393H137.497V143.393H140.497V140.393ZM142.261 140.393H145.261V137.393H142.261V140.393ZM142.261 141.281V144.281H145.261V141.281H142.261ZM140.497 141.281V138.281H137.497V141.281H140.497ZM142.237 146.009L145.137 145.242L144.261 141.931L141.095 143.235L142.237 146.009ZM142.453 146.825L143.486 149.642L146.053 148.701L145.353 146.058L142.453 146.825ZM141.253 144.077C141.213 144.077 141.344 144.07 141.561 144.163C141.799 144.266 142.029 144.442 142.201 144.668C142.357 144.876 142.404 145.044 142.413 145.08C142.421 145.112 142.405 145.065 142.405 144.905H136.405C136.405 145.806 136.545 147.136 137.414 148.286C138.412 149.607 139.883 150.077 141.253 150.077V144.077ZM142.405 144.905V141.281H136.405V144.905H142.405ZM139.405 138.281H138.433V144.281H139.405V138.281ZM141.433 141.281V140.465H135.433V141.281H141.433ZM138.645 143.458L139.665 143.386L139.242 137.401L138.222 137.473L138.645 143.458ZM142.447 140.589L142.567 138.753L136.58 138.362L136.46 140.198L142.447 140.589ZM139.573 141.557H140.497V135.557H139.573V141.557ZM137.497 138.557V140.393H143.497V138.557H137.497ZM140.497 143.393H142.261V137.393H140.497V143.393ZM139.261 140.393V141.281H145.261V140.393H139.261ZM142.261 138.281H140.497V144.281H142.261V138.281ZM137.497 141.281V144.929H143.497V141.281H137.497ZM137.497 144.929C137.497 145.527 137.569 146.63 138.294 147.624C139.17 148.825 140.463 149.189 141.505 149.189V143.189C141.617 143.189 141.886 143.206 142.221 143.351C142.582 143.507 142.905 143.764 143.142 144.089C143.552 144.651 143.497 145.123 143.497 144.929H137.497ZM141.505 149.189C142.349 149.189 143.104 148.897 143.38 148.783L141.095 143.235C141.096 143.235 141.094 143.236 141.091 143.237C141.088 143.238 141.092 143.236 141.105 143.233C141.117 143.23 141.151 143.221 141.205 143.212C141.256 143.204 141.361 143.189 141.505 143.189V149.189ZM139.337 146.777L139.553 147.593L145.353 146.058L145.137 145.242L139.337 146.777ZM141.421 144.009C141.324 144.044 141.252 144.065 141.205 144.076C141.183 144.081 141.175 144.082 141.18 144.081C141.184 144.08 141.21 144.077 141.253 144.077V150.077C142.183 150.077 143.005 149.818 143.486 149.642L141.421 144.009ZM143.737 146.909H140.737V149.909H143.737V146.909ZM143.737 140.393V137.393H140.737V140.393H143.737ZM144.829 140.393H147.829V137.393H144.829V140.393ZM144.829 146.909V149.909H147.829V146.909H144.829ZM146.737 146.909V140.393H140.737V146.909H146.737ZM143.737 143.393H144.829V137.393H143.737V143.393ZM141.829 140.393V146.909H147.829V140.393H141.829ZM144.829 143.909H143.737V149.909H144.829V143.909ZM144.289 136.049C144.716 136.049 145.333 136.196 145.857 136.708C146.393 137.231 146.557 137.867 146.557 138.317H140.557C140.557 139.223 140.871 140.225 141.665 141C142.447 141.765 143.43 142.049 144.289 142.049V136.049ZM146.557 138.317C146.557 138.854 146.347 139.497 145.818 139.996C145.306 140.477 144.714 140.621 144.289 140.621V134.621C143.432 134.621 142.473 134.903 141.704 135.628C140.917 136.369 140.557 137.361 140.557 138.317H146.557ZM144.289 140.621C143.841 140.621 143.263 140.468 142.768 140.007C142.253 139.528 142.021 138.889 142.021 138.317H148.021C148.021 137.325 147.633 136.339 146.857 135.616C146.101 134.913 145.156 134.621 144.289 134.621V140.621ZM142.021 138.317C142.021 137.833 142.204 137.202 142.729 136.696C143.236 136.206 143.839 136.049 144.289 136.049V142.049C145.159 142.049 146.127 141.755 146.896 141.012C147.681 140.254 148.021 139.258 148.021 138.317H142.021ZM147.042 146.909H144.042V149.909H147.042V146.909ZM147.042 140.393V137.393H144.042V140.393H147.042ZM147.93 140.393L150.91 140.054L150.607 137.393H147.93V140.393ZM148.038 141.341L145.057 141.681L145.36 144.341H148.038V141.341ZM148.074 141.341V144.341H149.316L150.195 143.462L148.074 141.341ZM152.25 146.909V149.909H155.25V146.909H152.25ZM151.146 146.909H148.146V149.909H151.146V146.909ZM148.134 142.181L146.012 140.06L145.134 140.939V142.181H148.134ZM148.134 146.909V149.909H151.134V146.909H148.134ZM150.042 146.909V140.393H144.042V146.909H150.042ZM147.042 143.393H147.93V137.393H147.042V143.393ZM144.949 140.733L145.057 141.681L151.018 141.002L150.91 140.054L144.949 140.733ZM148.038 144.341H148.074V138.341H148.038V144.341ZM150.195 143.462C150.298 143.359 150.376 143.289 150.435 143.241C150.494 143.194 150.521 143.178 150.521 143.179C150.518 143.18 150.487 143.197 150.431 143.213C150.372 143.229 150.311 143.237 150.258 143.237V137.237C148.128 137.237 146.719 138.453 145.952 139.22L150.195 143.462ZM150.258 143.237C150.279 143.237 150.152 143.241 149.949 143.153C149.728 143.057 149.526 142.897 149.381 142.707C149.248 142.533 149.219 142.407 149.222 142.42C149.226 142.437 149.25 142.546 149.25 142.781H155.25C155.25 141.664 155.054 140.253 154.152 139.07C153.131 137.729 151.646 137.237 150.258 137.237V143.237ZM149.25 142.781V146.909H155.25V142.781H149.25ZM152.25 143.909H151.146V149.909H152.25V143.909ZM154.146 146.909V142.925H148.146V146.909H154.146ZM154.146 142.925C154.146 142.139 154.052 140.918 153.294 139.855C152.364 138.55 150.984 138.185 149.91 138.185V144.185C149.838 144.185 149.595 144.176 149.278 144.039C148.93 143.889 148.624 143.64 148.409 143.337C148.213 143.063 148.156 142.837 148.144 142.78C148.131 142.725 148.146 142.758 148.146 142.925H154.146ZM149.91 138.185C147.933 138.185 146.695 139.377 146.012 140.06L150.255 144.303C150.389 144.169 150.477 144.087 150.537 144.036C150.596 143.986 150.599 143.989 150.558 144.014C150.511 144.042 150.417 144.091 150.283 144.13C150.146 144.17 150.016 144.185 149.91 144.185V138.185ZM145.134 142.181V146.909H151.134V142.181H145.134ZM148.134 143.909H147.042V149.909H148.134V143.909ZM154.27 140.393V137.393H151.27V140.393H154.27ZM155.362 140.393H158.362V137.393H155.362V140.393ZM158.35 145.025L160.696 146.895L161.35 146.074V145.025H158.35ZM158.35 140.393V137.393H155.35V140.393H158.35ZM159.442 140.393H162.442V137.393H159.442V140.393ZM159.442 146.909V149.909H162.442V146.909H159.442ZM158.542 146.909L155.555 147.19L155.811 149.909H158.542V146.909ZM158.446 145.889L161.433 145.608L161.177 142.889H158.446V145.889ZM158.422 145.889V142.889H157.049L156.152 143.927L158.422 145.889ZM156.262 144.077C156.24 144.077 156.368 144.073 156.572 144.162C156.794 144.259 156.997 144.419 157.142 144.61C157.274 144.784 157.302 144.909 157.298 144.893C157.293 144.874 157.27 144.761 157.27 144.521H151.27C151.27 145.641 151.463 147.054 152.364 148.239C153.385 149.584 154.873 150.077 156.262 150.077V144.077ZM157.27 144.521V140.393H151.27V144.521H157.27ZM154.27 143.393H155.362V137.393H154.27V143.393ZM152.362 140.393V144.389H158.362V140.393H152.362ZM152.362 144.389C152.362 145.174 152.456 146.393 153.217 147.455C154.148 148.754 155.524 149.117 156.598 149.117V143.117C156.669 143.117 156.911 143.126 157.226 143.262C157.573 143.411 157.878 143.658 158.094 143.96C158.291 144.235 158.349 144.463 158.363 144.523C158.376 144.581 158.362 144.552 158.362 144.389H152.362ZM156.598 149.117C158.624 149.117 159.875 147.925 160.696 146.895L156.004 143.156C155.902 143.283 155.841 143.348 155.812 143.376C155.785 143.402 155.81 143.373 155.885 143.326C155.966 143.274 156.085 143.214 156.235 143.171C156.384 143.129 156.512 143.117 156.598 143.117V149.117ZM161.35 145.025V140.393H155.35V145.025H161.35ZM158.35 143.393H159.442V137.393H158.35V143.393ZM156.442 140.393V146.909H162.442V140.393H156.442ZM159.442 143.909H158.542V149.909H159.442V143.909ZM161.529 146.628L161.433 145.608L155.459 146.17L155.555 147.19L161.529 146.628ZM158.446 142.889H158.422V148.889H158.446V142.889ZM156.152 143.927C156.059 144.036 155.992 144.102 155.947 144.142C155.904 144.181 155.895 144.183 155.918 144.169C155.944 144.154 155.997 144.127 156.071 144.106C156.147 144.084 156.215 144.077 156.262 144.077V150.077C158.448 150.077 159.853 148.821 160.691 147.851L156.152 143.927ZM166.635 143.921V146.921H169.06L169.568 144.55L166.635 143.921ZM162.243 143.921V140.921H159.055L159.248 144.103L162.243 143.921ZM166.035 145.673L168.673 144.246L167.099 141.335L164.356 143.187L166.035 145.673ZM166.431 146.405L168.058 148.925L170.39 147.419L169.069 144.978L166.431 146.405ZM162.231 143.129L159.249 142.795L158.876 146.129H162.231V143.129ZM165.723 143.129V146.129H168.723V143.129H165.723ZM164.283 144.077C164.215 144.077 164.189 144.065 164.195 144.067C164.202 144.07 164.218 144.08 164.233 144.095C164.247 144.11 164.236 144.106 164.216 144.054C164.196 144.001 164.163 143.879 164.163 143.669H158.163C158.163 145.398 158.733 147.032 159.908 148.254C161.081 149.473 162.664 150.077 164.283 150.077V144.077ZM164.163 143.669C164.163 143.477 164.195 143.354 164.22 143.286C164.245 143.218 164.27 143.191 164.273 143.187C164.281 143.178 164.226 143.237 164.091 143.237V137.237C160.7 137.237 158.163 140.132 158.163 143.669H164.163ZM164.091 143.237C164.144 143.237 164.095 143.246 163.989 143.199C163.877 143.15 163.774 143.071 163.7 142.982C163.632 142.9 163.626 142.855 163.64 142.9C163.654 142.948 163.683 143.074 163.683 143.297H169.683C169.683 141.898 169.335 140.376 168.316 139.148C167.235 137.847 165.695 137.237 164.091 137.237V143.237ZM163.683 143.297C163.683 143.328 163.682 143.355 163.682 143.377C163.681 143.399 163.68 143.414 163.68 143.421C163.679 143.424 163.679 143.425 163.68 143.423C163.68 143.421 163.68 143.415 163.682 143.406C163.683 143.397 163.685 143.383 163.688 143.365C163.691 143.347 163.695 143.322 163.701 143.293L169.568 144.55C169.673 144.06 169.683 143.571 169.683 143.297H163.683ZM166.635 140.921H162.243V146.921H166.635V140.921ZM159.248 144.103C159.324 145.35 159.761 146.635 160.714 147.642C161.696 148.679 163.026 149.201 164.415 149.201V143.201C164.467 143.201 164.574 143.212 164.71 143.268C164.847 143.325 164.972 143.412 165.07 143.516C165.271 143.727 165.245 143.873 165.237 143.739L159.248 144.103ZM164.415 149.201C165.769 149.201 166.859 148.736 167.713 148.16L164.356 143.187C164.287 143.233 164.274 143.232 164.306 143.221C164.322 143.215 164.342 143.21 164.365 143.206C164.389 143.202 164.406 143.201 164.415 143.201V149.201ZM163.396 147.101L163.792 147.833L169.069 144.978L168.673 144.246L163.396 147.101ZM164.803 143.885C164.66 143.977 164.566 144.021 164.5 144.043C164.442 144.063 164.378 144.077 164.283 144.077V150.077C165.918 150.077 167.163 149.504 168.058 148.925L164.803 143.885ZM162.231 146.129H165.723V140.129H162.231V146.129ZM168.723 143.129C168.723 142.08 168.493 140.806 167.63 139.742C166.689 138.58 165.359 138.113 164.103 138.113V144.113C164.018 144.113 163.832 144.098 163.598 143.997C163.353 143.891 163.134 143.723 162.969 143.52C162.658 143.136 162.723 142.871 162.723 143.129H168.723ZM164.103 138.113C161.318 138.113 159.522 140.363 159.249 142.795L165.212 143.464C165.221 143.382 165.223 143.533 165.023 143.737C164.815 143.95 164.482 144.113 164.103 144.113V138.113Z" fill="#EFF5FF" mask="url(#path-4-inside-1_420_186)"/>
<g opacity="0.6">
<line x1="25.7266" y1="73.9238" x2="173.273" y2="73.9238" stroke="#276BC6" stroke-width="2"/>
<line x1="25.7266" y1="115.924" x2="173.273" y2="115.924" stroke="#276BC6" stroke-width="2"/>
</g>
<path d="M48.0332 60.9238V59.5558H50.9672V49.7278H48.6092V48.6658C49.7972 48.4678 50.6432 48.1618 51.3452 47.7298H52.6052V59.5558H55.2692V60.9238H48.0332ZM58.0176 60.9238V59.5558H60.9516V49.7278H58.5936V48.6658C59.7816 48.4678 60.6276 48.1618 61.3296 47.7298H62.5896V59.5558H65.2536V60.9238H58.0176ZM71.152 61.1758C69.082 61.1758 67.804 60.3118 66.94 59.3578L67.768 58.2778C68.542 59.0878 69.532 59.8078 71.044 59.8078C72.61 59.8078 73.726 58.8538 73.726 57.3418C73.726 55.7578 72.664 54.7138 69.622 54.7138V53.4358C72.34 53.4358 73.258 52.3558 73.258 50.9158C73.258 49.6558 72.412 48.8278 71.044 48.8278C69.982 48.8278 69.046 49.3678 68.308 50.1238L67.426 49.0618C68.416 48.1618 69.586 47.4958 71.098 47.4958C73.312 47.4958 74.932 48.7018 74.932 50.8078C74.932 52.4098 73.996 53.4718 72.592 53.9758V54.0478C74.14 54.4258 75.4 55.5958 75.4 57.4138C75.4 59.7538 73.51 61.1758 71.152 61.1758ZM81.3883 45.7498L82.7383 46.0918C81.7483 48.7558 80.1463 51.2578 78.4723 52.8778C78.2023 52.6438 77.6443 52.1938 77.3023 52.0138C79.0123 50.5198 80.5063 48.1798 81.3883 45.7498ZM81.1003 47.9818H92.7103V49.2958H80.4523L81.1003 47.9818ZM80.2183 52.0678H92.3143V53.3278H81.5683V57.5938H80.2183V52.0678ZM77.2483 56.9098H93.5563V58.2238H77.2483V56.9098ZM85.6183 48.6658H87.0043V62.3818H85.6183V48.6658ZM98.4523 50.9158H111.25V52.0138H98.4523V50.9158ZM98.7043 56.1538H109V57.2698H98.7043V56.1538ZM101.35 49.3498H102.628V53.9398H107.02V49.3498H108.334V55.0018H101.35V49.3498ZM108.64 56.1538H108.91L109.162 56.0998L110.008 56.5678C107.992 60.2398 103.294 61.6978 98.3983 62.2558C98.2903 61.9498 98.0563 61.4278 97.8403 61.1218C102.43 60.7078 106.966 59.3758 108.64 56.3518V56.1538ZM101.584 57.0718C103.366 59.4478 107.218 60.7798 111.7 61.1938C111.412 61.4818 111.088 62.0218 110.926 62.3638C106.336 61.8238 102.484 60.3298 100.414 57.5218L101.584 57.0718ZM97.3003 47.6038H111.466V48.8638H97.3003V47.6038ZM96.6703 47.6038H98.0023V52.4998C98.0023 55.3618 97.7863 59.5198 96.2743 62.3638C96.0043 62.1478 95.3923 61.8598 95.0503 61.7518C96.5263 59.0338 96.6703 55.1998 96.6703 52.4998V47.6038ZM102.916 46.0378L104.266 45.7138C104.68 46.4518 105.148 47.4058 105.31 48.0178L103.888 48.4138C103.726 47.7838 103.312 46.7758 102.916 46.0378ZM116.146 50.2498H126.694V51.2758H116.146V50.2498ZM123.652 48.7738L124.282 48.1258C124.984 48.4318 125.812 48.9358 126.244 49.3498L125.596 50.0698C125.164 49.6378 124.336 49.1158 123.652 48.7738ZM124.84 52.1038L125.938 52.3198C125.038 55.7218 123.238 58.2418 120.754 59.8438C120.592 59.6278 120.196 59.1778 119.962 58.9798C122.41 57.5578 124.066 55.2178 124.84 52.1038ZM115.966 57.6118C117.352 57.3778 119.368 57.0358 121.402 56.6578L121.438 57.6118C119.566 57.9718 117.64 58.3678 116.146 58.6378L115.966 57.6118ZM117.748 53.2558V55.0738H119.8V53.2558H117.748ZM116.776 52.4098H120.79V55.9018H116.776V52.4098ZM121.474 48.3238H122.626C122.86 53.4178 123.652 58.1698 125.398 58.4398C125.65 58.4938 125.83 57.7378 125.956 56.5678C126.172 56.7838 126.586 57.0718 126.838 57.1798C126.604 59.1598 125.974 59.8798 125.02 59.5378C122.536 58.9978 121.798 53.8858 121.474 48.3238ZM113.878 46.6498H128.926V62.4358H127.576V47.8738H115.156V62.4358H113.878V46.6498ZM114.67 60.3658H128.332V61.5898H114.67V60.3658ZM132.13 49.0258H146.638V57.5038H145.234V50.3578H133.48V57.5938H132.13V49.0258ZM132.85 55.1458H146.044V56.4598H132.85V55.1458ZM138.646 45.8038H140.05V62.3458H138.646V45.8038ZM50.1932 90.3138H62.6672V91.6278H50.1932V90.3138ZM49.4012 95.5878H62.0192V96.8838H49.4012V95.5878ZM47.4392 101.474H63.5132V102.788H47.4392V101.474ZM54.7832 86.8218H56.1692V102.14H54.7832V86.8218ZM50.7332 87.1098L52.1192 87.4158C51.3272 90.2058 50.0672 92.8698 48.6272 94.5978C48.3572 94.3638 47.7452 93.9678 47.4032 93.7878C48.8792 92.1858 50.0492 89.6838 50.7332 87.1098ZM74.0612 86.8038L75.2852 87.0558C74.6192 90.0078 73.4312 92.7438 71.9192 94.5258C71.7032 94.3278 71.1632 93.9318 70.8752 93.7518C72.3872 92.1318 73.4492 89.5398 74.0612 86.8038ZM80.2712 89.8278H81.5492C81.5492 89.8278 81.5492 90.3318 81.5312 90.5298C81.1172 98.7378 80.7392 101.564 80.0012 102.446C79.6412 102.932 79.2992 103.094 78.7412 103.148C78.2732 103.22 77.4812 103.202 76.6892 103.148C76.6532 102.752 76.5272 102.176 76.3112 101.816C77.1212 101.888 77.8592 101.906 78.2012 101.906C78.4892 101.906 78.6692 101.834 78.8852 101.6C79.4792 100.916 79.8932 98.0538 80.2712 90.1518V89.8278ZM73.9352 89.8278H80.8112V91.1058H73.3592L73.9352 89.8278ZM75.7532 90.2238L76.7792 90.7458C76.0052 93.9318 74.2952 97.5318 72.2432 99.3138C71.9732 99.0438 71.5412 98.7198 71.1812 98.5218C73.2872 96.8658 75.0152 93.3738 75.7532 90.2238ZM78.3272 90.3318L79.4072 90.8358C78.5072 95.6778 76.4912 100.646 73.4672 103.076C73.1972 102.788 72.7112 102.446 72.3152 102.248C75.4652 99.9978 77.4632 95.1198 78.3272 90.3318ZM65.0792 96.7938C66.7712 96.3618 69.3452 95.6058 71.7932 94.8678L71.9732 96.0558C69.6872 96.7758 67.2572 97.5318 65.4392 98.1078L65.0792 96.7938ZM68.4452 86.8218H69.7052V103.364H68.4452V86.8218ZM66.2132 87.8478L67.3832 88.0458C67.1132 90.4398 66.6632 92.8698 65.9792 94.4718C65.7632 94.3098 65.2412 94.0038 64.9532 93.8778C65.6372 92.3478 65.9972 90.0618 66.2132 87.8478ZM66.3212 90.4938H71.5592V91.8078H66.1052L66.3212 90.4938ZM85.6532 94.1838H90.1892V95.2818H85.6532V94.1838ZM83.9072 88.6938H89.3972V89.8818H83.9072V88.6938ZM83.1512 91.6458H91.8812V92.8338H83.1512V91.6458ZM86.2832 86.8038H87.5612V92.2758H86.2832V86.8038ZM90.7112 87.2178L91.9712 87.5958C90.2792 91.6638 87.4352 94.7778 83.9972 96.7578C83.7992 96.4878 83.3132 95.9658 83.0252 95.7318C86.4632 93.9678 89.1992 90.9798 90.7112 87.2178ZM86.9672 96.8838H88.2452V101.942C88.2452 102.626 88.1012 102.968 87.6152 103.148C87.1112 103.346 86.3372 103.364 85.1672 103.364C85.1132 103.004 84.9332 102.536 84.7532 102.176C85.6532 102.212 86.4092 102.194 86.6612 102.194C86.8952 102.176 86.9672 102.122 86.9672 101.924V96.8838ZM89.8112 94.1838H90.0812L90.3332 94.1118L91.1252 94.6878C90.2072 95.7678 88.8392 96.9018 87.6512 97.5858C87.4892 97.3698 87.1832 97.0458 86.9672 96.8838C87.9932 96.2538 89.1992 95.1918 89.8112 94.3998V94.1838ZM83.1872 98.5938C85.3112 98.3418 88.6232 97.9098 91.7912 97.4958L91.8272 98.6658C88.7852 99.0798 85.5632 99.5298 83.3492 99.8358L83.1872 98.5938ZM93.3212 90.1698H99.7292V91.4298H93.3212V90.1698ZM93.8072 86.8038L95.1572 87.0198C94.5452 90.4038 93.4652 93.6078 91.9712 95.6598C91.7372 95.4258 91.1612 94.9578 90.8552 94.7418C92.3132 92.8698 93.2672 89.8998 93.8072 86.8038ZM97.2632 90.8538L98.6312 90.9978C97.7672 97.2258 95.8592 101.078 91.3232 103.418C91.1792 103.112 90.7832 102.5 90.5132 102.212C94.7972 100.196 96.5252 96.5778 97.2632 90.8538ZM94.0052 91.2318C94.7972 96.1818 96.5252 100.412 99.8732 102.194C99.5492 102.464 99.1172 102.968 98.9192 103.346C95.3912 101.276 93.6812 96.8838 92.7812 91.4298L94.0052 91.2318ZM101.529 88.5678H117.369V89.7738H101.529V88.5678ZM111.231 90.2418L112.293 89.5758C113.805 90.6018 115.677 92.1138 116.613 93.1578L115.461 93.9498C114.597 92.9058 112.761 91.3218 111.231 90.2418ZM103.401 93.3558C103.329 93.0858 103.131 92.4198 102.987 92.0598C103.401 92.0058 103.869 91.6458 104.517 91.1238C105.219 90.6018 107.433 88.6038 108.999 86.5878L110.349 87.1458C108.459 89.3418 106.317 91.3038 104.319 92.6718V92.7078C104.319 92.7078 103.401 93.0858 103.401 93.3558ZM103.401 93.3558V92.4378L104.265 91.9878L114.435 91.5738C114.471 91.8978 114.579 92.3838 114.633 92.6358C104.967 93.1038 104.013 93.1398 103.401 93.3558ZM114.057 94.0038H115.497V101.798C115.497 102.608 115.281 102.968 114.651 103.13C114.039 103.31 112.977 103.31 111.375 103.31C111.339 102.95 111.177 102.482 110.997 102.14C112.131 102.176 113.337 102.176 113.643 102.158C113.949 102.158 114.057 102.05 114.057 101.798V94.0038ZM104.535 94.0038H114.579V95.1558H104.535V94.0038ZM103.761 94.0038H105.075V97.2618C105.075 99.1878 104.769 101.762 103.005 103.508C102.789 103.256 102.231 102.806 101.925 102.662C103.545 101.078 103.761 98.9178 103.761 97.2258V94.0038ZM105.561 99.8538C107.757 99.5298 111.357 98.9358 114.705 98.3778L114.759 99.3318C111.681 99.9798 108.405 100.646 105.993 101.096L105.561 99.8538ZM105.669 96.7578L106.083 95.8938C108.315 96.1818 111.159 96.9018 112.689 97.5498L112.275 98.5398C110.781 97.8738 107.919 97.1178 105.669 96.7578ZM122.535 92.9058V95.6238H132.291V92.9058H122.535ZM121.383 91.9878H133.515V96.5418H121.383V91.9878ZM124.335 90.0978H130.617V91.0518H124.335V90.0978ZM126.819 92.3118H127.953V96.0738H126.819V92.3118ZM123.633 93.4458L124.605 93.1218C125.073 93.7518 125.505 94.5978 125.685 95.1738L124.641 95.5518C124.497 94.9758 124.083 94.0938 123.633 93.4458ZM130.113 93.0498L131.265 93.4098C130.869 94.1838 130.401 95.0118 130.041 95.5518L129.105 95.2278C129.447 94.6158 129.897 93.6618 130.113 93.0498ZM122.445 97.4058H132.615V103.292H131.247V98.3598H123.777V103.364H122.445V97.4058ZM123.237 99.5658H131.841V100.556H123.237V99.5658ZM123.237 101.78H131.841V102.752H123.237V101.78ZM127.305 86.7318L128.511 87.1818C126.603 89.6658 123.219 91.3938 119.889 92.4738C119.745 92.2038 119.367 91.6458 119.115 91.4118C122.409 90.5118 125.631 88.9278 127.305 86.7318ZM128.097 87.3618C129.753 89.0898 133.011 90.6018 135.927 91.2858C135.639 91.5198 135.261 92.0058 135.063 92.3298C132.147 91.5378 128.871 89.8098 127.053 87.8118L128.097 87.3618ZM149.427 98.0178H150.795C150.795 98.0178 150.741 98.4318 150.705 98.6298C150.327 101.114 149.949 102.248 149.373 102.752C148.941 103.112 148.527 103.202 147.807 103.238C147.195 103.256 145.935 103.238 144.603 103.166C144.567 102.77 144.405 102.248 144.153 101.888C145.485 102.014 146.943 102.05 147.429 102.05C147.879 102.05 148.095 102.032 148.311 101.888C148.761 101.546 149.085 100.502 149.409 98.1978L149.427 98.0178ZM142.533 98.0178H149.841V99.1518H142.209L142.533 98.0178ZM143.091 95.1378H151.641V96.2358H142.695L143.091 95.1378ZM137.709 92.1498H153.351V93.3198H137.709V92.1498ZM139.311 88.9458H149.175V90.0798H139.311V88.9458ZM143.919 86.8038H145.269V92.7258H143.919V86.8038ZM151.479 87.6498L152.541 88.2618C148.923 92.7618 143.397 96.2898 137.781 98.4858C137.673 98.1798 137.367 97.5678 137.151 97.2798C142.713 95.3178 148.131 91.8618 151.479 87.6498ZM142.857 95.5878H144.243C143.757 96.8118 143.109 98.2338 142.659 99.1518H141.219C141.759 98.1798 142.407 96.7398 142.857 95.5878Z" fill="#1C276D"/>
<path d="M75.418 19.8486L79.482 10.119L75.418 0.000368118L123.582 0.000368118L120.534 10.119L123.582 19.8486L75.418 19.8486Z" fill="#FFDE67"/>
<rect y="182.924" width="199" height="30" rx="15" fill="#4395E6"/>
<rect x="0.5" y="183.424" width="198" height="29" rx="14.5" stroke="#FFDE67"/>
<path d="M178.044 207.924V199.924M178.044 199.924L180.514 199.43C182.165 199.099 183.876 199.257 185.439 199.882C187.133 200.559 188.996 200.685 190.766 200.243L190.98 200.19C191.284 200.114 191.554 199.939 191.746 199.692C191.939 199.445 192.044 199.141 192.044 198.828V191.461C192.044 191.279 192.002 191.099 191.922 190.935C191.842 190.771 191.726 190.628 191.583 190.516C191.439 190.403 191.272 190.325 191.094 190.288C190.915 190.25 190.731 190.253 190.554 190.297C188.923 190.704 187.204 190.588 185.643 189.963L185.439 189.882C183.876 189.257 182.165 189.1 180.515 189.43L178.044 189.924M178.044 199.924V196.924M178.044 189.924V187.924M178.044 189.924V192.924" stroke="#FFDE67" stroke-width="2" stroke-linecap="round"/>
<defs>
<filter id="filter0_d_420_186" x="0" y="9.92383" width="207" height="171" filterUnits="userSpaceOnUse" color-interpolation-filters="sRGB">
<feFlood flood-opacity="0" result="BackgroundImageFix"/>
<feColorMatrix in="SourceAlpha" type="matrix" values="0 0 0 0 0 0 0 0 0 0 0 0 0 0 0 0 0 0 127 0" result="hardAlpha"/>
<feOffset dx="4" dy="4"/>
<feGaussianBlur stdDeviation="2"/>
<feComposite in2="hardAlpha" operator="out"/>
<feColorMatrix type="matrix" values="0 0 0 0 0.151771 0 0 0 0 0.420893 0 0 0 0 0.775 0 0 0 0.25 0"/>
<feBlend mode="normal" in2="BackgroundImageFix" result="effect1_dropShadow_420_186"/>
<feBlend mode="normal" in="SourceGraphic" in2="effect1_dropShadow_420_186" result="shape"/>
</filter>
</defs>
</svg>
