<svg width="1922" height="1921" viewBox="0 0 1922 1921" fill="none" xmlns="http://www.w3.org/2000/svg">
<path opacity="0.3" d="M57.3606 1919.99L57.4458 1.00034M111.084 1919.99L111.169 1.00034M164.807 1919.99L164.892 1.00034M218.53 1919.99L218.616 1.00034M272.254 1919.99L272.339 1.00034M325.977 1919.99L326.062 1.00034M379.7 1919.99L379.785 1.00034M433.423 1919.99L433.509 1.00034M487.147 1919.99L487.232 1.00034M540.87 1919.99L540.956 1.00034M594.594 1919.99L594.679 1.00034M648.317 1919.99L648.402 1.00034M702.04 1919.99L702.125 1.00034M755.764 1919.99L755.849 1.00034M809.487 1919.99L809.572 1.00034M863.21 1919.99L863.296 1.00034M916.934 1919.99L917.019 1.00034M970.657 1919.99L970.742 1.00034M1024.38 1919.99L1024.47 1.00034M1078.1 1919.99L1078.19 1.00034M1131.83 1919.99L1131.91 1.00034M1185.55 1919.99L1185.64 1.00034M1239.27 1919.99L1239.36 1.00034M1293 1919.99L1293.08 1.00034M1346.72 1919.99L1346.81 1.00034M1400.44 1919.99L1400.53 1.00034M1454.17 1919.99L1454.25 1.00034M1507.89 1919.99L1507.98 1.00034M1561.61 1919.99L1561.7 1.00034M1615.34 1919.99L1615.42 1.00034M1669.06 1919.99L1669.15 1.00034M1722.78 1919.99L1722.87 1.00034M1776.51 1919.99L1776.59 1.00034M1830.23 1919.99L1830.32 1.00034M1883.95 1919.99L1884.04 1.00034M1.00007 57.3313L1921 57.4164M1.00007 111.026L1921 111.112M1.00007 164.722L1921 164.807M1.00007 218.417L1921 218.502M1.00007 272.112L1921 272.197M1.00007 325.807L1921 325.892M1.00007 379.502L1921 379.587M1.00007 433.197L1921 433.282M1.00007 486.892L1921 486.978M1.00007 540.588L1921 540.673M1.00007 594.283L1921 594.368M1.00007 647.978L1921 648.063M1.00007 701.673L1921 701.758M1.00007 755.369L1921 755.454M1.00007 809.064L1921 809.149M1.00007 862.759L1921 862.844M1.00007 916.454L1921 916.539M1.00007 970.149L1921 970.234M1.00007 1023.84L1921 1023.93M1.00007 1077.54L1921 1077.62M1.00007 1131.23L1921 1131.32M1.00007 1184.93L1921 1185.02M1.00007 1238.63L1921 1238.71M1.00007 1292.32L1921 1292.41M1.00007 1346.02L1921 1346.1M1.00007 1399.71L1921 1399.8M1.00007 1453.41L1921 1453.49M1.00007 1507.1L1921 1507.19M1.00007 1560.8L1921 1560.88M1.00007 1614.49L1921 1614.58M1.00007 1668.19L1921 1668.27M1.00007 1721.88L1921 1721.97M1.00007 1775.58L1921 1775.66M1.00007 1829.27L1921 1829.36M1.00007 1882.97L1921 1883.05M1920.92 1920.08L1921 1.08513L1.00007 1L0.914814 1919.99" stroke="#4395E6"/>
</svg>
