<svg width="207" height="181" viewBox="0 0 207 181" fill="none" xmlns="http://www.w3.org/2000/svg">
<g filter="url(#filter0_d_216_2824)">
<rect y="9.92432" width="199" height="163" rx="10" fill="#FFFEF6"/>
</g>
<path fill-rule="evenodd" clip-rule="evenodd" d="M166.144 10.9241L189 10.9241C193.971 10.9241 198 14.9535 198 19.9241V162.924C198 167.895 193.971 171.924 189 171.924H10C5.02944 171.924 1 167.895 1 162.924V19.9241C1 14.9535 5.02944 10.9241 10 10.9241L32.8431 10.9241V10.9603H32.8666V14.6172C30.8723 15.9921 29.5652 18.2923 29.5652 20.8978C29.5652 25.108 32.9782 28.5211 37.1884 28.5211C41.3986 28.5211 44.8116 25.108 44.8116 20.8978C44.8116 18.2922 43.5044 15.9919 41.5099 14.617V10.9603H41.5411V10.9241L64.0051 10.9241V10.9603H64.0224V14.6172C62.0281 15.9921 60.7209 18.2923 60.7209 20.8978C60.7209 25.108 64.134 28.5211 68.3442 28.5211C72.5544 28.5211 75.9674 25.108 75.9674 20.8978C75.9674 18.2922 74.6601 15.9919 72.6657 14.617V10.9603H72.6964V10.9241H95.1543V10.9603H95.1781V14.6172C93.1838 15.9921 91.8767 18.2923 91.8767 20.8978C91.8767 25.108 95.2897 28.5211 99.4999 28.5211C103.71 28.5211 107.123 25.108 107.123 20.8978C107.123 18.2922 105.816 15.9919 103.821 14.617V10.9603H103.846V10.9241H126.304V10.9603H126.334V14.6172C124.34 15.9921 123.032 18.2923 123.032 20.8978C123.032 25.108 126.446 28.5211 130.656 28.5211C134.866 28.5211 138.279 25.108 138.279 20.8978C138.279 18.2922 136.972 15.9919 134.977 14.617V10.9603H134.995V10.9241H157.453V10.9603H157.49V14.6172C155.495 15.9921 154.188 18.2923 154.188 20.8978C154.188 25.108 157.601 28.5211 161.811 28.5211C166.022 28.5211 169.435 25.108 169.435 20.8978C169.435 18.2922 168.127 15.9919 166.133 14.617V10.9603H166.144V10.9241ZM166.133 10.9241H166.144V9.92407H189C194.523 9.92407 199 14.4012 199 19.9241V162.924C199 168.447 194.523 172.924 189 172.924H10C4.47715 172.924 0 168.447 0 162.924V19.9241C0 14.4012 4.47715 9.92407 10 9.92407H32.8431V10.9241H32.8666V10.9603H33.8666V14.6172V15.1424L33.4342 15.4405C31.6991 16.6368 30.5652 18.635 30.5652 20.8978C30.5652 24.5558 33.5305 27.5211 37.1884 27.5211C40.8463 27.5211 43.8116 24.5558 43.8116 20.8978C43.8116 18.6349 42.6776 16.6366 40.9423 15.4403L40.5099 15.1422V14.617V10.9603H41.5099V10.9241H41.5411V9.92407H64.0051V10.9241H64.0224V10.9603H65.0224V14.6172V15.1424L64.59 15.4405C62.8548 16.6368 61.7209 18.635 61.7209 20.8978C61.7209 24.5558 64.6863 27.5211 68.3442 27.5211C72.0021 27.5211 74.9674 24.5558 74.9674 20.8978C74.9674 18.6349 73.8334 16.6366 72.0981 15.4403L71.6657 15.1422V14.617V10.9603H72.6657V10.9241H72.6964V9.92407H95.1543V10.9241H95.1781V10.9603H96.1781V14.6172V15.1424L95.7457 15.4405C94.0106 16.6368 92.8767 18.635 92.8767 20.8978C92.8767 24.5558 95.842 27.5211 99.4999 27.5211C103.158 27.5211 106.123 24.5558 106.123 20.8978C106.123 18.6349 104.989 16.6366 103.254 15.4403L102.821 15.1422V14.617V10.9603H103.821V10.9241H103.846V9.92407H126.304V10.9241H126.334V10.9603H127.334V14.6172V15.1424L126.901 15.4405C125.166 16.6368 124.032 18.635 124.032 20.8978C124.032 24.5558 126.998 27.5211 130.656 27.5211C134.314 27.5211 137.279 24.5558 137.279 20.8978C137.279 18.6349 136.145 16.6366 134.41 15.4403L133.977 15.1422V14.617V10.9603H134.977V10.9241H134.995V9.92407H157.453V10.9241H157.49V10.9603H158.489V10.9241H158.49V14.6172V15.1424L158.057 15.4405C156.322 16.6368 155.188 18.635 155.188 20.8978C155.188 24.5558 158.154 27.5211 161.811 27.5211C165.469 27.5211 168.435 24.5558 168.435 20.8978C168.435 18.6349 167.301 16.6366 165.565 15.4403L165.133 15.1422V14.617V10.9603H166.133V10.9241ZM165.108 9.92407V10.9603H165.133V10.9241H166.133V9.9241H165.133L165.108 9.92407ZM158.489 9.92407H165.108L158.49 9.9241L158.489 9.92407ZM158.489 9.92407V10.9241H157.49V9.9241L158.489 9.92407ZM134.977 10.9241V9.9241H133.977L133.959 9.92407V10.9603H133.977V10.9241H134.977ZM127.334 10.9603V10.9241H126.334V9.9241H127.334L127.34 9.92407V10.9603H127.334ZM103.821 10.9241H102.821V10.9603H102.809V9.92407L102.821 9.9241H103.821V10.9241ZM96.1781 10.9603V10.9241H95.1781V9.9241H96.1781L96.1906 9.92407V10.9603H96.1781ZM72.6657 10.9241H71.6657V10.9603H71.6602V9.92407L71.6657 9.9241H72.6657V10.9241ZM65.0224 10.9603V10.9241H64.0224V9.9241H65.0224L65.0414 9.92407V10.9603H65.0224ZM40.5049 10.9241V9.92407L40.5099 9.9241H41.5099V10.9241H40.5049ZM40.5049 10.9241V10.9603H40.5099V10.9241L40.5049 10.9241ZM33.8794 9.92407V10.9241V10.9603H33.8666V10.9241H32.8666V9.9241H33.8666L33.8794 9.92407ZM33.8794 9.92407H39.6463L37.289 9.9241L33.8794 9.92407Z" fill="#276BC6"/>
<path d="M75.418 19.8481L79.482 10.1185L75.418 -0.000120163L123.582 -0.000120163L120.534 10.1185L123.582 19.8481L75.418 19.8481Z" fill="#FFDE67"/>
<defs>
<filter id="filter0_d_216_2824" x="0" y="9.92432" width="207" height="171" filterUnits="userSpaceOnUse" color-interpolation-filters="sRGB">
<feFlood flood-opacity="0" result="BackgroundImageFix"/>
<feColorMatrix in="SourceAlpha" type="matrix" values="0 0 0 0 0 0 0 0 0 0 0 0 0 0 0 0 0 0 127 0" result="hardAlpha"/>
<feOffset dx="4" dy="4"/>
<feGaussianBlur stdDeviation="2"/>
<feComposite in2="hardAlpha" operator="out"/>
<feColorMatrix type="matrix" values="0 0 0 0 0.151771 0 0 0 0 0.420893 0 0 0 0 0.775 0 0 0 0.25 0"/>
<feBlend mode="normal" in2="BackgroundImageFix" result="effect1_dropShadow_216_2824"/>
<feBlend mode="normal" in="SourceGraphic" in2="effect1_dropShadow_216_2824" result="shape"/>
</filter>
</defs>
</svg>
