<svg width="1920" height="645" viewBox="0 0 1920 645" fill="none" xmlns="http://www.w3.org/2000/svg">
<g opacity="0.3">
<g clip-path="url(#clip0_293_55)">
<path d="M56.3605 1599.37L56.4457 -319.623M110.084 1599.37L110.169 -319.623M163.807 1599.37L163.892 -319.623M217.53 1599.37L217.615 -319.623M271.254 1599.37L271.339 -319.623M324.977 1599.37L325.062 -319.623M378.7 1599.37L378.785 -319.623M432.423 1599.37L432.509 -319.623M486.147 1599.37L486.232 -319.623M539.87 1599.37L539.955 -319.623M593.593 1599.37L593.679 -319.623M647.317 1599.37L647.402 -319.623M701.04 1599.37L701.125 -319.623M754.763 1599.37L754.849 -319.623M808.487 1599.37L808.572 -319.623M862.21 1599.37L862.295 -319.623M915.933 1599.37L916.019 -319.623M969.657 1599.37L969.742 -319.623M1023.38 1599.37L1023.47 -319.623M1077.1 1599.37L1077.19 -319.623M1130.83 1599.37L1130.91 -319.623M1184.55 1599.37L1184.64 -319.623M1238.27 1599.37L1238.36 -319.623M1292 1599.37L1292.08 -319.623M1345.72 1599.37L1345.81 -319.623M1399.44 1599.37L1399.53 -319.623M1453.17 1599.37L1453.25 -319.623M1506.89 1599.37L1506.98 -319.623M1560.61 1599.37L1560.7 -319.623M1614.34 1599.37L1614.42 -319.623M1668.06 1599.37L1668.15 -319.623M1721.78 1599.37L1721.87 -319.623M1775.51 1599.37L1775.59 -319.623M1829.23 1599.37L1829.32 -319.623M1882.95 1599.37L1883.04 -319.623M0 -263.292L1920 -263.207M0 -209.597L1920 -209.512M0 -155.902L1920 -155.817M0 -102.207L1920 -102.122M0 -48.5116L1920 -48.4265M0 5.18343L1920 5.26856M0 58.8786L1920 58.9638M0 112.574L1920 112.659M0 166.269L1920 166.354M0 219.964L1920 220.049M0 273.659L1920 273.745M0 327.355L1920 327.44M0 381.05L1920 381.135M0 434.745L1920 434.83M0 488.44L1920 488.525M0 542.136L1920 542.221M0 595.831L1920 595.916M0 649.526L1920 649.611M0 703.221L1920 703.306M0 756.916L1920 757.002M0 810.612L1920 810.697M0 864.307L1920 864.392M0 918.002L1920 918.087M0 971.697L1920 971.782M0 1025.39L1920 1025.48M0 1079.09L1920 1079.17M0 1132.78L1920 1132.87M0 1186.48L1920 1186.56M0 1240.17L1920 1240.26M0 1293.87L1920 1293.95M0 1347.56L1920 1347.65M0 1401.26L1920 1401.34M0 1454.95L1920 1455.04M0 1508.65L1920 1508.73M0 1562.34L1920 1562.43" stroke="#4395E6"/>
</g>
<rect x="0.5" y="0.5" width="1919" height="644" stroke="#4395E6"/>
</g>
<defs>
<clipPath id="clip0_293_55">
<rect width="1920" height="645" fill="white"/>
</clipPath>
</defs>
</svg>
