<svg width="48" height="64" viewBox="0 0 48 64" fill="none" xmlns="http://www.w3.org/2000/svg">
<path d="M17.7059 35.1137C13.1896 33.4899 9.76443 31.4094 7.43021 28.8722C5.14673 26.335 3.81882 22.8591 3.81882 18.4443C3.81882 15.2475 4.40782 12.558 6.08237 9.91934C7.75692 7.22992 10.2007 4.71705 13.3468 3.14398C16.4929 1.52018 20.6744 0.647217 25.0891 0.647217C35.8976 0.647217 42.9204 4.10812 46.6112 11.9707L43.562 14.258C41.5322 10.1984 39.1769 7.78809 36.0815 6.41801C33.0369 5.04792 29.1994 4.51511 25.0891 4.51511C21.4863 4.51511 18.3655 4.82326 15.7268 6.09186C13.1389 7.30971 11.1345 9.31041 9.71369 11.4417C8.3436 13.5222 7.65856 15.8564 7.65856 18.4443C7.65856 21.9964 8.77498 24.8381 10.7032 26.8171C12.6315 28.7961 15.2701 30.3692 18.9237 31.6885L27.5248 34.7331C31.3814 36.1032 33.9947 37.7017 35.3648 39.5284C36.7348 41.3045 37.0637 43.3342 37.0637 45.6177C37.0637 48.3579 36.1541 50.1361 34.2766 51.9629C32.3991 53.7897 29.6053 55.2083 25.2413 55.2083C22.0445 55.2083 18.9745 54.2188 16.0313 52.2398C13.0882 50.21 9.30797 46.4639 7.3797 42.2522L10.5511 39.8803C11.8705 43.2801 15.0672 46.8102 17.5536 48.7385C20.0401 50.616 22.6026 51.5548 25.2413 51.5548C28.1845 51.5548 30.0431 50.8141 31.4132 49.7485C32.7832 48.6829 33.2335 47.4445 33.2335 45.6177C33.2335 43.9939 33.2081 42.5984 32.0918 41.4313C30.9754 40.2135 29.0471 39.1225 26.307 38.1584L17.7059 35.1137ZM22.6534 26.8171C19.355 25.7007 17.0462 24.356 15.7268 22.7829C14.4075 21.2099 13.7478 19.51 13.7478 17.6832C13.7478 16.1101 14.103 14.6385 14.8134 13.2684C15.5746 11.8984 16.8178 10.782 18.5431 9.91934C20.3192 9.05669 22.6788 8.62537 25.6219 8.62537C28.6158 8.62537 31.3266 9.16894 33.7115 10.6913C36.0965 12.2136 38.1846 14.258 39.5172 17.2159L36.4796 19.5281C35.5662 17.0924 34.2113 15.3751 32.2831 14.0557C30.3548 12.7364 28.0069 12.2789 25.6219 12.2789C22.6788 12.2789 20.5729 12.8117 19.3043 13.8774C18.0357 14.8923 17.7059 16.1609 17.7059 17.6832C17.7059 20.0174 19.5326 21.8949 23.7951 23.3157L33.2335 26.4365C37.7497 27.9081 41.3272 30.0647 43.9659 32.9064C46.6553 35.748 48 39.4777 48 44.0954C48 50.2354 46.021 54.98 42.063 58.3291C38.1557 61.6782 32.5738 63.3527 25.3174 63.3527C19.1774 63.3527 14.0777 61.9826 10.0181 59.2425C5.95863 56.5023 2.56093 52.2398 0 47.7484L3.41726 45.1947C5.65 50.2184 9.28236 54.574 12.8344 56.6545C16.3865 58.735 20.5475 59.7753 25.3174 59.7753C31.356 59.7753 36.0244 58.4306 39.3228 55.7411C42.6719 53.0517 44.3464 49.1698 44.3464 44.0954C44.3464 40.3403 43.2047 37.3464 40.9212 35.1137C38.6885 32.881 35.7453 31.1557 32.0918 29.9378L22.6534 26.8171Z" fill="#4395E6"/>
</svg>
