<svg width="87" height="84" viewBox="0 0 87 84" fill="none" xmlns="http://www.w3.org/2000/svg">
<path fill-rule="evenodd" clip-rule="evenodd" d="M38.2242 5.84853C18.0727 9.13603 4.00717 27.7861 6.7858 47.5803C9.57161 67.4257 28.2337 80.9062 48.4687 77.6898C68.7037 74.4734 82.8491 55.7782 80.0633 35.9328C80.0597 35.9071 80.056 35.8814 80.0524 35.8556L43.2575 41.7042L38.2242 5.84853Z" fill="#FFDE67"/>
<ellipse cx="3.05867" cy="3.01229" rx="3.05867" ry="3.01229" transform="matrix(0.999398 0.0180925 -0.04289 0.999532 16.5439 28.2297)" fill="#1C276D"/>
<ellipse cx="3.05867" cy="3.01229" rx="3.05867" ry="3.01229" transform="matrix(0.999398 0.0180925 -0.04289 0.999532 26.7334 28.4141)" fill="#1C276D"/>
<path d="M19.9365 39.2915C21.1517 41.0078 24.5554 43.3395 28.4494 38.9364" stroke="#1C276D"/>
<path d="M16.8706 41.2529C18.0623 41.3589 20.3398 40.7755 19.9166 37.5941" stroke="#1C276D"/>
<path d="M28.9365 37.1445C28.3384 38.1816 27.9284 40.4584 31.0732 41.2694" stroke="#1C276D"/>
<path d="M78.3742 42.419C78.3742 62.2382 62.3075 78.3048 42.4883 78.3048C22.6692 78.3048 6.60254 62.2382 6.60254 42.419C6.60254 22.5998 22.6692 6.5332 42.4883 6.5332C62.3075 6.5332 78.3742 22.5998 78.3742 42.419Z" stroke="#4395E6" stroke-width="4"/>
</svg>
