<svg width="77" height="87" viewBox="0 0 77 87" fill="none" xmlns="http://www.w3.org/2000/svg">
<g filter="url(#filter0_d_535_106)">
<rect x="8.67781" y="1.79207" width="63.5297" height="71.488" fill="#EFF5FF" stroke="#4395E6" stroke-width="1.58413"/>
<path d="M1 11.7085L8.05587 1.02466V73.3695H72.7858V83.5853H7.73256C4.01427 83.5853 1 80.571 1 76.8527V11.7085Z" fill="#4395E6" stroke="#4395E6" stroke-width="0.396033"/>
<path d="M33.4189 29.6111H37.2969V30.9798H33.4189V29.6111ZM35.0791 33.92L36.5619 32.1457V39.3821H35.0791V33.92ZM36.4985 32.602C36.8914 32.8934 38.1333 34.0974 38.4375 34.3889L37.4997 35.6562C37.0688 35.0098 36.131 33.8819 35.6494 33.3497L36.4985 32.602ZM36.8407 29.6111H37.1448L37.411 29.5604L38.2094 30.1434C37.2969 32.5006 35.4466 34.693 33.6217 35.8336C33.533 35.4027 33.2415 34.5663 33.0514 34.2748C34.6609 33.3877 36.207 31.6261 36.8407 29.8899V29.6111ZM34.6229 28.065L35.8141 27.4187C36.2704 27.9129 36.752 28.5846 36.9674 29.0408L35.7254 29.7759C35.5227 29.307 35.0538 28.5719 34.6229 28.065ZM37.7785 37.4938H45.1288V38.9892H37.7785V37.4938ZM38.3361 31.2966H44.8247V32.754H38.3361V31.2966ZM40.8454 27.5708H42.4041V38.2161H40.8454V27.5708ZM36.0423 50.095V51.6919H42.2647V50.095H36.0423ZM34.775 49.1572H43.6207V52.617H34.775V49.1572ZM36.9547 47.7252H41.4283V48.7137H36.9547V47.7252ZM38.5135 49.4741H39.7428V52.1481H38.5135V49.4741ZM36.4858 50.3739L37.5377 50.0824C37.7658 50.5133 37.9686 51.0709 38.0446 51.4511L36.9294 51.7806C36.8787 51.4004 36.7013 50.8047 36.4858 50.3739ZM40.6806 50.0317L41.9352 50.3358C41.6691 50.8808 41.403 51.413 41.2002 51.7679L40.161 51.4891C40.3511 51.0709 40.5792 50.4499 40.6806 50.0317ZM35.472 53.0352H42.9744V57.344H41.4156V54.0237H36.9674V57.3947H35.472V53.0352ZM36.3337 54.5306H42.062V55.5318H36.3337V54.5306ZM36.3337 56.0514H42.062V57.0399H36.3337V56.0514ZM38.9317 45.3807L40.2751 45.8749C38.8684 47.6618 36.4478 48.9165 33.9766 49.6642C33.8245 49.36 33.4316 48.7517 33.1782 48.4856C35.5227 47.9153 37.7785 46.8507 38.9317 45.3807ZM39.9329 45.9636C41.0608 47.0535 43.2532 47.966 45.3696 48.3969C45.0528 48.663 44.6219 49.2079 44.4065 49.5501C42.2774 49.0052 40.1103 47.8392 38.805 46.4199L39.9329 45.9636Z" fill="#276BC6"/>
<path d="M15.2241 12.0998C14.5113 12.0998 13.8127 11.8289 13.2994 11.337L13.9053 10.6099C14.276 10.9592 14.7821 11.1873 15.2455 11.1873C15.7944 11.1873 16.0796 10.9521 16.0796 10.5885C16.0796 10.1965 15.7588 10.0682 15.2883 9.86855L14.5825 9.56915C14.055 9.35529 13.5133 8.92045 13.5133 8.15769C13.5133 7.29513 14.276 6.63217 15.3382 6.63217C15.9512 6.63217 16.5643 6.87454 16.992 7.30939L16.4645 7.97235C16.1223 7.69433 15.773 7.5375 15.3382 7.5375C14.8748 7.5375 14.5825 7.74423 14.5825 8.0864C14.5825 8.46422 14.9604 8.60679 15.4095 8.785L16.1009 9.07015C16.7354 9.33391 17.156 9.74736 17.156 10.503C17.156 11.3656 16.436 12.0998 15.2241 12.0998ZM19.6797 12.0998C18.6745 12.0998 17.7621 11.3299 17.7621 10.0111C17.7621 8.6852 18.6745 7.91532 19.6797 7.91532C20.6777 7.91532 21.5901 8.6852 21.5901 10.0111C21.5901 11.3299 20.6777 12.0998 19.6797 12.0998ZM19.6797 11.2515C20.2214 11.2515 20.5208 10.7596 20.5208 10.0111C20.5208 9.25549 20.2214 8.77075 19.6797 8.77075C19.1308 8.77075 18.8314 9.25549 18.8314 10.0111C18.8314 10.7596 19.1308 11.2515 19.6797 11.2515ZM24.1634 12.0998C23.0656 12.0998 22.2244 11.3299 22.2244 10.0111C22.2244 8.6852 23.1725 7.91532 24.256 7.91532C24.755 7.91532 25.1257 8.10066 25.418 8.35729L24.9261 9.02738C24.7265 8.85629 24.5341 8.77075 24.3202 8.77075C23.7 8.77075 23.2937 9.25549 23.2937 10.0111C23.2937 10.7596 23.7071 11.2515 24.2774 11.2515C24.5697 11.2515 24.8406 11.1089 25.0616 10.9307L25.475 11.6222C25.0972 11.9501 24.6053 12.0998 24.1634 12.0998ZM26.2331 12V8.01512H27.281V12H26.2331ZM26.7535 7.36642C26.3899 7.36642 26.1476 7.1383 26.1476 6.789C26.1476 6.44683 26.3899 6.22584 26.7535 6.22584C27.1171 6.22584 27.3666 6.44683 27.3666 6.789C27.3666 7.1383 27.1171 7.36642 26.7535 7.36642ZM29.3748 12.0998C28.6619 12.0998 28.1985 11.6008 28.1985 10.9165C28.1985 10.0682 28.89 9.61905 30.494 9.44084C30.4726 9.04876 30.3086 8.75649 29.8167 8.75649C29.4461 8.75649 29.0825 8.91332 28.7189 9.13431L28.3411 8.4357C28.8116 8.15056 29.3748 7.91532 30.0092 7.91532C31.0215 7.91532 31.5419 8.51412 31.5419 9.67608V12H30.6864L30.608 11.5794H30.5795C30.2302 11.8788 29.831 12.0998 29.3748 12.0998ZM29.7169 11.28C30.0163 11.28 30.2373 11.1446 30.494 10.8951V10.0895C29.5173 10.2107 29.1965 10.4745 29.1965 10.838C29.1965 11.1446 29.4104 11.28 29.7169 11.28ZM33.5936 12.0998C32.8594 12.0998 32.6099 11.6222 32.6099 10.8808V6.31851H33.6578V10.9236C33.6578 11.1731 33.7647 11.2515 33.8645 11.2515C33.9001 11.2515 33.9287 11.2515 33.9999 11.2372L34.1283 12.0143C34.0071 12.057 33.8431 12.0998 33.5936 12.0998ZM38.1345 12.0998C37.4216 12.0998 36.723 11.8289 36.2097 11.337L36.8157 10.6099C37.1864 10.9592 37.6925 11.1873 38.1559 11.1873C38.7048 11.1873 38.9899 10.9521 38.9899 10.5885C38.9899 10.1965 38.6691 10.0682 38.1986 9.86855L37.4929 9.56915C36.9654 9.35529 36.4236 8.92045 36.4236 8.15769C36.4236 7.29513 37.1864 6.63217 38.2485 6.63217C38.8616 6.63217 39.4746 6.87454 39.9024 7.30939L39.3748 7.97235C39.0327 7.69433 38.6834 7.5375 38.2485 7.5375C37.7852 7.5375 37.4929 7.74423 37.4929 8.0864C37.4929 8.46422 37.8707 8.60679 38.3198 8.785L39.0113 9.07015C39.6457 9.33391 40.0663 9.74736 40.0663 10.503C40.0663 11.3656 39.3463 12.0998 38.1345 12.0998ZM42.6114 12.0998C41.5136 12.0998 40.6724 11.3299 40.6724 10.0111C40.6724 8.6852 41.6205 7.91532 42.7041 7.91532C43.2031 7.91532 43.5738 8.10066 43.866 8.35729L43.3741 9.02738C43.1745 8.85629 42.9821 8.77075 42.7682 8.77075C42.148 8.77075 41.7417 9.25549 41.7417 10.0111C41.7417 10.7596 42.1552 11.2515 42.7254 11.2515C43.0177 11.2515 43.2886 11.1089 43.5096 10.9307L43.9231 11.6222C43.5452 11.9501 43.0534 12.0998 42.6114 12.0998ZM44.6811 12V8.01512H45.729V12H44.6811ZM45.2015 7.36642C44.838 7.36642 44.5956 7.1383 44.5956 6.789C44.5956 6.44683 44.838 6.22584 45.2015 6.22584C45.5651 6.22584 45.8146 6.44683 45.8146 6.789C45.8146 7.1383 45.5651 7.36642 45.2015 7.36642ZM48.5855 12.0998C47.4664 12.0998 46.5967 11.3299 46.5967 10.0111C46.5967 8.71372 47.5091 7.91532 48.4501 7.91532C49.555 7.91532 50.1182 8.71372 50.1182 9.81865C50.1182 10.0183 50.0968 10.2036 50.0754 10.3034H47.6089C47.7016 10.9592 48.1293 11.2943 48.721 11.2943C49.0418 11.2943 49.3269 11.1945 49.6192 11.0163L49.9685 11.665C49.5764 11.9358 49.0774 12.0998 48.5855 12.0998ZM47.5947 9.60479H49.2271C49.2271 9.06302 48.9847 8.72085 48.4715 8.72085C48.0509 8.72085 47.6802 9.02025 47.5947 9.60479ZM50.9883 12V8.01512H51.8366L51.9221 8.54263H51.9435C52.2857 8.20046 52.6991 7.91532 53.2409 7.91532C54.0963 7.91532 54.4741 8.51412 54.4741 9.51212V12H53.4262V9.64756C53.4262 9.02025 53.248 8.81352 52.8631 8.81352C52.5352 8.81352 52.3284 8.97035 52.0362 9.25549V12H50.9883ZM57.2445 12.0998C56.1467 12.0998 55.3055 11.3299 55.3055 10.0111C55.3055 8.6852 56.2536 7.91532 57.3372 7.91532C57.8362 7.91532 58.2069 8.10066 58.4991 8.35729L58.0073 9.02738C57.8077 8.85629 57.6152 8.77075 57.4013 8.77075C56.7811 8.77075 56.3748 9.25549 56.3748 10.0111C56.3748 10.7596 56.7883 11.2515 57.3586 11.2515C57.6508 11.2515 57.9217 11.1089 58.1427 10.9307L58.5562 11.6222C58.1783 11.9501 57.6865 12.0998 57.2445 12.0998ZM60.803 12.0998C59.6838 12.0998 58.8141 11.3299 58.8141 10.0111C58.8141 8.71372 59.7266 7.91532 60.6676 7.91532C61.7725 7.91532 62.3356 8.71372 62.3356 9.81865C62.3356 10.0183 62.3143 10.2036 62.2929 10.3034H59.8264C59.9191 10.9592 60.3468 11.2943 60.9384 11.2943C61.2592 11.2943 61.5444 11.1945 61.8366 11.0163L62.1859 11.665C61.7939 11.9358 61.2949 12.0998 60.803 12.0998ZM59.8121 9.60479H61.4446C61.4446 9.06302 61.2022 8.72085 60.6889 8.72085C60.2684 8.72085 59.8977 9.02025 59.8121 9.60479Z" fill="#276BC6"/>
<path d="M7.88574 74.2001C5.80787 74.2001 4.12343 75.8845 4.12343 77.9624C4.12343 80.0403 5.80787 81.7247 7.88574 81.7247V74.2001ZM7.88574 77.9624C7.88574 81.7247 7.88589 81.7247 7.8862 81.7247C7.8865 81.7247 7.88695 81.7247 7.88756 81.7247C7.88816 81.7247 7.88891 81.7247 7.88982 81.7247C7.89072 81.7247 7.89178 81.7247 7.89298 81.7247C7.89419 81.7247 7.89554 81.7247 7.89705 81.7247C7.89855 81.7247 7.9002 81.7247 7.90201 81.7247C7.90381 81.7247 7.90576 81.7247 7.90786 81.7247C7.90996 81.7247 7.91221 81.7247 7.9146 81.7247C7.917 81.7247 7.91954 81.7247 7.92224 81.7247C7.92493 81.7247 7.92777 81.7247 7.93076 81.7247C7.93374 81.7247 7.93688 81.7247 7.94016 81.7247C7.94344 81.7247 7.94687 81.7247 7.95045 81.7247C7.95402 81.7247 7.95774 81.7247 7.96161 81.7247C7.96548 81.7247 7.9695 81.7247 7.97366 81.7247C7.97782 81.7247 7.98212 81.7247 7.98657 81.7247C7.99102 81.7247 7.99562 81.7247 8.00036 81.7247C8.0051 81.7247 8.00999 81.7247 8.01502 81.7247C8.02005 81.7247 8.02523 81.7247 8.03055 81.7247C8.03587 81.7247 8.04133 81.7247 8.04694 81.7247C8.05255 81.7247 8.0583 81.7247 8.06419 81.7247C8.07009 81.7247 8.07612 81.7247 8.08231 81.7247C8.08849 81.7247 8.09481 81.7247 8.10128 81.7247C8.10774 81.7247 8.11435 81.7247 8.1211 81.7247C8.12786 81.7247 8.13475 81.7247 8.14178 81.7247C8.14882 81.7247 8.156 81.7247 8.16331 81.7247C8.17063 81.7247 8.17809 81.7247 8.18569 81.7247C8.19329 81.7247 8.20103 81.7247 8.20892 81.7247C8.2168 81.7247 8.22482 81.7247 8.23298 81.7247C8.24115 81.7247 8.24945 81.7247 8.25789 81.7247C8.26633 81.7247 8.27492 81.7247 8.28364 81.7247C8.29236 81.7247 8.30122 81.7247 8.31022 81.7247C8.31922 81.7247 8.32836 81.7247 8.33764 81.7247C8.34691 81.7247 8.35633 81.7247 8.36588 81.7247C8.37544 81.7247 8.38513 81.7247 8.39496 81.7247C8.40479 81.7247 8.41475 81.7247 8.42486 81.7247C8.43496 81.7247 8.44521 81.7247 8.45559 81.7247C8.46596 81.7247 8.47648 81.7247 8.48713 81.7247C8.49779 81.7247 8.50857 81.7247 8.5195 81.7247C8.53042 81.7247 8.54149 81.7247 8.55268 81.7247C8.56388 81.7247 8.57521 81.7247 8.58668 81.7247C8.59815 81.7247 8.60975 81.7247 8.62149 81.7247C8.63323 81.7247 8.6451 81.7247 8.65711 81.7247C8.66912 81.7247 8.68126 81.7247 8.69353 81.7247C8.70581 81.7247 8.71822 81.7247 8.73077 81.7247C8.74331 81.7247 8.75599 81.7247 8.7688 81.7247C8.78161 81.7247 8.79455 81.7247 8.80763 81.7247C8.82071 81.7247 8.83392 81.7247 8.84726 81.7247C8.8606 81.7247 8.87408 81.7247 8.88769 81.7247C8.90129 81.7247 8.91503 81.7247 8.9289 81.7247C8.94277 81.7247 8.95678 81.7247 8.97091 81.7247C8.98504 81.7247 8.99931 81.7247 9.01371 81.7247C9.0281 81.7247 9.04263 81.7247 9.05729 81.7247C9.07194 81.7247 9.08673 81.7247 9.10165 81.7247C9.11657 81.7247 9.13162 81.7247 9.1468 81.7247C9.16197 81.7247 9.17728 81.7247 9.19272 81.7247C9.20815 81.7247 9.22372 81.7247 9.23942 81.7247C9.25511 81.7247 9.27093 81.7247 9.28689 81.7247C9.30284 81.7247 9.31892 81.7247 9.33513 81.7247C9.35134 81.7247 9.36768 81.7247 9.38414 81.7247C9.4006 81.7247 9.4172 81.7247 9.43392 81.7247C9.45064 81.7247 9.46748 81.7247 9.48446 81.7247C9.50143 81.7247 9.51853 81.7247 9.53576 81.7247C9.55299 81.7247 9.57034 81.7247 9.58782 81.7247C9.6053 81.7247 9.6229 81.7247 9.64064 81.7247C9.65837 81.7247 9.67622 81.7247 9.69421 81.7247C9.71219 81.7247 9.7303 81.7247 9.74853 81.7247C9.76676 81.7247 9.78512 81.7247 9.8036 81.7247C9.82208 81.7247 9.84069 81.7247 9.85942 81.7247C9.87815 81.7247 9.897 81.7247 9.91598 81.7247C9.93496 81.7247 9.95406 81.7247 9.97329 81.7247C9.99251 81.7247 10.0119 81.7247 10.0313 81.7247C10.0508 81.7247 10.0704 81.7247 10.0901 81.7247C10.1098 81.7247 10.1297 81.7247 10.1496 81.7247C10.1696 81.7247 10.1897 81.7247 10.2099 81.7247C10.2301 81.7247 10.2504 81.7247 10.2709 81.7247C10.2913 81.7247 10.3119 81.7247 10.3326 81.7247C10.3532 81.7247 10.3741 81.7247 10.395 81.7247C10.4159 81.7247 10.437 81.7247 10.4581 81.7247C10.4793 81.7247 10.5006 81.7247 10.522 81.7247C10.5434 81.7247 10.565 81.7247 10.5866 81.7247C10.6083 81.7247 10.63 81.7247 10.6519 81.7247C10.6738 81.7247 10.6958 81.7247 10.7179 81.7247C10.7401 81.7247 10.7623 81.7247 10.7847 81.7247C10.807 81.7247 10.8295 81.7247 10.8521 81.7247C10.8747 81.7247 10.8974 81.7247 10.9202 81.7247C10.9431 81.7247 10.966 81.7247 10.9891 81.7247C11.0122 81.7247 11.0353 81.7247 11.0586 81.7247C11.0819 81.7247 11.1054 81.7247 11.1289 81.7247C11.1524 81.7247 11.1761 81.7247 11.1998 81.7247C11.2236 81.7247 11.2475 81.7247 11.2715 81.7247C11.2955 81.7247 11.3196 81.7247 11.3438 81.7247C11.368 81.7247 11.3924 81.7247 11.4168 81.7247C11.4413 81.7247 11.4658 81.7247 11.4905 81.7247C11.5152 81.7247 11.54 81.7247 11.5649 81.7247C11.5898 81.7247 11.6148 81.7247 11.64 81.7247C11.6651 81.7247 11.6904 81.7247 11.7157 81.7247C11.7411 81.7247 11.7666 81.7247 11.7922 81.7247C11.8177 81.7247 11.8434 81.7247 11.8693 81.7247C11.8951 81.7247 11.921 81.7247 11.947 81.7247C11.9731 81.7247 11.9992 81.7247 12.0255 81.7247C12.0517 81.7247 12.0781 81.7247 12.1046 81.7247C12.1311 81.7247 12.1576 81.7247 12.1843 81.7247C12.2111 81.7247 12.2379 81.7247 12.2648 81.7247C12.2917 81.7247 12.3187 81.7247 12.3459 81.7247C12.373 81.7247 12.4003 81.7247 12.4276 81.7247C12.455 81.7247 12.4825 81.7247 12.51 81.7247C12.5376 81.7247 12.5653 81.7247 12.5931 81.7247C12.6209 81.7247 12.6488 81.7247 12.6768 81.7247C12.7048 81.7247 12.7329 81.7247 12.7612 81.7247C12.7894 81.7247 12.8177 81.7247 12.8462 81.7247C12.8746 81.7247 12.9032 81.7247 12.9318 81.7247C12.9605 81.7247 12.9892 81.7247 13.0181 81.7247C13.047 81.7247 13.076 81.7247 13.105 81.7247C13.1341 81.7247 13.1633 81.7247 13.1926 81.7247C13.2219 81.7247 13.2513 81.7247 13.2808 81.7247C13.3103 81.7247 13.3399 81.7247 13.3696 81.7247C13.3993 81.7247 13.4292 81.7247 13.4591 81.7247C13.489 81.7247 13.519 81.7247 13.5492 81.7247C13.5793 81.7247 13.6095 81.7247 13.6399 81.7247C13.6702 81.7247 13.7007 81.7247 13.7312 81.7247C13.7617 81.7247 13.7924 81.7247 13.8231 81.7247C13.8539 81.7247 13.8848 81.7247 13.9157 81.7247C13.9467 81.7247 13.9777 81.7247 14.0089 81.7247C14.04 81.7247 14.0713 81.7247 14.1027 81.7247C14.134 81.7247 14.1655 81.7247 14.1971 81.7247C14.2286 81.7247 14.2603 81.7247 14.2921 81.7247C14.3238 81.7247 14.3557 81.7247 14.3877 81.7247C14.4197 81.7247 14.4517 81.7247 14.4839 81.7247C14.5161 81.7247 14.5483 81.7247 14.5807 81.7247C14.6131 81.7247 14.6455 81.7247 14.6781 81.7247C14.7107 81.7247 14.7434 81.7247 14.7761 81.7247C14.8089 81.7247 14.8417 81.7247 14.8747 81.7247C14.9077 81.7247 14.9407 81.7247 14.9739 81.7247C15.0071 81.7247 15.0403 81.7247 15.0737 81.7247C15.107 81.7247 15.1405 81.7247 15.174 81.7247C15.2076 81.7247 15.2412 81.7247 15.275 81.7247C15.3087 81.7247 15.3426 81.7247 15.3765 81.7247C15.4104 81.7247 15.4445 81.7247 15.4786 81.7247C15.5127 81.7247 15.5469 81.7247 15.5813 81.7247C15.6156 81.7247 15.65 81.7247 15.6845 81.7247C15.719 81.7247 15.7536 81.7247 15.7883 81.7247C15.823 81.7247 15.8578 81.7247 15.8927 81.7247C15.9276 81.7247 15.9626 81.7247 15.9977 81.7247C16.0328 81.7247 16.0679 81.7247 16.1032 81.7247C16.1385 81.7247 16.1738 81.7247 16.2093 81.7247C16.2447 81.7247 16.2803 81.7247 16.3159 81.7247C16.3515 81.7247 16.3873 81.7247 16.4231 81.7247C16.4589 81.7247 16.4948 81.7247 16.5308 81.7247C16.5668 81.7247 16.6029 81.7247 16.6391 81.7247C16.6753 81.7247 16.7116 81.7247 16.748 81.7247C16.7844 81.7247 16.8208 81.7247 16.8574 81.7247C16.8939 81.7247 16.9306 81.7247 16.9673 81.7247C17.0041 81.7247 17.0409 81.7247 17.0778 81.7247C17.1147 81.7247 17.1517 81.7247 17.1888 81.7247C17.2259 81.7247 17.2631 81.7247 17.3004 81.7247C17.3376 81.7247 17.375 81.7247 17.4125 81.7247C17.4499 81.7247 17.4875 81.7247 17.5251 81.7247C17.5627 81.7247 17.6004 81.7247 17.6382 81.7247C17.676 81.7247 17.7139 81.7247 17.7519 81.7247C17.7899 81.7247 17.828 81.7247 17.8661 81.7247C17.9043 81.7247 17.9425 81.7247 17.9808 81.7247C18.0192 81.7247 18.0576 81.7247 18.0961 81.7247C18.1346 81.7247 18.1732 81.7247 18.2119 81.7247C18.2505 81.7247 18.2893 81.7247 18.3281 81.7247C18.367 81.7247 18.4059 81.7247 18.4449 81.7247C18.4839 81.7247 18.523 81.7247 18.5622 81.7247C18.6014 81.7247 18.6407 81.7247 18.68 81.7247C18.7194 81.7247 18.7588 81.7247 18.7984 81.7247C18.8379 81.7247 18.8775 81.7247 18.9172 81.7247C18.9569 81.7247 18.9966 81.7247 19.0365 81.7247C19.0764 81.7247 19.1163 81.7247 19.1563 81.7247C19.1963 81.7247 19.2365 81.7247 19.2766 81.7247C19.3168 81.7247 19.3571 81.7247 19.3974 81.7247C19.4378 81.7247 19.4782 81.7247 19.5187 81.7247C19.5593 81.7247 19.5999 81.7247 19.6405 81.7247C19.6812 81.7247 19.722 81.7247 19.7628 81.7247C19.8037 81.7247 19.8446 81.7247 19.8856 81.7247C19.9266 81.7247 19.9677 81.7247 20.0088 81.7247C20.05 81.7247 20.0912 81.7247 20.1325 81.7247C20.1738 81.7247 20.2152 81.7247 20.2567 81.7247C20.2982 81.7247 20.3398 81.7247 20.3814 81.7247C20.423 81.7247 20.4647 81.7247 20.5065 81.7247C20.5483 81.7247 20.5902 81.7247 20.6322 81.7247C20.6741 81.7247 20.7161 81.7247 20.7582 81.7247C20.8003 81.7247 20.8425 81.7247 20.8848 81.7247C20.927 81.7247 20.9694 81.7247 21.0118 81.7247C21.0542 81.7247 21.0967 81.7247 21.1392 81.7247C21.1818 81.7247 21.2245 81.7247 21.2672 81.7247C21.3099 81.7247 21.3527 81.7247 21.3955 81.7247C21.4384 81.7247 21.4814 81.7247 21.5244 81.7247C21.5674 81.7247 21.6105 81.7247 21.6537 81.7247C21.6968 81.7247 21.7401 81.7247 21.7834 81.7247C21.8267 81.7247 21.8701 81.7247 21.9136 81.7247C21.957 81.7247 22.0006 81.7247 22.0442 81.7247C22.0878 81.7247 22.1315 81.7247 22.1752 81.7247C22.219 81.7247 22.2628 81.7247 22.3067 81.7247C22.3506 81.7247 22.3946 81.7247 22.4387 81.7247C22.4827 81.7247 22.5268 81.7247 22.571 81.7247C22.6152 81.7247 22.6595 81.7247 22.7038 81.7247C22.7482 81.7247 22.7926 81.7247 22.837 81.7247C22.8815 81.7247 22.9261 81.7247 22.9707 81.7247C23.0153 81.7247 23.06 81.7247 23.1048 81.7247C23.1495 81.7247 23.1944 81.7247 23.2393 81.7247C23.2842 81.7247 23.3291 81.7247 23.3742 81.7247C23.4192 81.7247 23.4643 81.7247 23.5095 81.7247C23.5547 81.7247 23.5999 81.7247 23.6452 81.7247C23.6906 81.7247 23.7359 81.7247 23.7814 81.7247C23.8269 81.7247 23.8724 81.7247 23.918 81.7247C23.9636 81.7247 24.0092 81.7247 24.0549 81.7247C24.1007 81.7247 24.1465 81.7247 24.1923 81.7247C24.2382 81.7247 24.2841 81.7247 24.3301 81.7247C24.3761 81.7247 24.4221 81.7247 24.4683 81.7247C24.5144 81.7247 24.5606 81.7247 24.6068 81.7247C24.6531 81.7247 24.6994 81.7247 24.7458 81.7247C24.7922 81.7247 24.8387 81.7247 24.8852 81.7247C24.9317 81.7247 24.9783 81.7247 25.0249 81.7247C25.0716 81.7247 25.1183 81.7247 25.1651 81.7247C25.2118 81.7247 25.2587 81.7247 25.3056 81.7247C25.3525 81.7247 25.3995 81.7247 25.4465 81.7247C25.4935 81.7247 25.5406 81.7247 25.5878 81.7247C25.6349 81.7247 25.6822 81.7247 25.7294 81.7247C25.7767 81.7247 25.8241 81.7247 25.8715 81.7247C25.9189 81.7247 25.9664 81.7247 26.0139 81.7247C26.0614 81.7247 26.109 81.7247 26.1567 81.7247C26.2043 81.7247 26.252 81.7247 26.2998 81.7247C26.3476 81.7247 26.3954 81.7247 26.4433 81.7247C26.4912 81.7247 26.5392 81.7247 26.5872 81.7247C26.6352 81.7247 26.6833 81.7247 26.7315 81.7247C26.7796 81.7247 26.8278 81.7247 26.8761 81.7247C26.9243 81.7247 26.9726 81.7247 27.021 81.7247C27.0694 81.7247 27.1178 81.7247 27.1663 81.7247C27.2148 81.7247 27.2634 81.7247 27.312 81.7247C27.3606 81.7247 27.4093 81.7247 27.458 81.7247C27.5067 81.7247 27.5555 81.7247 27.6044 81.7247C27.6532 81.7247 27.7021 81.7247 27.7511 81.7247C27.8 81.7247 27.849 81.7247 27.8981 81.7247C27.9472 81.7247 27.9963 81.7247 28.0455 81.7247C28.0947 81.7247 28.1439 81.7247 28.1932 81.7247C28.2425 81.7247 28.2918 81.7247 28.3413 81.7247C28.3907 81.7247 28.4401 81.7247 28.4896 81.7247C28.5392 81.7247 28.5887 81.7247 28.6384 81.7247C28.688 81.7247 28.7377 81.7247 28.7874 81.7247C28.8371 81.7247 28.8869 81.7247 28.9368 81.7247C28.9866 81.7247 29.0365 81.7247 29.0864 81.7247C29.1364 81.7247 29.1864 81.7247 29.2365 81.7247C29.2865 81.7247 29.3366 81.7247 29.3868 81.7247C29.4369 81.7247 29.4872 81.7247 29.5374 81.7247C29.5877 81.7247 29.638 81.7247 29.6884 81.7247C29.7387 81.7247 29.7892 81.7247 29.8396 81.7247C29.8901 81.7247 29.9406 81.7247 29.9912 81.7247C30.0418 81.7247 30.0924 81.7247 30.1431 81.7247C30.1938 81.7247 30.2445 81.7247 30.2953 81.7247C30.346 81.7247 30.3969 81.7247 30.4478 81.7247C30.4986 81.7247 30.5496 81.7247 30.6005 81.7247C30.6515 81.7247 30.7025 81.7247 30.7536 81.7247C30.8047 81.7247 30.8558 81.7247 30.907 81.7247C30.9581 81.7247 31.0094 81.7247 31.0606 81.7247C31.1119 81.7247 31.1632 81.7247 31.2146 81.7247C31.2659 81.7247 31.3174 81.7247 31.3688 81.7247C31.4203 81.7247 31.4718 81.7247 31.5233 81.7247C31.5749 81.7247 31.6265 81.7247 31.6781 81.7247C31.7298 81.7247 31.7815 81.7247 31.8332 81.7247C31.885 81.7247 31.9367 81.7247 31.9886 81.7247C32.0404 81.7247 32.0923 81.7247 32.1442 81.7247C32.1961 81.7247 32.2481 81.7247 32.3001 81.7247C32.3521 81.7247 32.4042 81.7247 32.4563 81.7247C32.5084 81.7247 32.5605 81.7247 32.6127 81.7247C32.6649 81.7247 32.7171 81.7247 32.7694 81.7247C32.8217 81.7247 32.874 81.7247 32.9264 81.7247C32.9787 81.7247 33.0311 81.7247 33.0836 81.7247C33.136 81.7247 33.1885 81.7247 33.2411 81.7247C33.2936 81.7247 33.3462 81.7247 33.3988 81.7247C33.4514 81.7247 33.5041 81.7247 33.5568 81.7247C33.6095 81.7247 33.6622 81.7247 33.715 81.7247C33.7678 81.7247 33.8206 81.7247 33.8735 81.7247C33.9264 81.7247 33.9793 81.7247 34.0322 81.7247C34.0852 81.7247 34.1382 81.7247 34.1912 81.7247C34.2443 81.7247 34.2973 81.7247 34.3504 81.7247C34.4035 81.7247 34.4567 81.7247 34.5099 81.7247C34.5631 81.7247 34.6163 81.7247 34.6696 81.7247C34.7228 81.7247 34.7761 81.7247 34.8295 81.7247C34.8828 81.7247 34.9362 81.7247 34.9896 81.7247C35.0431 81.7247 35.0965 81.7247 35.15 81.7247C35.2035 81.7247 35.2571 81.7247 35.3106 81.7247C35.3642 81.7247 35.4178 81.7247 35.4715 81.7247C35.5251 81.7247 35.5788 81.7247 35.6325 81.7247C35.6862 81.7247 35.74 81.7247 35.7938 81.7247C35.8476 81.7247 35.9014 81.7247 35.9553 81.7247C36.0091 81.7247 36.063 81.7247 36.117 81.7247C36.1709 81.7247 36.2249 81.7247 36.2789 81.7247C36.3329 81.7247 36.3869 81.7247 36.441 81.7247C36.4951 81.7247 36.5492 81.7247 36.6033 81.7247C36.6575 81.7247 36.7116 81.7247 36.7658 81.7247C36.8201 81.7247 36.8743 81.7247 36.9286 81.7247C36.9829 81.7247 37.0372 81.7247 37.0915 81.7247C37.1459 81.7247 37.2002 81.7247 37.2546 81.7247C37.309 81.7247 37.3635 81.7247 37.418 81.7247C37.4724 81.7247 37.5269 81.7247 37.5815 81.7247C37.636 81.7247 37.6906 81.7247 37.7452 81.7247C37.7998 81.7247 37.8544 81.7247 37.9091 81.7247C37.9637 81.7247 38.0184 81.7247 38.0731 81.7247C38.1279 81.7247 38.1826 81.7247 38.2374 81.7247C38.2922 81.7247 38.347 81.7247 38.4018 81.7247C38.4567 81.7247 38.5116 81.7247 38.5665 81.7247C38.6214 81.7247 38.6763 81.7247 38.7313 81.7247C38.7862 81.7247 38.8412 81.7247 38.8962 81.7247C38.9512 81.7247 39.0063 81.7247 39.0614 81.7247C39.1164 81.7247 39.1715 81.7247 39.2267 81.7247C39.2818 81.7247 39.3369 81.7247 39.3921 81.7247C39.4473 81.7247 39.5025 81.7247 39.5578 81.7247C39.613 81.7247 39.6683 81.7247 39.7235 81.7247C39.7788 81.7247 39.8342 81.7247 39.8895 81.7247C39.9448 81.7247 40.0002 81.7247 40.0556 81.7247C40.111 81.7247 40.1664 81.7247 40.2219 81.7247C40.2773 81.7247 40.3328 81.7247 40.3883 81.7247C40.4438 81.7247 40.4993 81.7247 40.5548 81.7247C40.6104 81.7247 40.666 81.7247 40.7215 81.7247C40.7771 81.7247 40.8328 81.7247 40.8884 81.7247C40.944 81.7247 40.9997 81.7247 41.0554 81.7247C41.1111 81.7247 41.1668 81.7247 41.2225 81.7247C41.2783 81.7247 41.334 81.7247 41.3898 81.7247C41.4456 81.7247 41.5014 81.7247 41.5572 81.7247C41.613 81.7247 41.6689 81.7247 41.7247 81.7247C41.7806 81.7247 41.8365 81.7247 41.8924 81.7247C41.9483 81.7247 42.0042 81.7247 42.0602 81.7247C42.1161 81.7247 42.1721 81.7247 42.2281 81.7247C42.2841 81.7247 42.3401 81.7247 42.3961 81.7247C42.4522 81.7247 42.5082 81.7247 42.5643 81.7247C42.6204 81.7247 42.6765 81.7247 42.7326 81.7247C42.7887 81.7247 42.8448 81.7247 42.901 81.7247C42.9571 81.7247 43.0133 81.7247 43.0695 81.7247C43.1256 81.7247 43.1819 81.7247 43.2381 81.7247C43.2943 81.7247 43.3505 81.7247 43.4068 81.7247C43.4631 81.7247 43.5193 81.7247 43.5756 81.7247C43.6319 81.7247 43.6882 81.7247 43.7445 81.7247C43.8009 81.7247 43.8572 81.7247 43.9136 81.7247C43.9699 81.7247 44.0263 81.7247 44.0827 81.7247C44.1391 81.7247 44.1955 81.7247 44.2519 81.7247C44.3084 81.7247 44.3648 81.7247 44.4212 81.7247C44.4777 81.7247 44.5342 81.7247 44.5907 81.7247C44.6471 81.7247 44.7036 81.7247 44.7601 81.7247C44.8167 81.7247 44.8732 81.7247 44.9297 81.7247C44.9863 81.7247 45.0428 81.7247 45.0994 81.7247C45.156 81.7247 45.2125 81.7247 45.2691 81.7247C45.3257 81.7247 45.3823 81.7247 45.439 81.7247C45.4956 81.7247 45.5522 81.7247 45.6089 81.7247C45.6655 81.7247 45.7222 81.7247 45.7788 81.7247C45.8355 81.7247 45.8922 81.7247 45.9489 81.7247C46.0056 81.7247 46.0623 81.7247 46.119 81.7247C46.1757 81.7247 46.2324 81.7247 46.2892 81.7247C46.3459 81.7247 46.4027 81.7247 46.4594 81.7247C46.5162 81.7247 46.573 81.7247 46.6297 81.7247C46.6865 81.7247 46.7433 81.7247 46.8001 81.7247C46.8569 81.7247 46.9137 81.7247 46.9705 81.7247C47.0274 81.7247 47.0842 81.7247 47.141 81.7247C47.1979 81.7247 47.2547 81.7247 47.3116 81.7247C47.3684 81.7247 47.4253 81.7247 47.4821 81.7247C47.539 81.7247 47.5959 81.7247 47.6528 81.7247C47.7096 81.7247 47.7665 81.7247 47.8234 81.7247C47.8803 81.7247 47.9372 81.7247 47.9942 81.7247C48.0511 81.7247 48.108 81.7247 48.1649 81.7247C48.2218 81.7247 48.2788 81.7247 48.3357 81.7247C48.3926 81.7247 48.4496 81.7247 48.5065 81.7247C48.5635 81.7247 48.6204 81.7247 48.6774 81.7247C48.7344 81.7247 48.7913 81.7247 48.8483 81.7247C48.9053 81.7247 48.9622 81.7247 49.0192 81.7247C49.0762 81.7247 49.1332 81.7247 49.1902 81.7247C49.2472 81.7247 49.3042 81.7247 49.3611 81.7247C49.4181 81.7247 49.4751 81.7247 49.5321 81.7247C49.5891 81.7247 49.6461 81.7247 49.7031 81.7247C49.7602 81.7247 49.8172 81.7247 49.8742 81.7247C49.9312 81.7247 49.9882 81.7247 50.0452 81.7247C50.1022 81.7247 50.1593 81.7247 50.2163 81.7247C50.2733 81.7247 50.3303 81.7247 50.3873 81.7247C50.4444 81.7247 50.5014 81.7247 50.5584 81.7247C50.6154 81.7247 50.6724 81.7247 50.7295 81.7247C50.7865 81.7247 50.8435 81.7247 50.9005 81.7247C50.9576 81.7247 51.0146 81.7247 51.0716 81.7247C51.1286 81.7247 51.1857 81.7247 51.2427 81.7247C51.2997 81.7247 51.3567 81.7247 51.4138 81.7247C51.4708 81.7247 51.5278 81.7247 51.5848 81.7247C51.6418 81.7247 51.6988 81.7247 51.7559 81.7247C51.8129 81.7247 51.8699 81.7247 51.9269 81.7247C51.9839 81.7247 52.0409 81.7247 52.0979 81.7247C52.1549 81.7247 52.2119 81.7247 52.2689 81.7247C52.3259 81.7247 52.3829 81.7247 52.4399 81.7247C52.4969 81.7247 52.5539 81.7247 52.6108 81.7247C52.6678 81.7247 52.7248 81.7247 52.7818 81.7247C52.8387 81.7247 52.8957 81.7247 52.9527 81.7247C53.0096 81.7247 53.0666 81.7247 53.1236 81.7247C53.1805 81.7247 53.2375 81.7247 53.2944 81.7247C53.3513 81.7247 53.4083 81.7247 53.4652 81.7247C53.5221 81.7247 53.5791 81.7247 53.636 81.7247C53.6929 81.7247 53.7498 81.7247 53.8067 81.7247C53.8636 81.7247 53.9205 81.7247 53.9774 81.7247C54.0343 81.7247 54.0912 81.7247 54.148 81.7247C54.2049 81.7247 54.2618 81.7247 54.3186 81.7247C54.3755 81.7247 54.4324 81.7247 54.4892 81.7247C54.546 81.7247 54.6029 81.7247 54.6597 81.7247C54.7165 81.7247 54.7733 81.7247 54.8301 81.7247C54.887 81.7247 54.9437 81.7247 55.0005 81.7247C55.0573 81.7247 55.1141 81.7247 55.1709 81.7247C55.2276 81.7247 55.2844 81.7247 55.3411 81.7247C55.3979 81.7247 55.4546 81.7247 55.5113 81.7247C55.5681 81.7247 55.6248 81.7247 55.6815 81.7247C55.7382 81.7247 55.7949 81.7247 55.8516 81.7247C55.9082 81.7247 55.9649 81.7247 56.0216 81.7247C56.0782 81.7247 56.1349 81.7247 56.1915 81.7247C56.2481 81.7247 56.3047 81.7247 56.3613 81.7247C56.4179 81.7247 56.4745 81.7247 56.5311 81.7247C56.5877 81.7247 56.6443 81.7247 56.7008 81.7247C56.7574 81.7247 56.8139 81.7247 56.8704 81.7247C56.9269 81.7247 56.9835 81.7247 57.0399 81.7247C57.0964 81.7247 57.1529 81.7247 57.2094 81.7247C57.2658 81.7247 57.3223 81.7247 57.3787 81.7247C57.4352 81.7247 57.4916 81.7247 57.548 81.7247C57.6044 81.7247 57.6608 81.7247 57.7172 81.7247C57.7735 81.7247 57.8299 81.7247 57.8862 81.7247C57.9426 81.7247 57.9989 81.7247 58.0552 81.7247C58.1115 81.7247 58.1678 81.7247 58.224 81.7247C58.2803 81.7247 58.3366 81.7247 58.3928 81.7247C58.449 81.7247 58.5053 81.7247 58.5615 81.7247C58.6177 81.7247 58.6738 81.7247 58.73 81.7247C58.7862 81.7247 58.8423 81.7247 58.8984 81.7247C58.9546 81.7247 59.0107 81.7247 59.0667 81.7247C59.1228 81.7247 59.1789 81.7247 59.2349 81.7247C59.291 81.7247 59.347 81.7247 59.403 81.7247C59.459 81.7247 59.515 81.7247 59.571 81.7247C59.6269 81.7247 59.6829 81.7247 59.7388 81.7247C59.7947 81.7247 59.8506 81.7247 59.9065 81.7247C59.9624 81.7247 60.0183 81.7247 60.0741 81.7247C60.1299 81.7247 60.1858 81.7247 60.2416 81.7247C60.2974 81.7247 60.3531 81.7247 60.4089 81.7247C60.4646 81.7247 60.5204 81.7247 60.5761 81.7247C60.6318 81.7247 60.6874 81.7247 60.7431 81.7247C60.7988 81.7247 60.8544 81.7247 60.91 81.7247C60.9656 81.7247 61.0212 81.7247 61.0768 81.7247C61.1323 81.7247 61.1879 81.7247 61.2434 81.7247C61.2989 81.7247 61.3544 81.7247 61.4098 81.7247C61.4653 81.7247 61.5207 81.7247 61.5762 81.7247C61.6316 81.7247 61.687 81.7247 61.7423 81.7247C61.7977 81.7247 61.853 81.7247 61.9083 81.7247C61.9636 81.7247 62.0189 81.7247 62.0742 81.7247C62.1294 81.7247 62.1847 81.7247 62.2399 81.7247C62.2951 81.7247 62.3502 81.7247 62.4054 81.7247C62.4605 81.7247 62.5157 81.7247 62.5708 81.7247C62.6259 81.7247 62.6809 81.7247 62.736 81.7247C62.791 81.7247 62.846 81.7247 62.901 81.7247C62.956 81.7247 63.0109 81.7247 63.0658 81.7247C63.1208 81.7247 63.1757 81.7247 63.2305 81.7247C63.2854 81.7247 63.3402 81.7247 63.395 81.7247C63.4498 81.7247 63.5046 81.7247 63.5593 81.7247C63.6141 81.7247 63.6688 81.7247 63.7235 81.7247C63.7782 81.7247 63.8328 81.7247 63.8874 81.7247C63.9421 81.7247 63.9967 81.7247 64.0512 81.7247C64.1058 81.7247 64.1603 81.7247 64.2148 81.7247C64.2693 81.7247 64.3238 81.7247 64.3782 81.7247C64.4326 81.7247 64.487 81.7247 64.5414 81.7247C64.5958 81.7247 64.6501 81.7247 64.7044 81.7247C64.7587 81.7247 64.813 81.7247 64.8672 81.7247C64.9214 81.7247 64.9756 81.7247 65.0298 81.7247C65.084 81.7247 65.1381 81.7247 65.1922 81.7247C65.2463 81.7247 65.3004 81.7247 65.3544 81.7247C65.4084 81.7247 65.4624 81.7247 65.5164 81.7247C65.5703 81.7247 65.6243 81.7247 65.6781 81.7247C65.732 81.7247 65.7859 81.7247 65.8397 81.7247C65.8935 81.7247 65.9473 81.7247 66.0011 81.7247C66.0548 81.7247 66.1085 81.7247 66.1622 81.7247C66.2159 81.7247 66.2695 81.7247 66.3231 81.7247C66.3767 81.7247 66.4303 81.7247 66.4838 81.7247C66.5373 81.7247 66.5908 81.7247 66.6442 81.7247C66.6977 81.7247 66.7511 81.7247 66.8045 81.7247C66.8578 81.7247 66.9112 81.7247 66.9645 81.7247C67.0178 81.7247 67.071 81.7247 67.1242 81.7247C67.1775 81.7247 67.2306 81.7247 67.2838 81.7247C67.3369 81.7247 67.39 81.7247 67.4431 81.7247C67.4961 81.7247 67.5492 81.7247 67.6021 81.7247C67.6551 81.7247 67.7081 81.7247 67.761 81.7247C67.8139 81.7247 67.8667 81.7247 67.9195 81.7247C67.9724 81.7247 68.0251 81.7247 68.0779 81.7247C68.1306 81.7247 68.1833 81.7247 68.2359 81.7247C68.2886 81.7247 68.3412 81.7247 68.3938 81.7247C68.4463 81.7247 68.4989 81.7247 68.5513 81.7247C68.6038 81.7247 68.6563 81.7247 68.7087 81.7247C68.7611 81.7247 68.8134 81.7247 68.8657 81.7247C68.918 81.7247 68.9703 81.7247 69.0225 81.7247C69.0747 81.7247 69.1269 81.7247 69.179 81.7247C69.2312 81.7247 69.2833 81.7247 69.3353 81.7247C69.3874 81.7247 69.4393 81.7247 69.4913 81.7247C69.5433 81.7247 69.5952 81.7247 69.647 81.7247C69.6989 81.7247 69.7507 81.7247 69.8025 81.7247C69.8543 81.7247 69.906 81.7247 69.9577 81.7247C70.0093 81.7247 70.061 81.7247 70.1126 81.7247C70.1641 81.7247 70.2157 81.7247 70.2672 81.7247C70.3187 81.7247 70.3701 81.7247 70.4215 81.7247C70.4729 81.7247 70.5243 81.7247 70.5756 81.7247C70.6269 81.7247 70.6781 81.7247 70.7293 81.7247C70.7805 81.7247 70.8317 81.7247 70.8828 81.7247C70.9339 81.7247 70.985 81.7247 71.036 81.7247C71.087 81.7247 71.138 81.7247 71.1889 81.7247C71.2398 81.7247 71.2906 81.7247 71.3415 81.7247C71.3923 81.7247 71.443 81.7247 71.4938 81.7247C71.5445 81.7247 71.5951 81.7247 71.6457 81.7247C71.6963 81.7247 71.7469 81.7247 71.7974 81.7247C71.8479 81.7247 71.8984 81.7247 71.9488 81.7247C71.9992 81.7247 72.0496 81.7247 72.0999 81.7247C72.1502 81.7247 72.2004 81.7247 72.2506 81.7247C72.3008 81.7247 72.351 81.7247 72.4011 81.7247C72.4511 81.7247 72.5012 81.7247 72.5512 81.7247C72.6012 81.7247 72.6511 81.7247 72.701 81.7247C72.7509 81.7247 72.8007 81.7247 72.8505 81.7247C72.9002 81.7247 72.95 81.7247 72.9996 81.7247V74.2001C72.95 74.2001 72.9002 74.2001 72.8505 74.2001C72.8007 74.2001 72.7509 74.2001 72.701 74.2001C72.6511 74.2001 72.6012 74.2001 72.5512 74.2001C72.5012 74.2001 72.4511 74.2001 72.4011 74.2001C72.351 74.2001 72.3008 74.2001 72.2506 74.2001C72.2004 74.2001 72.1502 74.2001 72.0999 74.2001C72.0496 74.2001 71.9992 74.2001 71.9488 74.2001C71.8984 74.2001 71.8479 74.2001 71.7974 74.2001C71.7469 74.2001 71.6963 74.2001 71.6457 74.2001C71.5951 74.2001 71.5445 74.2001 71.4938 74.2001C71.443 74.2001 71.3923 74.2001 71.3415 74.2001C71.2906 74.2001 71.2398 74.2001 71.1889 74.2001C71.138 74.2001 71.087 74.2001 71.036 74.2001C70.985 74.2001 70.9339 74.2001 70.8828 74.2001C70.8317 74.2001 70.7805 74.2001 70.7293 74.2001C70.6781 74.2001 70.6269 74.2001 70.5756 74.2001C70.5243 74.2001 70.4729 74.2001 70.4215 74.2001C70.3701 74.2001 70.3187 74.2001 70.2672 74.2001C70.2157 74.2001 70.1641 74.2001 70.1126 74.2001C70.061 74.2001 70.0093 74.2001 69.9577 74.2001C69.906 74.2001 69.8543 74.2001 69.8025 74.2001C69.7507 74.2001 69.6989 74.2001 69.647 74.2001C69.5952 74.2001 69.5433 74.2001 69.4913 74.2001C69.4393 74.2001 69.3874 74.2001 69.3353 74.2001C69.2833 74.2001 69.2312 74.2001 69.179 74.2001C69.1269 74.2001 69.0747 74.2001 69.0225 74.2001C68.9703 74.2001 68.918 74.2001 68.8657 74.2001C68.8134 74.2001 68.7611 74.2001 68.7087 74.2001C68.6563 74.2001 68.6038 74.2001 68.5513 74.2001C68.4989 74.2001 68.4463 74.2001 68.3938 74.2001C68.3412 74.2001 68.2886 74.2001 68.2359 74.2001C68.1833 74.2001 68.1306 74.2001 68.0779 74.2001C68.0251 74.2001 67.9724 74.2001 67.9195 74.2001C67.8667 74.2001 67.8139 74.2001 67.761 74.2001C67.7081 74.2001 67.6551 74.2001 67.6021 74.2001C67.5492 74.2001 67.4961 74.2001 67.4431 74.2001C67.39 74.2001 67.3369 74.2001 67.2838 74.2001C67.2306 74.2001 67.1775 74.2001 67.1242 74.2001C67.071 74.2001 67.0178 74.2001 66.9645 74.2001C66.9112 74.2001 66.8578 74.2001 66.8045 74.2001C66.7511 74.2001 66.6977 74.2001 66.6442 74.2001C66.5908 74.2001 66.5373 74.2001 66.4838 74.2001C66.4303 74.2001 66.3767 74.2001 66.3231 74.2001C66.2695 74.2001 66.2159 74.2001 66.1622 74.2001C66.1085 74.2001 66.0548 74.2001 66.0011 74.2001C65.9473 74.2001 65.8935 74.2001 65.8397 74.2001C65.7859 74.2001 65.732 74.2001 65.6781 74.2001C65.6243 74.2001 65.5703 74.2001 65.5164 74.2001C65.4624 74.2001 65.4084 74.2001 65.3544 74.2001C65.3004 74.2001 65.2463 74.2001 65.1922 74.2001C65.1381 74.2001 65.084 74.2001 65.0298 74.2001C64.9756 74.2001 64.9214 74.2001 64.8672 74.2001C64.813 74.2001 64.7587 74.2001 64.7044 74.2001C64.6501 74.2001 64.5958 74.2001 64.5414 74.2001C64.487 74.2001 64.4326 74.2001 64.3782 74.2001C64.3238 74.2001 64.2693 74.2001 64.2148 74.2001C64.1603 74.2001 64.1058 74.2001 64.0512 74.2001C63.9967 74.2001 63.9421 74.2001 63.8874 74.2001C63.8328 74.2001 63.7782 74.2001 63.7235 74.2001C63.6688 74.2001 63.6141 74.2001 63.5593 74.2001C63.5046 74.2001 63.4498 74.2001 63.395 74.2001C63.3402 74.2001 63.2854 74.2001 63.2305 74.2001C63.1757 74.2001 63.1208 74.2001 63.0658 74.2001C63.0109 74.2001 62.956 74.2001 62.901 74.2001C62.846 74.2001 62.791 74.2001 62.736 74.2001C62.6809 74.2001 62.6259 74.2001 62.5708 74.2001C62.5157 74.2001 62.4605 74.2001 62.4054 74.2001C62.3502 74.2001 62.2951 74.2001 62.2399 74.2001C62.1847 74.2001 62.1294 74.2001 62.0742 74.2001C62.0189 74.2001 61.9636 74.2001 61.9083 74.2001C61.853 74.2001 61.7977 74.2001 61.7423 74.2001C61.687 74.2001 61.6316 74.2001 61.5762 74.2001C61.5207 74.2001 61.4653 74.2001 61.4098 74.2001C61.3544 74.2001 61.2989 74.2001 61.2434 74.2001C61.1879 74.2001 61.1323 74.2001 61.0768 74.2001C61.0212 74.2001 60.9656 74.2001 60.91 74.2001C60.8544 74.2001 60.7988 74.2001 60.7431 74.2001C60.6874 74.2001 60.6318 74.2001 60.5761 74.2001C60.5204 74.2001 60.4646 74.2001 60.4089 74.2001C60.3531 74.2001 60.2974 74.2001 60.2416 74.2001C60.1858 74.2001 60.1299 74.2001 60.0741 74.2001C60.0183 74.2001 59.9624 74.2001 59.9065 74.2001C59.8506 74.2001 59.7947 74.2001 59.7388 74.2001C59.6829 74.2001 59.6269 74.2001 59.571 74.2001C59.515 74.2001 59.459 74.2001 59.403 74.2001C59.347 74.2001 59.291 74.2001 59.2349 74.2001C59.1789 74.2001 59.1228 74.2001 59.0667 74.2001C59.0107 74.2001 58.9546 74.2001 58.8984 74.2001C58.8423 74.2001 58.7862 74.2001 58.73 74.2001C58.6738 74.2001 58.6177 74.2001 58.5615 74.2001C58.5053 74.2001 58.449 74.2001 58.3928 74.2001C58.3366 74.2001 58.2803 74.2001 58.224 74.2001C58.1678 74.2001 58.1115 74.2001 58.0552 74.2001C57.9989 74.2001 57.9426 74.2001 57.8862 74.2001C57.8299 74.2001 57.7735 74.2001 57.7172 74.2001C57.6608 74.2001 57.6044 74.2001 57.548 74.2001C57.4916 74.2001 57.4352 74.2001 57.3787 74.2001C57.3223 74.2001 57.2658 74.2001 57.2094 74.2001C57.1529 74.2001 57.0964 74.2001 57.0399 74.2001C56.9835 74.2001 56.9269 74.2001 56.8704 74.2001C56.8139 74.2001 56.7574 74.2001 56.7008 74.2001C56.6443 74.2001 56.5877 74.2001 56.5311 74.2001C56.4745 74.2001 56.4179 74.2001 56.3613 74.2001C56.3047 74.2001 56.2481 74.2001 56.1915 74.2001C56.1349 74.2001 56.0782 74.2001 56.0216 74.2001C55.9649 74.2001 55.9082 74.2001 55.8516 74.2001C55.7949 74.2001 55.7382 74.2001 55.6815 74.2001C55.6248 74.2001 55.5681 74.2001 55.5113 74.2001C55.4546 74.2001 55.3979 74.2001 55.3411 74.2001C55.2844 74.2001 55.2276 74.2001 55.1709 74.2001C55.1141 74.2001 55.0573 74.2001 55.0005 74.2001C54.9437 74.2001 54.887 74.2001 54.8301 74.2001C54.7733 74.2001 54.7165 74.2001 54.6597 74.2001C54.6029 74.2001 54.546 74.2001 54.4892 74.2001C54.4324 74.2001 54.3755 74.2001 54.3186 74.2001C54.2618 74.2001 54.2049 74.2001 54.148 74.2001C54.0912 74.2001 54.0343 74.2001 53.9774 74.2001C53.9205 74.2001 53.8636 74.2001 53.8067 74.2001C53.7498 74.2001 53.6929 74.2001 53.636 74.2001C53.5791 74.2001 53.5221 74.2001 53.4652 74.2001C53.4083 74.2001 53.3513 74.2001 53.2944 74.2001C53.2375 74.2001 53.1805 74.2001 53.1236 74.2001C53.0666 74.2001 53.0096 74.2001 52.9527 74.2001C52.8957 74.2001 52.8387 74.2001 52.7818 74.2001C52.7248 74.2001 52.6678 74.2001 52.6108 74.2001C52.5539 74.2001 52.4969 74.2001 52.4399 74.2001C52.3829 74.2001 52.3259 74.2001 52.2689 74.2001C52.2119 74.2001 52.1549 74.2001 52.0979 74.2001C52.0409 74.2001 51.9839 74.2001 51.9269 74.2001C51.8699 74.2001 51.8129 74.2001 51.7559 74.2001C51.6988 74.2001 51.6418 74.2001 51.5848 74.2001C51.5278 74.2001 51.4708 74.2001 51.4138 74.2001C51.3567 74.2001 51.2997 74.2001 51.2427 74.2001C51.1857 74.2001 51.1286 74.2001 51.0716 74.2001C51.0146 74.2001 50.9576 74.2001 50.9005 74.2001C50.8435 74.2001 50.7865 74.2001 50.7295 74.2001C50.6724 74.2001 50.6154 74.2001 50.5584 74.2001C50.5014 74.2001 50.4444 74.2001 50.3873 74.2001C50.3303 74.2001 50.2733 74.2001 50.2163 74.2001C50.1593 74.2001 50.1022 74.2001 50.0452 74.2001C49.9882 74.2001 49.9312 74.2001 49.8742 74.2001C49.8172 74.2001 49.7602 74.2001 49.7031 74.2001C49.6461 74.2001 49.5891 74.2001 49.5321 74.2001C49.4751 74.2001 49.4181 74.2001 49.3611 74.2001C49.3042 74.2001 49.2472 74.2001 49.1902 74.2001C49.1332 74.2001 49.0762 74.2001 49.0192 74.2001C48.9622 74.2001 48.9053 74.2001 48.8483 74.2001C48.7913 74.2001 48.7344 74.2001 48.6774 74.2001C48.6204 74.2001 48.5635 74.2001 48.5065 74.2001C48.4496 74.2001 48.3926 74.2001 48.3357 74.2001C48.2788 74.2001 48.2218 74.2001 48.1649 74.2001C48.108 74.2001 48.0511 74.2001 47.9942 74.2001C47.9372 74.2001 47.8803 74.2001 47.8234 74.2001C47.7665 74.2001 47.7096 74.2001 47.6528 74.2001C47.5959 74.2001 47.539 74.2001 47.4821 74.2001C47.4253 74.2001 47.3684 74.2001 47.3116 74.2001C47.2547 74.2001 47.1979 74.2001 47.141 74.2001C47.0842 74.2001 47.0274 74.2001 46.9705 74.2001C46.9137 74.2001 46.8569 74.2001 46.8001 74.2001C46.7433 74.2001 46.6865 74.2001 46.6297 74.2001C46.573 74.2001 46.5162 74.2001 46.4594 74.2001C46.4027 74.2001 46.3459 74.2001 46.2892 74.2001C46.2324 74.2001 46.1757 74.2001 46.119 74.2001C46.0623 74.2001 46.0056 74.2001 45.9489 74.2001C45.8922 74.2001 45.8355 74.2001 45.7788 74.2001C45.7222 74.2001 45.6655 74.2001 45.6089 74.2001C45.5522 74.2001 45.4956 74.2001 45.439 74.2001C45.3823 74.2001 45.3257 74.2001 45.2691 74.2001C45.2125 74.2001 45.156 74.2001 45.0994 74.2001C45.0428 74.2001 44.9863 74.2001 44.9297 74.2001C44.8732 74.2001 44.8167 74.2001 44.7601 74.2001C44.7036 74.2001 44.6471 74.2001 44.5907 74.2001C44.5342 74.2001 44.4777 74.2001 44.4212 74.2001C44.3648 74.2001 44.3084 74.2001 44.2519 74.2001C44.1955 74.2001 44.1391 74.2001 44.0827 74.2001C44.0263 74.2001 43.9699 74.2001 43.9136 74.2001C43.8572 74.2001 43.8009 74.2001 43.7445 74.2001C43.6882 74.2001 43.6319 74.2001 43.5756 74.2001C43.5193 74.2001 43.4631 74.2001 43.4068 74.2001C43.3505 74.2001 43.2943 74.2001 43.2381 74.2001C43.1819 74.2001 43.1256 74.2001 43.0695 74.2001C43.0133 74.2001 42.9571 74.2001 42.901 74.2001C42.8448 74.2001 42.7887 74.2001 42.7326 74.2001C42.6765 74.2001 42.6204 74.2001 42.5643 74.2001C42.5082 74.2001 42.4522 74.2001 42.3961 74.2001C42.3401 74.2001 42.2841 74.2001 42.2281 74.2001C42.1721 74.2001 42.1161 74.2001 42.0602 74.2001C42.0042 74.2001 41.9483 74.2001 41.8924 74.2001C41.8365 74.2001 41.7806 74.2001 41.7247 74.2001C41.6689 74.2001 41.613 74.2001 41.5572 74.2001C41.5014 74.2001 41.4456 74.2001 41.3898 74.2001C41.334 74.2001 41.2783 74.2001 41.2225 74.2001C41.1668 74.2001 41.1111 74.2001 41.0554 74.2001C40.9997 74.2001 40.944 74.2001 40.8884 74.2001C40.8328 74.2001 40.7771 74.2001 40.7215 74.2001C40.666 74.2001 40.6104 74.2001 40.5548 74.2001C40.4993 74.2001 40.4438 74.2001 40.3883 74.2001C40.3328 74.2001 40.2773 74.2001 40.2219 74.2001C40.1664 74.2001 40.111 74.2001 40.0556 74.2001C40.0002 74.2001 39.9448 74.2001 39.8895 74.2001C39.8342 74.2001 39.7788 74.2001 39.7235 74.2001C39.6683 74.2001 39.613 74.2001 39.5578 74.2001C39.5025 74.2001 39.4473 74.2001 39.3921 74.2001C39.3369 74.2001 39.2818 74.2001 39.2267 74.2001C39.1715 74.2001 39.1164 74.2001 39.0614 74.2001C39.0063 74.2001 38.9512 74.2001 38.8962 74.2001C38.8412 74.2001 38.7862 74.2001 38.7313 74.2001C38.6763 74.2001 38.6214 74.2001 38.5665 74.2001C38.5116 74.2001 38.4567 74.2001 38.4018 74.2001C38.347 74.2001 38.2922 74.2001 38.2374 74.2001C38.1826 74.2001 38.1279 74.2001 38.0731 74.2001C38.0184 74.2001 37.9637 74.2001 37.9091 74.2001C37.8544 74.2001 37.7998 74.2001 37.7452 74.2001C37.6906 74.2001 37.636 74.2001 37.5815 74.2001C37.5269 74.2001 37.4724 74.2001 37.418 74.2001C37.3635 74.2001 37.309 74.2001 37.2546 74.2001C37.2002 74.2001 37.1459 74.2001 37.0915 74.2001C37.0372 74.2001 36.9829 74.2001 36.9286 74.2001C36.8743 74.2001 36.8201 74.2001 36.7658 74.2001C36.7116 74.2001 36.6575 74.2001 36.6033 74.2001C36.5492 74.2001 36.4951 74.2001 36.441 74.2001C36.3869 74.2001 36.3329 74.2001 36.2789 74.2001C36.2249 74.2001 36.1709 74.2001 36.117 74.2001C36.063 74.2001 36.0091 74.2001 35.9553 74.2001C35.9014 74.2001 35.8476 74.2001 35.7938 74.2001C35.74 74.2001 35.6862 74.2001 35.6325 74.2001C35.5788 74.2001 35.5251 74.2001 35.4715 74.2001C35.4178 74.2001 35.3642 74.2001 35.3106 74.2001C35.2571 74.2001 35.2035 74.2001 35.15 74.2001C35.0965 74.2001 35.0431 74.2001 34.9896 74.2001C34.9362 74.2001 34.8828 74.2001 34.8295 74.2001C34.7761 74.2001 34.7228 74.2001 34.6696 74.2001C34.6163 74.2001 34.5631 74.2001 34.5099 74.2001C34.4567 74.2001 34.4035 74.2001 34.3504 74.2001C34.2973 74.2001 34.2443 74.2001 34.1912 74.2001C34.1382 74.2001 34.0852 74.2001 34.0322 74.2001C33.9793 74.2001 33.9264 74.2001 33.8735 74.2001C33.8206 74.2001 33.7678 74.2001 33.715 74.2001C33.6622 74.2001 33.6095 74.2001 33.5568 74.2001C33.5041 74.2001 33.4514 74.2001 33.3988 74.2001C33.3462 74.2001 33.2936 74.2001 33.2411 74.2001C33.1885 74.2001 33.136 74.2001 33.0836 74.2001C33.0311 74.2001 32.9787 74.2001 32.9264 74.2001C32.874 74.2001 32.8217 74.2001 32.7694 74.2001C32.7171 74.2001 32.6649 74.2001 32.6127 74.2001C32.5605 74.2001 32.5084 74.2001 32.4563 74.2001C32.4042 74.2001 32.3521 74.2001 32.3001 74.2001C32.2481 74.2001 32.1961 74.2001 32.1442 74.2001C32.0923 74.2001 32.0404 74.2001 31.9886 74.2001C31.9367 74.2001 31.885 74.2001 31.8332 74.2001C31.7815 74.2001 31.7298 74.2001 31.6781 74.2001C31.6265 74.2001 31.5749 74.2001 31.5233 74.2001C31.4718 74.2001 31.4203 74.2001 31.3688 74.2001C31.3174 74.2001 31.2659 74.2001 31.2146 74.2001C31.1632 74.2001 31.1119 74.2001 31.0606 74.2001C31.0094 74.2001 30.9581 74.2001 30.907 74.2001C30.8558 74.2001 30.8047 74.2001 30.7536 74.2001C30.7025 74.2001 30.6515 74.2001 30.6005 74.2001C30.5496 74.2001 30.4986 74.2001 30.4478 74.2001C30.3969 74.2001 30.346 74.2001 30.2953 74.2001C30.2445 74.2001 30.1938 74.2001 30.1431 74.2001C30.0924 74.2001 30.0418 74.2001 29.9912 74.2001C29.9406 74.2001 29.8901 74.2001 29.8396 74.2001C29.7892 74.2001 29.7387 74.2001 29.6884 74.2001C29.638 74.2001 29.5877 74.2001 29.5374 74.2001C29.4872 74.2001 29.4369 74.2001 29.3868 74.2001C29.3366 74.2001 29.2865 74.2001 29.2365 74.2001C29.1864 74.2001 29.1364 74.2001 29.0864 74.2001C29.0365 74.2001 28.9866 74.2001 28.9368 74.2001C28.8869 74.2001 28.8371 74.2001 28.7874 74.2001C28.7377 74.2001 28.688 74.2001 28.6384 74.2001C28.5887 74.2001 28.5392 74.2001 28.4896 74.2001C28.4401 74.2001 28.3907 74.2001 28.3413 74.2001C28.2918 74.2001 28.2425 74.2001 28.1932 74.2001C28.1439 74.2001 28.0947 74.2001 28.0455 74.2001C27.9963 74.2001 27.9472 74.2001 27.8981 74.2001C27.849 74.2001 27.8 74.2001 27.7511 74.2001C27.7021 74.2001 27.6532 74.2001 27.6044 74.2001C27.5555 74.2001 27.5067 74.2001 27.458 74.2001C27.4093 74.2001 27.3606 74.2001 27.312 74.2001C27.2634 74.2001 27.2148 74.2001 27.1663 74.2001C27.1178 74.2001 27.0694 74.2001 27.021 74.2001C26.9726 74.2001 26.9243 74.2001 26.8761 74.2001C26.8278 74.2001 26.7796 74.2001 26.7315 74.2001C26.6833 74.2001 26.6352 74.2001 26.5872 74.2001C26.5392 74.2001 26.4912 74.2001 26.4433 74.2001C26.3954 74.2001 26.3476 74.2001 26.2998 74.2001C26.252 74.2001 26.2043 74.2001 26.1567 74.2001C26.109 74.2001 26.0614 74.2001 26.0139 74.2001C25.9664 74.2001 25.9189 74.2001 25.8715 74.2001C25.8241 74.2001 25.7767 74.2001 25.7294 74.2001C25.6822 74.2001 25.6349 74.2001 25.5878 74.2001C25.5406 74.2001 25.4935 74.2001 25.4465 74.2001C25.3995 74.2001 25.3525 74.2001 25.3056 74.2001C25.2587 74.2001 25.2118 74.2001 25.1651 74.2001C25.1183 74.2001 25.0716 74.2001 25.0249 74.2001C24.9783 74.2001 24.9317 74.2001 24.8852 74.2001C24.8387 74.2001 24.7922 74.2001 24.7458 74.2001C24.6994 74.2001 24.6531 74.2001 24.6068 74.2001C24.5606 74.2001 24.5144 74.2001 24.4683 74.2001C24.4221 74.2001 24.3761 74.2001 24.3301 74.2001C24.2841 74.2001 24.2382 74.2001 24.1923 74.2001C24.1465 74.2001 24.1007 74.2001 24.0549 74.2001C24.0092 74.2001 23.9636 74.2001 23.918 74.2001C23.8724 74.2001 23.8269 74.2001 23.7814 74.2001C23.7359 74.2001 23.6906 74.2001 23.6452 74.2001C23.5999 74.2001 23.5547 74.2001 23.5095 74.2001C23.4643 74.2001 23.4192 74.2001 23.3742 74.2001C23.3291 74.2001 23.2842 74.2001 23.2393 74.2001C23.1944 74.2001 23.1495 74.2001 23.1048 74.2001C23.06 74.2001 23.0153 74.2001 22.9707 74.2001C22.9261 74.2001 22.8815 74.2001 22.837 74.2001C22.7926 74.2001 22.7482 74.2001 22.7038 74.2001C22.6595 74.2001 22.6152 74.2001 22.571 74.2001C22.5268 74.2001 22.4827 74.2001 22.4387 74.2001C22.3946 74.2001 22.3506 74.2001 22.3067 74.2001C22.2628 74.2001 22.219 74.2001 22.1752 74.2001C22.1315 74.2001 22.0878 74.2001 22.0442 74.2001C22.0006 74.2001 21.957 74.2001 21.9136 74.2001C21.8701 74.2001 21.8267 74.2001 21.7834 74.2001C21.7401 74.2001 21.6968 74.2001 21.6537 74.2001C21.6105 74.2001 21.5674 74.2001 21.5244 74.2001C21.4814 74.2001 21.4384 74.2001 21.3955 74.2001C21.3527 74.2001 21.3099 74.2001 21.2672 74.2001C21.2245 74.2001 21.1818 74.2001 21.1392 74.2001C21.0967 74.2001 21.0542 74.2001 21.0118 74.2001C20.9694 74.2001 20.927 74.2001 20.8848 74.2001C20.8425 74.2001 20.8003 74.2001 20.7582 74.2001C20.7161 74.2001 20.6741 74.2001 20.6322 74.2001C20.5902 74.2001 20.5483 74.2001 20.5065 74.2001C20.4647 74.2001 20.423 74.2001 20.3814 74.2001C20.3398 74.2001 20.2982 74.2001 20.2567 74.2001C20.2152 74.2001 20.1738 74.2001 20.1325 74.2001C20.0912 74.2001 20.05 74.2001 20.0088 74.2001C19.9677 74.2001 19.9266 74.2001 19.8856 74.2001C19.8446 74.2001 19.8037 74.2001 19.7628 74.2001C19.722 74.2001 19.6812 74.2001 19.6405 74.2001C19.5999 74.2001 19.5593 74.2001 19.5187 74.2001C19.4782 74.2001 19.4378 74.2001 19.3974 74.2001C19.3571 74.2001 19.3168 74.2001 19.2766 74.2001C19.2365 74.2001 19.1963 74.2001 19.1563 74.2001C19.1163 74.2001 19.0764 74.2001 19.0365 74.2001C18.9966 74.2001 18.9569 74.2001 18.9172 74.2001C18.8775 74.2001 18.8379 74.2001 18.7984 74.2001C18.7588 74.2001 18.7194 74.2001 18.68 74.2001C18.6407 74.2001 18.6014 74.2001 18.5622 74.2001C18.523 74.2001 18.4839 74.2001 18.4449 74.2001C18.4059 74.2001 18.367 74.2001 18.3281 74.2001C18.2893 74.2001 18.2505 74.2001 18.2119 74.2001C18.1732 74.2001 18.1346 74.2001 18.0961 74.2001C18.0576 74.2001 18.0192 74.2001 17.9808 74.2001C17.9425 74.2001 17.9043 74.2001 17.8661 74.2001C17.828 74.2001 17.7899 74.2001 17.7519 74.2001C17.7139 74.2001 17.676 74.2001 17.6382 74.2001C17.6004 74.2001 17.5627 74.2001 17.5251 74.2001C17.4875 74.2001 17.4499 74.2001 17.4125 74.2001C17.375 74.2001 17.3376 74.2001 17.3004 74.2001C17.2631 74.2001 17.2259 74.2001 17.1888 74.2001C17.1517 74.2001 17.1147 74.2001 17.0778 74.2001C17.0409 74.2001 17.0041 74.2001 16.9673 74.2001C16.9306 74.2001 16.8939 74.2001 16.8574 74.2001C16.8208 74.2001 16.7844 74.2001 16.748 74.2001C16.7116 74.2001 16.6753 74.2001 16.6391 74.2001C16.6029 74.2001 16.5668 74.2001 16.5308 74.2001C16.4948 74.2001 16.4589 74.2001 16.4231 74.2001C16.3873 74.2001 16.3515 74.2001 16.3159 74.2001C16.2803 74.2001 16.2447 74.2001 16.2093 74.2001C16.1738 74.2001 16.1385 74.2001 16.1032 74.2001C16.0679 74.2001 16.0328 74.2001 15.9977 74.2001C15.9626 74.2001 15.9276 74.2001 15.8927 74.2001C15.8578 74.2001 15.823 74.2001 15.7883 74.2001C15.7536 74.2001 15.719 74.2001 15.6845 74.2001C15.65 74.2001 15.6156 74.2001 15.5813 74.2001C15.5469 74.2001 15.5127 74.2001 15.4786 74.2001C15.4445 74.2001 15.4104 74.2001 15.3765 74.2001C15.3426 74.2001 15.3087 74.2001 15.275 74.2001C15.2412 74.2001 15.2076 74.2001 15.174 74.2001C15.1405 74.2001 15.107 74.2001 15.0737 74.2001C15.0403 74.2001 15.0071 74.2001 14.9739 74.2001C14.9407 74.2001 14.9077 74.2001 14.8747 74.2001C14.8417 74.2001 14.8089 74.2001 14.7761 74.2001C14.7434 74.2001 14.7107 74.2001 14.6781 74.2001C14.6455 74.2001 14.6131 74.2001 14.5807 74.2001C14.5483 74.2001 14.5161 74.2001 14.4839 74.2001C14.4517 74.2001 14.4197 74.2001 14.3877 74.2001C14.3557 74.2001 14.3238 74.2001 14.2921 74.2001C14.2603 74.2001 14.2286 74.2001 14.1971 74.2001C14.1655 74.2001 14.134 74.2001 14.1027 74.2001C14.0713 74.2001 14.04 74.2001 14.0089 74.2001C13.9777 74.2001 13.9467 74.2001 13.9157 74.2001C13.8848 74.2001 13.8539 74.2001 13.8231 74.2001C13.7924 74.2001 13.7617 74.2001 13.7312 74.2001C13.7007 74.2001 13.6702 74.2001 13.6399 74.2001C13.6095 74.2001 13.5793 74.2001 13.5492 74.2001C13.519 74.2001 13.489 74.2001 13.4591 74.2001C13.4292 74.2001 13.3993 74.2001 13.3696 74.2001C13.3399 74.2001 13.3103 74.2001 13.2808 74.2001C13.2513 74.2001 13.2219 74.2001 13.1926 74.2001C13.1633 74.2001 13.1341 74.2001 13.105 74.2001C13.076 74.2001 13.047 74.2001 13.0181 74.2001C12.9892 74.2001 12.9605 74.2001 12.9318 74.2001C12.9032 74.2001 12.8746 74.2001 12.8462 74.2001C12.8177 74.2001 12.7894 74.2001 12.7612 74.2001C12.7329 74.2001 12.7048 74.2001 12.6768 74.2001C12.6488 74.2001 12.6209 74.2001 12.5931 74.2001C12.5653 74.2001 12.5376 74.2001 12.51 74.2001C12.4825 74.2001 12.455 74.2001 12.4276 74.2001C12.4003 74.2001 12.373 74.2001 12.3459 74.2001C12.3187 74.2001 12.2917 74.2001 12.2648 74.2001C12.2379 74.2001 12.2111 74.2001 12.1843 74.2001C12.1576 74.2001 12.1311 74.2001 12.1046 74.2001C12.0781 74.2001 12.0517 74.2001 12.0255 74.2001C11.9992 74.2001 11.9731 74.2001 11.947 74.2001C11.921 74.2001 11.8951 74.2001 11.8693 74.2001C11.8434 74.2001 11.8177 74.2001 11.7922 74.2001C11.7666 74.2001 11.7411 74.2001 11.7157 74.2001C11.6904 74.2001 11.6651 74.2001 11.64 74.2001C11.6148 74.2001 11.5898 74.2001 11.5649 74.2001C11.54 74.2001 11.5152 74.2001 11.4905 74.2001C11.4658 74.2001 11.4413 74.2001 11.4168 74.2001C11.3924 74.2001 11.368 74.2001 11.3438 74.2001C11.3196 74.2001 11.2955 74.2001 11.2715 74.2001C11.2475 74.2001 11.2236 74.2001 11.1998 74.2001C11.1761 74.2001 11.1524 74.2001 11.1289 74.2001C11.1054 74.2001 11.0819 74.2001 11.0586 74.2001C11.0353 74.2001 11.0122 74.2001 10.9891 74.2001C10.966 74.2001 10.9431 74.2001 10.9202 74.2001C10.8974 74.2001 10.8747 74.2001 10.8521 74.2001C10.8295 74.2001 10.807 74.2001 10.7847 74.2001C10.7623 74.2001 10.7401 74.2001 10.7179 74.2001C10.6958 74.2001 10.6738 74.2001 10.6519 74.2001C10.63 74.2001 10.6083 74.2001 10.5866 74.2001C10.565 74.2001 10.5434 74.2001 10.522 74.2001C10.5006 74.2001 10.4793 74.2001 10.4581 74.2001C10.437 74.2001 10.4159 74.2001 10.395 74.2001C10.3741 74.2001 10.3532 74.2001 10.3326 74.2001C10.3119 74.2001 10.2913 74.2001 10.2709 74.2001C10.2504 74.2001 10.2301 74.2001 10.2099 74.2001C10.1897 74.2001 10.1696 74.2001 10.1496 74.2001C10.1297 74.2001 10.1098 74.2001 10.0901 74.2001C10.0704 74.2001 10.0508 74.2001 10.0313 74.2001C10.0119 74.2001 9.99251 74.2001 9.97329 74.2001C9.95406 74.2001 9.93496 74.2001 9.91598 74.2001C9.897 74.2001 9.87815 74.2001 9.85942 74.2001C9.84069 74.2001 9.82208 74.2001 9.8036 74.2001C9.78512 74.2001 9.76676 74.2001 9.74853 74.2001C9.7303 74.2001 9.71219 74.2001 9.69421 74.2001C9.67622 74.2001 9.65837 74.2001 9.64064 74.2001C9.6229 74.2001 9.6053 74.2001 9.58782 74.2001C9.57034 74.2001 9.55299 74.2001 9.53576 74.2001C9.51853 74.2001 9.50143 74.2001 9.48446 74.2001C9.46748 74.2001 9.45064 74.2001 9.43392 74.2001C9.4172 74.2001 9.4006 74.2001 9.38414 74.2001C9.36768 74.2001 9.35134 74.2001 9.33513 74.2001C9.31892 74.2001 9.30284 74.2001 9.28689 74.2001C9.27093 74.2001 9.25511 74.2001 9.23942 74.2001C9.22372 74.2001 9.20815 74.2001 9.19272 74.2001C9.17728 74.2001 9.16197 74.2001 9.1468 74.2001C9.13162 74.2001 9.11657 74.2001 9.10165 74.2001C9.08673 74.2001 9.07194 74.2001 9.05729 74.2001C9.04263 74.2001 9.0281 74.2001 9.01371 74.2001C8.99931 74.2001 8.98504 74.2001 8.97091 74.2001C8.95678 74.2001 8.94277 74.2001 8.9289 74.2001C8.91503 74.2001 8.90129 74.2001 8.88769 74.2001C8.87408 74.2001 8.8606 74.2001 8.84726 74.2001C8.83392 74.2001 8.82071 74.2001 8.80763 74.2001C8.79455 74.2001 8.78161 74.2001 8.7688 74.2001C8.75599 74.2001 8.74331 74.2001 8.73077 74.2001C8.71822 74.2001 8.70581 74.2001 8.69353 74.2001C8.68126 74.2001 8.66912 74.2001 8.65711 74.2001C8.6451 74.2001 8.63323 74.2001 8.62149 74.2001C8.60975 74.2001 8.59815 74.2001 8.58668 74.2001C8.57521 74.2001 8.56388 74.2001 8.55268 74.2001C8.54149 74.2001 8.53042 74.2001 8.5195 74.2001C8.50857 74.2001 8.49779 74.2001 8.48713 74.2001C8.47648 74.2001 8.46596 74.2001 8.45559 74.2001C8.44521 74.2001 8.43496 74.2001 8.42486 74.2001C8.41475 74.2001 8.40479 74.2001 8.39496 74.2001C8.38513 74.2001 8.37544 74.2001 8.36588 74.2001C8.35633 74.2001 8.34691 74.2001 8.33764 74.2001C8.32836 74.2001 8.31922 74.2001 8.31022 74.2001C8.30122 74.2001 8.29236 74.2001 8.28364 74.2001C8.27492 74.2001 8.26633 74.2001 8.25789 74.2001C8.24945 74.2001 8.24115 74.2001 8.23298 74.2001C8.22482 74.2001 8.2168 74.2001 8.20892 74.2001C8.20103 74.2001 8.19329 74.2001 8.18569 74.2001C8.17809 74.2001 8.17063 74.2001 8.16331 74.2001C8.156 74.2001 8.14882 74.2001 8.14178 74.2001C8.13475 74.2001 8.12786 74.2001 8.1211 74.2001C8.11435 74.2001 8.10774 74.2001 8.10128 74.2001C8.09481 74.2001 8.08849 74.2001 8.08231 74.2001C8.07612 74.2001 8.07009 74.2001 8.06419 74.2001C8.0583 74.2001 8.05255 74.2001 8.04694 74.2001C8.04133 74.2001 8.03587 74.2001 8.03055 74.2001C8.02523 74.2001 8.02005 74.2001 8.01502 74.2001C8.00999 74.2001 8.0051 74.2001 8.00036 74.2001C7.99562 74.2001 7.99102 74.2001 7.98657 74.2001C7.98212 74.2001 7.97782 74.2001 7.97366 74.2001C7.9695 74.2001 7.96548 74.2001 7.96161 74.2001C7.95774 74.2001 7.95402 74.2001 7.95045 74.2001C7.94687 74.2001 7.94344 74.2001 7.94016 74.2001C7.93688 74.2001 7.93374 74.2001 7.93076 74.2001C7.92777 74.2001 7.92493 74.2001 7.92224 74.2001C7.91954 74.2001 7.917 74.2001 7.9146 74.2001C7.91221 74.2001 7.90996 74.2001 7.90786 74.2001C7.90576 74.2001 7.90381 74.2001 7.90201 74.2001C7.9002 74.2001 7.89855 74.2001 7.89705 74.2001C7.89554 74.2001 7.89419 74.2001 7.89298 74.2001C7.89178 74.2001 7.89072 74.2001 7.88982 74.2001C7.88891 74.2001 7.88816 74.2001 7.88756 74.2001C7.88695 74.2001 7.8865 74.2001 7.8862 74.2001C7.88589 74.2001 7.88574 74.2001 7.88574 77.9624Z" fill="#EFF5FF"/>
</g>
<defs>
<filter id="filter0_d_535_106" x="0.801758" y="0.365479" width="75.3665" height="86.586" filterUnits="userSpaceOnUse" color-interpolation-filters="sRGB">
<feFlood flood-opacity="0" result="BackgroundImageFix"/>
<feColorMatrix in="SourceAlpha" type="matrix" values="0 0 0 0 0 0 0 0 0 0 0 0 0 0 0 0 0 0 127 0" result="hardAlpha"/>
<feOffset dx="1.58413" dy="1.58413"/>
<feGaussianBlur stdDeviation="0.792066"/>
<feComposite in2="hardAlpha" operator="out"/>
<feColorMatrix type="matrix" values="0 0 0 0 0.151771 0 0 0 0 0.420893 0 0 0 0 0.775 0 0 0 0.25 0"/>
<feBlend mode="normal" in2="BackgroundImageFix" result="effect1_dropShadow_535_106"/>
<feBlend mode="normal" in="SourceGraphic" in2="effect1_dropShadow_535_106" result="shape"/>
</filter>
</defs>
</svg>
