<svg width="249" height="130" viewBox="0 0 249 130" fill="none" xmlns="http://www.w3.org/2000/svg">
<path d="M89.2264 49.4223L90.6717 49.0212L89.2264 49.4223ZM114.71 63.8357L115.163 65.2657L114.71 63.8357ZM248.724 88.5837L242.227 72.5278L231.57 86.1822L248.724 88.5837ZM0.124181 3.05094C12.5293 2.75254 31.8475 4.76477 49.3855 11.7488C66.9261 18.7338 82.442 30.5823 87.781 49.8233L90.6717 49.0212C84.9819 28.5155 68.4874 16.1264 50.4954 8.96164C32.5009 1.79585 12.7643 -0.253982 0.0520374 0.051808L0.124181 3.05094ZM87.781 49.8233C94.6101 74.4348 93.4134 97.69 87.691 111.971C84.8181 119.141 80.9209 123.776 76.6117 125.451C72.4456 127.07 67.3965 126.096 61.6761 120.865L59.6516 123.079C65.8894 128.783 72.1128 130.418 77.6984 128.247C83.1408 126.132 87.4744 120.578 90.4758 113.087C96.5021 98.0474 97.6286 74.0932 90.6717 49.0212L87.781 49.8233ZM61.6761 120.865C55.876 115.561 53.4643 110.558 53.5109 105.896C53.5577 101.216 56.0849 96.4715 61.0675 91.7042C71.071 82.1331 90.2686 73.1487 115.163 65.2657L114.257 62.4057C89.3175 70.303 69.5337 79.452 58.9936 89.5366C53.7044 94.5971 50.5691 100.061 50.5111 105.866C50.4528 111.689 53.4936 117.448 59.6516 123.079L61.6761 120.865ZM115.163 65.2657C132.235 59.8599 155.577 59.5194 178.341 62.7758C201.1 66.0316 223.037 72.8478 237.297 81.5564L238.861 78.9961C224.131 70.0004 201.757 63.0951 178.766 59.8061C155.779 56.5177 131.932 56.8091 114.257 62.4057L115.163 65.2657Z" fill="#4395E6"/>
</svg>
