<svg width="1922" height="267" viewBox="0 0 1922 267" fill="none" xmlns="http://www.w3.org/2000/svg">
<g clip-path="url(#clip0_312_416)">
<g filter="url(#filter0_d_312_416)">
<path fill-rule="evenodd" clip-rule="evenodd" d="M656.614 -63.0311C645.832 -89.437 616.833 -108.347 582.751 -108.347C551.754 -108.347 524.961 -92.7048 512.253 -70.0075C497.936 -86.2967 475.354 -96.8059 449.947 -96.8059C409.489 -96.8059 376.193 -70.1581 372.03 -35.9571C366.998 -34.321 362.211 -32.2481 357.73 -29.7914C348.86 -32.8193 339.201 -34.482 329.095 -34.482C285.821 -34.482 250.74 -3.99494 250.74 33.6127C250.74 71.2204 285.821 101.707 329.095 101.707C344.442 101.707 358.759 97.8729 370.845 91.246C379.715 94.2739 389.374 95.9366 399.48 95.9366C400.58 95.9366 401.674 95.9169 402.762 95.878C412.434 123.951 442.385 144.411 477.836 144.411C500.267 144.411 520.496 136.22 534.779 123.091C546.848 147.186 574.489 164.032 606.656 164.032C630.884 164.032 652.543 154.475 666.916 139.464C680.824 150.427 699.284 157.107 719.54 157.107C748.972 157.107 774.613 143.004 788.006 122.151C797.898 126.07 808.892 128.253 820.472 128.253C863.746 128.253 898.827 97.7659 898.827 60.1582C898.827 22.5505 863.746 -7.93656 820.472 -7.93656C805.147 -7.93656 790.85 -4.11307 778.774 2.49611C765.6 -15.2362 743.203 -27.3083 717.481 -28.5968C705.202 -47.5523 682.781 -60.8833 656.614 -63.0311Z" fill="#FFFEF6"/>
<path fill-rule="evenodd" clip-rule="evenodd" d="M1120.1 1.60122C1109.32 -24.8047 1080.32 -43.715 1046.24 -43.715C1015.24 -43.715 988.446 -28.0729 975.738 -5.37616C961.422 -21.6648 938.839 -32.1735 913.433 -32.1735C872.975 -32.1735 839.68 -5.52609 835.517 28.6746C830.483 30.3107 825.696 32.3839 821.214 34.8408C812.344 31.813 802.685 30.1502 792.579 30.1502C749.305 30.1502 714.225 60.6373 714.225 98.245C714.225 135.853 749.305 166.34 792.579 166.34C807.926 166.34 822.243 162.505 834.33 155.878C843.2 158.906 852.859 160.569 862.965 160.569C864.065 160.569 865.159 160.549 866.248 160.51C875.92 188.584 905.871 209.043 941.322 209.043C963.752 209.043 983.981 200.852 998.265 187.724C1010.33 211.818 1037.97 228.664 1070.14 228.664C1094.37 228.664 1116.03 219.108 1130.4 204.096C1144.31 215.059 1162.77 221.739 1183.02 221.739C1212.46 221.739 1238.1 207.637 1251.49 186.783C1261.38 190.702 1272.38 192.885 1283.96 192.885C1327.23 192.885 1362.31 162.398 1362.31 124.791C1362.31 87.183 1327.23 56.6959 1283.96 56.6959C1268.63 56.6959 1254.33 60.5195 1242.26 67.1289C1229.08 49.3964 1206.69 37.3242 1180.97 36.0354C1168.69 17.0799 1146.27 3.74903 1120.1 1.60122Z" fill="#FFFEF6"/>
<path fill-rule="evenodd" clip-rule="evenodd" d="M-0.259735 183.652C0.839645 183.652 1.93375 183.632 3.02211 183.593C12.6937 211.667 42.6453 232.126 78.0955 232.126C100.526 232.126 120.756 223.935 135.039 210.807C147.108 234.901 174.748 251.747 206.916 251.747C231.143 251.747 252.803 242.191 267.176 227.179C281.083 238.142 299.544 244.822 319.8 244.822C349.231 244.822 374.873 230.72 388.266 209.866C398.157 213.785 409.151 215.968 420.731 215.968C464.005 215.968 499.085 185.481 499.085 147.873C499.085 110.266 464.005 79.7786 420.731 79.7786C405.406 79.7786 391.109 83.6021 379.033 90.2112C365.859 72.4791 343.463 60.4072 317.74 59.1184C305.462 40.1629 283.041 26.832 256.874 24.6842C246.092 -1.72176 217.092 -20.6321 183.011 -20.6321C158.333 -20.6321 136.321 -10.7179 121.958 4.77735C109.52 -18.5365 82.3501 -34.7061 50.8348 -34.7061C7.56076 -34.7061 -27.5198 -4.2191 -27.5198 33.3886C-27.5198 39.4425 -26.6108 45.3118 -24.9049 50.8992C-30.9687 52.6439 -36.7042 55.0148 -42.01 57.9239C-50.88 54.896 -60.5392 53.2332 -70.6454 53.2332C-113.919 53.2332 -149 83.7203 -149 121.328C-149 158.936 -113.919 189.423 -70.6454 189.423C-55.2983 189.423 -40.9817 185.588 -28.8951 178.961C-20.0251 181.989 -10.3659 183.652 -0.259735 183.652Z" fill="#FFFEF6"/>
<path fill-rule="evenodd" clip-rule="evenodd" d="M1746.94 -63.0311C1736.16 -89.437 1707.16 -108.347 1673.08 -108.347C1642.08 -108.347 1615.29 -92.7051 1602.58 -70.0082C1588.26 -86.297 1565.68 -96.8059 1540.27 -96.8059C1499.81 -96.8059 1466.52 -70.1582 1462.36 -35.9574C1457.32 -34.3213 1452.54 -32.2482 1448.05 -29.7914C1439.18 -32.8193 1429.53 -34.482 1419.42 -34.482C1376.15 -34.482 1341.06 -3.99494 1341.06 33.6127C1341.06 71.2204 1376.15 101.707 1419.42 101.707C1434.77 101.707 1449.08 97.8729 1461.17 91.246C1470.04 94.2739 1479.7 95.9366 1489.8 95.9366C1490.9 95.9366 1492 95.9169 1493.09 95.878C1502.76 123.951 1532.71 144.411 1568.16 144.411C1590.59 144.411 1610.82 136.219 1625.1 123.091C1637.17 147.185 1664.81 164.032 1696.98 164.032C1721.21 164.032 1742.87 154.476 1757.24 139.464C1771.15 150.427 1789.61 157.107 1809.86 157.107C1839.3 157.107 1864.94 143.004 1878.33 122.151C1888.22 126.07 1899.22 128.253 1910.8 128.253C1954.07 128.253 1989.15 97.7659 1989.15 60.1582C1989.15 22.5505 1954.07 -7.93656 1910.8 -7.93656C1895.47 -7.93656 1881.17 -4.11308 1869.1 2.49609C1855.92 -15.236 1833.53 -27.308 1807.8 -28.5968C1795.53 -47.5523 1773.11 -60.8833 1746.94 -63.0311Z" fill="#FFFEF6"/>
<path fill-rule="evenodd" clip-rule="evenodd" d="M1707.1 24.6841C1696.32 -1.72179 1667.32 -20.6322 1633.24 -20.6322C1602.24 -20.6322 1575.44 -4.9896 1562.74 17.7077C1548.42 1.41847 1525.84 -9.09066 1500.43 -9.09066C1459.97 -9.09066 1426.68 17.5573 1422.51 51.7584C1417.48 53.3944 1412.7 55.4673 1408.21 57.9239C1399.34 54.896 1389.69 53.2332 1379.58 53.2332C1336.31 53.2332 1301.22 83.7202 1301.22 121.328C1301.22 158.936 1336.31 189.423 1379.58 189.423C1394.93 189.423 1409.24 185.588 1421.33 178.961C1430.2 181.989 1439.86 183.652 1449.96 183.652C1451.06 183.652 1452.16 183.632 1453.25 183.593C1462.92 211.667 1492.87 232.126 1528.32 232.126C1550.75 232.126 1570.98 223.935 1585.26 210.806C1597.33 234.901 1624.97 251.747 1657.14 251.747C1681.37 251.747 1703.03 242.191 1717.4 227.179C1731.31 238.142 1749.77 244.822 1770.02 244.822C1799.46 244.822 1825.1 230.72 1838.49 209.866C1848.38 213.785 1859.38 215.968 1870.96 215.968C1914.23 215.968 1949.31 185.481 1949.31 147.873C1949.31 110.266 1914.23 79.7786 1870.96 79.7786C1855.63 79.7786 1841.33 83.6021 1829.26 90.2112C1816.08 72.4788 1793.69 60.4068 1767.96 59.1183C1755.69 40.1628 1733.27 26.8319 1707.1 24.6841Z" fill="#FFFEF6"/>
<path fill-rule="evenodd" clip-rule="evenodd" d="M1402.98 -79.1891C1392.19 -105.595 1363.19 -124.505 1329.11 -124.505C1298.12 -124.505 1271.32 -108.863 1258.61 -86.1663C1244.3 -102.455 1221.72 -112.964 1196.31 -112.964C1155.85 -112.964 1122.56 -86.3164 1118.39 -52.1156C1113.36 -50.4794 1108.57 -48.4064 1104.09 -45.9496C1095.22 -48.9774 1085.56 -50.6402 1075.46 -50.6402C1032.18 -50.6402 997.102 -20.1531 997.102 17.4546C997.102 55.0623 1032.18 85.5493 1075.46 85.5493C1090.8 85.5493 1105.12 81.7147 1117.21 75.0879C1126.08 78.1157 1135.74 79.7784 1145.84 79.7784C1146.94 79.7784 1148.04 79.7588 1149.12 79.7198C1158.8 107.793 1188.75 128.253 1224.2 128.253C1246.63 128.253 1266.86 120.062 1281.14 106.933C1293.21 131.028 1320.85 147.874 1353.02 147.874C1377.24 147.874 1398.9 138.317 1413.28 123.306C1427.18 134.269 1445.65 140.948 1465.9 140.948C1495.33 140.948 1520.97 126.846 1534.37 105.993C1544.26 109.912 1555.25 112.095 1566.83 112.095C1610.11 112.095 1645.19 81.6078 1645.19 44.0001C1645.19 6.39244 1610.11 -24.0946 1566.83 -24.0946C1551.51 -24.0946 1537.21 -20.2711 1525.13 -13.662C1511.96 -31.3941 1489.56 -43.4661 1463.84 -44.7549C1451.56 -63.7104 1429.14 -77.0413 1402.98 -79.1891Z" fill="#FFFEF6"/>
<path fill-rule="evenodd" clip-rule="evenodd" d="M764.647 85.7871C753.843 59.4161 724.864 40.5377 690.811 40.5377C660.077 40.5377 633.476 55.9156 620.64 78.3006C606.3 62.3406 583.952 52.0792 558.846 52.0792C518.388 52.0792 485.092 78.7269 480.93 112.928C475.897 114.564 471.109 116.637 466.629 119.094C457.759 116.066 448.099 114.403 437.993 114.403C394.719 114.403 359.639 144.89 359.639 182.498C359.639 220.105 394.719 250.593 437.993 250.593C453.34 250.593 467.657 246.758 479.744 240.131C488.614 243.159 498.273 244.822 508.379 244.822C517.77 244.822 526.776 243.386 535.121 240.753C549.07 251.889 567.678 258.687 588.113 258.687C611.326 258.687 632.182 249.914 646.53 235.975C646.637 235.998 646.743 236.02 646.85 236.042C661.195 251.929 683.49 262.136 708.529 262.136C719.835 262.136 730.582 260.055 740.29 256.309C741.336 256.345 742.387 256.363 743.444 256.363C757.715 256.363 771.096 253.047 782.621 247.253C794.146 253.047 807.526 256.363 821.798 256.363C847.267 256.363 869.898 245.803 884.209 229.446C898.542 243.146 919.215 251.747 942.2 251.747C985.474 251.747 1020.55 221.26 1020.55 183.652C1020.55 146.044 985.474 115.557 942.2 115.557C920.125 115.557 900.182 123.491 885.94 136.256C871.928 117.781 847.838 105.588 820.472 105.588C818.238 105.588 816.027 105.669 813.841 105.829C801.077 94.5828 783.845 87.1773 764.647 85.7871Z" fill="#FFFEF6"/>
</g>
</g>
<defs>
<filter id="filter0_d_312_416" x="-150.334" y="-129.841" width="2159.49" height="407.985" filterUnits="userSpaceOnUse" color-interpolation-filters="sRGB">
<feFlood flood-opacity="0" result="BackgroundImageFix"/>
<feColorMatrix in="SourceAlpha" type="matrix" values="0 0 0 0 0 0 0 0 0 0 0 0 0 0 0 0 0 0 127 0" result="hardAlpha"/>
<feOffset dx="9.33774" dy="5.33585"/>
<feGaussianBlur stdDeviation="5.33585"/>
<feComposite in2="hardAlpha" operator="out"/>
<feColorMatrix type="matrix" values="0 0 0 0 0.151771 0 0 0 0 0.420893 0 0 0 0 0.775 0 0 0 0.25 0"/>
<feBlend mode="normal" in2="BackgroundImageFix" result="effect1_dropShadow_312_416"/>
<feBlend mode="normal" in="SourceGraphic" in2="effect1_dropShadow_312_416" result="shape"/>
</filter>
<clipPath id="clip0_312_416">
<rect width="1920.91" height="266.793" fill="white" transform="translate(0.542969 0.171021)"/>
</clipPath>
</defs>
</svg>
