<svg width="1955" height="1396" viewBox="0 0 1955 1396" fill="none" xmlns="http://www.w3.org/2000/svg">
<g clip-path="url(#clip0_312_200)" filter="url(#filter0_dddd_312_200)">
<g filter="url(#filter1_d_312_200)">
<path fill-rule="evenodd" clip-rule="evenodd" d="M674.072 1007.97C663.289 981.563 634.29 962.653 600.208 962.653C569.211 962.653 542.418 978.295 529.71 1000.99C515.393 984.703 492.811 974.194 467.404 974.194C426.946 974.194 393.65 1000.84 389.487 1035.04C384.455 1036.68 379.668 1038.75 375.187 1041.21C366.317 1038.18 356.658 1036.52 346.552 1036.52C303.278 1036.52 268.197 1067.01 268.197 1104.61C268.197 1142.22 303.278 1172.71 346.552 1172.71C361.899 1172.71 376.216 1168.87 388.302 1162.25C397.172 1165.27 406.831 1166.94 416.938 1166.94C418.037 1166.94 419.131 1166.92 420.219 1166.88C429.891 1194.95 459.843 1215.41 495.293 1215.41C517.724 1215.41 537.953 1207.22 552.236 1194.09C564.306 1218.19 591.946 1235.03 624.113 1235.03C648.341 1235.03 670 1225.48 684.373 1210.46C698.281 1221.43 716.741 1228.11 736.997 1228.11C766.429 1228.11 792.07 1214 805.463 1193.15C815.355 1197.07 826.349 1199.25 837.929 1199.25C881.203 1199.25 916.284 1168.77 916.284 1131.16C916.284 1093.55 881.203 1063.06 837.929 1063.06C822.604 1063.06 808.307 1066.89 796.231 1073.5C783.057 1055.76 760.66 1043.69 734.938 1042.4C722.659 1023.45 700.238 1010.12 674.072 1007.97Z" fill="#FFFEF6"/>
<path fill-rule="evenodd" clip-rule="evenodd" d="M1137.56 1072.6C1126.77 1046.2 1097.77 1027.28 1063.69 1027.28C1032.7 1027.28 1005.9 1042.93 993.196 1065.62C978.879 1049.34 956.296 1038.83 930.89 1038.83C890.432 1038.83 857.137 1065.47 852.974 1099.67C847.94 1101.31 843.153 1103.38 838.671 1105.84C829.802 1102.81 820.142 1101.15 810.036 1101.15C766.762 1101.15 731.682 1131.64 731.682 1169.24C731.682 1206.85 766.762 1237.34 810.036 1237.34C825.383 1237.34 839.7 1233.51 851.787 1226.88C860.657 1229.91 870.316 1231.57 880.422 1231.57C881.522 1231.57 882.616 1231.55 883.705 1231.51C893.377 1259.58 923.329 1280.04 958.779 1280.04C981.209 1280.04 1001.44 1271.85 1015.72 1258.72C1027.79 1282.82 1055.43 1299.66 1087.6 1299.66C1111.83 1299.66 1133.49 1290.11 1147.86 1275.1C1161.77 1286.06 1180.23 1292.74 1200.48 1292.74C1229.91 1292.74 1255.56 1278.64 1268.95 1257.78C1278.84 1261.7 1289.83 1263.89 1301.41 1263.89C1344.69 1263.89 1379.77 1233.4 1379.77 1195.79C1379.77 1158.18 1344.69 1127.7 1301.41 1127.7C1286.09 1127.7 1271.79 1131.52 1259.72 1138.13C1246.54 1120.4 1224.15 1108.32 1198.42 1107.04C1186.14 1088.08 1163.72 1074.75 1137.56 1072.6Z" fill="#FFFEF6"/>
<path fill-rule="evenodd" clip-rule="evenodd" d="M17.1973 1254.65C18.2967 1254.65 19.3908 1254.63 20.4791 1254.59C30.1507 1282.67 60.1023 1303.13 95.5525 1303.13C117.983 1303.13 138.213 1294.93 152.496 1281.81C164.565 1305.9 192.205 1322.75 224.373 1322.75C248.6 1322.75 270.26 1313.19 284.633 1298.18C298.54 1309.14 317.001 1315.82 337.257 1315.82C366.688 1315.82 392.33 1301.72 405.723 1280.87C415.614 1284.78 426.608 1286.97 438.188 1286.97C481.462 1286.97 516.542 1256.48 516.542 1218.87C516.542 1181.27 481.462 1150.78 438.188 1150.78C422.863 1150.78 408.566 1154.6 396.49 1161.21C383.316 1143.48 360.92 1131.41 335.197 1130.12C322.919 1111.16 300.498 1097.83 274.331 1095.68C263.549 1069.28 234.549 1050.37 200.468 1050.37C175.79 1050.37 153.778 1060.28 139.415 1075.78C126.977 1052.46 99.8071 1036.29 68.2919 1036.29C25.0178 1036.29 -10.0628 1066.78 -10.0628 1104.39C-10.0628 1110.44 -9.15374 1116.31 -7.44782 1121.9C-13.5116 1123.64 -19.2472 1126.01 -24.553 1128.92C-33.4229 1125.9 -43.0822 1124.23 -53.1883 1124.23C-96.4624 1124.23 -131.543 1154.72 -131.543 1192.33C-131.543 1229.94 -96.4624 1260.42 -53.1883 1260.42C-37.8413 1260.42 -23.5247 1256.59 -11.438 1249.96C-2.56812 1252.99 7.09116 1254.65 17.1973 1254.65Z" fill="#FFFEF6"/>
<path fill-rule="evenodd" clip-rule="evenodd" d="M1764.4 1007.97C1753.61 981.563 1724.61 962.653 1690.53 962.653C1659.54 962.653 1632.74 978.295 1620.03 1000.99C1605.72 984.703 1583.14 974.194 1557.73 974.194C1517.27 974.194 1483.98 1000.84 1479.81 1035.04C1474.78 1036.68 1469.99 1038.75 1465.51 1041.21C1456.64 1038.18 1446.98 1036.52 1436.88 1036.52C1393.6 1036.52 1358.52 1067.01 1358.52 1104.61C1358.52 1142.22 1393.6 1172.71 1436.88 1172.71C1452.22 1172.71 1466.54 1168.87 1478.63 1162.25C1487.5 1165.27 1497.16 1166.94 1507.26 1166.94C1508.36 1166.94 1509.46 1166.92 1510.54 1166.88C1520.22 1194.95 1550.17 1215.41 1585.62 1215.41C1608.05 1215.41 1628.28 1207.22 1642.56 1194.09C1654.63 1218.19 1682.27 1235.03 1714.44 1235.03C1738.67 1235.03 1760.32 1225.48 1774.7 1210.46C1788.61 1221.43 1807.07 1228.11 1827.32 1228.11C1856.75 1228.11 1882.39 1214 1895.79 1193.15C1905.68 1197.07 1916.67 1199.25 1928.25 1199.25C1971.53 1199.25 2006.61 1168.77 2006.61 1131.16C2006.61 1093.55 1971.53 1063.06 1928.25 1063.06C1912.93 1063.06 1898.63 1066.89 1886.55 1073.5C1873.38 1055.76 1850.98 1043.69 1825.26 1042.4C1812.98 1023.45 1790.56 1010.12 1764.4 1007.97Z" fill="#FFFEF6"/>
<path fill-rule="evenodd" clip-rule="evenodd" d="M1724.56 1095.68C1713.77 1069.28 1684.77 1050.37 1650.69 1050.37C1619.7 1050.37 1592.9 1066.01 1580.19 1088.71C1565.88 1072.42 1543.29 1061.91 1517.89 1061.91C1477.43 1061.91 1444.13 1088.56 1439.97 1122.76C1434.94 1124.39 1430.15 1126.47 1425.67 1128.92C1416.8 1125.9 1407.14 1124.23 1397.04 1124.23C1353.76 1124.23 1318.68 1154.72 1318.68 1192.33C1318.68 1229.94 1353.76 1260.42 1397.04 1260.42C1412.38 1260.42 1426.7 1256.59 1438.79 1249.96C1447.66 1252.99 1457.32 1254.65 1467.42 1254.65C1468.52 1254.65 1469.61 1254.63 1470.7 1254.59C1480.37 1282.67 1510.33 1303.13 1545.78 1303.13C1568.21 1303.13 1588.44 1294.93 1602.72 1281.81C1614.79 1305.9 1642.43 1322.75 1674.6 1322.75C1698.83 1322.75 1720.48 1313.19 1734.86 1298.18C1748.77 1309.14 1767.23 1315.82 1787.48 1315.82C1816.91 1315.82 1842.55 1301.72 1855.95 1280.87C1865.84 1284.78 1876.83 1286.97 1888.41 1286.97C1931.69 1286.97 1966.77 1256.48 1966.77 1218.87C1966.77 1181.27 1931.69 1150.78 1888.41 1150.78C1873.09 1150.78 1858.79 1154.6 1846.72 1161.21C1833.54 1143.48 1811.14 1131.41 1785.42 1130.12C1773.14 1111.16 1750.72 1097.83 1724.56 1095.68Z" fill="#FFFEF6"/>
<path fill-rule="evenodd" clip-rule="evenodd" d="M1420.43 991.811C1409.65 965.405 1380.65 946.495 1346.57 946.495C1315.57 946.495 1288.78 962.137 1276.07 984.834C1261.75 968.545 1239.17 958.036 1213.77 958.036C1173.31 958.036 1140.01 984.684 1135.85 1018.88C1130.82 1020.52 1126.03 1022.59 1121.55 1025.05C1112.68 1022.02 1103.02 1020.36 1092.91 1020.36C1049.64 1020.36 1014.56 1050.85 1014.56 1088.45C1014.56 1126.06 1049.64 1156.55 1092.91 1156.55C1108.26 1156.55 1122.58 1152.71 1134.66 1146.09C1143.53 1149.12 1153.19 1150.78 1163.3 1150.78C1164.4 1150.78 1165.49 1150.76 1166.58 1150.72C1176.25 1178.79 1206.2 1199.25 1241.65 1199.25C1264.08 1199.25 1284.31 1191.06 1298.6 1177.93C1310.67 1202.03 1338.31 1218.87 1370.47 1218.87C1394.7 1218.87 1416.36 1209.32 1430.73 1194.31C1444.64 1205.27 1463.1 1211.95 1483.36 1211.95C1512.79 1211.95 1538.43 1197.85 1551.82 1176.99C1561.72 1180.91 1572.71 1183.09 1584.29 1183.09C1627.56 1183.09 1662.64 1152.61 1662.64 1115C1662.64 1077.39 1627.56 1046.91 1584.29 1046.91C1568.96 1046.91 1554.67 1050.73 1542.59 1057.34C1529.42 1039.61 1507.02 1027.53 1481.3 1026.25C1469.02 1007.29 1446.6 993.959 1420.43 991.811Z" fill="#FFFEF6"/>
<path fill-rule="evenodd" clip-rule="evenodd" d="M782.104 1156.79C771.3 1130.42 742.321 1111.54 708.268 1111.54C677.534 1111.54 650.933 1126.92 638.097 1149.3C623.757 1133.34 601.409 1123.08 576.303 1123.08C535.845 1123.08 502.549 1149.73 498.387 1183.93C493.354 1185.56 488.567 1187.64 484.086 1190.09C475.216 1187.07 465.556 1185.4 455.45 1185.4C412.176 1185.4 377.096 1215.89 377.096 1253.5C377.096 1291.11 412.176 1321.59 455.45 1321.59C470.797 1321.59 485.114 1317.76 497.201 1311.13C506.071 1314.16 515.73 1315.82 525.836 1315.82C535.227 1315.82 544.233 1314.39 552.578 1311.75C566.527 1322.89 585.135 1329.69 605.57 1329.69C628.783 1329.69 649.639 1320.91 663.987 1306.98C664.094 1307 664.201 1307.02 664.307 1307.04C678.652 1322.93 700.947 1333.14 725.986 1333.14C737.292 1333.14 748.039 1331.05 757.747 1327.31C758.793 1327.35 759.844 1327.36 760.901 1327.36C775.172 1327.36 788.553 1324.05 800.078 1318.25C811.603 1324.05 824.983 1327.36 839.255 1327.36C864.724 1327.36 887.355 1316.8 901.666 1300.45C915.999 1314.15 936.672 1322.75 959.657 1322.75C1002.93 1322.75 1038.01 1292.26 1038.01 1254.65C1038.01 1217.04 1002.93 1186.56 959.657 1186.56C937.582 1186.56 917.639 1194.49 903.397 1207.26C889.385 1188.78 865.295 1176.59 837.929 1176.59C835.695 1176.59 833.484 1176.67 831.298 1176.83C818.534 1165.58 801.302 1158.18 782.104 1156.79Z" fill="#FFFEF6"/>
</g>
<g filter="url(#filter2_d_312_200)">
<path d="M1937 4.00008C1937 339.052 1507.19 610.667 977 610.667C446.807 610.667 17 339.052 17 4.00008L977 4L1937 4.00008Z" fill="#FFFEF6"/>
</g>
</g>
<defs>
<filter id="filter0_dddd_312_200" x="0.658474" y="-0.00189066" width="1953.68" height="1400.7" filterUnits="userSpaceOnUse" color-interpolation-filters="sRGB">
<feFlood flood-opacity="0" result="BackgroundImageFix"/>
<feColorMatrix in="SourceAlpha" type="matrix" values="0 0 0 0 0 0 0 0 0 0 0 0 0 0 0 0 0 0 127 0" result="hardAlpha"/>
<feOffset dy="2.66793"/>
<feGaussianBlur stdDeviation="3.33491"/>
<feColorMatrix type="matrix" values="0 0 0 0 0 0 0 0 0 0 0 0 0 0 0 0 0 0 0.05 0"/>
<feBlend mode="normal" in2="BackgroundImageFix" result="effect1_dropShadow_312_200"/>
<feColorMatrix in="SourceAlpha" type="matrix" values="0 0 0 0 0 0 0 0 0 0 0 0 0 0 0 0 0 0 127 0" result="hardAlpha"/>
<feOffset dy="10.6717"/>
<feGaussianBlur stdDeviation="5.33585"/>
<feColorMatrix type="matrix" values="0 0 0 0 0 0 0 0 0 0 0 0 0 0 0 0 0 0 0.04 0"/>
<feBlend mode="normal" in2="effect1_dropShadow_312_200" result="effect2_dropShadow_312_200"/>
<feColorMatrix in="SourceAlpha" type="matrix" values="0 0 0 0 0 0 0 0 0 0 0 0 0 0 0 0 0 0 127 0" result="hardAlpha"/>
<feOffset dy="25.3453"/>
<feGaussianBlur stdDeviation="7.3368"/>
<feColorMatrix type="matrix" values="0 0 0 0 0 0 0 0 0 0 0 0 0 0 0 0 0 0 0.03 0"/>
<feBlend mode="normal" in2="effect2_dropShadow_312_200" result="effect3_dropShadow_312_200"/>
<feColorMatrix in="SourceAlpha" type="matrix" values="0 0 0 0 0 0 0 0 0 0 0 0 0 0 0 0 0 0 127 0" result="hardAlpha"/>
<feOffset dy="45.3548"/>
<feGaussianBlur stdDeviation="8.67076"/>
<feColorMatrix type="matrix" values="0 0 0 0 0 0 0 0 0 0 0 0 0 0 0 0 0 0 0.01 0"/>
<feBlend mode="normal" in2="effect3_dropShadow_312_200" result="effect4_dropShadow_312_200"/>
<feBlend mode="normal" in="SourceGraphic" in2="effect4_dropShadow_312_200" result="shape"/>
</filter>
<filter id="filter1_d_312_200" x="-132.877" y="941.159" width="2159.49" height="407.985" filterUnits="userSpaceOnUse" color-interpolation-filters="sRGB">
<feFlood flood-opacity="0" result="BackgroundImageFix"/>
<feColorMatrix in="SourceAlpha" type="matrix" values="0 0 0 0 0 0 0 0 0 0 0 0 0 0 0 0 0 0 127 0" result="hardAlpha"/>
<feOffset dx="9.33774" dy="5.33585"/>
<feGaussianBlur stdDeviation="5.33585"/>
<feComposite in2="hardAlpha" operator="out"/>
<feColorMatrix type="matrix" values="0 0 0 0 0.151771 0 0 0 0 0.420893 0 0 0 0 0.775 0 0 0 0.25 0"/>
<feBlend mode="normal" in2="BackgroundImageFix" result="effect1_dropShadow_312_200"/>
<feBlend mode="normal" in="SourceGraphic" in2="effect1_dropShadow_312_200" result="shape"/>
</filter>
<filter id="filter2_d_312_200" x="10.3302" y="2.66604" width="1933.34" height="620.006" filterUnits="userSpaceOnUse" color-interpolation-filters="sRGB">
<feFlood flood-opacity="0" result="BackgroundImageFix"/>
<feColorMatrix in="SourceAlpha" type="matrix" values="0 0 0 0 0 0 0 0 0 0 0 0 0 0 0 0 0 0 127 0" result="hardAlpha"/>
<feOffset dy="5.33585"/>
<feGaussianBlur stdDeviation="3.33491"/>
<feComposite in2="hardAlpha" operator="out"/>
<feColorMatrix type="matrix" values="0 0 0 0 0.151771 0 0 0 0 0.420893 0 0 0 0 0.775 0 0 0 0.25 0"/>
<feBlend mode="normal" in2="BackgroundImageFix" result="effect1_dropShadow_312_200"/>
<feBlend mode="normal" in="SourceGraphic" in2="effect1_dropShadow_312_200" result="shape"/>
</filter>
<clipPath id="clip0_312_200">
<rect width="1919" height="1334" fill="white" transform="translate(18 4)"/>
</clipPath>
</defs>
</svg>
