<svg width="1920" height="1080" viewBox="0 0 1920 1080" fill="none" xmlns="http://www.w3.org/2000/svg">
<g clip-path="url(#clip0_309_259)">
<g filter="url(#filter0_d_309_259)">
<path fill-rule="evenodd" clip-rule="evenodd" d="M632.824 678.019C621.999 647.513 592.884 625.667 558.666 625.667C527.546 625.667 500.646 643.737 487.888 669.958C473.514 651.14 450.842 639 425.334 639C384.715 639 351.286 669.785 347.107 709.296C342.055 711.186 337.249 713.581 332.751 716.419C323.845 712.921 314.147 711 304.001 711C260.554 711 225.334 746.22 225.334 789.667C225.334 833.113 260.554 868.333 304.001 868.333C319.409 868.333 333.783 863.903 345.918 856.248C354.823 859.746 364.521 861.667 374.667 861.667C375.771 861.667 376.869 861.644 377.962 861.599C387.672 894.031 417.743 917.667 453.334 917.667C475.854 917.667 496.164 908.204 510.504 893.038C522.622 920.872 550.371 940.333 582.667 940.333C606.991 940.333 628.737 929.293 643.167 911.951C657.13 924.616 675.664 932.333 696.001 932.333C725.55 932.333 751.293 916.042 764.74 891.951C774.67 896.478 785.708 899 797.334 899C840.78 899 876 863.78 876 820.333C876 776.887 840.78 741.667 797.334 741.667C781.948 741.667 767.594 746.084 755.47 753.719C742.243 733.234 719.758 719.287 693.932 717.799C681.605 695.9 659.095 680.5 632.824 678.019Z" fill="#FFFEF6"/>
<path fill-rule="evenodd" clip-rule="evenodd" d="M1098.16 752.685C1087.33 722.18 1058.22 700.333 1024 700.333C992.88 700.333 965.98 718.404 953.222 744.625C938.848 725.807 916.176 713.667 890.668 713.667C850.049 713.667 816.621 744.452 812.441 783.963C807.389 785.853 802.582 788.247 798.084 791.085C789.179 787.588 779.481 785.667 769.335 785.667C725.888 785.667 690.668 820.887 690.668 864.333C690.668 907.78 725.888 943 769.335 943C784.743 943 799.116 938.57 811.251 930.914C820.156 934.412 829.854 936.333 840 936.333C841.104 936.333 842.202 936.311 843.295 936.266C853.005 968.697 883.076 992.333 918.667 992.333C941.188 992.333 961.498 982.87 975.838 967.704C987.955 995.539 1015.71 1015 1048 1015C1072.32 1015 1094.07 1003.96 1108.5 986.618C1122.46 999.283 1141 1007 1161.33 1007C1190.88 1007 1216.63 990.708 1230.07 966.618C1240 971.145 1251.04 973.667 1262.67 973.667C1306.11 973.667 1341.33 938.446 1341.33 895C1341.33 851.554 1306.11 816.333 1262.67 816.333C1247.28 816.333 1232.93 820.75 1220.8 828.386C1207.58 807.9 1185.09 793.954 1159.27 792.466C1146.94 770.567 1124.43 755.167 1098.16 752.685Z" fill="#FFFEF6"/>
<path fill-rule="evenodd" clip-rule="evenodd" d="M231.491 779.352C220.665 748.846 191.551 727 157.333 727C126.213 727 99.3127 745.071 86.5544 771.292C72.1807 752.474 49.5081 740.333 23.9999 740.333C-16.6191 740.333 -50.0478 771.118 -54.2267 810.63C-59.279 812.52 -64.0851 814.914 -68.5834 817.752C-77.4888 814.254 -87.1867 812.333 -97.3333 812.333C-140.78 812.333 -176 847.553 -176 891C-176 934.446 -140.78 969.667 -97.3333 969.667C-81.925 969.667 -67.5513 965.237 -55.4165 957.581C-46.5111 961.079 -36.8131 963 -26.6665 963C-25.5629 963 -24.4645 962.977 -23.3719 962.932C-13.6618 995.364 16.409 1019 52.0004 1019C74.5202 1019 94.83 1009.54 109.17 994.371C121.288 1022.21 149.038 1041.67 181.333 1041.67C205.657 1041.67 227.403 1030.63 241.833 1013.28C255.796 1025.95 274.33 1033.67 294.667 1033.67C324.216 1033.67 349.96 1017.37 363.406 993.284C373.337 997.811 384.374 1000.33 396.001 1000.33C439.447 1000.33 474.667 965.113 474.667 921.667C474.667 878.22 439.447 843 396.001 843C380.615 843 366.26 847.417 354.136 855.053C340.909 834.567 318.424 820.621 292.6 819.132C280.272 797.234 257.762 781.833 231.491 779.352Z" fill="#FFFEF6"/>
<path fill-rule="evenodd" clip-rule="evenodd" d="M1727.49 678.019C1716.67 647.513 1687.55 625.667 1653.34 625.667C1622.21 625.667 1595.31 643.738 1582.56 669.959C1568.18 651.141 1545.51 639 1520 639C1479.38 639 1445.95 669.785 1441.78 709.296C1436.72 711.186 1431.92 713.581 1427.42 716.419C1418.51 712.921 1408.82 711 1398.67 711C1355.22 711 1320 746.22 1320 789.667C1320 833.113 1355.22 868.333 1398.67 868.333C1414.08 868.333 1428.45 863.903 1440.59 856.248C1449.49 859.746 1459.19 861.667 1469.34 861.667C1470.44 861.667 1471.54 861.644 1472.63 861.599C1482.34 894.031 1512.41 917.667 1548 917.667C1570.52 917.667 1590.83 908.204 1605.17 893.038C1617.29 920.872 1645.04 940.333 1677.33 940.333C1701.66 940.333 1723.4 929.293 1737.83 911.951C1751.8 924.616 1770.33 932.333 1790.67 932.333C1820.22 932.333 1845.96 916.042 1859.41 891.95C1869.34 896.478 1880.38 899 1892 899C1935.45 899 1970.67 863.78 1970.67 820.333C1970.67 776.887 1935.45 741.667 1892 741.667C1876.62 741.667 1862.26 746.084 1850.14 753.719C1836.91 733.234 1814.43 719.287 1788.6 717.799C1776.27 695.901 1753.76 680.5 1727.49 678.019Z" fill="#FFFEF6"/>
<path fill-rule="evenodd" clip-rule="evenodd" d="M1687.49 779.352C1676.67 748.846 1647.55 727 1613.33 727C1582.21 727 1555.31 745.071 1542.55 771.291C1528.18 752.474 1505.51 740.333 1480 740.333C1439.38 740.333 1405.95 771.119 1401.77 810.63C1396.72 812.52 1391.92 814.915 1387.42 817.753C1378.51 814.254 1368.81 812.333 1358.67 812.333C1315.22 812.333 1280 847.554 1280 891C1280 934.446 1315.22 969.667 1358.67 969.667C1374.08 969.667 1388.45 965.237 1400.58 957.581C1409.49 961.079 1419.19 963 1429.33 963C1430.44 963 1431.54 962.977 1432.63 962.932C1442.34 995.364 1472.41 1019 1508 1019C1530.52 1019 1550.83 1009.54 1565.17 994.371C1577.29 1022.21 1605.04 1041.67 1637.33 1041.67C1661.66 1041.67 1683.4 1030.63 1697.83 1013.28C1711.8 1025.95 1730.33 1033.67 1750.67 1033.67C1780.22 1033.67 1805.96 1017.37 1819.41 993.284C1829.34 997.811 1840.38 1000.33 1852 1000.33C1895.45 1000.33 1930.67 965.113 1930.67 921.667C1930.67 878.22 1895.45 843 1852 843C1836.62 843 1822.26 847.417 1810.14 855.052C1796.91 834.567 1774.43 820.621 1748.6 819.132C1736.27 797.234 1713.76 781.833 1687.49 779.352Z" fill="#FFFEF6"/>
<path fill-rule="evenodd" clip-rule="evenodd" d="M1382.16 659.352C1371.33 628.846 1342.22 607 1308 607C1276.88 607 1249.98 625.071 1237.22 651.293C1222.85 632.474 1200.18 620.333 1174.67 620.333C1134.05 620.333 1100.62 651.118 1096.44 690.629C1091.39 692.52 1086.58 694.914 1082.08 697.752C1073.18 694.254 1063.48 692.333 1053.33 692.333C1009.89 692.333 974.668 727.554 974.668 771C974.668 814.446 1009.89 849.667 1053.33 849.667C1068.74 849.667 1083.12 845.237 1095.25 837.581C1104.16 841.079 1113.85 843 1124 843C1125.11 843 1126.2 842.977 1127.3 842.932C1137.01 875.364 1167.08 899 1202.67 899C1225.19 899 1245.5 889.537 1259.84 874.371C1271.96 902.206 1299.71 921.667 1332 921.667C1356.32 921.667 1378.07 910.627 1392.5 893.284C1406.46 905.95 1425 913.666 1445.33 913.666C1474.88 913.666 1500.63 897.375 1514.07 873.284C1524 877.811 1535.04 880.333 1546.67 880.333C1590.12 880.333 1625.34 845.113 1625.34 801.667C1625.34 758.22 1590.12 723 1546.67 723C1531.28 723 1516.93 727.417 1504.8 735.052C1491.58 714.567 1469.09 700.62 1443.27 699.132C1430.94 677.234 1408.43 661.833 1382.16 659.352Z" fill="#FFFEF6"/>
<path fill-rule="evenodd" clip-rule="evenodd" d="M742.158 850.018C731.333 819.513 702.218 797.667 668 797.667C636.88 797.667 609.98 815.737 597.222 841.958C582.848 823.14 560.176 811 534.668 811C494.049 811 460.62 841.785 456.441 881.296C451.389 883.186 446.583 885.581 442.085 888.419C433.179 884.921 423.481 883 413.335 883C369.888 883 334.668 918.22 334.668 961.666C334.668 1005.11 369.888 1040.33 413.335 1040.33C428.743 1040.33 443.117 1035.9 455.251 1028.25C464.157 1031.75 473.855 1033.67 484.001 1033.67C485.105 1033.67 486.203 1033.64 487.296 1033.6C497.006 1066.03 527.077 1089.67 562.668 1089.67C585.188 1089.67 605.498 1080.2 619.838 1065.04C631.956 1092.87 659.705 1112.33 692.001 1112.33C716.325 1112.33 738.071 1101.29 752.501 1083.95C766.464 1096.62 784.998 1104.33 805.335 1104.33C834.884 1104.33 860.627 1088.04 874.073 1063.95C884.004 1068.48 895.042 1071 906.668 1071C950.114 1071 985.334 1035.78 985.334 992.333C985.334 948.887 950.114 913.667 906.668 913.667C891.282 913.667 876.928 918.084 864.804 925.719C851.577 905.234 829.092 891.288 803.267 889.799C790.94 867.9 768.429 852.499 742.158 850.018Z" fill="#FFFEF6"/>
</g>
</g>
<defs>
<filter id="filter0_d_309_259" x="-177.333" y="601.667" width="2168" height="526.666" filterUnits="userSpaceOnUse" color-interpolation-filters="sRGB">
<feFlood flood-opacity="0" result="BackgroundImageFix"/>
<feColorMatrix in="SourceAlpha" type="matrix" values="0 0 0 0 0 0 0 0 0 0 0 0 0 0 0 0 0 0 127 0" result="hardAlpha"/>
<feOffset dx="9.33333" dy="5.33333"/>
<feGaussianBlur stdDeviation="5.33333"/>
<feComposite in2="hardAlpha" operator="out"/>
<feColorMatrix type="matrix" values="0 0 0 0 0.151771 0 0 0 0 0.420893 0 0 0 0 0.775 0 0 0 0.25 0"/>
<feBlend mode="normal" in2="BackgroundImageFix" result="effect1_dropShadow_309_259"/>
<feBlend mode="normal" in="SourceGraphic" in2="effect1_dropShadow_309_259" result="shape"/>
</filter>
<clipPath id="clip0_309_259">
<rect width="1920" height="1080" fill="white"/>
</clipPath>
</defs>
</svg>
