<svg width="1465" height="850" viewBox="0 0 1465 850" fill="none" xmlns="http://www.w3.org/2000/svg">
<g clip-path="url(#clip0_200_390)" filter="url(#filter0_dddd_200_390)">
<rect width="1439" height="800" transform="translate(13 3)" fill="#EFF5FF"/>
<g filter="url(#filter1_d_200_390)">
<path d="M1452 3.00006C1452 254.289 1129.65 458 732 458C334.355 458 12 254.289 12 3.00006L732 3L1452 3.00006Z" fill="#FFFEF6"/>
</g>
<g filter="url(#filter2_d_200_390)">
<path fill-rule="evenodd" clip-rule="evenodd" d="M203.346 22.1736C167.8 15.5962 133.391 37.9408 126.41 72.1931C119.41 106.534 142.629 139.84 178.272 146.584C213.915 153.328 248.484 130.957 255.484 96.6163C255.493 96.5718 255.502 96.5273 255.511 96.4829L190.699 84.2192L203.346 22.1736Z" fill="#FFDE67"/>
<ellipse cx="5.41724" cy="5.26651" rx="5.41724" ry="5.26651" transform="matrix(0.935309 0.352608 -0.376452 0.92693 154.044 46.1315)" fill="#1C276D"/>
<ellipse cx="5.41724" cy="5.26651" rx="5.41724" ry="5.26651" transform="matrix(0.935309 0.352608 -0.376452 0.92693 170.933 52.4984)" fill="#1C276D"/>
<path d="M153.211 66.3678C154.231 69.9174 158.54 75.783 167.62 70.8487" stroke="#1C276D"/>
<path d="M146.945 67.7733C148.871 68.657 153.013 69.0515 154.174 63.5602" stroke="#1C276D"/>
<path d="M169.484 68.1875C167.878 69.5395 165.858 73.0452 170.628 76.2522" stroke="#1C276D"/>
</g>
<g filter="url(#filter3_d_200_390)">
<path fill-rule="evenodd" clip-rule="evenodd" d="M198.236 730.863C197.033 731.419 195.792 731.916 194.514 732.352C171.801 740.091 146.202 725.276 137.337 699.261C137.08 698.508 136.841 697.754 136.617 696.999L136.525 697.03C136.81 697.764 137.08 698.508 137.337 699.261C146.199 725.269 134.982 752.624 112.282 760.373C134.99 752.648 160.577 767.462 169.439 793.47C169.696 794.223 169.936 794.978 170.159 795.733L170.251 795.701C169.967 794.967 169.696 794.223 169.439 793.47C160.575 767.455 171.801 740.091 194.514 732.352C195.792 731.916 197.078 731.552 198.371 731.258L198.236 730.863ZM108.54 761.868C109.737 761.315 110.972 760.82 112.242 760.386C110.971 760.819 109.691 761.18 108.406 761.474L108.54 761.868Z" fill="#4395E6"/>
</g>
<g filter="url(#filter4_d_200_390)">
<path fill-rule="evenodd" clip-rule="evenodd" d="M1314.55 116.449C1313.88 116.159 1313.21 115.834 1312.56 115.472C1301.01 109.046 1297.83 93.5149 1305.44 80.7605C1297.78 93.489 1282.23 98.5995 1270.68 92.1738C1270.03 91.8119 1269.4 91.4212 1268.81 91.0036L1268.69 91.1973C1269.36 91.4867 1270.03 91.8119 1270.68 92.1738C1282.23 98.6001 1285.41 114.134 1277.8 126.889C1285.45 114.158 1301.01 109.046 1312.56 115.472C1313.21 115.834 1313.84 116.225 1314.43 116.642L1314.55 116.449ZM1277.74 126.977C1277.53 127.331 1277.31 127.68 1277.09 128.022L1277.13 128.048C1277.33 127.689 1277.53 127.332 1277.74 126.977ZM1305.5 80.665C1305.71 80.3119 1305.93 79.9647 1306.15 79.6235L1306.11 79.5975C1305.91 79.9553 1305.71 80.3112 1305.5 80.665Z" fill="#4395E6"/>
</g>
<line x1="75.5" y1="641" x2="75.5" y2="41" stroke="#1C276D"/>
<line x1="1386.5" y1="686.9" x2="1386.5" y2="86.8995" stroke="#1C276D"/>
<line x1="65.7461" y1="686.546" x2="85.545" y2="666.747" stroke="#1C276D"/>
<line x1="85.5449" y1="687.253" x2="65.7459" y2="667.454" stroke="#1C276D"/>
<line x1="1373" y1="51.0132" x2="1401" y2="51.0132" stroke="#1C276D"/>
<g filter="url(#filter5_d_200_390)">
<path fill-rule="evenodd" clip-rule="evenodd" d="M1283.26 134.195C1281.92 133.621 1280.6 132.975 1279.31 132.256C1280.6 132.975 1281.84 133.752 1283.03 134.581L1283.26 134.195ZM1265.11 63.1049C1249.95 88.509 1256.29 119.44 1279.29 132.244C1256.26 119.442 1225.25 129.649 1210.01 155.046C1225.22 129.625 1218.89 98.6448 1195.86 85.8336C1194.56 85.1127 1193.24 84.4646 1191.9 83.888L1192.13 83.5023C1193.32 84.3341 1194.56 85.1126 1195.86 85.8336C1218.87 98.6336 1249.85 88.4564 1265.11 63.1049ZM1208.63 157.253L1208.72 157.305C1209.12 156.573 1209.53 155.844 1209.97 155.12C1209.53 155.843 1209.08 156.555 1208.63 157.253ZM1265.23 62.8963C1265.65 62.196 1266.09 61.5072 1266.53 60.8302L1266.44 60.7784C1266.05 61.4883 1265.65 62.1944 1265.23 62.8963Z" fill="#4395E6"/>
</g>
<ellipse cx="1232.57" cy="101.261" rx="4.86441" ry="2" transform="rotate(-63.7176 1232.57 101.261)" fill="#1C276D"/>
<ellipse cx="1248.71" cy="109.231" rx="4.86441" ry="2" transform="rotate(-63.7176 1248.71 109.231)" fill="#1C276D"/>
<g filter="url(#filter6_d_200_390)">
<path fill-rule="evenodd" clip-rule="evenodd" d="M1283.26 134.195C1281.92 133.621 1280.6 132.975 1279.31 132.256C1280.6 132.975 1281.84 133.752 1283.03 134.581L1283.26 134.195ZM1265.11 63.1049C1249.95 88.509 1256.29 119.44 1279.29 132.244C1256.26 119.442 1225.25 129.649 1210.01 155.046C1225.22 129.625 1218.89 98.6448 1195.86 85.8336C1194.56 85.1127 1193.24 84.4646 1191.9 83.888L1192.13 83.5023C1193.32 84.3341 1194.56 85.1126 1195.86 85.8336C1218.87 98.6336 1249.85 88.4564 1265.11 63.1049ZM1208.63 157.253L1208.72 157.305C1209.12 156.573 1209.53 155.844 1209.97 155.12C1209.53 155.843 1209.08 156.555 1208.63 157.253ZM1265.23 62.8963C1265.65 62.196 1266.09 61.5072 1266.53 60.8302L1266.44 60.7784C1266.05 61.4883 1265.65 62.1944 1265.23 62.8963Z" fill="#4395E6"/>
</g>
<ellipse cx="1232.57" cy="101.261" rx="4.86441" ry="2" transform="rotate(-63.7176 1232.57 101.261)" fill="#1C276D"/>
<ellipse cx="1248.71" cy="109.231" rx="4.86441" ry="2" transform="rotate(-63.7176 1248.71 109.231)" fill="#1C276D"/>
<line x1="1385.07" y1="40.6464" x2="1389.64" y2="45.223" stroke="#1C276D"/>
<line x1="1385.07" y1="57.0962" x2="1389.64" y2="61.6727" stroke="#1C276D"/>
</g>
<defs>
<filter id="filter0_dddd_200_390" x="0" y="0" width="1465" height="850" filterUnits="userSpaceOnUse" color-interpolation-filters="sRGB">
<feFlood flood-opacity="0" result="BackgroundImageFix"/>
<feColorMatrix in="SourceAlpha" type="matrix" values="0 0 0 0 0 0 0 0 0 0 0 0 0 0 0 0 0 0 127 0" result="hardAlpha"/>
<feOffset dy="2"/>
<feGaussianBlur stdDeviation="2.5"/>
<feColorMatrix type="matrix" values="0 0 0 0 0 0 0 0 0 0 0 0 0 0 0 0 0 0 0.05 0"/>
<feBlend mode="normal" in2="BackgroundImageFix" result="effect1_dropShadow_200_390"/>
<feColorMatrix in="SourceAlpha" type="matrix" values="0 0 0 0 0 0 0 0 0 0 0 0 0 0 0 0 0 0 127 0" result="hardAlpha"/>
<feOffset dy="8"/>
<feGaussianBlur stdDeviation="4"/>
<feColorMatrix type="matrix" values="0 0 0 0 0 0 0 0 0 0 0 0 0 0 0 0 0 0 0.04 0"/>
<feBlend mode="normal" in2="effect1_dropShadow_200_390" result="effect2_dropShadow_200_390"/>
<feColorMatrix in="SourceAlpha" type="matrix" values="0 0 0 0 0 0 0 0 0 0 0 0 0 0 0 0 0 0 127 0" result="hardAlpha"/>
<feOffset dy="19"/>
<feGaussianBlur stdDeviation="5.5"/>
<feColorMatrix type="matrix" values="0 0 0 0 0 0 0 0 0 0 0 0 0 0 0 0 0 0 0.03 0"/>
<feBlend mode="normal" in2="effect2_dropShadow_200_390" result="effect3_dropShadow_200_390"/>
<feColorMatrix in="SourceAlpha" type="matrix" values="0 0 0 0 0 0 0 0 0 0 0 0 0 0 0 0 0 0 127 0" result="hardAlpha"/>
<feOffset dy="34"/>
<feGaussianBlur stdDeviation="6.5"/>
<feColorMatrix type="matrix" values="0 0 0 0 0 0 0 0 0 0 0 0 0 0 0 0 0 0 0.01 0"/>
<feBlend mode="normal" in2="effect3_dropShadow_200_390" result="effect4_dropShadow_200_390"/>
<feBlend mode="normal" in="SourceGraphic" in2="effect4_dropShadow_200_390" result="shape"/>
</filter>
<filter id="filter1_d_200_390" x="7" y="2" width="1450" height="465" filterUnits="userSpaceOnUse" color-interpolation-filters="sRGB">
<feFlood flood-opacity="0" result="BackgroundImageFix"/>
<feColorMatrix in="SourceAlpha" type="matrix" values="0 0 0 0 0 0 0 0 0 0 0 0 0 0 0 0 0 0 127 0" result="hardAlpha"/>
<feOffset dy="4"/>
<feGaussianBlur stdDeviation="2.5"/>
<feComposite in2="hardAlpha" operator="out"/>
<feColorMatrix type="matrix" values="0 0 0 0 0.151771 0 0 0 0 0.420893 0 0 0 0 0.775 0 0 0 0.25 0"/>
<feBlend mode="normal" in2="BackgroundImageFix" result="effect1_dropShadow_200_390"/>
<feBlend mode="normal" in="SourceGraphic" in2="effect1_dropShadow_200_390" result="shape"/>
</filter>
<filter id="filter2_d_200_390" x="125.164" y="21.0254" width="138.347" height="134.759" filterUnits="userSpaceOnUse" color-interpolation-filters="sRGB">
<feFlood flood-opacity="0" result="BackgroundImageFix"/>
<feColorMatrix in="SourceAlpha" type="matrix" values="0 0 0 0 0 0 0 0 0 0 0 0 0 0 0 0 0 0 127 0" result="hardAlpha"/>
<feOffset dx="4" dy="4"/>
<feGaussianBlur stdDeviation="2"/>
<feComposite in2="hardAlpha" operator="out"/>
<feColorMatrix type="matrix" values="0 0 0 0 0.151771 0 0 0 0 0.420893 0 0 0 0 0.775 0 0 0 0.25 0"/>
<feBlend mode="normal" in2="BackgroundImageFix" result="effect1_dropShadow_200_390"/>
<feBlend mode="normal" in="SourceGraphic" in2="effect1_dropShadow_200_390" result="shape"/>
</filter>
<filter id="filter3_d_200_390" x="108.406" y="696.999" width="97.9648" height="106.734" filterUnits="userSpaceOnUse" color-interpolation-filters="sRGB">
<feFlood flood-opacity="0" result="BackgroundImageFix"/>
<feColorMatrix in="SourceAlpha" type="matrix" values="0 0 0 0 0 0 0 0 0 0 0 0 0 0 0 0 0 0 127 0" result="hardAlpha"/>
<feOffset dx="4" dy="4"/>
<feGaussianBlur stdDeviation="2"/>
<feComposite in2="hardAlpha" operator="out"/>
<feColorMatrix type="matrix" values="0 0 0 0 0.151771 0 0 0 0 0.420893 0 0 0 0 0.775 0 0 0 0.25 0"/>
<feBlend mode="normal" in2="BackgroundImageFix" result="effect1_dropShadow_200_390"/>
<feBlend mode="normal" in="SourceGraphic" in2="effect1_dropShadow_200_390" result="shape"/>
</filter>
<filter id="filter4_d_200_390" x="1268.69" y="79.5975" width="53.8594" height="56.451" filterUnits="userSpaceOnUse" color-interpolation-filters="sRGB">
<feFlood flood-opacity="0" result="BackgroundImageFix"/>
<feColorMatrix in="SourceAlpha" type="matrix" values="0 0 0 0 0 0 0 0 0 0 0 0 0 0 0 0 0 0 127 0" result="hardAlpha"/>
<feOffset dx="4" dy="4"/>
<feGaussianBlur stdDeviation="2"/>
<feComposite in2="hardAlpha" operator="out"/>
<feColorMatrix type="matrix" values="0 0 0 0 0.151771 0 0 0 0 0.420893 0 0 0 0 0.775 0 0 0 0.25 0"/>
<feBlend mode="normal" in2="BackgroundImageFix" result="effect1_dropShadow_200_390"/>
<feBlend mode="normal" in="SourceGraphic" in2="effect1_dropShadow_200_390" result="shape"/>
</filter>
<filter id="filter5_d_200_390" x="1191.9" y="60.7784" width="99.3633" height="104.527" filterUnits="userSpaceOnUse" color-interpolation-filters="sRGB">
<feFlood flood-opacity="0" result="BackgroundImageFix"/>
<feColorMatrix in="SourceAlpha" type="matrix" values="0 0 0 0 0 0 0 0 0 0 0 0 0 0 0 0 0 0 127 0" result="hardAlpha"/>
<feOffset dx="4" dy="4"/>
<feGaussianBlur stdDeviation="2"/>
<feComposite in2="hardAlpha" operator="out"/>
<feColorMatrix type="matrix" values="0 0 0 0 0.151771 0 0 0 0 0.420893 0 0 0 0 0.775 0 0 0 0.25 0"/>
<feBlend mode="normal" in2="BackgroundImageFix" result="effect1_dropShadow_200_390"/>
<feBlend mode="normal" in="SourceGraphic" in2="effect1_dropShadow_200_390" result="shape"/>
</filter>
<filter id="filter6_d_200_390" x="1191.9" y="60.7784" width="99.3633" height="104.527" filterUnits="userSpaceOnUse" color-interpolation-filters="sRGB">
<feFlood flood-opacity="0" result="BackgroundImageFix"/>
<feColorMatrix in="SourceAlpha" type="matrix" values="0 0 0 0 0 0 0 0 0 0 0 0 0 0 0 0 0 0 127 0" result="hardAlpha"/>
<feOffset dx="4" dy="4"/>
<feGaussianBlur stdDeviation="2"/>
<feComposite in2="hardAlpha" operator="out"/>
<feColorMatrix type="matrix" values="0 0 0 0 0.151771 0 0 0 0 0.420893 0 0 0 0 0.775 0 0 0 0.25 0"/>
<feBlend mode="normal" in2="BackgroundImageFix" result="effect1_dropShadow_200_390"/>
<feBlend mode="normal" in="SourceGraphic" in2="effect1_dropShadow_200_390" result="shape"/>
</filter>
<clipPath id="clip0_200_390">
<rect width="1439" height="800" fill="white" transform="translate(13 3)"/>
</clipPath>
</defs>
</svg>
