<svg width="2169" height="528" viewBox="0 0 2169 528" fill="none" xmlns="http://www.w3.org/2000/svg">
<g filter="url(#filter0_d_258_1190)">
<path fill-rule="evenodd" clip-rule="evenodd" d="M810.823 77.0185C799.998 46.5129 770.883 24.6665 736.665 24.6665C705.545 24.6665 678.645 42.7372 665.887 68.958C651.513 50.1402 628.841 37.9998 603.333 37.9998C562.714 37.9998 529.285 68.7851 525.106 108.296C520.054 110.186 515.248 112.581 510.75 115.419C501.844 111.921 492.146 110 482 110C438.553 110 403.333 145.22 403.333 188.666C403.333 232.113 438.553 267.333 482 267.333C497.408 267.333 511.782 262.903 523.917 255.247C532.822 258.746 542.52 260.667 552.666 260.667C553.77 260.667 554.868 260.644 555.961 260.599C565.671 293.031 595.742 316.667 631.333 316.667C653.853 316.667 674.163 307.204 688.503 292.038C700.621 319.872 728.371 339.333 760.666 339.333C784.99 339.333 806.736 328.293 821.166 310.951C835.129 323.616 853.663 331.333 874 331.333C903.549 331.333 929.292 315.042 942.739 290.951C952.669 295.478 963.707 298 975.333 298C1018.78 298 1054 262.78 1054 219.333C1054 175.887 1018.78 140.666 975.333 140.666C959.947 140.666 945.593 145.084 933.469 152.719C920.242 132.233 897.757 118.287 871.931 116.799C859.604 94.9004 837.094 79.4998 810.823 77.0185Z" fill="#FFFEF6"/>
<path fill-rule="evenodd" clip-rule="evenodd" d="M1276.16 151.685C1265.33 121.18 1236.22 99.3333 1202 99.3333C1170.88 99.3333 1143.98 117.404 1131.22 143.625C1116.85 124.807 1094.18 112.667 1068.67 112.667C1028.05 112.667 994.622 143.452 990.442 182.962C985.39 184.853 980.583 187.247 976.085 190.085C967.18 186.587 957.482 184.667 947.336 184.667C903.889 184.667 868.669 219.887 868.669 263.333C868.669 306.78 903.889 342 947.336 342C962.744 342 977.117 337.57 989.252 329.914C998.157 333.412 1007.86 335.333 1018 335.333C1019.11 335.333 1020.2 335.311 1021.3 335.266C1031.01 367.697 1061.08 391.333 1096.67 391.333C1119.19 391.333 1139.5 381.87 1153.84 366.704C1165.96 394.539 1193.71 414 1226 414C1250.33 414 1272.07 402.96 1286.5 385.618C1300.46 398.283 1319 406 1339.34 406C1368.88 406 1394.63 389.708 1408.07 365.618C1418.01 370.145 1429.04 372.667 1440.67 372.667C1484.12 372.667 1519.34 337.446 1519.34 294C1519.34 250.554 1484.12 215.333 1440.67 215.333C1425.28 215.333 1410.93 219.75 1398.8 227.386C1385.58 206.9 1363.09 192.954 1337.27 191.465C1324.94 169.567 1302.43 154.167 1276.16 151.685Z" fill="#FFFEF6"/>
<path fill-rule="evenodd" clip-rule="evenodd" d="M409.491 178.352C398.665 147.846 369.551 126 335.333 126C304.213 126 277.313 144.071 264.554 170.292C250.181 151.474 227.508 139.333 202 139.333C161.381 139.333 127.952 170.119 123.773 209.63C118.721 211.52 113.915 213.914 109.417 216.752C100.511 213.254 90.8133 211.333 80.6667 211.333C37.2203 211.333 2 246.554 2 290C2 333.446 37.2203 368.667 80.6667 368.667C96.075 368.667 110.449 364.237 122.584 356.581C131.489 360.079 141.187 362 151.333 362C152.437 362 153.535 361.977 154.628 361.932C164.338 394.364 194.409 418 230 418C252.52 418 272.83 408.537 287.17 393.371C299.288 421.206 327.038 440.667 359.333 440.667C383.657 440.667 405.403 429.627 419.833 412.284C433.796 424.95 452.33 432.667 472.667 432.667C502.216 432.667 527.96 416.375 541.406 392.284C551.337 396.811 562.374 399.333 574.001 399.333C617.447 399.333 652.667 364.113 652.667 320.667C652.667 277.22 617.447 242 574.001 242C558.615 242 544.26 246.417 532.136 254.053C518.909 233.567 496.424 219.621 470.6 218.132C458.272 196.234 435.762 180.833 409.491 178.352Z" fill="#FFFEF6"/>
<path fill-rule="evenodd" clip-rule="evenodd" d="M1905.49 77.0186C1894.67 46.513 1865.55 24.6667 1831.33 24.6667C1800.21 24.6667 1773.31 42.7378 1760.56 68.9589C1746.18 50.1406 1723.51 37.9999 1698 37.9999C1657.38 37.9999 1623.95 68.7852 1619.77 108.296C1614.72 110.186 1609.92 112.581 1605.42 115.419C1596.51 111.921 1586.81 110 1576.67 110C1533.22 110 1498 145.22 1498 188.667C1498 232.113 1533.22 267.333 1576.67 267.333C1592.08 267.333 1606.45 262.903 1618.58 255.248C1627.49 258.746 1637.19 260.667 1647.33 260.667C1648.44 260.667 1649.54 260.644 1650.63 260.599C1660.34 293.031 1690.41 316.667 1726 316.667C1748.52 316.667 1768.83 307.204 1783.17 292.038C1795.29 319.872 1823.04 339.333 1855.33 339.333C1879.66 339.333 1901.4 328.293 1915.83 310.951C1929.8 323.616 1948.33 331.333 1968.67 331.333C1998.22 331.333 2023.96 315.042 2037.41 290.951C2047.34 295.478 2058.38 298 2070 298C2113.45 298 2148.67 262.78 2148.67 219.333C2148.67 175.887 2113.45 140.667 2070 140.667C2054.62 140.667 2040.26 145.084 2028.14 152.719C2014.91 132.234 1992.42 118.287 1966.6 116.799C1954.27 94.9006 1931.76 79.5001 1905.49 77.0186Z" fill="#FFFEF6"/>
<path fill-rule="evenodd" clip-rule="evenodd" d="M1865.49 178.352C1854.67 147.846 1825.55 126 1791.33 126C1760.21 126 1733.31 144.071 1720.55 170.291C1706.18 151.474 1683.51 139.333 1658 139.333C1617.38 139.333 1583.95 170.118 1579.77 209.63C1574.72 211.52 1569.92 213.914 1565.42 216.752C1556.51 213.254 1546.81 211.333 1536.67 211.333C1493.22 211.333 1458 246.554 1458 290C1458 333.446 1493.22 368.667 1536.67 368.667C1552.08 368.667 1566.45 364.237 1578.58 356.581C1587.49 360.079 1597.19 362 1607.33 362C1608.44 362 1609.54 361.977 1610.63 361.932C1620.34 394.364 1650.41 418 1686 418C1708.52 418 1728.83 408.537 1743.17 393.371C1755.29 421.206 1783.04 440.667 1815.33 440.667C1839.66 440.667 1861.4 429.627 1875.83 412.284C1889.8 424.95 1908.33 432.667 1928.67 432.667C1958.22 432.667 1983.96 416.375 1997.41 392.284C2007.34 396.811 2018.37 399.333 2030 399.333C2073.45 399.333 2108.67 364.113 2108.67 320.667C2108.67 277.22 2073.45 242 2030 242C2014.62 242 2000.26 246.417 1988.14 254.052C1974.91 233.567 1952.43 219.621 1926.6 218.132C1914.27 196.234 1891.76 180.833 1865.49 178.352Z" fill="#FFFEF6"/>
<path fill-rule="evenodd" clip-rule="evenodd" d="M1560.16 58.3517C1549.33 27.8462 1520.22 6 1486 6C1454.88 6 1427.98 24.0714 1415.22 50.2929C1400.85 31.4741 1378.18 19.3331 1352.67 19.3331C1312.05 19.3331 1278.62 50.1184 1274.44 89.6295C1269.39 91.5196 1264.58 93.9143 1260.08 96.7523C1251.18 93.2543 1241.48 91.3333 1231.33 91.3333C1187.89 91.3333 1152.67 126.554 1152.67 170C1152.67 213.446 1187.89 248.667 1231.33 248.667C1246.74 248.667 1261.12 244.237 1273.25 236.581C1282.16 240.079 1291.85 242 1302 242C1303.1 242 1304.2 241.977 1305.3 241.932C1315.01 274.364 1345.08 298 1380.67 298C1403.19 298 1423.5 288.537 1437.84 273.371C1449.95 301.206 1477.7 320.667 1510 320.667C1534.32 320.667 1556.07 309.627 1570.5 292.284C1584.46 304.95 1603 312.666 1623.33 312.666C1652.88 312.666 1678.63 296.375 1692.07 272.284C1702 276.811 1713.04 279.333 1724.67 279.333C1768.11 279.333 1803.33 244.113 1803.33 200.667C1803.33 157.22 1768.11 122 1724.67 122C1709.28 122 1694.93 126.417 1682.8 134.052C1669.58 113.567 1647.09 99.6204 1621.27 98.1319C1608.94 76.2338 1586.43 60.8333 1560.16 58.3517Z" fill="#FFFEF6"/>
<path fill-rule="evenodd" clip-rule="evenodd" d="M920.158 249.018C909.333 218.513 880.218 196.667 846 196.667C814.88 196.667 787.98 214.737 775.222 240.958C760.848 222.14 738.176 210 712.668 210C672.049 210 638.62 240.785 634.441 280.296C629.389 282.186 624.583 284.581 620.085 287.419C611.179 283.921 601.481 282 591.335 282C547.888 282 512.668 317.22 512.668 360.666C512.668 404.113 547.888 439.333 591.335 439.333C606.743 439.333 621.117 434.903 633.251 427.247C642.157 430.746 651.855 432.667 662.001 432.667C663.105 432.667 664.203 432.644 665.296 432.599C675.006 465.031 705.077 488.667 740.668 488.667C763.188 488.667 783.498 479.204 797.838 464.038C809.956 491.872 837.705 511.333 870.001 511.333C894.325 511.333 916.071 500.293 930.501 482.951C944.464 495.616 962.998 503.333 983.335 503.333C1012.88 503.333 1038.63 487.042 1052.07 462.951C1062 467.478 1073.04 470 1084.67 470C1128.11 470 1163.33 434.78 1163.33 391.333C1163.33 347.887 1128.11 312.666 1084.67 312.666C1069.28 312.666 1054.93 317.084 1042.8 324.719C1029.58 304.234 1007.09 290.288 981.267 288.799C968.94 266.9 946.429 251.499 920.158 249.018Z" fill="#FFFEF6"/>
</g>
<defs>
<filter id="filter0_d_258_1190" x="0.666665" y="0.666667" width="2168" height="526.666" filterUnits="userSpaceOnUse" color-interpolation-filters="sRGB">
<feFlood flood-opacity="0" result="BackgroundImageFix"/>
<feColorMatrix in="SourceAlpha" type="matrix" values="0 0 0 0 0 0 0 0 0 0 0 0 0 0 0 0 0 0 127 0" result="hardAlpha"/>
<feOffset dx="9.33333" dy="5.33333"/>
<feGaussianBlur stdDeviation="5.33333"/>
<feComposite in2="hardAlpha" operator="out"/>
<feColorMatrix type="matrix" values="0 0 0 0 0.151771 0 0 0 0 0.420893 0 0 0 0 0.775 0 0 0 0.25 0"/>
<feBlend mode="normal" in2="BackgroundImageFix" result="effect1_dropShadow_258_1190"/>
<feBlend mode="normal" in="SourceGraphic" in2="effect1_dropShadow_258_1190" result="shape"/>
</filter>
</defs>
</svg>
