<svg width="181" height="209" viewBox="0 0 181 209" fill="none" xmlns="http://www.w3.org/2000/svg">
<rect x="20.1709" y="4" width="158.363" height="178.207" stroke="#4395E6" stroke-width="4"/>
<path d="M1 28.7013L18.5939 2.06104V182.454H179.999V207.927H18C8.61116 207.927 1 200.316 1 190.927V28.7013Z" fill="#276BC6" stroke="#4395E6"/>
<path d="M18.1709 184.408C12.9242 184.408 8.6709 188.661 8.6709 193.908C8.6709 199.154 12.9242 203.408 18.1709 203.408V184.408ZM18.1709 203.408H180.533V184.408H18.1709V203.408Z" fill="#EFF5FF"/>
<path d="M88.8213 74.864H106.677V77.552H88.8213V74.864ZM101.685 73.136L103.381 71.472C104.469 71.984 105.781 72.816 106.421 73.52L104.661 75.344C104.021 74.64 102.741 73.744 101.685 73.136ZM102.997 78.448L105.973 79.024C104.373 84.688 101.269 89.04 97.0773 91.728C96.6933 91.152 95.6373 89.936 94.9973 89.424C98.9973 87.152 101.749 83.344 102.997 78.448ZM88.4693 87.088C90.8053 86.832 94.1653 86.416 97.5253 85.968L97.6213 88.528C94.5173 89.008 91.3813 89.488 88.8213 89.872L88.4693 87.088ZM92.1173 80.976V83.024H94.2613V80.976H92.1173ZM89.6533 78.928H96.8213V85.04H89.6533V78.928ZM97.3973 72.112H100.597C100.821 80.08 101.909 87.6 104.021 88.112C104.373 88.208 104.629 86.96 104.789 85.072C105.365 85.68 106.517 86.576 107.157 86.896C106.677 90.864 104.949 92.08 102.837 91.12C98.8373 89.84 97.8773 81.328 97.3973 72.112ZM84.0533 68.208H111.477V96.976H107.669V71.664H87.6693V96.976H84.0533V68.208ZM86.3253 92.208H109.749V95.632H86.3253V92.208ZM103.893 120L107.893 121.088C104.021 132.832 96.6613 139.392 84.9173 142.848C84.5013 141.92 83.3173 140.128 82.5813 139.232C93.9093 136.416 100.693 130.656 103.893 120ZM91.5413 120.224C94.8373 129.632 101.877 136.448 113.109 139.04C112.213 139.872 111.093 141.568 110.485 142.624C98.7413 139.488 91.9893 132.192 87.9573 121.344L91.5413 120.224ZM83.1893 118.208H112.501V121.984H83.1893V118.208ZM94.9653 113.696L99.0613 112.48C99.8933 113.984 100.885 116.032 101.237 117.376L96.8853 118.72C96.5973 117.408 95.7653 115.296 94.9653 113.696Z" fill="#276BC6"/>
<path d="M38.8373 31.252C35.4713 31.252 32.7533 28.84 32.7533 24.394C32.7533 20.002 35.5613 17.446 38.9453 17.446C40.6373 17.446 41.9873 18.238 42.8513 19.138L41.4473 20.848C40.7633 20.182 40.0073 19.732 38.9813 19.732C36.9833 19.732 35.4713 21.46 35.4713 24.304C35.4713 27.22 36.8213 28.948 38.9453 28.948C40.0793 28.948 40.9793 28.408 41.6813 27.634L43.0853 29.308C41.9873 30.586 40.5653 31.252 38.8373 31.252ZM45.0158 31V16.654H47.6618V20.272L47.5358 22.162C48.3278 21.406 49.3358 20.686 50.7038 20.686C52.8638 20.686 53.8178 22.198 53.8178 24.718V31H51.1718V25.06C51.1718 23.476 50.7218 22.954 49.7498 22.954C48.9218 22.954 48.3998 23.35 47.6618 24.07V31H45.0158ZM56.5294 31V20.938H59.1754V31H56.5294ZM57.8434 19.3C56.9254 19.3 56.3134 18.724 56.3134 17.842C56.3134 16.978 56.9254 16.42 57.8434 16.42C58.7614 16.42 59.3914 16.978 59.3914 17.842C59.3914 18.724 58.7614 19.3 57.8434 19.3ZM61.9962 31V20.938H64.1382L64.3542 22.27H64.4082C65.2722 21.406 66.3162 20.686 67.6842 20.686C69.8442 20.686 70.7982 22.198 70.7982 24.718V31H68.1522V25.06C68.1522 23.476 67.7022 22.954 66.7302 22.954C65.9022 22.954 65.3802 23.35 64.6422 24.07V31H61.9962ZM77.9195 31.252C75.0935 31.252 72.8975 29.308 72.8975 25.978C72.8975 22.702 75.2015 20.686 77.5775 20.686C80.3675 20.686 81.7895 22.702 81.7895 25.492C81.7895 25.996 81.7355 26.464 81.6815 26.716H75.4535C75.6875 28.372 76.7675 29.218 78.2615 29.218C79.0715 29.218 79.7915 28.966 80.5295 28.516L81.4115 30.154C80.4215 30.838 79.1615 31.252 77.9195 31.252ZM75.4175 24.952H79.5395C79.5395 23.584 78.9275 22.72 77.6315 22.72C76.5695 22.72 75.6335 23.476 75.4175 24.952ZM86.8665 31.252C85.5165 31.252 84.0225 30.676 83.0325 29.848L84.2205 28.174C85.1385 28.876 85.9845 29.29 86.9205 29.29C87.9285 29.29 88.3965 28.84 88.3965 28.21C88.3965 27.472 87.3345 27.112 86.2905 26.716C85.0125 26.212 83.5905 25.456 83.5905 23.746C83.5905 21.964 85.0305 20.686 87.3345 20.686C88.7925 20.686 89.9445 21.28 90.7725 21.928L89.5665 23.512C88.8645 23.008 88.1445 22.648 87.4065 22.648C86.4885 22.648 86.0745 23.044 86.0745 23.638C86.0745 24.358 86.9925 24.646 88.0725 25.024C89.4045 25.528 90.8625 26.212 90.8625 28.066C90.8625 29.848 89.4765 31.252 86.8665 31.252ZM97.2906 31.252C94.4646 31.252 92.2686 29.308 92.2686 25.978C92.2686 22.702 94.5726 20.686 96.9486 20.686C99.7386 20.686 101.161 22.702 101.161 25.492C101.161 25.996 101.107 26.464 101.053 26.716H94.8246C95.0586 28.372 96.1386 29.218 97.6326 29.218C98.4426 29.218 99.1626 28.966 99.9006 28.516L100.783 30.154C99.7926 30.838 98.5326 31.252 97.2906 31.252ZM94.7886 24.952H98.9106C98.9106 23.584 98.2986 22.72 97.0026 22.72C95.9406 22.72 95.0046 23.476 94.7886 24.952Z" fill="#276BC6"/>
</svg>
