<svg width="181" height="209" viewBox="0 0 181 209" fill="none" xmlns="http://www.w3.org/2000/svg">
<rect x="20.2383" y="4" width="158.363" height="178.207" fill="#FFFEF6" stroke="#4395E6" stroke-width="4"/>
<path d="M1.06738 28.7013L18.6613 2.06104V182.454H180.066V207.927H18.0674C8.67854 207.927 1.06738 200.316 1.06738 190.927V28.7013Z" fill="#276BC6" stroke="#4395E6"/>
<path d="M18.2383 184.408C12.9916 184.408 8.73828 188.661 8.73828 193.908C8.73828 199.154 12.9916 203.408 18.2383 203.408V184.408ZM18.2383 203.408H180.601V184.408H18.2383V203.408Z" fill="#EFF5FF"/>
<path d="M88.8886 74.864H106.745V77.552H88.8886V74.864ZM101.753 73.136L103.449 71.472C104.537 71.984 105.849 72.816 106.489 73.52L104.729 75.344C104.089 74.64 102.809 73.744 101.753 73.136ZM103.065 78.448L106.041 79.024C104.441 84.688 101.337 89.04 97.1446 91.728C96.7606 91.152 95.7046 89.936 95.0646 89.424C99.0646 87.152 101.817 83.344 103.065 78.448ZM88.5366 87.088C90.8726 86.832 94.2326 86.416 97.5926 85.968L97.6886 88.528C94.5846 89.008 91.4486 89.488 88.8886 89.872L88.5366 87.088ZM92.1846 80.976V83.024H94.3286V80.976H92.1846ZM89.7206 78.928H96.8886V85.04H89.7206V78.928ZM97.4646 72.112H100.665C100.889 80.08 101.977 87.6 104.089 88.112C104.441 88.208 104.697 86.96 104.857 85.072C105.433 85.68 106.585 86.576 107.225 86.896C106.745 90.864 105.017 92.08 102.905 91.12C98.9046 89.84 97.9446 81.328 97.4646 72.112ZM84.1206 68.208H111.545V96.976H107.737V71.664H87.7366V96.976H84.1206V68.208ZM86.3926 92.208H109.817V95.632H86.3926V92.208ZM103.961 120L107.961 121.088C104.089 132.832 96.7286 139.392 84.9846 142.848C84.5686 141.92 83.3846 140.128 82.6486 139.232C93.9766 136.416 100.761 130.656 103.961 120ZM91.6086 120.224C94.9046 129.632 101.945 136.448 113.177 139.04C112.281 139.872 111.161 141.568 110.553 142.624C98.8086 139.488 92.0566 132.192 88.0246 121.344L91.6086 120.224ZM83.2566 118.208H112.569V121.984H83.2566V118.208ZM95.0326 113.696L99.1286 112.48C99.9606 113.984 100.953 116.032 101.305 117.376L96.9526 118.72C96.6646 117.408 95.8326 115.296 95.0326 113.696Z" fill="#276BC6"/>
<path d="M38.9046 31.252C35.5386 31.252 32.8206 28.84 32.8206 24.394C32.8206 20.002 35.6286 17.446 39.0126 17.446C40.7046 17.446 42.0546 18.238 42.9186 19.138L41.5146 20.848C40.8306 20.182 40.0746 19.732 39.0486 19.732C37.0506 19.732 35.5386 21.46 35.5386 24.304C35.5386 27.22 36.8886 28.948 39.0126 28.948C40.1466 28.948 41.0466 28.408 41.7486 27.634L43.1526 29.308C42.0546 30.586 40.6326 31.252 38.9046 31.252ZM45.0831 31V16.654H47.7291V20.272L47.6031 22.162C48.3951 21.406 49.4031 20.686 50.7711 20.686C52.9311 20.686 53.8851 22.198 53.8851 24.718V31H51.2391V25.06C51.2391 23.476 50.7891 22.954 49.8171 22.954C48.9891 22.954 48.4671 23.35 47.7291 24.07V31H45.0831ZM56.5968 31V20.938H59.2428V31H56.5968ZM57.9108 19.3C56.9928 19.3 56.3808 18.724 56.3808 17.842C56.3808 16.978 56.9928 16.42 57.9108 16.42C58.8288 16.42 59.4588 16.978 59.4588 17.842C59.4588 18.724 58.8288 19.3 57.9108 19.3ZM62.0636 31V20.938H64.2056L64.4216 22.27H64.4756C65.3396 21.406 66.3836 20.686 67.7516 20.686C69.9116 20.686 70.8656 22.198 70.8656 24.718V31H68.2196V25.06C68.2196 23.476 67.7696 22.954 66.7976 22.954C65.9696 22.954 65.4476 23.35 64.7096 24.07V31H62.0636ZM77.9869 31.252C75.1609 31.252 72.9649 29.308 72.9649 25.978C72.9649 22.702 75.2689 20.686 77.6449 20.686C80.4349 20.686 81.8569 22.702 81.8569 25.492C81.8569 25.996 81.8029 26.464 81.7489 26.716H75.5209C75.7549 28.372 76.8349 29.218 78.3289 29.218C79.1389 29.218 79.8589 28.966 80.5969 28.516L81.4789 30.154C80.4889 30.838 79.2289 31.252 77.9869 31.252ZM75.4849 24.952H79.6069C79.6069 23.584 78.9949 22.72 77.6989 22.72C76.6369 22.72 75.7009 23.476 75.4849 24.952ZM86.9338 31.252C85.5838 31.252 84.0898 30.676 83.0998 29.848L84.2878 28.174C85.2058 28.876 86.0518 29.29 86.9878 29.29C87.9958 29.29 88.4638 28.84 88.4638 28.21C88.4638 27.472 87.4018 27.112 86.3578 26.716C85.0798 26.212 83.6578 25.456 83.6578 23.746C83.6578 21.964 85.0978 20.686 87.4018 20.686C88.8598 20.686 90.0118 21.28 90.8398 21.928L89.6338 23.512C88.9318 23.008 88.2118 22.648 87.4738 22.648C86.5558 22.648 86.1418 23.044 86.1418 23.638C86.1418 24.358 87.0598 24.646 88.1398 25.024C89.4718 25.528 90.9298 26.212 90.9298 28.066C90.9298 29.848 89.5438 31.252 86.9338 31.252ZM97.3579 31.252C94.5319 31.252 92.3359 29.308 92.3359 25.978C92.3359 22.702 94.6399 20.686 97.0159 20.686C99.8059 20.686 101.228 22.702 101.228 25.492C101.228 25.996 101.174 26.464 101.12 26.716H94.8919C95.1259 28.372 96.2059 29.218 97.6999 29.218C98.5099 29.218 99.2299 28.966 99.9679 28.516L100.85 30.154C99.8599 30.838 98.5999 31.252 97.3579 31.252ZM94.8559 24.952H98.9779C98.9779 23.584 98.3659 22.72 97.0699 22.72C96.0079 22.72 95.0719 23.476 94.8559 24.952Z" fill="#276BC6"/>
</svg>
