<svg width="1920" height="1080" viewBox="0 0 1920 1080" fill="none" xmlns="http://www.w3.org/2000/svg">
<g clip-path="url(#clip0_304_59)">
<g filter="url(#filter0_d_304_59)">
<path d="M1920 7.50567e-05C1920 335.052 1490.19 606.667 960 606.667C429.807 606.667 0 335.052 0 7.50567e-05L960 0L1920 7.50567e-05Z" fill="#FFFEF6"/>
</g>
<g filter="url(#filter1_d_304_59)">
<path fill-rule="evenodd" clip-rule="evenodd" d="M656.614 910.474C645.832 884.069 616.833 865.158 582.751 865.158C551.754 865.158 524.961 880.801 512.253 903.498C497.936 887.209 475.354 876.7 449.947 876.7C409.489 876.7 376.193 903.347 372.03 937.548C366.998 939.185 362.211 941.257 357.73 943.714C348.86 940.686 339.201 939.024 329.095 939.024C285.821 939.024 250.74 969.511 250.74 1007.12C250.74 1044.73 285.821 1075.21 329.095 1075.21C344.442 1075.21 358.759 1071.38 370.845 1064.75C379.715 1067.78 389.374 1069.44 399.48 1069.44C400.58 1069.44 401.674 1069.42 402.762 1069.38C412.434 1097.46 442.385 1117.92 477.836 1117.92C500.267 1117.92 520.496 1109.73 534.779 1096.6C546.848 1120.69 574.489 1137.54 606.656 1137.54C630.884 1137.54 652.543 1127.98 666.916 1112.97C680.824 1123.93 699.284 1130.61 719.54 1130.61C748.972 1130.61 774.613 1116.51 788.006 1095.66C797.898 1099.58 808.892 1101.76 820.472 1101.76C863.746 1101.76 898.827 1071.27 898.827 1033.66C898.827 996.056 863.746 965.569 820.472 965.569C805.147 965.569 790.85 969.392 778.774 976.002C765.6 958.269 743.203 946.197 717.481 944.909C705.202 925.953 682.781 912.622 656.614 910.474Z" fill="#FFFEF6"/>
<path fill-rule="evenodd" clip-rule="evenodd" d="M1120.1 975.107C1109.32 948.701 1080.32 929.791 1046.24 929.791C1015.24 929.791 988.446 945.433 975.738 968.13C961.422 951.841 938.839 941.332 913.433 941.332C872.975 941.332 839.68 967.979 835.517 1002.18C830.483 1003.82 825.696 1005.89 821.214 1008.35C812.344 1005.32 802.685 1003.66 792.579 1003.66C749.305 1003.66 714.225 1034.14 714.225 1071.75C714.225 1109.36 749.305 1139.85 792.579 1139.85C807.926 1139.85 822.243 1136.01 834.33 1129.38C843.2 1132.41 852.859 1134.07 862.965 1134.07C864.065 1134.07 865.159 1134.05 866.248 1134.02C875.92 1162.09 905.872 1182.55 941.322 1182.55C963.752 1182.55 983.981 1174.36 998.265 1161.23C1010.33 1185.32 1037.97 1202.17 1070.14 1202.17C1094.37 1202.17 1116.03 1192.61 1130.4 1177.6C1144.31 1188.56 1162.77 1195.24 1183.03 1195.24C1212.46 1195.24 1238.1 1181.14 1251.49 1160.29C1261.38 1164.21 1272.38 1166.39 1283.96 1166.39C1327.23 1166.39 1362.31 1135.9 1362.31 1098.3C1362.31 1060.69 1327.23 1030.2 1283.96 1030.2C1268.63 1030.2 1254.33 1034.03 1242.26 1040.63C1229.08 1022.9 1206.69 1010.83 1180.97 1009.54C1168.69 990.585 1146.27 977.255 1120.1 975.107Z" fill="#FFFEF6"/>
<path fill-rule="evenodd" clip-rule="evenodd" d="M-0.259735 1157.16C0.839645 1157.16 1.93375 1157.14 3.02211 1157.1C12.6937 1185.17 42.6453 1205.63 78.0955 1205.63C100.526 1205.63 120.756 1197.44 135.039 1184.31C147.108 1208.41 174.748 1225.25 206.916 1225.25C231.143 1225.25 252.803 1215.7 267.176 1200.68C281.083 1211.65 299.544 1218.33 319.8 1218.33C349.231 1218.33 374.873 1204.23 388.266 1183.37C398.157 1187.29 409.151 1189.47 420.731 1189.47C464.005 1189.47 499.085 1158.99 499.085 1121.38C499.085 1083.77 464.005 1053.28 420.731 1053.28C405.406 1053.28 391.109 1057.11 379.033 1063.72C365.859 1045.98 343.463 1033.91 317.74 1032.62C305.462 1013.67 283.041 1000.34 256.874 998.19C246.092 971.784 217.092 952.873 183.011 952.873C158.333 952.873 136.321 962.788 121.958 978.283C109.52 954.969 82.3501 938.799 50.8348 938.799C7.56076 938.799 -27.5198 969.286 -27.5198 1006.89C-27.5198 1012.95 -26.6108 1018.82 -24.9049 1024.4C-30.9687 1026.15 -36.7042 1028.52 -42.01 1031.43C-50.88 1028.4 -60.5392 1026.74 -70.6454 1026.74C-113.919 1026.74 -149 1057.23 -149 1094.83C-149 1132.44 -113.919 1162.93 -70.6454 1162.93C-55.2983 1162.93 -40.9817 1159.09 -28.8951 1152.47C-20.0251 1155.49 -10.3659 1157.16 -0.259735 1157.16Z" fill="#FFFEF6"/>
<path fill-rule="evenodd" clip-rule="evenodd" d="M1746.94 910.474C1736.16 884.069 1707.16 865.158 1673.08 865.158C1642.08 865.158 1615.29 880.8 1602.58 903.497C1588.26 887.208 1565.68 876.7 1540.27 876.7C1499.81 876.7 1466.52 903.347 1462.36 937.548C1457.32 939.184 1452.54 941.257 1448.05 943.714C1439.18 940.686 1429.53 939.024 1419.42 939.024C1376.15 939.024 1341.06 969.511 1341.06 1007.12C1341.06 1044.73 1376.15 1075.21 1419.42 1075.21C1434.77 1075.21 1449.08 1071.38 1461.17 1064.75C1470.04 1067.78 1479.7 1069.44 1489.8 1069.44C1490.9 1069.44 1492 1069.42 1493.09 1069.38C1502.76 1097.46 1532.71 1117.92 1568.16 1117.92C1590.59 1117.92 1610.82 1109.72 1625.1 1096.6C1637.17 1120.69 1664.81 1137.54 1696.98 1137.54C1721.21 1137.54 1742.87 1127.98 1757.24 1112.97C1771.15 1123.93 1789.61 1130.61 1809.86 1130.61C1839.3 1130.61 1864.94 1116.51 1878.33 1095.66C1888.22 1099.58 1899.22 1101.76 1910.8 1101.76C1954.07 1101.76 1989.15 1071.27 1989.15 1033.66C1989.15 996.056 1954.07 965.569 1910.8 965.569C1895.47 965.569 1881.17 969.392 1869.1 976.002C1855.92 958.269 1833.53 946.198 1807.8 944.909C1795.53 925.953 1773.11 912.622 1746.94 910.474Z" fill="#FFFEF6"/>
<path fill-rule="evenodd" clip-rule="evenodd" d="M1707.1 998.19C1696.32 971.784 1667.32 952.873 1633.24 952.873C1602.24 952.873 1575.44 968.516 1562.74 991.213C1548.42 974.924 1525.84 964.415 1500.43 964.415C1459.97 964.415 1426.68 991.063 1422.51 1025.26C1417.48 1026.9 1412.7 1028.97 1408.21 1031.43C1399.34 1028.4 1389.69 1026.74 1379.58 1026.74C1336.31 1026.74 1301.22 1057.23 1301.22 1094.83C1301.22 1132.44 1336.31 1162.93 1379.58 1162.93C1394.93 1162.93 1409.24 1159.09 1421.33 1152.47C1430.2 1155.49 1439.86 1157.16 1449.96 1157.16C1451.06 1157.16 1452.16 1157.14 1453.25 1157.1C1462.92 1185.17 1492.87 1205.63 1528.32 1205.63C1550.75 1205.63 1570.98 1197.44 1585.26 1184.31C1597.33 1208.41 1624.97 1225.25 1657.14 1225.25C1681.37 1225.25 1703.03 1215.7 1717.4 1200.68C1731.31 1211.65 1749.77 1218.33 1770.02 1218.33C1799.46 1218.33 1825.1 1204.22 1838.49 1183.37C1848.38 1187.29 1859.38 1189.47 1870.96 1189.47C1914.23 1189.47 1949.31 1158.99 1949.31 1121.38C1949.31 1083.77 1914.23 1053.28 1870.96 1053.28C1855.63 1053.28 1841.33 1057.11 1829.26 1063.72C1816.08 1045.98 1793.69 1033.91 1767.96 1032.62C1755.69 1013.67 1733.27 1000.34 1707.1 998.19Z" fill="#FFFEF6"/>
<path fill-rule="evenodd" clip-rule="evenodd" d="M1402.98 894.316C1392.19 867.91 1363.19 849 1329.11 849C1298.12 849 1271.32 864.642 1258.61 887.339C1244.3 871.05 1221.72 860.541 1196.31 860.541C1155.85 860.541 1122.56 887.189 1118.39 921.39C1113.36 923.026 1108.57 925.099 1104.09 927.556C1095.22 924.528 1085.56 922.865 1075.46 922.865C1032.18 922.865 997.102 953.352 997.102 990.96C997.102 1028.57 1032.18 1059.05 1075.46 1059.05C1090.8 1059.05 1105.12 1055.22 1117.21 1048.59C1126.08 1051.62 1135.74 1053.28 1145.84 1053.28C1146.94 1053.28 1148.04 1053.26 1149.12 1053.23C1158.8 1081.3 1188.75 1101.76 1224.2 1101.76C1246.63 1101.76 1266.86 1093.57 1281.14 1080.44C1293.21 1104.53 1320.85 1121.38 1353.02 1121.38C1377.24 1121.38 1398.9 1111.82 1413.28 1096.81C1427.18 1107.77 1445.65 1114.45 1465.9 1114.45C1495.33 1114.45 1520.97 1100.35 1534.37 1079.5C1544.26 1083.42 1555.25 1085.6 1566.83 1085.6C1610.11 1085.6 1645.19 1055.11 1645.19 1017.51C1645.19 979.898 1610.11 949.411 1566.83 949.411C1551.51 949.411 1537.21 953.234 1525.13 959.844C1511.96 942.111 1489.56 930.039 1463.84 928.751C1451.56 909.795 1429.14 896.464 1402.98 894.316Z" fill="#FFFEF6"/>
<path fill-rule="evenodd" clip-rule="evenodd" d="M764.647 1059.29C753.843 1032.92 724.864 1014.04 690.811 1014.04C660.077 1014.04 633.476 1029.42 620.64 1051.81C606.3 1035.85 583.952 1025.58 558.846 1025.58C518.388 1025.58 485.092 1052.23 480.93 1086.43C475.897 1088.07 471.109 1090.14 466.629 1092.6C457.759 1089.57 448.099 1087.91 437.993 1087.91C394.719 1087.91 359.639 1118.4 359.639 1156C359.639 1193.61 394.719 1224.1 437.993 1224.1C453.34 1224.1 467.657 1220.26 479.744 1213.64C488.614 1216.66 498.273 1218.33 508.379 1218.33C517.77 1218.33 526.776 1216.89 535.121 1214.26C549.07 1225.39 567.678 1232.19 588.113 1232.19C611.326 1232.19 632.182 1223.42 646.53 1209.48C646.637 1209.5 646.743 1209.53 646.85 1209.55C661.195 1225.43 683.49 1235.64 708.529 1235.64C719.835 1235.64 730.582 1233.56 740.29 1229.81C741.336 1229.85 742.387 1229.87 743.444 1229.87C757.715 1229.87 771.096 1226.55 782.621 1220.76C794.146 1226.55 807.526 1229.87 821.798 1229.87C847.267 1229.87 869.898 1219.31 884.209 1202.95C898.542 1216.65 919.215 1225.25 942.2 1225.25C985.474 1225.25 1020.55 1194.77 1020.55 1157.16C1020.55 1119.55 985.474 1089.06 942.2 1089.06C920.125 1089.06 900.182 1097 885.94 1109.76C871.928 1091.29 847.838 1079.09 820.472 1079.09C818.238 1079.09 816.027 1079.17 813.841 1079.33C801.077 1068.09 783.845 1060.68 764.647 1059.29Z" fill="#FFFEF6"/>
</g>
</g>
<defs>
<filter id="filter0_d_304_59" x="-6.66982" y="-1.33396" width="1933.34" height="620.006" filterUnits="userSpaceOnUse" color-interpolation-filters="sRGB">
<feFlood flood-opacity="0" result="BackgroundImageFix"/>
<feColorMatrix in="SourceAlpha" type="matrix" values="0 0 0 0 0 0 0 0 0 0 0 0 0 0 0 0 0 0 127 0" result="hardAlpha"/>
<feOffset dy="5.33585"/>
<feGaussianBlur stdDeviation="3.33491"/>
<feComposite in2="hardAlpha" operator="out"/>
<feColorMatrix type="matrix" values="0 0 0 0 0.151771 0 0 0 0 0.420893 0 0 0 0 0.775 0 0 0 0.25 0"/>
<feBlend mode="normal" in2="BackgroundImageFix" result="effect1_dropShadow_304_59"/>
<feBlend mode="normal" in="SourceGraphic" in2="effect1_dropShadow_304_59" result="shape"/>
</filter>
<filter id="filter1_d_304_59" x="-150.334" y="843.664" width="2159.49" height="407.985" filterUnits="userSpaceOnUse" color-interpolation-filters="sRGB">
<feFlood flood-opacity="0" result="BackgroundImageFix"/>
<feColorMatrix in="SourceAlpha" type="matrix" values="0 0 0 0 0 0 0 0 0 0 0 0 0 0 0 0 0 0 127 0" result="hardAlpha"/>
<feOffset dx="9.33774" dy="5.33585"/>
<feGaussianBlur stdDeviation="5.33585"/>
<feComposite in2="hardAlpha" operator="out"/>
<feColorMatrix type="matrix" values="0 0 0 0 0.151771 0 0 0 0 0.420893 0 0 0 0 0.775 0 0 0 0.25 0"/>
<feBlend mode="normal" in2="BackgroundImageFix" result="effect1_dropShadow_304_59"/>
<feBlend mode="normal" in="SourceGraphic" in2="effect1_dropShadow_304_59" result="shape"/>
</filter>
<clipPath id="clip0_304_59">
<rect width="1920" height="1080" fill="white"/>
</clipPath>
</defs>
</svg>
