<svg width="2395" height="1437" viewBox="0 0 2395 1437" fill="none" xmlns="http://www.w3.org/2000/svg">
<g clip-path="url(#clip0_304_59)">
<g filter="url(#filter0_d_304_59)">
<path fill-rule="evenodd" clip-rule="evenodd" d="M819.059 1211.44C805.609 1176.3 769.436 1151.14 726.922 1151.14C688.257 1151.14 654.835 1171.95 638.983 1202.15C621.125 1180.48 592.955 1166.5 561.263 1166.5C510.796 1166.5 469.263 1201.95 464.07 1247.46C457.793 1249.64 451.821 1252.4 446.232 1255.66C435.168 1251.64 423.119 1249.42 410.513 1249.42C356.533 1249.42 312.773 1289.99 312.773 1340.03C312.773 1390.07 356.533 1430.63 410.513 1430.63C429.657 1430.63 447.515 1425.53 462.592 1416.71C473.656 1420.74 485.705 1422.95 498.311 1422.95C499.683 1422.95 501.048 1422.93 502.405 1422.87C514.469 1460.23 551.831 1487.45 596.051 1487.45C624.032 1487.45 649.266 1476.55 667.083 1459.08C682.138 1491.14 716.616 1513.56 756.741 1513.56C786.963 1513.56 813.98 1500.84 831.909 1480.87C849.258 1495.45 872.285 1504.34 897.552 1504.34C934.265 1504.34 966.25 1485.58 982.957 1457.83C995.296 1463.05 1009.01 1465.95 1023.45 1465.95C1077.43 1465.95 1121.19 1425.39 1121.19 1375.35C1121.19 1325.31 1077.43 1284.74 1023.45 1284.74C1004.34 1284.74 986.504 1289.83 971.441 1298.62C955.007 1275.03 927.07 1258.97 894.983 1257.25C879.667 1232.03 851.699 1214.29 819.059 1211.44Z" fill="#FFFEF6"/>
<path fill-rule="evenodd" clip-rule="evenodd" d="M1397.21 1297.43C1383.76 1262.3 1347.59 1237.14 1305.07 1237.14C1266.41 1237.14 1232.99 1257.95 1217.13 1288.15C1199.27 1266.48 1171.11 1252.49 1139.41 1252.49C1088.95 1252.49 1047.41 1287.95 1042.22 1333.46C1035.94 1335.63 1029.97 1338.39 1024.38 1341.66C1013.32 1337.63 1001.27 1335.42 988.661 1335.42C934.681 1335.42 890.922 1375.98 890.922 1426.02C890.922 1476.06 934.681 1516.63 988.661 1516.63C1007.81 1516.63 1025.66 1511.53 1040.74 1502.71C1051.8 1506.74 1063.85 1508.95 1076.46 1508.95C1077.83 1508.95 1079.2 1508.92 1080.56 1508.87C1092.62 1546.22 1129.98 1573.45 1174.2 1573.45C1202.18 1573.45 1227.42 1562.55 1245.23 1545.08C1260.29 1577.14 1294.77 1599.55 1334.89 1599.55C1365.11 1599.55 1392.13 1586.84 1410.06 1566.86C1427.41 1581.45 1450.43 1590.34 1475.7 1590.34C1512.41 1590.34 1544.4 1571.58 1561.11 1543.83C1573.45 1549.04 1587.16 1551.95 1601.6 1551.95C1655.58 1551.95 1699.34 1511.38 1699.34 1461.34C1699.34 1411.3 1655.58 1370.74 1601.6 1370.74C1582.49 1370.74 1564.65 1375.83 1549.59 1384.62C1533.16 1361.03 1505.22 1344.97 1473.13 1343.25C1457.82 1318.03 1429.85 1300.29 1397.21 1297.43Z" fill="#FFFEF6"/>
<path fill-rule="evenodd" clip-rule="evenodd" d="M-0.323349 1539.66C1.04802 1539.66 2.4128 1539.64 3.77042 1539.58C15.8347 1576.94 53.1962 1604.16 97.4167 1604.16C125.397 1604.16 150.631 1593.26 168.448 1575.79C183.503 1607.85 217.981 1630.27 258.107 1630.27C288.328 1630.27 315.346 1617.55 333.274 1597.58C350.623 1612.16 373.651 1621.05 398.918 1621.05C435.63 1621.05 467.616 1602.29 484.322 1574.54C496.66 1579.76 510.374 1582.66 524.819 1582.66C578.798 1582.66 622.558 1542.1 622.558 1492.06C622.558 1442.02 578.798 1401.45 524.819 1401.45C505.702 1401.45 487.868 1406.54 472.805 1415.33C456.371 1391.74 428.435 1375.68 396.349 1373.96C381.032 1348.74 353.065 1331 320.425 1328.15C306.975 1293.01 270.801 1267.85 228.288 1267.85C197.505 1267.85 170.046 1281.04 152.131 1301.66C136.615 1270.64 102.724 1249.12 63.4118 1249.12C9.43192 1249.12 -34.3274 1289.69 -34.3274 1339.73C-34.3274 1347.78 -33.1935 1355.59 -31.0656 1363.03C-38.6295 1365.35 -45.784 1368.5 -52.4025 1372.37C-63.4668 1368.35 -75.5157 1366.13 -88.1221 1366.13C-142.102 1366.13 -185.861 1406.7 -185.861 1456.74C-185.861 1506.78 -142.102 1547.34 -88.1221 1547.34C-68.9782 1547.34 -51.1198 1542.24 -36.0429 1533.42C-24.9786 1537.45 -12.9297 1539.66 -0.323349 1539.66Z" fill="#FFFEF6"/>
<path fill-rule="evenodd" clip-rule="evenodd" d="M2179.13 1211.44C2165.68 1176.3 2129.5 1151.14 2086.99 1151.14C2048.32 1151.14 2014.9 1171.95 1999.05 1202.15C1981.19 1180.48 1953.02 1166.5 1921.33 1166.5C1870.86 1166.5 1829.33 1201.95 1824.14 1247.46C1817.86 1249.64 1811.89 1252.4 1806.3 1255.66C1795.23 1251.64 1783.19 1249.42 1770.58 1249.42C1716.6 1249.42 1672.84 1289.99 1672.84 1340.03C1672.84 1390.07 1716.6 1430.63 1770.58 1430.63C1789.72 1430.63 1807.58 1425.53 1822.66 1416.71C1833.72 1420.74 1845.77 1422.95 1858.38 1422.95C1859.75 1422.95 1861.11 1422.93 1862.47 1422.87C1874.54 1460.23 1911.9 1487.45 1956.12 1487.45C1984.1 1487.45 2009.33 1476.55 2027.15 1459.08C2042.2 1491.14 2076.68 1513.56 2116.81 1513.56C2147.03 1513.56 2174.05 1500.84 2191.98 1480.87C2209.32 1495.45 2232.35 1504.34 2257.62 1504.34C2294.33 1504.34 2326.32 1485.58 2343.02 1457.83C2355.36 1463.05 2369.07 1465.95 2383.52 1465.95C2437.5 1465.95 2481.26 1425.39 2481.26 1375.35C2481.26 1325.31 2437.5 1284.74 2383.52 1284.74C2364.4 1284.74 2346.57 1289.83 2331.51 1298.62C2315.07 1275.03 2287.14 1258.97 2255.05 1257.25C2239.73 1232.03 2211.77 1214.29 2179.13 1211.44Z" fill="#FFFEF6"/>
<path fill-rule="evenodd" clip-rule="evenodd" d="M2129.43 1328.15C2115.98 1293.01 2079.8 1267.85 2037.29 1267.85C1998.63 1267.85 1965.2 1288.66 1949.35 1318.86C1931.49 1297.19 1903.32 1283.21 1871.63 1283.21C1821.16 1283.21 1779.63 1318.66 1774.44 1364.17C1768.16 1366.35 1762.19 1369.11 1756.6 1372.37C1745.54 1368.35 1733.49 1366.13 1720.88 1366.13C1666.9 1366.13 1623.14 1406.7 1623.14 1456.74C1623.14 1506.78 1666.9 1547.34 1720.88 1547.34C1740.03 1547.34 1757.88 1542.24 1772.96 1533.42C1784.03 1537.45 1796.07 1539.66 1808.68 1539.66C1810.05 1539.66 1811.42 1539.64 1812.77 1539.58C1824.84 1576.94 1862.2 1604.16 1906.42 1604.16C1934.4 1604.16 1959.63 1593.26 1977.45 1575.79C1992.51 1607.85 2026.98 1630.27 2067.11 1630.27C2097.33 1630.27 2124.35 1617.55 2142.28 1597.58C2159.63 1612.16 2182.65 1621.05 2207.92 1621.05C2244.63 1621.05 2276.62 1602.29 2293.33 1574.54C2305.66 1579.76 2319.38 1582.66 2333.82 1582.66C2387.8 1582.66 2431.56 1542.1 2431.56 1492.06C2431.56 1442.02 2387.8 1401.45 2333.82 1401.45C2314.71 1401.45 2296.87 1406.54 2281.81 1415.33C2265.38 1391.74 2237.44 1375.68 2205.35 1373.96C2190.04 1348.74 2162.07 1331 2129.43 1328.15Z" fill="#FFFEF6"/>
<path fill-rule="evenodd" clip-rule="evenodd" d="M1750.07 1189.94C1736.62 1154.8 1700.44 1129.64 1657.93 1129.64C1619.26 1129.64 1585.84 1150.45 1569.99 1180.65C1552.13 1158.98 1523.96 1145 1492.27 1145C1441.81 1145 1400.27 1180.45 1395.08 1225.96C1388.8 1228.14 1382.83 1230.9 1377.24 1234.16C1366.18 1230.14 1354.13 1227.92 1341.52 1227.92C1287.54 1227.92 1243.78 1268.49 1243.78 1318.53C1243.78 1368.57 1287.54 1409.13 1341.52 1409.13C1360.66 1409.13 1378.52 1404.03 1393.6 1395.21C1404.66 1399.24 1416.71 1401.45 1429.32 1401.45C1430.69 1401.45 1432.06 1401.43 1433.41 1401.37C1445.48 1438.73 1482.84 1465.95 1527.06 1465.95C1555.04 1465.95 1580.27 1455.05 1598.09 1437.58C1613.15 1469.64 1647.62 1492.06 1687.75 1492.06C1717.97 1492.06 1744.99 1479.34 1762.92 1459.37C1780.27 1473.96 1803.29 1482.84 1828.56 1482.84C1865.27 1482.84 1897.26 1464.08 1913.96 1436.33C1926.3 1441.55 1940.02 1444.45 1954.46 1444.45C2008.44 1444.45 2052.2 1403.89 2052.2 1353.85C2052.2 1303.81 2008.44 1263.24 1954.46 1263.24C1935.34 1263.24 1917.51 1268.33 1902.45 1277.13C1886.01 1253.53 1858.08 1237.47 1825.99 1235.75C1810.67 1210.53 1782.71 1192.8 1750.07 1189.94Z" fill="#FFFEF6"/>
<path fill-rule="evenodd" clip-rule="evenodd" d="M953.819 1409.45C940.342 1374.36 904.193 1349.24 861.716 1349.24C823.379 1349.24 790.197 1369.7 774.185 1399.49C756.297 1378.25 728.42 1364.6 697.104 1364.6C646.637 1364.6 605.104 1400.05 599.911 1445.56C593.633 1447.74 587.661 1450.5 582.072 1453.76C571.008 1449.74 558.959 1447.52 546.353 1447.52C492.373 1447.52 448.613 1488.09 448.613 1538.13C448.613 1588.17 492.373 1628.73 546.353 1628.73C565.496 1628.73 583.355 1623.63 598.432 1614.81C609.496 1618.84 621.545 1621.05 634.151 1621.05C645.866 1621.05 657.1 1619.14 667.509 1615.64C684.91 1630.46 708.121 1639.5 733.611 1639.5C762.568 1639.5 788.583 1627.83 806.48 1609.28C806.613 1609.31 806.747 1609.34 806.88 1609.37C824.773 1630.51 852.584 1644.09 883.817 1644.09C897.921 1644.09 911.326 1641.32 923.436 1636.34C924.741 1636.38 926.052 1636.41 927.37 1636.41C945.173 1636.41 961.863 1632 976.239 1624.29C990.616 1632 1007.31 1636.41 1025.11 1636.41C1056.88 1636.41 1085.11 1622.36 1102.96 1600.59C1120.84 1618.82 1146.63 1630.27 1175.3 1630.27C1229.28 1630.27 1273.04 1589.7 1273.04 1539.66C1273.04 1489.62 1229.28 1449.06 1175.3 1449.06C1147.76 1449.06 1122.88 1459.61 1105.12 1476.6C1087.64 1452.02 1057.59 1435.79 1023.45 1435.79C1020.67 1435.79 1017.91 1435.9 1015.18 1436.11C999.262 1421.15 977.767 1411.3 953.819 1409.45Z" fill="#FFFEF6"/>
</g>
</g>
<defs>
<filter id="filter0_d_304_59" x="-187.195" y="1124.31" width="2688.46" height="535.791" filterUnits="userSpaceOnUse" color-interpolation-filters="sRGB">
<feFlood flood-opacity="0" result="BackgroundImageFix"/>
<feColorMatrix in="SourceAlpha" type="matrix" values="0 0 0 0 0 0 0 0 0 0 0 0 0 0 0 0 0 0 127 0" result="hardAlpha"/>
<feOffset dx="9.33774" dy="5.33585"/>
<feGaussianBlur stdDeviation="5.33585"/>
<feComposite in2="hardAlpha" operator="out"/>
<feColorMatrix type="matrix" values="0 0 0 0 0.151771 0 0 0 0 0.420893 0 0 0 0 0.775 0 0 0 0.25 0"/>
<feBlend mode="normal" in2="BackgroundImageFix" result="effect1_dropShadow_304_59"/>
<feBlend mode="normal" in="SourceGraphic" in2="effect1_dropShadow_304_59" result="shape"/>
</filter>
<clipPath id="clip0_304_59">
<rect width="2395" height="1437" fill="white"/>
</clipPath>
</defs>
</svg>
