<svg width="1469" height="194" viewBox="0 0 1469 194" fill="none" xmlns="http://www.w3.org/2000/svg">
<g filter="url(#filter0_d_321_1030)">
<path fill-rule="evenodd" clip-rule="evenodd" d="M456.71 79.7335C456.148 57.5038 428.372 39.5963 394.189 39.5963C387.893 39.5963 381.814 40.2038 376.083 41.334C364.682 33.4476 348.522 28.5255 330.601 28.5255C323.131 28.5255 315.968 29.3806 309.327 30.9491C298.084 23.8784 282.796 19.5304 265.953 19.5304C241.216 19.5304 219.834 28.9082 209.693 42.5155C198.268 32.75 180.247 26.4497 159.972 26.4497C127.685 26.4497 101.114 42.4255 97.7927 62.9294C93.7766 63.9102 89.9564 65.153 86.3807 66.6257C79.3022 64.8104 71.5938 63.8136 63.5288 63.8136C28.9951 63.8136 1 82.0909 1 104.637C1 127.183 28.9951 145.46 63.5288 145.46C75.7763 145.46 87.2013 143.162 96.8468 139.189C103.925 141.004 111.634 142.001 119.699 142.001C120.576 142.001 121.449 141.989 122.317 141.966C130.035 158.796 153.937 171.062 182.228 171.062C200.128 171.062 216.271 166.151 227.67 158.28C237.301 172.725 259.359 182.824 285.029 182.824C304.363 182.824 321.648 177.095 333.118 168.096C344.217 174.668 358.949 178.673 375.113 178.673C398.6 178.673 419.063 170.218 429.751 157.717C437.644 160.066 446.417 161.375 455.659 161.375C490.192 161.375 518.188 143.097 518.188 120.551C518.188 98.2342 490.759 80.0998 456.71 79.7335Z" fill="#FFFEF6"/>
<path fill-rule="evenodd" clip-rule="evenodd" d="M801.114 94.9501C809.759 87.9479 814.935 79.043 814.935 69.349C814.935 46.8028 786.939 28.5255 752.406 28.5255C727.213 28.5255 705.5 38.2525 695.597 52.2679C684.127 43.2574 666.832 37.5205 647.484 37.5205C637.085 37.5205 627.279 39.1778 618.652 42.1099C608.391 28.7223 587.19 19.5304 562.699 19.5304C537.963 19.5304 516.581 28.9083 506.44 42.5156C495.015 32.7501 476.994 26.4497 456.718 26.4497C424.432 26.4497 397.861 42.4255 394.539 62.9295C390.523 63.9103 386.703 65.153 383.128 66.6257C376.049 64.8104 368.341 63.8136 360.276 63.8136C325.742 63.8136 297.747 82.0909 297.747 104.637C297.747 127.183 325.742 145.46 360.276 145.46C372.523 145.46 383.948 143.162 393.594 139.189C400.672 141.004 408.381 142.001 416.446 142.001C417.323 142.001 418.196 141.989 419.064 141.966C426.783 158.796 450.685 171.062 478.975 171.062C496.875 171.062 513.018 166.151 524.417 158.281C534.048 172.725 556.106 182.824 581.776 182.824C601.11 182.824 618.395 177.095 629.864 168.096C640.963 174.668 655.695 178.673 671.86 178.673C695.347 178.673 715.81 170.218 726.497 157.717C734.391 160.066 743.164 161.375 752.406 161.375C786.939 161.375 814.935 143.097 814.935 120.551C814.935 110.857 809.759 101.952 801.114 94.9501Z" fill="#FFFEF6"/>
<path fill-rule="evenodd" clip-rule="evenodd" d="M988.744 5C1015.94 5 1039.08 16.337 1047.69 32.1677C1068.57 33.4555 1086.46 41.4474 1096.26 52.8113C1116.79 53.5838 1134.66 60.8211 1145.17 71.4518C1154.81 67.4895 1166.22 65.1973 1178.45 65.1973C1212.98 65.1973 1240.98 83.4746 1240.98 106.021C1240.98 128.567 1212.98 146.844 1178.45 146.844C1169.21 146.844 1160.44 145.535 1152.54 143.186C1141.85 155.688 1121.39 164.142 1097.9 164.142C1081.74 164.142 1067.01 160.138 1055.91 153.565C1044.44 162.565 1027.15 168.294 1007.82 168.294C982.15 168.294 960.092 158.195 950.461 143.75C939.063 151.62 922.919 156.531 905.019 156.531C876.729 156.531 852.826 144.265 845.108 127.435C844.24 127.459 843.367 127.47 842.49 127.47C834.425 127.47 826.716 126.474 819.638 124.658C809.992 128.631 798.567 130.93 786.32 130.93C751.786 130.93 723.791 112.653 723.791 90.1065C723.791 67.5604 751.786 49.2831 786.32 49.2831C791.67 49.2831 796.864 49.7218 801.821 50.5472C807.69 45.3943 815.377 41.176 824.262 38.2964C833.198 22.8802 856.02 11.9192 882.763 11.9192C903.038 11.9192 921.059 18.2195 932.485 27.9851C942.626 14.3778 964.007 5 988.744 5Z" fill="#FFFEF6"/>
<path fill-rule="evenodd" clip-rule="evenodd" d="M1397.43 46.6982C1388.82 30.8675 1365.68 19.5304 1338.48 19.5304C1313.74 19.5304 1292.36 28.9083 1282.22 42.5156C1270.8 32.7501 1252.77 26.4497 1232.5 26.4497C1200.21 26.4497 1173.64 42.4255 1170.32 62.9295C1166.3 63.9103 1162.48 65.153 1158.91 66.6257C1151.83 64.8104 1144.12 63.8136 1136.06 63.8136C1101.52 63.8136 1073.53 82.0909 1073.53 104.637C1073.53 127.183 1101.52 145.46 1136.06 145.46C1148.3 145.46 1159.73 143.162 1169.38 139.189C1176.45 141.004 1184.16 142.001 1192.23 142.001C1193.1 142.001 1193.98 141.989 1194.85 141.966C1202.56 158.796 1226.47 171.062 1254.76 171.062C1272.66 171.062 1288.8 166.151 1300.2 158.281C1309.83 172.725 1331.89 182.824 1357.56 182.824C1389.51 182.824 1415.86 167.178 1419.63 146.981C1438.41 139.939 1451.06 126.712 1451.06 111.556C1451.06 108.456 1450.53 105.436 1449.53 102.534C1452.41 97.8371 1454 92.7091 1454 87.339C1454 66.104 1429.17 48.6558 1397.43 46.6982Z" fill="#FFFEF6"/>
</g>
<defs>
<filter id="filter0_d_321_1030" x="0" y="0" width="1469" height="193.824" filterUnits="userSpaceOnUse" color-interpolation-filters="sRGB">
<feFlood flood-opacity="0" result="BackgroundImageFix"/>
<feColorMatrix in="SourceAlpha" type="matrix" values="0 0 0 0 0 0 0 0 0 0 0 0 0 0 0 0 0 0 127 0" result="hardAlpha"/>
<feOffset dx="7" dy="3"/>
<feGaussianBlur stdDeviation="4"/>
<feComposite in2="hardAlpha" operator="out"/>
<feColorMatrix type="matrix" values="0 0 0 0 0.151771 0 0 0 0 0.420893 0 0 0 0 0.775 0 0 0 0.25 0"/>
<feBlend mode="normal" in2="BackgroundImageFix" result="effect1_dropShadow_321_1030"/>
<feBlend mode="normal" in="SourceGraphic" in2="effect1_dropShadow_321_1030" result="shape"/>
</filter>
</defs>
</svg>
