<svg width="1387" height="273" viewBox="0 0 1387 273" fill="none" xmlns="http://www.w3.org/2000/svg">
<g filter="url(#filter0_d_187_6027)">
<path fill-rule="evenodd" clip-rule="evenodd" d="M430.992 112.008C430.462 79.8809 404.254 54 372 54C366.059 54 360.323 54.8781 354.915 56.5116C344.158 45.1136 328.91 38 312 38C304.952 38 298.192 39.2358 291.927 41.5027C281.318 31.2839 266.893 25 251 25C227.659 25 207.484 38.5533 197.916 58.2191C187.135 44.1055 170.131 35 151 35C120.536 35 95.4643 58.0889 92.3301 87.7221C88.5407 89.1397 84.9361 90.9358 81.5623 93.0643C74.8833 90.4407 67.6099 89 60 89C27.4152 89 1 115.415 1 148C1 180.585 27.4152 207 60 207C71.5563 207 82.3366 203.678 91.4377 197.936C98.1167 200.559 105.39 202 113 202C113.828 202 114.651 201.983 115.471 201.949C122.753 226.273 145.307 244 172 244C188.89 244 204.123 236.903 214.878 225.528C223.966 246.404 244.778 261 269 261C287.243 261 303.552 252.72 314.375 239.714C324.847 249.212 338.748 255 354 255C376.162 255 395.469 242.781 405.554 224.713C413.002 228.108 421.28 230 430 230C462.585 230 489 203.585 489 171C489 138.746 463.119 112.538 430.992 112.008Z" fill="#FFFEF6"/>
<path fill-rule="evenodd" clip-rule="evenodd" d="M755.959 134C764.117 123.88 769 111.01 769 97C769 64.4152 742.585 38 710 38C686.229 38 665.741 52.0579 656.397 72.3135C645.575 59.2912 629.256 51 611 51C601.188 51 591.935 53.3952 583.795 57.6329C574.113 38.2844 554.108 25 531 25C507.659 25 487.484 38.5533 477.916 58.2191C467.135 44.1055 450.131 35 431 35C400.536 35 375.464 58.0889 372.33 87.7221C368.541 89.1397 364.936 90.9358 361.562 93.0643C354.883 90.4407 347.61 89 340 89C307.415 89 281 115.415 281 148C281 180.585 307.415 207 340 207C351.556 207 362.337 203.678 371.438 197.936C378.117 200.559 385.39 202 393 202C393.828 202 394.651 201.983 395.471 201.949C402.753 226.273 425.307 244 452 244C468.89 244 484.123 236.903 494.878 225.528C503.966 246.404 524.778 261 549 261C567.243 261 583.552 252.72 594.375 239.714C604.847 249.212 618.748 255 634 255C656.162 255 675.469 242.781 685.554 224.713C693.002 228.108 701.28 230 710 230C742.585 230 769 203.585 769 171C769 156.99 764.117 144.12 755.959 134Z" fill="#FFFEF6"/>
<path fill-rule="evenodd" clip-rule="evenodd" d="M933 4C958.663 4 980.499 20.3848 988.618 43.264C1008.32 45.1252 1025.2 56.6756 1034.45 73.0991C1053.82 74.2155 1070.68 84.6753 1080.6 100.039C1089.69 94.3128 1100.46 91 1112 91C1144.58 91 1171 117.415 1171 150C1171 182.585 1144.58 209 1112 209C1103.28 209 1095 207.108 1087.55 203.713C1077.47 221.781 1058.16 234 1036 234C1020.75 234 1006.85 228.212 996.375 218.714C985.552 231.72 969.243 240 951 240C926.778 240 905.966 225.404 896.878 204.528C886.123 215.903 870.89 223 854 223C827.307 223 804.753 205.273 797.471 180.949C796.651 180.983 795.828 181 795 181C787.39 181 780.117 179.559 773.438 176.936C764.337 182.678 753.556 186 742 186C709.415 186 683 159.585 683 127C683 94.4152 709.415 68 742 68C747.049 68 751.949 68.6341 756.626 69.827C762.164 62.3797 769.417 56.2831 777.801 52.1215C786.232 29.8413 807.766 14 833 14C852.131 14 869.135 23.1055 879.916 37.2191C889.484 17.5533 909.659 4 933 4Z" fill="#FFFEF6"/>
<path fill-rule="evenodd" clip-rule="evenodd" d="M1318.62 64.264C1310.5 41.3848 1288.66 25 1263 25C1239.66 25 1219.48 38.5533 1209.92 58.2191C1199.14 44.1055 1182.13 35 1163 35C1132.54 35 1107.46 58.0889 1104.33 87.7221C1100.54 89.1397 1096.94 90.9358 1093.56 93.0643C1086.88 90.4407 1079.61 89 1072 89C1039.42 89 1013 115.415 1013 148C1013 180.585 1039.42 207 1072 207C1083.56 207 1094.34 203.678 1103.44 197.936C1110.12 200.559 1117.39 202 1125 202C1125.83 202 1126.65 201.983 1127.47 201.949C1134.75 226.273 1157.31 244 1184 244C1200.89 244 1216.12 236.903 1226.88 225.528C1235.97 246.404 1256.78 261 1281 261C1311.36 261 1336.36 238.072 1339.64 208.587C1340.77 204.717 1341.51 200.683 1341.83 196.528C1352.56 186.701 1359.65 172.955 1360.83 157.556C1367.86 147.844 1372 135.906 1372 123C1372 92.3101 1348.57 67.0932 1318.62 64.264Z" fill="#FFFEF6"/>
<circle cx="1085" cy="97" r="59" fill="#FFFEF6"/>
</g>
<defs>
<filter id="filter0_d_187_6027" x="0" y="0" width="1387" height="273" filterUnits="userSpaceOnUse" color-interpolation-filters="sRGB">
<feFlood flood-opacity="0" result="BackgroundImageFix"/>
<feColorMatrix in="SourceAlpha" type="matrix" values="0 0 0 0 0 0 0 0 0 0 0 0 0 0 0 0 0 0 127 0" result="hardAlpha"/>
<feOffset dx="7" dy="4"/>
<feGaussianBlur stdDeviation="4"/>
<feComposite in2="hardAlpha" operator="out"/>
<feColorMatrix type="matrix" values="0 0 0 0 0.151771 0 0 0 0 0.420893 0 0 0 0 0.775 0 0 0 0.25 0"/>
<feBlend mode="normal" in2="BackgroundImageFix" result="effect1_dropShadow_187_6027"/>
<feBlend mode="normal" in="SourceGraphic" in2="effect1_dropShadow_187_6027" result="shape"/>
</filter>
</defs>
</svg>
