<svg width="1850" height="365" viewBox="0 0 1850 365" fill="none" xmlns="http://www.w3.org/2000/svg">
<g filter="url(#filter0_d_770_78)">
<path fill-rule="evenodd" clip-rule="evenodd" d="M575.321 150.01C574.615 107.174 539.67 72.6664 496.665 72.6664C488.744 72.6664 481.097 73.8371 473.886 76.0149C459.543 60.8177 439.212 51.3329 416.666 51.3329C407.268 51.3329 398.256 52.9807 389.901 56.0032C375.757 42.3782 356.523 33.9996 335.332 33.9996C304.212 33.9996 277.312 52.0704 264.554 78.2911C250.18 59.4733 227.508 47.3329 202 47.3329C161.381 47.3329 127.952 78.1182 123.773 117.629C118.721 119.519 113.915 121.914 109.416 124.752C100.511 121.254 90.8132 119.333 80.6667 119.333C37.2203 119.333 2 154.553 2 198C2 241.446 37.2203 276.666 80.6667 276.666C96.0751 276.666 110.449 272.236 122.584 264.581C131.489 268.079 141.187 270 151.333 270C152.437 270 153.535 269.977 154.628 269.932C164.338 302.364 194.409 326 230 326C252.52 326 272.83 316.537 287.17 301.371C299.288 329.205 327.038 348.666 359.333 348.666C383.657 348.666 405.403 337.626 419.833 320.284C433.796 332.949 452.33 340.666 472.667 340.666C502.216 340.666 527.959 324.375 541.406 300.284C551.336 304.811 562.374 307.333 574 307.333C617.446 307.333 652.667 272.113 652.667 228.666C652.667 185.661 618.158 150.716 575.321 150.01Z" fill="#FFFEF6"/>
<path fill-rule="evenodd" clip-rule="evenodd" d="M1008.61 179.333C1019.49 165.84 1026 148.68 1026 130C1026 86.5534 990.779 51.3331 947.333 51.3331C915.638 51.3331 888.321 70.0773 875.862 97.0853C861.432 79.7218 839.673 68.6665 815.332 68.6665C802.249 68.6665 789.912 71.8602 779.058 77.5106C766.149 51.7126 739.475 33.9999 708.664 33.9999C677.544 33.9999 650.644 52.0706 637.886 78.2913C623.512 59.4734 600.84 47.3331 575.332 47.3331C534.713 47.3331 501.284 78.1183 497.105 117.629C492.053 119.519 487.247 121.914 482.748 124.752C473.843 121.254 464.145 119.333 453.999 119.333C410.552 119.333 375.332 154.553 375.332 198C375.332 241.446 410.552 276.667 453.999 276.667C469.407 276.667 483.781 272.237 495.916 264.581C504.821 268.079 514.519 270 524.665 270C525.769 270 526.867 269.977 527.96 269.932C537.67 302.364 567.741 326 603.332 326C625.852 326 646.162 316.537 660.502 301.371C672.62 329.206 700.37 348.666 732.665 348.666C756.989 348.666 778.735 337.627 793.165 320.284C807.128 332.95 825.662 340.667 845.999 340.667C875.548 340.667 901.292 324.375 914.738 300.284C924.669 304.811 935.706 307.333 947.333 307.333C990.779 307.333 1026 272.113 1026 228.667C1026 209.986 1019.49 192.826 1008.61 179.333Z" fill="#FFFEF6"/>
<path fill-rule="evenodd" clip-rule="evenodd" d="M1244.67 6C1278.88 6 1308 27.8464 1318.82 58.352C1345.09 60.8333 1367.6 76.2339 1379.93 98.1322C1405.76 99.6208 1428.24 113.567 1441.47 134.052C1453.59 126.417 1467.95 122 1483.33 122C1526.78 122 1562 157.22 1562 200.667C1562 244.113 1526.78 279.333 1483.33 279.333C1471.71 279.333 1460.67 276.811 1450.74 272.284C1437.29 296.375 1411.55 312.667 1382 312.667C1361.66 312.667 1343.13 304.95 1329.17 292.284C1314.74 309.627 1292.99 320.667 1268.67 320.667C1236.37 320.667 1208.62 301.206 1196.5 273.371C1182.16 288.537 1161.85 298 1139.33 298C1103.74 298 1073.67 274.364 1063.96 241.932C1062.87 241.977 1061.77 242 1060.67 242C1050.52 242 1040.82 240.079 1031.92 236.581C1019.78 244.237 1005.41 248.667 990.001 248.667C946.554 248.667 911.334 213.446 911.334 170C911.334 126.554 946.554 91.3333 990.001 91.3333C996.732 91.3333 1003.27 92.1788 1009.5 93.7693C1016.89 83.8396 1026.56 75.711 1037.73 70.1621C1048.98 40.4551 1077.69 19.3333 1111.33 19.3333C1136.84 19.3333 1159.51 31.4737 1173.89 50.2915C1186.65 24.0707 1213.55 6 1244.67 6Z" fill="#FFFEF6"/>
<path fill-rule="evenodd" clip-rule="evenodd" d="M1758.82 86.3517C1748 55.8461 1718.88 33.9998 1684.66 33.9998C1653.54 33.9998 1626.64 52.0705 1613.89 78.2912C1599.51 59.4734 1576.84 47.3331 1551.33 47.3331C1510.71 47.3331 1477.28 78.1182 1473.11 117.629C1468.05 119.519 1463.25 121.914 1458.75 124.752C1449.84 121.254 1440.15 119.333 1430 119.333C1386.55 119.333 1351.33 154.553 1351.33 198C1351.33 241.446 1386.55 276.666 1430 276.666C1445.41 276.666 1459.78 272.236 1471.92 264.581C1480.82 268.079 1490.52 270 1500.67 270C1501.77 270 1502.87 269.977 1503.96 269.932C1513.67 302.364 1543.74 326 1579.33 326C1601.85 326 1622.16 316.537 1636.5 301.371C1648.62 329.206 1676.37 348.666 1708.66 348.666C1749.14 348.666 1782.48 318.098 1786.85 278.788C1788.36 273.627 1789.35 268.245 1789.77 262.704C1804.08 249.601 1813.53 231.274 1815.1 210.743C1824.47 197.793 1830 181.875 1830 164.666C1830 123.746 1798.76 90.1231 1758.82 86.3517Z" fill="#FFFEF6"/>
<circle cx="1447.33" cy="130" r="78.6667" fill="#FFFEF6"/>
</g>
<defs>
<filter id="filter0_d_770_78" x="0.666665" y="0.666667" width="1849.33" height="364" filterUnits="userSpaceOnUse" color-interpolation-filters="sRGB">
<feFlood flood-opacity="0" result="BackgroundImageFix"/>
<feColorMatrix in="SourceAlpha" type="matrix" values="0 0 0 0 0 0 0 0 0 0 0 0 0 0 0 0 0 0 127 0" result="hardAlpha"/>
<feOffset dx="9.33333" dy="5.33333"/>
<feGaussianBlur stdDeviation="5.33333"/>
<feComposite in2="hardAlpha" operator="out"/>
<feColorMatrix type="matrix" values="0 0 0 0 0.151771 0 0 0 0 0.420893 0 0 0 0 0.775 0 0 0 0.25 0"/>
<feBlend mode="normal" in2="BackgroundImageFix" result="effect1_dropShadow_770_78"/>
<feBlend mode="normal" in="SourceGraphic" in2="effect1_dropShadow_770_78" result="shape"/>
</filter>
</defs>
</svg>
