<svg width="1961" height="259" viewBox="0 0 1961 259" fill="none" xmlns="http://www.w3.org/2000/svg">
<g filter="url(#filter0_d_346_56)">
<path fill-rule="evenodd" clip-rule="evenodd" d="M609.9 106.692C609.151 77.0384 572.099 53.1504 526.5 53.1504C518.102 53.1504 509.993 53.9609 502.347 55.4685C487.139 44.9482 465.582 38.3823 441.676 38.3823C431.712 38.3823 422.155 39.523 413.297 41.6153C398.299 32.1832 377.905 26.3831 355.437 26.3831C322.439 26.3831 293.917 38.8927 280.389 57.0443C265.148 44.0175 241.109 35.6133 214.062 35.6133C170.993 35.6133 135.549 56.9243 131.118 84.2758C125.76 85.5842 120.665 87.242 115.895 89.2066C106.452 86.785 96.1696 85.4552 85.4112 85.4552C39.3444 85.4552 2 109.836 2 139.912C2 169.988 39.3444 194.369 85.4112 194.369C101.749 194.369 116.989 191.303 129.856 186.003C139.298 188.425 149.581 189.754 160.34 189.754C161.51 189.754 162.674 189.739 163.832 189.707C174.128 212.158 206.012 228.52 243.75 228.52C267.629 228.52 289.165 221.969 304.37 211.47C317.218 230.739 346.642 244.211 380.886 244.211C406.676 244.211 429.733 236.569 445.034 224.564C459.839 233.331 479.491 238.673 501.053 238.673C532.384 238.673 559.681 227.395 573.938 210.718C584.468 213.852 596.171 215.598 608.498 215.598C654.565 215.598 691.91 191.217 691.91 161.141C691.91 131.371 655.32 107.18 609.9 106.692Z" fill="#FFFEF6"/>
<path fill-rule="evenodd" clip-rule="evenodd" d="M1069.32 126.99C1080.86 117.65 1087.76 105.771 1087.76 92.8393C1087.76 62.7636 1050.41 38.3823 1004.35 38.3823C970.742 38.3823 941.777 51.3579 928.567 70.0541C913.267 58.0343 890.195 50.3814 864.386 50.3814C850.514 50.3814 837.434 52.5922 825.925 56.5035C812.237 38.6449 783.955 26.3833 751.286 26.3833C718.289 26.3833 689.766 38.8929 676.239 57.0444C660.998 44.0177 636.958 35.6134 609.912 35.6134C566.843 35.6134 531.398 56.9243 526.967 84.2757C521.61 85.5842 516.513 87.242 511.743 89.2068C502.301 86.7852 492.018 85.4555 481.26 85.4555C435.193 85.4555 397.849 109.837 397.849 139.912C397.849 169.988 435.193 194.37 481.26 194.37C497.597 194.37 512.838 191.303 525.705 186.003C535.147 188.425 545.43 189.754 556.188 189.754C557.359 189.754 558.523 189.739 559.682 189.708C569.978 212.158 601.862 228.521 639.6 228.521C663.478 228.521 685.013 221.97 700.218 211.471C713.066 230.739 742.49 244.211 776.733 244.211C802.524 244.211 825.581 236.569 840.881 224.564C855.687 233.332 875.338 238.673 896.901 238.673C928.232 238.673 955.529 227.395 969.786 210.718C980.316 213.852 992.02 215.598 1004.35 215.598C1050.41 215.598 1087.76 191.217 1087.76 161.141C1087.76 148.21 1080.86 136.331 1069.32 126.99Z" fill="#FFFEF6"/>
<path fill-rule="evenodd" clip-rule="evenodd" d="M1319.61 7C1355.89 7 1386.76 22.1231 1398.24 43.2406C1426.1 44.9581 1449.97 55.6192 1463.04 70.7786C1490.42 71.8091 1514.26 81.4634 1528.29 95.6444C1541.14 90.3589 1556.36 87.3012 1572.68 87.3012C1618.74 87.3012 1656.09 111.682 1656.09 141.758C1656.09 171.834 1618.74 196.215 1572.68 196.215C1560.35 196.215 1548.64 194.469 1538.12 191.336C1523.86 208.012 1496.56 219.29 1465.23 219.29C1443.67 219.29 1424.02 213.948 1409.21 205.18C1393.91 217.186 1370.85 224.828 1345.06 224.828C1310.82 224.828 1281.39 211.356 1268.55 192.087C1253.34 202.586 1231.81 209.137 1207.93 209.137C1170.19 209.137 1138.3 192.775 1128.01 170.324C1126.85 170.355 1125.69 170.371 1124.52 170.371C1113.76 170.371 1103.47 169.041 1094.03 166.62C1081.17 171.919 1065.92 174.986 1049.59 174.986C1003.52 174.986 966.176 150.605 966.176 120.529C966.176 90.4533 1003.52 66.0721 1049.59 66.0721C1056.72 66.0721 1063.65 66.6574 1070.26 67.7584C1078.09 60.8845 1088.35 55.2573 1100.2 51.4161C1112.12 30.8515 1142.56 16.23 1178.24 16.23C1205.28 16.23 1229.32 24.634 1244.57 37.6605C1258.09 19.5094 1286.62 7 1319.61 7Z" fill="#FFFEF6"/>
<path fill-rule="evenodd" clip-rule="evenodd" d="M1864.78 62.624C1853.3 41.5064 1822.43 26.3831 1786.15 26.3831C1753.15 26.3831 1724.63 38.8927 1711.1 57.0442C1695.86 44.0174 1671.82 35.6131 1644.78 35.6131C1601.71 35.6131 1566.26 56.9241 1561.83 84.2755C1556.47 85.5839 1551.38 87.2418 1546.61 89.2065C1537.17 86.785 1526.88 85.4552 1516.13 85.4552C1470.06 85.4552 1432.71 109.836 1432.71 139.912C1432.71 169.988 1470.06 194.369 1516.13 194.369C1532.46 194.369 1547.7 191.303 1560.57 186.003C1570.01 188.424 1580.3 189.754 1591.05 189.754C1592.22 189.754 1593.39 189.738 1594.55 189.707C1604.84 212.158 1636.73 228.52 1674.47 228.52C1698.34 228.52 1719.88 221.97 1735.08 211.471C1747.93 230.74 1777.35 244.211 1811.6 244.211C1854.22 244.211 1889.37 223.34 1894.39 196.399C1919.45 187.004 1936.32 169.36 1936.32 149.142C1936.32 145.006 1935.62 140.978 1934.28 137.105C1938.13 130.841 1940.25 124 1940.25 116.837C1940.25 88.5108 1907.12 65.2357 1864.78 62.624Z" fill="#FFFEF6"/>
</g>
<defs>
<filter id="filter0_d_346_56" x="0.666035" y="0.330182" width="1959.59" height="258.555" filterUnits="userSpaceOnUse" color-interpolation-filters="sRGB">
<feFlood flood-opacity="0" result="BackgroundImageFix"/>
<feColorMatrix in="SourceAlpha" type="matrix" values="0 0 0 0 0 0 0 0 0 0 0 0 0 0 0 0 0 0 127 0" result="hardAlpha"/>
<feOffset dx="9.33774" dy="4.00189"/>
<feGaussianBlur stdDeviation="5.33585"/>
<feComposite in2="hardAlpha" operator="out"/>
<feColorMatrix type="matrix" values="0 0 0 0 0.151771 0 0 0 0 0.420893 0 0 0 0 0.775 0 0 0 0.25 0"/>
<feBlend mode="normal" in2="BackgroundImageFix" result="effect1_dropShadow_346_56"/>
<feBlend mode="normal" in="SourceGraphic" in2="effect1_dropShadow_346_56" result="shape"/>
</filter>
</defs>
</svg>
