<svg width="303" height="226" viewBox="0 0 303 226" fill="none" xmlns="http://www.w3.org/2000/svg">
<path d="M281 1H22C10.402 1 1 10.402 1 22V204C1 215.598 10.402 225 22 225H281C292.598 225 302 215.598 302 204V22C302 10.402 292.598 1 281 1Z" fill="#FFFEF6" stroke="#4395E6" stroke-width="2"/>
<path d="M127.344 100.506C129.54 96.8787 137.028 89.0444 149.409 86.7281C164.884 83.8326 178.663 96.6124 179.961 97.9104" stroke="#4395E6" stroke-width="2"/>
<rect x="85.043" y="26.1017" width="134.913" height="8.11462" rx="4.05731" stroke="#4395E6" stroke-width="2"/>
<rect x="88.2139" y="35.2163" width="128.403" height="106.603" stroke="#4395E6" stroke-width="2"/>
<path d="M168.784 68.4692C168.784 77.3056 162.126 84.3462 154.059 84.3462C145.992 84.3462 139.334 77.3056 139.334 68.4692C139.334 59.6329 145.992 52.5923 154.059 52.5923C162.126 52.5923 168.784 59.6329 168.784 68.4692Z" stroke="#4395E6" stroke-width="2"/>
<path d="M150.911 85.1667C150.922 85.1685 150.932 85.1703 150.943 85.1721C151.925 85.3377 153.205 85.5133 154.249 85.5093C155.256 85.5054 156.489 85.3325 157.439 85.1698L154.176 94.6761L150.911 85.1667Z" fill="#FFFEF6" stroke="#4395E6" stroke-width="2"/>
<line x1="180.323" y1="97.5427" x2="180.323" y2="125.444" stroke="#4395E6" stroke-width="2"/>
<line x1="103.093" y1="87.6142" x2="127.92" y2="100.482" stroke="#4395E6" stroke-width="2"/>
<path d="M149.369 143.795C149.705 143.041 150.589 142.705 151.341 143.043C151.949 143.321 152.22 144.037 151.948 144.648L133.178 186.89C132.867 187.589 132.048 187.904 131.349 187.592C130.651 187.281 130.337 186.462 130.649 185.764L149.369 143.795Z" stroke="#4395E6" stroke-width="2"/>
<path d="M153.406 144.453C153.186 143.961 153.444 143.386 153.959 143.224C154.118 143.174 154.273 143.109 154.42 143.034C155.022 142.723 155.76 142.984 156.026 143.58L174.915 185.776C175.228 186.476 174.914 187.296 174.215 187.608C173.516 187.919 172.699 187.605 172.387 186.908L153.406 144.453Z" stroke="#4395E6" stroke-width="2"/>
<circle cx="120.676" cy="190.728" r="27" fill="#EFF5FF" stroke="#48B2FF"/>
<path d="M117.508 180.536V183.2H104.224V180.536H110.74C110.2 179.204 109.084 177.152 108.148 175.676L110.704 174.38C111.748 175.856 112.828 177.764 113.404 179.06L110.812 180.536H117.508ZM116.356 185.324V187.952H105.7V185.324H116.356ZM105.7 192.668V190.076H116.356V192.668H105.7ZM113.656 202.784V197.636H108.544V202.784H113.656ZM121.54 184.352V187.448H125.536V184.352H121.54ZM121.54 178.664V181.724H125.536V178.664H121.54ZM132.556 181.724V178.664H128.416V181.724H132.556ZM132.556 187.448V184.352H128.416V187.448H132.556ZM136.624 195.764H130.144C132.016 198.716 134.968 201.776 137.596 203.36C136.84 203.936 135.832 205.052 135.292 205.88C133.024 204.152 130.504 201.272 128.596 198.248V207.572H125.356V198.572C123.412 201.704 120.892 204.44 118.264 206.096C117.868 205.484 117.22 204.692 116.572 204.044V205.484H108.544V207.104H105.664V194.936H116.572V203.216C119.38 201.56 122.152 198.716 123.88 195.764H117.328V192.776H125.356V190.148H118.552V175.964H135.652V190.148H128.596V192.776H136.624V195.764Z" fill="#276BC6"/>
<circle cx="187.676" cy="190.728" r="27" fill="#EFF5FF" stroke="#48B2FF"/>
<path d="M198.98 185.108V179.06H189.044V185.108H198.98ZM202.22 176.216V187.952H185.948V176.216H202.22ZM185.012 194.216L183.068 196.844C182.528 195.836 181.34 194.144 180.26 192.668V207.5H177.02V192.956C175.688 196.232 174.032 199.328 172.412 201.344C172.088 200.408 171.296 199.04 170.792 198.248C172.916 195.8 175.22 191.516 176.588 187.7H171.476V184.532H177.02V179.672C175.364 179.996 173.708 180.248 172.16 180.464C172.016 179.744 171.548 178.592 171.188 177.872C175.22 177.224 179.828 176.18 182.564 174.992L184.868 177.548C183.5 178.088 181.916 178.556 180.26 178.952V184.532H184.472V187.7H180.26V189.356C181.304 190.256 184.364 193.388 185.012 194.216ZM195.632 203.756H203.984V206.744H183.716V203.756H192.32V199.616H185.624V196.736H192.32V193.064C190.016 193.28 187.712 193.424 185.588 193.496C185.516 192.812 185.12 191.66 184.796 190.976C190.376 190.616 197.036 189.932 200.852 188.924L202.904 191.408C200.852 191.948 198.296 192.38 195.632 192.704V196.736H202.508V199.616H195.632V203.756Z" fill="#276BC6"/>
</svg>
