<svg width="181" height="209" viewBox="0 0 181 209" fill="none" xmlns="http://www.w3.org/2000/svg">
<rect x="20.1709" y="4" width="158.363" height="178.207" stroke="#4395E6" stroke-width="4"/>
<path d="M1 28.7013L18.5939 2.06104V182.454H179.999V207.927H18C8.61116 207.927 1 200.316 1 190.927V28.7013Z" fill="#276BC6" stroke="#4395E6"/>
<path d="M18.1709 184.408C12.9242 184.408 8.6709 188.661 8.6709 193.908C8.6709 199.154 12.9242 203.408 18.1709 203.408V184.408ZM18.1709 203.408H180.533V184.408H18.1709V203.408Z" fill="#EFF5FF"/>
<path d="M83.2213 84.336H112.277V87.888H83.2213V84.336ZM86.4213 76.816H109.333V85.904H105.429V80.144H90.1013V85.904H86.4213V76.816ZM95.6373 74.064H99.5733V83.504C99.5733 89.2 96.9493 94.256 84.9493 96.88C84.5333 96.048 83.4773 94.512 82.6453 93.712C93.9093 91.6 95.6373 87.728 95.6373 83.472V74.064ZM83.7653 69.616H97.0773V72.88H83.7653V69.616ZM89.1093 66.832H92.9493V75.6H89.1093V66.832ZM102.709 66.832H106.613V75.504H102.709V66.832ZM98.4853 69.584H111.765V72.816H98.4853V69.584ZM98.2613 90.704L100.053 87.984C104.053 89.488 109.781 92.016 112.597 93.84L110.677 96.944C107.957 95.12 102.357 92.368 98.2613 90.704ZM103.893 120L107.893 121.088C104.021 132.832 96.6613 139.392 84.9173 142.848C84.5013 141.92 83.3173 140.128 82.5813 139.232C93.9093 136.416 100.693 130.656 103.893 120ZM91.5413 120.224C94.8373 129.632 101.877 136.448 113.109 139.04C112.213 139.872 111.093 141.568 110.485 142.624C98.7413 139.488 91.9893 132.192 87.9573 121.344L91.5413 120.224ZM83.1893 118.208H112.501V121.984H83.1893V118.208ZM94.9653 113.696L99.0613 112.48C99.8933 113.984 100.885 116.032 101.237 117.376L96.8853 118.72C96.5973 117.408 95.7653 115.296 94.9653 113.696Z" fill="#276BC6"/>
<path d="M33.4193 31V17.68H41.5913V19.894H36.0833V22.972H40.7453V25.222H36.0833V28.768H41.7893V31H33.4193ZM44.2775 31V20.938H46.4195L46.6355 22.27H46.6895C47.5535 21.406 48.5975 20.686 49.9655 20.686C52.1255 20.686 53.0795 22.198 53.0795 24.718V31H50.4335V25.06C50.4335 23.476 49.9835 22.954 49.0115 22.954C48.1835 22.954 47.6615 23.35 46.9235 24.07V31H44.2775ZM59.3367 35.374C56.9787 35.374 55.1427 34.564 55.1427 32.8C55.1427 31.954 55.6467 31.216 56.5827 30.712V30.622C56.0607 30.28 55.6647 29.74 55.6647 28.912C55.6647 28.156 56.1687 27.472 56.7987 27.04V26.968C56.0967 26.464 55.4307 25.51 55.4307 24.322C55.4307 21.946 57.3747 20.686 59.4987 20.686C60.0747 20.686 60.6147 20.776 61.0287 20.938H64.6647V22.882H62.9367C63.2067 23.224 63.4047 23.782 63.4047 24.394C63.4047 26.68 61.6767 27.814 59.4987 27.814C59.1027 27.814 58.6527 27.742 58.2027 27.58C57.9327 27.832 57.7707 28.048 57.7707 28.462C57.7707 28.984 58.1847 29.29 59.3547 29.29H61.0827C63.5127 29.29 64.8447 30.028 64.8447 31.81C64.8447 33.844 62.7027 35.374 59.3367 35.374ZM59.4987 26.194C60.3807 26.194 61.0827 25.51 61.0827 24.322C61.0827 23.134 60.3987 22.486 59.4987 22.486C58.6167 22.486 57.9147 23.134 57.9147 24.322C57.9147 25.51 58.6167 26.194 59.4987 26.194ZM59.7507 33.7C61.2627 33.7 62.2887 33.034 62.2887 32.26C62.2887 31.54 61.6947 31.342 60.6147 31.342H59.3907C58.7787 31.342 58.3647 31.306 58.0047 31.198C57.5367 31.576 57.3387 31.972 57.3387 32.386C57.3387 33.232 58.2747 33.7 59.7507 33.7ZM69.033 31.252C67.179 31.252 66.549 30.046 66.549 28.174V16.654H69.195V28.282C69.195 28.912 69.465 29.11 69.717 29.11C69.807 29.11 69.879 29.11 70.059 29.074L70.383 31.036C70.077 31.144 69.663 31.252 69.033 31.252ZM72.2267 31V20.938H74.8727V31H72.2267ZM73.5407 19.3C72.6227 19.3 72.0107 18.724 72.0107 17.842C72.0107 16.978 72.6227 16.42 73.5407 16.42C74.4587 16.42 75.0887 16.978 75.0887 17.842C75.0887 18.724 74.4587 19.3 73.5407 19.3ZM80.5735 31.252C79.2235 31.252 77.7295 30.676 76.7395 29.848L77.9275 28.174C78.8455 28.876 79.6915 29.29 80.6275 29.29C81.6355 29.29 82.1035 28.84 82.1035 28.21C82.1035 27.472 81.0415 27.112 79.9975 26.716C78.7195 26.212 77.2975 25.456 77.2975 23.746C77.2975 21.964 78.7375 20.686 81.0415 20.686C82.4995 20.686 83.6515 21.28 84.4795 21.928L83.2735 23.512C82.5715 23.008 81.8515 22.648 81.1135 22.648C80.1955 22.648 79.7815 23.044 79.7815 23.638C79.7815 24.358 80.6995 24.646 81.7795 25.024C83.1115 25.528 84.5695 26.212 84.5695 28.066C84.5695 29.848 83.1835 31.252 80.5735 31.252ZM86.6056 31V16.654H89.2516V20.272L89.1256 22.162C89.9176 21.406 90.9256 20.686 92.2936 20.686C94.4536 20.686 95.4076 22.198 95.4076 24.718V31H92.7616V25.06C92.7616 23.476 92.3116 22.954 91.3396 22.954C90.5116 22.954 89.9896 23.35 89.2516 24.07V31H86.6056Z" fill="#276BC6"/>
</svg>
