<svg width="181" height="209" viewBox="0 0 181 209" fill="none" xmlns="http://www.w3.org/2000/svg">
<rect x="19.7041" y="4" width="158.363" height="178.207" fill="#FFFEF6" stroke="#4395E6" stroke-width="4"/>
<path d="M0.533203 28.7013L18.1271 2.06104V182.454H179.532V207.927H17.5332C8.14436 207.927 0.533203 200.316 0.533203 190.927V28.7013Z" fill="#276BC6" stroke="#4395E6"/>
<path d="M17.7041 184.408C12.4574 184.408 8.2041 188.661 8.2041 193.908C8.2041 199.154 12.4574 203.408 17.7041 203.408V184.408ZM17.7041 203.408H180.067V184.408H17.7041V203.408Z" fill="#EFF5FF"/>
<path d="M82.7545 84.336H111.81V87.888H82.7545V84.336ZM85.9545 76.816H108.866V85.904H104.962V80.144H89.6345V85.904H85.9545V76.816ZM95.1705 74.064H99.1065V83.504C99.1065 89.2 96.4825 94.256 84.4825 96.88C84.0665 96.048 83.0105 94.512 82.1785 93.712C93.4425 91.6 95.1705 87.728 95.1705 83.472V74.064ZM83.2985 69.616H96.6105V72.88H83.2985V69.616ZM88.6425 66.832H92.4825V75.6H88.6425V66.832ZM102.242 66.832H106.146V75.504H102.242V66.832ZM98.0185 69.584H111.298V72.816H98.0185V69.584ZM97.7945 90.704L99.5865 87.984C103.586 89.488 109.314 92.016 112.13 93.84L110.21 96.944C107.49 95.12 101.89 92.368 97.7945 90.704ZM103.426 120L107.426 121.088C103.554 132.832 96.1945 139.392 84.4505 142.848C84.0345 141.92 82.8505 140.128 82.1145 139.232C93.4425 136.416 100.226 130.656 103.426 120ZM91.0745 120.224C94.3705 129.632 101.41 136.448 112.642 139.04C111.746 139.872 110.626 141.568 110.018 142.624C98.2745 139.488 91.5225 132.192 87.4905 121.344L91.0745 120.224ZM82.7225 118.208H112.034V121.984H82.7225V118.208ZM94.4985 113.696L98.5945 112.48C99.4265 113.984 100.418 116.032 100.77 117.376L96.4185 118.72C96.1305 117.408 95.2985 115.296 94.4985 113.696Z" fill="#276BC6"/>
<path d="M32.9525 31V17.68H41.1245V19.894H35.6165V22.972H40.2785V25.222H35.6165V28.768H41.3225V31H32.9525ZM43.8107 31V20.938H45.9527L46.1687 22.27H46.2227C47.0867 21.406 48.1307 20.686 49.4987 20.686C51.6587 20.686 52.6127 22.198 52.6127 24.718V31H49.9667V25.06C49.9667 23.476 49.5167 22.954 48.5447 22.954C47.7167 22.954 47.1947 23.35 46.4567 24.07V31H43.8107ZM58.8699 35.374C56.5119 35.374 54.6759 34.564 54.6759 32.8C54.6759 31.954 55.1799 31.216 56.1159 30.712V30.622C55.5939 30.28 55.1979 29.74 55.1979 28.912C55.1979 28.156 55.7019 27.472 56.3319 27.04V26.968C55.6299 26.464 54.9639 25.51 54.9639 24.322C54.9639 21.946 56.9079 20.686 59.0319 20.686C59.6079 20.686 60.1479 20.776 60.5619 20.938H64.1979V22.882H62.4699C62.7399 23.224 62.9379 23.782 62.9379 24.394C62.9379 26.68 61.2099 27.814 59.0319 27.814C58.6359 27.814 58.1859 27.742 57.7359 27.58C57.4659 27.832 57.3039 28.048 57.3039 28.462C57.3039 28.984 57.7179 29.29 58.8879 29.29H60.6159C63.0459 29.29 64.3779 30.028 64.3779 31.81C64.3779 33.844 62.2359 35.374 58.8699 35.374ZM59.0319 26.194C59.9139 26.194 60.6159 25.51 60.6159 24.322C60.6159 23.134 59.9319 22.486 59.0319 22.486C58.1499 22.486 57.4479 23.134 57.4479 24.322C57.4479 25.51 58.1499 26.194 59.0319 26.194ZM59.2839 33.7C60.7959 33.7 61.8219 33.034 61.8219 32.26C61.8219 31.54 61.2279 31.342 60.1479 31.342H58.9239C58.3119 31.342 57.8979 31.306 57.5379 31.198C57.0699 31.576 56.8719 31.972 56.8719 32.386C56.8719 33.232 57.8079 33.7 59.2839 33.7ZM68.5662 31.252C66.7122 31.252 66.0822 30.046 66.0822 28.174V16.654H68.7282V28.282C68.7282 28.912 68.9982 29.11 69.2502 29.11C69.3402 29.11 69.4122 29.11 69.5922 29.074L69.9162 31.036C69.6102 31.144 69.1962 31.252 68.5662 31.252ZM71.7599 31V20.938H74.4059V31H71.7599ZM73.0739 19.3C72.1559 19.3 71.5439 18.724 71.5439 17.842C71.5439 16.978 72.1559 16.42 73.0739 16.42C73.9919 16.42 74.6219 16.978 74.6219 17.842C74.6219 18.724 73.9919 19.3 73.0739 19.3ZM80.1067 31.252C78.7567 31.252 77.2627 30.676 76.2727 29.848L77.4607 28.174C78.3787 28.876 79.2247 29.29 80.1607 29.29C81.1687 29.29 81.6367 28.84 81.6367 28.21C81.6367 27.472 80.5747 27.112 79.5307 26.716C78.2527 26.212 76.8307 25.456 76.8307 23.746C76.8307 21.964 78.2707 20.686 80.5747 20.686C82.0327 20.686 83.1847 21.28 84.0127 21.928L82.8067 23.512C82.1047 23.008 81.3847 22.648 80.6467 22.648C79.7287 22.648 79.3147 23.044 79.3147 23.638C79.3147 24.358 80.2327 24.646 81.3127 25.024C82.6447 25.528 84.1027 26.212 84.1027 28.066C84.1027 29.848 82.7167 31.252 80.1067 31.252ZM86.1388 31V16.654H88.7848V20.272L88.6588 22.162C89.4508 21.406 90.4588 20.686 91.8268 20.686C93.9868 20.686 94.9408 22.198 94.9408 24.718V31H92.2948V25.06C92.2948 23.476 91.8448 22.954 90.8728 22.954C90.0448 22.954 89.5228 23.35 88.7848 24.07V31H86.1388Z" fill="#276BC6"/>
</svg>
