<svg width="115" height="80" viewBox="0 0 115 80" fill="none" xmlns="http://www.w3.org/2000/svg">
<g filter="url(#filter0_d_537_208)">
<path fill-rule="evenodd" clip-rule="evenodd" d="M21.2591 51.9847C19.1733 47.7824 17.8842 43.1148 17.5895 38.1793C16.9487 38.498 16.3259 38.8167 15.7219 39.1352C11.3424 41.444 8.10205 43.6566 6.10712 45.5993C3.93886 47.7108 3.9974 48.7282 4.02977 48.8592C4.06214 48.9901 4.48439 49.9176 7.38674 50.7756C10.0571 51.5651 13.9551 52.013 18.9059 52.0153C19.6697 52.0157 20.4545 52.0055 21.2591 51.9847ZM89.5176 35.2832C90.4941 34.8106 91.4316 34.3374 92.3277 33.865C96.7072 31.5561 99.9475 29.3436 101.942 27.4008C104.111 25.2893 104.052 24.2719 104.02 24.141C103.987 24.01 103.565 23.0825 100.663 22.2245C97.9925 21.435 94.0944 20.9871 89.1437 20.9848C88.2173 20.9844 87.2602 20.9995 86.2742 21.0302C88.2678 25.3844 89.4185 30.2049 89.5176 35.2832ZM84.7579 18.0857C97.3406 17.5246 105.914 19.3036 106.932 23.421C107.961 27.5827 101.047 33.2272 89.4288 38.6466C88.0739 57.2931 72.5168 72 53.5246 72C40.5877 72 29.2446 65.176 22.8984 54.9313C10.5306 55.4381 2.12465 53.6535 1.11744 49.5791C0.120885 45.5479 6.57734 40.1253 17.5422 34.8637C18.1424 15.5073 34.0226 0 53.5246 0C66.8851 0 78.5456 7.27803 84.7579 18.0857Z" fill="#4395E6"/>
</g>
<path d="M44.3366 36.944L44.9926 36.752C45.3126 37.312 45.6966 38.064 45.8726 38.496L45.2006 38.768C45.0246 38.304 44.6566 37.52 44.3366 36.944ZM46.4806 38.736H47.3926V43.056H46.4806V38.736ZM42.2246 38.976H43.0406V40.48H44.9926V41.232H42.2246V38.976ZM44.5606 38.736H45.4406V40.176C45.4406 41.376 45.1526 42.48 43.1526 43.184C43.0406 42.976 42.7686 42.64 42.5606 42.48C44.3366 41.936 44.5606 41.04 44.5606 40.16V38.736ZM40.0326 31.328H44.5286V32.144H40.0326V31.328ZM47.3926 31.328H52.0006V32.144H47.3926V31.328ZM51.5526 29.248H52.7206V41.776C52.7206 42.448 52.5926 42.816 52.1606 43.024C51.7286 43.232 51.0406 43.248 50.0486 43.248C50.0006 42.928 49.8406 42.368 49.6806 42.048C50.3846 42.08 51.0566 42.08 51.2806 42.064C51.4886 42.064 51.5526 41.984 51.5526 41.776V29.248ZM40.1286 29.248H45.2806V34.176H40.1286V33.296H44.1446V30.128H40.1286V29.248ZM52.1286 29.248V30.128H47.8406V33.296H52.1286V34.176H46.7046V29.248H52.1286ZM39.4086 29.248H40.5606V43.296H39.4086V29.248ZM41.9206 36.752C41.8726 36.56 41.7446 36.144 41.6326 35.92C41.8086 35.888 41.9846 35.808 42.1606 35.648C42.3366 35.472 42.9926 34.768 43.3606 34.064L44.1446 34.464C43.6326 35.184 43.0246 35.84 42.4966 36.256V36.272C42.4966 36.272 41.9206 36.544 41.9206 36.752ZM41.9206 36.752L41.9046 36.176L42.3526 35.936L44.4966 35.856C44.4166 36.048 44.3206 36.336 44.2886 36.496C42.4486 36.608 42.0966 36.672 41.9206 36.752ZM41.8246 38.64C41.7926 38.464 41.6646 38.064 41.5686 37.84C41.8246 37.824 42.0966 37.648 42.4326 37.392C42.7846 37.136 43.9846 36.096 44.8006 35.056L45.4886 35.52C44.5126 36.56 43.4406 37.536 42.4006 38.192V38.208C42.4006 38.208 41.8246 38.432 41.8246 38.64ZM41.8246 38.64V38.048L42.2406 37.792L45.1366 37.552C45.1526 37.76 45.2006 38.032 45.2486 38.192C42.4646 38.464 42.0486 38.544 41.8246 38.64ZM48.7046 36.96L49.3286 36.736C49.6806 37.312 50.0806 38.048 50.2726 38.48L49.6006 38.784C49.4086 38.32 49.0246 37.536 48.7046 36.96ZM46.3046 36.752C46.2406 36.576 46.1286 36.16 46.0166 35.936C46.2086 35.904 46.3686 35.808 46.5446 35.648C46.7206 35.488 47.3766 34.784 47.7446 34.064L48.5286 34.464C48.0326 35.2 47.4246 35.856 46.8646 36.272V36.288C46.8646 36.288 46.3046 36.56 46.3046 36.752ZM46.3046 36.752L46.2886 36.176L46.7206 35.952L48.8806 35.856C48.8006 36.048 48.7046 36.336 48.6726 36.496C46.8326 36.608 46.4806 36.672 46.3046 36.752ZM46.2246 38.656C46.1926 38.464 46.0646 38.064 45.9686 37.856C46.2086 37.824 46.4966 37.664 46.8326 37.392C47.1846 37.152 48.3846 36.096 49.1846 35.04L49.8886 35.504C48.9126 36.56 47.8406 37.536 46.7846 38.192V38.224C46.7846 38.224 46.2246 38.448 46.2246 38.656ZM46.2246 38.656L46.2086 38.048L46.6406 37.792L49.5366 37.568C49.5526 37.76 49.6006 38.048 49.6326 38.208C46.8646 38.48 46.4646 38.544 46.2246 38.656ZM47.1206 40.48H49.3926V41.232H47.1206V40.48ZM48.9286 38.992H49.7766V41.728H48.9286V38.992ZM54.8166 31.2H61.3126V32.32H54.8166V31.2ZM57.2166 34.544H60.0326V35.648H57.2166V34.544ZM56.4166 31.792H57.6006C57.5366 36.736 57.3766 40.816 55.4086 43.232C55.2166 42.944 54.8006 42.544 54.4966 42.352C56.2886 40.208 56.3686 36.4 56.4166 31.792ZM59.6006 34.544H60.7366C60.7366 34.544 60.7366 34.928 60.7206 35.088C60.5286 40.144 60.3526 41.888 59.9046 42.448C59.6486 42.816 59.3926 42.928 58.9766 42.96C58.6406 43.008 58.0806 43.008 57.5046 42.976C57.4886 42.656 57.3766 42.176 57.2166 41.872C57.7446 41.92 58.2246 41.92 58.4486 41.92C58.6566 41.936 58.7846 41.888 58.9126 41.728C59.2166 41.312 59.4086 39.616 59.6006 34.784V34.544ZM63.3926 35.536L64.1766 34.752C65.1526 35.36 66.3846 36.256 66.9926 36.864L66.1766 37.76C65.5846 37.152 64.3686 36.192 63.3926 35.536ZM62.4166 40.08L63.1846 39.184C64.6726 39.904 66.6406 41.072 67.6006 41.888L66.7846 42.928C65.8566 42.08 63.9366 40.864 62.4166 40.08ZM56.7206 28.912L57.7766 28.512C58.3366 29.184 58.9286 30.128 59.1686 30.736L58.0486 31.2C57.8406 30.576 57.2646 29.632 56.7206 28.912ZM65.5206 29.488C66.3366 31.264 68.0006 33.216 69.5686 34.08C69.2806 34.304 68.8806 34.736 68.6726 35.056C67.0726 34.016 65.4726 31.856 64.5926 29.824L65.5206 29.488ZM64.8006 28.48L65.9206 28.816C65.1046 31.504 63.6486 33.76 61.6166 35.168C61.4406 34.864 61.0886 34.464 60.7846 34.224C62.6566 33.056 64.0966 30.944 64.8006 28.48Z" fill="#FFFEF6"/>
<defs>
<filter id="filter0_d_537_208" x="0.0166016" y="0" width="114.017" height="80" filterUnits="userSpaceOnUse" color-interpolation-filters="sRGB">
<feFlood flood-opacity="0" result="BackgroundImageFix"/>
<feColorMatrix in="SourceAlpha" type="matrix" values="0 0 0 0 0 0 0 0 0 0 0 0 0 0 0 0 0 0 127 0" result="hardAlpha"/>
<feOffset dx="3" dy="4"/>
<feGaussianBlur stdDeviation="2"/>
<feComposite in2="hardAlpha" operator="out"/>
<feColorMatrix type="matrix" values="0 0 0 0 0.151771 0 0 0 0 0.420893 0 0 0 0 0.775 0 0 0 0.25 0"/>
<feBlend mode="normal" in2="BackgroundImageFix" result="effect1_dropShadow_537_208"/>
<feBlend mode="normal" in="SourceGraphic" in2="effect1_dropShadow_537_208" result="shape"/>
</filter>
</defs>
</svg>
