<svg width="115" height="80" viewBox="0 0 115 80" fill="none" xmlns="http://www.w3.org/2000/svg">
<g filter="url(#filter0_d_537_238)">
<path fill-rule="evenodd" clip-rule="evenodd" d="M21.3587 51.9847C19.2729 47.7824 17.9838 43.1148 17.6891 38.1793C17.0483 38.498 16.4255 38.8167 15.8215 39.1352C11.442 41.444 8.20166 43.6566 6.20673 45.5993C4.03847 47.7108 4.09701 48.7282 4.12938 48.8592C4.16174 48.9901 4.584 49.9176 7.48635 50.7756C10.1567 51.5651 14.0548 52.013 19.0055 52.0153C19.7693 52.0157 20.5541 52.0055 21.3587 51.9847ZM89.6173 35.2832C90.5937 34.8106 91.5312 34.3374 92.4273 33.865C96.8068 31.5561 100.047 29.3436 102.042 27.4008C104.21 25.2893 104.152 24.2719 104.119 24.141C104.087 24.01 103.665 23.0825 100.762 22.2245C98.0921 21.435 94.194 20.9871 89.2433 20.9848C88.317 20.9844 87.3598 20.9995 86.3739 21.0302C88.3674 25.3844 89.5181 30.2049 89.6173 35.2832ZM84.8575 18.0857C97.4402 17.5246 106.014 19.3036 107.032 23.421C108.061 27.5827 101.146 33.2272 89.5284 38.6466C88.1735 57.2931 72.6164 72 53.6243 72C40.6873 72 29.3442 65.176 22.998 54.9313C10.6302 55.4381 2.22426 53.6535 1.21705 49.5791C0.220495 45.5479 6.67695 40.1253 17.6418 34.8637C18.242 15.5073 34.1222 0 53.6243 0C66.9847 0 78.6452 7.27803 84.8575 18.0857Z" fill="#4395E6"/>
</g>
<path d="M41.7482 33.984V36.4H50.4202V33.984H41.7482ZM40.7242 33.168H51.5082V37.216H40.7242V33.168ZM43.3482 31.488H48.9322V32.336H43.3482V31.488ZM45.5562 33.456H46.5642V36.8H45.5562V33.456ZM42.7242 34.464L43.5882 34.176C44.0042 34.736 44.3882 35.488 44.5482 36L43.6202 36.336C43.4922 35.824 43.1242 35.04 42.7242 34.464ZM48.4842 34.112L49.5082 34.432C49.1562 35.12 48.7402 35.856 48.4202 36.336L47.5882 36.048C47.8922 35.504 48.2922 34.656 48.4842 34.112ZM41.6682 37.984H50.7082V43.216H49.4922V38.832H42.8522V43.28H41.6682V37.984ZM42.3722 39.904H50.0202V40.784H42.3722V39.904ZM42.3722 41.872H50.0202V42.736H42.3722V41.872ZM45.9882 28.496L47.0602 28.896C45.3642 31.104 42.3562 32.64 39.3962 33.6C39.2682 33.36 38.9322 32.864 38.7082 32.656C41.6362 31.856 44.5002 30.448 45.9882 28.496ZM46.6922 29.056C48.1642 30.592 51.0602 31.936 53.6522 32.544C53.3962 32.752 53.0602 33.184 52.8842 33.472C50.2922 32.768 47.3802 31.232 45.7642 29.456L46.6922 29.056ZM58.3402 30.16V31.808H65.9402V30.16H58.3402ZM57.1402 29.184H67.2042V32.8H57.1402V29.184ZM57.6522 36.592V37.728H66.6122V36.592H57.6522ZM57.6522 38.576V39.728H66.6122V38.576H57.6522ZM57.6522 34.624V35.744H66.6122V34.624H57.6522ZM56.4522 33.728H67.8442V40.608H56.4522V33.728ZM59.5082 40.592L60.6282 41.328C59.3482 42.112 57.2682 42.88 55.6202 43.296C55.4122 43.04 55.0122 42.656 54.7242 42.416C56.4042 42.016 58.5002 41.248 59.5082 40.592ZM63.4122 41.424L64.4522 40.64C66.1162 41.136 68.2602 41.92 69.5082 42.448L68.4682 43.312C67.2842 42.752 65.1082 41.92 63.4122 41.424Z" fill="#FFFEF6"/>
<defs>
<filter id="filter0_d_537_238" x="0.116211" y="0" width="114.017" height="80" filterUnits="userSpaceOnUse" color-interpolation-filters="sRGB">
<feFlood flood-opacity="0" result="BackgroundImageFix"/>
<feColorMatrix in="SourceAlpha" type="matrix" values="0 0 0 0 0 0 0 0 0 0 0 0 0 0 0 0 0 0 127 0" result="hardAlpha"/>
<feOffset dx="3" dy="4"/>
<feGaussianBlur stdDeviation="2"/>
<feComposite in2="hardAlpha" operator="out"/>
<feColorMatrix type="matrix" values="0 0 0 0 0.151771 0 0 0 0 0.420893 0 0 0 0 0.775 0 0 0 0.25 0"/>
<feBlend mode="normal" in2="BackgroundImageFix" result="effect1_dropShadow_537_238"/>
<feBlend mode="normal" in="SourceGraphic" in2="effect1_dropShadow_537_238" result="shape"/>
</filter>
</defs>
</svg>
