<svg width="115" height="80" viewBox="0 0 115 80" fill="none" xmlns="http://www.w3.org/2000/svg">
<g filter="url(#filter0_d_537_228)">
<path fill-rule="evenodd" clip-rule="evenodd" d="M21.3255 51.9847C19.2397 47.7824 17.9506 43.1148 17.6559 38.1793C17.0151 38.498 16.3923 38.8167 15.7883 39.1352C11.4088 41.444 8.16846 43.6566 6.17352 45.5993C4.00527 47.7108 4.06381 48.7282 4.09617 48.8592C4.12854 48.9901 4.5508 49.9176 7.45315 50.7756C10.1235 51.5651 14.0216 52.013 18.9723 52.0153C19.7361 52.0157 20.5209 52.0055 21.3255 51.9847ZM89.5841 35.2832C90.5605 34.8106 91.498 34.3374 92.3941 33.865C96.7736 31.5561 100.014 29.3436 102.009 27.4008C104.177 25.2893 104.119 24.2719 104.086 24.141C104.054 24.01 103.632 23.0825 100.729 22.2245C98.0589 21.435 94.1608 20.9871 89.2101 20.9848C88.2837 20.9844 87.3266 20.9995 86.3406 21.0302C88.3342 25.3844 89.4849 30.2049 89.5841 35.2832ZM84.8243 18.0857C97.407 17.5246 105.981 19.3036 106.999 23.421C108.027 27.5827 101.113 33.2272 89.4952 38.6466C88.1403 57.2931 72.5832 72 53.5911 72C40.6541 72 29.311 65.176 22.9648 54.9313C10.597 55.4381 2.19106 53.6535 1.18384 49.5791C0.187292 45.5479 6.64374 40.1253 17.6086 34.8637C18.2088 15.5073 34.089 0 53.5911 0C66.9515 0 78.612 7.27803 84.8243 18.0857Z" fill="#4395E6"/>
</g>
<path d="M47.443 29.592H48.579V38.696H47.443V29.592ZM43.459 38.184H51.411V39.208H43.459V38.184ZM49.283 33.352H51.955V34.36H49.283V33.352ZM44.211 33.352H46.771V34.36H44.211V33.352ZM43.635 35.944H46.867V36.968H43.635V35.944ZM43.635 31.144L44.723 31.496V36.648H43.635V31.144ZM46.179 30.024L46.931 30.888C46.051 31.288 44.979 31.64 44.195 31.848L43.635 31.144C44.403 30.888 45.539 30.376 46.179 30.024ZM51.107 38.184H51.347L51.555 38.136L52.323 38.488C50.771 41.96 47.059 43.608 43.107 44.296C43.011 43.992 42.755 43.512 42.547 43.24C46.275 42.712 49.811 41.208 51.107 38.36V38.184ZM45.603 39C47.027 41.192 50.019 42.696 53.539 43.224C53.267 43.48 52.947 43.976 52.771 44.28C49.187 43.624 46.195 41.928 44.579 39.384L45.603 39ZM49.171 30.744H52.515V36.984H49.171V35.96H51.459V31.768H49.171V30.744ZM38.691 38.056C39.811 37.704 41.475 37.096 43.091 36.488L43.299 37.576C41.827 38.152 40.259 38.744 39.027 39.208L38.691 38.056ZM38.851 32.792H43.139V33.912H38.851V32.792ZM40.643 29.592H41.763V42.76C41.763 43.384 41.603 43.72 41.235 43.912C40.851 44.12 40.259 44.152 39.299 44.152C39.267 43.832 39.123 43.336 38.963 43.016C39.619 43.032 40.195 43.032 40.387 43.032C40.579 43.016 40.643 42.968 40.643 42.76V29.592ZM57.059 30.36H67.139V34.92H56.979V34.072H65.955V31.224H57.059V30.36ZM63.539 36.6V38.168H67.219V36.6H63.539ZM62.403 35.752H68.387V39.016H62.403V35.752ZM54.979 32.216H66.547V33.064H54.979V32.216ZM66.515 32.152H69.267V33.112H66.515V32.152ZM55.443 35.752H61.299V36.648H55.443V35.752ZM54.819 39.992H69.347V41H54.819V39.992ZM64.851 38.872H66.035V43.048C66.035 43.688 65.875 43.976 65.363 44.136C64.835 44.296 63.987 44.296 62.611 44.296C62.547 44.008 62.371 43.608 62.211 43.304C63.267 43.352 64.243 43.336 64.499 43.336C64.787 43.304 64.851 43.256 64.851 43.016V38.872ZM57.779 36.088H58.899V38.44H57.779V36.088ZM55.123 38.36C56.755 38.28 59.219 38.104 61.619 37.928V38.824C59.315 39.016 56.915 39.208 55.219 39.336L55.123 38.36ZM57.475 41.608L58.291 40.904C59.203 41.416 60.323 42.216 60.851 42.824L59.987 43.592C59.491 42.984 58.419 42.152 57.475 41.608Z" fill="#FFFEF6"/>
<defs>
<filter id="filter0_d_537_228" x="0.0830078" y="0" width="114.017" height="80" filterUnits="userSpaceOnUse" color-interpolation-filters="sRGB">
<feFlood flood-opacity="0" result="BackgroundImageFix"/>
<feColorMatrix in="SourceAlpha" type="matrix" values="0 0 0 0 0 0 0 0 0 0 0 0 0 0 0 0 0 0 127 0" result="hardAlpha"/>
<feOffset dx="3" dy="4"/>
<feGaussianBlur stdDeviation="2"/>
<feComposite in2="hardAlpha" operator="out"/>
<feColorMatrix type="matrix" values="0 0 0 0 0.151771 0 0 0 0 0.420893 0 0 0 0 0.775 0 0 0 0.25 0"/>
<feBlend mode="normal" in2="BackgroundImageFix" result="effect1_dropShadow_537_228"/>
<feBlend mode="normal" in="SourceGraphic" in2="effect1_dropShadow_537_228" result="shape"/>
</filter>
</defs>
</svg>
