<svg width="115" height="81" viewBox="0 0 115 81" fill="none" xmlns="http://www.w3.org/2000/svg">
<g filter="url(#filter0_d_537_223)">
<path fill-rule="evenodd" clip-rule="evenodd" d="M21.3089 52.4847C19.2231 48.2824 17.934 43.6148 17.6393 38.6793C16.9985 38.998 16.3757 39.3167 15.7717 39.6352C11.3922 41.944 8.15186 44.1566 6.15692 46.0993C3.98867 48.2108 4.04721 49.2282 4.07957 49.3592C4.11194 49.4901 4.5342 50.4176 7.43655 51.2756C10.1069 52.0651 14.005 52.513 18.9557 52.5153C19.7195 52.5157 20.5043 52.5055 21.3089 52.4847ZM89.5675 35.7832C90.5439 35.3106 91.4814 34.8374 92.3775 34.365C96.757 32.0561 99.9973 29.8436 101.992 27.9008C104.161 25.7893 104.102 24.7719 104.07 24.641C104.037 24.51 103.615 23.5825 100.713 22.7245C98.0423 21.935 94.1442 21.4871 89.1935 21.4848C88.2671 21.4844 87.31 21.4995 86.324 21.5302C88.3176 25.8844 89.4683 30.7049 89.5675 35.7832ZM84.8077 18.5857C97.3904 18.0246 105.964 19.8036 106.982 23.921C108.011 28.0827 101.096 33.7272 89.4786 39.1466C88.1237 57.7931 72.5666 72.5 53.5745 72.5C40.6375 72.5 29.2944 65.676 22.9482 55.4313C10.5804 55.9381 2.17446 54.1535 1.16724 50.0791C0.17069 46.0479 6.62714 40.6253 17.592 35.3637C18.1922 16.0073 34.0724 0.5 53.5745 0.5C66.9349 0.5 78.5954 7.77803 84.8077 18.5857Z" fill="#4395E6"/>
</g>
<path d="M40.7302 28.684H51.4502V33.596H50.2342V29.596H41.8982V33.596H40.7302V28.684ZM42.6022 30.556H49.5142V31.356H42.6022V30.556ZM42.6022 32.332H49.4982V33.18H42.6022V32.332ZM38.9702 34.236H53.0982V35.228H38.9702V34.236ZM45.9302 36.236H51.6902V37.212H45.9302V36.236ZM41.0182 36.284H44.9542V37.18H41.0182V36.284ZM41.0182 38.252H44.9542V39.148H41.0182V38.252ZM47.7062 37.132C48.6502 39.42 50.6982 41.164 53.4022 41.836C53.1622 42.06 52.8422 42.492 52.6822 42.78C49.8662 41.948 47.8022 40.044 46.7462 37.42L47.7062 37.132ZM51.4022 36.236H51.6262L51.8342 36.188L52.5702 36.492C51.5142 39.772 48.9542 41.788 46.1862 42.748C46.0422 42.476 45.7542 42.028 45.5142 41.804C48.0902 41.036 50.5382 39.148 51.4022 36.428V36.236ZM38.7782 40.716C40.3302 40.588 42.6662 40.348 44.9542 40.092L44.9862 41.068C42.7942 41.34 40.5382 41.596 38.9062 41.772L38.7782 40.716ZM44.3302 34.556H45.4822V42.78H44.3302V34.556ZM40.3142 34.556H41.4342V40.988H40.3142V34.556ZM63.6262 33.468H69.4022V34.588H63.6262V33.468ZM55.0502 29.74H62.1062V30.764H55.0502V29.74ZM54.8742 36.092H62.1862V37.132H54.8742V36.092ZM54.7942 33.404H62.3622V34.428H54.7942V33.404ZM66.4742 33.948H67.6422V42.716H66.4742V33.948ZM56.0902 31.084L57.0662 30.86C57.3702 31.548 57.6422 32.46 57.7222 33.052L56.6982 33.34C56.6182 32.732 56.3782 31.788 56.0902 31.084ZM60.1062 30.844L61.2102 31.084C60.8742 32.028 60.4742 33.116 60.1382 33.82L59.1462 33.58C59.4822 32.844 59.8822 31.644 60.1062 30.844ZM68.1542 28.348L69.1302 29.244C67.6102 29.804 65.4182 30.252 63.5302 30.524C63.4662 30.268 63.2902 29.868 63.1462 29.612C64.9542 29.308 67.0022 28.844 68.1542 28.348ZM57.4982 28.284L58.6822 27.98C59.0662 28.62 59.4982 29.5 59.6742 30.044L58.4422 30.412C58.2662 29.852 57.8662 28.956 57.4982 28.284ZM63.1462 29.612H64.2662V35.148C64.2662 37.452 64.0582 40.62 62.5862 42.716C62.3942 42.492 61.9302 42.124 61.6742 41.98C63.0342 40.044 63.1462 37.292 63.1462 35.148V29.612ZM59.9942 38.316L60.8102 37.884C61.3382 38.684 61.9142 39.724 62.1542 40.412L61.3062 40.908C61.0502 40.22 60.4742 39.116 59.9942 38.316ZM56.2982 37.98L57.2742 38.252C56.8902 39.404 56.2342 40.668 55.6102 41.484C55.4342 41.324 55.0182 41.02 54.7782 40.892C55.4022 40.14 55.9462 39.036 56.2982 37.98ZM58.0902 33.932H59.2582V42.716H58.0902V33.932Z" fill="#FFFEF6"/>
<defs>
<filter id="filter0_d_537_223" x="0.0664062" y="0.5" width="114.017" height="80" filterUnits="userSpaceOnUse" color-interpolation-filters="sRGB">
<feFlood flood-opacity="0" result="BackgroundImageFix"/>
<feColorMatrix in="SourceAlpha" type="matrix" values="0 0 0 0 0 0 0 0 0 0 0 0 0 0 0 0 0 0 127 0" result="hardAlpha"/>
<feOffset dx="3" dy="4"/>
<feGaussianBlur stdDeviation="2"/>
<feComposite in2="hardAlpha" operator="out"/>
<feColorMatrix type="matrix" values="0 0 0 0 0.151771 0 0 0 0 0.420893 0 0 0 0 0.775 0 0 0 0.25 0"/>
<feBlend mode="normal" in2="BackgroundImageFix" result="effect1_dropShadow_537_223"/>
<feBlend mode="normal" in="SourceGraphic" in2="effect1_dropShadow_537_223" result="shape"/>
</filter>
</defs>
</svg>
