<svg width="115" height="80" viewBox="0 0 115 80" fill="none" xmlns="http://www.w3.org/2000/svg">
<g filter="url(#filter0_d_537_203)">
<path fill-rule="evenodd" clip-rule="evenodd" d="M21.2425 51.9847C19.1567 47.7824 17.8676 43.1148 17.5729 38.1793C16.9321 38.498 16.3093 38.8167 15.7052 39.1352C11.3258 41.444 8.08545 43.6566 6.09051 45.5993C3.92226 47.7108 3.9808 48.7282 4.01317 48.8592C4.04553 48.9901 4.46779 49.9176 7.37014 50.7756C10.0405 51.5651 13.9385 52.013 18.8893 52.0153C19.6531 52.0157 20.4379 52.0055 21.2425 51.9847ZM89.501 35.2832C90.4775 34.8106 91.415 34.3374 92.3111 33.865C96.6906 31.5561 99.9309 29.3436 101.926 27.4008C104.094 25.2893 104.036 24.2719 104.003 24.141C103.971 24.01 103.549 23.0825 100.646 22.2245C97.9759 21.435 94.0778 20.9871 89.1271 20.9848C88.2007 20.9844 87.2436 20.9995 86.2576 21.0302C88.2512 25.3844 89.4019 30.2049 89.501 35.2832ZM84.7413 18.0857C97.324 17.5246 105.898 19.3036 106.916 23.421C107.944 27.5827 101.03 33.2272 89.4122 38.6466C88.0573 57.2931 72.5002 72 53.508 72C40.5711 72 29.228 65.176 22.8818 54.9313C10.514 55.4381 2.10805 53.6535 1.10084 49.5791C0.104284 45.5479 6.56074 40.1253 17.5256 34.8637C18.1258 15.5073 34.006 0 53.508 0C66.8685 0 78.529 7.27803 84.7413 18.0857Z" fill="#4395E6"/>
</g>
<path d="M41.616 38.032H50.416V39.008H41.616V38.032ZM41.616 40.656H50.416V41.616H41.616V40.656ZM41.616 43.296H50.464V44.368H41.616V43.296ZM38.848 32.784H53.168V33.904H38.848V32.784ZM40.672 35.392H51.312V45.28H50.08V36.448H41.872V45.28H40.672V35.392ZM45.408 33.36L46.88 33.456C46.576 34.4 46.192 35.408 45.904 36.096L44.736 35.92C45.008 35.2 45.28 34.112 45.408 33.36ZM49.216 30.544L50.544 30.896C49.968 31.76 49.264 32.656 48.688 33.264L47.648 32.928C48.192 32.272 48.848 31.264 49.216 30.544ZM41.632 30.976L42.688 30.512C43.28 31.072 43.904 31.872 44.224 32.416L43.104 32.992C42.832 32.432 42.192 31.584 41.632 30.976ZM58.064 37.296V38.768H66.144V37.296H58.064ZM58.064 39.696V41.168H66.144V39.696H58.064ZM58.064 34.928V36.368H66.144V34.928H58.064ZM56.816 33.968H67.424V42.128H56.816V33.968ZM63.184 43.184L64.032 42.4C65.92 43.024 67.968 43.856 69.216 44.48L68.096 45.296C66.96 44.672 65.056 43.824 63.184 43.184ZM55.296 31.392H68.656V32.496H55.296V31.392ZM61.392 31.856L62.8 32.032C62.528 32.944 62.224 33.92 61.968 34.576L60.832 34.368C61.056 33.664 61.296 32.592 61.392 31.856ZM59.744 42.32L60.832 43.104C59.44 43.952 57.264 44.8 55.552 45.28C55.36 45.024 54.992 44.608 54.72 44.352C56.448 43.888 58.64 43.056 59.744 42.32Z" fill="#FFFEF6"/>
<defs>
<filter id="filter0_d_537_203" x="0" y="0" width="114.017" height="80" filterUnits="userSpaceOnUse" color-interpolation-filters="sRGB">
<feFlood flood-opacity="0" result="BackgroundImageFix"/>
<feColorMatrix in="SourceAlpha" type="matrix" values="0 0 0 0 0 0 0 0 0 0 0 0 0 0 0 0 0 0 127 0" result="hardAlpha"/>
<feOffset dx="3" dy="4"/>
<feGaussianBlur stdDeviation="2"/>
<feComposite in2="hardAlpha" operator="out"/>
<feColorMatrix type="matrix" values="0 0 0 0 0.151771 0 0 0 0 0.420893 0 0 0 0 0.775 0 0 0 0.25 0"/>
<feBlend mode="normal" in2="BackgroundImageFix" result="effect1_dropShadow_537_203"/>
<feBlend mode="normal" in="SourceGraphic" in2="effect1_dropShadow_537_203" result="shape"/>
</filter>
</defs>
</svg>
