<svg width="115" height="80" viewBox="0 0 115 80" fill="none" xmlns="http://www.w3.org/2000/svg">
<g filter="url(#filter0_d_537_213)">
<path fill-rule="evenodd" clip-rule="evenodd" d="M21.2757 51.9847C19.1899 47.7824 17.9008 43.1148 17.6061 38.1793C16.9653 38.498 16.3425 38.8167 15.7385 39.1352C11.359 41.444 8.11866 43.6566 6.12372 45.5993C3.95547 47.7108 4.014 48.7282 4.04637 48.8592C4.07874 48.9901 4.501 49.9176 7.40334 50.7756C10.0737 51.5651 13.9717 52.013 18.9225 52.0153C19.6863 52.0157 20.4711 52.0055 21.2757 51.9847ZM89.5343 35.2832C90.5107 34.8106 91.4482 34.3374 92.3443 33.865C96.7238 31.5561 99.9641 29.3436 101.959 27.4008C104.127 25.2893 104.069 24.2719 104.036 24.141C104.004 24.01 103.582 23.0825 100.679 22.2245C98.0091 21.435 94.111 20.9871 89.1603 20.9848C88.2339 20.9844 87.2768 20.9995 86.2908 21.0302C88.2844 25.3844 89.4351 30.2049 89.5343 35.2832ZM84.7745 18.0857C97.3572 17.5246 105.931 19.3036 106.949 23.421C107.978 27.5827 101.063 33.2272 89.4454 38.6466C88.0905 57.2931 72.5334 72 53.5412 72C40.6043 72 29.2612 65.176 22.915 54.9313C10.5472 55.4381 2.14126 53.6535 1.13404 49.5791C0.137487 45.5479 6.59394 40.1253 17.5588 34.8637C18.159 15.5073 34.0392 0 53.5412 0C66.9017 0 78.5622 7.27803 84.7745 18.0857Z" fill="#4395E6"/>
</g>
<path d="M44.5292 37.816H53.1692V38.904H44.5292V37.816ZM49.7932 38.44C50.6252 39.992 52.1932 41.704 53.5692 42.536C53.2972 42.76 52.9132 43.16 52.7212 43.464C51.3612 42.44 49.7932 40.52 48.9132 38.776L49.7932 38.44ZM46.2092 33.832V35.496H51.5532V33.832H46.2092ZM46.2092 31.224V32.856H51.5532V31.224H46.2092ZM45.1212 30.232H52.6892V36.488H45.1212V30.232ZM47.9692 38.36L48.8812 38.696C48.0012 40.648 46.3852 42.584 44.8012 43.56C44.6252 43.288 44.2572 42.872 44.0012 42.648C45.5532 41.816 47.1532 40.072 47.9692 38.36ZM48.3212 30.744H49.3772V36.008H49.4412V44.28H48.2732V36.008H48.3212V30.744ZM39.3292 34.408H44.0332V35.368H39.3292V34.408ZM39.3292 36.504H44.0332V37.464H39.3292V36.504ZM38.6732 32.28H44.5452V33.288H38.6732V32.28ZM39.8572 38.648H44.1292V43.32H39.8572V42.312H43.0572V39.656H39.8572V38.648ZM39.3292 38.648H40.3852V44.072H39.3292V38.648ZM40.4812 29.976L41.4092 29.496C41.8892 30.152 42.4012 31 42.6572 31.56L41.6812 32.136C41.4412 31.544 40.9292 30.632 40.4812 29.976ZM64.2092 37.064H65.3932V43.528H64.2092V37.064ZM60.2092 42.808H69.3132V43.88H60.2092V42.808ZM61.0892 39.624H68.6412V40.648H61.0892V39.624ZM62.3692 31.416V34.424H67.2972V31.416H62.3692ZM61.2492 30.376H68.4652V35.48H61.2492V30.376ZM67.9532 36.056L68.7532 36.952C66.7532 37.512 63.6172 37.816 61.0412 37.944C61.0092 37.672 60.8812 37.272 60.7532 37C63.2492 36.856 66.2892 36.536 67.9532 36.056ZM57.4252 30.888H58.5932V44.248H57.4252V30.888ZM54.8012 34.072H60.6092V35.208H54.8012V34.072ZM57.4892 34.504L58.2412 34.824C57.6012 37.08 56.3212 39.88 55.0892 41.368C54.9772 41.032 54.6892 40.536 54.4812 40.264C55.6332 38.984 56.9132 36.488 57.4892 34.504ZM59.8412 29.8L60.6892 30.728C59.2012 31.32 56.9452 31.768 55.0732 32.024C55.0092 31.768 54.8492 31.368 54.7052 31.096C56.5292 30.792 58.6572 30.344 59.8412 29.8ZM58.5452 36.136C58.9452 36.488 60.4492 38.008 60.7692 38.408L60.0652 39.352C59.6812 38.696 58.4812 37.176 57.9852 36.616L58.5452 36.136Z" fill="#FFFEF6"/>
<defs>
<filter id="filter0_d_537_213" x="0.0332031" y="0" width="114.017" height="80" filterUnits="userSpaceOnUse" color-interpolation-filters="sRGB">
<feFlood flood-opacity="0" result="BackgroundImageFix"/>
<feColorMatrix in="SourceAlpha" type="matrix" values="0 0 0 0 0 0 0 0 0 0 0 0 0 0 0 0 0 0 127 0" result="hardAlpha"/>
<feOffset dx="3" dy="4"/>
<feGaussianBlur stdDeviation="2"/>
<feComposite in2="hardAlpha" operator="out"/>
<feColorMatrix type="matrix" values="0 0 0 0 0.151771 0 0 0 0 0.420893 0 0 0 0 0.775 0 0 0 0.25 0"/>
<feBlend mode="normal" in2="BackgroundImageFix" result="effect1_dropShadow_537_213"/>
<feBlend mode="normal" in="SourceGraphic" in2="effect1_dropShadow_537_213" result="shape"/>
</filter>
</defs>
</svg>
