<svg width="115" height="81" viewBox="0 0 115 81" fill="none" xmlns="http://www.w3.org/2000/svg">
<g filter="url(#filter0_d_537_218)">
<path fill-rule="evenodd" clip-rule="evenodd" d="M21.2923 52.4847C19.2065 48.2824 17.9174 43.6148 17.6227 38.6793C16.9819 38.998 16.3591 39.3167 15.7551 39.6352C11.3756 41.944 8.13526 44.1566 6.14032 46.0993C3.97207 48.2108 4.0306 49.2282 4.06297 49.3592C4.09534 49.4901 4.5176 50.4176 7.41995 51.2756C10.0903 52.0651 13.9883 52.513 18.9391 52.5153C19.7029 52.5157 20.4877 52.5055 21.2923 52.4847ZM89.5509 35.7832C90.5273 35.3106 91.4648 34.8374 92.3609 34.365C96.7404 32.0561 99.9807 29.8436 101.976 27.9008C104.144 25.7893 104.085 24.7719 104.053 24.641C104.021 24.51 103.598 23.5825 100.696 22.7245C98.0257 21.935 94.1276 21.4871 89.1769 21.4848C88.2505 21.4844 87.2934 21.4995 86.3074 21.5302C88.301 25.8844 89.4517 30.7049 89.5509 35.7832ZM84.7911 18.5857C97.3738 18.0246 105.947 19.8036 106.965 23.921C107.994 28.0827 101.08 33.7272 89.462 39.1466C88.1071 57.7931 72.55 72.5 53.5578 72.5C40.6209 72.5 29.2778 65.676 22.9316 55.4313C10.5638 55.9381 2.15786 54.1535 1.15064 50.0791C0.154088 46.0479 6.61054 40.6253 17.5754 35.3637C18.1756 16.0073 34.0558 0.5 53.5578 0.5C66.9183 0.5 78.5788 7.77803 84.7911 18.5857Z" fill="#4395E6"/>
</g>
<path d="M49.5858 40.028H50.8018C50.8018 40.028 50.7538 40.396 50.7218 40.572C50.3858 42.78 50.0498 43.788 49.5378 44.236C49.1538 44.556 48.7858 44.636 48.1458 44.668C47.6018 44.684 46.4818 44.668 45.2978 44.604C45.2658 44.252 45.1218 43.788 44.8978 43.468C46.0818 43.58 47.3778 43.612 47.8098 43.612C48.2098 43.612 48.4018 43.596 48.5938 43.468C48.9938 43.164 49.2818 42.236 49.5698 40.188L49.5858 40.028ZM43.4578 40.028H49.9538V41.036H43.1698L43.4578 40.028ZM43.9538 37.468H51.5538V38.444H43.6018L43.9538 37.468ZM39.1698 34.812H53.0738V35.852H39.1698V34.812ZM40.5938 31.964H49.3618V32.972H40.5938V31.964ZM44.6898 30.06H45.8898V35.324H44.6898V30.06ZM51.4098 30.812L52.3538 31.356C49.1378 35.356 44.2258 38.492 39.2338 40.444C39.1378 40.172 38.8658 39.628 38.6738 39.372C43.6178 37.628 48.4338 34.556 51.4098 30.812ZM43.7458 37.868H44.9778C44.5458 38.956 43.9698 40.22 43.5698 41.036H42.2898C42.7698 40.172 43.3458 38.892 43.7458 37.868ZM55.4738 34.908H59.7618V35.868H55.4738V34.908ZM55.4738 37.004H59.7618V37.964H55.4738V37.004ZM54.8018 32.78H60.0498V33.788H54.8018V32.78ZM55.9538 39.148H59.7778V43.82H55.9538V42.812H58.7378V40.156H55.9538V39.148ZM55.4578 39.148H56.4978V44.572H55.4578V39.148ZM56.2898 30.476L57.2178 29.996C57.6978 30.652 58.2098 31.5 58.4658 32.06L57.4898 32.636C57.2498 32.044 56.7218 31.132 56.2898 30.476ZM60.4658 33.212H69.4418V34.348H60.4658V33.212ZM60.3218 36.62H64.8338V37.692H60.3218V36.62ZM62.0018 37.18H63.1058V42.316L62.0018 42.444V37.18ZM60.0658 42.412C61.4098 42.108 63.4098 41.596 65.3618 41.084L65.4578 42.108C63.6978 42.636 61.8418 43.18 60.4018 43.58L60.0658 42.412ZM65.1058 30.108H66.2898C66.2098 37.564 67.1058 43.628 68.1618 43.628C68.4338 43.628 68.5618 42.812 68.6098 41.02C68.8658 41.26 69.2498 41.532 69.5218 41.644C69.3458 44.044 69.0098 44.796 68.0178 44.796C65.7938 44.796 65.1698 37.804 65.1058 30.108ZM66.6898 30.892L67.5378 30.396C68.0818 31.004 68.7058 31.836 68.9778 32.396L68.0978 32.972C67.8418 32.412 67.2338 31.532 66.6898 30.892Z" fill="#FFFEF6"/>
<defs>
<filter id="filter0_d_537_218" x="0.0498047" y="0.5" width="114.017" height="80" filterUnits="userSpaceOnUse" color-interpolation-filters="sRGB">
<feFlood flood-opacity="0" result="BackgroundImageFix"/>
<feColorMatrix in="SourceAlpha" type="matrix" values="0 0 0 0 0 0 0 0 0 0 0 0 0 0 0 0 0 0 127 0" result="hardAlpha"/>
<feOffset dx="3" dy="4"/>
<feGaussianBlur stdDeviation="2"/>
<feComposite in2="hardAlpha" operator="out"/>
<feColorMatrix type="matrix" values="0 0 0 0 0.151771 0 0 0 0 0.420893 0 0 0 0 0.775 0 0 0 0.25 0"/>
<feBlend mode="normal" in2="BackgroundImageFix" result="effect1_dropShadow_537_218"/>
<feBlend mode="normal" in="SourceGraphic" in2="effect1_dropShadow_537_218" result="shape"/>
</filter>
</defs>
</svg>
