<svg width="115" height="80" viewBox="0 0 115 80" fill="none" xmlns="http://www.w3.org/2000/svg">
<g filter="url(#filter0_d_537_233)">
<path fill-rule="evenodd" clip-rule="evenodd" d="M21.3421 51.9847C19.2563 47.7824 17.9672 43.1148 17.6725 38.1793C17.0317 38.498 16.4089 38.8167 15.8049 39.1352C11.4254 41.444 8.18506 43.6566 6.19012 45.5993C4.02187 47.7108 4.08041 48.7282 4.11278 48.8592C4.14514 48.9901 4.5674 49.9176 7.46975 50.7756C10.1401 51.5651 14.0382 52.013 18.9889 52.0153C19.7527 52.0157 20.5375 52.0055 21.3421 51.9847ZM89.6007 35.2832C90.5771 34.8106 91.5146 34.3374 92.4107 33.865C96.7902 31.5561 100.031 29.3436 102.025 27.4008C104.194 25.2893 104.135 24.2719 104.103 24.141C104.07 24.01 103.648 23.0825 100.746 22.2245C98.0755 21.435 94.1774 20.9871 89.2267 20.9848C88.3003 20.9844 87.3432 20.9995 86.3572 21.0302C88.3508 25.3844 89.5015 30.2049 89.6007 35.2832ZM84.8409 18.0857C97.4236 17.5246 105.997 19.3036 107.015 23.421C108.044 27.5827 101.13 33.2272 89.5118 38.6466C88.1569 57.2931 72.5998 72 53.6077 72C40.6707 72 29.3276 65.176 22.9814 54.9313C10.6136 55.4381 2.20766 53.6535 1.20044 49.5791C0.203893 45.5479 6.66035 40.1253 17.6252 34.8637C18.2254 15.5073 34.1056 0 53.6077 0C66.9681 0 78.6286 7.27803 84.8409 18.0857Z" fill="#4395E6"/>
</g>
<path d="M46.8836 31.68H53.3796V32.816H46.8836V31.68ZM47.3316 28.56L48.5476 28.768C48.0036 31.872 47.0116 34.72 45.5076 36.608C45.3316 36.352 44.8996 35.824 44.6436 35.6C46.0196 33.968 46.8676 31.36 47.3316 28.56ZM51.0756 32.256L52.2596 32.416C51.3636 37.776 49.5556 41.216 45.6836 43.312C45.5396 43.056 45.1716 42.56 44.9156 42.32C48.6436 40.512 50.3236 37.248 51.0756 32.256ZM47.3316 32.688C48.3076 36.944 50.3076 40.656 53.5236 42.24C53.2516 42.48 52.8676 42.912 52.6756 43.216C49.3796 41.408 47.4116 37.536 46.3396 32.912L47.3316 32.688ZM43.2676 28.8H44.4676V43.296H43.2676V28.8ZM39.5716 40.4L39.4436 39.264L39.9876 38.768L43.8276 37.52C43.8756 37.84 44.0196 38.304 44.1156 38.56C40.4196 39.872 39.9076 40.144 39.5716 40.4ZM39.5716 40.4C39.4756 40.112 39.2516 39.568 39.0756 39.312C39.2996 39.168 39.6356 38.848 39.6356 38.224V30.352H40.8036V39.296C40.8036 39.296 39.5716 39.968 39.5716 40.4ZM58.2756 32.448H69.3316V33.488H58.2756V32.448ZM54.7556 37.584H58.0996V38.592H54.7556V37.584ZM60.0036 40.592H64.4836V41.424H60.0036V40.592ZM61.8116 34.928H62.6756V36.864H61.8116V34.928ZM61.8116 39.008H62.6756V40.96H61.8116V39.008ZM60.0996 36.432H64.3396V39.424H60.0996V38.64H63.4596V37.232H60.0996V36.432ZM59.5716 34.48H64.3396V35.312H60.4836V41.424H59.5716V34.48ZM57.7316 32.448H58.7556V36.88C58.7556 38.832 58.5956 41.52 57.6036 43.328C57.4116 43.152 56.9476 42.896 56.6916 42.8C57.6356 41.088 57.7316 38.688 57.7316 36.864V32.448ZM64.8196 31.392H65.9076C65.9556 38.72 67.1716 42.24 68.1316 42.24C68.4516 42.224 68.5956 41.792 68.6756 40.224C68.8996 40.448 69.2516 40.672 69.5236 40.768C69.3476 42.912 68.9636 43.312 68.0516 43.312C66.1636 43.312 65.0276 39.056 64.8196 31.392ZM66.4356 31.424L67.1396 30.864C67.7156 31.2 68.4036 31.712 68.7236 32.096L67.9716 32.704C67.6676 32.304 67.0116 31.776 66.4356 31.424ZM67.4436 34.48L68.5156 34.656C67.7316 38.496 66.2436 41.424 63.8756 43.312C63.6996 43.12 63.2516 42.752 62.9796 42.576C65.3636 40.864 66.7556 38.048 67.4436 34.48ZM55.6356 37.936H56.5476V39.328C56.5476 40.48 56.3716 42.144 55.3796 43.296C55.2036 43.136 54.8516 42.896 54.6436 42.784C55.5076 41.744 55.6356 40.304 55.6356 39.296V37.936ZM55.0596 29.68H61.6196V30.704H55.0596V29.68ZM58.4676 28.56H59.6516V31.856H58.4676V28.56ZM64.4356 28.56H65.6196V31.776H64.4356V28.56ZM62.4196 29.68H69.2036V30.704H62.4196V29.68ZM55.4596 32.528H56.4036V35.264H58.1476V36.256H55.4596V32.528Z" fill="#FFFEF6"/>
<defs>
<filter id="filter0_d_537_233" x="0.0996094" y="0" width="114.017" height="80" filterUnits="userSpaceOnUse" color-interpolation-filters="sRGB">
<feFlood flood-opacity="0" result="BackgroundImageFix"/>
<feColorMatrix in="SourceAlpha" type="matrix" values="0 0 0 0 0 0 0 0 0 0 0 0 0 0 0 0 0 0 127 0" result="hardAlpha"/>
<feOffset dx="3" dy="4"/>
<feGaussianBlur stdDeviation="2"/>
<feComposite in2="hardAlpha" operator="out"/>
<feColorMatrix type="matrix" values="0 0 0 0 0.151771 0 0 0 0 0.420893 0 0 0 0 0.775 0 0 0 0.25 0"/>
<feBlend mode="normal" in2="BackgroundImageFix" result="effect1_dropShadow_537_233"/>
<feBlend mode="normal" in="SourceGraphic" in2="effect1_dropShadow_537_233" result="shape"/>
</filter>
</defs>
</svg>
