<svg width="48" height="48" viewBox="0 0 48 48" fill="none" xmlns="http://www.w3.org/2000/svg">
<path d="M20.8529 25.5569C18.5948 24.745 16.8822 23.7047 15.7151 22.4361C14.5734 21.1675 13.9094 19.4295 13.9094 17.2222C13.9094 15.6237 14.2039 14.279 15.0412 12.9597C15.8785 11.615 17.1003 10.3585 18.6734 9.57199C20.2465 8.76009 22.3372 8.32361 24.5445 8.32361C29.9488 8.32361 33.4602 10.0541 35.3056 13.9853L33.781 15.129C32.7661 13.0992 31.5884 11.894 30.0408 11.209C28.5184 10.524 26.5997 10.2576 24.5445 10.2576C22.7431 10.2576 21.1828 10.4116 19.8634 11.0459C18.5694 11.6549 17.5673 12.6552 16.8568 13.7208C16.1718 14.7611 15.8293 15.9282 15.8293 17.2222C15.8293 18.9982 16.3875 20.419 17.3516 21.4085C18.3158 22.398 19.6351 23.1846 21.4619 23.8442L25.7624 25.3666C27.6907 26.0516 28.9973 26.8508 29.6824 27.7642C30.3674 28.6522 30.5319 29.6671 30.5319 30.8089C30.5319 32.1789 30.0771 33.0681 29.1383 33.9814C28.1995 34.8948 26.8027 35.6042 24.6207 35.6042C23.0222 35.6042 21.4872 35.1094 20.0157 34.1199C18.5441 33.105 16.654 31.232 15.6898 29.1261L17.2756 27.9401C17.9352 29.6401 19.5336 31.4051 20.7768 32.3692C22.02 33.308 23.3013 33.7774 24.6207 33.7774C26.0922 33.7774 27.0215 33.4071 27.7066 32.8742C28.3916 32.3414 28.6168 31.7222 28.6168 30.8089C28.6168 29.997 28.6041 29.2992 28.0459 28.7157C27.4877 28.1067 26.5236 27.5612 25.1535 27.0792L20.8529 25.5569ZM23.3267 21.4085C21.6775 20.8504 20.5231 20.178 19.8634 19.3915C19.2037 18.6049 18.8739 17.755 18.8739 16.8416C18.8739 16.0551 19.0515 15.3193 19.4067 14.6342C19.7873 13.9492 20.4089 13.391 21.2716 12.9597C22.1596 12.5283 23.3394 12.3127 24.811 12.3127C26.3079 12.3127 27.6633 12.5845 28.8558 13.3456C30.0482 14.1068 31.0923 15.129 31.7586 16.608L30.2398 17.7641C29.7831 16.5462 29.1057 15.6875 28.1415 15.0279C27.1774 14.3682 26.0034 14.1395 24.811 14.1395C23.3394 14.1395 22.2864 14.4059 21.6521 14.9387C21.0178 15.4461 20.8529 16.0804 20.8529 16.8416C20.8529 18.0087 21.7663 18.9475 23.8976 19.6579L28.6168 21.2182C30.8749 21.954 32.6636 23.0323 33.9829 24.4532C35.3276 25.874 36 27.7388 36 30.0477C36 33.1177 35.0105 35.49 33.0315 37.1645C31.0778 38.8391 28.2869 39.6764 24.6587 39.6764C21.5887 39.6764 19.0388 38.9913 17.0091 37.6212C14.9793 36.2511 13.2805 34.1199 12 31.8742L13.7086 30.5974C14.825 33.1092 16.6412 35.287 18.4172 36.3273C20.1933 37.3675 22.2738 37.8876 24.6587 37.8876C27.678 37.8876 30.0122 37.2153 31.6614 35.8706C33.3359 34.5258 34.1732 32.5849 34.1732 30.0477C34.1732 28.1702 33.6024 26.6732 32.4606 25.5569C31.3442 24.4405 29.8727 23.5778 28.0459 22.9689L23.3267 21.4085Z" fill="#4395E6"/>
</svg>
