<svg width="118" height="40" viewBox="0 0 118 40" fill="none" xmlns="http://www.w3.org/2000/svg">
<path d="M56.6639 11.6398C55.1142 11.0914 53.9389 10.3888 53.138 9.53195C52.3544 8.6751 51.8988 7.50123 51.8988 6.01032C51.8988 4.93069 52.1009 4.02244 52.6755 3.13132C53.2501 2.22306 54.0886 1.37443 55.1682 0.84319C56.2477 0.29481 57.6825 0 59.1974 0C62.9062 0 65.316 1.16879 66.5824 3.82408L65.5361 4.59652C64.8396 3.22557 64.0314 2.41157 62.9693 1.94887C61.9246 1.48618 60.6078 1.30624 59.1974 1.30624C57.9611 1.30624 56.8903 1.4103 55.9848 1.83873C55.0968 2.25001 54.409 2.92568 53.9215 3.64542C53.4514 4.34804 53.2163 5.13634 53.2163 6.01032C53.2163 7.2099 53.5994 8.16957 54.2611 8.83791C54.9227 9.50624 55.8281 10.0375 57.0818 10.483L60.0332 11.5113C61.3565 11.974 62.2532 12.5138 62.7233 13.1307C63.1935 13.7305 63.3063 14.416 63.3063 15.1871C63.3063 16.1125 62.9942 16.713 62.35 17.33C61.7057 17.9469 60.7471 18.426 59.2496 18.426C58.1527 18.426 57.0992 18.0918 56.0893 17.4235C55.0794 16.738 53.7823 15.4729 53.1206 14.0505L54.2089 13.2495C54.6616 14.3977 55.7585 15.5898 56.6117 16.241C57.4649 16.8751 58.3442 17.1921 59.2496 17.1921C60.2595 17.1921 60.8973 16.942 61.3674 16.5821C61.8375 16.2223 61.992 15.8041 61.992 15.1871C61.992 14.6387 61.9833 14.1675 61.6003 13.7733C61.2172 13.362 60.5555 12.9936 59.6153 12.668L56.6639 11.6398ZM58.3616 8.83791C57.2298 8.46089 56.4376 8.00677 55.9848 7.47552C55.5321 6.94428 55.3058 6.37019 55.3058 5.75326C55.3058 5.22202 55.4277 4.72505 55.6714 4.26235C55.9326 3.79966 56.3592 3.42265 56.9512 3.13132C57.5606 2.83999 58.3703 2.69433 59.3802 2.69433C60.4075 2.69433 61.3377 2.8779 62.1561 3.39201C62.9744 3.90611 63.691 4.59652 64.1482 5.59547L63.1059 6.37634C62.7925 5.55377 62.3276 4.97379 61.6659 4.52824C61.0042 4.08268 60.1986 3.92818 59.3802 3.92818C58.3703 3.92818 57.6477 4.10812 57.2124 4.468C56.7771 4.81073 56.6639 5.23916 56.6639 5.75326C56.6639 6.54156 57.2908 7.17563 58.7534 7.65546L61.992 8.70938C63.5417 9.20635 64.7693 9.93467 65.6747 10.8943C66.5975 11.854 67.059 13.1136 67.059 14.673C67.059 16.7466 66.3799 18.3489 65.0217 19.4799C63.681 20.611 61.7657 21.1765 59.2757 21.1765C57.1689 21.1765 55.419 20.7138 54.026 19.7884C52.633 18.863 51.4671 17.4235 50.5884 15.9067L51.761 15.0443C52.5271 16.7408 53.7735 18.2118 54.9924 18.9144C56.2112 19.617 57.639 19.9683 59.2757 19.9683C61.3478 19.9683 62.9497 19.5142 64.0815 18.6059C65.2307 17.6977 65.8053 16.3867 65.8053 14.673C65.8053 13.4049 65.4135 12.3938 64.63 11.6398C63.8638 10.8858 62.8539 10.3031 61.6003 9.89182L58.3616 8.83791Z" fill="#4395E6"/>
<path d="M8.90387 28.3669C8.28764 27.8164 7.64626 27.4513 6.97973 27.2718C6.3132 27.0803 5.60894 26.9846 4.86695 26.9846C3.7351 26.9846 2.8422 27.1821 2.18824 27.577C1.54686 27.96 1.22617 28.4806 1.22617 29.1389C1.22617 30.3476 2.23854 31.1435 4.26329 31.5265C5.05559 31.6821 5.65295 31.8616 6.05539 32.0651C6.45782 32.2566 6.72821 32.472 6.86655 32.7114C7.00488 32.9387 7.07405 33.1961 7.07405 33.4833C7.07405 33.9142 6.92943 34.2792 6.64018 34.5784C6.35093 34.8656 5.80387 35.0092 4.999 35.0092C4.38277 35.0092 3.69737 34.8537 2.94281 34.5425C2.20082 34.2193 1.52799 33.7945 0.924343 33.2679L1.39595 32.4959C1.71035 32.8191 2.08134 33.1063 2.50893 33.3576C2.93652 33.597 3.37039 33.7885 3.81056 33.9321C4.25072 34.0757 4.64687 34.1475 4.999 34.1475C5.41401 34.1475 5.70955 34.0937 5.88561 33.986C6.07425 33.8782 6.16857 33.7107 6.16857 33.4833C6.16857 33.1961 6.02395 32.9806 5.7347 32.837C5.45802 32.6814 4.91096 32.5258 4.09352 32.3703C2.76045 32.107 1.79838 31.7 1.2073 31.1495C0.616228 30.599 0.32069 29.9288 0.32069 29.1389C0.32069 28.2891 0.710549 27.577 1.49027 27.0025C2.28256 26.4161 3.40812 26.1229 4.86695 26.1229C5.83531 26.1229 6.71563 26.2605 7.50793 26.5358C8.30022 26.811 8.91016 27.188 9.33775 27.6668L8.90387 28.3669ZM8.05499 29.7313C7.63997 29.3124 7.14322 28.9952 6.56472 28.7798C5.9988 28.5524 5.41401 28.4387 4.81035 28.4387C4.38277 28.4387 4.08094 28.4926 3.90488 28.6003C3.74139 28.708 3.65964 28.8636 3.65964 29.067C3.65964 29.2107 3.69737 29.3303 3.77283 29.4261C3.86086 29.5218 4.03064 29.6116 4.28216 29.6954C4.54626 29.7672 4.92983 29.851 5.43287 29.9467C6.87912 30.21 7.92922 30.6349 8.58318 31.2213C9.23714 31.8078 9.56412 32.5617 9.56412 33.4833C9.56412 34.4767 9.16168 35.2426 8.35681 35.7812C7.56452 36.3078 6.40123 36.5711 4.86695 36.5711C3.93632 36.5711 3.02455 36.4215 2.13165 36.1223C1.25132 35.8111 0.540772 35.3443 0 34.722L0.433875 34.0398C1.15071 34.6981 1.88013 35.1469 2.62211 35.3862C3.3641 35.6136 4.11238 35.7273 4.86695 35.7273C6.06168 35.7273 6.99231 35.5478 7.65884 35.1888C8.32537 34.8297 8.65864 34.2612 8.65864 33.4833C8.65864 32.7532 8.38196 32.1788 7.82862 31.7599C7.27527 31.329 6.42009 31.0059 5.26309 30.7905C4.4708 30.6349 3.89859 30.4673 3.54646 30.2878C3.19433 30.1083 2.97425 29.9168 2.88621 29.7133C2.79818 29.4979 2.75416 29.2825 2.75416 29.067C2.75416 28.8037 2.81076 28.5644 2.92394 28.349C3.03713 28.1216 3.23834 27.9361 3.52759 27.7924C3.82942 27.6488 4.25701 27.577 4.81035 27.577C5.42658 27.577 6.05539 27.6847 6.69677 27.9001C7.33815 28.1156 7.94809 28.4746 8.52659 28.9773L8.05499 29.7313Z" fill="#4395E6"/>
<path d="M25.6957 29.444C25.6957 28.7379 25.482 28.1515 25.0544 27.6847C24.6394 27.218 24.0986 26.9846 23.4321 26.9846C22.7152 26.9846 22.0801 27.0743 21.5268 27.2539C20.986 27.4214 20.5584 27.7984 20.244 28.3849C20.0051 27.8702 19.6152 27.5112 19.0744 27.3077C18.5462 27.0923 18.0306 26.9846 17.5276 26.9846C17.0497 26.9846 16.5844 27.0265 16.1316 27.1103C15.6789 27.194 15.245 27.3795 14.83 27.6668C14.415 27.954 14.0189 28.4148 13.6416 29.0491V26.3563H14.547V27.1462C14.9746 26.464 15.9681 26.1229 17.5276 26.1229C18.1815 26.1229 18.7475 26.2485 19.2254 26.4999C19.7158 26.7392 20.0491 27.0504 20.2252 27.4334C20.4767 26.9786 20.8854 26.6495 21.4513 26.446C22.0172 26.2306 22.6775 26.1229 23.4321 26.1229C24.0483 26.1229 24.5953 26.2665 25.0732 26.5537C25.5511 26.829 25.9221 27.218 26.1862 27.7206C26.4629 28.2233 26.6012 28.7978 26.6012 29.444V36.3557H25.6957V29.444ZM11.5477 26.3563H12.4531V36.3557H11.5477V26.3563ZM23.3 30.4314C23.3 29.9048 23.2057 29.5218 23.017 29.2825C22.8284 29.0311 22.5203 28.9055 22.0927 28.9055C21.6525 28.9055 21.3067 29.0491 21.0552 29.3363C20.8162 29.6116 20.6968 29.9407 20.6968 30.3237V36.3557H19.7913V30.2878C19.7913 29.6774 19.9988 29.1508 20.4138 28.708C20.8288 28.2652 21.3884 28.0438 22.0927 28.0438C22.797 28.0438 23.3252 28.2293 23.6773 28.6003C24.0294 28.9713 24.2055 29.5817 24.2055 30.4314V36.3557H23.3V30.4314ZM17.4144 30.4314C17.4144 29.9168 17.3264 29.5338 17.1503 29.2825C16.9742 29.0311 16.6724 28.9055 16.2448 28.9055C15.855 28.9055 15.5531 29.0252 15.3393 29.2645C15.1255 29.5039 14.9621 29.8091 14.8489 30.1801V36.3557H13.9434V30.0724C14.1446 29.4381 14.4276 28.9414 14.7923 28.5823C15.157 28.2233 15.6412 28.0438 16.2448 28.0438C16.9491 28.0438 17.471 28.2293 17.8105 28.6003C18.1501 28.9713 18.3199 29.5817 18.3199 30.4314V36.3557H17.4144V30.4314Z" fill="#4395E6"/>
<path d="M39.2137 34.7579C39.1256 34.7699 39.0376 34.7818 38.9496 34.7938C38.8741 34.7938 38.7987 34.7938 38.7232 34.7938C38.1699 34.7938 37.7486 34.6562 37.4593 34.3809C37.1826 34.1056 37.0443 33.7286 37.0443 33.2499V29.444C37.0443 28.5823 36.7362 27.96 36.12 27.577C35.5163 27.1821 34.6171 26.9846 33.4224 26.9846C32.5421 26.9846 31.7623 27.1103 31.0832 27.3616C30.4167 27.6009 29.8068 27.9839 29.2534 28.5105L28.8195 27.7745C29.3352 27.2479 29.9702 26.841 30.7248 26.5537C31.492 26.2665 32.3911 26.1229 33.4224 26.1229C34.9567 26.1229 36.0948 26.4041 36.8368 26.9666C37.5788 27.5172 37.9498 28.343 37.9498 29.444V33.2499C37.9498 33.5132 38.0378 33.7047 38.2139 33.8244C38.4025 33.9321 38.6352 33.986 38.9118 33.986C38.9999 33.986 39.0816 33.986 39.1571 33.986C39.2451 33.974 39.3331 33.962 39.4212 33.9501L39.2137 34.7579ZM38.7798 36.4634C38.4654 36.5352 38.1447 36.5711 37.8177 36.5711C37.2644 36.5711 36.7613 36.4753 36.3086 36.2838C35.8559 36.0804 35.5729 35.7991 35.4597 35.4401C35.1202 35.847 34.6234 36.1402 33.9694 36.3198C33.3281 36.4873 32.6364 36.5711 31.8944 36.5711C30.8254 36.5711 30.008 36.3257 29.442 35.835C28.8887 35.3443 28.6057 34.6741 28.5932 33.8244V33.7705C28.5932 32.825 28.8824 32.0711 29.4609 31.5086C30.052 30.946 30.9826 30.5331 32.2528 30.2698C32.9319 30.1382 33.4727 29.9886 33.8751 29.821C34.2901 29.6415 34.4976 29.45 34.4976 29.2466C34.4976 28.9593 34.397 28.7738 34.1958 28.69C34.0072 28.5943 33.655 28.5464 33.1394 28.5464C32.8627 28.5464 32.5295 28.6123 32.1396 28.7439C31.7498 28.8636 31.3725 29.0311 31.0078 29.2466C30.6431 29.462 30.3475 29.7133 30.1212 30.0006L29.6496 29.2107C30.1652 28.72 30.75 28.343 31.4039 28.0797C32.0579 27.8164 32.6364 27.6847 33.1394 27.6847C34.0701 27.6847 34.68 27.8164 34.9692 28.0797C35.2585 28.331 35.4031 28.72 35.4031 29.2466C35.4031 29.5458 35.1516 29.8809 34.6485 30.2519C34.1455 30.6229 33.4098 30.9101 32.4414 31.1136C31.4479 31.3051 30.7059 31.6103 30.2155 32.0292C29.7376 32.4481 29.4986 33.0285 29.4986 33.7705V33.8064C29.5112 34.4168 29.725 34.8896 30.14 35.2247C30.555 35.5598 31.1398 35.7273 31.8944 35.7273C32.3849 35.7273 32.8439 35.7034 33.2715 35.6555C33.7116 35.5957 34.1329 35.458 34.5354 35.2426C34.9504 35.0152 35.3591 34.6562 35.7615 34.1655C35.8999 34.8237 36.164 35.2606 36.5538 35.476C36.9563 35.6795 37.3838 35.7812 37.8366 35.7812C38.0378 35.7812 38.2327 35.7692 38.4214 35.7453C38.6226 35.7213 38.8112 35.6974 38.9873 35.6735L38.7798 36.4634ZM35.4974 33.1602C35.3968 33.5551 35.1956 33.9022 34.8938 34.2014C34.6045 34.4886 34.2713 34.71 33.894 34.8656C33.5293 35.0212 33.1709 35.099 32.8187 35.099C32.1522 35.099 31.6617 34.9494 31.3473 34.6502C31.0329 34.351 30.8757 33.962 30.8757 33.4833C30.8757 32.8849 31.0392 32.4361 31.3662 32.1369C31.7057 31.8377 32.1962 31.6163 32.8376 31.4726C33.1394 31.4008 33.523 31.2931 33.9883 31.1495C34.4536 30.9939 34.9567 30.6648 35.4974 30.1621V33.1602ZM34.592 31.5983C34.2901 31.8496 33.7871 32.0651 33.0828 32.2446C32.6175 32.3643 32.2842 32.5079 32.083 32.6754C31.8818 32.831 31.7812 33.1003 31.7812 33.4833C31.7812 33.986 32.127 34.2373 32.8187 34.2373C33.1709 34.2373 33.5293 34.1356 33.894 33.9321C34.2713 33.7167 34.5039 33.4354 34.592 33.0883V31.5983Z" fill="#4395E6"/>
<path d="M47.406 27.0025C46.6389 27.0025 45.9723 27.0743 45.4064 27.218C44.8405 27.3616 44.3374 27.6069 43.8973 27.954C43.4571 28.3011 43.0484 28.7918 42.6711 29.4261V26.3563H43.5766V27.3436C43.9539 26.9128 44.4129 26.6076 44.9537 26.4281C45.507 26.2366 46.2742 26.1348 47.2551 26.1229L47.406 27.0025ZM40.7281 26.3563H41.6336V36.3557H40.7281V26.3563ZM43.1239 29.8031C43.5137 29.097 43.9853 28.5943 44.5387 28.2951C45.1046 27.9839 45.8277 27.8283 46.708 27.8283C46.8464 27.8283 46.9847 27.8343 47.123 27.8463C47.2614 27.8463 47.406 27.8523 47.5569 27.8642L47.7267 28.7978C47.5129 28.7499 47.2991 28.72 47.0853 28.708C46.8841 28.6841 46.6892 28.6721 46.5005 28.6721C45.2681 28.6721 44.4443 29.1149 44.0293 30.0006V36.3557H43.1239V29.8031Z" fill="#4395E6"/>
<path d="M52.3332 23.2326H53.2387V26.3563H55.0119V27.218H52.3332V23.2326ZM48.4284 26.3563H50.0884V23.2326H50.9939V27.218H48.4284V26.3563ZM55.3892 34.8656C54.7101 34.8656 54.1631 34.8417 53.748 34.7938C53.3456 34.734 53.0375 34.6322 52.8237 34.4886C52.6225 34.345 52.4904 34.1296 52.4276 33.8423C52.3647 33.5431 52.3332 33.1482 52.3332 32.6575V27.9181H55.0119V28.7798H53.2387V32.6575C53.2387 33.0883 53.2827 33.3995 53.3708 33.591C53.4714 33.7825 53.6852 33.9022 54.0121 33.9501C54.3517 33.986 54.8736 34.0039 55.5779 34.0039L55.3892 34.8656ZM54.9931 36.5711C53.7606 36.5711 52.7734 36.4813 52.0314 36.3018C51.2894 36.1103 50.7549 35.7812 50.428 35.3144C50.101 34.8357 49.9375 34.1775 49.9375 33.3397V28.7798H48.4284V27.9181H50.843V33.3397C50.843 33.9979 50.9813 34.5006 51.258 34.8477C51.5347 35.1947 51.9874 35.4281 52.6162 35.5478C53.2576 35.6675 54.1128 35.7333 55.1817 35.7453L54.9931 36.5711Z" fill="#4395E6"/>
<path d="M71.9071 28.3669C71.2909 27.8164 70.6495 27.4513 69.983 27.2718C69.3165 27.0803 68.6122 26.9846 67.8702 26.9846C66.7384 26.9846 65.8455 27.1821 65.1915 27.577C64.5501 27.96 64.2294 28.4806 64.2294 29.1389C64.2294 30.3476 65.2418 31.1435 67.2666 31.5265C68.0588 31.6821 68.6562 31.8616 69.0586 32.0651C69.4611 32.2566 69.7315 32.472 69.8698 32.7114C70.0081 32.9387 70.0773 33.1961 70.0773 33.4833C70.0773 33.9142 69.9327 34.2792 69.6434 34.5784C69.3542 34.8656 68.8071 35.0092 68.0023 35.0092C67.386 35.0092 66.7006 34.8537 65.9461 34.5425C65.2041 34.2193 64.5313 33.7945 63.9276 33.2679L64.3992 32.4959C64.7136 32.8191 65.0846 33.1063 65.5122 33.3576C65.9398 33.597 66.3736 33.7885 66.8138 33.9321C67.254 34.0757 67.6501 34.1475 68.0023 34.1475C68.4173 34.1475 68.7128 34.0937 68.8889 33.986C69.0775 33.8782 69.1718 33.7107 69.1718 33.4833C69.1718 33.1961 69.0272 32.9806 68.738 32.837C68.4613 32.6814 67.9142 32.5258 67.0968 32.3703C65.7637 32.107 64.8016 31.7 64.2106 31.1495C63.6195 30.599 63.3239 29.9288 63.3239 29.1389C63.3239 28.2891 63.7138 27.577 64.4935 27.0025C65.2858 26.4161 66.4114 26.1229 67.8702 26.1229C68.8386 26.1229 69.7189 26.2605 70.5112 26.5358C71.3035 26.811 71.9134 27.188 72.341 27.6668L71.9071 28.3669ZM71.0582 29.7313C70.6432 29.3124 70.1465 28.9952 69.568 28.7798C69.0021 28.5524 68.4173 28.4387 67.8136 28.4387C67.386 28.4387 67.0842 28.4926 66.9081 28.6003C66.7446 28.708 66.6629 28.8636 66.6629 29.067C66.6629 29.2107 66.7006 29.3303 66.7761 29.4261C66.8641 29.5218 67.0339 29.6116 67.2854 29.6954C67.5495 29.7672 67.9331 29.851 68.4361 29.9467C69.8824 30.21 70.9325 30.6349 71.5864 31.2213C72.2404 31.8078 72.5674 32.5617 72.5674 33.4833C72.5674 34.4767 72.1649 35.2426 71.3601 35.7812C70.5678 36.3078 69.4045 36.5711 67.8702 36.5711C66.9396 36.5711 66.0278 36.4215 65.1349 36.1223C64.2546 35.8111 63.544 35.3443 63.0033 34.722L63.4371 34.0398C64.154 34.6981 64.8834 35.1469 65.6254 35.3862C66.3674 35.6136 67.1156 35.7273 67.8702 35.7273C69.0649 35.7273 69.9956 35.5478 70.6621 35.1888C71.3286 34.8297 71.6619 34.2612 71.6619 33.4833C71.6619 32.7532 71.3852 32.1788 70.8319 31.7599C70.2785 31.329 69.4234 31.0059 68.2664 30.7905C67.4741 30.6349 66.9018 30.4673 66.5497 30.2878C66.1976 30.1083 65.9775 29.9168 65.8895 29.7133C65.8014 29.4979 65.7574 29.2825 65.7574 29.067C65.7574 28.8037 65.814 28.5644 65.9272 28.349C66.0404 28.1216 66.2416 27.9361 66.5309 27.7924C66.8327 27.6488 67.2603 27.577 67.8136 27.577C68.4298 27.577 69.0586 27.6847 69.7 27.9001C70.3414 28.1156 70.9513 28.4746 71.5298 28.9773L71.0582 29.7313Z" fill="#4395E6"/>
<path d="M77.6635 23.2326H78.569V26.3563H80.3422V27.218H77.6635V23.2326ZM73.7586 26.3563H75.4187V23.2326H76.3241V27.218H73.7586V26.3563ZM80.7195 34.8656C80.0404 34.8656 79.4933 34.8417 79.0783 34.7938C78.6759 34.734 78.3677 34.6322 78.154 34.4886C77.9527 34.345 77.8207 34.1296 77.7578 33.8423C77.6949 33.5431 77.6635 33.1482 77.6635 32.6575V27.9181H80.3422V28.7798H78.569V32.6575C78.569 33.0883 78.613 33.3995 78.701 33.591C78.8016 33.7825 79.0154 33.9022 79.3424 33.9501C79.682 33.986 80.2039 34.0039 80.9081 34.0039L80.7195 34.8656ZM80.3233 36.5711C79.0909 36.5711 78.1037 36.4813 77.3617 36.3018C76.6197 36.1103 76.0852 35.7812 75.7582 35.3144C75.4312 34.8357 75.2677 34.1775 75.2677 33.3397V28.7798H73.7586V27.9181H76.1732V33.3397C76.1732 33.9979 76.3116 34.5006 76.5882 34.8477C76.8649 35.1947 77.3177 35.4281 77.9465 35.5478C78.5878 35.6675 79.443 35.7333 80.512 35.7453L80.3233 36.5711Z" fill="#4395E6"/>
<path d="M90.2251 26.3563V32.6754C90.0239 33.3696 89.6529 33.9022 89.1121 34.2732C88.5713 34.6322 87.9614 34.8118 87.2823 34.8118C86.5906 34.8118 86.0184 34.6083 85.5656 34.2014C85.1129 33.7825 84.8865 33.1781 84.8865 32.3882V26.3563H85.792V32.3882C85.792 32.8909 85.9304 33.2798 86.207 33.5551C86.4837 33.8184 86.8421 33.9501 87.2823 33.9501C87.7602 33.9501 88.1878 33.8304 88.565 33.591C88.9423 33.3516 89.1938 33.0106 89.3196 32.5677V26.3563H90.2251ZM91.7154 26.3563H92.6208V36.3557H91.7154V26.3563ZM89.6214 35.4401C89.3573 35.7991 88.9486 36.0804 88.3953 36.2838C87.8545 36.4753 87.1565 36.5711 86.3013 36.5711C85.1318 36.5711 84.2011 36.236 83.5095 35.5658C82.8178 34.8955 82.4719 34.0159 82.4719 32.9268V26.3563H83.3774V32.9268C83.3774 33.7645 83.6415 34.4408 84.1697 34.9554C84.6979 35.47 85.4084 35.7273 86.3013 35.7273C86.7792 35.7273 87.2571 35.6854 87.735 35.6017C88.2129 35.5179 88.6845 35.3264 89.1498 35.0272C89.6151 34.716 90.0742 34.2373 90.5269 33.591V36.3557H89.6214V35.4401Z" fill="#4395E6"/>
<path d="M104.446 22.3529H105.351V36.3557H104.446V22.3529ZM102.635 35.3503C102.446 35.6376 102.176 35.8709 101.824 36.0505C101.472 36.23 101.088 36.3616 100.673 36.4454C100.258 36.5292 99.8619 36.5711 99.4846 36.5711C98.5539 36.5711 97.7176 36.3736 96.9757 35.9787C96.2462 35.5837 95.6677 35.0033 95.2402 34.2373C94.8251 33.4594 94.6176 32.5019 94.6176 31.3649C94.6176 30.216 94.844 29.2526 95.2967 28.4746C95.7495 27.6967 96.3406 27.1103 97.07 26.7153C97.812 26.3204 98.6043 26.1229 99.4469 26.1229C100.063 26.1229 100.585 26.2007 101.013 26.3563C101.44 26.4999 101.786 26.6973 102.05 26.9487V22.3529H102.956V28.7439C102.49 28.2173 102.063 27.8343 101.673 27.595C101.283 27.3436 100.906 27.1821 100.541 27.1103C100.189 27.0265 99.8241 26.9846 99.4469 26.9846C98.7552 26.9846 98.1075 27.1521 97.5038 27.4872C96.9128 27.8224 96.4349 28.319 96.0702 28.9773C95.7055 29.6236 95.5231 30.4194 95.5231 31.3649C95.5231 32.7772 95.8941 33.8603 96.6361 34.6143C97.3781 35.3563 98.3276 35.7273 99.4846 35.7273C99.9499 35.7273 100.415 35.6675 100.881 35.5478C101.358 35.4162 101.824 35.1708 102.276 34.8118C102.729 34.4408 103.151 33.8902 103.54 33.1602V36.3557H102.635V35.3503ZM103.031 31.9753C103.031 32.5139 102.899 32.9986 102.635 33.4294C102.371 33.8603 102.025 34.2014 101.597 34.4527C101.182 34.6921 100.723 34.8118 100.22 34.8118C99.3148 34.8118 98.5602 34.5365 97.9566 33.986C97.3655 33.4235 97.07 32.5677 97.07 31.4188C97.07 30.6289 97.2146 29.9766 97.5038 29.462C97.8057 28.9474 98.1955 28.5644 98.6734 28.3131C99.1513 28.0617 99.6606 27.9361 100.201 27.9361C100.881 27.9361 101.472 28.1395 101.975 28.5464C102.478 28.9414 102.83 29.4081 103.031 29.9467V31.9753ZM102.126 30.0903C102 29.7432 101.767 29.444 101.428 29.1927C101.101 28.9294 100.692 28.7978 100.201 28.7978C99.5852 28.7978 99.057 29.0192 98.6168 29.462C98.1892 29.9048 97.9754 30.5571 97.9754 31.4188C97.9754 32.2566 98.183 32.8909 98.598 33.3217C99.013 33.7406 99.5537 33.9501 100.22 33.9501C100.748 33.9501 101.195 33.7705 101.56 33.4115C101.937 33.0405 102.126 32.5617 102.126 31.9753V30.0903Z" fill="#4395E6"/>
<path d="M109.328 26.3742H110.309L111.969 30.3955C112.095 30.6947 112.227 31.0657 112.365 31.5086C112.516 31.9394 112.617 32.3403 112.667 32.7114H112.705C112.768 32.3164 112.849 31.9155 112.95 31.5086C113.063 31.0897 113.164 30.7306 113.252 30.4314L114.44 26.3742H115.383L113.214 33.6628H112.346L109.328 26.3742ZM107.8 26.3742L112.063 35.9069C111.849 36.3975 111.629 36.7925 111.403 37.0917C111.189 37.4029 110.931 37.6363 110.63 37.7918C110.34 37.9474 109.969 38.0551 109.517 38.115C109.064 38.1748 108.492 38.2107 107.8 38.2227L107.517 37.343C108.334 37.343 108.963 37.3131 109.403 37.2533C109.856 37.1934 110.202 37.0618 110.441 36.8583C110.68 36.6549 110.887 36.3377 111.063 35.9069L106.838 26.3742H107.8ZM117.647 26.3742L114.101 36.589C113.673 37.8218 113 38.6954 112.082 39.2101C111.164 39.7367 109.925 40 108.366 40L108.102 39.1562C108.97 39.1442 109.737 39.0664 110.403 38.9228C111.07 38.7792 111.642 38.5039 112.12 38.097C112.598 37.7021 112.969 37.1156 113.233 36.3377L116.685 26.3742H117.647Z" fill="#4395E6"/>
</svg>
