<svg width="369" height="244" viewBox="0 0 369 244" fill="none" xmlns="http://www.w3.org/2000/svg">
<path d="M253.114 28.6003H267.423V31.7675H253.114V28.6003ZM257.027 36.4624H263.883V39.406H257.027V36.4624ZM257.027 44.101H263.883V47.0446H257.027V44.101ZM255.238 30.2398H258.182V53.9007H255.238V30.2398ZM262.281 30.2398H265.262V61.6883H262.281V30.2398ZM252.555 53.23C255.425 52.8574 259.561 52.1867 263.659 51.5532L263.883 54.6459C260.157 55.3166 256.282 55.9873 253.226 56.5463L252.555 53.23ZM282.253 51.6278L284.712 50.7335C285.755 53.1927 286.948 56.2854 287.544 58.3348L284.973 59.3781C284.414 57.2915 283.222 54.087 282.253 51.6278ZM271.037 50.9571H273.981V57.2915C273.981 58.1858 274.204 58.3348 275.397 58.3348C275.956 58.3348 278.713 58.3348 279.458 58.3348C280.539 58.3348 280.725 57.8504 280.837 54.6087C281.433 55.0931 282.625 55.5029 283.445 55.6893C283.147 59.8253 282.327 60.8686 279.756 60.8686C279.123 60.8686 275.695 60.8686 275.024 60.8686C271.782 60.8686 271.037 60.0488 271.037 57.2915V50.9571ZM268.056 50.9198L270.553 51.7768C270.068 54.3106 269.36 57.8132 268.392 60.0116L265.821 58.8565C266.827 56.7698 267.646 53.4536 268.056 50.9198ZM274.577 26.8117L278.154 27.4452C277.372 29.0474 276.515 30.6496 275.881 31.7675L273.124 31.134C273.645 29.8671 274.279 28.0413 274.577 26.8117ZM276.962 33.7423L279.235 34.1149C277.893 36.6487 275.844 39.1452 272.751 41.1946C272.416 40.7102 271.745 39.965 271.261 39.6669C274.018 37.9529 275.956 35.6799 276.962 33.7423ZM272.08 35.3818L273.944 34.1522C277.148 36.7978 280.688 40.6357 282.327 43.1694L280.39 44.6226C278.75 41.9398 275.173 38.0274 272.08 35.3818ZM280.203 36.0153L282.476 36.4251C280.725 39.5178 277.93 42.7596 273.869 45.2933C273.571 44.7717 272.9 44.0265 272.453 43.6911C276.179 41.5299 278.825 38.5118 280.203 36.0153ZM271.112 33.4442V45.5169H282.663V33.4442H271.112ZM268.205 30.5751H285.718V48.4233H268.205V30.5751ZM275.136 49.7647L277.446 48.6469C278.638 50.5099 280.241 52.9692 280.986 54.4224L278.564 55.7265C277.856 54.1988 276.365 51.6278 275.136 49.7647ZM256.095 83.271H266.789V105.777H256.095V102.535H263.51V86.4754H256.095V83.271ZM256.133 92.7726H264.852V95.9398H256.133V92.7726ZM271.931 82.6375H284.004V85.9165H271.931V82.6375ZM271.931 91.6175H284.004V94.822H271.931V91.6175ZM271.782 100.635H283.93V103.802H271.782V100.635ZM254.195 83.271H257.474V109.168H254.195V83.271ZM282.7 82.6375H286.202V111.366C286.202 113.378 285.718 114.384 284.414 114.98C283.11 115.539 281.023 115.614 277.819 115.614C277.67 114.645 277.111 113.117 276.589 112.186C278.825 112.298 281.135 112.26 281.768 112.223C282.439 112.223 282.7 111.999 282.7 111.329V82.6375ZM269.845 82.6375H273.31V96.0516C273.31 102.386 272.341 110.844 265.56 115.949C265.038 115.241 263.697 114.012 262.951 113.564C269.249 108.832 269.845 101.753 269.845 96.0143V82.6375ZM253.226 159.665H286.799V162.571H253.226V159.665ZM260.306 153.219H277.372V155.79H260.306V153.219ZM268.652 158.324H272.118V166.186C272.118 167.863 271.745 168.682 270.404 169.167C269.062 169.614 267.125 169.614 264.218 169.614C264.032 168.682 263.51 167.49 263.063 166.633C265.15 166.707 267.311 166.707 267.907 166.707C268.503 166.67 268.652 166.558 268.652 166.074V158.324ZM276.515 153.219H277.334L278.08 153.033L280.129 154.858C277.446 156.87 273.683 158.845 270.292 160.149C269.919 159.591 269.1 158.733 268.652 158.324C271.484 157.243 274.838 155.268 276.515 153.815V153.219ZM253.971 148.449H286.165V155.641H282.663V151.095H257.325V155.641H253.971V148.449ZM280.8 136.414H284.153C283.93 140.811 283.557 146.437 283.147 149.828H279.756C280.241 146.325 280.613 140.699 280.8 136.414ZM275.136 136.414H282.178V138.724H275.136V136.414ZM263.548 135.333L265.075 137.42C262.84 138.314 259.672 138.91 257.437 139.246L256.17 137.271C258.368 136.898 261.61 135.967 263.548 135.333ZM257.958 140.438H264.814V142.711H257.958V140.438ZM258.107 144.425H264.964V146.735H258.107V144.425ZM275.359 140.438H281.843V142.711H275.359V140.438ZM275.136 144.425H281.582V146.735H275.136V144.425ZM271.633 135.371L274.018 136.041C272.341 138.352 269.547 140.513 267.013 141.854C266.603 141.407 265.671 140.587 265.113 140.215C267.646 139.022 270.217 137.271 271.633 135.371ZM265.821 137.196L267.497 135.743C269.882 136.824 272.826 138.612 274.353 139.917L272.602 141.519C271.186 140.177 268.243 138.352 265.821 137.196ZM271.708 141.668L274.093 142.376C272.304 144.835 269.36 147.108 266.678 148.524C266.268 148.077 265.373 147.145 264.814 146.735C267.46 145.543 270.217 143.68 271.708 141.668ZM265.671 143.494L267.386 142.078C269.845 143.27 272.975 145.17 274.502 146.624L272.714 148.263C271.261 146.81 268.205 144.798 265.671 143.494ZM256.17 137.271L259.523 138.165L260.231 149.716H256.952L256.17 137.271ZM258.033 208.15H282.402V223.763H278.75V210.87H261.535V223.763H258.033V208.15ZM259.821 213.851H279.794V216.571H259.821V213.851ZM260.008 219.627H279.868V222.347H260.008V219.627ZM268.131 204.685L271.894 205.281C271 207.07 269.994 208.784 269.174 209.939L266.305 209.268C266.976 207.927 267.795 205.989 268.131 204.685ZM253.897 190.898H266.156V193.656H253.897V190.898ZM265.299 190.898H268.503V203.232C268.503 204.685 268.168 205.43 267.162 205.877C266.081 206.287 264.516 206.287 262.206 206.287C262.094 205.505 261.647 204.461 261.275 203.716C262.802 203.754 264.256 203.754 264.703 203.754C265.15 203.754 265.299 203.604 265.299 203.232V190.898ZM270.702 190.898H283.631V193.656H270.702V190.898ZM281.992 190.898H285.308V203.195C285.308 204.722 284.973 205.468 283.855 205.952C282.737 206.399 281.06 206.436 278.601 206.399C278.452 205.579 278.042 204.461 277.632 203.679C279.235 203.754 280.874 203.754 281.359 203.716C281.843 203.679 281.992 203.604 281.992 203.157V190.898ZM269.733 201.89C272.416 201.071 276.328 199.729 280.166 198.351L280.725 200.922C277.372 202.189 273.794 203.53 270.963 204.536L269.733 201.89ZM271.559 195.78L273.31 193.693C275.024 194.513 277.26 195.891 278.34 196.935L276.477 199.245C275.471 198.164 273.31 196.674 271.559 195.78ZM252.965 202.561C255.499 201.816 259.188 200.437 262.877 199.096L263.399 201.704C260.231 203.008 256.952 204.424 254.27 205.468L252.965 202.561ZM255.201 195.78L256.99 193.73C258.704 194.624 260.865 196.003 261.871 197.046L260.045 199.319C259.039 198.239 256.952 196.748 255.201 195.78Z" fill="#276BC6"/>
<path d="M94.1355 43.3745V45.4984H111.797V43.3745H94.1355ZM94.1355 47.6223V49.8207H111.797V47.6223H94.1355ZM94.1355 39.1267V41.2506H111.797V39.1267H94.1355ZM90.7074 36.9282H115.337V52.0191H90.7074V36.9282ZM106.059 53.8076L108.407 51.9073C112.356 53.2115 116.716 54.8882 119.324 56.1178L116.157 58.0554C113.884 56.8631 109.934 55.149 106.059 53.8076ZM96.8928 52.0191L100.097 53.4723C97.0791 55.3354 92.3096 57.1239 88.5463 58.1672C87.9501 57.4965 86.7204 56.1551 85.938 55.5589C89.8131 54.7764 94.2845 53.4723 96.8928 52.0191ZM101.178 25.9734H116.418V28.619H101.178V25.9734ZM101.662 23.4024L104.755 24.1103C103.749 27.203 101.923 30.2212 99.9482 32.1215C99.352 31.5999 98.0479 30.7429 97.3027 30.333C99.2403 28.619 100.805 26.0479 101.662 23.4024ZM105.798 27.8365H109.04V29.2151C109.04 31.9725 107.699 35.326 97.1909 36.7419C96.8555 35.9594 95.9613 34.7298 95.3278 34.0591C104.792 33.0531 105.798 30.8174 105.798 29.0661V27.8365ZM108.667 29.7368C110.568 32.047 114.778 33.4257 120.032 33.7983C119.324 34.469 118.467 35.7359 118.057 36.6302C112.505 35.8849 108.332 33.7983 106.171 30.2585L108.667 29.7368ZM86.6087 25.6008H95.8495V28.2836H86.6087V25.6008ZM85.7889 31.4136H96.781V34.1709H85.7889V31.4136ZM115.225 25.9734H115.784L116.306 25.8244L118.691 26.5696C117.759 28.5817 116.53 30.8174 115.412 32.2333L112.692 31.2273C113.549 29.9604 114.592 28.0228 115.225 26.4205V25.9734ZM97.7125 79.4517H119.697V82.619H97.7125V79.4517ZM96.5947 79.4517H100.023V89.6986C100.023 96.2566 99.3893 105.833 94.9552 112.093C94.3218 111.497 92.8313 110.565 92.0116 110.192C96.2221 104.305 96.5947 95.8095 96.5947 89.6986V79.4517ZM104.979 94.2445V97.0018H115.151V94.2445H104.979ZM104.979 89.0652V91.748H115.151V89.0652H104.979ZM101.811 86.4569H118.43V99.6101H101.811V86.4569ZM102.855 101.436L105.985 102.33C104.792 105.013 102.966 108.068 101.439 110.006C100.768 109.484 99.4266 108.702 98.6441 108.255C100.246 106.466 101.811 103.858 102.855 101.436ZM113.4 102.256L116.455 101.063C117.834 103.336 119.585 106.429 120.442 108.218L117.2 109.671C116.418 107.77 114.778 104.64 113.4 102.256ZM108.22 82.8425L112.17 83.5878C111.313 85.3018 110.419 87.0158 109.673 88.1336L106.879 87.3512C107.363 86.047 107.959 84.1467 108.22 82.8425ZM108.183 98.4178H111.537V108.665C111.537 110.267 111.276 111.161 110.121 111.646C109.003 112.13 107.326 112.167 104.904 112.13C104.792 111.236 104.382 109.969 103.972 109.112C105.537 109.149 107.14 109.149 107.587 109.149C108.034 109.112 108.183 109 108.183 108.59V98.4178ZM87.1676 80.4205L89.2542 77.924C91.1918 79.0419 94.0237 80.7186 95.4769 81.762L93.353 84.5566C91.9743 83.4387 89.1797 81.6502 87.1676 80.4205ZM85.379 90.4811L87.3912 87.9473C89.366 88.9907 92.1979 90.5556 93.6883 91.5244L91.6017 94.3936C90.1858 93.3502 87.3912 91.5989 85.379 90.4811ZM86.0125 109.708C87.6147 106.802 89.8504 101.958 91.4899 97.6725L94.359 99.6101C92.8686 103.597 90.931 108.068 89.217 111.646L86.0125 109.708ZM88.2109 151.673H117.387V154.579H88.2109V151.673ZM86.1615 133.638H103.264V136.209H86.1615V133.638ZM102.855 157.001H114.704V159.684H102.855V157.001ZM85.8262 162.218H119.771V165.198H85.8262V162.218ZM100.954 152.753H104.42V163.484H100.954V152.753ZM93.3157 131.551H96.4084V150.741H93.3157V131.551ZM91.6762 156.256H95.067V163.782H91.6762V156.256ZM89.9622 140.047V142.432H99.5011V140.047H89.9622ZM87.1676 137.849H102.482V144.593H87.1676V137.849ZM107.661 131.589L110.829 132.297C109.599 136.582 107.363 140.68 104.68 143.251C104.196 142.618 103.041 141.388 102.37 140.829C104.792 138.631 106.655 135.24 107.661 131.589ZM107.4 135.576H119.622V138.445H105.985L107.4 135.576ZM114.257 136.805L117.536 137.141C115.747 144.63 111.35 148.803 104.531 151.3C104.196 150.666 103.153 149.362 102.519 148.766C108.928 146.829 112.952 143.14 114.257 136.805ZM107.885 137.215C109.45 141.687 113.325 146.642 120.181 148.654C119.51 149.288 118.616 150.592 118.206 151.412C111.313 148.952 107.326 143.401 105.612 138.631L107.885 137.215ZM92.9431 143.661L95.216 144.593C93.502 147.164 90.3348 149.884 87.4657 151.225C87.0185 150.517 86.1243 149.474 85.4536 148.952C88.2482 147.946 91.3409 145.748 92.9431 143.661ZM96.1848 146.232L97.638 144.444C99.2775 145.226 101.401 146.493 102.445 147.462L100.954 149.474C99.8737 148.468 97.8616 147.127 96.1848 146.232ZM93.4275 197.661H112.17V200.94H93.4275V197.661ZM92.8313 214.913H112.505V218.192H92.8313V214.913ZM91.2663 204.853H114.853V219.944H111.089V207.983H94.8434V220.055H91.2663V204.853ZM103.264 185.44L106.394 187.005C102.072 193.414 95.1415 198.705 87.9873 201.946C87.4284 200.978 86.4224 199.636 85.4163 198.779C92.4214 196.022 99.3893 191.215 103.264 185.44ZM104.233 187.787C109.04 192.855 114.48 195.947 120.405 198.295C119.51 199.115 118.467 200.419 117.983 201.537C111.946 198.667 106.581 195.277 101.215 189.315L104.233 187.787Z" fill="#276BC6"/>
<path d="M77.1124 24.6476C63.3039 24.6476 49.8129 28.681 39.9723 33.7555C30.1318 38.6715 22.5927 45.3318 17.355 53.7364C12.1173 61.9826 9.49844 71.1008 9.49844 81.0913C9.49844 94.8877 13.0696 105.75 20.2119 113.679C27.513 121.608 38.2264 128.11 52.3524 133.184L77.1124 141.104M77.1124 37.0366C65.8434 37.0366 54.4157 39.5436 46.1623 43.5081C38.0677 47.314 31.7983 52.5471 27.3542 59.2074C23.0688 65.7092 20.9262 73.0038 20.9262 81.0913C20.9262 92.1918 23.9418 100.834 29.9731 107.019C36.0044 113.204 44.7339 118.357 56.1616 122.48L77.1124 129.954M77.1124 196.854C67.1132 196.854 56.3203 192.889 47.1147 186.705C37.909 180.362 30.2905 170.609 24.2592 157.447L34.0204 150.787C38.1471 161.411 44.099 169.737 51.8762 175.763C59.6534 181.63 68.8591 183.226 77.1124 183.226M77.1124 108.923C62.5597 107.019 50.289 101.231 46.1623 96.3153C42.0357 91.3994 39.9723 84.4215 39.9723 78.7126C39.9723 73.7967 41.0834 69.1979 43.3054 64.9163C45.6862 60.6346 49.5748 57.1459 54.9712 54.4501C60.5263 51.7542 67.9067 50.4063 77.1124 50.4063M77.1124 61.824C67.9067 61.824 61.3199 63.4891 57.352 66.8192C53.384 69.9908 51.4 73.9553 51.4 78.7126C51.4 86.0072 62.5597 94.0258 76.1601 96.3153M77.1124 221.632C57.9075 221.632 41.004 217.152 28.3065 208.589C15.6091 200.025 6.64151 188.132 1.40381 172.908L9.97459 167.2C16.9582 182.899 26.0051 193.999 37.1154 200.501C48.2257 207.003 62.1929 210.482 77.1124 210.482M192.064 175.763V219.769M204.206 175.763V219.769M163.257 175.763V219.769M175.398 175.763V219.769M291.888 28.3646C325.695 28.3646 351.963 41.8933 362.597 66.4731L353.55 72.8955C347.201 60.2092 339.186 51.7252 329.504 47.4436C319.981 43.162 304.744 40.7536 291.888 40.7536M291.888 133.671C303.95 137.952 323.79 144.732 328.075 150.441C332.361 155.991 334.504 162.334 334.504 169.47C334.504 178.033 331.567 185.169 325.695 190.878C319.822 196.587 305.537 199.332 291.888 199.332M291.888 186.943C301.093 186.943 312.362 186.359 316.648 183.029C320.933 179.698 323.076 175.179 323.076 169.47C323.076 164.396 321.33 160.035 317.838 156.387C314.346 152.581 300.458 149.073 291.888 146.06M291.888 109.527L317.838 120.469C329.266 124.275 338.472 129.667 345.455 136.644C352.597 143.622 356.169 152.978 356.169 164.713C356.169 180.571 350.931 192.702 340.455 201.107C330.139 209.511 310.775 214.199 291.888 214.199M291.888 53.1425C301.252 53.1425 315.378 56.2447 322.838 61.0021C330.298 65.7595 336.249 72.8162 340.694 82.1724L331.17 89.0706C328.314 81.4588 323.869 75.5914 317.838 71.4683C311.807 67.3453 299.347 66.4731 291.888 66.4731M291.888 99.7746L321.409 109.527C335.535 114.126 346.725 120.866 354.978 129.746C363.39 138.626 367.596 150.282 367.596 164.713C367.596 183.901 361.406 198.728 349.026 209.194C336.805 219.66 314.584 225.349 291.888 225.349" stroke="#276BC6" stroke-width="1.86307"/>
</svg>
