<svg width="181" height="209" viewBox="0 0 181 209" fill="none" xmlns="http://www.w3.org/2000/svg">
<rect x="19.7715" y="4" width="158.363" height="178.207" fill="#FFFEF6" stroke="#4395E6" stroke-width="4"/>
<path d="M0.600586 28.7013L18.1945 2.06104V182.454H179.6V207.927H17.6006C8.21175 207.927 0.600586 200.316 0.600586 190.927V28.7013Z" fill="#276BC6" stroke="#4395E6"/>
<path d="M17.7715 184.408C12.5248 184.408 8.27148 188.661 8.27148 193.908C8.27148 199.154 12.5248 203.408 17.7715 203.408V184.408ZM17.7715 203.408H180.134V184.408H17.7715V203.408Z" fill="#FFFEF6"/>
<path d="M101.393 66.752H111.953V70.112H101.393V66.752ZM102.097 60.8L105.265 61.408C104.177 67.488 102.353 73.888 100.081 78.048C99.5693 77.408 98.3213 76.16 97.6173 75.616C99.6973 72.032 101.201 66.336 102.097 60.8ZM106.641 68.928L109.905 69.184C108.785 80.224 105.809 87.008 97.9373 91.008C97.6173 90.272 96.6893 88.832 96.0813 88.16C103.313 84.928 105.841 78.784 106.641 68.928ZM103.217 69.856C104.369 77.856 106.865 84.8 112.337 87.84C111.569 88.48 110.449 89.856 109.937 90.816C104.177 87.04 101.841 79.52 100.529 70.24L103.217 69.856ZM89.3613 60.832H92.2413V77.92H89.3613V60.832ZM87.0573 65.152V69.888H94.7373V65.152H87.0573ZM84.1773 62.752H97.7453V72.32H84.1773V62.752ZM86.8013 75.392V76.8H94.8653V75.392H86.8013ZM83.6333 73.248H98.1933V78.976H83.6333V73.248ZM81.9373 66.08H85.1373V66.272H95.8573V66.08H99.4413V68.8H95.8573V68.608H85.1373V68.8H81.9373V66.08ZM83.9213 85.44C85.5533 83.424 87.5693 80.288 88.6893 77.728L91.7293 78.4C90.4493 81.152 88.4653 84.192 86.9933 86.144L83.9213 85.44ZM83.9213 85.44L86.3533 83.456C90.4173 84.416 95.3453 86.304 98.2893 87.808L95.8893 89.952C93.1053 88.384 88.0813 86.432 83.9213 85.44ZM93.5853 79.456H96.5933V81.056C96.5933 84.416 95.0253 88.864 83.1213 90.848C82.8653 90.144 82.1613 88.992 81.6173 88.384C92.4333 86.72 93.5853 83.296 93.5853 80.928V79.456ZM82.2893 80.384H99.2493V82.944H82.2893V80.384ZM82.3853 127.952H111.409V131.024H82.3853V127.952ZM88.6253 122.48H102.641V125.2H88.6253V122.48ZM95.3773 127.056H99.1533V133.296C99.1533 135.024 98.8013 135.856 97.4573 136.368C96.1453 136.848 94.3853 136.848 91.9853 136.848C91.7933 135.856 91.2493 134.544 90.7693 133.616C92.3053 133.68 94.2253 133.68 94.7373 133.68C95.2493 133.68 95.3773 133.584 95.3773 133.168V127.056ZM101.681 122.48H102.609L103.409 122.288L105.585 124.272C103.185 126 100.049 127.792 97.1053 129.008C96.7213 128.432 95.8573 127.504 95.3773 127.056C97.6493 126.096 100.401 124.336 101.681 123.12V122.48ZM82.9293 118.352H111.025V124.944H107.217V121.136H86.5773V124.944H82.9293V118.352ZM105.681 107.888H109.329C109.137 111.824 108.817 116.688 108.465 119.728H104.785C105.201 116.592 105.553 111.728 105.681 107.888ZM101.265 107.888H107.185V110.288H101.265V107.888ZM91.2493 106.992L92.8493 109.2C90.8333 109.968 88.0493 110.544 86.0973 110.864L84.7533 108.752C86.6733 108.432 89.5213 107.568 91.2493 106.992ZM86.6093 111.376H92.5933V113.744H86.6093V111.376ZM86.7053 114.864H92.6893V117.232H86.7053V114.864ZM101.457 111.376H106.865V113.744H101.457V111.376ZM101.297 114.864H106.673V117.232H101.297V114.864ZM98.1293 107.024L100.625 107.728C99.1853 109.712 96.7853 111.568 94.6093 112.688C94.1613 112.24 93.2013 111.376 92.5933 110.992C94.8013 110.032 96.9453 108.592 98.1293 107.024ZM93.2653 108.72L95.0253 107.248C96.9773 108.176 99.4413 109.68 100.721 110.8L98.8653 112.432C97.7133 111.312 95.2493 109.744 93.2653 108.72ZM98.1613 112.432L100.657 113.168C99.1213 115.312 96.5933 117.296 94.2573 118.512C93.8413 118.032 92.8813 117.04 92.3373 116.624C94.6093 115.632 96.9133 114.096 98.1613 112.432ZM93.1053 114.192L94.8973 112.72C96.9453 113.744 99.6013 115.376 100.913 116.592L99.0253 118.256C97.8093 117.04 95.2173 115.312 93.1053 114.192ZM84.7533 108.752L88.4013 109.68L88.9773 119.568H85.3933L84.7533 108.752Z" fill="#276BC6"/>
<path d="M37.5833 32V18.68H40.5173L42.7853 24.926C43.0913 25.754 43.3253 26.618 43.6133 27.482H43.6853C43.9913 26.618 44.2253 25.754 44.4953 24.926L46.7093 18.68H49.6613V32H47.2313V26.438C47.2313 25.178 47.4473 23.324 47.5913 22.064H47.5013L46.4033 25.196L44.3513 30.812H42.8213L40.7693 25.196L39.6893 22.064H39.6173C39.7613 23.324 39.9593 25.178 39.9593 26.438V32H37.5833ZM55.179 32.252C53.379 32.252 52.209 30.992 52.209 29.264C52.209 27.122 53.955 25.988 58.005 25.538C57.951 24.548 57.537 23.81 56.295 23.81C55.359 23.81 54.441 24.206 53.523 24.764L52.569 23C53.757 22.28 55.179 21.686 56.781 21.686C59.337 21.686 60.651 23.198 60.651 26.132V32H58.491L58.293 30.938H58.221C57.339 31.694 56.331 32.252 55.179 32.252ZM56.043 30.182C56.799 30.182 57.357 29.84 58.005 29.21V27.176C55.539 27.482 54.729 28.148 54.729 29.066C54.729 29.84 55.269 30.182 56.043 30.182ZM66.5803 32.252C64.1863 32.252 63.2683 30.74 63.2683 28.49V24.008H61.8643V22.046L63.4303 21.938L63.7183 19.202H65.9143V21.938H68.4163V24.008H65.9143V28.49C65.9143 29.642 66.4003 30.182 67.2823 30.182C67.6243 30.182 68.0023 30.056 68.2903 29.948L68.7223 31.874C68.1823 32.054 67.4803 32.252 66.5803 32.252ZM70.4845 32V17.654H73.1305V21.272L73.0045 23.162C73.7965 22.406 74.8045 21.686 76.1725 21.686C78.3325 21.686 79.2865 23.198 79.2865 25.718V32H76.6405V26.06C76.6405 24.476 76.1905 23.954 75.2185 23.954C74.3905 23.954 73.8685 24.35 73.1305 25.07V32H70.4845Z" fill="#276BC6"/>
</svg>
