<svg width="181" height="209" viewBox="0 0 181 209" fill="none" xmlns="http://www.w3.org/2000/svg">
<rect x="20.1709" y="4" width="158.363" height="178.207" fill="#FFFEF6" stroke="#4395E6" stroke-width="4"/>
<path d="M1 28.7013L18.5939 2.06104V182.454H179.999V207.927H18C8.61116 207.927 1 200.316 1 190.927V28.7013Z" fill="#276BC6" stroke="#4395E6"/>
<path d="M18.1709 184.408C12.9242 184.408 8.6709 188.661 8.6709 193.908C8.6709 199.154 12.9242 203.408 18.1709 203.408V184.408ZM18.1709 203.408H180.533V184.408H18.1709V203.408Z" fill="#EFF5FF"/>
<path d="M101.793 66.752H112.353V70.112H101.793V66.752ZM102.497 60.8L105.665 61.408C104.577 67.488 102.753 73.888 100.481 78.048C99.9687 77.408 98.7207 76.16 98.0167 75.616C100.097 72.032 101.601 66.336 102.497 60.8ZM107.041 68.928L110.305 69.184C109.185 80.224 106.209 87.008 98.3367 91.008C98.0167 90.272 97.0887 88.832 96.4807 88.16C103.713 84.928 106.241 78.784 107.041 68.928ZM103.617 69.856C104.769 77.856 107.265 84.8 112.737 87.84C111.969 88.48 110.849 89.856 110.337 90.816C104.577 87.04 102.241 79.52 100.929 70.24L103.617 69.856ZM89.7607 60.832H92.6407V77.92H89.7607V60.832ZM87.4567 65.152V69.888H95.1367V65.152H87.4567ZM84.5767 62.752H98.1447V72.32H84.5767V62.752ZM87.2007 75.392V76.8H95.2647V75.392H87.2007ZM84.0327 73.248H98.5927V78.976H84.0327V73.248ZM82.3367 66.08H85.5367V66.272H96.2567V66.08H99.8407V68.8H96.2567V68.608H85.5367V68.8H82.3367V66.08ZM84.3207 85.44C85.9527 83.424 87.9687 80.288 89.0887 77.728L92.1287 78.4C90.8487 81.152 88.8647 84.192 87.3927 86.144L84.3207 85.44ZM84.3207 85.44L86.7527 83.456C90.8167 84.416 95.7447 86.304 98.6887 87.808L96.2887 89.952C93.5047 88.384 88.4807 86.432 84.3207 85.44ZM93.9847 79.456H96.9927V81.056C96.9927 84.416 95.4247 88.864 83.5207 90.848C83.2647 90.144 82.5607 88.992 82.0167 88.384C92.8327 86.72 93.9847 83.296 93.9847 80.928V79.456ZM82.6887 80.384H99.6487V82.944H82.6887V80.384ZM82.7847 127.952H111.809V131.024H82.7847V127.952ZM89.0247 122.48H103.041V125.2H89.0247V122.48ZM95.7767 127.056H99.5527V133.296C99.5527 135.024 99.2007 135.856 97.8567 136.368C96.5447 136.848 94.7847 136.848 92.3847 136.848C92.1927 135.856 91.6487 134.544 91.1687 133.616C92.7047 133.68 94.6247 133.68 95.1367 133.68C95.6487 133.68 95.7767 133.584 95.7767 133.168V127.056ZM102.081 122.48H103.009L103.809 122.288L105.985 124.272C103.585 126 100.449 127.792 97.5047 129.008C97.1207 128.432 96.2567 127.504 95.7767 127.056C98.0487 126.096 100.801 124.336 102.081 123.12V122.48ZM83.3287 118.352H111.425V124.944H107.617V121.136H86.9767V124.944H83.3287V118.352ZM106.081 107.888H109.729C109.537 111.824 109.217 116.688 108.865 119.728H105.185C105.601 116.592 105.953 111.728 106.081 107.888ZM101.665 107.888H107.585V110.288H101.665V107.888ZM91.6487 106.992L93.2487 109.2C91.2327 109.968 88.4487 110.544 86.4967 110.864L85.1527 108.752C87.0727 108.432 89.9207 107.568 91.6487 106.992ZM87.0087 111.376H92.9927V113.744H87.0087V111.376ZM87.1047 114.864H93.0887V117.232H87.1047V114.864ZM101.857 111.376H107.265V113.744H101.857V111.376ZM101.697 114.864H107.073V117.232H101.697V114.864ZM98.5287 107.024L101.025 107.728C99.5847 109.712 97.1847 111.568 95.0087 112.688C94.5607 112.24 93.6007 111.376 92.9927 110.992C95.2007 110.032 97.3447 108.592 98.5287 107.024ZM93.6647 108.72L95.4247 107.248C97.3767 108.176 99.8407 109.68 101.121 110.8L99.2647 112.432C98.1127 111.312 95.6487 109.744 93.6647 108.72ZM98.5607 112.432L101.057 113.168C99.5207 115.312 96.9927 117.296 94.6567 118.512C94.2407 118.032 93.2807 117.04 92.7367 116.624C95.0087 115.632 97.3127 114.096 98.5607 112.432ZM93.5047 114.192L95.2967 112.72C97.3447 113.744 100.001 115.376 101.313 116.592L99.4247 118.256C98.2087 117.04 95.6167 115.312 93.5047 114.192ZM85.1527 108.752L88.8007 109.68L89.3767 119.568H85.7927L85.1527 108.752Z" fill="#276BC6"/>
<path d="M37.9827 32V18.68H40.9167L43.1847 24.926C43.4907 25.754 43.7247 26.618 44.0127 27.482H44.0847C44.3907 26.618 44.6247 25.754 44.8947 24.926L47.1087 18.68H50.0607V32H47.6307V26.438C47.6307 25.178 47.8467 23.324 47.9907 22.064H47.9007L46.8027 25.196L44.7507 30.812H43.2207L41.1687 25.196L40.0887 22.064H40.0167C40.1607 23.324 40.3587 25.178 40.3587 26.438V32H37.9827ZM55.5784 32.252C53.7784 32.252 52.6084 30.992 52.6084 29.264C52.6084 27.122 54.3544 25.988 58.4044 25.538C58.3504 24.548 57.9364 23.81 56.6944 23.81C55.7584 23.81 54.8404 24.206 53.9224 24.764L52.9684 23C54.1564 22.28 55.5784 21.686 57.1804 21.686C59.7364 21.686 61.0504 23.198 61.0504 26.132V32H58.8904L58.6924 30.938H58.6204C57.7384 31.694 56.7304 32.252 55.5784 32.252ZM56.4424 30.182C57.1984 30.182 57.7564 29.84 58.4044 29.21V27.176C55.9384 27.482 55.1284 28.148 55.1284 29.066C55.1284 29.84 55.6684 30.182 56.4424 30.182ZM66.9797 32.252C64.5857 32.252 63.6677 30.74 63.6677 28.49V24.008H62.2637V22.046L63.8297 21.938L64.1177 19.202H66.3137V21.938H68.8157V24.008H66.3137V28.49C66.3137 29.642 66.7997 30.182 67.6817 30.182C68.0237 30.182 68.4017 30.056 68.6897 29.948L69.1217 31.874C68.5817 32.054 67.8797 32.252 66.9797 32.252ZM70.8839 32V17.654H73.5299V21.272L73.4039 23.162C74.1959 22.406 75.2039 21.686 76.5719 21.686C78.7319 21.686 79.6859 23.198 79.6859 25.718V32H77.0399V26.06C77.0399 24.476 76.5899 23.954 75.6179 23.954C74.7899 23.954 74.2679 24.35 73.5299 25.07V32H70.8839Z" fill="#276BC6"/>
</svg>
