<svg width="1440" height="800" viewBox="0 0 1440 800" fill="none" xmlns="http://www.w3.org/2000/svg">
<g clip-path="url(#clip0_321_1090)">
<g filter="url(#filter0_d_321_1090)">
<path fill-rule="evenodd" clip-rule="evenodd" d="M446.887 564.119C446.329 521.234 418.696 486.687 384.691 486.687C378.428 486.687 372.38 487.859 366.679 490.039C355.337 474.825 339.261 465.329 321.433 465.329C314.002 465.329 306.876 466.979 300.269 470.005C289.085 456.364 273.876 447.976 257.12 447.976C232.512 447.976 211.241 466.068 201.153 492.319C189.787 473.479 171.859 461.325 151.689 461.325C119.571 461.325 93.1377 492.145 89.8332 531.701C85.838 533.593 82.0376 535.99 78.4804 538.832C71.4387 535.33 63.7703 533.406 55.7472 533.406C21.3927 533.406 -6.45703 568.667 -6.45703 612.162C-6.45703 655.658 21.3927 690.918 55.7472 690.918C67.9311 690.918 79.2968 686.483 88.8922 678.819C95.934 682.321 103.602 684.244 111.626 684.244C112.498 684.244 113.367 684.221 114.23 684.176C121.909 716.645 145.687 740.308 173.83 740.308C191.637 740.308 207.697 730.834 219.036 715.65C228.618 743.517 250.561 763 276.098 763C295.332 763 312.526 751.948 323.937 734.586C334.978 747.266 349.633 754.991 365.714 754.991C389.079 754.991 409.436 738.681 420.068 714.563C427.921 719.095 436.648 721.62 445.841 721.62C480.196 721.62 508.046 686.36 508.046 642.864C508.046 599.81 480.759 564.826 446.887 564.119Z" fill="#FFFEF6"/>
<path fill-rule="evenodd" clip-rule="evenodd" d="M789.504 593.475C798.104 579.966 803.253 562.787 803.253 544.085C803.253 500.589 775.403 465.329 741.048 465.329C715.986 465.329 694.386 484.094 684.535 511.133C673.124 493.75 655.919 482.682 636.672 482.682C626.327 482.682 616.572 485.879 607.989 491.536C597.782 465.709 576.69 447.976 552.327 447.976C527.719 447.976 506.448 466.068 496.36 492.319C484.994 473.479 467.066 461.325 446.896 461.325C414.777 461.325 388.344 492.145 385.04 531.701C381.045 533.593 377.244 535.99 373.687 538.832C366.646 535.33 358.977 533.406 350.954 533.406C316.6 533.406 288.75 568.667 288.75 612.162C288.75 655.658 316.6 690.918 350.954 690.918C363.138 690.918 374.504 686.483 384.099 678.819C391.141 682.321 398.809 684.244 406.833 684.244C407.705 684.244 408.574 684.221 409.438 684.176C417.116 716.645 440.894 740.308 469.037 740.308C486.844 740.308 502.904 730.834 514.243 715.651C523.824 743.517 545.767 763 571.304 763C590.538 763 607.733 751.948 619.143 734.586C630.185 747.266 644.84 754.991 660.921 754.991C684.286 754.991 704.642 738.681 715.275 714.563C723.127 719.095 731.855 721.62 741.048 721.62C775.403 721.62 803.253 686.36 803.253 642.864C803.253 624.162 798.104 606.983 789.504 593.475Z" fill="#FFFEF6"/>
<path fill-rule="evenodd" clip-rule="evenodd" d="M976.159 419.944C1003.22 419.944 1026.24 441.816 1034.8 472.356C1055.57 474.84 1073.37 490.258 1083.12 512.181C1103.54 513.672 1121.32 527.634 1131.78 548.142C1141.36 540.498 1152.71 536.076 1164.88 536.076C1199.24 536.076 1227.08 571.336 1227.08 614.832C1227.08 658.328 1199.24 693.588 1164.88 693.588C1155.69 693.588 1146.96 691.063 1139.11 686.531C1128.47 710.649 1108.12 726.959 1084.75 726.959C1068.67 726.959 1054.02 719.234 1042.98 706.554C1031.57 723.916 1014.37 734.968 995.137 734.968C969.6 734.968 947.657 715.485 938.076 687.618C926.736 702.802 910.676 712.276 892.869 712.276C864.726 712.276 840.948 688.613 833.27 656.145C832.406 656.19 831.537 656.212 830.665 656.212C822.642 656.212 814.973 654.289 807.931 650.787C798.336 658.452 786.97 662.887 774.786 662.887C740.432 662.887 712.582 627.626 712.582 584.131C712.582 540.635 740.432 505.375 774.786 505.375C780.109 505.375 785.276 506.221 790.207 507.814C796.046 497.873 803.693 489.735 812.531 484.179C821.421 454.439 844.124 433.293 870.729 433.293C890.899 433.293 908.827 445.447 920.192 464.287C930.281 438.036 951.551 419.944 976.159 419.944Z" fill="#FFFEF6"/>
<path fill-rule="evenodd" clip-rule="evenodd" d="M1382.72 500.388C1374.16 469.847 1351.14 447.976 1324.08 447.976C1299.47 447.976 1278.2 466.068 1268.11 492.319C1256.75 473.479 1238.82 461.325 1218.65 461.325C1186.53 461.325 1160.1 492.145 1156.79 531.701C1152.8 533.593 1149 535.99 1145.44 538.832C1138.4 535.33 1130.73 533.406 1122.71 533.406C1088.35 533.406 1060.5 568.667 1060.5 612.163C1060.5 655.658 1088.35 690.919 1122.71 690.919C1134.89 690.919 1146.26 686.484 1155.85 678.819C1162.89 682.321 1170.56 684.244 1178.59 684.244C1179.46 684.244 1180.33 684.221 1181.19 684.176C1188.87 716.645 1212.65 740.308 1240.79 740.308C1258.6 740.308 1274.66 730.834 1286 715.651C1295.58 743.517 1317.52 763 1343.06 763C1374.84 763 1401.06 732.816 1404.8 693.853C1423.49 680.266 1436.07 654.749 1436.07 625.511C1436.07 619.53 1435.55 613.704 1434.55 608.105C1437.42 599.044 1439 589.151 1439 578.791C1439 537.825 1414.3 504.164 1382.72 500.388Z" fill="#FFFEF6"/>
</g>
<path d="M1440 801C1440 746.876 1117.65 703 720 703C322.355 703 0 746.876 0 801" stroke="#1C276D"/>
<g filter="url(#filter1_d_321_1090)">
<path fill-rule="evenodd" clip-rule="evenodd" d="M1112.73 685.093C1094.01 690.08 1082.5 708.803 1086.99 726.983C1091.5 745.211 1110.39 755.991 1129.19 751.062C1147.99 746.132 1159.58 727.36 1155.07 709.133C1155.06 709.109 1155.06 709.085 1155.05 709.062L1120.87 718.025L1112.73 685.093Z" fill="#FFDE67"/>
<ellipse cx="2.90224" cy="2.82149" rx="2.90224" ry="2.82149" transform="matrix(0.996132 -0.0827958 0.0576629 0.998795 1094.38 708.019)" fill="#1C276D"/>
<ellipse cx="2.90224" cy="2.82149" rx="2.90224" ry="2.82149" transform="matrix(0.996132 -0.0827958 0.0576629 0.998795 1104.01 707.218)" fill="#1C276D"/>
<path d="M1098.62 718.003C1099.93 719.487 1103.37 721.335 1106.63 716.86" stroke="#1C276D"/>
<path d="M1095.92 720.124C1097.05 720.109 1099.15 719.347 1098.45 716.423" stroke="#1C276D"/>
<path d="M1106.92 715.144C1106.45 716.167 1106.28 718.328 1109.33 718.783" stroke="#1C276D"/>
</g>
<g filter="url(#filter2_d_321_1090)">
<path fill-rule="evenodd" clip-rule="evenodd" d="M299.727 680.093C281.014 685.08 269.499 703.803 273.993 721.983C278.499 740.211 297.392 750.991 316.19 746.062C334.989 741.132 346.575 722.36 342.069 704.133C342.063 704.109 342.058 704.085 342.052 704.062L307.868 713.025L299.727 680.093Z" fill="#FFDE67"/>
<ellipse cx="2.90224" cy="2.82149" rx="2.90224" ry="2.82149" transform="matrix(0.996132 -0.0827958 0.0576629 0.998795 281.375 703.019)" fill="#1C276D"/>
<ellipse cx="2.90224" cy="2.82149" rx="2.90224" ry="2.82149" transform="matrix(0.996132 -0.0827958 0.0576629 0.998795 291.012 702.218)" fill="#1C276D"/>
<path d="M285.625 713.003C286.934 714.487 290.368 716.335 293.628 711.86" stroke="#1C276D"/>
<path d="M282.916 715.124C284.051 715.109 286.146 714.347 285.446 711.423" stroke="#1C276D"/>
<path d="M293.918 710.144C293.451 711.167 293.28 713.328 296.325 713.783" stroke="#1C276D"/>
</g>
<g filter="url(#filter3_d_321_1090)">
<path fill-rule="evenodd" clip-rule="evenodd" d="M724.693 649.896C695.221 657.751 677.086 687.237 684.164 715.869C691.261 744.576 721.015 761.554 750.621 753.791C780.228 746.027 798.475 716.463 791.378 687.756C791.369 687.719 791.36 687.682 791.351 687.645L737.515 701.761L724.693 649.896Z" fill="#FFDE67"/>
</g>
<ellipse cx="4.57077" cy="4.4436" rx="4.57077" ry="4.4436" transform="matrix(0.996132 -0.0827958 0.0576629 0.998795 695.791 686.003)" fill="#1C276D"/>
<ellipse cx="4.57077" cy="4.4436" rx="4.57077" ry="4.4436" transform="matrix(0.996132 -0.0827958 0.0576629 0.998795 710.967 684.741)" fill="#1C276D"/>
<path d="M702.482 701.727C704.545 704.063 709.953 706.973 715.086 699.926" stroke="#1C276D"/>
<path d="M698.215 705.066C700.002 705.043 703.302 703.844 702.199 699.239" stroke="#1C276D"/>
<path d="M715.543 697.223C714.808 698.835 714.538 702.238 719.334 702.956" stroke="#1C276D"/>
</g>
<defs>
<filter id="filter0_d_321_1090" x="-7.45703" y="414.944" width="1461.46" height="359.056" filterUnits="userSpaceOnUse" color-interpolation-filters="sRGB">
<feFlood flood-opacity="0" result="BackgroundImageFix"/>
<feColorMatrix in="SourceAlpha" type="matrix" values="0 0 0 0 0 0 0 0 0 0 0 0 0 0 0 0 0 0 127 0" result="hardAlpha"/>
<feOffset dx="7" dy="3"/>
<feGaussianBlur stdDeviation="4"/>
<feComposite in2="hardAlpha" operator="out"/>
<feColorMatrix type="matrix" values="0 0 0 0 0.151771 0 0 0 0 0.420893 0 0 0 0 0.775 0 0 0 0.25 0"/>
<feBlend mode="normal" in2="BackgroundImageFix" result="effect1_dropShadow_321_1090"/>
<feBlend mode="normal" in="SourceGraphic" in2="effect1_dropShadow_321_1090" result="shape"/>
</filter>
<filter id="filter1_d_321_1090" x="1086.02" y="685.093" width="78.0195" height="75.1631" filterUnits="userSpaceOnUse" color-interpolation-filters="sRGB">
<feFlood flood-opacity="0" result="BackgroundImageFix"/>
<feColorMatrix in="SourceAlpha" type="matrix" values="0 0 0 0 0 0 0 0 0 0 0 0 0 0 0 0 0 0 127 0" result="hardAlpha"/>
<feOffset dx="4" dy="4"/>
<feGaussianBlur stdDeviation="2"/>
<feComposite in2="hardAlpha" operator="out"/>
<feColorMatrix type="matrix" values="0 0 0 0 0.151771 0 0 0 0 0.420893 0 0 0 0 0.775 0 0 0 0.25 0"/>
<feBlend mode="normal" in2="BackgroundImageFix" result="effect1_dropShadow_321_1090"/>
<feBlend mode="normal" in="SourceGraphic" in2="effect1_dropShadow_321_1090" result="shape"/>
</filter>
<filter id="filter2_d_321_1090" x="273.021" y="680.093" width="78.0195" height="75.1631" filterUnits="userSpaceOnUse" color-interpolation-filters="sRGB">
<feFlood flood-opacity="0" result="BackgroundImageFix"/>
<feColorMatrix in="SourceAlpha" type="matrix" values="0 0 0 0 0 0 0 0 0 0 0 0 0 0 0 0 0 0 127 0" result="hardAlpha"/>
<feOffset dx="4" dy="4"/>
<feGaussianBlur stdDeviation="2"/>
<feComposite in2="hardAlpha" operator="out"/>
<feColorMatrix type="matrix" values="0 0 0 0 0.151771 0 0 0 0 0.420893 0 0 0 0 0.775 0 0 0 0.25 0"/>
<feBlend mode="normal" in2="BackgroundImageFix" result="effect1_dropShadow_321_1090"/>
<feBlend mode="normal" in="SourceGraphic" in2="effect1_dropShadow_321_1090" result="shape"/>
</filter>
<filter id="filter3_d_321_1090" x="682.633" y="649.896" width="118.277" height="113.775" filterUnits="userSpaceOnUse" color-interpolation-filters="sRGB">
<feFlood flood-opacity="0" result="BackgroundImageFix"/>
<feColorMatrix in="SourceAlpha" type="matrix" values="0 0 0 0 0 0 0 0 0 0 0 0 0 0 0 0 0 0 127 0" result="hardAlpha"/>
<feOffset dx="4" dy="4"/>
<feGaussianBlur stdDeviation="2"/>
<feComposite in2="hardAlpha" operator="out"/>
<feColorMatrix type="matrix" values="0 0 0 0 0.151771 0 0 0 0 0.420893 0 0 0 0 0.775 0 0 0 0.25 0"/>
<feBlend mode="normal" in2="BackgroundImageFix" result="effect1_dropShadow_321_1090"/>
<feBlend mode="normal" in="SourceGraphic" in2="effect1_dropShadow_321_1090" result="shape"/>
</filter>
<clipPath id="clip0_321_1090">
<rect width="1440" height="800" fill="white"/>
</clipPath>
</defs>
</svg>
