<svg width="2254" height="1027" viewBox="0 0 2254 1027" fill="none" xmlns="http://www.w3.org/2000/svg">
<g clip-path="url(#clip0_854_448)">
<g filter="url(#filter0_d_854_448)">
<path fill-rule="evenodd" clip-rule="evenodd" d="M709.537 779.244C708.672 725.928 665.851 682.977 613.154 682.977C603.446 682.977 594.074 684.435 585.237 687.146C567.662 668.23 542.748 656.425 515.12 656.425C503.606 656.425 492.563 658.475 482.326 662.236C464.994 645.278 441.426 634.85 415.46 634.85C377.325 634.85 344.362 657.343 328.728 689.98C311.115 666.557 283.332 651.446 252.075 651.446C202.301 651.446 161.338 689.764 156.217 738.942C150.027 741.294 144.139 744.275 138.627 747.807C127.714 743.452 115.83 741.061 103.397 741.061C50.1582 741.061 7 784.898 7 838.974C7 893.05 50.1582 936.887 103.397 936.887C122.278 936.887 139.891 931.373 154.761 921.844C165.674 926.198 177.558 928.589 189.992 928.589C191.345 928.589 192.691 928.561 194.03 928.505C205.928 968.871 242.777 998.29 286.39 998.29C313.984 998.29 338.87 986.513 356.442 967.638C371.291 1002.28 405.295 1026.5 444.868 1026.5C474.674 1026.5 501.32 1012.76 519.003 991.177C536.113 1006.94 558.824 1016.54 583.744 1016.54C619.952 1016.54 651.498 996.268 667.975 966.283C680.144 971.917 693.669 975.057 707.915 975.057C761.154 975.057 804.312 931.219 804.312 877.144C804.312 823.618 762.027 780.124 709.537 779.244Z" fill="#FFFEF6"/>
<path fill-rule="evenodd" clip-rule="evenodd" d="M1240.48 815.74C1253.81 798.946 1261.79 777.588 1261.79 754.337C1261.79 700.262 1218.63 656.424 1165.39 656.424C1126.55 656.424 1093.08 679.753 1077.81 713.367C1060.13 691.757 1033.47 677.999 1003.64 677.999C987.611 677.999 972.494 681.974 959.193 689.007C943.375 656.897 910.689 634.85 872.935 634.85C834.799 634.85 801.837 657.343 786.203 689.98C768.59 666.557 740.807 651.446 709.549 651.446C659.775 651.446 618.812 689.764 613.692 738.942C607.502 741.294 601.613 744.275 596.102 747.806C585.189 743.452 573.305 741.061 560.871 741.061C507.633 741.061 464.475 784.898 464.475 838.974C464.475 893.05 507.633 936.887 560.871 936.887C579.753 936.887 597.366 931.373 612.236 921.844C623.149 926.198 635.033 928.589 647.467 928.589C648.819 928.589 650.166 928.561 651.505 928.505C663.403 968.871 700.251 998.29 743.864 998.29C771.458 998.29 796.345 986.513 813.917 967.638C828.766 1002.28 862.769 1026.5 902.343 1026.5C932.149 1026.5 958.796 1012.76 976.478 991.176C993.589 1006.94 1016.3 1016.54 1041.22 1016.54C1077.43 1016.54 1108.97 996.268 1125.45 966.283C1137.62 971.917 1151.14 975.056 1165.39 975.056C1218.63 975.056 1261.79 931.219 1261.79 877.143C1261.79 853.893 1253.81 832.535 1240.48 815.74Z" fill="#FFFEF6"/>
<path fill-rule="evenodd" clip-rule="evenodd" d="M1529.74 600C1571.67 600 1607.35 627.191 1620.61 665.16C1652.8 668.248 1680.39 687.417 1695.49 714.673C1727.14 716.526 1754.69 733.883 1770.9 759.379C1785.76 749.877 1803.34 744.38 1822.2 744.38C1875.43 744.38 1918.59 788.217 1918.59 842.293C1918.59 896.369 1875.43 940.206 1822.2 940.206C1807.95 940.206 1794.43 937.067 1782.26 931.432C1765.78 961.417 1734.23 981.695 1698.03 981.695C1673.11 981.695 1650.39 972.09 1633.28 956.326C1615.6 977.911 1588.96 991.652 1559.15 991.652C1519.58 991.652 1485.57 967.431 1470.72 932.787C1453.15 951.663 1428.27 963.439 1400.67 963.439C1357.06 963.439 1320.21 934.021 1308.31 893.655C1306.97 893.711 1305.63 893.739 1304.27 893.739C1291.84 893.739 1279.96 891.348 1269.04 886.994C1254.17 896.523 1236.56 902.037 1217.68 902.037C1164.44 902.037 1121.28 858.199 1121.28 804.124C1121.28 750.048 1164.44 706.211 1217.68 706.211C1225.93 706.211 1233.93 707.263 1241.58 709.243C1250.62 696.885 1262.47 686.768 1276.17 679.862C1289.94 642.886 1325.13 616.595 1366.36 616.595C1397.61 616.595 1425.4 631.707 1443.01 655.129C1458.64 622.493 1491.61 600 1529.74 600Z" fill="#FFFEF6"/>
<path fill-rule="evenodd" clip-rule="evenodd" d="M2159.78 700.01C2146.51 662.041 2110.84 634.85 2068.91 634.85C2030.77 634.85 1997.81 657.343 1982.18 689.98C1964.56 666.557 1936.78 651.446 1905.52 651.446C1855.75 651.446 1814.79 689.764 1809.67 738.943C1803.48 741.295 1797.59 744.275 1792.08 747.806C1781.17 743.452 1769.28 741.061 1756.85 741.061C1703.61 741.061 1660.45 784.898 1660.45 838.974C1660.45 893.05 1703.61 936.887 1756.85 936.887C1775.73 936.887 1793.34 931.373 1808.21 921.844C1819.13 926.198 1831.01 928.589 1843.44 928.589C1844.8 928.589 1846.14 928.561 1847.48 928.505C1859.38 968.871 1896.23 998.29 1939.84 998.29C1967.43 998.29 1992.32 986.513 2009.89 967.638C2024.74 1002.28 2058.75 1026.5 2098.32 1026.5C2147.58 1026.5 2188.2 988.977 2194.01 940.537C2222.96 923.646 2242.47 891.921 2242.47 855.569C2242.47 848.133 2241.65 840.891 2240.1 833.929C2244.55 822.665 2247 810.365 2247 797.485C2247 746.553 2208.72 704.703 2159.78 700.01Z" fill="#FFFEF6"/>
</g>
</g>
<defs>
<filter id="filter0_d_854_448" x="6" y="595" width="2256" height="442.502" filterUnits="userSpaceOnUse" color-interpolation-filters="sRGB">
<feFlood flood-opacity="0" result="BackgroundImageFix"/>
<feColorMatrix in="SourceAlpha" type="matrix" values="0 0 0 0 0 0 0 0 0 0 0 0 0 0 0 0 0 0 127 0" result="hardAlpha"/>
<feOffset dx="7" dy="3"/>
<feGaussianBlur stdDeviation="4"/>
<feComposite in2="hardAlpha" operator="out"/>
<feColorMatrix type="matrix" values="0 0 0 0 0.151771 0 0 0 0 0.420893 0 0 0 0 0.775 0 0 0 0.25 0"/>
<feBlend mode="normal" in2="BackgroundImageFix" result="effect1_dropShadow_854_448"/>
<feBlend mode="normal" in="SourceGraphic" in2="effect1_dropShadow_854_448" result="shape"/>
</filter>
<clipPath id="clip0_854_448">
<rect width="2254" height="1027" fill="white"/>
</clipPath>
</defs>
</svg>
