<svg width="136" height="136" viewBox="0 0 136 136" fill="none" xmlns="http://www.w3.org/2000/svg">
<g filter="url(#filter0_d_216_2037)">
<path fill-rule="evenodd" clip-rule="evenodd" d="M54.6927 15.8956C25.2211 23.7507 7.08578 53.2368 14.1644 81.8693C21.2612 110.576 51.0151 127.554 80.6213 119.791C110.228 112.027 128.475 82.4629 121.378 53.7564C121.369 53.7192 121.36 53.6821 121.351 53.645L67.5151 67.7613L54.6927 15.8956Z" fill="#FFDE67"/>
</g>
<ellipse cx="4.57077" cy="4.4436" rx="4.57077" ry="4.4436" transform="matrix(0.996132 -0.0827958 0.0576629 0.998795 25.791 52.0024)" fill="#1C276D"/>
<ellipse cx="4.57077" cy="4.4436" rx="4.57077" ry="4.4436" transform="matrix(0.996132 -0.0827958 0.0576629 0.998795 40.9678 50.7407)" fill="#1C276D"/>
<path d="M32.4814 67.7268C34.5436 70.0629 39.9515 72.9732 45.0854 65.9256" stroke="#1C276D"/>
<path d="M28.2158 71.0662C30.0034 71.0425 33.3027 69.8439 32.1997 65.2384" stroke="#1C276D"/>
<path d="M45.543 63.2227C44.8081 64.8346 44.5376 68.2377 49.334 68.9552" stroke="#1C276D"/>
<defs>
<filter id="filter0_d_216_2037" x="12.6328" y="15.8956" width="118.276" height="113.776" filterUnits="userSpaceOnUse" color-interpolation-filters="sRGB">
<feFlood flood-opacity="0" result="BackgroundImageFix"/>
<feColorMatrix in="SourceAlpha" type="matrix" values="0 0 0 0 0 0 0 0 0 0 0 0 0 0 0 0 0 0 127 0" result="hardAlpha"/>
<feOffset dx="4" dy="4"/>
<feGaussianBlur stdDeviation="2"/>
<feComposite in2="hardAlpha" operator="out"/>
<feColorMatrix type="matrix" values="0 0 0 0 0.151771 0 0 0 0 0.420893 0 0 0 0 0.775 0 0 0 0.25 0"/>
<feBlend mode="normal" in2="BackgroundImageFix" result="effect1_dropShadow_216_2037"/>
<feBlend mode="normal" in="SourceGraphic" in2="effect1_dropShadow_216_2037" result="shape"/>
</filter>
</defs>
</svg>
