<svg width="458" height="496" viewBox="0 0 458 496" fill="none" xmlns="http://www.w3.org/2000/svg">
<g filter="url(#filter0_d_187_3098)">
<rect x="2" y="2" width="448" height="485.565" rx="19" fill="#FFFEF6" stroke="#4395E6" stroke-width="2"/>
<g opacity="0.3">
<g clip-path="url(#clip0_187_3098)">
<path d="M43.2811 1441.01L43.345 1.01239M83.5736 1441.01L83.6375 1.01239M123.866 1441.01L123.93 1.01239M164.158 1441.01L164.222 1.01239M204.451 1441.01L204.515 1.01239M244.743 1441.01L244.807 1.01239M285.036 1441.01L285.1 1.01239M325.328 1441.01L325.392 1.01239M365.621 1441.01L365.685 1.01239M405.913 1441.01L405.977 1.01239M446.206 1441.01L446.27 1.01239M486.498 1441.01L486.562 1.01239M526.791 1441.01L526.855 1.01239M567.083 1441.01L567.147 1.01239M607.376 1441.01L607.44 1.01239M647.668 1441.01L647.732 1.01239M687.961 1441.01L688.025 1.01239M728.253 1441.01L728.317 1.01239M768.546 1441.01L768.61 1.01239M808.838 1441.01L808.902 1.01239M849.131 1441.01L849.195 1.01239M889.423 1441.01L889.487 1.01239M929.716 1441.01L929.78 1.01239M970.008 1441.01L970.072 1.01239M1010.3 1441.01L1010.36 1.01239M1050.59 1441.01L1050.66 1.01239M1090.89 1441.01L1090.95 1.01239M1131.18 1441.01L1131.24 1.01239M1171.47 1441.01L1171.53 1.01239M1211.76 1441.01L1211.83 1.01239M1252.06 1441.01L1252.12 1.01239M1292.35 1441.01L1292.41 1.01239M1332.64 1441.01L1332.7 1.01239M1372.93 1441.01L1373 1.01239M1413.23 1441.01L1413.29 1.01239M1.01074 43.2827L1441.01 43.3466M1.01074 83.5752L1441.01 83.6391M1.01074 123.868L1441.01 123.932M1.01074 164.16L1441.01 164.224M1.01074 204.452L1441.01 204.516M1.01074 244.745L1441.01 244.809M1.01074 285.037L1441.01 285.101M1.01074 325.33L1441.01 325.394M1.01074 365.622L1441.01 365.686M1.01074 405.915L1441.01 405.979M1.01074 446.207L1441.01 446.271M1.01074 486.5L1441.01 486.564M1.01074 526.792L1441.01 526.856M1.01074 567.085L1441.01 567.149M1.01074 607.377L1441.01 607.441M1.01074 647.67L1441.01 647.734M1.01074 687.962L1441.01 688.026M1.01074 728.255L1441.01 728.319M1.01074 768.547L1441.01 768.611M1.01074 808.84L1441.01 808.904M1.01074 849.132L1441.01 849.196M1.01074 889.425L1441.01 889.489M1.01074 929.717L1441.01 929.781M1.01074 970.01L1441.01 970.074M1.01074 1010.3L1441.01 1010.37M1.01074 1050.59L1441.01 1050.66M1.01074 1090.89L1441.01 1090.95M1.01074 1131.18L1441.01 1131.24M1.01074 1171.47L1441.01 1171.54M1.01074 1211.76L1441.01 1211.83M1.01074 1252.06L1441.01 1252.12M1.01074 1292.35L1441.01 1292.41M1.01074 1332.64L1441.01 1332.71M1.01074 1372.93L1441.01 1373M1.01074 1413.23L1441.01 1413.29" stroke="#4395E6"/>
</g>
<rect x="2.01074" y="2.01239" width="447.989" height="485.471" rx="19" stroke="#4395E6" stroke-width="2"/>
</g>
<ellipse cx="47.447" cy="23.6162" rx="5.50753" ry="5.90524" fill="#276BC6"/>
<ellipse cx="98.4626" cy="23.6162" rx="5.50753" ry="5.90524" fill="#276BC6"/>
<ellipse cx="149.477" cy="23.6162" rx="5.50753" ry="5.90524" fill="#276BC6"/>
<ellipse cx="200.492" cy="23.6162" rx="5.50753" ry="5.90524" fill="#276BC6"/>
<ellipse cx="251.508" cy="23.6162" rx="5.50753" ry="5.90524" fill="#276BC6"/>
<ellipse cx="302.523" cy="23.6162" rx="5.50753" ry="5.90524" fill="#276BC6"/>
<ellipse cx="353.538" cy="23.6162" rx="5.50753" ry="5.90524" fill="#276BC6"/>
<ellipse cx="404.552" cy="23.6162" rx="5.50753" ry="5.90524" fill="#276BC6"/>
<line x1="102.03" y1="83.2871" x2="348.03" y2="83.2871" stroke="#276BC6"/>
<line x1="102.03" y1="140.287" x2="348.03" y2="140.287" stroke="#276BC6"/>
</g>
<path d="M205.312 112.757H211.192V114.293H205.312V112.757ZM215.296 108.101H222.664V109.709H215.296V108.101ZM215.296 112.301H222.664V113.861H215.296V112.301ZM215.128 116.573H222.712V118.133H215.128V116.573ZM205.24 108.461H212.08V118.877H205.24V117.269H210.4V110.045H205.24V108.461ZM204.376 108.461H206.032V120.533H204.376V108.461ZM214.24 108.101H215.968V114.197C215.968 117.437 215.248 121.325 210.928 123.749C210.736 123.365 210.16 122.669 209.8 122.381C213.76 120.173 214.24 116.957 214.24 114.149V108.101ZM221.776 108.101H223.552V121.469C223.552 122.477 223.312 123.029 222.616 123.293C221.872 123.581 220.672 123.605 218.824 123.581C218.728 123.125 218.464 122.381 218.2 121.925C219.592 121.973 220.912 121.949 221.272 121.925C221.656 121.925 221.776 121.805 221.776 121.469V108.101ZM208.768 101.645H210.544V107.429H208.768V101.645ZM217.336 101.645H219.112V107.429H217.336V101.645ZM203.488 103.781H213.64V105.437H203.488V103.781ZM214.456 103.781H224.584V105.437H214.456V103.781ZM240.328 109.733H248.992V111.413H240.328V109.733ZM227.464 104.141H238.048V105.677H227.464V104.141ZM227.2 113.669H238.168V115.229H227.2V113.669ZM227.08 109.637H238.432V111.173H227.08V109.637ZM244.6 110.453H246.352V123.605H244.6V110.453ZM229.024 106.157L230.488 105.821C230.944 106.853 231.352 108.221 231.472 109.109L229.936 109.541C229.816 108.629 229.456 107.213 229.024 106.157ZM235.048 105.797L236.704 106.157C236.2 107.573 235.6 109.205 235.096 110.261L233.608 109.901C234.112 108.797 234.712 106.997 235.048 105.797ZM247.12 102.053L248.584 103.397C246.304 104.237 243.016 104.909 240.184 105.317C240.088 104.933 239.824 104.333 239.608 103.949C242.32 103.493 245.392 102.797 247.12 102.053ZM231.136 101.957L232.912 101.501C233.488 102.461 234.136 103.781 234.4 104.597L232.552 105.149C232.288 104.309 231.688 102.965 231.136 101.957ZM239.608 103.949H241.288V112.253C241.288 115.709 240.976 120.461 238.768 123.605C238.48 123.269 237.784 122.717 237.4 122.501C239.44 119.597 239.608 115.469 239.608 112.253V103.949ZM234.88 117.005L236.104 116.357C236.896 117.557 237.76 119.117 238.12 120.149L236.848 120.893C236.464 119.861 235.6 118.205 234.88 117.005ZM229.336 116.501L230.8 116.909C230.224 118.637 229.24 120.533 228.304 121.757C228.04 121.517 227.416 121.061 227.056 120.869C227.992 119.741 228.808 118.085 229.336 116.501ZM232.024 110.429H233.776V123.605H232.024V110.429Z" fill="#1C276D"/>
<path d="M197.71 220.789H199.63C199.63 220.789 199.57 221.329 199.51 221.589C199.09 224.289 198.65 225.609 197.97 226.189C197.45 226.649 196.91 226.749 196.03 226.809C195.31 226.829 193.95 226.829 192.51 226.749C192.47 226.209 192.21 225.469 191.87 224.989C193.29 225.109 194.91 225.149 195.49 225.149C195.97 225.149 196.23 225.129 196.47 224.969C196.97 224.609 197.35 223.429 197.69 221.009L197.71 220.789ZM190.51 220.789H198.27V222.329H190.05L190.51 220.789ZM190.91 217.529H200.41V219.029H190.43L190.91 217.529ZM184.91 214.149H202.35V215.769H184.91V214.149ZM186.65 210.589H197.69V212.169H186.65V210.589ZM191.61 208.349H193.49V214.949H191.61V208.349ZM200.05 209.229L201.51 210.089C197.53 215.089 191.33 219.089 185.07 221.529C184.93 221.109 184.55 220.249 184.27 219.829C190.37 217.709 196.39 213.889 200.05 209.229ZM190.61 218.249H192.55C191.97 219.669 191.23 221.289 190.69 222.329H188.67C189.31 221.209 190.07 219.589 190.61 218.249ZM206.79 213.009V214.269H210.23V213.009H206.79ZM206.79 210.489V211.749H210.23V210.489H206.79ZM205.11 209.169H211.99V215.609H205.11V209.169ZM204.03 216.949H213.05V218.369H204.03V216.949ZM212.95 209.269H222.11V210.649H212.95V209.269ZM207.91 217.389H209.51V225.189L207.91 224.249V217.389ZM208.75 220.289H212.69V221.689H208.75V220.289ZM216.87 209.609L218.61 209.969C218.19 211.049 217.73 212.209 217.35 212.969L215.97 212.629C216.31 211.769 216.67 210.509 216.87 209.609ZM215.35 215.829V217.089H219.63V215.829H215.35ZM215.35 218.349V219.629H219.63V218.349H215.35ZM215.35 213.309V214.569H219.63V213.309H215.35ZM213.65 211.989H221.39V220.969H213.65V211.989ZM215.29 221.229L216.87 221.709C216.01 222.829 214.57 223.969 213.33 224.649C213.05 224.369 212.45 223.789 212.09 223.529C213.31 222.969 214.57 222.109 215.29 221.229ZM205.21 219.329H206.77C206.65 222.289 206.29 225.249 204.83 227.009C204.59 226.609 204.07 226.029 203.69 225.749C204.87 224.309 205.13 221.769 205.21 219.329ZM206.43 221.169C207.73 224.569 210.59 224.969 214.89 224.969C216.01 224.969 221.19 224.969 222.57 224.929C222.31 225.289 222.03 226.029 221.93 226.509H214.89C209.87 226.509 206.85 225.849 205.29 221.549L206.43 221.169ZM218.11 221.849L219.41 221.149C220.53 221.849 221.81 222.949 222.45 223.709L221.09 224.549C220.45 223.749 219.15 222.589 218.11 221.849ZM228.03 213.789H238.19V215.469H228.03V213.789ZM226.61 222.609H241.23V224.289H226.61V222.609ZM227.31 210.289H241.29V211.989H227.31V210.289ZM237.43 213.789H239.31C239.31 213.789 239.29 214.429 239.29 214.669C239.05 222.589 238.77 225.209 238.13 226.049C237.73 226.629 237.25 226.809 236.61 226.889C235.99 226.949 234.99 226.949 233.97 226.889C233.95 226.469 233.77 225.829 233.53 225.409C234.49 225.489 235.35 225.509 235.75 225.489C236.11 225.489 236.29 225.449 236.47 225.189C236.97 224.569 237.23 221.789 237.43 214.189V213.789ZM227.13 213.789H229.03C228.63 217.229 228.03 221.669 227.55 224.269H225.61C226.15 221.589 226.81 217.129 227.13 213.789ZM228.07 208.229L229.97 208.789C228.73 211.529 226.89 214.249 225.15 216.009C224.75 215.689 223.93 215.149 223.45 214.889C225.29 213.309 227.03 210.749 228.07 208.229ZM230.57 216.329L231.63 215.289C232.85 215.829 234.35 216.709 235.11 217.409L233.99 218.549C233.27 217.849 231.81 216.889 230.57 216.329ZM230.17 220.609L231.21 219.569C232.49 220.169 234.05 221.149 234.83 221.889L233.73 223.049C232.99 222.289 231.45 221.249 230.17 220.609ZM223.55 218.149H227.49V218.209H238.23V218.149H242.01V219.849H238.23V219.789H227.49V219.849H223.55V218.149ZM245.71 209.649H259.19V226.629H257.17V211.549H247.65V226.689H245.71V209.649ZM247.03 216.489H258.01V218.349H247.03V216.489ZM247.01 223.489H258.03V225.389H247.01V223.489ZM267.35 225.509C265.05 225.509 263.55 224.589 262.55 223.469L263.69 221.989C264.55 222.869 265.63 223.609 267.17 223.609C268.81 223.609 269.95 222.689 269.95 221.169C269.95 219.529 268.91 218.489 265.61 218.489V216.769C268.49 216.769 269.45 215.689 269.45 214.209C269.45 212.909 268.61 212.089 267.19 212.089C266.07 212.089 265.11 212.629 264.27 213.469L263.05 212.009C264.23 210.969 265.59 210.249 267.29 210.249C269.93 210.249 271.79 211.609 271.79 214.029C271.79 215.729 270.81 216.909 269.25 217.489V217.589C270.95 218.029 272.29 219.289 272.29 221.289C272.29 223.949 270.07 225.509 267.35 225.509ZM282.017 208.349L284.077 208.729C283.357 212.249 282.097 215.609 280.557 217.749C280.137 217.429 279.197 216.889 278.677 216.669C280.257 214.749 281.397 211.589 282.017 208.349ZM282.037 211.669H290.397V213.549H281.157L282.037 211.669ZM289.797 211.669H290.077L290.457 211.569L291.837 212.349C291.337 214.389 290.457 216.529 289.737 217.969C289.337 217.749 288.577 217.369 288.137 217.189C288.737 215.929 289.517 213.729 289.797 212.109V211.669ZM285.917 216.049C286.757 220.409 288.637 223.789 292.397 225.129C291.977 225.509 291.397 226.289 291.137 226.809C287.137 225.089 285.257 221.409 284.297 216.309L285.917 216.049ZM284.037 214.229H286.057V215.969C286.057 219.229 285.457 223.949 279.357 227.009C279.057 226.529 278.377 225.829 277.937 225.469C283.557 222.749 284.037 218.689 284.037 215.909V214.229ZM274.377 211.389H279.777V213.229H274.377V211.389ZM273.957 219.549H280.317V221.429H273.957V219.549ZM191.65 251.589H202.49V253.269H191.65V251.589ZM198.45 252.569C199.45 254.449 201.35 256.489 203.05 257.529C202.63 257.869 202.03 258.509 201.75 258.969C200.03 257.669 198.15 255.289 197.09 253.089L198.45 252.569ZM194.01 246.869V248.609H200.19V246.869H194.01ZM194.01 243.669V245.389H200.19V243.669H194.01ZM192.33 242.149H201.95V250.129H192.33V242.149ZM195.77 252.449L197.19 252.949C196.11 255.409 194.17 257.829 192.17 259.089C191.89 258.649 191.31 257.969 190.91 257.629C192.83 256.609 194.77 254.509 195.77 252.449ZM196.25 242.929H197.89V249.409H197.99V259.909H196.15V249.409H196.25V242.929ZM185.09 247.429H191.09V248.889H185.09V247.429ZM185.09 250.089H191.09V251.549H185.09V250.089ZM184.25 244.709H191.75V246.249H184.25V244.709ZM185.91 252.809H191.23V258.749H185.91V257.209H189.57V254.349H185.91V252.809ZM185.07 252.809H186.71V259.649H185.07V252.809ZM186.47 241.989L187.93 241.269C188.51 242.089 189.13 243.169 189.45 243.889L187.93 244.749C187.65 244.009 187.01 242.829 186.47 241.989ZM215.75 250.829H217.63V258.909H215.75V250.829ZM210.93 257.789H222.29V259.449H210.93V257.789ZM211.99 253.849H221.47V255.449H211.99V253.849ZM213.93 243.909V247.289H219.49V243.909H213.93ZM212.17 242.309H221.31V248.909H212.17V242.309ZM220.53 249.429L221.71 250.849C219.11 251.529 215.19 251.909 211.97 252.029C211.91 251.629 211.71 250.989 211.53 250.589C214.67 250.409 218.39 250.029 220.53 249.429ZM207.15 243.109H208.99V259.889H207.15V243.109ZM204.05 246.989H211.33V248.749H204.05V246.989ZM207.25 247.689L208.39 248.169C207.61 251.009 206.09 254.549 204.55 256.449C204.37 255.909 203.95 255.129 203.63 254.669C205.05 253.069 206.57 250.049 207.25 247.689ZM210.27 241.609L211.57 243.069C209.59 243.849 206.79 244.389 204.43 244.689C204.33 244.289 204.09 243.649 203.87 243.249C206.15 242.869 208.75 242.289 210.27 241.609ZM208.93 249.649C209.43 250.069 211.25 251.949 211.65 252.409L210.55 253.909C210.07 253.029 208.69 251.149 208.07 250.409L208.93 249.649ZM224.47 258.229V256.329H227.71V246.089H225.05V244.629C226.45 244.389 227.41 244.029 228.27 243.509H230.01V256.329H232.89V258.229H224.47ZM235.037 257.729H252.597V259.389H235.037V257.729ZM236.817 254.049H251.057V255.689H236.817V254.049ZM242.797 252.049H244.697V258.649H242.797V252.049ZM242.797 241.329H244.697V245.089H242.797V241.329ZM235.097 244.469H252.537V249.009H250.717V246.109H236.837V249.009H235.097V244.469ZM239.997 248.949V250.869H247.537V248.949H239.997ZM238.237 247.489H249.397V252.349H238.237V247.489ZM236.897 242.209L238.577 241.529C239.257 242.329 239.997 243.389 240.337 244.129L238.557 244.909C238.277 244.169 237.557 243.029 236.897 242.209ZM248.937 241.469L250.917 242.089C250.217 243.069 249.417 244.049 248.797 244.689L247.217 244.129C247.797 243.389 248.537 242.269 248.937 241.469ZM183.53 291.229L188.39 276.509H191.09L195.95 291.229H193.49L191.13 283.249C190.63 281.649 190.19 279.989 189.73 278.349H189.65C189.21 280.009 188.77 281.649 188.27 283.249L185.89 291.229H183.53ZM186.27 287.049V285.229H193.15V287.049H186.27ZM197.512 291.229V276.509H199.852V291.229H197.512ZM207.324 283.549H215.524V285.129H207.324V283.549ZM206.564 290.549H216.264V292.209H206.564V290.549ZM205.524 286.509H217.304V292.849H215.424V288.129H207.324V292.929H205.524V286.509ZM211.064 279.069L212.764 279.789C210.684 282.629 207.224 284.769 203.264 286.189C203.024 285.749 202.444 284.989 202.064 284.649C205.864 283.429 209.344 281.409 211.064 279.069ZM211.824 279.909C213.604 281.389 217.564 283.309 220.924 284.249C220.484 284.649 219.884 285.429 219.584 285.909C216.304 284.789 212.524 282.549 210.684 280.949L211.824 279.909ZM204.964 275.889H211.284V277.549H204.964V275.889ZM212.904 275.889H220.444V277.549H212.904V275.889ZM205.144 274.229L207.004 274.769C206.164 276.869 204.764 278.989 203.344 280.329C203.104 279.949 202.464 279.089 202.084 278.709C203.344 277.629 204.504 275.929 205.144 274.229ZM213.144 274.229L215.044 274.729C214.444 276.549 213.404 278.369 212.264 279.509C211.944 279.149 211.204 278.449 210.764 278.129C211.824 277.169 212.684 275.729 213.144 274.229ZM205.864 278.609L207.184 277.569C207.884 278.189 208.724 279.089 209.124 279.689L207.744 280.849C207.384 280.229 206.544 279.289 205.864 278.609ZM214.464 278.509L215.744 277.469C216.464 278.089 217.344 278.969 217.764 279.569L216.404 280.729C216.024 280.109 215.184 279.169 214.464 278.509ZM224.644 279.009V280.269H228.084V279.009H224.644ZM224.644 276.489V277.749H228.084V276.489H224.644ZM222.964 275.169H229.844V281.609H222.964V275.169ZM221.884 282.949H230.904V284.369H221.884V282.949ZM230.804 275.269H239.964V276.649H230.804V275.269ZM225.764 283.389H227.364V291.189L225.764 290.249V283.389ZM226.604 286.289H230.544V287.689H226.604V286.289ZM234.724 275.609L236.464 275.969C236.044 277.049 235.584 278.209 235.204 278.969L233.824 278.629C234.164 277.769 234.524 276.509 234.724 275.609ZM233.204 281.829V283.089H237.484V281.829H233.204ZM233.204 284.349V285.629H237.484V284.349H233.204ZM233.204 279.309V280.569H237.484V279.309H233.204ZM231.504 277.989H239.244V286.969H231.504V277.989ZM233.144 287.229L234.724 287.709C233.864 288.829 232.424 289.969 231.184 290.649C230.904 290.369 230.304 289.789 229.944 289.529C231.164 288.969 232.424 288.109 233.144 287.229ZM223.064 285.329H224.624C224.504 288.289 224.144 291.249 222.684 293.009C222.444 292.609 221.924 292.029 221.544 291.749C222.724 290.309 222.984 287.769 223.064 285.329ZM224.284 287.169C225.584 290.569 228.444 290.969 232.744 290.969C233.864 290.969 239.044 290.969 240.424 290.929C240.164 291.289 239.884 292.029 239.784 292.509H232.744C227.724 292.509 224.704 291.849 223.144 287.549L224.284 287.169ZM235.964 287.849L237.264 287.149C238.384 287.849 239.664 288.949 240.304 289.709L238.944 290.549C238.304 289.749 237.004 288.589 235.964 287.849ZM245.964 291.509C243.664 291.509 242.164 290.589 241.164 289.469L242.304 287.989C243.164 288.869 244.244 289.609 245.784 289.609C247.424 289.609 248.564 288.689 248.564 287.169C248.564 285.529 247.524 284.489 244.224 284.489V282.769C247.104 282.769 248.064 281.689 248.064 280.209C248.064 278.909 247.224 278.089 245.804 278.089C244.684 278.089 243.724 278.629 242.884 279.469L241.664 278.009C242.844 276.969 244.204 276.249 245.904 276.249C248.544 276.249 250.404 277.609 250.404 280.029C250.404 281.729 249.424 282.909 247.864 283.489V283.589C249.564 284.029 250.904 285.289 250.904 287.289C250.904 289.949 248.684 291.509 245.964 291.509ZM260.63 274.349L262.69 274.729C261.97 278.249 260.71 281.609 259.17 283.749C258.75 283.429 257.81 282.889 257.29 282.669C258.87 280.749 260.01 277.589 260.63 274.349ZM260.65 277.669H269.01V279.549H259.77L260.65 277.669ZM268.41 277.669H268.69L269.07 277.569L270.45 278.349C269.95 280.389 269.07 282.529 268.35 283.969C267.95 283.749 267.19 283.369 266.75 283.189C267.35 281.929 268.13 279.729 268.41 278.109V277.669ZM264.53 282.049C265.37 286.409 267.25 289.789 271.01 291.129C270.59 291.509 270.01 292.289 269.75 292.809C265.75 291.089 263.87 287.409 262.91 282.309L264.53 282.049ZM262.65 280.229H264.67V281.969C264.67 285.229 264.07 289.949 257.97 293.009C257.67 292.529 256.99 291.829 256.55 291.469C262.17 288.749 262.65 284.689 262.65 281.909V280.229ZM252.99 277.389H258.39V279.229H252.99V277.389ZM252.57 285.549H258.93V287.429H252.57V285.549ZM189.51 312.049H191.49V322.689C191.49 323.669 191.69 323.829 192.79 323.829C193.31 323.829 195.65 323.829 196.29 323.829C197.39 323.829 197.57 323.209 197.73 320.169C198.19 320.509 199.03 320.869 199.59 320.989C199.31 324.609 198.73 325.709 196.43 325.709C195.87 325.709 193.11 325.709 192.59 325.709C190.17 325.709 189.51 325.069 189.51 322.669V312.049ZM189.63 308.729L190.85 307.369C192.53 308.449 194.65 310.029 195.81 310.949L194.55 312.489C193.39 311.489 191.27 309.849 189.63 308.729ZM186.29 313.129L188.09 313.589C187.65 315.869 186.95 318.729 185.89 320.469L184.07 319.769C185.15 318.029 185.91 315.389 186.29 313.129ZM198.11 314.889L199.81 314.109C201.15 316.049 202.45 318.589 202.99 320.309L201.17 321.229C200.69 319.489 199.37 316.849 198.11 314.889ZM199.11 308.529L201.01 309.309C197.75 315.509 192.47 321.389 185.33 324.829C185.05 324.389 184.49 323.709 184.09 323.329C190.95 320.209 196.31 314.329 199.11 308.529ZM208.71 307.689L210.49 308.449C209.11 310.189 207.01 311.849 205.19 312.949C204.87 312.509 204.29 311.929 203.79 311.589C205.49 310.689 207.57 309.169 208.71 307.689ZM209.11 313.309L210.85 314.049C209.47 315.929 207.33 317.689 205.43 318.849C205.11 318.389 204.55 317.789 204.05 317.389C205.83 316.469 207.97 314.869 209.11 313.309ZM209.55 318.909L211.33 319.589C209.89 322.049 207.57 324.149 205.11 325.509C204.81 325.029 204.25 324.389 203.75 323.969C206.03 322.909 208.33 321.009 209.55 318.909ZM210.97 308.289H222.27V309.889H210.97V308.289ZM213.63 315.869V317.529H219.73V315.869H213.63ZM213.63 318.869V320.549H219.73V318.869H213.63ZM213.63 312.889V314.529H219.73V312.889H213.63ZM211.85 311.469H221.59V321.969H211.85V311.469ZM215.61 309.089L217.79 309.369C217.43 310.569 216.97 311.829 216.63 312.669L214.93 312.349C215.19 311.409 215.49 310.049 215.61 309.089ZM214.09 322.229L215.67 323.289C214.37 324.309 212.31 325.349 210.55 325.929C210.29 325.529 209.77 324.969 209.39 324.609C211.07 324.069 213.11 323.069 214.09 322.229ZM217.33 323.329L218.75 322.309C220.05 322.989 221.83 324.069 222.77 324.829L221.27 325.949C220.43 325.209 218.67 324.089 217.33 323.329ZM227.91 316.229H239.69V325.969H237.79V317.689H229.71V325.969H227.91V316.229ZM223.89 313.549H241.63V315.069H223.89V313.549ZM225.33 310.869H240.49V312.329H225.33V310.869ZM229.13 318.829H238.57V320.089H229.13V318.829ZM229.13 321.269H238.57V322.509H229.13V321.269ZM228.93 323.729H238.59V325.209H228.93V323.729ZM239.21 307.469L240.35 308.829C236.47 309.549 230.41 309.829 225.45 309.809C225.41 309.389 225.25 308.769 225.07 308.369C229.97 308.349 235.93 308.089 239.21 307.469ZM230.87 308.969L232.83 309.369C231.49 314.269 229.05 318.929 224.53 321.589C224.27 321.169 223.71 320.469 223.33 320.109C227.57 317.729 229.85 313.349 230.87 308.969ZM245.89 308.949H261.43V310.569H245.89V308.949ZM247.45 311.789H260.71V312.909H247.45V311.789ZM244.81 308.949H246.63V314.829C246.63 318.049 246.35 322.709 244.53 325.769C244.19 325.469 243.39 324.989 242.93 324.829C244.67 321.929 244.81 317.809 244.81 314.829V308.949ZM253.19 317.209H254.95V322.249H253.19V317.209ZM249.69 320.329V321.509H258.39V320.329H249.69ZM249.69 318.069V319.229H258.39V318.069H249.69ZM247.99 316.909H260.19V322.669H247.99V316.909ZM255.27 323.809L256.03 322.569C257.95 323.249 260.09 324.089 261.41 324.669L260.51 325.989C259.25 325.389 257.19 324.509 255.27 323.809ZM251.53 322.569L252.95 323.789C251.23 324.549 248.95 325.429 247.33 325.989C247.09 325.629 246.65 325.049 246.33 324.689C247.91 324.149 250.23 323.249 251.53 322.569ZM251.97 307.649L253.91 307.249C254.21 307.969 254.55 308.909 254.69 309.509L252.67 310.009C252.55 309.369 252.25 308.389 251.97 307.649ZM249.91 310.809H251.71V313.749H256.29V310.809H258.19V314.629H249.91V310.809ZM247.11 315.169H261.49V316.309H247.11V315.169ZM263.19 314.629H280.85V316.389H263.19V314.629ZM266.47 310.109H279.49V311.849H266.47V310.109ZM266.61 323.229H277.65V324.989H266.61V323.229ZM271.47 307.349H273.47V315.689H271.47V307.349ZM265.59 318.149H278.69V326.009H276.69V319.889H267.51V326.049H265.59V318.149ZM266.73 307.469L268.61 307.929C267.77 310.389 266.37 312.809 264.99 314.369C264.61 314.069 263.73 313.569 263.27 313.349C264.73 311.949 265.99 309.689 266.73 307.469Z" fill="#1C276D"/>
<circle cx="163.53" cy="216.229" r="7" fill="#FFDE67"/>
<circle cx="163.53" cy="249.229" r="7" fill="#FFDE67"/>
<circle cx="163.53" cy="282.229" r="7" fill="#FFDE67"/>
<circle cx="163.53" cy="315.229" r="7" fill="#FFDE67"/>
<defs>
<filter id="filter0_d_187_3098" x="0" y="0" width="458" height="495.565" filterUnits="userSpaceOnUse" color-interpolation-filters="sRGB">
<feFlood flood-opacity="0" result="BackgroundImageFix"/>
<feColorMatrix in="SourceAlpha" type="matrix" values="0 0 0 0 0 0 0 0 0 0 0 0 0 0 0 0 0 0 127 0" result="hardAlpha"/>
<feOffset dx="3" dy="3"/>
<feGaussianBlur stdDeviation="2"/>
<feComposite in2="hardAlpha" operator="out"/>
<feColorMatrix type="matrix" values="0 0 0 0 0.151771 0 0 0 0 0.420893 0 0 0 0 0.775 0 0 0 0.5 0"/>
<feBlend mode="normal" in2="BackgroundImageFix" result="effect1_dropShadow_187_3098"/>
<feBlend mode="normal" in="SourceGraphic" in2="effect1_dropShadow_187_3098" result="shape"/>
</filter>
<clipPath id="clip0_187_3098">
<rect x="1.01074" y="1.01239" width="449.989" height="487.471" rx="20" fill="white"/>
</clipPath>
</defs>
</svg>
