<svg width="303" height="226" viewBox="0 0 303 226" fill="none" xmlns="http://www.w3.org/2000/svg">
<path d="M22 1C10.402 1 1 10.402 1 22V204C1 215.598 10.402 225 22 225H281C292.598 225 302 215.598 302 204V22C302 10.402 292.598 1 281 1H22Z" fill="#FFFEF6" stroke="#4395E6" stroke-width="2"/>
<rect x="81.5491" y="42.9441" width="80.6622" height="108.332" rx="4" transform="rotate(-8.97748 81.5491 42.9441)" fill="#FFFEF6" stroke="#4395E6" stroke-width="2"/>
<rect x="105.317" y="24" width="80.6622" height="108.332" rx="4" fill="#FFFEF6" stroke="#4395E6" stroke-width="2"/>
<rect x="118.527" y="39.4031" width="53.6552" height="8.15446" rx="1.5" stroke="#4395E6"/>
<rect x="143.66" y="35.1453" width="80.6622" height="108.332" rx="4" transform="rotate(15.5587 143.66 35.1453)" fill="#FFFEF6" stroke="#4395E6" stroke-width="2"/>
<line x1="152.375" y1="64.2108" x2="201.304" y2="77.6839" stroke="#4395E6"/>
<line x1="148.351" y1="79.8302" x2="197.281" y2="93.3033" stroke="#4395E6"/>
<line x1="143.652" y1="95.6124" x2="192.581" y2="109.085" stroke="#4395E6"/>
<line x1="138.184" y1="113.04" x2="187.113" y2="126.513" stroke="#4395E6"/>
<circle cx="80.1787" cy="190.299" r="27" fill="#EFF5FF" stroke="#48B2FF"/>
<path d="M74.2091 196.875L95.8448 196.98L95.831 199.824L74.1953 199.719L74.2091 196.875ZM79.5359 189.701L79.5254 191.861L90.9013 191.916L90.9118 189.756L79.5359 189.701ZM79.5573 185.273L79.5472 187.361L90.9231 187.416L90.9332 185.328L79.5573 185.273ZM76.4014 182.774L94.2572 182.86L94.2014 194.38L76.3456 194.294L76.4014 182.774ZM83.5474 193.932L86.8954 193.949C86.1414 200.965 84.212 205.384 74.9134 207.535C74.5933 206.741 73.7714 205.477 73.1627 204.79C81.523 203.103 82.9439 199.618 83.5474 193.932ZM74.8819 176.898L84.7818 176.946L84.7683 179.718L74.8684 179.67L74.8819 176.898ZM78.9634 174.11L82.0234 174.125L81.9852 182.009L78.9252 181.994L78.9634 174.11ZM88.6833 174.157L91.7073 174.172L91.6691 182.056L88.6451 182.041L88.6833 174.157ZM85.8259 176.915L96.3018 176.966L96.2882 179.774L85.8123 179.723L85.8259 176.915ZM85.1289 201.896L87.1911 199.782C90.1718 201.309 94.4087 203.597 96.5977 205.048L94.4261 207.449C92.3811 205.999 88.181 203.531 85.1289 201.896ZM63.7023 180.912L75.1502 180.968L75.135 184.1L63.6871 184.044L63.7023 180.912ZM68.1636 174.058L71.2595 174.073L71.0976 207.48L68.0017 207.465L68.1636 174.058ZM68.1196 183.13L69.9877 183.931C68.9527 189.506 66.7945 196.551 64.4366 200.248C64.0815 199.238 63.3328 197.723 62.761 196.856C64.9722 193.734 67.1973 187.733 68.1196 183.13ZM71.0268 184.944C71.8494 186.064 74.7411 191.082 75.3834 192.273L73.3199 194.639C72.5382 192.511 70.4002 187.965 69.4368 186.196L71.0268 184.944Z" fill="#276BC6"/>
<circle cx="151.501" cy="190.299" r="27" fill="#EFF5FF" stroke="#48B2FF"/>
<path d="M144.848 175.19L147.692 175.198L147.67 182.686C147.666 183.766 147.809 184.091 148.493 184.093C149.105 184.095 151.625 184.102 152.237 184.104C152.849 184.106 153.894 184.037 154.434 183.931C154.504 184.651 154.572 185.803 154.678 186.451C154.174 186.63 153.202 186.663 152.302 186.66C151.582 186.658 148.954 186.65 148.378 186.648C145.498 186.64 144.817 185.558 144.826 182.642L144.848 175.19ZM134.354 193.23C136.84 192.482 140.48 191.197 144.048 189.876L144.651 192.973C141.443 194.188 138.019 195.473 135.208 196.509L134.354 193.23ZM134.927 182.18L144.035 182.207L144.026 185.339L134.918 185.312L134.927 182.18ZM138.476 175.099L141.464 175.108L141.375 204.88C141.37 206.5 141.08 207.363 140.142 207.864C139.204 208.401 137.836 208.505 135.712 208.463C135.606 207.706 135.215 206.337 134.821 205.436C136.153 205.476 137.413 205.48 137.809 205.481C138.205 205.482 138.386 205.339 138.387 204.871L138.476 175.099ZM146.145 186.894L148.771 187.442C148.114 190.644 146.988 193.916 145.614 196C145.111 195.567 143.997 194.843 143.386 194.518C144.76 192.578 145.632 189.736 146.145 186.894ZM155.845 193.475L158.437 193.627C158.201 200.178 157.286 205.143 154.432 208.627C154.001 208.193 152.888 207.362 152.277 207.036C155.058 204.057 155.684 199.342 155.845 193.475ZM146.784 189.956L154.38 189.978L154.372 192.642L145.984 192.617L146.784 189.956ZM143.561 196.318L154.721 196.352L154.713 199.052L143.553 199.018L143.561 196.318ZM155.393 176.301L165.581 176.332L165.573 178.996L155.385 178.965L155.393 176.301ZM154.781 188.108L166.229 188.142L166.221 190.914L154.773 190.88L154.781 188.108ZM148.508 191.365L151.28 191.373L151.268 195.261C151.257 199.041 150.448 204.547 144.568 208.561C144.138 207.948 143.276 207.117 142.63 206.611C148.076 203.244 148.487 198.313 148.496 195.217L148.508 191.365ZM148.404 201.805L150.174 199.866C151.503 201.022 153.262 202.611 154.051 203.622L152.244 205.848C151.455 204.73 149.769 203.033 148.404 201.805ZM164.537 176.329L165.185 176.331L165.725 176.152L167.665 177.454C166.145 180.222 163.76 183.275 161.738 185.213C161.308 184.635 160.446 183.733 159.872 183.299C161.641 181.684 163.593 178.882 164.535 176.905L164.537 176.329ZM156.13 182.676L158.079 180.846C160.559 182.329 163.864 184.607 165.515 186.124L163.457 188.206C161.914 186.653 158.645 184.303 156.13 182.676ZM165.473 188.14L165.869 188.141L166.265 188.07L167.92 188.507C167.518 190.702 166.97 193.256 166.461 194.911L164.447 194.329C164.775 192.818 165.178 190.443 165.472 188.536L165.473 188.14ZM159.998 189.275L162.626 189.283L162.574 206.671L159.95 205.367L159.998 189.275ZM161.381 196.228L167.213 196.245L167.205 198.981L161.373 198.963L161.381 196.228ZM157.7 199.168C158.944 204.428 161.57 205.336 164.63 205.345C165.242 205.347 167.654 205.354 168.554 205.357C168.192 206.004 167.792 207.299 167.682 208.054L164.442 208.045C160.266 208.032 157.246 206.655 155.61 199.882L157.7 199.168ZM146.279 178.326L153.767 178.349L153.759 180.869L146.271 180.846L146.279 178.326Z" fill="#276BC6"/>
<circle cx="222.5" cy="190.5" r="27" fill="#EFF5FF" stroke="#48B2FF"/>
<path d="M230.122 196.503L233.578 196.503C233.578 196.503 233.47 197.475 233.362 197.943C232.606 202.803 231.814 205.179 230.59 206.223C229.654 207.051 228.682 207.231 227.098 207.339C225.802 207.375 223.354 207.375 220.762 207.231C220.69 206.259 220.222 204.927 219.61 204.063C222.166 204.279 225.082 204.351 226.126 204.351C226.99 204.351 227.458 204.315 227.89 204.027C228.79 203.379 229.474 201.255 230.086 196.899L230.122 196.503ZM217.162 196.503L231.13 196.503L231.13 199.275L216.334 199.275L217.162 196.503ZM217.882 190.635L234.982 190.635L234.982 193.335L217.018 193.335L217.882 190.635ZM207.082 184.551L238.474 184.551L238.474 187.467L207.082 187.467L207.082 184.551ZM210.214 178.143L230.086 178.143L230.086 180.987L210.214 180.987L210.214 178.143ZM219.142 174.111L222.526 174.111L222.526 185.991L219.142 185.991L219.142 174.111ZM234.334 175.695L236.962 177.243C229.798 186.243 218.638 193.443 207.37 197.835C207.118 197.079 206.434 195.531 205.93 194.775C216.91 190.959 227.746 184.083 234.334 175.695ZM217.342 191.931L220.834 191.931C219.79 194.487 218.458 197.403 217.486 199.275L213.85 199.275C215.002 197.259 216.37 194.343 217.342 191.931Z" fill="#276BC6"/>
</svg>
