<svg width="115" height="80" viewBox="0 0 115 80" fill="none" xmlns="http://www.w3.org/2000/svg">
<g filter="url(#filter0_d_187_6703)">
<path fill-rule="evenodd" clip-rule="evenodd" d="M21.2425 51.9847C19.1567 47.7824 17.8676 43.1148 17.5729 38.1793C16.9321 38.498 16.3093 38.8167 15.7052 39.1352C11.3258 41.444 8.08545 43.6566 6.09051 45.5993C3.92226 47.7108 3.9808 48.7282 4.01317 48.8592C4.04553 48.9901 4.46779 49.9176 7.37014 50.7756C10.0405 51.5651 13.9385 52.013 18.8893 52.0153C19.6531 52.0157 20.4379 52.0055 21.2425 51.9847ZM89.501 35.2832C90.4775 34.8106 91.415 34.3374 92.3111 33.865C96.6906 31.5561 99.9309 29.3436 101.926 27.4008C104.094 25.2893 104.036 24.2719 104.003 24.141C103.971 24.01 103.549 23.0825 100.646 22.2245C97.9759 21.435 94.0778 20.9871 89.1271 20.9848C88.2007 20.9844 87.2436 20.9995 86.2576 21.0302C88.2512 25.3844 89.4019 30.2049 89.501 35.2832ZM84.7413 18.0857C97.324 17.5246 105.898 19.3036 106.916 23.421C107.944 27.5827 101.03 33.2272 89.4122 38.6466C88.0573 57.2931 72.5002 72 53.508 72C40.5711 72 29.228 65.176 22.8818 54.9313C10.514 55.4381 2.10805 53.6535 1.10084 49.5791C0.104284 45.5479 6.56074 40.1253 17.5256 34.8637C18.1258 15.5073 34.006 0 53.508 0C66.8685 0 78.529 7.27803 84.7413 18.0857Z" fill="#4395E6"/>
</g>
<defs>
<filter id="filter0_d_187_6703" x="0" y="0" width="114.017" height="80" filterUnits="userSpaceOnUse" color-interpolation-filters="sRGB">
<feFlood flood-opacity="0" result="BackgroundImageFix"/>
<feColorMatrix in="SourceAlpha" type="matrix" values="0 0 0 0 0 0 0 0 0 0 0 0 0 0 0 0 0 0 127 0" result="hardAlpha"/>
<feOffset dx="3" dy="4"/>
<feGaussianBlur stdDeviation="2"/>
<feComposite in2="hardAlpha" operator="out"/>
<feColorMatrix type="matrix" values="0 0 0 0 0.151771 0 0 0 0 0.420893 0 0 0 0 0.775 0 0 0 0.25 0"/>
<feBlend mode="normal" in2="BackgroundImageFix" result="effect1_dropShadow_187_6703"/>
<feBlend mode="normal" in="SourceGraphic" in2="effect1_dropShadow_187_6703" result="shape"/>
</filter>
</defs>
</svg>
