<svg width="181" height="209" viewBox="0 0 181 209" fill="none" xmlns="http://www.w3.org/2000/svg">
<rect x="20.1709" y="4" width="158.363" height="178.207" stroke="#4395E6" stroke-width="4"/>
<path d="M1 28.7013L18.5939 2.06104V182.454H179.999V207.927H18C8.61116 207.927 1 200.316 1 190.927V28.7013Z" fill="#276BC6" stroke="#4395E6"/>
<path d="M18.1709 184.408C12.9242 184.408 8.6709 188.661 8.6709 193.908C8.6709 199.154 12.9242 203.408 18.1709 203.408V184.408ZM18.1709 203.408H180.533V184.408H18.1709V203.408Z" fill="#EFF5FF"/>
<path d="M88.5447 71.968H105.953V75.52H88.5447V71.968ZM88.5447 78.816H105.953V82.368H88.5447V78.816ZM88.5447 85.696H105.953V89.248H88.5447V85.696ZM85.9207 64.992H109.185V90.784H105.089V68.672H89.8247V90.848H85.9207V64.992ZM95.0087 60.8L99.6487 61.28C98.8807 63.424 97.9527 65.536 97.2487 66.944L93.7287 66.304C94.2407 64.704 94.7847 62.464 95.0087 60.8ZM97.7607 113.104H112.065V116.72H97.7607V113.104ZM87.0087 114.832L88.7047 112.688C90.6567 113.808 93.2487 115.504 94.5287 116.688L92.7367 119.088C91.5207 117.84 88.9927 116.016 87.0087 114.832ZM105.857 108.72L108.641 107.216C109.761 108.464 111.073 110.192 111.649 111.376L108.705 113.072C108.193 111.888 106.945 110.032 105.857 108.72ZM88.6407 106.448L92.2247 107.504C90.4007 111.952 87.4247 116.592 83.7127 119.472C83.4247 118.576 82.7207 116.88 82.2407 116.048C85.1207 113.776 87.5207 109.776 88.6407 106.448ZM95.0407 109.488H95.7447L96.4487 109.392L98.8167 110.288C96.9287 120.08 92.0647 125.968 85.5687 128.816C85.0567 127.952 83.7447 126.448 82.9127 125.84C89.1847 123.408 93.6007 118.448 95.0407 110.224V109.488ZM90.1447 109.488H96.3207V112.528H88.0647L90.1447 109.488ZM102.081 107.28H105.697V111.568C105.697 116.784 104.673 124.08 97.1527 129.232C96.4807 128.464 95.2007 127.408 94.2727 126.768C101.217 121.936 102.081 115.696 102.081 111.504V107.28ZM91.7767 130.448L95.3287 130.064C95.7447 132.016 96.1287 134.544 96.1607 136.08L92.3847 136.656C92.3527 135.088 92.1287 132.464 91.7767 130.448ZM98.2727 130.384L101.857 129.776C102.657 131.664 103.457 134.192 103.745 135.76L99.9367 136.528C99.7447 134.96 99.0087 132.368 98.2727 130.384ZM104.833 130.352L108.225 128.912C109.697 130.864 111.489 133.552 112.289 135.312L108.641 136.976C107.969 135.216 106.273 132.4 104.833 130.352ZM86.1447 129.2L89.7927 130.16C88.7687 132.464 87.2007 135.184 85.8887 136.976L82.2407 135.504C83.5207 134 85.1207 131.44 86.1447 129.2ZM83.2007 119.824C84.8967 119.44 87.2007 118.8 89.6327 118.16L90.0487 120.528C87.9047 121.328 85.8247 122.064 83.9367 122.768L83.2007 119.824ZM102.945 116.848L106.113 115.536C108.417 119.056 111.169 123.76 112.321 126.8L108.865 128.368C107.841 125.36 105.249 120.496 102.945 116.848Z" fill="#276BC6"/>
<path d="M41.9607 32.252C40.1607 32.252 38.3967 31.568 37.1007 30.326L38.6307 28.49C39.5667 29.372 40.8447 29.948 42.0147 29.948C43.4007 29.948 44.1207 29.354 44.1207 28.436C44.1207 27.446 43.3107 27.122 42.1227 26.618L40.3407 25.862C39.0087 25.322 37.6407 24.224 37.6407 22.298C37.6407 20.12 39.5667 18.446 42.2487 18.446C43.7967 18.446 45.3447 19.058 46.4247 20.156L45.0927 21.83C44.2287 21.128 43.3467 20.732 42.2487 20.732C41.0787 20.732 40.3407 21.254 40.3407 22.118C40.3407 23.072 41.2947 23.432 42.4287 23.882L44.1747 24.602C45.7767 25.268 46.8387 26.312 46.8387 28.22C46.8387 30.398 45.0207 32.252 41.9607 32.252ZM53.2651 32.252C50.4931 32.252 48.3691 30.308 48.3691 26.978C48.3691 23.63 50.7631 21.686 53.4991 21.686C54.7591 21.686 55.6951 22.154 56.4331 22.802L55.1911 24.494C54.6871 24.062 54.2011 23.846 53.6611 23.846C52.0951 23.846 51.0691 25.07 51.0691 26.978C51.0691 28.868 52.1131 30.11 53.5531 30.11C54.2911 30.11 54.9751 29.75 55.5331 29.3L56.5771 31.046C55.6231 31.874 54.3811 32.252 53.2651 32.252ZM58.4913 32V21.938H61.1373V32H58.4913ZM59.8053 20.3C58.8873 20.3 58.2753 19.724 58.2753 18.842C58.2753 17.978 58.8873 17.42 59.8053 17.42C60.7233 17.42 61.3533 17.978 61.3533 18.842C61.3533 19.724 60.7233 20.3 59.8053 20.3ZM68.3501 32.252C65.5241 32.252 63.3281 30.308 63.3281 26.978C63.3281 23.702 65.6321 21.686 68.0081 21.686C70.7981 21.686 72.2201 23.702 72.2201 26.492C72.2201 26.996 72.1661 27.464 72.1121 27.716H65.8841C66.1181 29.372 67.1981 30.218 68.6921 30.218C69.5021 30.218 70.2221 29.966 70.9601 29.516L71.8421 31.154C70.8521 31.838 69.5921 32.252 68.3501 32.252ZM65.8481 25.952H69.9701C69.9701 24.584 69.3581 23.72 68.0621 23.72C67.0001 23.72 66.0641 24.476 65.8481 25.952ZM74.4171 32V21.938H76.5591L76.7751 23.27H76.8291C77.6931 22.406 78.7371 21.686 80.1051 21.686C82.2651 21.686 83.2191 23.198 83.2191 25.718V32H80.5731V26.06C80.5731 24.476 80.1231 23.954 79.1511 23.954C78.3231 23.954 77.8011 24.35 77.0631 25.07V32H74.4171ZM90.2144 32.252C87.4424 32.252 85.3184 30.308 85.3184 26.978C85.3184 23.63 87.7124 21.686 90.4484 21.686C91.7084 21.686 92.6444 22.154 93.3824 22.802L92.1404 24.494C91.6364 24.062 91.1504 23.846 90.6104 23.846C89.0444 23.846 88.0184 25.07 88.0184 26.978C88.0184 28.868 89.0624 30.11 90.5024 30.11C91.2404 30.11 91.9244 29.75 92.4824 29.3L93.5264 31.046C92.5724 31.874 91.3304 32.252 90.2144 32.252ZM99.1997 32.252C96.3737 32.252 94.1777 30.308 94.1777 26.978C94.1777 23.702 96.4817 21.686 98.8577 21.686C101.648 21.686 103.07 23.702 103.07 26.492C103.07 26.996 103.016 27.464 102.962 27.716H96.7337C96.9677 29.372 98.0477 30.218 99.5417 30.218C100.352 30.218 101.072 29.966 101.81 29.516L102.692 31.154C101.702 31.838 100.442 32.252 99.1997 32.252ZM96.6977 25.952H100.82C100.82 24.584 100.208 23.72 98.9117 23.72C97.8497 23.72 96.9137 24.476 96.6977 25.952Z" fill="#276BC6"/>
</svg>
