<svg width="181" height="209" viewBox="0 0 181 209" fill="none" xmlns="http://www.w3.org/2000/svg">
<rect x="20.3047" y="4" width="158.363" height="178.207" fill="#FFFEF6" stroke="#4395E6" stroke-width="4"/>
<path d="M1.13379 28.7013L18.7277 2.06104V182.454H180.133V207.927H18.1338C8.74495 207.927 1.13379 200.316 1.13379 190.927V28.7013Z" fill="#276BC6" stroke="#4395E6"/>
<path d="M18.3047 184.408C13.058 184.408 8.80469 188.661 8.80469 193.908C8.80469 199.154 13.058 203.408 18.3047 203.408V184.408ZM18.3047 203.408H180.667V184.408H18.3047V203.408Z" fill="#FFFEF6"/>
<path d="M88.6785 71.968H106.087V75.52H88.6785V71.968ZM88.6785 78.816H106.087V82.368H88.6785V78.816ZM88.6785 85.696H106.087V89.248H88.6785V85.696ZM86.0545 64.992H109.319V90.784H105.223V68.672H89.9585V90.848H86.0545V64.992ZM95.1425 60.8L99.7825 61.28C99.0145 63.424 98.0865 65.536 97.3825 66.944L93.8625 66.304C94.3745 64.704 94.9185 62.464 95.1425 60.8ZM97.8945 113.104H112.199V116.72H97.8945V113.104ZM87.1425 114.832L88.8385 112.688C90.7905 113.808 93.3825 115.504 94.6625 116.688L92.8705 119.088C91.6545 117.84 89.1265 116.016 87.1425 114.832ZM105.991 108.72L108.775 107.216C109.895 108.464 111.207 110.192 111.783 111.376L108.839 113.072C108.327 111.888 107.079 110.032 105.991 108.72ZM88.7745 106.448L92.3585 107.504C90.5345 111.952 87.5585 116.592 83.8465 119.472C83.5585 118.576 82.8545 116.88 82.3745 116.048C85.2545 113.776 87.6545 109.776 88.7745 106.448ZM95.1745 109.488H95.8785L96.5825 109.392L98.9505 110.288C97.0625 120.08 92.1985 125.968 85.7025 128.816C85.1905 127.952 83.8785 126.448 83.0465 125.84C89.3185 123.408 93.7345 118.448 95.1745 110.224V109.488ZM90.2785 109.488H96.4545V112.528H88.1985L90.2785 109.488ZM102.215 107.28H105.831V111.568C105.831 116.784 104.807 124.08 97.2865 129.232C96.6145 128.464 95.3345 127.408 94.4065 126.768C101.351 121.936 102.215 115.696 102.215 111.504V107.28ZM91.9105 130.448L95.4625 130.064C95.8785 132.016 96.2625 134.544 96.2945 136.08L92.5185 136.656C92.4865 135.088 92.2625 132.464 91.9105 130.448ZM98.4065 130.384L101.991 129.776C102.791 131.664 103.591 134.192 103.879 135.76L100.071 136.528C99.8785 134.96 99.1425 132.368 98.4065 130.384ZM104.967 130.352L108.359 128.912C109.831 130.864 111.623 133.552 112.423 135.312L108.775 136.976C108.103 135.216 106.407 132.4 104.967 130.352ZM86.2785 129.2L89.9265 130.16C88.9025 132.464 87.3345 135.184 86.0225 136.976L82.3745 135.504C83.6545 134 85.2545 131.44 86.2785 129.2ZM83.3345 119.824C85.0305 119.44 87.3345 118.8 89.7665 118.16L90.1825 120.528C88.0385 121.328 85.9585 122.064 84.0705 122.768L83.3345 119.824ZM103.079 116.848L106.247 115.536C108.551 119.056 111.303 123.76 112.455 126.8L108.999 128.368C107.975 125.36 105.383 120.496 103.079 116.848Z" fill="#276BC6"/>
<path d="M42.0945 32.252C40.2945 32.252 38.5305 31.568 37.2345 30.326L38.7645 28.49C39.7005 29.372 40.9785 29.948 42.1485 29.948C43.5345 29.948 44.2545 29.354 44.2545 28.436C44.2545 27.446 43.4445 27.122 42.2565 26.618L40.4745 25.862C39.1425 25.322 37.7745 24.224 37.7745 22.298C37.7745 20.12 39.7005 18.446 42.3825 18.446C43.9305 18.446 45.4785 19.058 46.5585 20.156L45.2265 21.83C44.3625 21.128 43.4805 20.732 42.3825 20.732C41.2125 20.732 40.4745 21.254 40.4745 22.118C40.4745 23.072 41.4285 23.432 42.5625 23.882L44.3085 24.602C45.9105 25.268 46.9725 26.312 46.9725 28.22C46.9725 30.398 45.1545 32.252 42.0945 32.252ZM53.3989 32.252C50.6269 32.252 48.5029 30.308 48.5029 26.978C48.5029 23.63 50.8969 21.686 53.6329 21.686C54.8929 21.686 55.8289 22.154 56.5669 22.802L55.3249 24.494C54.8209 24.062 54.3349 23.846 53.7949 23.846C52.2289 23.846 51.2029 25.07 51.2029 26.978C51.2029 28.868 52.2469 30.11 53.6869 30.11C54.4249 30.11 55.1089 29.75 55.6669 29.3L56.7109 31.046C55.7569 31.874 54.5149 32.252 53.3989 32.252ZM58.6251 32V21.938H61.2711V32H58.6251ZM59.9391 20.3C59.0211 20.3 58.4091 19.724 58.4091 18.842C58.4091 17.978 59.0211 17.42 59.9391 17.42C60.8571 17.42 61.4871 17.978 61.4871 18.842C61.4871 19.724 60.8571 20.3 59.9391 20.3ZM68.4839 32.252C65.6579 32.252 63.4619 30.308 63.4619 26.978C63.4619 23.702 65.7659 21.686 68.1419 21.686C70.9319 21.686 72.3539 23.702 72.3539 26.492C72.3539 26.996 72.2999 27.464 72.2459 27.716H66.0179C66.2519 29.372 67.3319 30.218 68.8259 30.218C69.6359 30.218 70.3559 29.966 71.0939 29.516L71.9759 31.154C70.9859 31.838 69.7259 32.252 68.4839 32.252ZM65.9819 25.952H70.1039C70.1039 24.584 69.4919 23.72 68.1959 23.72C67.1339 23.72 66.1979 24.476 65.9819 25.952ZM74.5509 32V21.938H76.6929L76.9089 23.27H76.9629C77.8269 22.406 78.8709 21.686 80.2389 21.686C82.3989 21.686 83.3529 23.198 83.3529 25.718V32H80.7069V26.06C80.7069 24.476 80.2569 23.954 79.2849 23.954C78.4569 23.954 77.9349 24.35 77.1969 25.07V32H74.5509ZM90.3482 32.252C87.5762 32.252 85.4522 30.308 85.4522 26.978C85.4522 23.63 87.8462 21.686 90.5822 21.686C91.8422 21.686 92.7782 22.154 93.5162 22.802L92.2742 24.494C91.7702 24.062 91.2842 23.846 90.7442 23.846C89.1782 23.846 88.1522 25.07 88.1522 26.978C88.1522 28.868 89.1962 30.11 90.6362 30.11C91.3742 30.11 92.0582 29.75 92.6162 29.3L93.6602 31.046C92.7062 31.874 91.4642 32.252 90.3482 32.252ZM99.3335 32.252C96.5075 32.252 94.3115 30.308 94.3115 26.978C94.3115 23.702 96.6155 21.686 98.9915 21.686C101.782 21.686 103.204 23.702 103.204 26.492C103.204 26.996 103.15 27.464 103.096 27.716H96.8675C97.1015 29.372 98.1815 30.218 99.6755 30.218C100.486 30.218 101.206 29.966 101.944 29.516L102.826 31.154C101.836 31.838 100.576 32.252 99.3335 32.252ZM96.8315 25.952H100.954C100.954 24.584 100.342 23.72 99.0455 23.72C97.9835 23.72 97.0475 24.476 96.8315 25.952Z" fill="#276BC6"/>
</svg>
