<svg width="181" height="209" viewBox="0 0 181 209" fill="none" xmlns="http://www.w3.org/2000/svg">
<rect x="20.1709" y="4" width="158.363" height="178.207" stroke="#4395E6" stroke-width="4"/>
<path d="M1 28.7013L18.5939 2.06104V182.454H179.999V207.927H18C8.61116 207.927 1 200.316 1 190.927V28.7013Z" fill="#276BC6" stroke="#4395E6"/>
<path d="M18.1709 184.408C12.9242 184.408 8.6709 188.661 8.6709 193.908C8.6709 199.154 12.9242 203.408 18.1709 203.408V184.408ZM18.1709 203.408H180.533V184.408H18.1709V203.408Z" fill="#EFF5FF"/>
<path d="M83.1893 72.176H92.9813V75.632H83.1893V72.176ZM87.3813 83.056L91.1253 78.576V96.848H87.3813V83.056ZM90.9653 79.728C91.9573 80.464 95.0933 83.504 95.8613 84.24L93.4933 87.44C92.4053 85.808 90.0373 82.96 88.8213 81.616L90.9653 79.728ZM91.8293 72.176H92.5973L93.2693 72.048L95.2853 73.52C92.9813 79.472 88.3093 85.008 83.7013 87.888C83.4773 86.8 82.7413 84.688 82.2613 83.952C86.3253 81.712 90.2292 77.264 91.8293 72.88V72.176ZM86.2293 68.272L89.2373 66.64C90.3893 67.888 91.6053 69.584 92.1493 70.736L89.0133 72.592C88.5013 71.408 87.3173 69.552 86.2293 68.272ZM94.1973 92.08H112.757V95.856H94.1973V92.08ZM95.6053 76.432H111.989V80.112H95.6053V76.432ZM101.941 67.024H105.877V93.904H101.941V67.024ZM89.8133 124.448V128.48H105.525V124.448H89.8133ZM86.6133 122.08H108.949V130.816H86.6133V122.08ZM92.1173 118.464H103.413V120.96H92.1173V118.464ZM96.0533 122.88H99.1573V129.632H96.0533V122.88ZM90.9333 125.152L93.5893 124.416C94.1653 125.504 94.6773 126.912 94.8693 127.872L92.0533 128.704C91.9253 127.744 91.4773 126.24 90.9333 125.152ZM101.525 124.288L104.693 125.056C104.021 126.432 103.349 127.776 102.837 128.672L100.213 127.968C100.693 126.912 101.269 125.344 101.525 124.288ZM88.3733 131.872H107.317V142.752H103.381V134.368H92.1493V142.88H88.3733V131.872ZM90.5493 135.648H105.013V138.176H90.5493V135.648ZM90.5493 139.488H105.013V141.984H90.5493V139.488ZM97.1093 112.544L100.501 113.792C96.9493 118.304 90.8373 121.472 84.5973 123.36C84.2133 122.592 83.2213 121.056 82.5813 120.384C88.5013 118.944 94.1973 116.256 97.1093 112.544ZM99.6373 114.016C102.485 116.768 108.021 119.072 113.365 120.16C112.565 120.832 111.477 122.208 110.933 123.072C105.557 121.696 100.085 118.752 96.7893 115.168L99.6373 114.016Z" fill="#276BC6"/>
<path d="M37.3973 31.252C35.5973 31.252 33.8333 30.568 32.5373 29.326L34.0673 27.49C35.0033 28.372 36.2812 28.948 37.4513 28.948C38.8373 28.948 39.5573 28.354 39.5573 27.436C39.5573 26.446 38.7473 26.122 37.5593 25.618L35.7773 24.862C34.4453 24.322 33.0773 23.224 33.0773 21.298C33.0773 19.12 35.0033 17.446 37.6853 17.446C39.2333 17.446 40.7812 18.058 41.8613 19.156L40.5293 20.83C39.6653 20.128 38.7833 19.732 37.6853 19.732C36.5153 19.732 35.7773 20.254 35.7773 21.118C35.7773 22.072 36.7313 22.432 37.8653 22.882L39.6113 23.602C41.2133 24.268 42.2753 25.312 42.2753 27.22C42.2753 29.398 40.4573 31.252 37.3973 31.252ZM48.6477 31.252C46.1097 31.252 43.8057 29.308 43.8057 25.978C43.8057 22.63 46.1097 20.686 48.6477 20.686C51.1677 20.686 53.4717 22.63 53.4717 25.978C53.4717 29.308 51.1677 31.252 48.6477 31.252ZM48.6477 29.11C50.0157 29.11 50.7717 27.868 50.7717 25.978C50.7717 24.07 50.0157 22.846 48.6477 22.846C47.2617 22.846 46.5057 24.07 46.5057 25.978C46.5057 27.868 47.2617 29.11 48.6477 29.11ZM59.9693 31.252C57.1973 31.252 55.0733 29.308 55.0733 25.978C55.0733 22.63 57.4673 20.686 60.2033 20.686C61.4633 20.686 62.3993 21.154 63.1373 21.802L61.8953 23.494C61.3913 23.062 60.9053 22.846 60.3653 22.846C58.7993 22.846 57.7733 24.07 57.7733 25.978C57.7733 27.868 58.8173 29.11 60.2573 29.11C60.9953 29.11 61.6793 28.75 62.2373 28.3L63.2812 30.046C62.3273 30.874 61.0853 31.252 59.9693 31.252ZM65.1954 31V20.938H67.8414V31H65.1954ZM66.5094 19.3C65.5914 19.3 64.9794 18.724 64.9794 17.842C64.9794 16.978 65.5914 16.42 66.5094 16.42C67.4274 16.42 68.0574 16.978 68.0574 17.842C68.0574 18.724 67.4274 19.3 66.5094 19.3ZM73.1282 31.252C71.3282 31.252 70.1582 29.992 70.1582 28.264C70.1582 26.122 71.9042 24.988 75.9542 24.538C75.9002 23.548 75.4862 22.81 74.2442 22.81C73.3082 22.81 72.3902 23.206 71.4722 23.764L70.5182 22C71.7062 21.28 73.1282 20.686 74.7302 20.686C77.2862 20.686 78.6002 22.198 78.6002 25.132V31H76.4402L76.2422 29.938H76.1702C75.2882 30.694 74.2802 31.252 73.1282 31.252ZM73.9922 29.182C74.7482 29.182 75.3062 28.84 75.9542 28.21V26.176C73.4882 26.482 72.6782 27.148 72.6782 28.066C72.6782 28.84 73.2182 29.182 73.9922 29.182ZM83.781 31.252C81.927 31.252 81.297 30.046 81.297 28.174V16.654H83.943V28.282C83.943 28.912 84.213 29.11 84.465 29.11C84.555 29.11 84.627 29.11 84.807 29.074L85.131 31.036C84.825 31.144 84.411 31.252 83.781 31.252ZM95.2469 31.252C93.4469 31.252 91.6829 30.568 90.3869 29.326L91.9169 27.49C92.8529 28.372 94.1309 28.948 95.3009 28.948C96.6869 28.948 97.4069 28.354 97.4069 27.436C97.4069 26.446 96.5969 26.122 95.4089 25.618L93.6269 24.862C92.2949 24.322 90.9269 23.224 90.9269 21.298C90.9269 19.12 92.8529 17.446 95.5349 17.446C97.0829 17.446 98.6309 18.058 99.7109 19.156L98.3789 20.83C97.5149 20.128 96.6329 19.732 95.5349 19.732C94.3649 19.732 93.6269 20.254 93.6269 21.118C93.6269 22.072 94.5809 22.432 95.7149 22.882L97.4609 23.602C99.0629 24.268 100.125 25.312 100.125 27.22C100.125 29.398 98.3069 31.252 95.2469 31.252ZM106.551 31.252C103.779 31.252 101.655 29.308 101.655 25.978C101.655 22.63 104.049 20.686 106.785 20.686C108.045 20.686 108.981 21.154 109.719 21.802L108.477 23.494C107.973 23.062 107.487 22.846 106.947 22.846C105.381 22.846 104.355 24.07 104.355 25.978C104.355 27.868 105.399 29.11 106.839 29.11C107.577 29.11 108.261 28.75 108.819 28.3L109.863 30.046C108.909 30.874 107.667 31.252 106.551 31.252ZM111.777 31V20.938H114.423V31H111.777ZM113.091 19.3C112.173 19.3 111.561 18.724 111.561 17.842C111.561 16.978 112.173 16.42 113.091 16.42C114.009 16.42 114.639 16.978 114.639 17.842C114.639 18.724 114.009 19.3 113.091 19.3ZM121.636 31.252C118.81 31.252 116.614 29.308 116.614 25.978C116.614 22.702 118.918 20.686 121.294 20.686C124.084 20.686 125.506 22.702 125.506 25.492C125.506 25.996 125.452 26.464 125.398 26.716H119.17C119.404 28.372 120.484 29.218 121.978 29.218C122.788 29.218 123.508 28.966 124.246 28.516L125.128 30.154C124.138 30.838 122.878 31.252 121.636 31.252ZM119.134 24.952H123.256C123.256 23.584 122.644 22.72 121.348 22.72C120.286 22.72 119.35 23.476 119.134 24.952ZM127.703 31V20.938H129.845L130.061 22.27H130.115C130.979 21.406 132.023 20.686 133.391 20.686C135.551 20.686 136.505 22.198 136.505 24.718V31H133.859V25.06C133.859 23.476 133.409 22.954 132.437 22.954C131.609 22.954 131.087 23.35 130.349 24.07V31H127.703ZM143.501 31.252C140.729 31.252 138.605 29.308 138.605 25.978C138.605 22.63 140.999 20.686 143.735 20.686C144.995 20.686 145.931 21.154 146.669 21.802L145.427 23.494C144.923 23.062 144.437 22.846 143.897 22.846C142.331 22.846 141.305 24.07 141.305 25.978C141.305 27.868 142.349 29.11 143.789 29.11C144.527 29.11 145.211 28.75 145.769 28.3L146.812 30.046C145.859 30.874 144.617 31.252 143.501 31.252ZM152.486 31.252C149.66 31.252 147.464 29.308 147.464 25.978C147.464 22.702 149.768 20.686 152.144 20.686C154.934 20.686 156.356 22.702 156.356 25.492C156.356 25.996 156.302 26.464 156.248 26.716H150.02C150.254 28.372 151.334 29.218 152.828 29.218C153.638 29.218 154.358 28.966 155.096 28.516L155.978 30.154C154.988 30.838 153.728 31.252 152.486 31.252ZM149.984 24.952H154.106C154.106 23.584 153.494 22.72 152.198 22.72C151.136 22.72 150.2 23.476 149.984 24.952Z" fill="#276BC6"/>
</svg>
