<svg width="2161" height="409" viewBox="0 0 2161 409" fill="none" xmlns="http://www.w3.org/2000/svg">
<g filter="url(#filter0_d_671_1178)">
<path fill-rule="evenodd" clip-rule="evenodd" d="M807.615 67.4744C796.832 41.0685 767.833 22.1582 733.751 22.1582C702.754 22.1582 675.961 37.8007 663.253 60.498C648.936 44.2088 626.354 33.6996 600.947 33.6996C560.489 33.6996 527.193 60.3475 523.03 94.5485C517.998 96.1845 513.211 98.2575 508.73 100.714C499.86 97.6863 490.201 96.0235 480.095 96.0235C436.821 96.0235 401.74 126.511 401.74 164.118C401.74 201.726 436.821 232.213 480.095 232.213C495.442 232.213 509.759 228.378 521.845 221.752C530.715 224.779 540.374 226.442 550.48 226.442C551.58 226.442 552.674 226.422 553.762 226.383C563.434 254.457 593.385 274.916 628.836 274.916C651.267 274.916 671.496 266.725 685.779 253.597C697.848 277.691 725.489 294.537 757.656 294.537C781.884 294.537 803.543 284.981 817.916 269.969C831.824 280.932 850.284 287.612 870.54 287.612C899.972 287.612 925.613 273.51 939.006 252.656C948.898 256.575 959.892 258.758 971.472 258.758C1014.75 258.758 1049.83 228.271 1049.83 190.664C1049.83 153.056 1014.75 122.569 971.472 122.569C956.147 122.569 941.85 126.392 929.774 133.002C916.6 115.269 894.203 103.197 868.481 101.909C856.202 82.9532 833.781 69.6222 807.615 67.4744Z" fill="#FFFEF6"/>
<path fill-rule="evenodd" clip-rule="evenodd" d="M1271.1 132.107C1260.32 105.701 1231.32 86.7905 1197.24 86.7905C1166.24 86.7905 1139.45 102.433 1126.74 125.13C1112.42 108.841 1089.84 98.332 1064.43 98.332C1023.98 98.332 990.68 124.979 986.517 159.18C981.483 160.816 976.696 162.889 972.214 165.346C963.344 162.319 953.685 160.656 943.579 160.656C900.305 160.656 865.225 191.143 865.225 228.751C865.225 266.358 900.305 296.845 943.579 296.845C958.926 296.845 973.243 293.011 985.33 286.384C994.2 289.412 1003.86 291.074 1013.96 291.074C1015.06 291.074 1016.16 291.055 1017.25 291.016C1026.92 319.089 1056.87 339.549 1092.32 339.549C1114.75 339.549 1134.98 331.358 1149.26 318.23C1161.33 342.324 1188.97 359.169 1221.14 359.169C1245.37 359.169 1267.03 349.613 1281.4 334.602C1295.31 345.565 1313.77 352.244 1334.03 352.244C1363.46 352.244 1389.1 338.142 1402.49 317.289C1412.38 321.208 1423.38 323.391 1434.96 323.391C1478.23 323.391 1513.31 292.904 1513.31 255.296C1513.31 217.689 1478.23 187.201 1434.96 187.201C1419.63 187.201 1405.33 191.025 1393.26 197.634C1380.08 179.902 1357.69 167.83 1331.97 166.541C1319.69 147.585 1297.27 134.255 1271.1 132.107Z" fill="#FFFEF6"/>
<path fill-rule="evenodd" clip-rule="evenodd" d="M150.74 314.158C151.84 314.158 152.934 314.138 154.022 314.099C163.694 342.172 193.645 362.632 229.095 362.632C251.526 362.632 271.756 354.44 286.039 341.312C298.108 365.406 325.748 382.252 357.916 382.252C382.143 382.252 403.803 372.696 418.176 357.685C432.083 368.648 450.544 375.327 470.8 375.327C500.231 375.327 525.873 361.225 539.266 340.372C549.157 344.29 560.151 346.473 571.731 346.473C615.005 346.473 650.085 315.986 650.085 278.379C650.085 240.771 615.005 210.284 571.731 210.284C556.406 210.284 542.109 214.108 530.033 220.717C516.859 202.985 494.463 190.913 468.74 189.624C456.462 170.668 434.041 157.337 407.874 155.19C397.092 128.784 368.092 109.873 334.011 109.873C309.333 109.873 287.321 119.788 272.958 135.283C260.52 111.969 233.35 95.7993 201.835 95.7993C158.561 95.7993 123.48 126.286 123.48 163.894C123.48 169.948 124.389 175.817 126.095 181.405C120.031 183.149 114.296 185.52 108.99 188.429C100.12 185.401 90.4608 183.739 80.3546 183.739C37.0806 183.739 2 214.226 2 251.833C2 289.441 37.0806 319.928 80.3546 319.928C95.7017 319.928 110.018 316.094 122.105 309.467C130.975 312.495 140.634 314.158 150.74 314.158Z" fill="#FFFEF6"/>
<path fill-rule="evenodd" clip-rule="evenodd" d="M1897.94 67.4744C1887.16 41.0685 1858.16 22.1582 1824.08 22.1582C1793.08 22.1582 1766.29 37.8004 1753.58 60.4974C1739.26 44.2085 1716.68 33.6996 1691.27 33.6996C1650.81 33.6996 1617.52 60.3473 1613.36 94.5481C1608.32 96.1843 1603.54 98.2573 1599.05 100.714C1590.18 97.6863 1580.53 96.0235 1570.42 96.0235C1527.15 96.0235 1492.06 126.511 1492.06 164.118C1492.06 201.726 1527.15 232.213 1570.42 232.213C1585.77 232.213 1600.08 228.378 1612.17 221.752C1621.04 224.779 1630.7 226.442 1640.8 226.442C1641.9 226.442 1643 226.422 1644.09 226.383C1653.76 254.457 1683.71 274.916 1719.16 274.916C1741.59 274.916 1761.82 266.725 1776.1 253.596C1788.17 277.691 1815.81 294.537 1847.98 294.537C1872.21 294.537 1893.87 284.981 1908.24 269.97C1922.15 280.932 1940.61 287.612 1960.86 287.612C1990.3 287.612 2015.94 273.51 2029.33 252.657C2039.22 256.575 2050.22 258.758 2061.8 258.758C2105.07 258.758 2140.15 228.271 2140.15 190.664C2140.15 153.056 2105.07 122.569 2061.8 122.569C2046.47 122.569 2032.17 126.392 2020.1 133.002C2006.92 115.27 1984.53 103.198 1958.8 101.909C1946.53 82.9532 1924.11 69.6222 1897.94 67.4744Z" fill="#FFFEF6"/>
<path fill-rule="evenodd" clip-rule="evenodd" d="M1858.1 155.19C1847.32 128.784 1818.32 109.873 1784.23 109.873C1753.24 109.873 1726.44 125.516 1713.74 148.213C1699.42 131.924 1676.84 121.415 1651.43 121.415C1610.97 121.415 1577.68 148.063 1573.51 182.264C1568.48 183.9 1563.69 185.973 1559.21 188.429C1550.34 185.401 1540.68 183.739 1530.58 183.739C1487.3 183.739 1452.22 214.226 1452.22 251.833C1452.22 289.441 1487.3 319.928 1530.58 319.928C1545.93 319.928 1560.24 316.094 1572.33 309.467C1581.2 312.495 1590.86 314.157 1600.96 314.157C1602.06 314.157 1603.16 314.138 1604.24 314.099C1613.92 342.172 1643.87 362.632 1679.32 362.632C1701.75 362.632 1721.98 354.44 1736.26 341.311C1748.33 365.406 1775.97 382.252 1808.14 382.252C1832.37 382.252 1854.03 372.696 1868.4 357.685C1882.31 368.648 1900.77 375.327 1921.02 375.327C1950.46 375.327 1976.1 361.225 1989.49 340.371C1999.38 344.29 2010.38 346.474 2021.96 346.474C2065.23 346.474 2100.31 315.986 2100.31 278.379C2100.31 240.771 2065.23 210.284 2021.96 210.284C2006.63 210.284 1992.33 214.108 1980.26 220.717C1967.08 202.984 1944.69 190.912 1918.96 189.624C1906.69 170.668 1884.26 157.337 1858.1 155.19Z" fill="#FFFEF6"/>
<path fill-rule="evenodd" clip-rule="evenodd" d="M1553.98 51.3164C1543.19 24.9104 1514.19 6 1480.11 6C1449.12 6 1422.32 21.6422 1409.61 44.3392C1395.3 28.0503 1372.72 17.5415 1347.31 17.5415C1306.85 17.5415 1273.56 44.1891 1269.39 78.3899C1264.36 80.0261 1259.57 82.0991 1255.09 84.5559C1246.22 81.5281 1236.56 79.8653 1226.46 79.8653C1183.18 79.8653 1148.1 110.352 1148.1 147.96C1148.1 185.568 1183.18 216.055 1226.46 216.055C1241.8 216.055 1256.12 212.22 1268.21 205.593C1277.08 208.621 1286.74 210.284 1296.84 210.284C1297.94 210.284 1299.04 210.264 1300.12 210.225C1309.8 238.299 1339.75 258.758 1375.2 258.758C1397.63 258.758 1417.86 250.567 1432.14 237.439C1444.21 261.533 1471.85 278.379 1504.02 278.379C1528.24 278.379 1549.9 268.823 1564.28 253.811C1578.18 264.774 1596.65 271.454 1616.9 271.454C1646.33 271.454 1671.97 257.352 1685.37 236.499C1695.26 240.417 1706.25 242.6 1717.83 242.6C1761.11 242.6 1796.19 212.113 1796.19 174.506C1796.19 136.898 1761.11 106.411 1717.83 106.411C1702.51 106.411 1688.21 110.234 1676.13 116.844C1662.96 99.1114 1640.56 87.0394 1614.84 85.7506C1602.56 66.7951 1580.14 53.4642 1553.98 51.3164Z" fill="#FFFEF6"/>
<path fill-rule="evenodd" clip-rule="evenodd" d="M915.648 216.293C904.844 189.922 875.865 171.043 841.812 171.043C811.078 171.043 784.477 186.421 771.641 208.806C757.301 192.846 734.953 182.585 709.847 182.585C669.389 182.585 636.093 209.232 631.931 243.433C626.898 245.069 622.11 247.142 617.63 249.599C608.76 246.571 599.1 244.909 588.994 244.909C545.72 244.909 510.64 275.396 510.64 313.003C510.64 350.611 545.72 381.098 588.994 381.098C604.341 381.098 618.658 377.263 630.745 370.637C639.615 373.665 649.274 375.327 659.38 375.327C668.771 375.327 677.777 373.891 686.122 371.258C700.071 382.395 718.679 389.193 739.114 389.193C762.327 389.193 783.183 380.42 797.531 366.481C797.638 366.503 797.744 366.526 797.851 366.548C812.196 382.435 834.491 392.641 859.53 392.641C870.836 392.641 881.583 390.56 891.291 386.815C892.337 386.851 893.388 386.869 894.445 386.869C908.716 386.869 922.097 383.553 933.622 377.759C945.147 383.553 958.527 386.869 972.799 386.869C998.268 386.869 1020.9 376.308 1035.21 359.951C1049.54 373.651 1070.22 382.252 1093.2 382.252C1136.48 382.252 1171.56 351.765 1171.56 314.158C1171.56 276.55 1136.48 246.063 1093.2 246.063C1071.13 246.063 1051.18 253.996 1036.94 266.762C1022.93 248.286 998.839 236.094 971.473 236.094C969.239 236.094 967.028 236.175 964.841 236.334C952.078 225.088 934.846 217.683 915.648 216.293Z" fill="#FFFEF6"/>
</g>
<defs>
<filter id="filter0_d_671_1178" x="0.666035" y="0.664145" width="2159.49" height="407.985" filterUnits="userSpaceOnUse" color-interpolation-filters="sRGB">
<feFlood flood-opacity="0" result="BackgroundImageFix"/>
<feColorMatrix in="SourceAlpha" type="matrix" values="0 0 0 0 0 0 0 0 0 0 0 0 0 0 0 0 0 0 127 0" result="hardAlpha"/>
<feOffset dx="9.33774" dy="5.33585"/>
<feGaussianBlur stdDeviation="5.33585"/>
<feComposite in2="hardAlpha" operator="out"/>
<feColorMatrix type="matrix" values="0 0 0 0 0.151771 0 0 0 0 0.420893 0 0 0 0 0.775 0 0 0 0.25 0"/>
<feBlend mode="normal" in2="BackgroundImageFix" result="effect1_dropShadow_671_1178"/>
<feBlend mode="normal" in="SourceGraphic" in2="effect1_dropShadow_671_1178" result="shape"/>
</filter>
</defs>
</svg>
