<svg width="1440" height="800" viewBox="0 0 1440 800" fill="none" xmlns="http://www.w3.org/2000/svg">
<g clip-path="url(#clip0_377_74)">
<g filter="url(#filter0_d_377_74)">
<path fill-rule="evenodd" clip-rule="evenodd" d="M0 600.351V411V211H200H202.684H543.1C619.823 211 686.456 254.202 720 317.606C753.544 254.202 820.177 211 896.9 211H1237.32H1240H1440L1440 411V600.351L1440 800.351H1240H1237.32H1041.9H896.9H543.1H413.023H202.684H200H0V600.351Z" fill="#EFF5FF"/>
</g>
<g filter="url(#filter1_d_377_74)">
<path fill-rule="evenodd" clip-rule="evenodd" d="M279.346 116.174C243.801 109.596 209.392 131.941 202.41 166.193C195.41 200.534 218.629 233.84 254.272 240.584C289.915 247.328 324.484 224.957 331.484 190.616C331.493 190.572 331.502 190.527 331.511 190.483L266.699 178.219L279.346 116.174Z" fill="#FFDE67"/>
<ellipse cx="5.41724" cy="5.26651" rx="5.41724" ry="5.26651" transform="matrix(0.935309 0.352608 -0.376452 0.92693 230.045 140.132)" fill="#1C276D"/>
<ellipse cx="5.41724" cy="5.26651" rx="5.41724" ry="5.26651" transform="matrix(0.935309 0.352608 -0.376452 0.92693 246.933 146.499)" fill="#1C276D"/>
<path d="M229.211 160.368C230.231 163.918 234.541 169.783 243.621 164.849" stroke="#1C276D"/>
<path d="M222.946 161.773C224.872 162.657 229.013 163.052 230.175 157.56" stroke="#1C276D"/>
<path d="M245.485 162.188C243.878 163.539 241.858 167.045 246.628 170.252" stroke="#1C276D"/>
</g>
<path d="M205.066 414.984H209.986V415.728H205.066V414.984ZM205.018 416.664H209.494V417.348H205.018V416.664ZM203.866 419.964H210.298V420.744H203.866V419.964ZM204.706 414.984H205.582V420.468H204.706V414.984ZM209.314 421.02L209.998 421.584C209.362 422.124 208.594 422.724 208.006 423.096L207.514 422.64C208.078 422.232 208.87 421.524 209.314 421.02ZM206.746 420.42C207.43 422.184 208.846 423.84 210.478 424.56C210.274 424.728 210.01 425.052 209.866 425.292C208.186 424.428 206.794 422.616 206.026 420.612L206.746 420.42ZM205.066 418.284H209.566V418.968H205.066V418.284ZM204.454 425.544L204.382 424.8L204.754 424.464L207.238 423.648C207.25 423.876 207.274 424.212 207.31 424.392C205.006 425.22 204.658 425.376 204.454 425.544ZM201.25 414.444H202.006V425.472H201.25V414.444ZM199.738 416.712H203.302V417.516H200.434V423H199.738V416.712ZM202.894 416.712H203.59V422.004C203.59 422.328 203.542 422.58 203.338 422.724C203.122 422.868 202.846 422.892 202.426 422.892C202.414 422.664 202.306 422.316 202.186 422.1C202.474 422.112 202.702 422.112 202.798 422.112C202.87 422.1 202.894 422.076 202.894 421.98V416.712ZM204.454 425.544C204.382 425.316 204.166 424.908 204.01 424.716C204.178 424.596 204.418 424.332 204.418 423.852V420.456H205.27V424.668C205.27 424.668 204.454 425.232 204.454 425.544ZM212.686 415.632V417.432H214.75V415.632H212.686ZM212.002 414.948H215.47V418.116H212.002V414.948ZM211.426 419.064H215.758V419.856H211.426V419.064ZM212.554 419.4H213.334C213.19 420.204 212.974 421.188 212.806 421.812H212.014C212.206 421.152 212.422 420.168 212.554 419.4ZM212.638 421.08H214.81V421.812H212.446L212.638 421.08ZM214.498 421.08H215.29C215.29 421.08 215.278 421.32 215.266 421.44C215.086 423.78 214.93 424.68 214.606 425.016C214.414 425.232 214.234 425.304 213.91 425.328C213.67 425.352 213.19 425.352 212.71 425.316C212.698 425.088 212.626 424.764 212.494 424.56C212.962 424.596 213.406 424.608 213.586 424.608C213.766 424.608 213.874 424.584 213.958 424.488C214.186 424.26 214.342 423.42 214.498 421.212V421.08ZM219.058 415.248H221.938V415.992H219.058V415.248ZM216.694 416.808H221.95V417.54H216.694V416.808ZM216.286 416.808H217.078V419.868C217.078 421.536 216.922 423.888 215.854 425.484C215.722 425.328 215.386 425.088 215.194 424.992C216.178 423.492 216.286 421.404 216.286 419.868V416.808ZM217.33 418.74L220.942 418.38L221.014 419.016L217.414 419.388L217.33 418.74ZM221.71 416.808H221.83L221.974 416.772L222.526 416.916C222.382 417.624 222.178 418.464 222.022 418.992L221.338 418.824C221.47 418.332 221.626 417.552 221.71 416.916V416.808ZM218.038 421.368H218.806C218.734 423.3 218.422 424.656 217.114 425.46C217.018 425.268 216.79 424.992 216.61 424.86C217.738 424.2 217.966 423.036 218.038 421.368ZM219.826 421.368H220.594V424.152C220.594 424.236 220.606 424.32 220.69 424.344C220.738 424.392 220.834 424.404 220.942 424.404C221.038 424.404 221.218 424.404 221.35 424.404C221.47 424.404 221.614 424.392 221.674 424.344C221.734 424.308 221.806 424.212 221.83 424.092C221.854 423.9 221.878 423.432 221.866 422.88C222.022 423.024 222.31 423.192 222.538 423.252C222.526 423.816 222.478 424.416 222.418 424.632C222.346 424.848 222.226 424.992 222.058 425.088C221.902 425.16 221.638 425.208 221.422 425.208C221.266 425.208 220.894 425.208 220.774 425.208C220.51 425.208 220.234 425.16 220.066 425.016C219.874 424.86 219.826 424.68 219.826 424.14V421.368ZM218.65 414.42H219.514V417.192H218.65V414.42ZM218.602 417.612H219.382V419.652C219.382 419.952 219.418 420.06 219.67 420.06C219.862 420.06 220.75 420.06 220.954 420.06C221.17 420.06 221.53 420.048 221.686 420C221.71 420.228 221.734 420.48 221.77 420.672C221.602 420.732 221.29 420.744 220.99 420.744C220.75 420.744 219.73 420.744 219.538 420.744C218.77 420.744 218.602 420.408 218.602 419.628V417.612Z" fill="#FFFEF6"/>
<path d="M201.13 482.876L201.862 483.2C201.478 483.956 200.938 484.868 200.242 485.456L199.51 485.012C200.206 484.484 200.794 483.596 201.13 482.876ZM202.57 482.672H203.386V484.976C203.386 485.312 203.518 485.372 204.226 485.372C204.55 485.372 206.23 485.372 206.662 485.372C207.25 485.372 207.346 485.216 207.394 484.052C207.586 484.184 207.922 484.304 208.15 484.352C208.042 485.768 207.778 486.116 206.722 486.116C206.446 486.116 204.442 486.116 204.178 486.116C202.894 486.116 202.57 485.888 202.57 484.988V482.672ZM203.17 481.976L203.626 481.448C204.358 481.772 205.258 482.3 205.714 482.708L205.234 483.296C204.802 482.876 203.902 482.312 203.17 481.976ZM207.694 483.368L208.342 482.936C209.11 483.572 210.01 484.496 210.406 485.132L209.71 485.624C209.326 485 208.462 484.04 207.694 483.368ZM207.202 481.844L207.958 482.228C206.122 484.46 203.014 485.924 199.93 486.824C199.822 486.62 199.558 486.248 199.39 486.068C202.51 485.3 205.534 483.884 207.202 481.844ZM204.454 486.512H205.378V489.524H204.454V486.512ZM208.198 487.052H209.086V490.436H208.198V487.052ZM199.87 480.452H210.046V482.804H209.134V481.268H200.746V482.804H199.87V480.452ZM204.25 479.444L205.102 479.3C205.294 479.756 205.474 480.356 205.534 480.728L204.634 480.908C204.574 480.524 204.418 479.912 204.25 479.444ZM200.878 487.148H201.754V489.068H208.702V489.92H200.878V487.148ZM211.522 479.996H215.926V480.824H211.522V479.996ZM212.758 483.74H215.482V488.924H212.758V488.132H214.678V484.532H212.758V483.74ZM212.974 480.392L213.838 480.524C213.466 483.044 212.854 485.408 211.762 486.98C211.678 486.788 211.402 486.356 211.234 486.164C212.182 484.796 212.686 482.648 212.974 480.392ZM212.362 483.74H213.154V489.92H212.362V483.74ZM216.886 481.82H221.746V482.552H216.886V481.82ZM216.886 483.668H221.746V484.412H216.886V483.668ZM216.442 485.552H221.71V486.344H216.442V485.552ZM218.926 480.344H219.742V485.888H218.926V480.344ZM217.438 487.304L218.062 487.208C218.206 487.928 218.29 488.828 218.278 489.416L217.618 489.524C217.642 488.924 217.57 488.012 217.438 487.304ZM218.71 487.208L219.298 487.052C219.55 487.628 219.778 488.396 219.874 488.888L219.25 489.068C219.178 488.576 218.95 487.796 218.71 487.208ZM219.922 486.944L220.402 486.74C220.75 487.172 221.098 487.772 221.254 488.144L220.714 488.396C220.57 488 220.234 487.4 219.922 486.944ZM216.274 486.932L216.958 487.1C216.838 488.144 216.61 489.26 216.034 489.92L215.398 489.56C215.926 488.96 216.166 487.916 216.274 486.932ZM216.442 479.936H222.046V480.728H217.27V485.948H216.442V479.936ZM221.446 485.552H222.274C222.274 485.552 222.274 485.804 222.262 485.924C222.13 488.744 221.998 489.776 221.686 490.124C221.494 490.352 221.29 490.436 220.966 490.46C220.69 490.484 220.174 490.484 219.646 490.46C219.634 490.22 219.55 489.896 219.418 489.668C219.934 489.716 220.414 489.728 220.594 489.728C220.786 489.728 220.882 489.704 220.978 489.596C221.194 489.356 221.338 488.372 221.446 485.696V485.552Z" fill="#FFFEF6"/>
</g>
<defs>
<filter id="filter0_d_377_74" x="-6" y="199" width="1456" height="605.351" filterUnits="userSpaceOnUse" color-interpolation-filters="sRGB">
<feFlood flood-opacity="0" result="BackgroundImageFix"/>
<feColorMatrix in="SourceAlpha" type="matrix" values="0 0 0 0 0 0 0 0 0 0 0 0 0 0 0 0 0 0 127 0" result="hardAlpha"/>
<feOffset dx="2" dy="-4"/>
<feGaussianBlur stdDeviation="4"/>
<feComposite in2="hardAlpha" operator="out"/>
<feColorMatrix type="matrix" values="0 0 0 0 0.151771 0 0 0 0 0.420893 0 0 0 0 0.775 0 0 0 0.25 0"/>
<feBlend mode="normal" in2="BackgroundImageFix" result="effect1_dropShadow_377_74"/>
<feBlend mode="normal" in="SourceGraphic" in2="effect1_dropShadow_377_74" result="shape"/>
</filter>
<filter id="filter1_d_377_74" x="197.165" y="111.025" width="146.347" height="142.759" filterUnits="userSpaceOnUse" color-interpolation-filters="sRGB">
<feFlood flood-opacity="0" result="BackgroundImageFix"/>
<feColorMatrix in="SourceAlpha" type="matrix" values="0 0 0 0 0 0 0 0 0 0 0 0 0 0 0 0 0 0 127 0" result="hardAlpha"/>
<feOffset dx="4" dy="4"/>
<feGaussianBlur stdDeviation="4"/>
<feComposite in2="hardAlpha" operator="out"/>
<feColorMatrix type="matrix" values="0 0 0 0 0.151771 0 0 0 0 0.420893 0 0 0 0 0.775 0 0 0 0.25 0"/>
<feBlend mode="normal" in2="BackgroundImageFix" result="effect1_dropShadow_377_74"/>
<feBlend mode="normal" in="SourceGraphic" in2="effect1_dropShadow_377_74" result="shape"/>
</filter>
<clipPath id="clip0_377_74">
<rect width="1440" height="800" fill="white"/>
</clipPath>
</defs>
</svg>
